<?xml version="1.0" encoding="UTF-8" standalone="no"?>
<!-- Created with Inkscape (http://www.inkscape.org/) -->

<svg
   width="162.20403mm"
   height="267.13364mm"
   viewBox="0 0 162.20403 267.13364"
   version="1.1"
   id="svg5"
   inkscape:version="1.1 (c68e22c387, 2021-05-23)"
   sodipodi:docname="kabbalah2.svg"
   xmlns:inkscape="http://www.inkscape.org/namespaces/inkscape"
   xmlns:sodipodi="http://sodipodi.sourceforge.net/DTD/sodipodi-0.dtd"
   xmlns="http://www.w3.org/2000/svg"
   xmlns:svg="http://www.w3.org/2000/svg">
  <sodipodi:namedview
     id="namedview7"
     pagecolor="#ffffff"
     bordercolor="#666666"
     borderopacity="1.0"
     inkscape:pageshadow="2"
     inkscape:pageopacity="0.0"
     inkscape:pagecheckerboard="0"
     inkscape:document-units="mm"
     showgrid="false"
     inkscape:zoom="0.26191077"
     inkscape:cx="-639.53078"
     inkscape:cy="437.17179"
     inkscape:window-width="1288"
     inkscape:window-height="745"
     inkscape:window-x="-8"
     inkscape:window-y="-8"
     inkscape:window-maximized="1"
     inkscape:current-layer="layer1"
     fit-margin-top="0"
     fit-margin-left="0"
     fit-margin-right="0"
     fit-margin-bottom="0" />
  <defs
     id="defs2">
    <pattern
       id="EMFhbasepattern"
       patternUnits="userSpaceOnUse"
       width="6"
       height="6"
       x="0"
       y="0" />
  </defs>
  <g
     inkscape:label="圖層 1"
     inkscape:groupmode="layer"
     id="layer1"
     transform="translate(-21.9388,-12.912779)">
    <path
       style="fill:#000000;fill-opacity:1;fill-rule:nonzero;stroke:#000000;stroke-width:0.0273254px;stroke-linecap:butt;stroke-linejoin:round;stroke-miterlimit:4;stroke-dasharray:none;stroke-opacity:1"
       d="m 104.12007,193.90287 c -0.46453,0 -0.87441,-0.38256 -0.87441,-0.87441 v -31.47892 c 0,-0.30058 0.16395,-0.57383 0.43721,-0.73779 0.27325,-0.16395 0.60116,-0.16395 0.87441,-0.0273 l 59.02297,31.47891 c 0.3279,0.19128 0.51918,0.60116 0.4372,0.98372 -0.1093,0.38256 -0.46453,0.65581 -0.87441,0.65581 z m 59.02297,-1.74883 -0.40988,1.66685 -59.02297,-31.47891 1.2843,-0.79244 v 31.47892 l -0.87442,-0.87442 z"
       id="path1249" />
    <path
       style="fill:#000000;fill-opacity:1;fill-rule:nonzero;stroke:#000000;stroke-width:0.0273254px;stroke-linecap:butt;stroke-linejoin:round;stroke-miterlimit:4;stroke-dasharray:none;stroke-opacity:1"
       d="m 104.12007,192.15404 -0.87441,0.87442 v -31.47892 l 1.31162,0.79244 -59.022957,31.47891 -0.43721,-1.66685 z m -59.022957,1.74883 c -0.38255,0 -0.73778,-0.27325 -0.84708,-0.65581 -0.082,-0.38256 0.082,-0.79244 0.4372,-0.98372 l 59.022957,-31.47891 c 0.27326,-0.13663 0.60116,-0.13663 0.87442,0.0273 0.27325,0.16396 0.40988,0.43721 0.40988,0.73779 v 31.47892 c 0,0.49185 -0.38256,0.87441 -0.87442,0.87441 z"
       id="path1251" />
    <path
       style="fill:#000000;fill-opacity:1;fill-rule:nonzero;stroke:#000000;stroke-width:0.0273254px;stroke-linecap:butt;stroke-linejoin:round;stroke-miterlimit:4;stroke-dasharray:none;stroke-opacity:1"
       d="m 104.12007,193.90287 0.87442,-0.87441 v 31.0417 l -1.25697,-0.76511 59.02297,-31.04171 0.38255,1.63953 z m 59.02297,-1.74883 c 0.40988,0 0.76511,0.30058 0.87441,0.68314 0.082,0.38255 -0.1093,0.79244 -0.46453,0.98371 l -59.02296,31.04171 c -0.27326,0.13663 -0.57384,0.13663 -0.84709,-0.0273 -0.27326,-0.16395 -0.43721,-0.4372 -0.43721,-0.76511 v -31.0417 c 0,-0.46454 0.40988,-0.87442 0.87441,-0.87442 z"
       id="path1253" />
    <path
       style="fill:#000000;fill-opacity:1;fill-rule:nonzero;stroke:#000000;stroke-width:0.0273254px;stroke-linecap:butt;stroke-linejoin:round;stroke-miterlimit:4;stroke-dasharray:none;stroke-opacity:1"
       d="m 104.12007,192.15404 c 0.49186,0 0.87442,0.40988 0.87442,0.87442 v 31.0417 c 0,0.32791 -0.13663,0.60116 -0.40988,0.76511 -0.27326,0.16396 -0.60116,0.16396 -0.84709,0.0273 L 44.714563,193.82089 c -0.35523,-0.19127 -0.54651,-0.60116 -0.46453,-0.98371 0.1093,-0.38256 0.46453,-0.68314 0.84708,-0.68314 z m -59.022957,1.74883 0.40988,-1.63953 59.022967,31.04171 -1.2843,0.76511 v -31.0417 l 0.87441,0.87441 z"
       id="path1255" />
    <path
       style="fill:#000000;fill-opacity:1;fill-rule:nonzero;stroke:#000000;stroke-width:0.0273254px;stroke-linecap:butt;stroke-linejoin:round;stroke-miterlimit:4;stroke-dasharray:none;stroke-opacity:1"
       d="m 104.12007,131.38225 c -0.46453,0 -0.87441,-0.38256 -0.87441,-0.87441 V 99.028925 c 0,-0.30058 0.16395,-0.573834 0.43721,-0.737788 0.27325,-0.163952 0.60116,-0.163952 0.87441,-0.02733 l 59.02297,31.478913 c 0.3279,0.19128 0.51918,0.60116 0.4372,0.98372 -0.1093,0.38256 -0.46453,0.65581 -0.87441,0.65581 z m 59.02297,-1.74883 -0.40988,1.66685 -59.02297,-31.478907 1.2843,-0.792438 v 31.478915 l -0.87442,-0.87442 z"
       id="path1257" />
    <path
       style="fill:#000000;fill-opacity:1;fill-rule:nonzero;stroke:#000000;stroke-width:0.0273254px;stroke-linecap:butt;stroke-linejoin:round;stroke-miterlimit:4;stroke-dasharray:none;stroke-opacity:1"
       d="m 104.12007,129.63342 -0.87441,0.87442 V 99.028925 l 1.31162,0.792438 -59.022957,31.478907 -0.43721,-1.66685 z m -59.022957,1.74883 c -0.38255,0 -0.73778,-0.27325 -0.84708,-0.65581 -0.082,-0.38256 0.082,-0.79244 0.4372,-0.98372 L 103.71019,98.263811 c 0.27326,-0.136626 0.60116,-0.136626 0.87442,0.02733 0.27325,0.163954 0.40988,0.437208 0.40988,0.737788 v 31.478911 c 0,0.49185 -0.38256,0.87441 -0.87442,0.87441 z"
       id="path1259" />
    <path
       style="fill:#000000;fill-opacity:1;fill-rule:nonzero;stroke:#000000;stroke-width:0.0273254px;stroke-linecap:butt;stroke-linejoin:round;stroke-miterlimit:4;stroke-dasharray:none;stroke-opacity:1"
       d="m 104.12007,131.38225 0.87442,-0.87441 v 31.0417 l -1.25697,-0.76511 59.02297,-31.04171 0.38255,1.63953 z m 59.02297,-1.74883 c 0.40988,0 0.76511,0.30058 0.87441,0.68314 0.082,0.38256 -0.1093,0.79244 -0.46453,0.98371 l -59.02296,31.04171 c -0.27326,0.13663 -0.57384,0.13663 -0.84709,-0.0273 -0.27326,-0.16395 -0.43721,-0.4372 -0.43721,-0.76511 v -31.0417 c 0,-0.46454 0.40988,-0.87442 0.87441,-0.87442 z"
       id="path1261" />
    <path
       style="fill:#000000;fill-opacity:1;fill-rule:nonzero;stroke:#000000;stroke-width:0.0273254px;stroke-linecap:butt;stroke-linejoin:round;stroke-miterlimit:4;stroke-dasharray:none;stroke-opacity:1"
       d="m 104.12007,129.63342 c 0.49186,0 0.87442,0.40988 0.87442,0.87442 v 31.0417 c 0,0.32791 -0.13663,0.60116 -0.40988,0.76511 -0.27326,0.16396 -0.60116,0.16396 -0.84709,0.0273 L 44.714563,131.30027 c -0.35523,-0.19127 -0.54651,-0.60115 -0.46453,-0.98371 0.1093,-0.38256 0.46453,-0.68314 0.84708,-0.68314 z m -59.022957,1.74883 0.40988,-1.63953 59.022967,31.04171 -1.2843,0.76511 v -31.0417 l 0.87441,0.87441 z"
       id="path1263" />
    <path
       style="fill:#000000;fill-opacity:1;fill-rule:nonzero;stroke:#000000;stroke-width:0.0273254px;stroke-linecap:butt;stroke-linejoin:round;stroke-miterlimit:4;stroke-dasharray:none;stroke-opacity:1"
       d="m 104.12007,68.861633 c -0.46453,0 -0.87441,-0.382555 -0.87441,-0.874413 V 36.508307 c 0,-0.30058 0.16395,-0.573837 0.43721,-0.737788 0.27325,-0.163952 0.60116,-0.163952 0.87441,-0.02733 l 59.02297,31.478914 c 0.3279,0.191278 0.51918,0.601159 0.4372,0.983715 -0.1093,0.382559 -0.46453,0.655812 -0.87441,0.655812 z m 59.02297,-1.748829 -0.40988,1.666854 -59.02297,-31.478914 1.2843,-0.792437 V 67.98722 l -0.87442,-0.874416 z"
       id="path1265" />
    <path
       style="fill:#000000;fill-opacity:1;fill-rule:nonzero;stroke:#000000;stroke-width:0.0273254px;stroke-linecap:butt;stroke-linejoin:round;stroke-miterlimit:4;stroke-dasharray:none;stroke-opacity:1"
       d="m 104.12007,67.112804 -0.87441,0.874416 V 36.508307 l 1.31162,0.792437 -59.022957,31.478914 -0.43721,-1.666854 z m -59.022957,1.748829 c -0.38255,0 -0.73778,-0.273253 -0.84708,-0.655812 -0.082,-0.382556 0.082,-0.792437 0.4372,-0.983715 L 103.71019,35.743192 c 0.27326,-0.136625 0.60116,-0.136625 0.87442,0.02733 0.27325,0.163951 0.40988,0.437208 0.40988,0.737788 v 31.478913 c 0,0.491858 -0.38256,0.874413 -0.87442,0.874413 z"
       id="path1267" />
    <path
       style="fill:#000000;fill-opacity:1;fill-rule:nonzero;stroke:#000000;stroke-width:0.0273254px;stroke-linecap:butt;stroke-linejoin:round;stroke-miterlimit:4;stroke-dasharray:none;stroke-opacity:1"
       d="m 104.12007,68.861633 0.87442,-0.874413 v 31.041705 l -1.25697,-0.765114 59.02297,-31.041705 0.38255,1.639527 z m 59.02297,-1.748829 c 0.40988,0 0.76511,0.30058 0.87441,0.683138 0.082,0.382556 -0.1093,0.792438 -0.46453,0.983716 l -59.02296,31.041705 c -0.27326,0.136628 -0.57384,0.136628 -0.84709,-0.02733 -0.27326,-0.163951 -0.43721,-0.437205 -0.43721,-0.765111 V 67.98722 c 0,-0.464534 0.40988,-0.874416 0.87441,-0.874416 z"
       id="path1269" />
    <path
       style="fill:#000000;fill-opacity:1;fill-rule:nonzero;stroke:#000000;stroke-width:0.0273254px;stroke-linecap:butt;stroke-linejoin:round;stroke-miterlimit:4;stroke-dasharray:none;stroke-opacity:1"
       d="m 104.12007,67.112804 c 0.49186,0 0.87442,0.409882 0.87442,0.874416 v 31.041705 c 0,0.327906 -0.13663,0.60116 -0.40988,0.765111 -0.27326,0.163955 -0.60116,0.163955 -0.84709,0.02733 L 44.714563,68.779658 c -0.35523,-0.191278 -0.54651,-0.60116 -0.46453,-0.983716 0.1093,-0.382558 0.46453,-0.683138 0.84708,-0.683138 z m -59.022957,1.748829 0.40988,-1.639527 59.022967,31.041705 -1.2843,0.765114 V 67.98722 l 0.87441,0.874413 z"
       id="path1271" />
    <path
       style="fill:#000000;fill-opacity:1;fill-rule:nonzero;stroke:#000000;stroke-width:0.0273254px;stroke-linecap:butt;stroke-linejoin:round;stroke-miterlimit:4;stroke-dasharray:none;stroke-opacity:1"
       d="m 45.971533,67.98722 0.082,125.17786 h -1.74883 l -0.082,-125.17786 z"
       id="path1273" />
    <path
       style="fill:#000000;fill-opacity:1;fill-rule:nonzero;stroke:#000000;stroke-width:0.0273254px;stroke-linecap:butt;stroke-linejoin:round;stroke-miterlimit:4;stroke-dasharray:none;stroke-opacity:1"
       d="m 164.01745,67.98722 0.082,125.17786 h -1.74883 l -0.082,-125.17786 z"
       id="path1275" />
    <path
       style="fill:#000000;fill-opacity:1;fill-rule:nonzero;stroke:#000000;stroke-width:0.0273254px;stroke-linecap:butt;stroke-linejoin:round;stroke-miterlimit:4;stroke-dasharray:none;stroke-opacity:1"
       d="m 104.99449,224.07016 0.082,28.69172 h -1.74883 l -0.082,-28.66439 z"
       id="path1277" />
    <path
       style="fill:#000000;fill-opacity:1;fill-rule:nonzero;stroke:#000000;stroke-width:0.0273254px;stroke-linecap:butt;stroke-linejoin:round;stroke-miterlimit:4;stroke-dasharray:none;stroke-opacity:1"
       d="m 163.90815,68.451751 -59.02296,93.890229 -1.5029,-0.92907 59.02296,-93.890224 z"
       id="path1279" />
    <path
       style="fill:#000000;fill-opacity:1;fill-rule:nonzero;stroke:#000000;stroke-width:0.0273254px;stroke-linecap:butt;stroke-linejoin:round;stroke-miterlimit:4;stroke-dasharray:none;stroke-opacity:1"
       d="m 45.862223,67.522686 59.022967,93.890224 -1.5029,0.92907 -59.022957,-93.890229 z"
       id="path1281" />
    <path
       style="fill:#ffffff;fill-opacity:1;fill-rule:evenodd;stroke:none;stroke-width:0.264583"
       d="m 143.68732,191.06102 c 0,-10.8482 8.82612,-19.67432 19.67432,-19.67432 0,0 0,0 0,0 v 0 c 10.87553,0 19.67433,8.82612 19.67433,19.67432 0,0 0,0 0,0 v 0 c 0,10.87553 -8.7988,19.67432 -19.67433,19.67432 0,0 0,0 0,0 v 0 c -10.8482,0 -19.67432,-8.79879 -19.67432,-19.67432 0,0 0,0 0,0 z"
       id="path1283" />
    <path
       style="fill:#000000;fill-opacity:1;fill-rule:nonzero;stroke:#000000;stroke-width:0.0273254px;stroke-linecap:butt;stroke-linejoin:round;stroke-miterlimit:4;stroke-dasharray:none;stroke-opacity:1"
       d="m 143.05884,191.11567 0.1093,-2.10406 0.30058,-1.99475 0.46453,-1.94011 0.71047,-1.88546 0.84708,-1.77615 1.01104,-1.66685 2.4593,-3.0058 c 0.0273,-0.0273 0.0546,-0.0547 0.082,-0.082 l 2.92382,-2.40464 1.69418,-1.03836 1.77616,-0.84709 1.85812,-0.71046 1.96744,-0.49186 1.99476,-0.30058 2.07673,-0.13663 2.10406,0.1093 1.99476,0.32791 1.9401,0.46453 1.88546,0.71046 1.77615,0.84709 1.69418,1.01104 c 0.0273,0.0273 0.0547,0.0273 0.082,0.0547 l 2.89649,2.40464 c 0.0273,0.0273 0.0547,0.0547 0.082,0.082 l 2.40464,2.92382 1.03837,1.69418 0.84708,1.77616 0.71047,1.85812 0.49185,1.96744 0.30058,1.99475 0.10931,2.07674 -0.10931,2.10406 -0.30058,1.99475 -0.46453,1.94011 -0.71046,1.88546 -0.84709,1.77615 -1.01104,1.69418 c -0.0273,0.0273 -0.0273,0.0546 -0.0546,0.082 l -2.40464,2.8965 c -0.0273,0.0273 -0.0547,0.0547 -0.082,0.082 l -2.89649,2.40464 c -0.0273,0.0273 -0.0547,0.0273 -0.082,0.0547 l -1.63953,0.98371 -1.77615,0.84709 -1.85813,0.71047 -1.96743,0.49185 -1.99476,0.30058 -2.07674,0.10931 -2.10405,-0.10931 -1.99476,-0.30058 -1.94011,-0.46453 -1.88545,-0.71046 -1.77616,-0.84709 -1.66685,-1.01104 -3.0058,-2.45929 c -0.0273,-0.0273 -0.0546,-0.0546 -0.082,-0.082 l -2.40464,-2.8965 c -0.0273,-0.0273 -0.0273,-0.0547 -0.0547,-0.082 l -0.98371,-1.63953 -0.84709,-1.77615 -0.71046,-1.85813 -0.49186,-1.96744 -0.30058,-1.99475 z m 1.3936,1.88546 0.30058,1.88545 0.4372,1.80348 0.65581,1.74883 0.79244,1.66685 0.98372,1.63953 -0.0547,-0.082 2.40464,2.89649 -0.082,-0.082 2.84185,2.34998 1.55755,0.9564 1.66685,0.79243 1.7215,0.65581 1.83081,0.46454 1.88545,0.27325 1.94011,0.1093 1.96743,-0.082 1.88546,-0.30058 1.80348,-0.43721 1.74882,-0.65581 1.66686,-0.79244 1.63952,-0.98372 -0.082,0.0547 2.89649,-2.40464 -0.082,0.082 2.40464,-2.89649 -0.0547,0.082 0.95639,-1.58487 0.79243,-1.66686 0.65582,-1.7215 0.46453,-1.8308 0.27325,-1.88546 0.13663,-1.94011 -0.1093,-1.96743 -0.30058,-1.88545 -0.43721,-1.80348 -0.65581,-1.74883 -0.79244,-1.66686 -0.92906,-1.53022 -2.40464,-2.92382 0.082,0.082 -2.89649,-2.40463 0.082,0.0547 -1.58487,-0.95639 -1.66685,-0.79244 -1.72151,-0.65581 -1.8308,-0.46454 -1.88546,-0.30058 -1.94011,-0.1093 -1.96743,0.1093 -1.88545,0.30058 -1.80348,0.43721 -1.74883,0.65581 -1.66685,0.79244 -1.53023,0.92907 -2.92382,2.40463 0.082,-0.082 -2.34999,2.84185 -0.95639,1.55755 -0.79244,1.66685 -0.65581,1.7215 -0.46453,1.83081 -0.30058,1.88545 -0.1093,1.94011 z"
       id="path1285" />
    <text
       xml:space="preserve"
       style="font-style:normal;font-variant:normal;font-weight:700;font-size:6.99492px;line-height:125%;font-family:'微軟正黑體';text-align:start;letter-spacing:0px;word-spacing:0px;text-anchor:start;fill:#000000;fill-opacity:1;stroke:none;stroke-width:0.264583"
       x="155.93239"
       y="187.82326"
       id="text1291"><tspan
         sodipodi:role="line"
         x="155.93239"
         y="187.82326"
         id="tspan1289"
         style="stroke-width:0.264583"><tspan
           dx="0"
           dy="0"
           style="font-style:normal;font-variant:normal;font-weight:700;font-size:6.99492px;font-family:'微軟正黑體';fill:#000000;stroke-width:0.264583"
           id="tspan1287">光榮</tspan></tspan></text>
    <text
       xml:space="preserve"
       style="font-style:normal;font-variant:normal;font-weight:700;font-size:6.99492px;line-height:125%;font-family:'微軟正黑體';text-align:start;letter-spacing:0px;word-spacing:0px;text-anchor:start;fill:#000000;fill-opacity:1;stroke:none;stroke-width:0.264583"
       x="146.31383"
       y="196.13019"
       id="text1297"><tspan
         sodipodi:role="line"
         x="146.31383"
         y="196.13019"
         id="tspan1295"
         style="stroke-width:0.264583"><tspan
           dx="0"
           dy="0"
           style="font-style:normal;font-variant:normal;font-weight:700;font-size:6.99492px;font-family:'微軟正黑體';fill:#000000;stroke-width:0.264583"
           id="tspan1293">NETZACH</tspan></tspan></text>
    <text
       xml:space="preserve"
       style="font-style:normal;font-variant:normal;font-weight:700;font-size:6.99492px;line-height:125%;font-family:'微軟正黑體';text-align:start;letter-spacing:0px;word-spacing:0px;text-anchor:start;fill:#000000;fill-opacity:1;stroke:none;stroke-width:0.264583"
       x="160.74165"
       y="204.43712"
       id="text1303"><tspan
         sodipodi:role="line"
         x="160.74165"
         y="204.43712"
         id="tspan1301"
         style="stroke-width:0.264583"><tspan
           dx="0"
           dy="0"
           style="font-style:normal;font-variant:normal;font-weight:700;font-size:6.99492px;font-family:'微軟正黑體';fill:#000000;stroke-width:0.264583"
           id="tspan1299">9</tspan></tspan></text>
    <path
       style="fill:#ffffff;fill-opacity:1;fill-rule:evenodd;stroke:none;stroke-width:0.264583"
       d="m 84.664363,259.70254 c 0,-10.8482 8.82612,-19.67432 19.674317,-19.67432 0,0 0,0 0,0 v 0 c 10.87553,0 19.67432,8.82612 19.67432,19.67432 0,0 0,0 0,0 v 0 c 0,10.87553 -8.79879,19.67431 -19.67432,19.67431 0,0 0,0 0,0 v 0 c -10.848197,0 -19.674317,-8.79878 -19.674317,-19.67431 0,0 0,0 0,0 z"
       id="path1305" />
    <path
       style="fill:#000000;fill-opacity:1;fill-rule:nonzero;stroke:#000000;stroke-width:0.0273254px;stroke-linecap:butt;stroke-linejoin:round;stroke-miterlimit:4;stroke-dasharray:none;stroke-opacity:1"
       d="m 84.035873,259.75719 0.1093,-2.10406 0.30058,-1.99475 0.46454,-1.94011 0.71046,-1.88546 0.84709,-1.77615 1.01104,-1.66685 2.45929,-3.0058 c 0.0273,-0.0273 0.0547,-0.0546 0.082,-0.082 l 2.92382,-2.40464 1.69418,-1.03836 1.77615,-0.84709 1.85813,-0.71046 1.967437,-0.49186 1.99475,-0.30058 2.07674,-0.13663 2.10406,0.1093 1.99475,0.32791 1.94011,0.46453 1.88546,0.71046 1.77615,0.84709 1.69418,1.01104 c 0.0273,0.0273 0.0546,0.0273 0.082,0.0547 l 2.89649,2.40464 c 0.0273,0.0273 0.0547,0.0547 0.082,0.082 l 2.40464,2.92382 1.03837,1.69418 0.84708,1.77615 0.71046,1.85813 0.49186,1.96743 0.30058,1.99476 0.1093,2.07674 -0.1093,2.10406 -0.30058,1.99475 -0.46453,1.94011 -0.71046,1.88546 -0.84709,1.77615 -1.01104,1.69417 c -0.0273,0.0273 -0.0273,0.0547 -0.0547,0.082 l -2.40464,2.8965 c -0.0273,0.0273 -0.0546,0.0546 -0.082,0.082 l -2.89649,2.40464 c -0.0273,0.0273 -0.0547,0.0273 -0.082,0.0546 l -1.63953,0.98372 -1.77615,0.84709 -1.85813,0.71046 -1.96743,0.49186 -1.99476,0.3006 -2.07674,0.1093 -2.10406,-0.1093 -1.99475,-0.3006 -1.940107,-0.46453 -1.88546,-0.71045 -1.77615,-0.84709 -1.66685,-1.01106 -3.0058,-2.45927 c -0.0273,-0.0273 -0.0547,-0.0547 -0.082,-0.082 l -2.40464,-2.8965 c -0.0273,-0.0273 -0.0273,-0.0547 -0.0546,-0.082 l -0.98372,-1.63952 -0.84709,-1.77615 -0.71045,-1.85813 -0.49186,-1.96744 -0.30058,-1.99475 z m 1.3936,1.88546 0.30058,1.88545 0.43721,1.80348 0.65581,1.74883 0.79244,1.66685 0.98371,1.63953 -0.0546,-0.082 2.40464,2.89651 -0.082,-0.082 2.84185,2.35 1.55755,0.95639 1.66685,0.79242 1.7215,0.65583 1.830807,0.46453 1.88546,0.27326 1.9401,0.1093 1.96743,-0.082 1.88546,-0.30056 1.80348,-0.4372 1.74883,-0.65582 1.66685,-0.79243 1.63952,-0.98372 -0.082,0.0546 2.8965,-2.40463 -0.082,0.082 2.40464,-2.89651 -0.0546,0.082 0.95639,-1.58487 0.79243,-1.66686 0.65582,-1.7215 0.46453,-1.8308 0.30058,-1.88546 0.1093,-1.94011 -0.1093,-1.96743 -0.30058,-1.88546 -0.43721,-1.80348 -0.65581,-1.74882 -0.79244,-1.66686 -0.92906,-1.53022 -2.40464,-2.92382 0.082,0.082 -2.8965,-2.40464 0.082,0.0547 -1.58487,-0.9564 -1.66685,-0.79243 -1.72151,-0.65582 -1.8308,-0.46453 -1.88546,-0.30058 -1.9401,-0.1093 -1.96743,0.1093 -1.88546,0.30058 -1.803477,0.43721 -1.74883,0.65581 -1.66685,0.79244 -1.53023,0.92906 -2.92382,2.40464 0.082,-0.082 -2.34999,2.84184 -0.95639,1.55755 -0.79244,1.66685 -0.65581,1.72151 -0.46453,1.8308 -0.30058,1.88546 -0.1093,1.94011 z"
       id="path1307" />
    <text
       xml:space="preserve"
       style="font-style:normal;font-variant:normal;font-weight:700;font-size:6.99492px;line-height:125%;font-family:'微軟正黑體';text-align:start;letter-spacing:0px;word-spacing:0px;text-anchor:start;fill:#000000;fill-opacity:1;stroke:none;stroke-width:0.264583"
       x="97.197411"
       y="256.68387"
       id="text1313"><tspan
         sodipodi:role="line"
         x="97.197411"
         y="256.68387"
         id="tspan1311"
         style="stroke-width:0.264583"><tspan
           dx="0"
           dy="0"
           style="font-style:normal;font-variant:normal;font-weight:700;font-size:6.99492px;font-family:'微軟正黑體';fill:#000000;stroke-width:0.264583"
           id="tspan1309">王國</tspan></tspan></text>
    <text
       xml:space="preserve"
       style="font-style:normal;font-variant:normal;font-weight:700;font-size:6.99492px;line-height:125%;font-family:'微軟正黑體';text-align:start;letter-spacing:0px;word-spacing:0px;text-anchor:start;fill:#000000;fill-opacity:1;stroke:none;stroke-width:0.264583"
       x="86.70443"
       y="264.99078"
       id="text1319"><tspan
         sodipodi:role="line"
         x="86.70443"
         y="264.99078"
         id="tspan1317"
         style="stroke-width:0.264583"><tspan
           dx="0"
           dy="0"
           style="font-style:normal;font-variant:normal;font-weight:700;font-size:6.99492px;font-family:'微軟正黑體';fill:#000000;stroke-width:0.264583"
           id="tspan1315">MALKUTH</tspan></tspan></text>
    <text
       xml:space="preserve"
       style="font-style:normal;font-variant:normal;font-weight:700;font-size:6.99492px;line-height:125%;font-family:'微軟正黑體';text-align:start;letter-spacing:0px;word-spacing:0px;text-anchor:start;fill:#000000;fill-opacity:1;stroke:none;stroke-width:0.264583"
       x="99.820641"
       y="273.29773"
       id="text1325"><tspan
         sodipodi:role="line"
         x="99.820641"
         y="273.29773"
         id="tspan1323"
         style="stroke-width:0.264583"><tspan
           dx="0"
           dy="0"
           style="font-style:normal;font-variant:normal;font-weight:700;font-size:6.99492px;font-family:'微軟正黑體';fill:#000000;stroke-width:0.264583"
           id="tspan1321">11</tspan></tspan></text>
    <path
       style="fill:#ffffff;fill-opacity:1;fill-rule:evenodd;stroke:none;stroke-width:0.264583"
       d="m 85.101573,213.79579 c 0,-10.8482 8.82611,-19.67432 19.674317,-19.67432 0,0 0,0 0,0 v 0 c 10.87553,0 19.67432,8.82612 19.67432,19.67432 0,0 0,0 0,0 v 0 c 0,10.87553 -8.79879,19.67432 -19.67432,19.67432 0,0 0,0 0,0 v 0 c -10.848207,0 -19.674317,-8.79879 -19.674317,-19.67432 0,0 0,0 0,0 z"
       id="path1327" />
    <path
       style="fill:#000000;fill-opacity:1;fill-rule:nonzero;stroke:#000000;stroke-width:0.0273254px;stroke-linecap:butt;stroke-linejoin:round;stroke-miterlimit:4;stroke-dasharray:none;stroke-opacity:1"
       d="m 84.473083,213.85044 0.1093,-2.10406 0.30058,-1.99475 0.46453,-1.94011 0.71046,-1.88546 0.84709,-1.77615 1.01105,-1.66685 2.45929,-3.0058 c 0.0273,-0.0273 0.0547,-0.0547 0.082,-0.082 l 2.92382,-2.40464 1.69418,-1.03836 1.77615,-0.84709 1.85813,-0.71046 1.967427,-0.49186 1.99476,-0.30058 2.07673,-0.13663 2.10406,0.1093 1.99476,0.32791 1.94011,0.46453 1.88545,0.71046 1.77616,0.84709 1.69417,1.01104 c 0.0273,0.0273 0.0547,0.0273 0.082,0.0547 l 2.8965,2.40464 c 0.0273,0.0273 0.0546,0.0547 0.082,0.082 l 2.40464,2.92382 1.03836,1.69418 0.84709,1.77616 0.71046,1.85812 0.49186,1.96744 0.30058,1.99476 0.1093,2.07673 -0.1093,2.10406 -0.30058,1.99475 -0.46453,1.94011 -0.71046,1.88546 -0.84709,1.77615 -1.01104,1.69418 c -0.0273,0.0273 -0.0273,0.0546 -0.0546,0.082 l -2.40464,2.8965 c -0.0273,0.0273 -0.0547,0.0547 -0.082,0.082 l -2.8965,2.40464 c -0.0273,0.0273 -0.0546,0.0273 -0.082,0.0546 l -1.63952,0.98371 -1.77616,0.84709 -1.85813,0.71047 -1.96743,0.49185 -1.99476,0.30058 -2.07673,0.10931 -2.10406,-0.10931 -1.99476,-0.30058 -1.940097,-0.46453 -1.88546,-0.71046 -1.77615,-0.84709 -1.66686,-1.01104 -3.00579,-2.45929 c -0.0273,-0.0273 -0.0547,-0.0547 -0.082,-0.082 l -2.40464,-2.8965 c -0.0273,-0.0273 -0.0273,-0.0546 -0.0547,-0.082 l -0.98372,-1.63953 -0.84709,-1.77615 -0.71046,-1.85813 -0.49186,-1.96744 -0.30058,-1.99475 z m 1.3936,1.88546 0.30058,1.88545 0.4372,1.80348 0.65581,1.74883 0.79244,1.66685 0.98372,1.63953 -0.0546,-0.082 2.40464,2.89649 -0.082,-0.082 2.84185,2.34998 1.55755,0.9564 1.66685,0.79243 1.7215,0.65581 1.830807,0.46454 1.88545,0.27325 1.94011,0.1093 1.96743,-0.082 1.88546,-0.30058 1.80348,-0.43721 1.74882,-0.65581 1.66686,-0.79244 1.63953,-0.98372 -0.082,0.0547 2.8965,-2.40464 -0.082,0.082 2.40464,-2.89649 -0.0547,0.082 0.95639,-1.58487 0.79244,-1.66686 0.65581,-1.7215 0.46453,-1.8308 0.30058,-1.88546 0.10931,-1.94011 -0.10931,-1.96743 -0.30058,-1.88545 -0.4372,-1.80348 -0.65581,-1.74883 -0.79244,-1.66685 -0.92907,-1.53023 -2.40464,-2.92382 0.082,0.082 -2.8965,-2.40463 0.082,0.0547 -1.58488,-0.95639 -1.66686,-0.79244 -1.7215,-0.65581 -1.8308,-0.46454 -1.88546,-0.30058 -1.9401,-0.1093 -1.96744,0.1093 -1.88545,0.30058 -1.803477,0.43721 -1.74883,0.65581 -1.66685,0.79244 -1.53023,0.92907 -2.92382,2.40463 0.082,-0.082 -2.34999,2.84185 -0.95639,1.55755 -0.79244,1.66685 -0.65581,1.7215 -0.46453,1.83081 -0.30058,1.88545 -0.1093,1.94011 z"
       id="path1329" />
    <text
       xml:space="preserve"
       style="font-style:normal;font-variant:normal;font-weight:700;font-size:6.99492px;line-height:125%;font-family:'微軟正黑體';text-align:start;letter-spacing:0px;word-spacing:0px;text-anchor:start;fill:#000000;fill-opacity:1;stroke:none;stroke-width:0.264583"
       x="97.195915"
       y="210.77679"
       id="text1335"><tspan
         sodipodi:role="line"
         x="97.195915"
         y="210.77679"
         id="tspan1333"
         style="stroke-width:0.264583"><tspan
           dx="0"
           dy="0"
           style="font-style:normal;font-variant:normal;font-weight:700;font-size:6.99492px;font-family:'微軟正黑體';fill:#000000;stroke-width:0.264583"
           id="tspan1331">根基</tspan></tspan></text>
    <text
       xml:space="preserve"
       style="font-style:normal;font-variant:normal;font-weight:700;font-size:6.99492px;line-height:125%;font-family:'微軟正黑體';text-align:start;letter-spacing:0px;word-spacing:0px;text-anchor:start;fill:#000000;fill-opacity:1;stroke:none;stroke-width:0.264583"
       x="92.823845"
       y="219.08372"
       id="text1341"><tspan
         sodipodi:role="line"
         x="92.823845"
         y="219.08372"
         id="tspan1339"
         style="stroke-width:0.264583"><tspan
           dx="0"
           dy="0"
           style="font-style:normal;font-variant:normal;font-weight:700;font-size:6.99492px;font-family:'微軟正黑體';fill:#000000;stroke-width:0.264583"
           id="tspan1337">YESOD</tspan></tspan></text>
    <text
       xml:space="preserve"
       style="font-style:normal;font-variant:normal;font-weight:700;font-size:6.99492px;line-height:125%;font-family:'微軟正黑體';text-align:start;letter-spacing:0px;word-spacing:0px;text-anchor:start;fill:#000000;fill-opacity:1;stroke:none;stroke-width:0.264583"
       x="99.819176"
       y="227.39067"
       id="text1347"><tspan
         sodipodi:role="line"
         x="99.819176"
         y="227.39067"
         id="tspan1345"
         style="stroke-width:0.264583"><tspan
           dx="0"
           dy="0"
           style="font-style:normal;font-variant:normal;font-weight:700;font-size:6.99492px;font-family:'微軟正黑體';fill:#000000;stroke-width:0.264583"
           id="tspan1343">10</tspan></tspan></text>
    <path
       style="fill:#ffffff;fill-opacity:1;fill-rule:evenodd;stroke:none;stroke-width:0.264583"
       d="m 84.227153,158.27049 c 0,-10.8482 8.82612,-19.67432 19.674317,-19.67432 0,0 0,0 0,0 v 0 c 10.87553,0 19.67433,8.82612 19.67433,19.67432 0,0 0,0 0,0 v 0 c 0,10.87553 -8.7988,19.67432 -19.67433,19.67432 0,0 0,0 0,0 v 0 c -10.848197,0 -19.674317,-8.79879 -19.674317,-19.67432 0,0 0,0 0,0 z"
       id="path1349" />
    <path
       style="fill:#000000;fill-opacity:1;fill-rule:nonzero;stroke:#000000;stroke-width:0.0273254px;stroke-linecap:butt;stroke-linejoin:round;stroke-miterlimit:4;stroke-dasharray:none;stroke-opacity:1"
       d="m 83.598673,158.32514 0.1093,-2.10406 0.30058,-1.99476 0.46453,-1.9401 0.71046,-1.88546 0.84709,-1.77615 1.01104,-1.66685 2.45929,-3.0058 c 0.0273,-0.0273 0.0546,-0.0547 0.082,-0.082 l 2.92382,-2.40464 1.69418,-1.03837 1.77616,-0.84709 1.85813,-0.71046 1.96743,-0.49186 1.994757,-0.30058 2.07673,-0.13662 2.10406,0.1093 1.99476,0.3279 1.9401,0.46454 1.88546,0.71046 1.77615,0.84709 1.69418,1.01104 c 0.0273,0.0273 0.0546,0.0273 0.082,0.0547 l 2.89649,2.40464 c 0.0273,0.0273 0.0547,0.0547 0.082,0.082 l 2.40464,2.92382 1.03837,1.69417 0.84709,1.77616 0.71046,1.85813 0.49186,1.96743 0.30058,1.99476 0.1093,2.07673 -0.1093,2.10406 -0.30058,1.99476 -0.46454,1.94011 -0.71046,1.88545 -0.84709,1.77616 -1.01104,1.69417 c -0.0273,0.0273 -0.0273,0.0547 -0.0546,0.082 l -2.40464,2.8965 c -0.0273,0.0273 -0.0546,0.0546 -0.082,0.082 l -2.89649,2.40464 c -0.0273,0.0273 -0.0546,0.0273 -0.082,0.0547 l -1.63953,0.98372 -1.77615,0.84709 -1.85813,0.71046 -1.96743,0.49186 -1.99476,0.30058 -2.07673,0.1093 -2.10406,-0.1093 -1.994757,-0.30058 -1.94011,-0.46453 -1.88545,-0.71046 -1.77616,-0.84709 -1.66685,-1.01105 -3.0058,-2.45929 c -0.0273,-0.0273 -0.0546,-0.0546 -0.082,-0.082 l -2.40464,-2.8965 c -0.0273,-0.0273 -0.0273,-0.0547 -0.0547,-0.082 l -0.98372,-1.63952 -0.84708,-1.77616 -0.71046,-1.85813 -0.49186,-1.96743 -0.30058,-1.99476 z m 1.39359,1.88545 0.30058,1.88546 0.43721,1.80348 0.65581,1.74883 0.79244,1.66685 0.98371,1.63953 -0.0547,-0.082 2.40464,2.8965 -0.082,-0.082 2.84185,2.34999 1.55755,0.95639 1.66685,0.79244 1.7215,0.65581 1.830807,0.46453 1.88546,0.27326 1.9401,0.1093 1.96743,-0.082 1.88546,-0.30058 1.80348,-0.4372 1.74883,-0.65581 1.66685,-0.79244 1.63953,-0.98372 -0.082,0.0547 2.8965,-2.40464 -0.082,0.082 2.40464,-2.8965 -0.0546,0.082 0.95639,-1.58488 0.79244,-1.66685 0.65581,-1.7215 0.46453,-1.83081 0.30058,-1.88545 0.1093,-1.94011 -0.1093,-1.96743 -0.30058,-1.88546 -0.43721,-1.80348 -0.65581,-1.74883 -0.79244,-1.66685 -0.92906,-1.53022 -2.40464,-2.92383 0.082,0.082 -2.8965,-2.40464 0.082,0.0547 -1.58488,-0.95639 -1.66685,-0.79244 -1.72151,-0.65581 -1.8308,-0.46453 -1.88546,-0.30058 -1.9401,-0.1093 -1.96743,0.1093 -1.88546,0.30058 -1.803477,0.43721 -1.74883,0.65581 -1.66685,0.79244 -1.53022,0.92906 -2.92383,2.40464 0.082,-0.082 -2.34999,2.84185 -0.95639,1.55755 -0.79243,1.66685 -0.65582,1.72151 -0.46453,1.8308 -0.30058,1.88546 -0.1093,1.9401 z"
       id="path1351" />
    <text
       xml:space="preserve"
       style="font-style:normal;font-variant:normal;font-weight:700;font-size:6.99492px;line-height:125%;font-family:'微軟正黑體';text-align:start;letter-spacing:0px;word-spacing:0px;text-anchor:start;fill:#000000;fill-opacity:1;stroke:none;stroke-width:0.264583"
       x="96.907585"
       y="155.0325"
       id="text1357"><tspan
         sodipodi:role="line"
         x="96.907585"
         y="155.0325"
         id="tspan1355"
         style="stroke-width:0.264583"><tspan
           dx="0"
           dy="0"
           style="font-style:normal;font-variant:normal;font-weight:700;font-size:6.99492px;font-family:'微軟正黑體';fill:#000000;stroke-width:0.264583"
           id="tspan1353">美麗</tspan></tspan></text>
    <text
       xml:space="preserve"
       style="font-style:normal;font-variant:normal;font-weight:700;font-size:6.99492px;line-height:125%;font-family:'微軟正黑體';text-align:start;letter-spacing:0px;word-spacing:0px;text-anchor:start;fill:#000000;fill-opacity:1;stroke:none;stroke-width:0.264583"
       x="84.228584"
       y="163.33943"
       id="text1363"><tspan
         sodipodi:role="line"
         x="84.228584"
         y="163.33943"
         id="tspan1361"
         style="stroke-width:0.264583"><tspan
           dx="0"
           dy="0"
           style="font-style:normal;font-variant:normal;font-weight:700;font-size:6.99492px;font-family:'微軟正黑體';fill:#000000;stroke-width:0.264583"
           id="tspan1359">TIPHARETH</tspan></tspan></text>
    <text
       xml:space="preserve"
       style="font-style:normal;font-variant:normal;font-weight:700;font-size:6.99492px;line-height:125%;font-family:'微軟正黑體';text-align:start;letter-spacing:0px;word-spacing:0px;text-anchor:start;fill:#000000;fill-opacity:1;stroke:none;stroke-width:0.264583"
       x="101.71685"
       y="171.64638"
       id="text1369"><tspan
         sodipodi:role="line"
         x="101.71685"
         y="171.64638"
         id="tspan1367"
         style="stroke-width:0.264583"><tspan
           dx="0"
           dy="0"
           style="font-style:normal;font-variant:normal;font-weight:700;font-size:6.99492px;font-family:'微軟正黑體';fill:#000000;stroke-width:0.264583"
           id="tspan1365">7</tspan></tspan></text>
    <path
       style="fill:#ffffff;fill-opacity:1;fill-rule:evenodd;stroke:none;stroke-width:0.264583"
       d="m 144.12453,131.81946 c 0,-10.98483 8.82612,-19.89293 19.67432,-19.89293 0,0 0,0 0,0 v 0 c 10.87553,0 19.67432,8.9081 19.67432,19.89293 0,0 0,0 0,0 v 0 c 0,11.01215 -8.79879,19.89292 -19.67432,19.89292 0,0 0,0 0,0 v 0 c -10.8482,0 -19.67432,-8.88077 -19.67432,-19.89292 0,0 0,0 0,0 z"
       id="path1371" />
    <path
       style="fill:#000000;fill-opacity:1;fill-rule:nonzero;stroke:#000000;stroke-width:0.0273254px;stroke-linecap:butt;stroke-linejoin:round;stroke-miterlimit:4;stroke-dasharray:none;stroke-opacity:1"
       d="m 143.46872,131.87411 0.13663,-2.10406 0.30058,-2.04941 0.46453,-1.94011 0.71046,-1.91278 0.84709,-1.80348 1.01104,-1.69417 c 0,-0.0273 0.0273,-0.0547 0.0547,-0.082 l 2.40464,-2.95115 c 0.0273,-0.0273 0.0547,-0.0547 0.082,-0.082 l 2.92382,-2.43197 c 0.0273,-0.0273 0.0547,-0.0273 0.082,-0.0546 l 1.6122,-0.98371 1.77615,-0.87442 1.85813,-0.68314 1.94011,-0.51918 2.02208,-0.30058 2.07674,-0.1093 2.10406,0.082 1.99475,0.3279 1.96743,0.49186 1.85814,0.68314 1.77615,0.87441 1.69418,1.01104 c 0.0273,0.0273 0.0547,0.0273 0.082,0.0546 l 2.8965,2.43197 c 0.0273,0.0273 0.0546,0.0547 0.082,0.082 l 2.40464,2.95115 c 0.0273,0.0273 0.0273,0.0546 0.0547,0.082 l 0.98371,1.63952 0.84709,1.80348 0.71046,1.88546 0.49186,1.96743 0.30058,2.04941 0.1093,2.07673 -0.1093,2.13139 -0.30058,2.02208 -0.46453,1.96743 -0.71046,1.91278 -0.84709,1.77616 -1.01104,1.69417 c -0.0273,0.0273 -0.0273,0.0547 -0.0547,0.082 l -2.40464,2.95115 c -0.0273,0.0273 -0.0547,0.0546 -0.082,0.082 l -2.8965,2.43196 c -0.0273,0.0273 -0.0547,0.0273 -0.082,0.0547 l -1.63953,0.98372 -1.77615,0.87441 -1.85813,0.68314 -1.94011,0.51918 -2.02208,0.30058 -2.07674,0.1093 -2.10406,-0.1093 -1.99475,-0.30058 -1.96744,-0.49186 -1.85813,-0.68313 -1.77615,-0.87442 -1.66685,-1.01104 c -0.0273,-0.0273 -0.0547,-0.0273 -0.082,-0.0547 l -2.92382,-2.43196 c -0.0273,-0.0273 -0.0546,-0.0546 -0.082,-0.082 l -2.40464,-2.95115 c -0.0273,-0.0273 -0.0547,-0.0546 -0.0547,-0.082 l -0.98371,-1.63952 -0.84709,-1.77616 -0.71046,-1.88545 -0.49186,-1.99476 -0.30058,-2.02208 z m 1.42092,1.91278 0.30058,1.91278 0.43721,1.83081 0.65581,1.77615 0.79244,1.66685 0.98372,1.63953 -0.0547,-0.082 2.40464,2.95115 -0.082,-0.082 2.92382,2.43197 -0.082,-0.0546 1.55755,0.95639 1.66685,0.81976 1.74883,0.62849 1.80348,0.49185 1.88546,0.27326 1.94011,0.1093 1.96743,-0.082 1.85813,-0.30058 1.8308,-0.46453 1.74883,-0.62848 1.66685,-0.81977 1.63953,-0.98371 -0.082,0.0546 2.89649,-2.43197 -0.082,0.082 2.40464,-2.95115 -0.0547,0.082 0.9564,-1.58488 0.79243,-1.66685 0.65581,-1.74883 0.46454,-1.85813 0.27325,-1.91278 0.1093,-1.96743 -0.082,-1.96743 -0.30058,-1.94011 -0.43721,-1.80348 -0.65581,-1.77615 -0.79244,-1.69418 -0.98372,-1.63953 0.0547,0.082 -2.40464,-2.95115 0.082,0.082 -2.89649,-2.43197 0.082,0.0547 -1.58487,-0.95639 -1.66686,-0.81976 -1.74883,-0.62848 -1.80347,-0.49186 -1.88546,-0.30058 -1.94011,-0.1093 -1.96743,0.1093 -1.85813,0.30058 -1.83081,0.46453 -1.74882,0.62848 -1.66685,0.81977 -1.61221,0.98371 0.082,-0.0547 -2.92382,2.43197 0.082,-0.082 -2.40464,2.95115 0.0547,-0.082 -0.9564,1.58488 -0.79243,1.69417 -0.65581,1.74883 -0.46454,1.83081 -0.30058,1.94011 -0.1093,1.9401 z"
       id="path1373" />
    <text
       xml:space="preserve"
       style="font-style:normal;font-variant:normal;font-weight:700;font-size:6.99492px;line-height:125%;font-family:'微軟正黑體';text-align:start;letter-spacing:0px;word-spacing:0px;text-anchor:start;fill:#000000;fill-opacity:1;stroke:none;stroke-width:0.264583"
       x="156.21928"
       y="128.79988"
       id="text1379"><tspan
         sodipodi:role="line"
         x="156.21928"
         y="128.79988"
         id="tspan1377"
         style="stroke-width:0.264583"><tspan
           dx="0"
           dy="0"
           style="font-style:normal;font-variant:normal;font-weight:700;font-size:6.99492px;font-family:'微軟正黑體';fill:#000000;stroke-width:0.264583"
           id="tspan1375">慈悲</tspan></tspan></text>
    <text
       xml:space="preserve"
       style="font-style:normal;font-variant:normal;font-weight:700;font-size:6.99492px;line-height:125%;font-family:'微軟正黑體';text-align:start;letter-spacing:0px;word-spacing:0px;text-anchor:start;fill:#000000;fill-opacity:1;stroke:none;stroke-width:0.264583"
       x="149.66118"
       y="137.10684"
       id="text1385"><tspan
         sodipodi:role="line"
         x="149.66118"
         y="137.10684"
         id="tspan1383"
         style="stroke-width:0.264583"><tspan
           dx="0"
           dy="0"
           style="font-style:normal;font-variant:normal;font-weight:700;font-size:6.99492px;font-family:'微軟正黑體';fill:#000000;stroke-width:0.264583"
           id="tspan1381">CHESED</tspan></tspan></text>
    <text
       xml:space="preserve"
       style="font-style:normal;font-variant:normal;font-weight:700;font-size:6.99492px;line-height:125%;font-family:'微軟正黑體';text-align:start;letter-spacing:0px;word-spacing:0px;text-anchor:start;fill:#000000;fill-opacity:1;stroke:none;stroke-width:0.264583"
       x="161.02855"
       y="145.41377"
       id="text1391"><tspan
         sodipodi:role="line"
         x="161.02855"
         y="145.41377"
         id="tspan1389"
         style="stroke-width:0.264583"><tspan
           dx="0"
           dy="0"
           style="font-style:normal;font-variant:normal;font-weight:700;font-size:6.99492px;font-family:'微軟正黑體';fill:#000000;stroke-width:0.264583"
           id="tspan1387">6</tspan></tspan></text>
    <path
       style="fill:#ffffff;fill-opacity:1;fill-rule:evenodd;stroke:none;stroke-width:0.264583"
       d="m 84.664363,98.810321 c 0,-10.848202 8.82612,-19.674321 19.674317,-19.674321 0,0 0,0 0,0 v 0 c 10.87553,0 19.67432,8.826119 19.67432,19.674321 0,0 0,0 0,0 v 0 c 0,10.875529 -8.79879,19.674319 -19.67432,19.674319 0,0 0,0 0,0 v 0 c -10.848197,0 -19.674317,-8.79879 -19.674317,-19.674319 0,0 0,0 0,0 z"
       id="path1393" />
    <path
       style="fill:#000000;fill-opacity:1;fill-rule:nonzero;stroke:#000000;stroke-width:0.0273254px;stroke-linecap:butt;stroke-linejoin:round;stroke-miterlimit:4;stroke-dasharray:none;stroke-opacity:1"
       d="m 84.035873,98.864971 0.1093,-2.10406 0.30058,-1.994757 0.46454,-1.940105 0.71046,-1.885455 0.84709,-1.776156 1.01104,-1.666851 2.45929,-3.005799 c 0.0273,-0.02733 0.0547,-0.05465 0.082,-0.08198 l 2.92382,-2.404639 1.69418,-1.038368 1.77615,-0.847087 1.85813,-0.710462 1.967437,-0.491858 1.99475,-0.30058 2.07674,-0.109302 2.10406,0.109302 1.99475,0.30058 1.94011,0.464532 1.88546,0.710462 1.77615,0.847087 1.69418,1.011042 c 0.0273,0.02733 0.0546,0.02733 0.082,0.05465 l 2.89649,2.404639 c 0.0273,0.02732 0.0547,0.05465 0.082,0.08198 l 2.40464,2.923823 1.03837,1.694177 0.84708,1.776154 0.71046,1.858131 0.49186,1.967431 0.30058,1.994758 0.1093,2.076733 -0.1093,2.104057 -0.30058,1.99476 -0.46453,1.94011 -0.71046,1.88545 -0.84709,1.77616 -1.01104,1.69418 c -0.0273,0.0273 -0.0273,0.0546 -0.0547,0.082 l -2.40464,2.8965 c -0.0273,0.0273 -0.0546,0.0546 -0.082,0.082 l -2.89649,2.40464 c -0.0273,0.0273 -0.0547,0.0273 -0.082,0.0547 l -1.63953,0.98371 -1.77615,0.84709 -1.85813,0.71046 -1.96743,0.49186 -1.99476,0.30058 -2.07674,0.1093 -2.10406,-0.1093 -1.99475,-0.30058 -1.940107,-0.46453 -1.88546,-0.71046 -1.77615,-0.84709 -1.66685,-1.01104 -3.0058,-2.4593 c -0.0273,-0.0273 -0.0547,-0.0546 -0.082,-0.082 l -2.40464,-2.8965 c -0.0273,-0.0273 -0.0273,-0.0546 -0.0546,-0.082 l -0.98372,-1.63953 -0.84709,-1.77615 -0.71045,-1.85814 -0.49186,-1.96743 -0.30058,-1.99476 z m 1.3936,1.885459 0.30058,1.88545 0.43721,1.80348 0.65581,1.74883 0.79244,1.66685 0.98371,1.63953 -0.0546,-0.082 2.40464,2.8965 -0.082,-0.082 2.84185,2.34999 1.55755,0.95639 1.66685,0.79244 1.7215,0.65581 1.830807,0.46453 1.88546,0.27326 1.9401,0.13663 1.96743,-0.10931 1.88546,-0.30058 1.80348,-0.4372 1.74883,-0.65581 1.66685,-0.79244 1.63952,-0.98372 -0.082,0.0546 2.8965,-2.40464 -0.082,0.082 2.40464,-2.8965 -0.0546,0.082 0.95639,-1.58488 0.79243,-1.66685 0.65582,-1.7215 0.46453,-1.83081 0.30058,-1.88545 0.1093,-1.940109 -0.1093,-1.967431 -0.30058,-1.885456 -0.43721,-1.803479 -0.65581,-1.74883 -0.79244,-1.666851 -0.92906,-1.530226 -2.40464,-2.923823 0.082,0.08198 -2.8965,-2.404639 0.082,0.05465 -1.58487,-0.956389 -1.66685,-0.792438 -1.72151,-0.655812 -1.8308,-0.464531 -1.88546,-0.30058 -1.9401,-0.109302 -1.96743,0.109302 -1.88546,0.30058 -1.803477,0.437205 -1.74883,0.655812 -1.66685,0.792438 -1.53023,0.929066 -2.92382,2.404639 0.082,-0.08198 -2.34999,2.841848 -0.95639,1.557551 -0.79244,1.666852 -0.65581,1.721503 -0.46453,1.830803 -0.30058,1.885458 -0.1093,1.940105 z"
       id="path1395" />
    <text
       xml:space="preserve"
       style="font-style:normal;font-variant:normal;font-weight:700;font-size:6.99492px;line-height:125%;font-family:'微軟正黑體';text-align:start;letter-spacing:0px;word-spacing:0px;text-anchor:start;fill:#000000;fill-opacity:1;stroke:none;stroke-width:0.264583"
       x="96.909019"
       y="96.009125"
       id="text1401"><tspan
         sodipodi:role="line"
         x="96.909019"
         y="96.009125"
         id="tspan1399"
         style="stroke-width:0.264583"><tspan
           dx="0"
           dy="0"
           style="font-style:normal;font-variant:normal;font-weight:700;font-size:6.99492px;font-family:'微軟正黑體';fill:#000000;stroke-width:0.264583"
           id="tspan1397">知識</tspan></tspan></text>
    <text
       xml:space="preserve"
       style="font-style:normal;font-variant:normal;font-weight:700;font-size:6.99492px;line-height:125%;font-family:'微軟正黑體';text-align:start;letter-spacing:0px;word-spacing:0px;text-anchor:start;fill:#000000;fill-opacity:1;stroke:none;stroke-width:0.264583"
       x="91.662529"
       y="104.31606"
       id="text1407"><tspan
         sodipodi:role="line"
         x="91.662529"
         y="104.31606"
         id="tspan1405"
         style="stroke-width:0.264583"><tspan
           dx="0"
           dy="0"
           style="font-style:normal;font-variant:normal;font-weight:700;font-size:6.99492px;font-family:'微軟正黑體';fill:#000000;stroke-width:0.264583"
           id="tspan1403">DAATH</tspan></tspan></text>
    <text
       xml:space="preserve"
       style="font-style:normal;font-variant:normal;font-weight:700;font-size:6.99492px;line-height:125%;font-family:'微軟正黑體';text-align:start;letter-spacing:0px;word-spacing:0px;text-anchor:start;fill:#000000;fill-opacity:1;stroke:none;stroke-width:0.264583"
       x="101.71828"
       y="112.62299"
       id="text1413"><tspan
         sodipodi:role="line"
         x="101.71828"
         y="112.62299"
         id="tspan1411"
         style="stroke-width:0.264583"><tspan
           dx="0"
           dy="0"
           style="font-style:normal;font-variant:normal;font-weight:700;font-size:6.99492px;font-family:'微軟正黑體';fill:#000000;stroke-width:0.264583"
           id="tspan1409">4</tspan></tspan></text>
    <path
       style="fill:#ffffff;fill-opacity:1;fill-rule:evenodd;stroke:none;stroke-width:0.264583"
       d="m 140.62687,66.019786 c 0,-10.8482 8.82612,-19.674319 19.67432,-19.674319 0,0 0,0 0,0 v 0 c 10.87553,0 19.67432,8.826119 19.67432,19.674319 0,0 0,0 0,0 v 0 c 0,10.875529 -8.79879,19.674322 -19.67432,19.674322 0,0 0,0 0,0 v 0 c -10.8482,0 -19.67432,-8.798793 -19.67432,-19.674322 0,0 0,0 0,0 z"
       id="path1415" />
    <path
       style="fill:#000000;fill-opacity:1;fill-rule:nonzero;stroke:#000000;stroke-width:0.0273254px;stroke-linecap:butt;stroke-linejoin:round;stroke-miterlimit:4;stroke-dasharray:none;stroke-opacity:1"
       d="m 139.99839,66.074438 0.1093,-2.104059 0.30058,-1.994757 0.46453,-1.940108 0.71046,-1.885455 0.84709,-1.776153 1.01105,-1.666854 2.45928,-3.005799 c 0.0273,-0.02733 0.0547,-0.05465 0.082,-0.08198 l 2.92382,-2.404639 1.69418,-1.038368 1.77616,-0.847087 1.85813,-0.710462 1.96743,-0.491858 1.99475,-0.30058 2.07674,-0.109302 2.10406,0.109302 1.99476,0.30058 1.9401,0.464532 1.88546,0.710462 1.77615,0.84709 1.69418,1.011041 c 0.0273,0.02732 0.0547,0.02732 0.082,0.05465 l 2.89649,2.404639 c 0.0273,0.02733 0.0547,0.05465 0.082,0.08198 l 2.40464,2.923823 1.03837,1.694178 0.84709,1.776153 0.71046,1.858132 0.49186,1.967431 0.30058,1.994757 0.1093,2.076736 -0.1093,2.104059 -0.30058,1.994757 -0.46454,1.940105 -0.71046,1.885455 -0.84709,1.776156 -1.01104,1.694177 c -0.0273,0.02733 -0.0273,0.05465 -0.0547,0.08198 l -2.40464,2.896497 c -0.0273,0.02733 -0.0547,0.05465 -0.082,0.08198 l -2.89649,2.404639 c -0.0273,0.02733 -0.0546,0.02733 -0.082,0.05465 l -1.63953,0.983715 -1.77615,0.847088 -1.85813,0.710461 -1.96743,0.491858 -1.99476,0.30058 -2.07673,0.109302 -2.10406,-0.109302 -1.99476,-0.30058 -1.94011,-0.464532 -1.88545,-0.710461 -1.77616,-0.847088 -1.66685,-1.011041 -3.0058,-2.459292 c -0.0273,-0.02732 -0.0546,-0.05465 -0.082,-0.08198 L 143.496,77.469149 c -0.0273,-0.02733 -0.0273,-0.05465 -0.0547,-0.08198 l -0.98372,-1.639527 -0.84709,-1.776153 -0.71046,-1.858132 -0.49186,-1.967431 -0.30058,-1.994757 z m 1.3936,1.885456 0.30058,1.885455 0.4372,1.803479 0.65581,1.74883 0.79244,1.666851 0.98372,1.639528 -0.0547,-0.08198 2.40464,2.8965 -0.082,-0.08198 2.84185,2.34999 1.55755,0.956389 1.66685,0.792438 1.7215,0.655812 1.83081,0.464532 1.88545,0.30058 1.94011,0.109302 1.96743,-0.109302 1.88546,-0.30058 1.80348,-0.437206 1.74883,-0.655812 1.66685,-0.792438 1.63952,-0.983715 -0.082,0.05465 2.8965,-2.40464 -0.082,0.08198 2.40464,-2.8965 -0.0547,0.08198 0.95639,-1.584878 0.79244,-1.666851 0.65581,-1.721504 0.46453,-1.830803 0.27325,-1.885458 0.13663,-1.940105 -0.1093,-1.967433 -0.30058,-1.885456 -0.43721,-1.803479 -0.65581,-1.748827 -0.79244,-1.666854 -0.92906,-1.530223 -2.40464,-2.923823 0.082,0.08198 -2.8965,-2.404639 0.082,0.05465 -1.58487,-0.95639 -1.66685,-0.792438 -1.72151,-0.655812 -1.8308,-0.464531 -1.88546,-0.30058 -1.9401,-0.109302 -1.96744,0.109302 -1.88545,0.30058 -1.80348,0.437208 -1.74883,0.655809 -1.66685,0.792438 -1.53023,0.929066 -2.92382,2.404639 0.082,-0.08198 -2.34999,2.841845 -0.95639,1.557552 -0.79244,1.666851 -0.65581,1.721503 -0.46453,1.830806 -0.30058,1.885455 -0.10931,1.940108 z"
       id="path1417" />
    <text
       xml:space="preserve"
       style="font-style:normal;font-variant:normal;font-weight:700;font-size:6.99492px;line-height:125%;font-family:'微軟正黑體';text-align:start;letter-spacing:0px;word-spacing:0px;text-anchor:start;fill:#000000;fill-opacity:1;stroke:none;stroke-width:0.264583"
       x="152.94167"
       y="63.218353"
       id="text1423"><tspan
         sodipodi:role="line"
         x="152.94167"
         y="63.218353"
         id="tspan1421"
         style="stroke-width:0.264583"><tspan
           dx="0"
           dy="0"
           style="font-style:normal;font-variant:normal;font-weight:700;font-size:6.99492px;font-family:'微軟正黑體';fill:#000000;stroke-width:0.264583"
           id="tspan1419">智慧</tspan></tspan></text>
    <text
       xml:space="preserve"
       style="font-style:normal;font-variant:normal;font-weight:700;font-size:6.99492px;line-height:125%;font-family:'微軟正黑體';text-align:start;letter-spacing:0px;word-spacing:0px;text-anchor:start;fill:#000000;fill-opacity:1;stroke:none;stroke-width:0.264583"
       x="140.69984"
       y="71.525291"
       id="text1429"><tspan
         sodipodi:role="line"
         x="140.69984"
         y="71.525291"
         id="tspan1427"
         style="stroke-width:0.264583"><tspan
           dx="0"
           dy="0"
           style="font-style:normal;font-variant:normal;font-weight:700;font-size:6.99492px;font-family:'微軟正黑體';fill:#000000;stroke-width:0.264583"
           id="tspan1425">CHOKMAH</tspan></tspan></text>
    <text
       xml:space="preserve"
       style="font-style:normal;font-variant:normal;font-weight:700;font-size:6.99492px;line-height:125%;font-family:'微軟正黑體';text-align:start;letter-spacing:0px;word-spacing:0px;text-anchor:start;fill:#000000;fill-opacity:1;stroke:none;stroke-width:0.264583"
       x="157.75093"
       y="79.83223"
       id="text1435"><tspan
         sodipodi:role="line"
         x="157.75093"
         y="79.83223"
         id="tspan1433"
         style="stroke-width:0.264583"><tspan
           dx="0"
           dy="0"
           style="font-style:normal;font-variant:normal;font-weight:700;font-size:6.99492px;font-family:'微軟正黑體';fill:#000000;stroke-width:0.264583"
           id="tspan1431">3</tspan></tspan></text>
    <path
       style="fill:#ffffff;fill-opacity:1;fill-rule:evenodd;stroke:none;stroke-width:0.264583"
       d="m 25.641403,131.81946 c 0,-10.98483 8.82612,-19.89293 19.67432,-19.89293 0,0 0,0 0,0 v 0 c 10.87552,0 19.67432,8.9081 19.67432,19.89293 0,0 0,0 0,0 v 0 c 0,11.01215 -8.7988,19.89292 -19.67432,19.89292 0,0 0,0 0,0 v 0 c -10.8482,0 -19.67432,-8.88077 -19.67432,-19.89292 0,0 0,0 0,0 z"
       id="path1437" />
    <path
       style="fill:#000000;fill-opacity:1;fill-rule:nonzero;stroke:#000000;stroke-width:0.0273254px;stroke-linecap:butt;stroke-linejoin:round;stroke-miterlimit:4;stroke-dasharray:none;stroke-opacity:1"
       d="m 25.012913,131.87411 0.1093,-2.10406 0.30058,-2.04941 0.46454,-1.94011 0.71046,-1.91278 0.84709,-1.80348 1.01104,-1.69417 c 0,-0.0273 0.0273,-0.0547 0.0546,-0.082 l 2.40464,-2.95115 c 0.0273,-0.0273 0.0547,-0.0547 0.082,-0.082 l 2.92382,-2.43197 c 0.0273,-0.0273 0.0547,-0.0273 0.082,-0.0546 l 1.6122,-0.98371 1.77615,-0.87442 1.85814,-0.68314 1.9401,-0.51918 2.02208,-0.30058 2.07674,-0.1093 2.10406,0.082 1.99475,0.3279 1.96744,0.49186 1.85813,0.68314 1.77615,0.87441 1.69418,1.01104 c 0.0273,0.0273 0.0547,0.0273 0.082,0.0546 l 2.8965,2.43197 c 0.0273,0.0273 0.0546,0.0547 0.082,0.082 l 2.40464,2.95115 c 0.0273,0.0273 0.0273,0.0546 0.0547,0.082 l 0.98372,1.63952 0.84708,1.80348 0.71046,1.88546 0.49186,1.96743 0.30058,2.04941 0.1093,2.07673 -0.1093,2.13139 -0.30058,2.02208 -0.46453,1.96743 -0.71046,1.91278 -0.84709,1.77616 -1.01104,1.69417 c -0.0273,0.0273 -0.0273,0.0547 -0.0547,0.082 l -2.40464,2.95115 c -0.0273,0.0273 -0.0547,0.0546 -0.082,0.082 l -2.8965,2.43196 c -0.0273,0.0273 -0.0547,0.0273 -0.082,0.0547 l -1.63953,0.98372 -1.77615,0.87441 -1.85813,0.68314 -1.94011,0.51918 -2.02208,0.30058 -2.07674,0.1093 -2.10406,-0.1093 -1.99475,-0.30058 -1.96743,-0.49186 -1.85813,-0.68313 -1.77616,-0.87442 -1.66685,-1.01104 c -0.0273,-0.0273 -0.0547,-0.0273 -0.082,-0.0547 l -2.92382,-2.43196 c -0.0273,-0.0273 -0.0547,-0.0546 -0.082,-0.082 l -2.40464,-2.95115 c -0.0273,-0.0273 -0.0546,-0.0546 -0.0546,-0.082 l -0.98372,-1.63952 -0.84709,-1.77616 -0.71046,-1.88545 -0.49186,-1.99476 -0.30058,-2.02208 z m 1.3936,1.91278 0.30058,1.91278 0.43721,1.83081 0.65581,1.77615 0.79243,1.66685 0.98372,1.63953 -0.0547,-0.082 2.40464,2.95115 -0.082,-0.082 2.92382,2.43197 -0.082,-0.0546 1.55755,0.95639 1.66686,0.81976 1.74882,0.62849 1.80348,0.49185 1.88546,0.27326 1.9401,0.1093 1.96744,-0.082 1.85813,-0.30058 1.8308,-0.46453 1.74883,-0.62848 1.66685,-0.81977 1.63953,-0.98371 -0.082,0.0546 2.8965,-2.43197 -0.082,0.082 2.40464,-2.95115 -0.0547,0.082 0.95639,-1.58488 0.79243,-1.66685 0.65582,-1.74883 0.46453,-1.85813 0.30058,-1.91278 0.1093,-1.96743 -0.1093,-1.96743 -0.30058,-1.94011 -0.43721,-1.80348 -0.65581,-1.77615 -0.79244,-1.69418 -0.98371,-1.63953 0.0547,0.082 -2.40464,-2.95115 0.082,0.082 -2.8965,-2.43197 0.082,0.0547 -1.58488,-0.95639 -1.66685,-0.81976 -1.74883,-0.62848 -1.80348,-0.49186 -1.88545,-0.30058 -1.94011,-0.1093 -1.96743,0.1093 -1.85813,0.30058 -1.83081,0.46453 -1.74882,0.62848 -1.66686,0.81977 -1.6122,0.98371 0.082,-0.0547 -2.92382,2.43197 0.082,-0.082 -2.40464,2.95115 0.0547,-0.082 -0.95639,1.58488 -0.79244,1.69417 -0.65581,1.74883 -0.46453,1.83081 -0.30058,1.94011 -0.1093,1.9401 z"
       id="path1439" />
    <text
       xml:space="preserve"
       style="font-style:normal;font-variant:normal;font-weight:700;font-size:6.99492px;line-height:125%;font-family:'微軟正黑體';text-align:start;letter-spacing:0px;word-spacing:0px;text-anchor:start;fill:#000000;fill-opacity:1;stroke:none;stroke-width:0.264583"
       x="37.885628"
       y="128.79988"
       id="text1445"><tspan
         sodipodi:role="line"
         x="37.885628"
         y="128.79988"
         id="tspan1443"
         style="stroke-width:0.264583"><tspan
           dx="0"
           dy="0"
           style="font-style:normal;font-variant:normal;font-weight:700;font-size:6.99492px;font-family:'微軟正黑體';fill:#000000;stroke-width:0.264583"
           id="tspan1441">神力</tspan></tspan></text>
    <text
       xml:space="preserve"
       style="font-style:normal;font-variant:normal;font-weight:700;font-size:6.99492px;line-height:125%;font-family:'微軟正黑體';text-align:start;letter-spacing:0px;word-spacing:0px;text-anchor:start;fill:#000000;fill-opacity:1;stroke:none;stroke-width:0.264583"
       x="27.82987"
       y="137.10684"
       id="text1451"><tspan
         sodipodi:role="line"
         x="27.82987"
         y="137.10684"
         id="tspan1449"
         style="stroke-width:0.264583"><tspan
           dx="0"
           dy="0"
           style="font-style:normal;font-variant:normal;font-weight:700;font-size:6.99492px;font-family:'微軟正黑體';fill:#000000;stroke-width:0.264583"
           id="tspan1447">GEBURAH</tspan></tspan></text>
    <text
       xml:space="preserve"
       style="font-style:normal;font-variant:normal;font-weight:700;font-size:6.99492px;line-height:125%;font-family:'微軟正黑體';text-align:start;letter-spacing:0px;word-spacing:0px;text-anchor:start;fill:#000000;fill-opacity:1;stroke:none;stroke-width:0.264583"
       x="42.694908"
       y="145.41377"
       id="text1457"><tspan
         sodipodi:role="line"
         x="42.694908"
         y="145.41377"
         id="tspan1455"
         style="stroke-width:0.264583"><tspan
           dx="0"
           dy="0"
           style="font-style:normal;font-variant:normal;font-weight:700;font-size:6.99492px;font-family:'微軟正黑體';fill:#000000;stroke-width:0.264583"
           id="tspan1453">5</tspan></tspan></text>
    <path
       style="fill:#ffffff;fill-opacity:1;fill-rule:evenodd;stroke:none;stroke-width:0.264583"
       d="m 22.580953,66.019786 c 0,-10.8482 8.82612,-19.674319 19.67432,-19.674319 0,0 0,0 0,0 v 0 c 10.87552,0 19.67432,8.826119 19.67432,19.674319 0,0 0,0 0,0 v 0 c 0,10.875529 -8.7988,19.674322 -19.67432,19.674322 0,0 0,0 0,0 v 0 c -10.8482,0 -19.67432,-8.798793 -19.67432,-19.674322 0,0 0,0 0,0 z"
       id="path1459" />
    <path
       style="fill:#000000;fill-opacity:1;fill-rule:nonzero;stroke:#000000;stroke-width:0.0273254px;stroke-linecap:butt;stroke-linejoin:round;stroke-miterlimit:4;stroke-dasharray:none;stroke-opacity:1"
       d="m 21.952463,66.074438 0.1093,-2.104059 0.30058,-1.994757 0.46454,-1.940108 0.71046,-1.885455 0.84709,-1.776153 1.01104,-1.666854 2.45929,-3.005799 c 0.0273,-0.02733 0.0547,-0.05465 0.082,-0.08198 l 2.92382,-2.404639 1.69418,-1.038368 1.77615,-0.847087 1.85813,-0.710462 1.96743,-0.491858 1.99476,-0.30058 2.07674,-0.109302 2.10406,0.109302 1.99475,0.30058 1.94011,0.464532 1.88546,0.710462 1.77615,0.84709 1.69418,1.011041 c 0.0273,0.02732 0.0547,0.02732 0.082,0.05465 l 2.89649,2.404639 c 0.0273,0.02733 0.0547,0.05465 0.082,0.08198 l 2.40464,2.923823 1.03837,1.694178 0.84709,1.776153 0.71046,1.858132 0.49186,1.967431 0.30058,1.994757 0.1093,2.076736 -0.1093,2.104059 -0.30058,1.994757 -0.46454,1.940105 -0.71046,1.885455 -0.84709,1.776156 -1.01104,1.694177 c -0.0273,0.02733 -0.0273,0.05465 -0.0547,0.08198 l -2.40464,2.896497 c -0.0273,0.02733 -0.0546,0.05465 -0.082,0.08198 l -2.89649,2.404639 c -0.0273,0.02733 -0.0547,0.02733 -0.082,0.05465 l -1.63953,0.983715 -1.77615,0.847088 -1.85813,0.710461 -1.96744,0.491858 -1.99475,0.30058 -2.07674,0.109302 -2.10406,-0.109302 -1.99475,-0.30058 -1.94011,-0.464532 -1.88546,-0.710461 -1.77615,-0.847088 -1.66685,-1.011041 -3.0058,-2.459292 c -0.0273,-0.02732 -0.0547,-0.05465 -0.082,-0.08198 l -2.40464,-2.896497 c -0.0273,-0.02733 -0.0273,-0.05465 -0.0546,-0.08198 l -0.98372,-1.639524 -0.84709,-1.776153 -0.71046,-1.858132 -0.49186,-1.967431 -0.30058,-1.994757 z m 1.3936,1.885456 0.30058,1.885455 0.43721,1.803479 0.65581,1.74883 0.79243,1.666851 0.98372,1.639528 -0.0547,-0.08198 2.40464,2.8965 -0.082,-0.08198 2.84185,2.34999 1.55755,0.956389 1.66685,0.792438 1.7215,0.655812 1.83081,0.464532 1.88545,0.30058 1.94011,0.109302 1.96743,-0.109302 1.88546,-0.30058 1.80347,-0.437206 1.74883,-0.655812 1.66686,-0.792438 1.63952,-0.983715 -0.082,0.05465 2.8965,-2.40464 -0.082,0.08198 2.40464,-2.8965 -0.0547,0.08198 0.95639,-1.584878 0.79244,-1.666851 0.65581,-1.721504 0.46453,-1.830803 0.30058,-1.885458 0.1093,-1.940105 -0.1093,-1.967433 -0.30058,-1.885456 -0.43721,-1.803479 -0.65581,-1.748827 -0.79243,-1.666854 -0.92907,-1.530223 -2.40464,-2.923823 0.082,0.08198 -2.89649,-2.404639 0.082,0.05465 -1.58488,-0.95639 -1.66685,-0.792438 -1.72151,-0.655812 -1.8308,-0.464531 -1.88546,-0.30058 -1.9401,-0.109302 -1.96743,0.109302 -1.88546,0.30058 -1.80348,0.437208 -1.74883,0.655809 -1.66685,0.792438 -1.53023,0.929066 -2.92382,2.404639 0.082,-0.08198 -2.34999,2.841845 -0.95639,1.557552 -0.79244,1.666851 -0.65581,1.721503 -0.46453,1.830806 -0.30058,1.885455 -0.1093,1.940108 z"
       id="path1461" />
    <text
       xml:space="preserve"
       style="font-style:normal;font-variant:normal;font-weight:700;font-size:6.99492px;line-height:125%;font-family:'微軟正黑體';text-align:start;letter-spacing:0px;word-spacing:0px;text-anchor:start;fill:#000000;fill-opacity:1;stroke:none;stroke-width:0.264583"
       x="34.894905"
       y="63.218353"
       id="text1467"><tspan
         sodipodi:role="line"
         x="34.894905"
         y="63.218353"
         id="tspan1465"
         style="stroke-width:0.264583"><tspan
           dx="0"
           dy="0"
           style="font-style:normal;font-variant:normal;font-weight:700;font-size:6.99492px;font-family:'微軟正黑體';fill:#000000;stroke-width:0.264583"
           id="tspan1463">理解</tspan></tspan></text>
    <text
       xml:space="preserve"
       style="font-style:normal;font-variant:normal;font-weight:700;font-size:6.99492px;line-height:125%;font-family:'微軟正黑體';text-align:start;letter-spacing:0px;word-spacing:0px;text-anchor:start;fill:#000000;fill-opacity:1;stroke:none;stroke-width:0.264583"
       x="30.522833"
       y="71.525291"
       id="text1473"><tspan
         sodipodi:role="line"
         x="30.522833"
         y="71.525291"
         id="tspan1471"
         style="stroke-width:0.264583"><tspan
           dx="0"
           dy="0"
           style="font-style:normal;font-variant:normal;font-weight:700;font-size:6.99492px;font-family:'微軟正黑體';fill:#000000;stroke-width:0.264583"
           id="tspan1469">BINAH</tspan></tspan></text>
    <text
       xml:space="preserve"
       style="font-style:normal;font-variant:normal;font-weight:700;font-size:6.99492px;line-height:125%;font-family:'微軟正黑體';text-align:start;letter-spacing:0px;word-spacing:0px;text-anchor:start;fill:#000000;fill-opacity:1;stroke:none;stroke-width:0.264583"
       x="39.704185"
       y="79.83223"
       id="text1479"><tspan
         sodipodi:role="line"
         x="39.704185"
         y="79.83223"
         id="tspan1477"
         style="stroke-width:0.264583"><tspan
           dx="0"
           dy="0"
           style="font-style:normal;font-variant:normal;font-weight:700;font-size:6.99492px;font-family:'微軟正黑體';fill:#000000;stroke-width:0.264583"
           id="tspan1475">2</tspan></tspan></text>
    <path
       style="fill:#ffffff;fill-opacity:1;fill-rule:evenodd;stroke:none;stroke-width:0.264583"
       d="m 25.641403,191.06102 c 0,-10.8482 8.82612,-19.67432 19.67432,-19.67432 0,0 0,0 0,0 v 0 c 10.87552,0 19.67432,8.82612 19.67432,19.67432 0,0 0,0 0,0 v 0 c 0,10.87553 -8.7988,19.67432 -19.67432,19.67432 0,0 0,0 0,0 v 0 c -10.8482,0 -19.67432,-8.79879 -19.67432,-19.67432 0,0 0,0 0,0 z"
       id="path1481" />
    <path
       style="fill:#000000;fill-opacity:1;fill-rule:nonzero;stroke:#000000;stroke-width:0.0273254px;stroke-linecap:butt;stroke-linejoin:round;stroke-miterlimit:4;stroke-dasharray:none;stroke-opacity:1"
       d="m 25.012913,191.11567 0.1093,-2.10406 0.30058,-1.99475 0.46454,-1.94011 0.71046,-1.88546 0.84709,-1.77615 1.01104,-1.66685 2.45929,-3.0058 c 0.0273,-0.0273 0.0547,-0.0547 0.082,-0.082 l 2.92382,-2.40464 1.69418,-1.03836 1.77615,-0.84709 1.85813,-0.71046 1.96743,-0.49186 1.99476,-0.30058 2.07673,-0.13663 2.10406,0.1093 1.99476,0.32791 1.94011,0.46453 1.88545,0.71046 1.77616,0.84709 1.69418,1.01104 c 0.0273,0.0273 0.0547,0.0273 0.082,0.0547 l 2.89649,2.40464 c 0.0273,0.0273 0.0546,0.0547 0.082,0.082 l 2.40464,2.92382 1.03837,1.69418 0.84709,1.77616 0.71046,1.85812 0.49186,1.96744 0.30058,1.99475 0.1093,2.07674 -0.1093,2.10406 -0.30058,1.99475 -0.46453,1.94011 -0.71047,1.88546 -0.84709,1.77615 -1.01104,1.69418 c -0.0273,0.0273 -0.0273,0.0546 -0.0547,0.082 l -2.40464,2.8965 c -0.0273,0.0273 -0.0546,0.0547 -0.082,0.082 l -2.89649,2.40464 c -0.0273,0.0273 -0.0547,0.0273 -0.082,0.0547 l -1.63953,0.98371 -1.77615,0.84709 -1.85814,0.71047 -1.96743,0.49185 -1.99475,0.30058 -2.07674,0.10931 -2.10406,-0.10931 -1.99476,-0.30058 -1.9401,-0.46453 -1.88546,-0.71046 -1.77615,-0.84709 -1.66685,-1.01104 -3.0058,-2.45929 c -0.0273,-0.0273 -0.0547,-0.0546 -0.082,-0.082 l -2.40464,-2.8965 c -0.0273,-0.0273 -0.0273,-0.0547 -0.0546,-0.082 l -0.98372,-1.63953 -0.84709,-1.77615 -0.71046,-1.85813 -0.49186,-1.96744 -0.30058,-1.99485 z m 1.3936,1.88546 0.30058,1.88545 0.43721,1.80348 0.65581,1.74883 0.79243,1.66685 0.98372,1.63953 -0.0547,-0.082 2.40464,2.89649 -0.082,-0.082 2.84185,2.34998 1.55755,0.9564 1.66685,0.79243 1.7215,0.65581 1.83081,0.46454 1.88545,0.27325 1.94011,0.1093 1.96743,-0.082 1.88546,-0.30058 1.80348,-0.43721 1.74882,-0.65581 1.66686,-0.79244 1.63952,-0.98372 -0.082,0.0547 2.8965,-2.40464 -0.082,0.082 2.40464,-2.89649 -0.0547,0.082 0.95639,-1.58487 0.79244,-1.66686 0.65581,-1.7215 0.46453,-1.8308 0.30058,-1.88546 0.1093,-1.94011 -0.1093,-1.96743 -0.30058,-1.88545 -0.43721,-1.80348 -0.65581,-1.74883 -0.79244,-1.66686 -0.92906,-1.53022 -2.40464,-2.92382 0.082,0.082 -2.8965,-2.40463 0.082,0.0547 -1.58487,-0.95639 -1.66685,-0.79244 -1.72151,-0.65581 -1.8308,-0.46454 -1.88546,-0.30058 -1.94011,-0.1093 -1.96743,0.1093 -1.88545,0.30058 -1.80348,0.43721 -1.74883,0.65581 -1.66685,0.79244 -1.53023,0.92907 -2.92382,2.40463 0.082,-0.082 -2.34999,2.84185 -0.95639,1.55755 -0.79244,1.66685 -0.65581,1.7215 -0.46453,1.83081 -0.30058,1.88545 -0.1093,1.94011 z"
       id="path1483" />
    <text
       xml:space="preserve"
       style="font-style:normal;font-variant:normal;font-weight:700;font-size:6.99492px;line-height:125%;font-family:'微軟正黑體';text-align:start;letter-spacing:0px;word-spacing:0px;text-anchor:start;fill:#000000;fill-opacity:1;stroke:none;stroke-width:0.264583"
       x="37.884193"
       y="187.82326"
       id="text1489"><tspan
         sodipodi:role="line"
         x="37.884193"
         y="187.82326"
         id="tspan1487"
         style="stroke-width:0.264583"><tspan
           dx="0"
           dy="0"
           style="font-style:normal;font-variant:normal;font-weight:700;font-size:6.99492px;font-family:'微軟正黑體';fill:#000000;stroke-width:0.264583"
           id="tspan1485">勝利</tspan></tspan></text>
    <text
       xml:space="preserve"
       style="font-style:normal;font-variant:normal;font-weight:700;font-size:6.99492px;line-height:125%;font-family:'微軟正黑體';text-align:start;letter-spacing:0px;word-spacing:0px;text-anchor:start;fill:#000000;fill-opacity:1;stroke:none;stroke-width:0.264583"
       x="36.572563"
       y="196.13019"
       id="text1495"><tspan
         sodipodi:role="line"
         x="36.572563"
         y="196.13019"
         id="tspan1493"
         style="stroke-width:0.264583"><tspan
           dx="0"
           dy="0"
           style="font-style:normal;font-variant:normal;font-weight:700;font-size:6.99492px;font-family:'微軟正黑體';fill:#000000;stroke-width:0.264583"
           id="tspan1491">HOD</tspan></tspan></text>
    <text
       xml:space="preserve"
       style="font-style:normal;font-variant:normal;font-weight:700;font-size:6.99492px;line-height:125%;font-family:'微軟正黑體';text-align:start;letter-spacing:0px;word-spacing:0px;text-anchor:start;fill:#000000;fill-opacity:1;stroke:none;stroke-width:0.264583"
       x="42.693459"
       y="204.43712"
       id="text1501"><tspan
         sodipodi:role="line"
         x="42.693459"
         y="204.43712"
         id="tspan1499"
         style="stroke-width:0.264583"><tspan
           dx="0"
           dy="0"
           style="font-style:normal;font-variant:normal;font-weight:700;font-size:6.99492px;font-family:'微軟正黑體';fill:#000000;stroke-width:0.264583"
           id="tspan1497">8</tspan></tspan></text>
    <path
       style="fill:#ffffff;fill-opacity:1;fill-rule:evenodd;stroke:none;stroke-width:0.264583"
       d="m 84.664363,33.229251 c 0,-10.8482 8.82612,-19.674319 19.674317,-19.674319 0,0 0,0 0,0 v 0 c 10.87553,0 19.67432,8.826119 19.67432,19.674319 0,0 0,0 0,0 v 0 c 0,10.875529 -8.79879,19.674322 -19.67432,19.674322 0,0 0,0 0,0 v 0 c -10.848197,0 -19.674317,-8.798793 -19.674317,-19.674322 0,0 0,0 0,0 z"
       id="path1503" />
    <path
       style="fill:#000000;fill-opacity:1;fill-rule:nonzero;stroke:#000000;stroke-width:0.0273254px;stroke-linecap:butt;stroke-linejoin:round;stroke-miterlimit:4;stroke-dasharray:none;stroke-opacity:1"
       d="m 84.035873,33.283904 0.1093,-2.10406 0.30058,-1.994757 0.46454,-1.940107 0.71046,-1.885456 0.84709,-1.776153 1.01104,-1.666853 2.45929,-3.005799 c 0.0273,-0.02733 0.0547,-0.05465 0.082,-0.08198 l 2.92382,-2.404639 1.69418,-1.038367 1.77615,-0.847089 1.85813,-0.710462 1.967437,-0.491858 1.99475,-0.30058 2.07674,-0.109302 2.10406,0.109302 1.99475,0.30058 1.94011,0.464533 1.88546,0.710461 1.77615,0.847089 1.69418,1.011042 c 0.0273,0.02732 0.0546,0.02732 0.082,0.05465 l 2.89649,2.404639 c 0.0273,0.02732 0.0547,0.05465 0.082,0.08198 l 2.40464,2.923823 1.03837,1.694178 0.84708,1.776154 0.71046,1.85813 0.49186,1.967432 0.30058,1.994757 0.1093,2.076735 -0.1093,2.104059 -0.30058,1.994757 -0.46453,1.940105 -0.71046,1.885458 -0.84709,1.776153 -1.01104,1.694178 c -0.0273,0.02733 -0.0273,0.05465 -0.0547,0.08198 l -2.40464,2.896496 c -0.0273,0.02733 -0.0546,0.05465 -0.082,0.08198 l -2.89649,2.404639 c -0.0273,0.02732 -0.0547,0.02732 -0.082,0.05465 l -1.63953,0.983715 -1.77615,0.84709 -1.85813,0.710462 -1.96743,0.491858 -1.99476,0.30058 -2.07674,0.109302 -2.10406,-0.109302 -1.99475,-0.30058 -1.940107,-0.464534 -1.88546,-0.710462 -1.77615,-0.847087 -1.66685,-1.011042 -3.0058,-2.459289 c -0.0273,-0.02733 -0.0547,-0.05465 -0.082,-0.08198 l -2.40464,-2.896496 c -0.0273,-0.02732 -0.0273,-0.05465 -0.0546,-0.08198 l -0.98372,-1.639528 -0.84709,-1.776153 -0.71045,-1.858129 -0.49186,-1.967434 -0.30058,-1.994757 z m 1.3936,1.885455 0.30058,1.885455 0.43721,1.803479 0.65581,1.74883 0.79244,1.666851 0.98371,1.639528 -0.0546,-0.08198 2.40464,2.896497 -0.082,-0.08198 2.84185,2.349987 1.55755,0.956392 1.66685,0.792438 1.7215,0.655809 1.830807,0.464534 1.88546,0.30058 1.9401,0.1093 1.96743,-0.1093 1.88546,-0.30058 1.80348,-0.437208 1.74883,-0.655812 1.66685,-0.792437 1.63952,-0.983716 -0.082,0.05465 2.8965,-2.404639 -0.082,0.08198 2.40464,-2.896497 -0.0546,0.08198 0.95639,-1.584875 0.79243,-1.666854 0.65582,-1.721504 0.46453,-1.830803 0.30058,-1.885455 0.1093,-1.940107 -0.1093,-1.967432 -0.30058,-1.885456 -0.43721,-1.80348 -0.65581,-1.748828 -0.79244,-1.666852 -0.92906,-1.530225 -2.40464,-2.923823 0.082,0.08198 -2.8965,-2.404639 0.082,0.05465 -1.58487,-0.95639 -1.6669,-0.79244 -1.7215,-0.65581 -1.83081,-0.464533 -1.88545,-0.30058 -1.94011,-0.109302 -1.96743,0.109302 -1.88546,0.30058 -1.803477,0.437207 -1.74883,0.655811 -1.66685,0.792438 -1.53022,0.929065 -2.92383,2.404639 0.082,-0.08198 -2.34999,2.841847 -0.95639,1.55755 -0.79244,1.666852 -0.65581,1.721503 -0.46453,1.830805 -0.30058,1.885455 -0.1093,1.940108 z"
       id="path1505" />
    <text
       xml:space="preserve"
       style="font-style:normal;font-variant:normal;font-weight:700;font-size:6.99492px;line-height:125%;font-family:'微軟正黑體';text-align:start;letter-spacing:0px;word-spacing:0px;text-anchor:start;fill:#000000;fill-opacity:1;stroke:none;stroke-width:0.264583"
       x="97.197777"
       y="28.920387"
       id="text1511"><tspan
         sodipodi:role="line"
         x="97.197777"
         y="28.920387"
         id="tspan1509"
         style="stroke-width:0.264583"><tspan
           dx="0"
           dy="0"
           style="font-style:normal;font-variant:normal;font-weight:700;font-size:6.99492px;font-family:'微軟正黑體';fill:#000000;stroke-width:0.264583"
           id="tspan1507">皇冠</tspan></tspan></text>
    <text
       xml:space="preserve"
       style="font-style:normal;font-variant:normal;font-weight:700;font-size:6.99492px;line-height:125%;font-family:'微軟正黑體';text-align:start;letter-spacing:0px;word-spacing:0px;text-anchor:start;fill:#000000;fill-opacity:1;stroke:none;stroke-width:0.264583"
       x="90.639671"
       y="37.227322"
       id="text1517"><tspan
         sodipodi:role="line"
         x="90.639671"
         y="37.227322"
         id="tspan1515"
         style="stroke-width:0.264583"><tspan
           dx="0"
           dy="0"
           style="font-style:normal;font-variant:normal;font-weight:700;font-size:6.99492px;font-family:'微軟正黑體';fill:#000000;stroke-width:0.264583"
           id="tspan1513">KETHER</tspan></tspan></text>
    <text
       xml:space="preserve"
       style="font-style:normal;font-variant:normal;font-weight:700;font-size:6.99492px;line-height:125%;font-family:'微軟正黑體';text-align:start;letter-spacing:0px;word-spacing:0px;text-anchor:start;fill:#000000;fill-opacity:1;stroke:none;stroke-width:0.264583"
       x="102.00704"
       y="45.534256"
       id="text1523"><tspan
         sodipodi:role="line"
         x="102.00704"
         y="45.534256"
         id="tspan1521"
         style="stroke-width:0.264583"><tspan
           dx="0"
           dy="0"
           style="font-style:normal;font-variant:normal;font-weight:700;font-size:6.99492px;font-family:'微軟正黑體';fill:#000000;stroke-width:0.264583"
           id="tspan1519">1</tspan></tspan></text>
  </g>
</svg>
