<?xml version="1.0" encoding="UTF-8" standalone="no"?>
<!-- Created with Inkscape (http://www.inkscape.org/) -->

<svg
   width="162.20403mm"
   height="267.13361mm"
   viewBox="0 0 162.20403 267.13361"
   version="1.1"
   id="svg5"
   inkscape:version="1.1 (c68e22c387, 2021-05-23)"
   sodipodi:docname="kabbalah1.svg"
   xmlns:inkscape="http://www.inkscape.org/namespaces/inkscape"
   xmlns:sodipodi="http://sodipodi.sourceforge.net/DTD/sodipodi-0.dtd"
   xmlns="http://www.w3.org/2000/svg"
   xmlns:svg="http://www.w3.org/2000/svg">
  <sodipodi:namedview
     id="namedview7"
     pagecolor="#ffffff"
     bordercolor="#666666"
     borderopacity="1.0"
     inkscape:pageshadow="2"
     inkscape:pageopacity="0.0"
     inkscape:pagecheckerboard="0"
     inkscape:document-units="mm"
     showgrid="false"
     inkscape:zoom="0.52382155"
     inkscape:cx="31.499277"
     inkscape:cy="525.94247"
     inkscape:window-width="1288"
     inkscape:window-height="745"
     inkscape:window-x="-8"
     inkscape:window-y="-8"
     inkscape:window-maximized="1"
     inkscape:current-layer="layer1"
     fit-margin-top="0"
     fit-margin-left="0"
     fit-margin-right="0"
     fit-margin-bottom="0" />
  <defs
     id="defs2">
    <pattern
       id="EMFhbasepattern"
       patternUnits="userSpaceOnUse"
       width="6"
       height="6"
       x="0"
       y="0" />
  </defs>
  <g
     inkscape:label="圖層 1"
     inkscape:groupmode="layer"
     id="layer1"
     transform="translate(-23.95921,-8.3668617)">
    <path
       style="fill:#000000;fill-opacity:1;fill-rule:nonzero;stroke:#000000;stroke-width:0.0273254px;stroke-linecap:butt;stroke-linejoin:round;stroke-miterlimit:4;stroke-dasharray:none;stroke-opacity:1"
       d="m 106.14049,189.35695 c -0.46453,0 -0.87441,-0.38256 -0.87441,-0.87441 v -31.47892 c 0,-0.30058 0.16395,-0.57383 0.4372,-0.73779 0.27326,-0.16395 0.60116,-0.16395 0.87442,-0.0273 l 59.02296,31.47891 c 0.3279,0.19128 0.51918,0.60116 0.4372,0.98372 -0.1093,0.38256 -0.46453,0.65581 -0.87441,0.65581 z m 59.02296,-1.74883 -0.40988,1.66685 -59.02296,-31.47891 1.28429,-0.79244 v 31.47892 l -0.87441,-0.87442 z"
       id="path827" />
    <path
       style="fill:#000000;fill-opacity:1;fill-rule:nonzero;stroke:#000000;stroke-width:0.0273254px;stroke-linecap:butt;stroke-linejoin:round;stroke-miterlimit:4;stroke-dasharray:none;stroke-opacity:1"
       d="m 106.14049,187.60812 -0.87441,0.87442 v -31.47892 l 1.31162,0.79244 -59.022963,31.47891 -0.43721,-1.66685 z m -59.022963,1.74883 c -0.38256,0 -0.73779,-0.27325 -0.84709,-0.65581 -0.082,-0.38256 0.082,-0.79244 0.43721,-0.98372 l 59.022963,-31.47891 c 0.27325,-0.13663 0.60116,-0.13663 0.87441,0.0273 0.27326,0.16396 0.40988,0.43721 0.40988,0.73779 v 31.47892 c 0,0.49185 -0.38255,0.87441 -0.87441,0.87441 z"
       id="path829" />
    <path
       style="fill:#000000;fill-opacity:1;fill-rule:nonzero;stroke:#000000;stroke-width:0.0273254px;stroke-linecap:butt;stroke-linejoin:round;stroke-miterlimit:4;stroke-dasharray:none;stroke-opacity:1"
       d="m 106.14049,189.35695 0.87441,-0.87441 v 31.0417 l -1.25697,-0.76511 59.02297,-31.04171 0.38255,1.63953 z m 59.02296,-1.74883 c 0.40988,0 0.76511,0.30058 0.87441,0.68314 0.082,0.38255 -0.1093,0.79244 -0.46453,0.98371 l -59.02296,31.04171 c -0.27325,0.13663 -0.57383,0.13663 -0.84709,-0.0273 -0.27325,-0.16395 -0.4372,-0.4372 -0.4372,-0.76511 v -31.0417 c 0,-0.46454 0.40988,-0.87442 0.87441,-0.87442 z"
       id="path831" />
    <path
       style="fill:#000000;fill-opacity:1;fill-rule:nonzero;stroke:#000000;stroke-width:0.0273254px;stroke-linecap:butt;stroke-linejoin:round;stroke-miterlimit:4;stroke-dasharray:none;stroke-opacity:1"
       d="m 106.14049,187.60812 c 0.49186,0 0.87441,0.40988 0.87441,0.87442 v 31.0417 c 0,0.32791 -0.13662,0.60116 -0.40988,0.76511 -0.27325,0.16396 -0.60116,0.16396 -0.84709,0.0273 L 46.734967,189.27497 c -0.35523,-0.19127 -0.54651,-0.60116 -0.46453,-0.98371 0.1093,-0.38256 0.46453,-0.68314 0.84709,-0.68314 z m -59.022963,1.74883 0.40988,-1.63953 59.022963,31.04171 -1.28429,0.76511 v -31.0417 l 0.87441,0.87441 z"
       id="path833" />
    <path
       style="fill:#000000;fill-opacity:1;fill-rule:nonzero;stroke:#000000;stroke-width:0.0273254px;stroke-linecap:butt;stroke-linejoin:round;stroke-miterlimit:4;stroke-dasharray:none;stroke-opacity:1"
       d="m 106.14049,126.83633 0.87441,-0.87441 v 31.0417 l -1.25697,-0.76511 59.02297,-31.04171 0.38255,1.63953 z m 59.02296,-1.74883 c 0.40988,0 0.76511,0.30058 0.87441,0.68314 0.082,0.38256 -0.1093,0.79244 -0.46453,0.98371 l -59.02296,31.04171 c -0.27325,0.13663 -0.57383,0.13663 -0.84709,-0.0273 -0.27325,-0.16395 -0.4372,-0.4372 -0.4372,-0.76511 v -31.0417 c 0,-0.46454 0.40988,-0.87442 0.87441,-0.87442 z"
       id="path835" />
    <path
       style="fill:#000000;fill-opacity:1;fill-rule:nonzero;stroke:#000000;stroke-width:0.0273254px;stroke-linecap:butt;stroke-linejoin:round;stroke-miterlimit:4;stroke-dasharray:none;stroke-opacity:1"
       d="m 106.14049,125.0875 c 0.49186,0 0.87441,0.40988 0.87441,0.87442 v 31.0417 c 0,0.32791 -0.13662,0.60116 -0.40988,0.76511 -0.27325,0.16396 -0.60116,0.16396 -0.84709,0.0273 L 46.734967,126.75435 c -0.35523,-0.19127 -0.54651,-0.60115 -0.46453,-0.98371 0.1093,-0.38256 0.46453,-0.68314 0.84709,-0.68314 z m -59.022963,1.74883 0.40988,-1.63953 59.022963,31.04171 -1.28429,0.76511 v -31.0417 l 0.87441,0.87441 z"
       id="path837" />
    <path
       style="fill:#000000;fill-opacity:1;fill-rule:nonzero;stroke:#000000;stroke-width:0.0273254px;stroke-linecap:butt;stroke-linejoin:round;stroke-miterlimit:4;stroke-dasharray:none;stroke-opacity:1"
       d="m 106.14049,64.315714 c -0.46453,0 -0.87441,-0.382555 -0.87441,-0.874413 V 31.962388 c 0,-0.30058 0.16395,-0.573837 0.4372,-0.737788 0.27326,-0.163952 0.60116,-0.163952 0.87442,-0.02733 l 59.02296,31.478914 c 0.3279,0.191278 0.51918,0.601159 0.4372,0.983715 -0.1093,0.382559 -0.46453,0.655812 -0.87441,0.655812 z m 59.02296,-1.748829 -0.40988,1.666854 -59.02296,-31.478914 1.28429,-0.792437 v 31.478913 l -0.87441,-0.874416 z"
       id="path839" />
    <path
       style="fill:#000000;fill-opacity:1;fill-rule:nonzero;stroke:#000000;stroke-width:0.0273254px;stroke-linecap:butt;stroke-linejoin:round;stroke-miterlimit:4;stroke-dasharray:none;stroke-opacity:1"
       d="m 106.14049,62.566885 -0.87441,0.874416 V 31.962388 l 1.31162,0.792437 -59.022963,31.478914 -0.43721,-1.666854 z m -59.022963,1.748829 c -0.38256,0 -0.73779,-0.273253 -0.84709,-0.655812 -0.082,-0.382556 0.082,-0.792437 0.43721,-0.983715 L 105.73061,31.197273 c 0.27325,-0.136625 0.60116,-0.136625 0.87441,0.02733 0.27326,0.163951 0.40988,0.437208 0.40988,0.737788 v 31.478913 c 0,0.491858 -0.38255,0.874413 -0.87441,0.874413 z"
       id="path841" />
    <path
       style="fill:#000000;fill-opacity:1;fill-rule:nonzero;stroke:#000000;stroke-width:0.0273254px;stroke-linecap:butt;stroke-linejoin:round;stroke-miterlimit:4;stroke-dasharray:none;stroke-opacity:1"
       d="m 47.991937,63.441301 0.082,125.177859 h -1.74883 l -0.082,-125.177859 z"
       id="path843" />
    <path
       style="fill:#000000;fill-opacity:1;fill-rule:nonzero;stroke:#000000;stroke-width:0.0273254px;stroke-linecap:butt;stroke-linejoin:round;stroke-miterlimit:4;stroke-dasharray:none;stroke-opacity:1"
       d="m 166.03786,63.441301 0.082,125.177859 h -1.74883 l -0.082,-125.177859 z"
       id="path845" />
    <path
       style="fill:#000000;fill-opacity:1;fill-rule:nonzero;stroke:#000000;stroke-width:0.0273254px;stroke-linecap:butt;stroke-linejoin:round;stroke-miterlimit:4;stroke-dasharray:none;stroke-opacity:1"
       d="m 107.0149,219.52424 0.082,28.69172 h -1.74883 l -0.082,-28.66439 z"
       id="path847" />
    <path
       style="fill:#000000;fill-opacity:1;fill-rule:nonzero;stroke:#000000;stroke-width:0.0273254px;stroke-linecap:butt;stroke-linejoin:round;stroke-miterlimit:4;stroke-dasharray:none;stroke-opacity:1"
       d="m 165.92856,63.905832 -59.02296,93.890228 -1.5029,-0.92907 59.02296,-93.890223 z"
       id="path849" />
    <path
       style="fill:#000000;fill-opacity:1;fill-rule:nonzero;stroke:#000000;stroke-width:0.0273254px;stroke-linecap:butt;stroke-linejoin:round;stroke-miterlimit:4;stroke-dasharray:none;stroke-opacity:1"
       d="M 47.882637,62.976767 106.9056,156.86699 105.4027,157.79606 46.379737,63.905832 Z"
       id="path851" />
    <path
       style="fill:#ffffff;fill-opacity:1;fill-rule:evenodd;stroke:none;stroke-width:0.264583"
       d="m 145.70773,186.5151 c 0,-10.8482 8.82612,-19.67432 19.67432,-19.67432 0,0 0,0 0,0 v 0 c 10.87553,0 19.67433,8.82612 19.67433,19.67432 0,0 0,0 0,0 v 0 c 0,10.87553 -8.7988,19.67432 -19.67433,19.67432 0,0 0,0 0,0 v 0 c -10.8482,0 -19.67432,-8.79879 -19.67432,-19.67432 0,0 0,0 0,0 z"
       id="path853" />
    <path
       style="fill:#000000;fill-opacity:1;fill-rule:nonzero;stroke:#000000;stroke-width:0.0273254px;stroke-linecap:butt;stroke-linejoin:round;stroke-miterlimit:4;stroke-dasharray:none;stroke-opacity:1"
       d="m 145.07925,186.56975 0.1093,-2.10406 0.30058,-1.99475 0.46453,-1.94011 0.71047,-1.88546 0.84708,-1.77615 1.01104,-1.66685 2.4593,-3.0058 c 0.0273,-0.0273 0.0546,-0.0547 0.082,-0.082 l 2.92382,-2.40464 1.69418,-1.03836 1.77616,-0.84709 1.85812,-0.71046 1.96744,-0.49186 1.99476,-0.30058 2.07673,-0.13663 2.10406,0.1093 1.99476,0.32791 1.9401,0.46453 1.88546,0.71046 1.77615,0.84709 1.69418,1.01104 c 0.0273,0.0273 0.0547,0.0273 0.082,0.0547 l 2.89649,2.40464 c 0.0273,0.0273 0.0547,0.0547 0.082,0.082 l 2.40464,2.92382 1.03837,1.69418 0.84708,1.77616 0.71047,1.85812 0.49185,1.96744 0.30058,1.99475 0.10931,2.07674 -0.10931,2.10406 -0.30058,1.99475 -0.46453,1.94011 -0.71046,1.88546 -0.84709,1.77615 -1.01104,1.69418 c -0.0273,0.0273 -0.0273,0.0546 -0.0546,0.082 l -2.40464,2.8965 c -0.0273,0.0273 -0.0547,0.0547 -0.082,0.082 l -2.89649,2.40464 c -0.0273,0.0273 -0.0547,0.0273 -0.082,0.0547 l -1.63953,0.98371 -1.77615,0.84709 -1.85813,0.71047 -1.96743,0.49185 -1.99476,0.30058 -2.07674,0.10931 -2.10405,-0.10931 -1.99476,-0.30058 -1.94011,-0.46453 -1.88545,-0.71046 -1.77616,-0.84709 -1.66685,-1.01104 -3.0058,-2.45929 c -0.0273,-0.0273 -0.0546,-0.0546 -0.082,-0.082 l -2.40464,-2.8965 c -0.0273,-0.0273 -0.0273,-0.0547 -0.0547,-0.082 l -0.98371,-1.63953 -0.84709,-1.77615 -0.71046,-1.85813 -0.49186,-1.96744 -0.30058,-1.99475 z m 1.3936,1.88546 0.30058,1.88545 0.4372,1.80348 0.65581,1.74883 0.79244,1.66685 0.98372,1.63953 -0.0547,-0.082 2.40464,2.89649 -0.082,-0.082 2.84185,2.34998 1.55755,0.9564 1.66685,0.79243 1.7215,0.65581 1.83081,0.46454 1.88545,0.27325 1.94011,0.1093 1.96743,-0.082 1.88546,-0.30058 1.80348,-0.43721 1.74882,-0.65581 1.66686,-0.79244 1.63952,-0.98372 -0.082,0.0547 2.89649,-2.40464 -0.082,0.082 2.40464,-2.89649 -0.0547,0.082 0.95639,-1.58487 0.79243,-1.66686 0.65582,-1.7215 0.46453,-1.8308 0.27325,-1.88546 0.13663,-1.94011 -0.1093,-1.96743 -0.30058,-1.88545 -0.43721,-1.80348 -0.65581,-1.74883 -0.79244,-1.66686 -0.92906,-1.53022 -2.40464,-2.92382 0.082,0.082 -2.89649,-2.40463 0.082,0.0547 -1.58487,-0.95639 -1.66685,-0.79244 -1.72151,-0.65581 -1.8308,-0.46454 -1.88546,-0.30058 -1.94011,-0.1093 -1.96743,0.1093 -1.88545,0.30058 -1.80348,0.43721 -1.74883,0.65581 -1.66685,0.79244 -1.53023,0.92907 -2.92382,2.40463 0.082,-0.082 -2.34999,2.84185 -0.95639,1.55755 -0.79244,1.66685 -0.65581,1.7215 -0.46453,1.83081 -0.30058,1.88545 -0.1093,1.94011 z"
       id="path855" />
    <text
       xml:space="preserve"
       style="font-style:normal;font-variant:normal;font-weight:700;font-size:6.99492px;line-height:125%;font-family:'微軟正黑體';text-align:start;letter-spacing:0px;word-spacing:0px;text-anchor:start;fill:#000000;fill-opacity:1;stroke:none;stroke-width:0.264583"
       x="157.95279"
       y="183.27733"
       id="text861"><tspan
         sodipodi:role="line"
         x="157.95279"
         y="183.27733"
         id="tspan859"
         style="stroke-width:0.264583"><tspan
           dx="0"
           dy="0"
           style="font-style:normal;font-variant:normal;font-weight:700;font-size:6.99492px;font-family:'微軟正黑體';fill:#000000;stroke-width:0.264583"
           id="tspan857">光榮</tspan></tspan></text>
    <text
       xml:space="preserve"
       style="font-style:normal;font-variant:normal;font-weight:700;font-size:6.99492px;line-height:125%;font-family:'微軟正黑體';text-align:start;letter-spacing:0px;word-spacing:0px;text-anchor:start;fill:#000000;fill-opacity:1;stroke:none;stroke-width:0.264583"
       x="148.33423"
       y="191.58427"
       id="text867"><tspan
         sodipodi:role="line"
         x="148.33423"
         y="191.58427"
         id="tspan865"
         style="stroke-width:0.264583"><tspan
           dx="0"
           dy="0"
           style="font-style:normal;font-variant:normal;font-weight:700;font-size:6.99492px;font-family:'微軟正黑體';fill:#000000;stroke-width:0.264583"
           id="tspan863">NETZACH</tspan></tspan></text>
    <text
       xml:space="preserve"
       style="font-style:normal;font-variant:normal;font-weight:700;font-size:6.99492px;line-height:125%;font-family:'微軟正黑體';text-align:start;letter-spacing:0px;word-spacing:0px;text-anchor:start;fill:#000000;fill-opacity:1;stroke:none;stroke-width:0.264583"
       x="162.76207"
       y="199.8912"
       id="text873"><tspan
         sodipodi:role="line"
         x="162.76207"
         y="199.8912"
         id="tspan871"
         style="stroke-width:0.264583"><tspan
           dx="0"
           dy="0"
           style="font-style:normal;font-variant:normal;font-weight:700;font-size:6.99492px;font-family:'微軟正黑體';fill:#000000;stroke-width:0.264583"
           id="tspan869">7</tspan></tspan></text>
    <path
       style="fill:#ffffff;fill-opacity:1;fill-rule:evenodd;stroke:none;stroke-width:0.264583"
       d="m 86.684767,255.15662 c 0,-10.8482 8.82612,-19.67432 19.674323,-19.67432 0,0 0,0 0,0 v 0 c 10.87553,0 19.67432,8.82612 19.67432,19.67432 0,0 0,0 0,0 v 0 c 0,10.87553 -8.79879,19.67431 -19.67432,19.67431 0,0 0,0 0,0 v 0 c -10.848203,0 -19.674323,-8.79878 -19.674323,-19.67431 0,0 0,0 0,0 z"
       id="path875" />
    <path
       style="fill:#000000;fill-opacity:1;fill-rule:nonzero;stroke:#000000;stroke-width:0.0273254px;stroke-linecap:butt;stroke-linejoin:round;stroke-miterlimit:4;stroke-dasharray:none;stroke-opacity:1"
       d="m 86.056287,255.21127 0.1093,-2.10406 0.30058,-1.99475 0.46453,-1.94011 0.71046,-1.88546 0.84709,-1.77615 1.01104,-1.66685 2.45929,-3.0058 c 0.0273,-0.0273 0.0547,-0.0546 0.082,-0.082 l 2.92383,-2.40464 1.69417,-1.03836 1.776161,-0.84709 1.858132,-0.71046 1.96743,-0.49186 1.99476,-0.30058 2.07673,-0.13663 2.10406,0.1093 1.99476,0.32791 1.9401,0.46453 1.88546,0.71046 1.77615,0.84709 1.69418,1.01104 c 0.0273,0.0273 0.0546,0.0273 0.082,0.0547 l 2.89649,2.40464 c 0.0273,0.0273 0.0547,0.0547 0.082,0.082 l 2.40464,2.92382 1.03837,1.69418 0.84708,1.77615 0.71046,1.85813 0.49186,1.96743 0.30058,1.99476 0.1093,2.07674 -0.1093,2.10406 -0.30058,1.99475 -0.46453,1.94011 -0.71046,1.88546 -0.84709,1.77615 -1.01104,1.69417 c -0.0273,0.0273 -0.0273,0.0547 -0.0547,0.082 l -2.40464,2.8965 c -0.0273,0.0273 -0.0546,0.0546 -0.082,0.082 l -2.89649,2.40464 c -0.0273,0.0273 -0.0547,0.0273 -0.082,0.0546 l -1.63952,0.98372 -1.77616,0.84709 -1.85813,0.71046 -1.96743,0.49186 -1.99476,0.3006 -2.07673,0.1093 -2.10406,-0.1093 -1.99476,-0.3006 -1.94011,-0.46453 -1.885452,-0.71045 -1.776161,-0.84709 -1.66685,-1.01106 -3.0058,-2.45927 c -0.0273,-0.0273 -0.0546,-0.0547 -0.082,-0.082 l -2.40464,-2.8965 c -0.0273,-0.0273 -0.0273,-0.0547 -0.0547,-0.082 l -0.98371,-1.63952 -0.84709,-1.77615 -0.71046,-1.85813 -0.49186,-1.96744 -0.30058,-1.99475 z m 1.3936,1.88546 0.30058,1.88545 0.4372,1.80348 0.65581,1.74883 0.79244,1.66685 0.98372,1.63953 -0.0547,-0.082 2.40464,2.89651 -0.082,-0.082 2.84184,2.35 1.557551,0.95639 1.66686,0.79242 1.721502,0.65583 1.8308,0.46453 1.88546,0.27326 1.9401,0.1093 1.96744,-0.082 1.88545,-0.30056 1.80348,-0.4372 1.74883,-0.65582 1.66685,-0.79243 1.63953,-0.98372 -0.082,0.0546 2.89649,-2.40463 -0.082,0.082 2.40464,-2.89651 -0.0546,0.082 0.95639,-1.58487 0.79243,-1.66686 0.65582,-1.7215 0.46453,-1.8308 0.30058,-1.88546 0.1093,-1.94011 -0.1093,-1.96743 -0.30058,-1.88546 -0.43721,-1.80348 -0.65581,-1.74882 -0.79244,-1.66686 -0.92906,-1.53022 -2.40464,-2.92382 0.082,0.082 -2.89649,-2.40464 0.082,0.0547 -1.58488,-0.9564 -1.66685,-0.79243 -1.7215,-0.65582 -1.83081,-0.46453 -1.88545,-0.30058 -1.94011,-0.1093 -1.96743,0.1093 -1.88546,0.30058 -1.80348,0.43721 -1.748822,0.65581 -1.66686,0.79244 -1.530221,0.92906 -2.92382,2.40464 0.082,-0.082 -2.34999,2.84184 -0.95639,1.55755 -0.79244,1.66685 -0.65581,1.72151 -0.46453,1.8308 -0.30058,1.88546 -0.10931,1.94011 z"
       id="path877" />
    <text
       xml:space="preserve"
       style="font-style:normal;font-variant:normal;font-weight:700;font-size:6.99492px;line-height:125%;font-family:'微軟正黑體';text-align:start;letter-spacing:0px;word-spacing:0px;text-anchor:start;fill:#000000;fill-opacity:1;stroke:none;stroke-width:0.264583"
       x="99.217819"
       y="252.13794"
       id="text883"><tspan
         sodipodi:role="line"
         x="99.217819"
         y="252.13794"
         id="tspan881"
         style="stroke-width:0.264583"><tspan
           dx="0"
           dy="0"
           style="font-style:normal;font-variant:normal;font-weight:700;font-size:6.99492px;font-family:'微軟正黑體';fill:#000000;stroke-width:0.264583"
           id="tspan879">王國</tspan></tspan></text>
    <text
       xml:space="preserve"
       style="font-style:normal;font-variant:normal;font-weight:700;font-size:6.99492px;line-height:125%;font-family:'微軟正黑體';text-align:start;letter-spacing:0px;word-spacing:0px;text-anchor:start;fill:#000000;fill-opacity:1;stroke:none;stroke-width:0.264583"
       x="88.724838"
       y="260.44489"
       id="text889"><tspan
         sodipodi:role="line"
         x="88.724838"
         y="260.44489"
         id="tspan887"
         style="stroke-width:0.264583"><tspan
           dx="0"
           dy="0"
           style="font-style:normal;font-variant:normal;font-weight:700;font-size:6.99492px;font-family:'微軟正黑體';fill:#000000;stroke-width:0.264583"
           id="tspan885">MALKUTH</tspan></tspan></text>
    <text
       xml:space="preserve"
       style="font-style:normal;font-variant:normal;font-weight:700;font-size:6.99492px;line-height:125%;font-family:'微軟正黑體';text-align:start;letter-spacing:0px;word-spacing:0px;text-anchor:start;fill:#000000;fill-opacity:1;stroke:none;stroke-width:0.264583"
       x="101.84106"
       y="268.7518"
       id="text895"><tspan
         sodipodi:role="line"
         x="101.84106"
         y="268.7518"
         id="tspan893"
         style="stroke-width:0.264583"><tspan
           dx="0"
           dy="0"
           style="font-style:normal;font-variant:normal;font-weight:700;font-size:6.99492px;font-family:'微軟正黑體';fill:#000000;stroke-width:0.264583"
           id="tspan891">10</tspan></tspan></text>
    <path
       style="fill:#ffffff;fill-opacity:1;fill-rule:evenodd;stroke:none;stroke-width:0.264583"
       d="m 87.121977,209.24987 c 0,-10.8482 8.82612,-19.67432 19.674323,-19.67432 0,0 0,0 0,0 v 0 c 10.87553,0 19.67432,8.82612 19.67432,19.67432 0,0 0,0 0,0 v 0 c 0,10.87553 -8.79879,19.67432 -19.67432,19.67432 0,0 0,0 0,0 v 0 c -10.848203,0 -19.674323,-8.79879 -19.674323,-19.67432 0,0 0,0 0,0 z"
       id="path897" />
    <path
       style="fill:#000000;fill-opacity:1;fill-rule:nonzero;stroke:#000000;stroke-width:0.0273254px;stroke-linecap:butt;stroke-linejoin:round;stroke-miterlimit:4;stroke-dasharray:none;stroke-opacity:1"
       d="m 86.493487,209.30452 0.10931,-2.10406 0.30058,-1.99475 0.46453,-1.94011 0.71046,-1.88546 0.84709,-1.77615 1.01104,-1.66685 2.45929,-3.0058 c 0.0273,-0.0273 0.0547,-0.0547 0.082,-0.082 l 2.92382,-2.40464 1.694181,-1.03836 1.77616,-0.84709 1.858122,-0.71046 1.96744,-0.49186 1.99476,-0.30058 2.07673,-0.13663 2.10406,0.1093 1.99476,0.32791 1.9401,0.46453 1.88546,0.71046 1.77615,0.84709 1.69417,1.01104 c 0.0273,0.0273 0.0547,0.0273 0.082,0.0547 l 2.8965,2.40464 c 0.0273,0.0273 0.0546,0.0547 0.082,0.082 l 2.40464,2.92382 1.03836,1.69418 0.84709,1.77616 0.71046,1.85812 0.49186,1.96744 0.30058,1.99476 0.1093,2.07673 -0.1093,2.10406 -0.30058,1.99475 -0.46453,1.94011 -0.71046,1.88546 -0.84709,1.77615 -1.01104,1.69418 c -0.0273,0.0273 -0.0273,0.0546 -0.0546,0.082 l -2.40464,2.8965 c -0.0273,0.0273 -0.0547,0.0547 -0.082,0.082 l -2.8965,2.40464 c -0.0273,0.0273 -0.0546,0.0273 -0.082,0.0546 l -1.63952,0.98371 -1.77615,0.84709 -1.85813,0.71047 -1.96744,0.49185 -1.99475,0.30058 -2.07674,0.10931 -2.10405,-0.10931 -1.99476,-0.30058 -1.94011,-0.46453 -1.885452,-0.71046 -1.77616,-0.84709 -1.666851,-1.01104 -3.0058,-2.45929 c -0.0273,-0.0273 -0.0546,-0.0547 -0.082,-0.082 l -2.40464,-2.8965 c -0.0273,-0.0273 -0.0273,-0.0546 -0.0547,-0.082 l -0.98372,-1.63953 -0.84709,-1.77615 -0.71046,-1.85813 -0.49185,-1.96744 -0.30058,-1.99475 z m 1.3936,1.88546 0.30058,1.88545 0.43721,1.80348 0.65581,1.74883 0.79244,1.66685 0.98371,1.63953 -0.0547,-0.082 2.40464,2.89649 -0.082,-0.082 2.84185,2.34998 1.557551,0.9564 1.66685,0.79243 1.721512,0.65581 1.8308,0.46454 1.88546,0.27325 1.9401,0.1093 1.96743,-0.082 1.88546,-0.30058 1.80348,-0.43721 1.74883,-0.65581 1.66685,-0.79244 1.63953,-0.98372 -0.082,0.0547 2.8965,-2.40464 -0.082,0.082 2.40464,-2.89649 -0.0547,0.082 0.95639,-1.58487 0.79244,-1.66686 0.65581,-1.7215 0.46453,-1.8308 0.30058,-1.88546 0.10931,-1.94011 -0.10931,-1.96743 -0.30058,-1.88545 -0.4372,-1.80348 -0.65581,-1.74883 -0.79244,-1.66685 -0.92907,-1.53023 -2.40464,-2.92382 0.082,0.082 -2.8965,-2.40463 0.082,0.0547 -1.58488,-0.95639 -1.66685,-0.79244 -1.7215,-0.65581 -1.83081,-0.46454 -1.88545,-0.30058 -1.94011,-0.1093 -1.96743,0.1093 -1.88546,0.30058 -1.80348,0.43721 -1.748832,0.65581 -1.66685,0.79244 -1.530221,0.92907 -2.92383,2.40463 0.082,-0.082 -2.34998,2.84185 -0.95639,1.55755 -0.79244,1.66685 -0.65581,1.7215 -0.46454,1.83081 -0.30058,1.88545 -0.1093,1.94011 z"
       id="path899" />
    <text
       xml:space="preserve"
       style="font-style:normal;font-variant:normal;font-weight:700;font-size:6.99492px;line-height:125%;font-family:'微軟正黑體';text-align:start;letter-spacing:0px;word-spacing:0px;text-anchor:start;fill:#000000;fill-opacity:1;stroke:none;stroke-width:0.264583"
       x="99.216324"
       y="206.23088"
       id="text905"><tspan
         sodipodi:role="line"
         x="99.216324"
         y="206.23088"
         id="tspan903"
         style="stroke-width:0.264583"><tspan
           dx="0"
           dy="0"
           style="font-style:normal;font-variant:normal;font-weight:700;font-size:6.99492px;font-family:'微軟正黑體';fill:#000000;stroke-width:0.264583"
           id="tspan901">根基</tspan></tspan></text>
    <text
       xml:space="preserve"
       style="font-style:normal;font-variant:normal;font-weight:700;font-size:6.99492px;line-height:125%;font-family:'微軟正黑體';text-align:start;letter-spacing:0px;word-spacing:0px;text-anchor:start;fill:#000000;fill-opacity:1;stroke:none;stroke-width:0.264583"
       x="94.844254"
       y="214.53781"
       id="text911"><tspan
         sodipodi:role="line"
         x="94.844254"
         y="214.53781"
         id="tspan909"
         style="stroke-width:0.264583"><tspan
           dx="0"
           dy="0"
           style="font-style:normal;font-variant:normal;font-weight:700;font-size:6.99492px;font-family:'微軟正黑體';fill:#000000;stroke-width:0.264583"
           id="tspan907">YESOD</tspan></tspan></text>
    <text
       xml:space="preserve"
       style="font-style:normal;font-variant:normal;font-weight:700;font-size:6.99492px;line-height:125%;font-family:'微軟正黑體';text-align:start;letter-spacing:0px;word-spacing:0px;text-anchor:start;fill:#000000;fill-opacity:1;stroke:none;stroke-width:0.264583"
       x="104.0256"
       y="222.84476"
       id="text917"><tspan
         sodipodi:role="line"
         x="104.0256"
         y="222.84476"
         id="tspan915"
         style="stroke-width:0.264583"><tspan
           dx="0"
           dy="0"
           style="font-style:normal;font-variant:normal;font-weight:700;font-size:6.99492px;font-family:'微軟正黑體';fill:#000000;stroke-width:0.264583"
           id="tspan913">9</tspan></tspan></text>
    <path
       style="fill:#ffffff;fill-opacity:1;fill-rule:evenodd;stroke:none;stroke-width:0.264583"
       d="m 86.247567,153.72457 c 0,-10.8482 8.82611,-19.67432 19.674313,-19.67432 0,0 0,0 0,0 v 0 c 10.87553,0 19.67433,8.82612 19.67433,19.67432 0,0 0,0 0,0 v 0 c 0,10.87553 -8.7988,19.67432 -19.67433,19.67432 0,0 0,0 0,0 v 0 c -10.848203,0 -19.674313,-8.79879 -19.674313,-19.67432 0,0 0,0 0,0 z"
       id="path919" />
    <path
       style="fill:#000000;fill-opacity:1;fill-rule:nonzero;stroke:#000000;stroke-width:0.0273254px;stroke-linecap:butt;stroke-linejoin:round;stroke-miterlimit:4;stroke-dasharray:none;stroke-opacity:1"
       d="m 85.619077,153.77922 0.1093,-2.10406 0.30058,-1.99476 0.46453,-1.9401 0.71047,-1.88546 0.84709,-1.77615 1.01104,-1.66685 2.45929,-3.0058 c 0.0273,-0.0273 0.0547,-0.0547 0.082,-0.082 l 2.92382,-2.40464 1.69418,-1.03837 1.776151,-0.84709 1.85813,-0.71046 1.967432,-0.49186 1.99476,-0.30058 2.07674,-0.13662 2.10405,0.1093 1.99476,0.3279 1.94011,0.46454 1.88545,0.71046 1.77616,0.84709 1.69417,1.01104 c 0.0273,0.0273 0.0546,0.0273 0.082,0.0547 l 2.89649,2.40464 c 0.0273,0.0273 0.0547,0.0547 0.082,0.082 l 2.40464,2.92382 1.03837,1.69417 0.84709,1.77616 0.71046,1.85813 0.49186,1.96743 0.30058,1.99476 0.1093,2.07673 -0.1093,2.10406 -0.30058,1.99476 -0.46454,1.94011 -0.71046,1.88545 -0.84709,1.77616 -1.01104,1.69417 c -0.0273,0.0273 -0.0273,0.0547 -0.0546,0.082 l -2.40464,2.8965 c -0.0273,0.0273 -0.0546,0.0546 -0.082,0.082 l -2.89649,2.40464 c -0.0273,0.0273 -0.0546,0.0273 -0.082,0.0547 l -1.63952,0.98372 -1.77616,0.84709 -1.85813,0.71046 -1.96743,0.49186 -1.99476,0.30058 -2.07673,0.1093 -2.10406,-0.1093 -1.99476,-0.30058 -1.940102,-0.46453 -1.88546,-0.71046 -1.776151,-0.84709 -1.66686,-1.01105 -3.00579,-2.45929 c -0.0273,-0.0273 -0.0547,-0.0546 -0.082,-0.082 l -2.40464,-2.8965 c -0.0273,-0.0273 -0.0273,-0.0547 -0.0546,-0.082 l -0.98372,-1.63952 -0.84709,-1.77616 -0.71046,-1.85813 -0.49186,-1.96743 -0.30058,-1.99476 z m 1.3936,1.88545 0.30058,1.88546 0.43721,1.80348 0.6558,1.74883 0.79244,1.66685 0.98372,1.63953 -0.0546,-0.082 2.40464,2.8965 -0.082,-0.082 2.84184,2.34999 1.55755,0.95639 1.666861,0.79244 1.721502,0.65581 1.8308,0.46453 1.88546,0.27326 1.94011,0.1093 1.96743,-0.082 1.88545,-0.30058 1.80348,-0.4372 1.74883,-0.65581 1.66685,-0.79244 1.63953,-0.98372 -0.082,0.0547 2.8965,-2.40464 -0.082,0.082 2.40464,-2.8965 -0.0546,0.082 0.95639,-1.58488 0.79244,-1.66685 0.65581,-1.7215 0.46453,-1.83081 0.30058,-1.88545 0.1093,-1.94011 -0.1093,-1.96743 -0.30058,-1.88546 -0.43721,-1.80348 -0.65581,-1.74883 -0.79244,-1.66685 -0.92906,-1.53022 -2.40464,-2.92383 0.082,0.082 -2.8965,-2.40464 0.082,0.0547 -1.58488,-0.95639 -1.66685,-0.79244 -1.7215,-0.65581 -1.8308,-0.46453 -1.88546,-0.30058 -1.94011,-0.1093 -1.96743,0.1093 -1.88546,0.30058 -1.80348,0.43721 -1.748822,0.65581 -1.666861,0.79244 -1.53022,0.92906 -2.92382,2.40464 0.082,-0.082 -2.34999,2.84185 -0.95639,1.55755 -0.79244,1.66685 -0.65581,1.72151 -0.46453,1.8308 -0.30058,1.88546 -0.1093,1.9401 z"
       id="path921" />
    <text
       xml:space="preserve"
       style="font-style:normal;font-variant:normal;font-weight:700;font-size:6.99492px;line-height:125%;font-family:'微軟正黑體';text-align:start;letter-spacing:0px;word-spacing:0px;text-anchor:start;fill:#000000;fill-opacity:1;stroke:none;stroke-width:0.264583"
       x="98.927994"
       y="150.48657"
       id="text927"><tspan
         sodipodi:role="line"
         x="98.927994"
         y="150.48657"
         id="tspan925"
         style="stroke-width:0.264583"><tspan
           dx="0"
           dy="0"
           style="font-style:normal;font-variant:normal;font-weight:700;font-size:6.99492px;font-family:'微軟正黑體';fill:#000000;stroke-width:0.264583"
           id="tspan923">美麗</tspan></tspan></text>
    <text
       xml:space="preserve"
       style="font-style:normal;font-variant:normal;font-weight:700;font-size:6.99492px;line-height:125%;font-family:'微軟正黑體';text-align:start;letter-spacing:0px;word-spacing:0px;text-anchor:start;fill:#000000;fill-opacity:1;stroke:none;stroke-width:0.264583"
       x="86.248993"
       y="158.7935"
       id="text933"><tspan
         sodipodi:role="line"
         x="86.248993"
         y="158.7935"
         id="tspan931"
         style="stroke-width:0.264583"><tspan
           dx="0"
           dy="0"
           style="font-style:normal;font-variant:normal;font-weight:700;font-size:6.99492px;font-family:'微軟正黑體';fill:#000000;stroke-width:0.264583"
           id="tspan929">TIPHARETH</tspan></tspan></text>
    <text
       xml:space="preserve"
       style="font-style:normal;font-variant:normal;font-weight:700;font-size:6.99492px;line-height:125%;font-family:'微軟正黑體';text-align:start;letter-spacing:0px;word-spacing:0px;text-anchor:start;fill:#000000;fill-opacity:1;stroke:none;stroke-width:0.264583"
       x="103.73727"
       y="167.10045"
       id="text939"><tspan
         sodipodi:role="line"
         x="103.73727"
         y="167.10045"
         id="tspan937"
         style="stroke-width:0.264583"><tspan
           dx="0"
           dy="0"
           style="font-style:normal;font-variant:normal;font-weight:700;font-size:6.99492px;font-family:'微軟正黑體';fill:#000000;stroke-width:0.264583"
           id="tspan935">6</tspan></tspan></text>
    <path
       style="fill:#ffffff;fill-opacity:1;fill-rule:evenodd;stroke:none;stroke-width:0.264583"
       d="m 146.14494,127.27354 c 0,-10.98483 8.82612,-19.89293 19.67432,-19.89293 0,0 0,0 0,0 v 0 c 10.87553,0 19.67432,8.9081 19.67432,19.89293 0,0 0,0 0,0 v 0 c 0,11.01215 -8.79879,19.89292 -19.67432,19.89292 0,0 0,0 0,0 v 0 c -10.8482,0 -19.67432,-8.88077 -19.67432,-19.89292 0,0 0,0 0,0 z"
       id="path941" />
    <path
       style="fill:#000000;fill-opacity:1;fill-rule:nonzero;stroke:#000000;stroke-width:0.0273254px;stroke-linecap:butt;stroke-linejoin:round;stroke-miterlimit:4;stroke-dasharray:none;stroke-opacity:1"
       d="m 145.48913,127.32819 0.13663,-2.10406 0.30058,-2.04941 0.46453,-1.94011 0.71046,-1.91278 0.84709,-1.80348 1.01104,-1.69417 c 0,-0.0273 0.0273,-0.0547 0.0547,-0.082 l 2.40464,-2.95115 c 0.0273,-0.0273 0.0547,-0.0547 0.082,-0.082 l 2.92382,-2.43197 c 0.0273,-0.0273 0.0547,-0.0273 0.082,-0.0546 l 1.6122,-0.98371 1.77615,-0.87442 1.85813,-0.68314 1.94011,-0.51918 2.02208,-0.30058 2.07674,-0.1093 2.10406,0.082 1.99475,0.3279 1.96743,0.49186 1.85814,0.68314 1.77615,0.87441 1.69418,1.01104 c 0.0273,0.0273 0.0547,0.0273 0.082,0.0546 l 2.8965,2.43197 c 0.0273,0.0273 0.0546,0.0547 0.082,0.082 l 2.40464,2.95115 c 0.0273,0.0273 0.0273,0.0546 0.0547,0.082 l 0.98371,1.63952 0.84709,1.80348 0.71046,1.88546 0.49186,1.96743 0.30058,2.04941 0.1093,2.07673 -0.1093,2.13139 -0.30058,2.02208 -0.46453,1.96743 -0.71046,1.91278 -0.84709,1.77616 -1.01104,1.69417 c -0.0273,0.0273 -0.0273,0.0547 -0.0547,0.082 l -2.40464,2.95115 c -0.0273,0.0273 -0.0547,0.0546 -0.082,0.082 l -2.8965,2.43196 c -0.0273,0.0273 -0.0547,0.0273 -0.082,0.0547 l -1.63953,0.98372 -1.77615,0.87441 -1.85813,0.68314 -1.94011,0.51918 -2.02208,0.30058 -2.07674,0.1093 -2.10406,-0.1093 -1.99475,-0.30058 -1.96744,-0.49186 -1.85813,-0.68313 -1.77615,-0.87442 -1.66685,-1.01104 c -0.0273,-0.0273 -0.0547,-0.0273 -0.082,-0.0547 l -2.92382,-2.43196 c -0.0273,-0.0273 -0.0546,-0.0546 -0.082,-0.082 l -2.40464,-2.95115 c -0.0273,-0.0273 -0.0547,-0.0546 -0.0547,-0.082 l -0.98371,-1.63952 -0.84709,-1.77616 -0.71046,-1.88545 -0.49186,-1.99476 -0.30058,-2.02208 z m 1.42092,1.91278 0.30058,1.91278 0.43721,1.83081 0.65581,1.77615 0.79244,1.66685 0.98372,1.63953 -0.0547,-0.082 2.40464,2.95115 -0.082,-0.082 2.92382,2.43197 -0.082,-0.0546 1.55755,0.95639 1.66685,0.81976 1.74883,0.62849 1.80348,0.49185 1.88546,0.27326 1.94011,0.1093 1.96743,-0.082 1.85813,-0.30058 1.8308,-0.46453 1.74883,-0.62848 1.66685,-0.81977 1.63953,-0.98371 -0.082,0.0546 2.89649,-2.43197 -0.082,0.082 2.40464,-2.95115 -0.0547,0.082 0.9564,-1.58488 0.79243,-1.66685 0.65581,-1.74883 0.46454,-1.85813 0.27325,-1.91278 0.1093,-1.96743 -0.082,-1.96743 -0.30058,-1.94011 -0.43721,-1.80348 -0.65581,-1.77615 -0.79244,-1.69418 -0.98372,-1.63953 0.0547,0.082 -2.40464,-2.95115 0.082,0.082 -2.89649,-2.43197 0.082,0.0547 -1.58487,-0.95639 -1.66686,-0.81976 -1.74883,-0.62848 -1.80347,-0.49186 -1.88546,-0.30058 -1.94011,-0.1093 -1.96743,0.1093 -1.85813,0.30058 -1.83081,0.46453 -1.74882,0.62848 -1.66685,0.81977 -1.61221,0.98371 0.082,-0.0547 -2.92382,2.43197 0.082,-0.082 -2.40464,2.95115 0.0547,-0.082 -0.9564,1.58488 -0.79243,1.69417 -0.65581,1.74883 -0.46454,1.83081 -0.30058,1.94011 -0.1093,1.9401 z"
       id="path943" />
    <text
       xml:space="preserve"
       style="font-style:normal;font-variant:normal;font-weight:700;font-size:6.99492px;line-height:125%;font-family:'微軟正黑體';text-align:start;letter-spacing:0px;word-spacing:0px;text-anchor:start;fill:#000000;fill-opacity:1;stroke:none;stroke-width:0.264583"
       x="158.23969"
       y="124.25397"
       id="text949"><tspan
         sodipodi:role="line"
         x="158.23969"
         y="124.25397"
         id="tspan947"
         style="stroke-width:0.264583"><tspan
           dx="0"
           dy="0"
           style="font-style:normal;font-variant:normal;font-weight:700;font-size:6.99492px;font-family:'微軟正黑體';fill:#000000;stroke-width:0.264583"
           id="tspan945">慈悲</tspan></tspan></text>
    <text
       xml:space="preserve"
       style="font-style:normal;font-variant:normal;font-weight:700;font-size:6.99492px;line-height:125%;font-family:'微軟正黑體';text-align:start;letter-spacing:0px;word-spacing:0px;text-anchor:start;fill:#000000;fill-opacity:1;stroke:none;stroke-width:0.264583"
       x="151.68158"
       y="132.56091"
       id="text955"><tspan
         sodipodi:role="line"
         x="151.68158"
         y="132.56091"
         id="tspan953"
         style="stroke-width:0.264583"><tspan
           dx="0"
           dy="0"
           style="font-style:normal;font-variant:normal;font-weight:700;font-size:6.99492px;font-family:'微軟正黑體';fill:#000000;stroke-width:0.264583"
           id="tspan951">CHESED</tspan></tspan></text>
    <text
       xml:space="preserve"
       style="font-style:normal;font-variant:normal;font-weight:700;font-size:6.99492px;line-height:125%;font-family:'微軟正黑體';text-align:start;letter-spacing:0px;word-spacing:0px;text-anchor:start;fill:#000000;fill-opacity:1;stroke:none;stroke-width:0.264583"
       x="163.04897"
       y="140.86784"
       id="text961"><tspan
         sodipodi:role="line"
         x="163.04897"
         y="140.86784"
         id="tspan959"
         style="stroke-width:0.264583"><tspan
           dx="0"
           dy="0"
           style="font-style:normal;font-variant:normal;font-weight:700;font-size:6.99492px;font-family:'微軟正黑體';fill:#000000;stroke-width:0.264583"
           id="tspan957">4</tspan></tspan></text>
    <path
       style="fill:#ffffff;fill-opacity:1;fill-rule:evenodd;stroke:none;stroke-width:0.264583"
       d="m 142.64728,61.473867 c 0,-10.8482 8.82612,-19.674319 19.67432,-19.674319 0,0 0,0 0,0 v 0 c 10.87553,0 19.67432,8.826119 19.67432,19.674319 0,0 0,0 0,0 v 0 c 0,10.875529 -8.79879,19.674322 -19.67432,19.674322 0,0 0,0 0,0 v 0 c -10.8482,0 -19.67432,-8.798793 -19.67432,-19.674322 0,0 0,0 0,0 z"
       id="path963" />
    <path
       style="fill:#000000;fill-opacity:1;fill-rule:nonzero;stroke:#000000;stroke-width:0.0273254px;stroke-linecap:butt;stroke-linejoin:round;stroke-miterlimit:4;stroke-dasharray:none;stroke-opacity:1"
       d="m 142.0188,61.528519 0.1093,-2.104059 0.30058,-1.994757 0.46453,-1.940108 0.71046,-1.885455 0.84709,-1.776153 1.01105,-1.666854 2.45928,-3.005799 c 0.0273,-0.02733 0.0547,-0.05465 0.082,-0.08198 l 2.92382,-2.404639 1.69418,-1.038368 1.77616,-0.847087 1.85813,-0.710462 1.96743,-0.491858 1.99475,-0.30058 2.07674,-0.109302 2.10406,0.109302 1.99476,0.30058 1.9401,0.464532 1.88546,0.710462 1.77615,0.84709 1.69418,1.011041 c 0.0273,0.02732 0.0547,0.02732 0.082,0.05465 l 2.89649,2.404639 c 0.0273,0.02733 0.0547,0.05465 0.082,0.08198 l 2.40464,2.923823 1.03837,1.694178 0.84709,1.776153 0.71046,1.858132 0.49186,1.967431 0.30058,1.994757 0.1093,2.076736 -0.1093,2.104059 -0.30058,1.994757 -0.46454,1.940105 -0.71046,1.885455 -0.84709,1.776156 -1.01104,1.694177 c -0.0273,0.02733 -0.0273,0.05465 -0.0547,0.08198 l -2.40464,2.896497 c -0.0273,0.02733 -0.0547,0.05465 -0.082,0.08198 l -2.89649,2.404639 c -0.0273,0.02733 -0.0546,0.02733 -0.082,0.05465 l -1.63953,0.983715 -1.77615,0.847088 -1.85813,0.710461 -1.96743,0.491858 -1.99476,0.30058 -2.07673,0.109302 -2.10406,-0.109302 -1.99476,-0.30058 -1.94011,-0.464532 -1.88545,-0.710461 -1.77616,-0.847088 -1.66685,-1.011041 -3.0058,-2.459292 c -0.0273,-0.02732 -0.0546,-0.05465 -0.082,-0.08198 l -2.40463,-2.896497 c -0.0273,-0.02733 -0.0273,-0.05465 -0.0547,-0.08198 l -0.98372,-1.639527 -0.84709,-1.776153 -0.71046,-1.858132 -0.49186,-1.967431 -0.30058,-1.994757 z m 1.3936,1.885456 0.30058,1.885455 0.4372,1.803479 0.65581,1.74883 0.79244,1.666851 0.98372,1.639528 -0.0547,-0.08198 2.40464,2.8965 -0.082,-0.08198 2.84185,2.34999 1.55755,0.956389 1.66685,0.792438 1.7215,0.655812 1.83081,0.464532 1.88545,0.30058 1.94011,0.109302 1.96743,-0.109302 1.88546,-0.30058 1.80348,-0.437206 1.74883,-0.655812 1.66685,-0.792438 1.63952,-0.983715 -0.082,0.05465 2.8965,-2.40464 -0.082,0.08198 2.40464,-2.8965 -0.0547,0.08198 0.95639,-1.584878 0.79244,-1.666851 0.65581,-1.721504 0.46453,-1.830803 0.27325,-1.885458 0.13663,-1.940105 -0.1093,-1.967433 -0.30058,-1.885456 -0.43721,-1.803479 -0.65581,-1.748827 -0.79244,-1.666854 -0.92906,-1.530223 -2.40464,-2.923823 0.082,0.08198 -2.8965,-2.404639 0.082,0.05465 -1.58487,-0.95639 -1.66685,-0.792438 -1.72151,-0.655812 -1.8308,-0.464531 -1.88546,-0.30058 -1.9401,-0.109302 -1.96744,0.109302 -1.88545,0.30058 -1.80348,0.437208 -1.74883,0.655809 -1.66685,0.792438 -1.53023,0.929066 -2.92382,2.404639 0.082,-0.08198 -2.34999,2.841845 -0.95639,1.557552 -0.79244,1.666851 -0.65581,1.721503 -0.46453,1.830806 -0.30058,1.885455 -0.10931,1.940108 z"
       id="path965" />
    <text
       xml:space="preserve"
       style="font-style:normal;font-variant:normal;font-weight:700;font-size:6.99492px;line-height:125%;font-family:'微軟正黑體';text-align:start;letter-spacing:0px;word-spacing:0px;text-anchor:start;fill:#000000;fill-opacity:1;stroke:none;stroke-width:0.264583"
       x="154.96207"
       y="58.672436"
       id="text971"><tspan
         sodipodi:role="line"
         x="154.96207"
         y="58.672436"
         id="tspan969"
         style="stroke-width:0.264583"><tspan
           dx="0"
           dy="0"
           style="font-style:normal;font-variant:normal;font-weight:700;font-size:6.99492px;font-family:'微軟正黑體';fill:#000000;stroke-width:0.264583"
           id="tspan967">智慧</tspan></tspan></text>
    <text
       xml:space="preserve"
       style="font-style:normal;font-variant:normal;font-weight:700;font-size:6.99492px;line-height:125%;font-family:'微軟正黑體';text-align:start;letter-spacing:0px;word-spacing:0px;text-anchor:start;fill:#000000;fill-opacity:1;stroke:none;stroke-width:0.264583"
       x="142.72028"
       y="66.97937"
       id="text977"><tspan
         sodipodi:role="line"
         x="142.72028"
         y="66.97937"
         id="tspan975"
         style="stroke-width:0.264583"><tspan
           dx="0"
           dy="0"
           style="font-style:normal;font-variant:normal;font-weight:700;font-size:6.99492px;font-family:'微軟正黑體';fill:#000000;stroke-width:0.264583"
           id="tspan973">CHOKMAH</tspan></tspan></text>
    <text
       xml:space="preserve"
       style="font-style:normal;font-variant:normal;font-weight:700;font-size:6.99492px;line-height:125%;font-family:'微軟正黑體';text-align:start;letter-spacing:0px;word-spacing:0px;text-anchor:start;fill:#000000;fill-opacity:1;stroke:none;stroke-width:0.264583"
       x="159.77135"
       y="75.286308"
       id="text983"><tspan
         sodipodi:role="line"
         x="159.77135"
         y="75.286308"
         id="tspan981"
         style="stroke-width:0.264583"><tspan
           dx="0"
           dy="0"
           style="font-style:normal;font-variant:normal;font-weight:700;font-size:6.99492px;font-family:'微軟正黑體';fill:#000000;stroke-width:0.264583"
           id="tspan979">2</tspan></tspan></text>
    <path
       style="fill:#ffffff;fill-opacity:1;fill-rule:evenodd;stroke:none;stroke-width:0.264583"
       d="m 27.661808,127.27354 c 0,-10.98483 8.826119,-19.89293 19.674319,-19.89293 0,0 0,0 0,0 v 0 c 10.87553,0 19.67432,8.9081 19.67432,19.89293 0,0 0,0 0,0 v 0 c 0,11.01215 -8.79879,19.89292 -19.67432,19.89292 0,0 0,0 0,0 v 0 c -10.8482,0 -19.674319,-8.88077 -19.674319,-19.89292 0,0 0,0 0,0 z"
       id="path985" />
    <path
       style="fill:#000000;fill-opacity:1;fill-rule:nonzero;stroke:#000000;stroke-width:0.0273254px;stroke-linecap:butt;stroke-linejoin:round;stroke-miterlimit:4;stroke-dasharray:none;stroke-opacity:1"
       d="m 27.033323,127.32819 0.109301,-2.10406 0.30058,-2.04941 0.464533,-1.94011 0.710461,-1.91278 0.847089,-1.80348 1.011042,-1.69417 c 0,-0.0273 0.02732,-0.0547 0.05465,-0.082 l 2.404639,-2.95115 c 0.02733,-0.0273 0.05465,-0.0547 0.08198,-0.082 l 2.923819,-2.43197 c 0.0273,-0.0273 0.0546,-0.0273 0.082,-0.0546 l 1.61221,-0.98371 1.77615,-0.87442 1.85813,-0.68314 1.94011,-0.51918 2.02208,-0.30058 2.07673,-0.1093 2.10406,0.082 1.99476,0.3279 1.96743,0.49186 1.85813,0.68314 1.77615,0.87441 1.69418,1.01104 c 0.0273,0.0273 0.0546,0.0273 0.082,0.0546 l 2.8965,2.43197 c 0.0273,0.0273 0.0547,0.0547 0.082,0.082 l 2.40464,2.95115 c 0.0273,0.0273 0.0273,0.0546 0.0546,0.082 l 0.98372,1.63952 0.84709,1.80348 0.71046,1.88546 0.49186,1.96743 0.30058,2.04941 0.1093,2.07673 -0.1093,2.13139 -0.30058,2.02208 -0.46454,1.96743 -0.71046,1.91278 -0.84709,1.77616 -1.01104,1.69417 c -0.0273,0.0273 -0.0273,0.0547 -0.0546,0.082 l -2.40464,2.95115 c -0.0273,0.0273 -0.0546,0.0546 -0.082,0.082 l -2.8965,2.43196 c -0.0273,0.0273 -0.0546,0.0273 -0.082,0.0547 l -1.63952,0.98372 -1.77616,0.87441 -1.85813,0.68314 -1.9401,0.51918 -2.02209,0.30058 -2.07673,0.1093 -2.10406,-0.1093 -1.99476,-0.30058 -1.96743,-0.49186 -1.85813,-0.68313 -1.77615,-0.87442 -1.66686,-1.01104 c -0.0273,-0.0273 -0.0547,-0.0273 -0.082,-0.0547 l -2.923819,-2.43196 c -0.02732,-0.0273 -0.05465,-0.0546 -0.08198,-0.082 l -2.404639,-2.95115 c -0.02733,-0.0273 -0.05465,-0.0546 -0.05465,-0.082 l -0.983716,-1.63952 -0.847089,-1.77616 -0.710461,-1.88545 -0.491859,-1.99476 -0.30058,-2.02208 z m 1.393598,1.91278 0.300579,1.91278 0.437207,1.83081 0.655811,1.77615 0.792438,1.66685 0.983716,1.63953 -0.05465,-0.082 2.404639,2.95115 -0.08198,-0.082 2.923826,2.43197 -0.082,-0.0546 1.55755,0.95639 1.66685,0.81976 1.74883,0.62849 1.80348,0.49185 1.88545,0.27326 1.94011,0.1093 1.96743,-0.082 1.85813,-0.30058 1.83081,-0.46453 1.74882,-0.62848 1.66686,-0.81977 1.63952,-0.98371 -0.082,0.0546 2.8965,-2.43197 -0.082,0.082 2.40464,-2.95115 -0.0547,0.082 0.95639,-1.58488 0.79244,-1.66685 0.65581,-1.74883 0.46453,-1.85813 0.30058,-1.91278 0.1093,-1.96743 -0.1093,-1.96743 -0.30058,-1.94011 -0.43721,-1.80348 -0.65581,-1.77615 -0.79243,-1.69418 -0.98372,-1.63953 0.0547,0.082 -2.40464,-2.95115 0.082,0.082 -2.8965,-2.43197 0.082,0.0547 -1.58487,-0.95639 -1.66685,-0.81976 -1.74883,-0.62848 -1.80348,-0.49186 -1.88546,-0.30058 -1.94011,-0.1093 -1.96743,0.1093 -1.85813,0.30058 -1.8308,0.46453 -1.74883,0.62848 -1.66685,0.81977 -1.6122,0.98371 0.082,-0.0547 -2.923826,2.43197 0.08198,-0.082 -2.404639,2.95115 0.05465,-0.082 -0.95639,1.58488 -0.792438,1.69417 -0.655811,1.74883 -0.464533,1.83081 -0.300579,1.94011 -0.109302,1.9401 z"
       id="path987" />
    <text
       xml:space="preserve"
       style="font-style:normal;font-variant:normal;font-weight:700;font-size:6.99492px;line-height:125%;font-family:'微軟正黑體';text-align:start;letter-spacing:0px;word-spacing:0px;text-anchor:start;fill:#000000;fill-opacity:1;stroke:none;stroke-width:0.264583"
       x="39.906036"
       y="124.25397"
       id="text993"><tspan
         sodipodi:role="line"
         x="39.906036"
         y="124.25397"
         id="tspan991"
         style="stroke-width:0.264583"><tspan
           dx="0"
           dy="0"
           style="font-style:normal;font-variant:normal;font-weight:700;font-size:6.99492px;font-family:'微軟正黑體';fill:#000000;stroke-width:0.264583"
           id="tspan989">神力</tspan></tspan></text>
    <text
       xml:space="preserve"
       style="font-style:normal;font-variant:normal;font-weight:700;font-size:6.99492px;line-height:125%;font-family:'微軟正黑體';text-align:start;letter-spacing:0px;word-spacing:0px;text-anchor:start;fill:#000000;fill-opacity:1;stroke:none;stroke-width:0.264583"
       x="29.850273"
       y="132.56091"
       id="text999"><tspan
         sodipodi:role="line"
         x="29.850273"
         y="132.56091"
         id="tspan997"
         style="stroke-width:0.264583"><tspan
           dx="0"
           dy="0"
           style="font-style:normal;font-variant:normal;font-weight:700;font-size:6.99492px;font-family:'微軟正黑體';fill:#000000;stroke-width:0.264583"
           id="tspan995">GEBURAH</tspan></tspan></text>
    <text
       xml:space="preserve"
       style="font-style:normal;font-variant:normal;font-weight:700;font-size:6.99492px;line-height:125%;font-family:'微軟正黑體';text-align:start;letter-spacing:0px;word-spacing:0px;text-anchor:start;fill:#000000;fill-opacity:1;stroke:none;stroke-width:0.264583"
       x="44.715317"
       y="140.86784"
       id="text1005"><tspan
         sodipodi:role="line"
         x="44.715317"
         y="140.86784"
         id="tspan1003"
         style="stroke-width:0.264583"><tspan
           dx="0"
           dy="0"
           style="font-style:normal;font-variant:normal;font-weight:700;font-size:6.99492px;font-family:'微軟正黑體';fill:#000000;stroke-width:0.264583"
           id="tspan1001">5</tspan></tspan></text>
    <path
       style="fill:#ffffff;fill-opacity:1;fill-rule:evenodd;stroke:none;stroke-width:0.264583"
       d="m 24.601358,61.473867 c 0,-10.8482 8.826119,-19.674319 19.674319,-19.674319 0,0 0,0 0,0 v 0 c 10.87553,0 19.67432,8.826119 19.67432,19.674319 0,0 0,0 0,0 v 0 c 0,10.875529 -8.79879,19.674322 -19.67432,19.674322 0,0 0,0 0,0 v 0 c -10.8482,0 -19.674319,-8.798793 -19.674319,-19.674322 0,0 0,0 0,0 z"
       id="path1007" />
    <path
       style="fill:#000000;fill-opacity:1;fill-rule:nonzero;stroke:#000000;stroke-width:0.0273254px;stroke-linecap:butt;stroke-linejoin:round;stroke-miterlimit:4;stroke-dasharray:none;stroke-opacity:1"
       d="m 23.972873,61.528519 0.109301,-2.104059 0.30058,-1.994757 0.464533,-1.940108 0.710462,-1.885455 0.847088,-1.776153 1.011042,-1.666854 2.45929,-3.005799 c 0.02732,-0.02733 0.05465,-0.05465 0.08198,-0.08198 l 2.923823,-2.404639 1.694178,-1.038368 1.776157,-0.847087 1.85813,-0.710462 1.96743,-0.491858 1.99476,-0.30058 2.07673,-0.109302 2.10406,0.109302 1.99476,0.30058 1.9401,0.464532 1.88546,0.710462 1.77615,0.84709 1.69418,1.011041 c 0.0273,0.02732 0.0546,0.02732 0.082,0.05465 l 2.8965,2.404639 c 0.0273,0.02733 0.0547,0.05465 0.082,0.08198 l 2.40464,2.923823 1.03836,1.694178 0.84709,1.776153 0.71046,1.858132 0.49186,1.967431 0.30058,1.994757 0.1093,2.076736 -0.1093,2.104059 -0.30058,1.994757 -0.46453,1.940105 -0.71047,1.885455 -0.84708,1.776156 -1.01104,1.694177 c -0.0273,0.02733 -0.0273,0.05465 -0.0547,0.08198 l -2.40464,2.896497 c -0.0273,0.02733 -0.0546,0.05465 -0.082,0.08198 l -2.8965,2.404639 c -0.0273,0.02733 -0.0547,0.02733 -0.082,0.05465 l -1.63953,0.983715 -1.77615,0.847088 -1.85813,0.710461 -1.96743,0.491858 -1.99476,0.30058 -2.07673,0.109302 -2.10406,-0.109302 -1.99476,-0.30058 -1.94011,-0.464532 -1.88545,-0.710461 -1.776156,-0.847088 -1.666853,-1.011041 -3.005799,-2.459292 c -0.02733,-0.02732 -0.05465,-0.05465 -0.08198,-0.08198 L 27.47048,72.92323 C 27.44315,72.8959 27.44315,72.86858 27.41583,72.84125 l -0.983667,-1.639524 -0.847089,-1.776153 -0.710462,-1.858132 -0.491858,-1.967431 -0.30058,-1.994757 z m 1.393597,1.885456 0.30058,1.885455 0.437207,1.803479 0.655811,1.74883 0.792438,1.666851 0.983716,1.639528 -0.05465,-0.08198 2.404639,2.8965 -0.08198,-0.08198 2.841847,2.34999 1.557549,0.956389 1.66685,0.792438 1.72151,0.655812 1.8308,0.464532 1.88546,0.30058 1.9401,0.109302 1.96743,-0.109302 1.88546,-0.30058 1.80348,-0.437206 1.74883,-0.655812 1.66685,-0.792438 1.63953,-0.983715 -0.082,0.05465 2.89649,-2.40464 -0.082,0.08198 2.40464,-2.8965 -0.0547,0.08198 0.9564,-1.584878 0.79243,-1.666851 0.65581,-1.721504 0.46454,-1.830803 0.30058,-1.885458 0.1093,-1.940105 -0.1093,-1.967433 -0.30058,-1.885456 -0.43721,-1.803479 -0.65581,-1.748827 -0.79244,-1.666854 -0.92906,-1.530223 -2.40464,-2.923823 0.082,0.08198 -2.8965,-2.404639 0.082,0.05465 -1.58488,-0.95639 -1.66685,-0.792438 -1.7215,-0.655812 -1.83081,-0.464531 -1.88545,-0.30058 -1.94011,-0.109302 -1.96743,0.109302 -1.88546,0.30058 -1.80348,0.437208 -1.74882,0.655809 -1.66686,0.792438 -1.530221,0.929066 -2.923823,2.404639 0.08198,-0.08198 -2.349988,2.841845 -0.95639,1.557552 -0.792438,1.666851 -0.655811,1.721503 -0.464533,1.830806 -0.30058,1.885455 -0.109301,1.940108 z"
       id="path1009" />
    <text
       xml:space="preserve"
       style="font-style:normal;font-variant:normal;font-weight:700;font-size:6.99492px;line-height:125%;font-family:'微軟正黑體';text-align:start;letter-spacing:0px;word-spacing:0px;text-anchor:start;fill:#000000;fill-opacity:1;stroke:none;stroke-width:0.264583"
       x="36.915314"
       y="58.672436"
       id="text1015"><tspan
         sodipodi:role="line"
         x="36.915314"
         y="58.672436"
         id="tspan1013"
         style="stroke-width:0.264583"><tspan
           dx="0"
           dy="0"
           style="font-style:normal;font-variant:normal;font-weight:700;font-size:6.99492px;font-family:'微軟正黑體';fill:#000000;stroke-width:0.264583"
           id="tspan1011">理解</tspan></tspan></text>
    <text
       xml:space="preserve"
       style="font-style:normal;font-variant:normal;font-weight:700;font-size:6.99492px;line-height:125%;font-family:'微軟正黑體';text-align:start;letter-spacing:0px;word-spacing:0px;text-anchor:start;fill:#000000;fill-opacity:1;stroke:none;stroke-width:0.264583"
       x="32.543243"
       y="66.97937"
       id="text1021"><tspan
         sodipodi:role="line"
         x="32.543243"
         y="66.97937"
         id="tspan1019"
         style="stroke-width:0.264583"><tspan
           dx="0"
           dy="0"
           style="font-style:normal;font-variant:normal;font-weight:700;font-size:6.99492px;font-family:'微軟正黑體';fill:#000000;stroke-width:0.264583"
           id="tspan1017">BINAH</tspan></tspan></text>
    <text
       xml:space="preserve"
       style="font-style:normal;font-variant:normal;font-weight:700;font-size:6.99492px;line-height:125%;font-family:'微軟正黑體';text-align:start;letter-spacing:0px;word-spacing:0px;text-anchor:start;fill:#000000;fill-opacity:1;stroke:none;stroke-width:0.264583"
       x="41.724594"
       y="75.286308"
       id="text1027"><tspan
         sodipodi:role="line"
         x="41.724594"
         y="75.286308"
         id="tspan1025"
         style="stroke-width:0.264583"><tspan
           dx="0"
           dy="0"
           style="font-style:normal;font-variant:normal;font-weight:700;font-size:6.99492px;font-family:'微軟正黑體';fill:#000000;stroke-width:0.264583"
           id="tspan1023">3</tspan></tspan></text>
    <path
       style="fill:#ffffff;fill-opacity:1;fill-rule:evenodd;stroke:none;stroke-width:0.264583"
       d="m 27.661808,186.5151 c 0,-10.8482 8.826119,-19.67432 19.674319,-19.67432 0,0 0,0 0,0 v 0 c 10.87553,0 19.67432,8.82612 19.67432,19.67432 0,0 0,0 0,0 v 0 c 0,10.87553 -8.79879,19.67432 -19.67432,19.67432 0,0 0,0 0,0 v 0 c -10.8482,0 -19.674319,-8.79879 -19.674319,-19.67432 0,0 0,0 0,0 z"
       id="path1029" />
    <path
       style="fill:#000000;fill-opacity:1;fill-rule:nonzero;stroke:#000000;stroke-width:0.0273254px;stroke-linecap:butt;stroke-linejoin:round;stroke-miterlimit:4;stroke-dasharray:none;stroke-opacity:1"
       d="m 27.033323,186.56975 0.109301,-2.10406 0.30058,-1.99475 0.464533,-1.94011 0.710461,-1.88546 0.847089,-1.77615 1.011042,-1.66685 2.45929,-3.0058 c 0.02733,-0.0273 0.05465,-0.0547 0.08198,-0.082 l 2.923818,-2.40464 1.69418,-1.03836 1.77616,-0.84709 1.85813,-0.71046 1.96743,-0.49186 1.99476,-0.30058 2.07673,-0.13663 2.10406,0.1093 1.99476,0.32791 1.9401,0.46453 1.88546,0.71046 1.77615,0.84709 1.69418,1.01104 c 0.0273,0.0273 0.0546,0.0273 0.082,0.0547 l 2.8965,2.40464 c 0.0273,0.0273 0.0547,0.0547 0.082,0.082 l 2.40464,2.92382 1.03837,1.69418 0.84708,1.77616 0.71046,1.85812 0.49186,1.96744 0.30058,1.99475 0.1093,2.07674 -0.1093,2.10406 -0.30058,1.99475 -0.46453,1.94011 -0.71046,1.88546 -0.84709,1.77615 -1.01104,1.69418 c -0.0273,0.0273 -0.0273,0.0546 -0.0546,0.082 l -2.40464,2.8965 c -0.0273,0.0273 -0.0546,0.0547 -0.082,0.082 l -2.8965,2.40464 c -0.0273,0.0273 -0.0546,0.0273 -0.082,0.0547 l -1.63953,0.98371 -1.77615,0.84709 -1.85813,0.71047 -1.96743,0.49185 -1.99476,0.30058 -2.07674,0.10931 -2.10406,-0.10931 -1.99475,-0.30058 -1.94011,-0.46453 -1.88545,-0.71046 -1.77616,-0.84709 -1.66685,-1.01104 -3.005799,-2.45929 c -0.02732,-0.0273 -0.05465,-0.0546 -0.08198,-0.082 l -2.404639,-2.8965 c -0.02733,-0.0273 -0.02733,-0.0547 -0.05465,-0.082 l -0.983716,-1.63953 -0.847089,-1.77615 -0.710461,-1.85813 -0.491859,-1.96744 -0.30058,-1.99485 z m 1.393598,1.88546 0.300579,1.88545 0.437207,1.80348 0.655811,1.74883 0.792438,1.66685 0.983716,1.63953 -0.05465,-0.082 2.404639,2.89649 -0.08198,-0.082 2.841846,2.34998 1.55755,0.9564 1.66685,0.79243 1.72151,0.65581 1.8308,0.46454 1.88546,0.27325 1.9401,0.1093 1.96744,-0.082 1.88545,-0.30058 1.80348,-0.43721 1.74883,-0.65581 1.66685,-0.79244 1.63953,-0.98372 -0.082,0.0547 2.89649,-2.40464 -0.082,0.082 2.40464,-2.89649 -0.0547,0.082 0.95639,-1.58487 0.79244,-1.66686 0.65581,-1.7215 0.46453,-1.8308 0.30058,-1.88546 0.10931,-1.94011 -0.10931,-1.96743 -0.30058,-1.88545 -0.4372,-1.80348 -0.65581,-1.74883 -0.79244,-1.66686 -0.92907,-1.53022 -2.40464,-2.92382 0.082,0.082 -2.89649,-2.40463 0.082,0.0547 -1.58488,-0.95639 -1.66685,-0.79244 -1.7215,-0.65581 -1.83081,-0.46454 -1.88545,-0.30058 -1.94011,-0.1093 -1.96743,0.1093 -1.88546,0.30058 -1.80348,0.43721 -1.74883,0.65581 -1.66685,0.79244 -1.53022,0.92907 -2.923826,2.40463 0.08198,-0.082 -2.349988,2.84185 -0.95639,1.55755 -0.792438,1.66685 -0.655811,1.7215 -0.464533,1.83081 -0.300579,1.88545 -0.109302,1.94011 z"
       id="path1031" />
    <text
       xml:space="preserve"
       style="font-style:normal;font-variant:normal;font-weight:700;font-size:6.99492px;line-height:125%;font-family:'微軟正黑體';text-align:start;letter-spacing:0px;word-spacing:0px;text-anchor:start;fill:#000000;fill-opacity:1;stroke:none;stroke-width:0.264583"
       x="39.904594"
       y="183.27733"
       id="text1037"><tspan
         sodipodi:role="line"
         x="39.904594"
         y="183.27733"
         id="tspan1035"
         style="stroke-width:0.264583"><tspan
           dx="0"
           dy="0"
           style="font-style:normal;font-variant:normal;font-weight:700;font-size:6.99492px;font-family:'微軟正黑體';fill:#000000;stroke-width:0.264583"
           id="tspan1033">勝利</tspan></tspan></text>
    <text
       xml:space="preserve"
       style="font-style:normal;font-variant:normal;font-weight:700;font-size:6.99492px;line-height:125%;font-family:'微軟正黑體';text-align:start;letter-spacing:0px;word-spacing:0px;text-anchor:start;fill:#000000;fill-opacity:1;stroke:none;stroke-width:0.264583"
       x="38.592972"
       y="191.58427"
       id="text1043"><tspan
         sodipodi:role="line"
         x="38.592972"
         y="191.58427"
         id="tspan1041"
         style="stroke-width:0.264583"><tspan
           dx="0"
           dy="0"
           style="font-style:normal;font-variant:normal;font-weight:700;font-size:6.99492px;font-family:'微軟正黑體';fill:#000000;stroke-width:0.264583"
           id="tspan1039">HOD</tspan></tspan></text>
    <text
       xml:space="preserve"
       style="font-style:normal;font-variant:normal;font-weight:700;font-size:6.99492px;line-height:125%;font-family:'微軟正黑體';text-align:start;letter-spacing:0px;word-spacing:0px;text-anchor:start;fill:#000000;fill-opacity:1;stroke:none;stroke-width:0.264583"
       x="44.713867"
       y="199.8912"
       id="text1049"><tspan
         sodipodi:role="line"
         x="44.713867"
         y="199.8912"
         id="tspan1047"
         style="stroke-width:0.264583"><tspan
           dx="0"
           dy="0"
           style="font-style:normal;font-variant:normal;font-weight:700;font-size:6.99492px;font-family:'微軟正黑體';fill:#000000;stroke-width:0.264583"
           id="tspan1045">8</tspan></tspan></text>
    <path
       style="fill:#000000;fill-opacity:1;fill-rule:nonzero;stroke:#000000;stroke-width:0.0273254px;stroke-linecap:butt;stroke-linejoin:round;stroke-miterlimit:4;stroke-dasharray:none;stroke-opacity:1"
       d="m 107.45211,35.022836 v 98.371604 h -1.74883 V 35.022836 Z"
       id="path1051" />
    <path
       style="fill:#ffffff;fill-opacity:1;fill-rule:evenodd;stroke:none;stroke-width:0.264583"
       d="m 86.684767,28.683332 c 0,-10.8482 8.82612,-19.6743184 19.674323,-19.6743184 0,0 0,0 0,0 v 0 c 10.87553,0 19.67432,8.8261184 19.67432,19.6743184 0,0 0,0 0,0 v 0 c 0,10.875529 -8.79879,19.674322 -19.67432,19.674322 0,0 0,0 0,0 v 0 c -10.848203,0 -19.674323,-8.798793 -19.674323,-19.674322 0,0 0,0 0,0 z"
       id="path1053" />
    <path
       style="fill:#000000;fill-opacity:1;fill-rule:nonzero;stroke:#000000;stroke-width:0.0273254px;stroke-linecap:butt;stroke-linejoin:round;stroke-miterlimit:4;stroke-dasharray:none;stroke-opacity:1"
       d="m 86.056287,28.737985 0.1093,-2.10406 0.30058,-1.994757 0.46453,-1.940107 0.71046,-1.885456 0.84709,-1.776153 1.01104,-1.666853 2.45929,-3.005798 c 0.0273,-0.02733 0.0547,-0.05465 0.082,-0.08198 l 2.92383,-2.404639 1.69417,-1.038367 1.776161,-0.8470893 1.858132,-0.7104616 1.96743,-0.491858 1.99476,-0.3005799 2.07673,-0.1093018 2.10406,0.1093018 1.99476,0.3005799 1.9401,0.4645327 1.88546,0.7104615 1.77615,0.8470887 1.69418,1.011042 c 0.0273,0.02732 0.0546,0.02732 0.082,0.05465 l 2.89649,2.404639 c 0.0273,0.02732 0.0547,0.05465 0.082,0.08198 l 2.40464,2.923822 1.03837,1.694178 0.84708,1.776154 0.71046,1.85813 0.49186,1.967432 0.30058,1.994757 0.1093,2.076735 -0.1093,2.104059 -0.30058,1.994757 -0.46453,1.940105 -0.71046,1.885458 -0.84709,1.776153 -1.01104,1.694178 c -0.0273,0.02733 -0.0273,0.05465 -0.0547,0.08198 l -2.40464,2.896496 c -0.0273,0.02733 -0.0546,0.05465 -0.082,0.08198 l -2.89649,2.404639 c -0.0273,0.02732 -0.0547,0.02732 -0.082,0.05465 l -1.63952,0.983715 -1.77616,0.84709 -1.85813,0.710462 -1.96743,0.491858 -1.99476,0.30058 -2.07673,0.109302 -2.10406,-0.109302 -1.99476,-0.30058 -1.94011,-0.464534 -1.885452,-0.710462 -1.776161,-0.847087 -1.66685,-1.011042 -3.0058,-2.459289 c -0.0273,-0.02733 -0.0546,-0.05465 -0.082,-0.08198 l -2.40464,-2.896496 c -0.0273,-0.02732 -0.0273,-0.05465 -0.0547,-0.08198 l -0.98371,-1.639528 -0.84709,-1.776153 -0.71046,-1.858129 -0.49186,-1.967434 -0.30058,-1.994757 z m 1.3936,1.885455 0.30058,1.885455 0.4372,1.803479 0.65581,1.74883 0.79244,1.666851 0.98372,1.639528 -0.0547,-0.08198 2.40464,2.896497 -0.082,-0.08198 2.84184,2.349987 1.557551,0.956392 1.66686,0.792438 1.721502,0.655809 1.8308,0.464534 1.88546,0.30058 1.9401,0.1093 1.96744,-0.1093 1.88545,-0.30058 1.80348,-0.437208 1.74883,-0.655812 1.66685,-0.792437 1.63953,-0.983716 -0.082,0.05465 2.89649,-2.404639 -0.082,0.08198 2.40464,-2.896497 -0.0546,0.08198 0.95639,-1.584875 0.79243,-1.666854 0.65582,-1.721504 0.46453,-1.830803 0.30058,-1.885455 0.1093,-1.940107 -0.1093,-1.967432 -0.30058,-1.885456 -0.43721,-1.80348 -0.65581,-1.748828 -0.79244,-1.666852 -0.92906,-1.530225 -2.40464,-2.923822 0.082,0.08198 -2.89649,-2.404639 0.082,0.05465 -1.58488,-0.95639 -1.6669,-0.79244 -1.7215,-0.65581 -1.8308,-0.464533 -1.88546,-0.3005798 -1.94011,-0.1093018 -1.96743,0.1093018 -1.88545,0.3005798 -1.80348,0.437207 -1.748832,0.655811 -1.66685,0.792438 -1.530231,0.929065 -2.92382,2.404639 0.082,-0.08198 -2.34999,2.841846 -0.95639,1.55755 -0.79244,1.666852 -0.65581,1.721503 -0.46453,1.830805 -0.30058,1.885455 -0.1093,1.940108 z"
       id="path1055" />
    <text
       xml:space="preserve"
       style="font-style:normal;font-variant:normal;font-weight:700;font-size:6.99492px;line-height:125%;font-family:'微軟正黑體';text-align:start;letter-spacing:0px;word-spacing:0px;text-anchor:start;fill:#000000;fill-opacity:1;stroke:none;stroke-width:0.264583"
       x="99.218178"
       y="24.374468"
       id="text1061"><tspan
         sodipodi:role="line"
         x="99.218178"
         y="24.374468"
         id="tspan1059"
         style="stroke-width:0.264583"><tspan
           dx="0"
           dy="0"
           style="font-style:normal;font-variant:normal;font-weight:700;font-size:6.99492px;font-family:'微軟正黑體';fill:#000000;stroke-width:0.264583"
           id="tspan1057">皇冠</tspan></tspan></text>
    <text
       xml:space="preserve"
       style="font-style:normal;font-variant:normal;font-weight:700;font-size:6.99492px;line-height:125%;font-family:'微軟正黑體';text-align:start;letter-spacing:0px;word-spacing:0px;text-anchor:start;fill:#000000;fill-opacity:1;stroke:none;stroke-width:0.264583"
       x="92.66008"
       y="32.681404"
       id="text1067"><tspan
         sodipodi:role="line"
         x="92.66008"
         y="32.681404"
         id="tspan1065"
         style="stroke-width:0.264583"><tspan
           dx="0"
           dy="0"
           style="font-style:normal;font-variant:normal;font-weight:700;font-size:6.99492px;font-family:'微軟正黑體';fill:#000000;stroke-width:0.264583"
           id="tspan1063">KETHER</tspan></tspan></text>
    <text
       xml:space="preserve"
       style="font-style:normal;font-variant:normal;font-weight:700;font-size:6.99492px;line-height:125%;font-family:'微軟正黑體';text-align:start;letter-spacing:0px;word-spacing:0px;text-anchor:start;fill:#000000;fill-opacity:1;stroke:none;stroke-width:0.264583"
       x="104.02746"
       y="40.988338"
       id="text1073"><tspan
         sodipodi:role="line"
         x="104.02746"
         y="40.988338"
         id="tspan1071"
         style="stroke-width:0.264583"><tspan
           dx="0"
           dy="0"
           style="font-style:normal;font-variant:normal;font-weight:700;font-size:6.99492px;font-family:'微軟正黑體';fill:#000000;stroke-width:0.264583"
           id="tspan1069">1</tspan></tspan></text>
  </g>
</svg>
