<?xml version="1.0" encoding="UTF-8" standalone="no"?>
<!-- Created with Inkscape (http://www.inkscape.org/) -->

<svg
   width="330.59052"
   height="189.86346"
   viewBox="0 0 87.468739 50.234711"
   version="1.1"
   id="svg5"
   inkscape:version="1.1 (c68e22c387, 2021-05-23)"
   sodipodi:docname="Entropy18.svg"
   xmlns:inkscape="http://www.inkscape.org/namespaces/inkscape"
   xmlns:sodipodi="http://sodipodi.sourceforge.net/DTD/sodipodi-0.dtd"
   xmlns="http://www.w3.org/2000/svg"
   xmlns:svg="http://www.w3.org/2000/svg">
  <sodipodi:namedview
     id="namedview7"
     pagecolor="#ffffff"
     bordercolor="#666666"
     borderopacity="1.0"
     inkscape:pageshadow="2"
     inkscape:pageopacity="0.0"
     inkscape:pagecheckerboard="0"
     inkscape:document-units="px"
     showgrid="false"
     inkscape:zoom="0.26191077"
     inkscape:cx="-374.17323"
     inkscape:cy="-582.25936"
     inkscape:window-width="1288"
     inkscape:window-height="745"
     inkscape:window-x="-8"
     inkscape:window-y="-8"
     inkscape:window-maximized="1"
     inkscape:current-layer="layer1"
     units="px"
     fit-margin-top="0"
     fit-margin-left="0"
     fit-margin-right="0"
     fit-margin-bottom="0" />
  <defs
     id="defs2">
    <pattern
       id="EMFhbasepattern"
       patternUnits="userSpaceOnUse"
       width="6"
       height="6"
       x="0"
       y="0" />
    <pattern
       id="EMFhbasepattern-3"
       patternUnits="userSpaceOnUse"
       width="6"
       height="6"
       x="0"
       y="0" />
    <pattern
       id="EMFhbasepattern-2"
       patternUnits="userSpaceOnUse"
       width="6"
       height="6"
       x="0"
       y="0" />
    <pattern
       id="EMFhbasepattern-27"
       patternUnits="userSpaceOnUse"
       width="6"
       height="6"
       x="0"
       y="0" />
    <pattern
       id="EMFhbasepattern-9"
       patternUnits="userSpaceOnUse"
       width="6"
       height="6"
       x="0"
       y="0" />
    <pattern
       id="EMFhbasepattern-4"
       patternUnits="userSpaceOnUse"
       width="6"
       height="6"
       x="0"
       y="0" />
    <pattern
       id="EMFhbasepattern-0"
       patternUnits="userSpaceOnUse"
       width="6"
       height="6"
       x="0"
       y="0" />
    <pattern
       id="EMFhbasepattern-22"
       patternUnits="userSpaceOnUse"
       width="6"
       height="6"
       x="0"
       y="0" />
  </defs>
  <g
     inkscape:label="圖層 1"
     inkscape:groupmode="layer"
     id="layer1"
     transform="translate(-511.36233,-305.26662)">
    <path
       style="fill:#ffffff;fill-opacity:1;fill-rule:evenodd;stroke:none;stroke-width:0.264583"
       d="m 512.2504,306.15469 v 35.85098 h 85.6926 v -35.85098 z"
       id="path3759" />
    <path
       style="fill:#0070c0;fill-opacity:1;fill-rule:nonzero;stroke:#0070c0;stroke-width:0.0273254px;stroke-linecap:butt;stroke-linejoin:round;stroke-miterlimit:4;stroke-dasharray:none;stroke-opacity:1"
       d="m 511.37599,306.15469 c 0,-0.46453 0.40988,-0.87441 0.87441,-0.87441 h 85.6926 c 0.49186,0 0.87441,0.40988 0.87441,0.87441 v 35.85098 c 0,0.49186 -0.38255,0.87442 -0.87441,0.87442 h -85.6926 c -0.46453,0 -0.87441,-0.38256 -0.87441,-0.87442 z m 1.74882,35.85098 -0.87441,-0.87441 h 85.6926 l -0.87442,0.87441 v -35.85098 l 0.87442,0.87441 h -85.6926 l 0.87441,-0.87441 z"
       id="path3761" />
    <path
       style="fill:#ff0000;fill-opacity:1;fill-rule:nonzero;stroke:#ff0000;stroke-width:0.0273254px;stroke-linecap:butt;stroke-linejoin:round;stroke-miterlimit:4;stroke-dasharray:none;stroke-opacity:1"
       d="m 555.53391,306.15469 0.0273,2.62324 h -0.87441 l -0.0273,-2.62324 z m 0.0273,3.49766 v 2.62324 h -0.87441 v -2.62324 z m 0,3.49765 v 2.62325 H 554.6868 V 313.15 Z m 0,3.49766 v 2.62324 h -0.87441 v -2.62324 z m 0,3.49766 0.0273,2.62324 h -0.87442 l -0.0273,-2.62324 z m 0.0273,3.49765 v 2.62325 h -0.87442 v -2.62325 z m 0,3.49766 v 2.62324 h -0.87442 v -2.62324 z m 0,3.49766 v 2.62324 h -0.87442 v -2.62324 z m 0.0273,3.49766 v 2.62324 h -0.87441 v -2.62324 z m 0,3.49765 v 2.62325 h -0.87441 v -2.62325 z m 0,3.49766 v 1.09302 l -0.87441,0.0273 v -1.12035 z"
       id="path3763" />
    <path
       style="fill:#9cb084;fill-opacity:1;fill-rule:evenodd;stroke:none;stroke-width:0.264583"
       d="m 565.15246,315.99185 c 0,-1.80348 1.47558,-3.27905 3.27906,-3.27905 0,0 0,0 0,0 v 0 c 1.8308,0 3.27905,1.47557 3.27905,3.27905 0,0 0,0 0,0 v 0 c 0,1.83081 -1.44825,3.27905 -3.27905,3.27905 0,0 0,0 0,0 v 0 c -1.80348,0 -3.27906,-1.44824 -3.27906,-3.27905 0,0 0,0 0,0 z"
       id="path3765" />
    <path
       style="fill:#9cb084;fill-opacity:1;fill-rule:evenodd;stroke:none;stroke-width:0.264583"
       d="m 528.86427,315.99185 c 0,-1.80348 1.47557,-3.27905 3.27905,-3.27905 0,0 0,0 0,0 v 0 c 1.83081,0 3.27906,1.47557 3.27906,3.27905 0,0 0,0 0,0 v 0 c 0,1.83081 -1.44825,3.27905 -3.27906,3.27905 0,0 0,0 0,0 v 0 c -1.80348,0 -3.27905,-1.44824 -3.27905,-3.27905 0,0 0,0 0,0 z"
       id="path3767" />
    <path
       style="fill:#9cb084;fill-opacity:1;fill-rule:evenodd;stroke:none;stroke-width:0.264583"
       d="m 545.04094,312.49419 c 0,-1.80348 1.47557,-3.27905 3.27905,-3.27905 0,0 0,0 0,0 v 0 c 1.8308,0 3.27905,1.47557 3.27905,3.27905 0,0 0,0 0,0 v 0 c 0,1.83081 -1.44825,3.27906 -3.27905,3.27906 0,0 0,0 0,0 v 0 c -1.80348,0 -3.27905,-1.44825 -3.27905,-3.27906 0,0 0,0 0,0 z"
       id="path3769" />
    <path
       style="fill:#9cb084;fill-opacity:1;fill-rule:evenodd;stroke:none;stroke-width:0.264583"
       d="m 571.71057,312.49419 c 0,-1.80348 1.47557,-3.27905 3.27905,-3.27905 0,0 0,0 0,0 v 0 c 1.83081,0 3.27906,1.47557 3.27906,3.27905 0,0 0,0 0,0 v 0 c 0,1.83081 -1.44825,3.27906 -3.27906,3.27906 0,0 0,0 0,0 v 0 c -1.80348,0 -3.27905,-1.44825 -3.27905,-3.27906 0,0 0,0 0,0 z"
       id="path3771" />
    <path
       style="fill:#9cb084;fill-opacity:1;fill-rule:evenodd;stroke:none;stroke-width:0.264583"
       d="m 565.15246,329.10807 c 0,-1.80348 1.47558,-3.27906 3.27906,-3.27906 0,0 0,0 0,0 v 0 c 1.8308,0 3.27905,1.47558 3.27905,3.27906 0,0 0,0 0,0 v 0 c 0,1.8308 -1.44825,3.27905 -3.27905,3.27905 0,0 0,0 0,0 v 0 c -1.80348,0 -3.27906,-1.44825 -3.27906,-3.27905 0,0 0,0 0,0 z"
       id="path3773" />
    <path
       style="fill:#9cb084;fill-opacity:1;fill-rule:evenodd;stroke:none;stroke-width:0.264583"
       d="m 518.80851,325.61041 c 0,-1.80348 1.47557,-3.27906 3.27905,-3.27906 0,0 0,0 0,0 v 0 c 1.83081,0 3.27905,1.47558 3.27905,3.27906 0,0 0,0 0,0 v 0 c 0,1.8308 -1.44824,3.27905 -3.27905,3.27905 0,0 0,0 0,0 v 0 c -1.80348,0 -3.27905,-1.44825 -3.27905,-3.27905 0,0 0,0 0,0 z"
       id="path3775" />
    <path
       style="fill:#9cb084;fill-opacity:1;fill-rule:evenodd;stroke:none;stroke-width:0.264583"
       d="m 581.32913,319.0523 c 0,-1.80348 1.47557,-3.27905 3.27905,-3.27905 0,0 0,0 0,0 v 0 c 1.8308,0 3.27905,1.47557 3.27905,3.27905 0,0 0,0 0,0 v 0 c 0,1.83081 -1.44825,3.27905 -3.27905,3.27905 0,0 0,0 0,0 v 0 c -1.80348,0 -3.27905,-1.44824 -3.27905,-3.27905 0,0 0,0 0,0 z"
       id="path3777" />
    <path
       style="fill:#9cb084;fill-opacity:1;fill-rule:evenodd;stroke:none;stroke-width:0.264583"
       d="m 548.53859,332.16851 c 0,-1.80348 1.47558,-3.27905 3.27906,-3.27905 0,0 0,0 0,0 v 0 c 1.8308,0 3.27905,1.47557 3.27905,3.27905 0,0 0,0 0,0 v 0 c 0,1.83081 -1.44825,3.27906 -3.27905,3.27906 0,0 0,0 0,0 v 0 c -1.80348,0 -3.27906,-1.44825 -3.27906,-3.27906 0,0 0,0 0,0 z"
       id="path3779" />
    <path
       style="fill:#9cb084;fill-opacity:1;fill-rule:evenodd;stroke:none;stroke-width:0.264583"
       d="m 528.86427,335.66617 c 0,-1.80348 1.47557,-3.27905 3.27905,-3.27905 0,0 0,0 0,0 v 0 c 1.83081,0 3.27906,1.47557 3.27906,3.27905 0,0 0,0 0,0 v 0 c 0,1.83081 -1.44825,3.27906 -3.27906,3.27906 0,0 0,0 0,0 v 0 c -1.80348,0 -3.27905,-1.44825 -3.27905,-3.27906 0,0 0,0 0,0 z"
       id="path3781" />
    <path
       style="fill:#9cb084;fill-opacity:1;fill-rule:evenodd;stroke:none;stroke-width:0.264583"
       d="m 541.98048,319.0523 c 0,-1.80348 1.47558,-3.27905 3.27906,-3.27905 0,0 0,0 0,0 v 0 c 1.8308,0 3.27905,1.47557 3.27905,3.27905 0,0 0,0 0,0 v 0 c 0,1.83081 -1.44825,3.27905 -3.27905,3.27905 0,0 0,0 0,0 v 0 c -1.80348,0 -3.27906,-1.44824 -3.27906,-3.27905 0,0 0,0 0,0 z"
       id="path3783" />
    <text
       xml:space="preserve"
       style="font-style:normal;font-variant:normal;font-weight:400;font-size:10.5007px;line-height:125%;font-family:'新細明體';text-align:start;letter-spacing:0px;word-spacing:0px;text-anchor:start;fill:#000000;fill-opacity:1;stroke:none;stroke-width:0.264583"
       x="516.88452"
       y="353.94263"
       id="text3789"><tspan
         sodipodi:role="line"
         x="516.88452"
         y="353.94263"
         id="tspan3787"
         style="stroke-width:0.264583"><tspan
           dx="0"
           dy="0"
           style="font-style:normal;font-variant:normal;font-weight:400;font-size:10.5007px;font-family:'新細明體';fill:#ffffff;stroke-width:0.264583"
           id="tspan3785">圖</tspan></tspan></text>
    <text
       xml:space="preserve"
       style="font-style:normal;font-variant:normal;font-weight:400;font-size:10.5007px;line-height:125%;font-family:'Book Antiqua';text-align:start;letter-spacing:0px;word-spacing:0px;text-anchor:start;fill:#000000;fill-opacity:1;stroke:none;stroke-width:0.264583"
       x="527.3775"
       y="353.94263"
       id="text3795"><tspan
         sodipodi:role="line"
         x="527.3775"
         y="353.94263"
         id="tspan3793"
         style="stroke-width:0.264583"><tspan
           dx="0"
           dy="0"
           style="font-style:normal;font-variant:normal;font-weight:400;font-size:10.5007px;font-family:'Book Antiqua';fill:#ffffff;stroke-width:0.264583"
           id="tspan3791">18</tspan></tspan></text>
  </g>
</svg>
