<?xml version="1.0" encoding="UTF-8" standalone="no"?>
<!-- Created with Inkscape (http://www.inkscape.org/) -->

<svg
   width="533.737"
   height="704.76776"
   viewBox="0 0 141.21791 186.46981"
   version="1.1"
   id="svg5"
   inkscape:version="1.1 (c68e22c387, 2021-05-23)"
   sodipodi:docname="WorldMap2.svg"
   xmlns:inkscape="http://www.inkscape.org/namespaces/inkscape"
   xmlns:sodipodi="http://sodipodi.sourceforge.net/DTD/sodipodi-0.dtd"
   xmlns="http://www.w3.org/2000/svg"
   xmlns:svg="http://www.w3.org/2000/svg">
  <sodipodi:namedview
     id="namedview7"
     pagecolor="#ffffff"
     bordercolor="#666666"
     borderopacity="1.0"
     inkscape:pageshadow="2"
     inkscape:pageopacity="0.0"
     inkscape:pagecheckerboard="0"
     inkscape:document-units="px"
     showgrid="false"
     inkscape:zoom="0.26191077"
     inkscape:cx="-131.72425"
     inkscape:cy="-20.999518"
     inkscape:window-width="1288"
     inkscape:window-height="745"
     inkscape:window-x="-8"
     inkscape:window-y="-8"
     inkscape:window-maximized="1"
     inkscape:current-layer="layer1"
     units="px"
     fit-margin-top="0"
     fit-margin-left="0"
     fit-margin-right="0"
     fit-margin-bottom="0" />
  <defs
     id="defs2">
    <pattern
       id="EMFhbasepattern"
       patternUnits="userSpaceOnUse"
       width="6"
       height="6"
       x="0"
       y="0" />
    <pattern
       id="EMFhbasepattern-3"
       patternUnits="userSpaceOnUse"
       width="6"
       height="6"
       x="0"
       y="0" />
    <pattern
       id="EMFhbasepattern-2"
       patternUnits="userSpaceOnUse"
       width="6"
       height="6"
       x="0"
       y="0" />
    <pattern
       id="EMFhbasepattern-27"
       patternUnits="userSpaceOnUse"
       width="6"
       height="6"
       x="0"
       y="0" />
    <pattern
       id="EMFhbasepattern-9"
       patternUnits="userSpaceOnUse"
       width="6"
       height="6"
       x="0"
       y="0" />
    <pattern
       id="EMFhbasepattern-4"
       patternUnits="userSpaceOnUse"
       width="6"
       height="6"
       x="0"
       y="0" />
    <pattern
       id="EMFhbasepattern-0"
       patternUnits="userSpaceOnUse"
       width="6"
       height="6"
       x="0"
       y="0" />
    <pattern
       id="EMFhbasepattern-22"
       patternUnits="userSpaceOnUse"
       width="6"
       height="6"
       x="0"
       y="0" />
    <pattern
       id="EMFhbasepattern-30"
       patternUnits="userSpaceOnUse"
       width="6"
       height="6"
       x="0"
       y="0" />
    <pattern
       id="EMFhbasepattern-1"
       patternUnits="userSpaceOnUse"
       width="6"
       height="6"
       x="0"
       y="0" />
    <pattern
       id="EMFhbasepattern-11"
       patternUnits="userSpaceOnUse"
       width="6"
       height="6"
       x="0"
       y="0" />
    <pattern
       id="EMFhbasepattern-48"
       patternUnits="userSpaceOnUse"
       width="6"
       height="6"
       x="0"
       y="0" />
    <pattern
       id="EMFhbasepattern-7"
       patternUnits="userSpaceOnUse"
       width="6"
       height="6"
       x="0"
       y="0" />
    <pattern
       id="EMFhbasepattern-41"
       patternUnits="userSpaceOnUse"
       width="6"
       height="6"
       x="0"
       y="0" />
    <pattern
       id="EMFhbasepattern-8"
       patternUnits="userSpaceOnUse"
       width="6"
       height="6"
       x="0"
       y="0" />
  </defs>
  <g
     inkscape:label="圖層 1"
     inkscape:groupmode="layer"
     id="layer1"
     transform="translate(-738.68084,-421.36087)">
    <text
       xml:space="preserve"
       style="font-style:normal;font-variant:normal;font-weight:700;font-size:10.5007px;line-height:125%;font-family:Arial;text-align:start;letter-spacing:0px;word-spacing:0px;text-anchor:start;fill:#000000;fill-opacity:1;stroke:none;stroke-width:0.264583"
       x="753.1524"
       y="607.20001"
       id="text2041"><tspan
         sodipodi:role="line"
         x="753.1524"
         y="607.20001"
         id="tspan2039"
         style="stroke-width:0.264583"><tspan
           dx="0"
           dy="0"
           style="font-style:normal;font-variant:normal;font-weight:700;font-size:10.5007px;font-family:Arial;fill:#ffffff;stroke-width:0.264583"
           id="tspan2037">圖</tspan></tspan></text>
    <text
       xml:space="preserve"
       style="font-style:normal;font-variant:normal;font-weight:700;font-size:10.5007px;line-height:125%;font-family:Arial;text-align:start;letter-spacing:0px;word-spacing:0px;text-anchor:start;fill:#000000;fill-opacity:1;stroke:none;stroke-width:0.264583"
       x="763.64539"
       y="607.20001"
       id="text2047"><tspan
         sodipodi:role="line"
         x="763.64539"
         y="607.20001"
         id="tspan2045"
         style="stroke-width:0.264583"><tspan
           dx="0"
           dy="0"
           style="font-style:normal;font-variant:normal;font-weight:700;font-size:10.5007px;font-family:Arial;fill:#ffffff;stroke-width:0.264583"
           id="tspan2043">4 </tspan></tspan></text>
    <text
       xml:space="preserve"
       style="font-style:normal;font-variant:normal;font-weight:700;font-size:10.5007px;line-height:125%;font-family:Arial;text-align:start;letter-spacing:0px;word-spacing:0px;text-anchor:start;fill:#000000;fill-opacity:1;stroke:none;stroke-width:0.264583"
       x="771.95233"
       y="607.20001"
       id="text2053"><tspan
         sodipodi:role="line"
         x="771.95233"
         y="607.20001"
         id="tspan2051"
         style="stroke-width:0.264583"><tspan
           dx="0"
           dy="0"
           style="font-style:normal;font-variant:normal;font-weight:700;font-size:10.5007px;font-family:Arial;fill:#ffffff;stroke-width:0.264583"
           id="tspan2049">三界交通圖</tspan></tspan></text>
    <path
       style="fill:#ffffff;fill-opacity:1;fill-rule:evenodd;stroke:none;stroke-width:0.264583"
       d="m 748.51801,508.16014 c 0,-47.54627 26.6423,-86.1298 59.46017,-86.1298 0,0 0,0 0,0 v 0 c 32.84518,0 59.46016,38.58353 59.46016,86.1298 v 0 c 0,47.57361 -26.61498,86.12981 -59.46016,86.12981 0,0 0,0 0,0 v 0 c -32.81787,0 -59.46017,-38.5562 -59.46017,-86.12981 z"
       id="path2055" />
    <path
       style="fill:#000000;fill-opacity:1;fill-rule:nonzero;stroke:#000000;stroke-width:0.0273254px;stroke-linecap:butt;stroke-linejoin:round;stroke-miterlimit:4;stroke-dasharray:none;stroke-opacity:1"
       d="m 747.8622,508.18747 0.30058,-8.82612 0.92906,-8.60751 1.47558,-8.30694 1.99475,-7.9517 2.54127,-7.56915 2.97847,-7.15927 3.44301,-6.69473 3.88021,-6.1209 4.23544,-5.62905 4.64533,-5.00055 2.43197,-2.26801 2.51394,-2.10406 2.59591,-1.94011 2.65057,-1.74883 2.73255,-1.55755 2.81452,-1.36627 2.84184,-1.20232 2.95115,-0.95639 2.95115,-0.79244 3.03312,-0.54651 3.06045,-0.3279 3.11511,-0.13663 3.08777,0.1093 3.08778,0.35523 3.00579,0.54651 2.97848,0.76511 2.92382,0.98372 2.86917,1.17499 2.7872,1.36628 2.73254,1.58487 2.6779,1.72151 2.59591,1.9401 2.51395,2.10406 2.45928,2.26801 4.59068,4.97324 4.2901,5.60171 3.85288,6.17555 3.44301,6.66741 3.0058,7.15927 2.51394,7.56915 2.02208,7.97903 1.47558,8.27961 0.90174,8.60751 0.30058,8.85344 -0.30058,8.82612 -0.90174,8.60752 -1.47558,8.30693 -1.99476,7.95171 -2.54126,7.59647 -2.97847,7.13194 -3.44301,6.66741 -3.85289,6.17555 -4.26277,5.60172 -4.618,5.02788 -2.45929,2.26801 -2.51394,2.10406 -2.59592,1.91278 -2.65057,1.74883 -2.75987,1.55755 -2.78719,1.36628 -2.84185,1.20232 -2.92382,0.95639 -3.0058,0.79243 -2.97847,0.54651 -3.08778,0.32791 -3.1151,0.1093 -3.08778,-0.1093 -3.06044,-0.32791 -3.03313,-0.54651 -2.97847,-0.76511 -2.92383,-0.98371 -2.86917,-1.175 -2.78719,-1.36627 -2.75987,-1.58488 -2.65057,-1.7215 -2.59592,-1.91278 -2.51394,-2.10406 -2.43196,-2.26801 -4.618,-5.00056 -4.26277,-5.60172 -3.88022,-6.17555 -3.443,-6.69473 -3.0058,-7.13194 -2.51394,-7.56915 -2.02208,-7.97903 -1.47558,-8.27961 -0.90174,-8.60751 z m 1.6122,8.71682 0.90174,8.49821 1.47557,8.22496 1.96743,7.86973 2.51394,7.45984 2.95115,7.04997 3.38836,6.61276 3.82556,6.06625 4.15347,5.49241 4.56335,4.94591 2.37731,2.21336 2.45929,2.04941 2.54127,1.85813 2.56859,1.7215 2.67789,1.53023 2.73255,1.31162 2.75987,1.17499 2.86917,0.92907 2.86917,0.76511 2.92382,0.54651 2.95115,0.30058 3.03313,0.1093 3.00579,-0.082 2.97848,-0.3279 2.89649,-0.54651 2.92383,-0.73779 2.81452,-0.95639 2.78719,-1.14767 2.70522,-1.31162 2.6779,-1.55755 2.59591,-1.69418 2.54127,-1.85813 2.45929,-2.04941 2.40464,-2.21336 4.5087,-4.91858 4.20812,-5.49241 3.79823,-6.09358 3.38836,-6.58543 2.97847,-7.02264 2.48662,-7.48717 1.99475,-7.89705 1.47558,-8.19764 0.87441,-8.49821 0.30058,-8.77147 -0.27325,-8.74414 -0.90174,-8.49822 -1.47558,-8.22495 -1.96743,-7.86973 -2.51394,-7.45985 -2.95114,-7.07729 -3.38836,-6.58543 -3.79824,-6.06625 -4.18079,-5.49242 -4.53603,-4.91858 -2.40463,-2.21336 -2.45929,-2.04941 -2.54127,-1.88545 -2.59592,-1.7215 -2.65056,-1.53023 -2.73255,-1.31162 -2.75987,-1.17499 -2.84185,-0.92907 -2.89649,-0.76511 -2.8965,-0.54651 -2.97848,-0.32791 -3.03312,-0.1093 -3.0058,0.1093 -2.95115,0.32791 -2.92382,0.54651 -2.8965,0.73778 -2.84184,0.9564 -2.7872,1.14766 -2.73254,1.31163 -2.65057,1.55755 -2.59592,1.69417 -2.54127,1.88546 -2.45928,2.04941 -2.37732,2.21336 -4.53602,4.89125 -4.1808,5.51974 -3.82556,6.03893 -3.38835,6.61275 -2.97848,7.04997 -2.48661,7.45985 -1.99476,7.89705 -1.47557,8.19763 -0.90174,8.49822 -0.30058,8.77146 z"
       id="path2057" />
    <path
       style="fill:#c9c2d1;fill-opacity:1;fill-rule:evenodd;stroke:none;stroke-width:0.264583"
       d="m 788.95967,576.80166 c 0,-9.53658 7.7331,-17.26968 17.26968,-17.26968 0,0 0,0 0,0 v 0 c 9.5639,0 17.26968,7.7331 17.26968,17.26968 0,0 0,0 0,0 v 0 c 0,9.56391 -7.70578,17.26969 -17.26968,17.26969 0,0 0,0 0,0 v 0 c -9.53658,0 -17.26968,-7.70578 -17.26968,-17.26969 0,0 0,0 0,0 z"
       id="path2059" />
    <path
       style="fill:#c9c2d1;fill-opacity:1;fill-rule:evenodd;stroke:none;stroke-width:0.264583"
       d="m 792.02011,438.86282 c 0,-9.39996 7.73311,-17.05108 17.26969,-17.05108 0,0 0,0 0,0 v 0 c 9.5639,0 17.26968,7.65112 17.26968,17.05108 0,0 0,0 0,0 v 0 c 0,9.42727 -7.70578,17.05107 -17.26968,17.05107 0,0 0,0 0,0 v 0 c -9.53658,0 -17.26969,-7.6238 -17.26969,-17.05107 0,0 0,0 0,0 z"
       id="path2061" />
    <path
       style="fill:#c9c2d1;fill-opacity:1;fill-rule:evenodd;stroke:none;stroke-width:0.264583"
       d="m 776.28066,495.04393 c 0,-9.53658 7.7331,-17.26968 17.26968,-17.26968 0,0 0,0 0,0 v 0 c 9.5639,0 17.26968,7.7331 17.26968,17.26968 0,0 0,0 0,0 v 0 c 0,9.56391 -7.70578,17.26968 -17.26968,17.26968 0,0 0,0 0,0 v 0 c -9.53658,0 -17.26968,-7.70577 -17.26968,-17.26968 0,0 0,0 0,0 z"
       id="path2063" />
    <path
       style="fill:#c9c2d1;fill-opacity:1;fill-rule:evenodd;stroke:none;stroke-width:0.264583"
       d="m 845.35939,504.66249 c 0,-9.53658 7.7331,-17.26968 17.26967,-17.26968 0,0 0,0 0,0 v 0 c 9.56391,0 17.26969,7.7331 17.26969,17.26968 0,0 0,0 0,0 v 0 c 0,9.5639 -7.70578,17.26968 -17.26969,17.26968 0,0 0,0 0,0 v 0 c -9.53657,0 -17.26967,-7.70578 -17.26967,-17.26968 0,0 0,0 0,0 z"
       id="path2065" />
    <path
       style="fill:#000000;fill-opacity:1;fill-rule:nonzero;stroke:#000000;stroke-width:0.0273254px;stroke-linecap:butt;stroke-linejoin:round;stroke-miterlimit:4;stroke-dasharray:none;stroke-opacity:1"
       d="m 750.94997,510.89269 0.30058,-1.44825 c 0.0273,-0.082 0.0273,-0.16395 0.082,-0.2186 l 0.84709,-1.42093 c 0.0273,-0.0547 0.0547,-0.082 0.1093,-0.13662 l 0.57383,-0.54651 0.90174,0.92906 -0.57383,0.57384 0.1093,-0.13663 -0.84709,1.42092 0.082,-0.2186 -0.30058,1.44825 z m 2.95115,-4.75463 1.74883,-1.17499 1.66685,-0.90174 0.60116,1.17499 -1.53022,0.79244 -1.74883,1.20232 z m 4.64532,-2.67789 2.43197,-1.01104 1.28429,-0.40989 0.40989,1.22965 -1.175,0.40988 -2.45929,1.01104 z m 4.94591,-1.85813 0.79244,-0.24593 3.03312,-0.84709 0.35523,1.25697 -2.97847,0.81976 -0.76511,0.27326 z m 5.10986,-1.42092 3.36103,-0.76512 0.51918,-0.082 0.24593,1.28429 -0.46453,0.082 -3.36103,0.76511 z m 5.16451,-1.09302 2.56859,-0.49186 1.33895,-0.2186 0.19127,1.31162 -1.28429,0.19128 -2.56859,0.49185 z m 5.19183,-0.90174 2.07674,-0.30058 1.8308,-0.24593 0.16395,1.31162 -1.80348,0.2186 -2.07673,0.32791 z m 5.21916,-0.68314 1.80348,-0.2186 2.13139,-0.21861 0.1093,1.31163 -2.10406,0.19127 -1.77615,0.21861 z m 5.24649,-0.54651 1.74882,-0.16395 2.18604,-0.13663 0.082,1.31162 -2.13139,0.10931 -1.77615,0.16395 z m 5.24648,-0.38255 1.91278,-0.10931 2.02209,-0.082 0.0547,1.31162 -1.99476,0.0547 -1.91278,0.13663 z m 5.24649,-0.24593 2.29534,-0.10931 h 1.66685 l 0.0273,1.31163 h -1.66685 l -2.26801,0.1093 z m 5.27381,-0.13663 2.7872,-0.0547 0.0273,1.31162 -2.7872,0.0546 z m 2.81452,-0.0547 1.12034,0.0273 v 1.31163 l -1.14766,-0.0273 z m 2.43196,0.0547 3.33371,0.0273 0.62849,0.0273 -0.0547,1.31162 -0.60116,-0.0273 -3.30638,-0.0273 z m 5.27382,0.1093 3.66161,0.13663 0.27325,0.0273 -0.0547,1.31163 -0.24593,-0.0273 -3.68894,-0.13663 z m 5.24648,0.24593 3.85289,0.24593 h 0.1093 l -0.13663,1.31162 -0.0546,-0.0273 -3.85288,-0.21861 z m 5.27381,0.35523 3.77091,0.38256 h 0.16396 l -0.16396,1.31162 -0.13662,-0.0273 -3.77091,-0.35523 z m 5.21916,0.54651 3.49766,0.43721 0.43721,0.0547 -0.19128,1.28429 -0.38256,-0.0546 -3.52498,-0.40988 z m 5.21916,0.68314 2.95115,0.46453 0.95639,0.16395 -0.24593,1.31162 -0.90174,-0.19127 -2.95115,-0.43721 z m 5.19184,0.87441 2.13138,0.40988 1.74883,0.38256 -0.27325,1.28429 -1.72151,-0.38255 -2.10406,-0.40988 z m 5.16451,1.09302 1.01104,0.2186 2.84185,0.79244 -0.35524,1.25697 -2.78719,-0.76511 -0.98372,-0.21861 z m 5.13718,1.3936 2.81452,0.95639 0.92907,0.38255 -0.51919,1.20232 -0.81976,-0.35523 -2.84185,-0.95639 z m 4.9459,1.8308 0.73779,0.30058 2.43197,1.2843 0.4372,0.30058 -0.73778,1.09302 -0.32791,-0.21861 -2.32266,-1.22964 -0.71046,-0.30058 z m 4.69998,2.62324 0.40988,0.30058 c 0.0273,0 0.0547,0.0273 0.082,0.0547 l 1.3936,1.36627 c 0.0546,0.0547 0.082,0.082 0.1093,0.13662 l 0.76511,1.2843 -1.14767,0.65581 -0.73778,-1.25697 0.1093,0.13663 -1.3936,-1.36628 0.082,0.0547 -0.40988,-0.27326 z m 3.14243,4.59068 0.082,0.35523 -1.28429,0.24593 -0.082,-0.32791 z m 0.082,0.60116 -0.30058,1.44825 c -0.0273,0.082 -0.0546,0.13663 -0.082,0.2186 l -0.84709,1.42092 c -0.0273,0.0547 -0.0547,0.082 -0.1093,0.13663 l -0.32791,0.30058 -0.90174,-0.92906 0.32791,-0.32791 -0.1093,0.13663 0.84708,-1.42092 -0.082,0.2186 0.30058,-1.44825 z m -2.59591,4.45405 -0.13663,0.13662 c -0.0273,0.0273 -0.0547,0.0273 -0.082,0.0546 l -1.88545,1.31163 -1.36627,0.71046 -0.60116,-1.14767 1.22964,-0.62849 1.88546,-1.31162 -0.082,0.0546 0.1093,-0.1093 z m -4.67265,2.84184 -2.73255,1.14767 -0.98371,0.32791 -0.40989,-1.25697 0.87442,-0.30058 2.73254,-1.12035 z m -4.94591,1.88546 -1.09302,0.35523 -2.70522,0.76511 -0.35523,-1.25697 2.65057,-0.73779 1.09302,-0.38255 z m -5.10986,1.47557 -3.68893,0.84709 -0.16395,0.0273 -0.24593,-1.2843 0.1093,-0.0273 3.68893,-0.84709 z m -5.16451,1.12035 -2.89649,0.51918 -0.98372,0.16395 -0.19128,-1.31162 0.92907,-0.13663 2.92382,-0.54651 z m -5.16451,0.87441 -2.40464,0.35523 -1.53022,0.19128 -0.16395,-1.31162 1.5029,-0.16395 2.37731,-0.38256 z m -5.21916,0.71046 -2.15871,0.24593 -1.77615,0.19128 -0.13663,-1.31162 1.77616,-0.16395 2.13138,-0.27326 z m -5.24648,0.54651 -2.07673,0.19128 -1.85814,0.1093 -0.082,-1.28429 1.80348,-0.10931 2.07673,-0.2186 z m -5.24649,0.38256 -2.26801,0.13662 -1.69418,0.082 -0.0273,-1.31162 1.63953,-0.0547 2.26801,-0.16395 z m -5.27381,0.27325 -2.62324,0.082 -1.31162,0.0273 -0.0273,-1.31162 1.31162,-0.0273 2.62325,-0.082 z m -5.24648,0.13663 -3.14243,0.0273 -0.0273,-1.31162 3.14242,-0.0273 z m -3.16975,0.0273 h -0.79244 l 0.0273,-1.31162 h 0.79244 z m -2.10406,-0.0273 -3.66161,-0.0547 h -0.27326 l 0.0547,-1.31162 h 0.24593 l 3.66161,0.0547 z m -5.24649,-0.1093 -3.93486,-0.13663 0.0547,-1.31162 3.93486,0.13663 z m -5.27381,-0.21861 -3.90754,-0.24592 0.082,-1.31163 3.90754,0.24593 z m -5.24649,-0.35523 -3.90754,-0.38255 0.10931,-1.31162 3.93486,0.38255 z m -5.24648,-0.54651 -3.79824,-0.46453 h -0.1093 l 0.19128,-1.31162 0.0547,0.0273 3.82556,0.46453 z m -5.21916,-0.65581 -3.27906,-0.51918 -0.62848,-0.1093 0.24593,-1.2843 0.57383,0.1093 3.30638,0.49186 z m -5.19184,-0.87441 -2.45929,-0.43721 -1.42092,-0.3279 0.30058,-1.2843 1.36627,0.32791 2.45929,0.4372 z m -5.16451,-1.06569 -1.31162,-0.30058 -2.51394,-0.71047 0.35523,-1.25697 2.45929,0.68314 1.31162,0.30058 z m -5.10985,-1.36628 -3.14243,-1.06569 -0.62848,-0.24593 0.49185,-1.22964 0.54651,0.24593 3.14243,1.03836 z m -4.97323,-1.80347 -1.0657,-0.43721 -2.43196,-1.25697 -0.16395,-0.1093 0.73778,-1.09302 0.0273,0.0273 2.34999,1.20232 1.03836,0.43721 z m -4.72731,-2.5686 -0.71046,-0.49186 c -0.0273,-0.0273 -0.0547,-0.0273 -0.082,-0.0546 l -1.3936,-1.36627 c -0.0547,-0.0547 -0.082,-0.082 -0.1093,-0.13663 l -0.57384,-0.95639 1.12034,-0.68313 0.57384,0.95639 -0.1093,-0.13663 1.3936,1.36627 -0.082,-0.0546 0.71046,0.49186 z m -3.38835,-4.45404 -0.13663,-0.68314 1.2843,-0.24593 0.13662,0.68314 z"
       id="path2067" />
    <path
       style="fill:#c9c2d1;fill-opacity:1;fill-rule:evenodd;stroke:none;stroke-width:0.264583"
       d="m 810.82002,523.4624 c 0,-9.53659 7.7331,-17.26969 17.26968,-17.26969 0,0 0,0 0,0 v 0 c 9.56391,0 17.26969,7.7331 17.26969,17.26969 0,0 0,0 0,0 v 0 c 0,9.5639 -7.70578,17.26968 -17.26969,17.26968 0,0 0,0 0,0 v 0 c -9.53658,0 -17.26968,-7.70578 -17.26968,-17.26968 0,0 0,0 0,0 z"
       id="path2069" />
    <path
       style="fill:#c9c2d1;fill-opacity:1;fill-rule:evenodd;stroke:none;stroke-width:0.264583"
       d="m 738.68084,513.84384 c 0,-9.53658 7.73311,-17.26968 17.26969,-17.26968 0,0 0,0 0,0 v 0 c 9.5639,0 17.26968,7.7331 17.26968,17.26968 0,0 0,0 0,0 v 0 c 0,9.5639 -7.70578,17.26968 -17.26968,17.26968 0,0 0,0 0,0 v 0 c -9.53658,0 -17.26969,-7.70578 -17.26969,-17.26968 0,0 0,0 0,0 z"
       id="path2071" />
    <path
       style="fill:#6585cf;fill-opacity:1;fill-rule:nonzero;stroke:#6585cf;stroke-width:0.0273254px;stroke-linecap:butt;stroke-linejoin:round;stroke-miterlimit:4;stroke-dasharray:none;stroke-opacity:1"
       d="m 808.41538,520.23799 -40.30503,-4.69997 0.13663,-1.31163 40.30503,4.72731 z m -3.16975,-3.90754 4.53603,3.41568 -5.21917,2.26802 c -0.3279,0.16395 -0.71046,0 -0.84709,-0.32791 -0.13662,-0.3279 0,-0.71046 0.32791,-0.87441 l 4.18079,-1.80348 -0.13662,1.12034 -3.63429,-2.73254 c -0.30058,-0.21861 -0.35523,-0.62849 -0.13663,-0.92907 0.21861,-0.30058 0.62849,-0.35523 0.92907,-0.13663 z m -33.80158,1.80348 -4.56334,-3.41568 5.21916,-2.26801 c 0.3279,-0.13663 0.71046,0.0273 0.84708,0.35523 0.16396,0.32791 0,0.71046 -0.3279,0.84709 l -4.1808,1.8308 0.13663,-1.12034 3.63429,2.73255 c 0.30058,0.2186 0.35523,0.62848 0.13662,0.92906 -0.2186,0.27326 -0.62848,0.32791 -0.90174,0.1093 z"
       id="path2073" />
    <path
       style="fill:#6585cf;fill-opacity:1;fill-rule:nonzero;stroke:#6585cf;stroke-width:0.0273254px;stroke-linecap:butt;stroke-linejoin:round;stroke-miterlimit:4;stroke-dasharray:none;stroke-opacity:1"
       d="m 778.52135,494.96195 -13.22552,7.37787 -0.65581,-1.12034 13.25284,-7.40519 z m -4.86394,-1.31162 5.6837,0.082 -2.86917,4.89125 c -0.19128,0.32791 -0.60116,0.43721 -0.90174,0.24593 -0.32791,-0.19127 -0.40989,-0.60116 -0.24593,-0.90174 l 2.32266,-3.93486 0.54651,1.01104 -4.53603,-0.082 c -0.38255,-0.0273 -0.6558,-0.3279 -0.6558,-0.68313 0,-0.35523 0.30058,-0.65581 0.6558,-0.62849 z m -4.15346,8.88077 -5.6837,-0.1093 2.8965,-4.89125 c 0.19128,-0.32791 0.57384,-0.40989 0.90174,-0.24593 0.30058,0.19128 0.40988,0.60116 0.2186,0.90174 l -2.29533,3.93486 -0.57384,-0.98372 4.56335,0.082 c 0.35523,0 0.65581,0.30058 0.65581,0.65581 -0.0273,0.35523 -0.3279,0.65581 -0.68313,0.65581 z"
       id="path2075" />
    <path
       style="fill:#6585cf;fill-opacity:1;fill-rule:nonzero;stroke:#6585cf;stroke-width:0.0273254px;stroke-linecap:butt;stroke-linejoin:round;stroke-miterlimit:4;stroke-dasharray:none;stroke-opacity:1"
       d="m 765.65106,526.98738 33.39169,40.0591 -1.01104,0.84709 -33.39169,-40.0591 z m 32.76321,35.87831 0.95639,5.60171 -5.35579,-1.9401 c -0.3279,-0.1093 -0.51918,-0.49186 -0.38255,-0.81977 0.1093,-0.35523 0.49185,-0.51918 0.84708,-0.40988 l 4.26277,1.55755 -0.84709,0.73779 -0.76511,-4.5087 c -0.0547,-0.35523 0.19128,-0.68314 0.54651,-0.76511 0.35523,-0.0547 0.68314,0.19128 0.73779,0.54651 z"
       id="path2077" />
    <path
       style="fill:#6585cf;fill-opacity:1;fill-rule:nonzero;stroke:#6585cf;stroke-width:0.0273254px;stroke-linecap:butt;stroke-linejoin:round;stroke-miterlimit:4;stroke-dasharray:none;stroke-opacity:1"
       d="m 810.87467,568.82263 14.53714,-33.50099 1.22965,0.54651 -14.56447,33.47367 z m 11.09413,-31.06903 4.56335,-3.36103 0.68314,5.65637 c 0.0546,0.35523 -0.2186,0.68314 -0.57383,0.71046 -0.35524,0.0547 -0.68314,-0.19128 -0.73779,-0.57383 l -0.51919,-4.5087 1.03837,0.4372 -3.68893,2.70522 c -0.27326,0.21861 -0.68314,0.16396 -0.90174,-0.13662 -0.21861,-0.30058 -0.16396,-0.71046 0.13662,-0.92907 z"
       id="path2079" />
    <text
       xml:space="preserve"
       style="font-style:normal;font-variant:normal;font-weight:700;font-size:10.5007px;line-height:125%;font-family:Arial;text-align:start;letter-spacing:0px;word-spacing:0px;text-anchor:start;fill:#000000;fill-opacity:1;stroke:none;stroke-width:0.264583"
       x="799.05951"
       y="440.52438"
       id="text2085"><tspan
         sodipodi:role="line"
         x="799.05951"
         y="440.52438"
         id="tspan2083"
         style="stroke-width:0.264583"><tspan
           dx="0"
           dy="0"
           style="font-style:normal;font-variant:normal;font-weight:700;font-size:10.5007px;font-family:Arial;fill:#533ea9;stroke-width:0.264583"
           id="tspan2081">神界</tspan></tspan></text>
    <text
       xml:space="preserve"
       style="font-style:normal;font-variant:normal;font-weight:700;font-size:10.5007px;line-height:125%;font-family:Arial;text-align:start;letter-spacing:0px;word-spacing:0px;text-anchor:start;fill:#000000;fill-opacity:1;stroke:none;stroke-width:0.264583"
       x="795.7804"
       y="581.52472"
       id="text2091"><tspan
         sodipodi:role="line"
         x="795.7804"
         y="581.52472"
         id="tspan2089"
         style="stroke-width:0.264583"><tspan
           dx="0"
           dy="0"
           style="font-style:normal;font-variant:normal;font-weight:700;font-size:10.5007px;font-family:Arial;fill:#533ea9;stroke-width:0.264583"
           id="tspan2087">下界</tspan></tspan></text>
    <text
       xml:space="preserve"
       style="font-style:normal;font-variant:normal;font-weight:700;font-size:10.5007px;line-height:125%;font-family:Arial;text-align:start;letter-spacing:0px;word-spacing:0px;text-anchor:start;fill:#000000;fill-opacity:1;stroke:none;stroke-width:0.264583"
       x="784.68774"
       y="493.73099"
       id="text2097"><tspan
         sodipodi:role="line"
         x="784.68774"
         y="493.73099"
         id="tspan2095"
         style="stroke-width:0.264583"><tspan
           dx="0"
           dy="0"
           style="font-style:normal;font-variant:normal;font-weight:700;font-size:10.5007px;font-family:Arial;fill:#533ea9;stroke-width:0.264583"
           id="tspan2093">大陸</tspan></tspan></text>
    <text
       xml:space="preserve"
       style="font-style:normal;font-variant:normal;font-weight:700;font-size:10.5007px;line-height:125%;font-family:Arial;text-align:start;letter-spacing:0px;word-spacing:0px;text-anchor:start;fill:#000000;fill-opacity:1;stroke:none;stroke-width:0.264583"
       x="784.68774"
       y="506.41"
       id="text2103"><tspan
         sodipodi:role="line"
         x="784.68774"
         y="506.41"
         id="tspan2101"
         style="stroke-width:0.264583"><tspan
           dx="0"
           dy="0"
           style="font-style:normal;font-variant:normal;font-weight:700;font-size:10.5007px;font-family:Arial;fill:#533ea9;stroke-width:0.264583"
           id="tspan2099">盡頭</tspan></tspan></text>
    <text
       xml:space="preserve"
       style="font-style:normal;font-variant:normal;font-weight:700;font-size:10.5007px;line-height:125%;font-family:Arial;text-align:start;letter-spacing:0px;word-spacing:0px;text-anchor:start;fill:#000000;fill-opacity:1;stroke:none;stroke-width:0.264583"
       x="853.57642"
       y="502.99771"
       id="text2109"><tspan
         sodipodi:role="line"
         x="853.57642"
         y="502.99771"
         id="tspan2107"
         style="stroke-width:0.264583"><tspan
           dx="0"
           dy="0"
           style="font-style:normal;font-variant:normal;font-weight:700;font-size:10.5007px;font-family:Arial;fill:#533ea9;stroke-width:0.264583"
           id="tspan2105">未踏</tspan></tspan></text>
    <text
       xml:space="preserve"
       style="font-style:normal;font-variant:normal;font-weight:700;font-size:10.5007px;line-height:125%;font-family:Arial;text-align:start;letter-spacing:0px;word-spacing:0px;text-anchor:start;fill:#000000;fill-opacity:1;stroke:none;stroke-width:0.264583"
       x="853.57642"
       y="515.67676"
       id="text2115"><tspan
         sodipodi:role="line"
         x="853.57642"
         y="515.67676"
         id="tspan2113"
         style="stroke-width:0.264583"><tspan
           dx="0"
           dy="0"
           style="font-style:normal;font-variant:normal;font-weight:700;font-size:10.5007px;font-family:Arial;fill:#533ea9;stroke-width:0.264583"
           id="tspan2111">領域</tspan></tspan></text>
    <text
       xml:space="preserve"
       style="font-style:normal;font-variant:normal;font-weight:700;font-size:10.5007px;line-height:125%;font-family:Arial;text-align:start;letter-spacing:0px;word-spacing:0px;text-anchor:start;fill:#000000;fill-opacity:1;stroke:none;stroke-width:0.264583"
       x="744.68384"
       y="510.38297"
       id="text2121"><tspan
         sodipodi:role="line"
         x="744.68384"
         y="510.38297"
         id="tspan2119"
         style="stroke-width:0.264583"><tspan
           dx="0"
           dy="0"
           style="font-style:normal;font-variant:normal;font-weight:700;font-size:10.5007px;font-family:Arial;fill:#533ea9;stroke-width:0.264583"
           id="tspan2117">西方</tspan></tspan></text>
    <text
       xml:space="preserve"
       style="font-style:normal;font-variant:normal;font-weight:700;font-size:10.5007px;line-height:125%;font-family:Arial;text-align:start;letter-spacing:0px;word-spacing:0px;text-anchor:start;fill:#000000;fill-opacity:1;stroke:none;stroke-width:0.264583"
       x="744.68384"
       y="523.06201"
       id="text2127"><tspan
         sodipodi:role="line"
         x="744.68384"
         y="523.06201"
         id="tspan2125"
         style="stroke-width:0.264583"><tspan
           dx="0"
           dy="0"
           style="font-style:normal;font-variant:normal;font-weight:700;font-size:10.5007px;font-family:Arial;fill:#533ea9;stroke-width:0.264583"
           id="tspan2123">大陸</tspan></tspan></text>
    <text
       xml:space="preserve"
       style="font-style:normal;font-variant:normal;font-weight:700;font-size:10.5007px;line-height:125%;font-family:Arial;text-align:start;letter-spacing:0px;word-spacing:0px;text-anchor:start;fill:#000000;fill-opacity:1;stroke:none;stroke-width:0.264583"
       x="812.17578"
       y="525.7804"
       id="text2133"><tspan
         sodipodi:role="line"
         x="812.17578"
         y="525.7804"
         id="tspan2131"
         style="stroke-width:0.264583"><tspan
           dx="0"
           dy="0"
           style="font-style:normal;font-variant:normal;font-weight:700;font-size:10.5007px;font-family:Arial;fill:#533ea9;stroke-width:0.264583"
           id="tspan2129">浮空島</tspan></tspan></text>
  </g>
</svg>
