<?xml version="1.0" encoding="UTF-8" standalone="no"?>
<!-- Created with Inkscape (http://www.inkscape.org/) -->

<svg
   width="176.8791mm"
   height="216.18556mm"
   viewBox="0 0 176.8791 216.18556"
   version="1.1"
   id="svg5"
   inkscape:version="1.1 (c68e22c387, 2021-05-23)"
   sodipodi:docname="SecondInside.svg"
   xmlns:inkscape="http://www.inkscape.org/namespaces/inkscape"
   xmlns:sodipodi="http://sodipodi.sourceforge.net/DTD/sodipodi-0.dtd"
   xmlns="http://www.w3.org/2000/svg"
   xmlns:svg="http://www.w3.org/2000/svg">
  <sodipodi:namedview
     id="namedview7"
     pagecolor="#ffffff"
     bordercolor="#666666"
     borderopacity="1.0"
     inkscape:pageshadow="2"
     inkscape:pageopacity="0.0"
     inkscape:pagecheckerboard="0"
     inkscape:document-units="mm"
     showgrid="false"
     fit-margin-top="0"
     fit-margin-left="0"
     fit-margin-right="0"
     fit-margin-bottom="0"
     inkscape:zoom="0.52382155"
     inkscape:cx="6.6816648"
     inkscape:cy="592.75912"
     inkscape:window-width="1288"
     inkscape:window-height="745"
     inkscape:window-x="-8"
     inkscape:window-y="-8"
     inkscape:window-maximized="1"
     inkscape:current-layer="layer1" />
  <defs
     id="defs2">
    <pattern
       id="EMFhbasepattern"
       patternUnits="userSpaceOnUse"
       width="6"
       height="6"
       x="0"
       y="0" />
  </defs>
  <g
     inkscape:label="圖層 1"
     inkscape:groupmode="layer"
     id="layer1"
     transform="translate(-102.99412,-72.73375)">
    <path
       style="fill:#ffffff;fill-opacity:1;fill-rule:evenodd;stroke:none;stroke-width:0.264583"
       d="m 114.78606,180.82653 c 0,-59.69669 33.4378,-108.09278 74.68229,-108.09278 0,0 0,0 0,0 v 0 c 41.27179,0 74.68229,48.39609 74.68229,108.09278 v 0 c 0,59.724 -33.4105,108.09278 -74.68229,108.09278 0,0 0,0 0,0 v 0 c -41.24449,0 -74.68229,-48.36878 -74.68229,-108.09278 z"
       id="path827" />
    <path
       style="fill:#c9c2d1;fill-opacity:1;fill-rule:evenodd;stroke:none;stroke-width:0.264583"
       d="m 165.88447,267.30076 c 0,-11.92842 9.69014,-21.61856 21.61856,-21.61856 0,0 0,0 0,0 v 0 c 11.95571,0 21.61855,9.69014 21.61855,21.61856 0,0 0,0 0,0 v 0 c 0,11.95571 -9.66284,21.61855 -21.61855,21.61855 0,0 0,0 0,0 v 0 c -11.92842,0 -21.61856,-9.66284 -21.61856,-21.61855 0,0 0,0 0,0 z"
       id="path829" />
    <path
       style="fill:#c9c2d1;fill-opacity:1;fill-rule:evenodd;stroke:none;stroke-width:0.264583"
       d="m 169.81512,94.352308 c 0,-11.928422 9.69013,-21.618558 21.61855,-21.618558 0,0 0,0 0,0 v 0 c 11.95572,0 21.61856,9.690136 21.61856,21.618558 0,0 0,0 0,0 v 0 c 0,11.955712 -9.66284,21.618552 -21.61856,21.618552 0,0 0,0 0,0 v 0 c -11.92842,0 -21.61855,-9.66284 -21.61855,-21.618552 0,0 0,0 0,0 z"
       id="path831" />
    <path
       style="fill:#c9c2d1;fill-opacity:1;fill-rule:evenodd;stroke:none;stroke-width:0.264583"
       d="m 150.16189,165.10394 c 0,-11.92842 9.69013,-21.61855 21.61855,-21.61855 0,0 0,0 0,0 v 0 c 11.95572,0 21.61856,9.69013 21.61856,21.61855 0,0 0,0 0,0 v 0 c 0,11.95572 -9.66284,21.61856 -21.61856,21.61856 0,0 0,0 0,0 v 0 c -11.92842,0 -21.61855,-9.66284 -21.61855,-21.61856 0,0 0,0 0,0 z"
       id="path833" />
    <path
       style="fill:#c9c2d1;fill-opacity:1;fill-rule:evenodd;stroke:none;stroke-width:0.264583"
       d="m 236.63611,176.89588 c 0,-11.92842 9.69014,-21.61855 21.61856,-21.61855 0,0 0,0 0,0 v 0 c 11.95571,0 21.61855,9.69013 21.61855,21.61855 0,0 0,0 0,0 v 0 c 0,11.95572 -9.66284,21.61856 -21.61855,21.61856 0,0 0,0 0,0 v 0 c -11.92842,0 -21.61856,-9.66284 -21.61856,-21.61856 0,0 0,0 0,0 z"
       id="path835" />
    <path
       style="fill:#000000;fill-opacity:1;fill-rule:nonzero;stroke:#000000;stroke-width:0.0272962px;stroke-linecap:butt;stroke-linejoin:round;stroke-miterlimit:4;stroke-dasharray:none;stroke-opacity:1"
       d="m 118.30727,184.92096 0.0819,-0.90078 c 0,-0.0273 0,-0.0819 0,-0.10918 l 0.27296,-0.90077 c 0.0273,-0.0546 0.0546,-0.0819 0.0546,-0.13649 l 0.46403,-0.87347 0.68241,-0.95537 0.0546,-0.0546 1.00995,0.81888 v 0 l -0.57322,0.81889 -0.46403,0.87347 0.0273,-0.13648 -0.27296,0.90078 0.0273,-0.10919 -0.0819,0.90078 z m 2.56584,-4.94061 0.84618,-0.73699 2.37476,-1.63778 0.737,1.06456 -2.26558,1.58317 -0.84618,0.7097 z m 4.44927,-3.02987 1.85614,-0.95537 1.74695,-0.7097 0.51863,1.20103 -1.66506,0.68241 -1.85614,0.95536 z m 4.83142,-2.1837 0.62781,-0.27296 3.11177,-1.03725 0.40944,1.25562 -3.00258,1.00996 -0.65511,0.24567 z m 5.0225,-1.71965 3.79416,-1.03726 0.35485,1.25563 -3.79417,1.03725 z m 5.07708,-1.36481 3.84876,-0.87348 0.30026,1.28292 -3.84876,0.87348 z m 5.15897,-1.14644 3.87606,-0.7097 0.21837,1.28292 -3.84876,0.7097 z m 5.18627,-0.92807 3.87606,-0.60051 0.19107,1.28291 -3.87605,0.60052 z m 5.15898,-0.81888 h 0.13648 l 3.79416,-0.46404 0.16378,1.31022 -3.76687,0.43674 -0.10918,0.0273 z m 5.24086,-0.62781 1.09185,-0.10919 2.8388,-0.27296 0.10918,1.31021 -2.8115,0.24567 -1.09185,0.13648 z m 5.21357,-0.49134 2.37476,-0.21836 1.58318,-0.10919 0.0819,1.31022 -1.52859,0.0819 -2.37476,0.21836 z m 5.26816,-0.40944 3.90335,-0.24566 0.0819,1.28292 -3.90335,0.27296 z m 5.24086,-0.30026 3.93064,-0.16377 0.0546,1.31021 -3.93064,0.16378 z m 5.24086,-0.21837 0.49133,-0.0273 3.43931,-0.0273 0.0273,1.31022 -3.43932,0.0273 -0.46403,0.0273 z m 5.24086,-0.0819 2.48395,-0.0273 0.0273,1.31021 -2.48396,0.0273 z m 2.51125,-0.0273 1.44669,0.0273 -0.0273,1.31021 -1.44669,-0.0273 z m 2.75691,0.0546 3.93064,0.0273 -0.0273,1.31021 -3.93065,-0.0273 z m 5.24086,0.0819 3.93065,0.13648 -0.0546,1.31022 -3.90335,-0.13648 z m 5.24086,0.19107 1.03726,0.0273 2.92069,0.19107 -0.0819,1.31022 -2.8661,-0.19107 -1.06455,-0.0273 z m 5.26816,0.30026 2.56584,0.19108 1.36481,0.10918 -0.13648,1.31022 -1.31022,-0.13648 -2.59313,-0.16378 z m 5.24086,0.43674 3.84876,0.35485 h 0.0819 l -0.16378,1.31022 -0.0546,-0.0273 -3.84876,-0.35485 z m 5.21357,0.51863 3.90335,0.46403 -0.13648,1.28292 -3.90335,-0.46403 z m 5.24086,0.62781 3.87606,0.60052 -0.19108,1.28291 -3.90335,-0.60051 z m 5.15898,0.79159 0.27296,0.0546 3.63039,0.65511 -0.24567,1.28292 -3.5758,-0.65511 -0.27296,-0.0273 z m 5.18626,0.95536 0.57322,0.10919 3.30284,0.73699 -0.30026,1.28292 -3.24824,-0.73699 -0.57322,-0.10919 z m 5.13168,1.14644 0.49133,0.10919 3.33014,0.92807 -0.32756,1.25562 -3.30284,-0.90078 -0.46403,-0.10918 z m 5.13168,1.3921 3.71228,1.25563 -0.40944,1.22832 -3.71228,-1.25562 z m 4.9952,1.74696 2.64772,1.09185 0.98267,0.51862 -0.60052,1.17374 -0.90077,-0.46404 -2.64773,-1.11914 z m 4.80412,2.21099 0.84618,0.43674 2.48395,1.69236 0.10919,0.0819 -0.84618,0.98266 v 0 l -2.34748,-1.58318 -0.84618,-0.43674 z m 4.44927,3.13906 0.7097,0.76429 0.68241,0.92807 0.51863,0.95536 c 0,0.0546 0.0273,0.0819 0.0273,0.13649 l 0.24567,0.76429 -1.25563,0.38214 -0.24566,-0.79159 0.0546,0.13648 -0.40944,-0.81888 -0.57322,-0.79159 -0.7097,-0.79159 z m 2.29288,5.10438 -0.0546,0.62781 c 0,0.0273 0,0.0819 -0.0273,0.10918 l -0.27296,0.90078 c 0,0.0546 -0.0273,0.0819 -0.0273,0.10918 l -0.46404,0.90077 c -0.0273,0.0546 -0.0273,0.0819 -0.0546,0.0819 l -0.62781,0.87348 -0.24567,0.27296 -0.95536,-0.90077 0.13648,-0.13648 0.62781,-0.87348 -0.0546,0.0819 0.46404,-0.90077 -0.0546,0.13648 0.27296,-0.90078 v 0.10919 l 0.0546,-0.62781 z m -2.72961,4.85871 -0.60052,0.54593 c -0.0273,0.0273 -0.0546,0.0546 -0.0819,0.0546 l -2.40206,1.61047 -0.24567,0.13648 -0.60051,-1.14643 0.10918,-0.0546 2.40207,-1.61047 -0.0819,0.0546 0.62781,-0.57322 z m -4.50387,2.94799 -1.61047,0.87348 -1.99262,0.81888 -0.49133,-1.22833 1.85614,-0.76429 1.63776,-0.84618 z m -4.83142,2.18369 -0.38215,0.16378 -3.35742,1.11914 -0.43674,-1.25562 3.27554,-1.09185 0.40944,-0.16378 z m -5.02249,1.69236 -3.79417,1.03726 -0.35485,-1.25563 3.79417,-1.06455 z m -5.10438,1.33751 -3.82147,0.87348 -0.30025,-1.25562 3.82146,-0.90078 z m -5.13168,1.14644 -3.87606,0.7097 -0.24566,-1.28292 3.87605,-0.73699 z m -5.18627,0.92807 -3.87606,0.60052 -0.21837,-1.31022 3.90336,-0.60051 z m -5.21357,0.79159 -3.90335,0.46404 -0.13648,-1.31022 3.90335,-0.46403 z m -5.18627,0.62781 -0.84618,0.0819 -3.08446,0.30026 -0.13648,-1.31022 3.08446,-0.27296 0.81889,-0.10918 z m -5.24086,0.49133 -2.1018,0.19108 -1.82885,0.13648 -0.0819,-1.31022 1.77424,-0.10918 2.10181,-0.21837 z m -5.24086,0.40945 -3.65769,0.21837 -0.30025,0.0273 -0.0273,-1.31021 h 0.24566 l 3.65769,-0.24567 z m -5.24086,0.30026 -3.93065,0.13648 -0.0546,-1.31022 3.93064,-0.13648 z m -5.24087,0.19107 h -0.24566 l -3.71228,0.0546 -0.0273,-1.31022 3.71228,-0.0546 h 0.21837 z m -5.26816,0.0819 h -2.21098 l -0.0273,-1.31022 h 2.21099 z m -2.23828,0 h -1.71966 l 0.0273,-1.31022 h 1.71966 z m -3.02988,-0.0273 -3.93064,-0.0273 0.0273,-1.31021 3.93065,0.0273 z m -5.24086,-0.0819 -3.93064,-0.16377 0.0546,-1.31022 3.93065,0.16378 z m -5.24086,-0.19107 -0.73699,-0.0546 -3.19365,-0.19108 0.0819,-1.31021 3.13906,0.19107 0.76429,0.0546 z m -5.24086,-0.32756 -2.32017,-0.16377 -1.61048,-0.13648 0.10919,-1.31022 1.58317,0.16378 2.32018,0.13648 z m -5.24086,-0.40944 -3.60309,-0.35485 -0.32756,-0.0273 0.13648,-1.31022 0.32756,0.0546 3.57579,0.32756 z m -5.24086,-0.54592 -3.90335,-0.46404 0.16377,-1.31021 3.90335,0.49133 z m -5.21357,-0.65511 -3.90335,-0.57322 0.21837,-1.31021 3.87605,0.60051 z m -5.18627,-0.79159 v 0 l -3.87605,-0.7097 0.21837,-1.28292 3.84875,0.7097 v 0 z m -5.18627,-0.95536 -0.30026,-0.0546 -3.5485,-0.81888 0.30026,-1.25562 3.49391,0.79159 0.30026,0.0546 z m -5.13168,-1.14644 -0.21837,-0.0546 -3.60309,-0.98267 0.35485,-1.28292 3.5485,0.98267 0.21837,0.0546 z m -5.10438,-1.4194 -3.73957,-1.25563 0.43674,-1.22832 3.71227,1.22832 z m -4.9952,-1.74696 -2.40206,-0.98266 -1.22833,-0.6551 0.60052,-1.14644 1.14644,0.57322 2.40206,0.98266 z m -4.80412,-2.23828 -0.62781,-0.32756 -2.42936,-1.66506 -0.32755,-0.27296 0.87348,-0.98266 0.19107,0.19107 2.32017,1.55588 0.62781,0.32755 z m -4.39468,-3.19365 -0.51863,-0.57322 -0.6824,-0.95537 c -0.0273,0 -0.0273,-0.0546 -0.0546,-0.0819 l -0.46404,-0.90077 c -0.0273,-0.0273 -0.0273,-0.0546 -0.0546,-0.10918 l -0.27296,-0.90078 c 0,-0.0273 0,-0.0819 0,-0.10918 l -0.0273,-0.13648 1.31022,-0.10919 v 0.10919 l -0.0273,-0.10919 0.27296,0.90078 -0.0273,-0.13648 0.46404,0.90077 -0.0546,-0.0819 0.57322,0.81889 0.51862,0.57321 z"
       id="path837" />
    <path
       style="fill:#c9c2d1;fill-opacity:1;fill-rule:evenodd;stroke:none;stroke-width:0.264583"
       d="m 193.399,200.47977 c 0,-11.92843 9.69013,-21.61856 21.61855,-21.61856 0,0 0,0 0,0 v 0 c 11.95572,0 21.61856,9.69013 21.61856,21.61856 0,0 0,0 0,0 v 0 c 0,11.95571 -9.66284,21.61855 -21.61856,21.61855 0,0 0,0 0,0 v 0 c -11.92842,0 -21.61855,-9.66284 -21.61855,-21.61855 0,0 0,0 0,0 z"
       id="path839" />
    <path
       style="fill:#c9c2d1;fill-opacity:1;fill-rule:evenodd;stroke:none;stroke-width:0.264583"
       d="m 102.99412,188.68782 c 0,-11.92842 9.69014,-21.61855 21.61856,-21.61855 0,0 0,0 0,0 v 0 c 11.95572,0 21.61856,9.69013 21.61856,21.61855 0,0 0,0 0,0 v 0 c 0,11.95572 -9.66284,21.61856 -21.61856,21.61856 0,0 0,0 0,0 v 0 c -11.92842,0 -21.61856,-9.66284 -21.61856,-21.61856 0,0 0,0 0,0 z"
       id="path841" />
    <path
       style="fill:#6585cf;fill-opacity:1;fill-rule:nonzero;stroke:#6585cf;stroke-width:0.0272962px;stroke-linecap:butt;stroke-linejoin:round;stroke-miterlimit:4;stroke-dasharray:none;stroke-opacity:1"
       d="m 190.58749,196.35804 -51.20759,-5.97785 0.13648,-1.31022 51.23489,6.00515 z m -3.16635,-3.90335 4.53116,3.41202 -5.18627,2.26559 c -0.32755,0.16377 -0.7097,0 -0.87348,-0.32756 -0.13648,-0.32755 0.0273,-0.7097 0.35485,-0.87348 l 4.17632,-1.80154 -0.13648,1.11914 -3.65769,-2.72961 c -0.27296,-0.21837 -0.32755,-0.62782 -0.10919,-0.92807 0.21837,-0.30026 0.62782,-0.35485 0.90078,-0.13649 z m -44.71111,0.51863 -4.55845,-3.41202 5.21356,-2.26558 c 0.32756,-0.13648 0.7097,0.0273 0.84618,0.35485 0.16378,0.32755 0,0.7097 -0.32755,0.84618 l -4.17631,1.82884 0.13648,-1.11914 3.63039,2.72962 c 0.30025,0.21837 0.35485,0.62781 0.13648,0.92807 -0.21837,0.27296 -0.62781,0.32755 -0.90078,0.10918 z"
       id="path843" />
    <path
       style="fill:#6585cf;fill-opacity:1;fill-rule:nonzero;stroke:#6585cf;stroke-width:0.0272962px;stroke-linecap:butt;stroke-linejoin:round;stroke-miterlimit:4;stroke-dasharray:none;stroke-opacity:1"
       d="m 152.8915,164.58532 -17.19658,9.60825 -0.65511,-1.14644 17.19658,-9.60825 z m -4.85872,-1.31022 5.65031,0.0819 -2.8661,4.88601 c -0.19107,0.32756 -0.60051,0.43674 -0.90077,0.24567 -0.30026,-0.19107 -0.40944,-0.60052 -0.24567,-0.90077 l 2.32018,-3.93065 0.54592,1.00996 -4.53116,-0.0819 c -0.38215,-0.0273 -0.65511,-0.32755 -0.65511,-0.68241 0,-0.35484 0.30026,-0.6551 0.6824,-0.62781 z m -8.13425,11.08224 -5.6776,-0.10918 2.89339,-4.88601 c 0.19108,-0.32756 0.57322,-0.40945 0.90077,-0.24567 0.30026,0.19107 0.40945,0.60052 0.21837,0.90077 l -2.29287,3.93065 -0.57322,-0.98266 4.55846,0.0819 c 0.35485,0 0.6551,0.30026 0.6551,0.6551 -0.0273,0.35486 -0.32755,0.65511 -0.6824,0.65511 z"
       id="path845" />
    <path
       style="fill:#6585cf;fill-opacity:1;fill-rule:nonzero;stroke:#6585cf;stroke-width:0.0272962px;stroke-linecap:butt;stroke-linejoin:round;stroke-miterlimit:4;stroke-dasharray:none;stroke-opacity:1"
       d="m 175.11057,144.87749 14.57615,-39.90698 1.22833,0.43674 -14.57615,39.93428 z m 4.53116,-2.18369 -4.36738,3.63039 -0.98266,-5.56842 c -0.0819,-0.35484 0.16377,-0.7097 0.51863,-0.76429 0.35484,-0.0819 0.6824,0.16378 0.76429,0.51863 l 0.79159,4.47657 -1.06455,-0.38215 3.5212,-2.92069 c 0.27296,-0.21837 0.6824,-0.19107 0.90077,0.10919 0.24567,0.27296 0.21837,0.6824 -0.0819,0.90077 z m 6.74215,-35.10286 4.36739,-3.63039 0.98266,5.59572 c 0.0819,0.35485 -0.16378,0.6824 -0.51863,0.76429 -0.35485,0.0546 -0.6824,-0.19107 -0.76429,-0.54593 l -0.79159,-4.47657 1.06455,0.40945 -3.5212,2.89339 c -0.27296,0.24567 -0.68241,0.19107 -0.90077,-0.0819 -0.24567,-0.27296 -0.21837,-0.6824 0.0819,-0.92807 z"
       id="path847" />
    <text
       xml:space="preserve"
       style="font-style:normal;font-variant:normal;font-weight:700;font-size:10.4841px;line-height:125%;font-family:'微軟正黑體';text-align:start;letter-spacing:0px;word-spacing:0px;text-anchor:start;fill:#000000;fill-opacity:1;stroke:none;stroke-width:0.264583"
       x="177.33475"
       y="97.638641"
       id="text853"><tspan
         sodipodi:role="line"
         x="177.33475"
         y="97.638641"
         id="tspan851"
         style="stroke-width:0.264583"><tspan
           dx="0"
           dy="0"
           style="font-style:normal;font-variant:normal;font-weight:700;font-size:10.4841px;font-family:'微軟正黑體';fill:#533ea9;stroke-width:0.264583"
           id="tspan849">神界</tspan></tspan></text>
    <text
       xml:space="preserve"
       style="font-style:normal;font-variant:normal;font-weight:700;font-size:10.4841px;line-height:125%;font-family:'微軟正黑體';text-align:start;letter-spacing:0px;word-spacing:0px;text-anchor:start;fill:#000000;fill-opacity:1;stroke:none;stroke-width:0.264583"
       x="173.22119"
       y="274.51898"
       id="text859"><tspan
         sodipodi:role="line"
         x="173.22119"
         y="274.51898"
         id="tspan857"
         style="stroke-width:0.264583"><tspan
           dx="0"
           dy="0"
           style="font-style:normal;font-variant:normal;font-weight:700;font-size:10.4841px;font-family:'微軟正黑體';fill:#533ea9;stroke-width:0.264583"
           id="tspan855">下界</tspan></tspan></text>
    <text
       xml:space="preserve"
       style="font-style:normal;font-variant:normal;font-weight:700;font-size:10.4841px;line-height:125%;font-family:'微軟正黑體';text-align:start;letter-spacing:0px;word-spacing:0px;text-anchor:start;fill:#000000;fill-opacity:1;stroke:none;stroke-width:0.264583"
       x="162.09842"
       y="163.7066"
       id="text865"><tspan
         sodipodi:role="line"
         x="162.09842"
         y="163.7066"
         id="tspan863"
         style="stroke-width:0.264583"><tspan
           dx="0"
           dy="0"
           style="font-style:normal;font-variant:normal;font-weight:700;font-size:10.4841px;font-family:'微軟正黑體';fill:#533ea9;stroke-width:0.264583"
           id="tspan861">大陸</tspan></tspan></text>
    <text
       xml:space="preserve"
       style="font-style:normal;font-variant:normal;font-weight:700;font-size:10.4841px;line-height:125%;font-family:'微軟正黑體';text-align:start;letter-spacing:0px;word-spacing:0px;text-anchor:start;fill:#000000;fill-opacity:1;stroke:none;stroke-width:0.264583"
       x="162.09842"
       y="176.37202"
       id="text871"><tspan
         sodipodi:role="line"
         x="162.09842"
         y="176.37202"
         id="tspan869"
         style="stroke-width:0.264583"><tspan
           dx="0"
           dy="0"
           style="font-style:normal;font-variant:normal;font-weight:700;font-size:10.4841px;font-family:'微軟正黑體';fill:#533ea9;stroke-width:0.264583"
           id="tspan867">盡頭</tspan></tspan></text>
    <text
       xml:space="preserve"
       style="font-style:normal;font-variant:normal;font-weight:700;font-size:10.4841px;line-height:125%;font-family:'微軟正黑體';text-align:start;letter-spacing:0px;word-spacing:0px;text-anchor:start;fill:#000000;fill-opacity:1;stroke:none;stroke-width:0.264583"
       x="248.25383"
       y="173.3779"
       id="text877"><tspan
         sodipodi:role="line"
         x="248.25383"
         y="173.3779"
         id="tspan875"
         style="stroke-width:0.264583"><tspan
           dx="0"
           dy="0"
           style="font-style:normal;font-variant:normal;font-weight:700;font-size:10.4841px;font-family:'微軟正黑體';fill:#533ea9;stroke-width:0.264583"
           id="tspan873">未踏</tspan></tspan></text>
    <text
       xml:space="preserve"
       style="font-style:normal;font-variant:normal;font-weight:700;font-size:10.4841px;line-height:125%;font-family:'微軟正黑體';text-align:start;letter-spacing:0px;word-spacing:0px;text-anchor:start;fill:#000000;fill-opacity:1;stroke:none;stroke-width:0.264583"
       x="248.25383"
       y="186.04332"
       id="text883"><tspan
         sodipodi:role="line"
         x="248.25383"
         y="186.04332"
         id="tspan881"
         style="stroke-width:0.264583"><tspan
           dx="0"
           dy="0"
           style="font-style:normal;font-variant:normal;font-weight:700;font-size:10.4841px;font-family:'微軟正黑體';fill:#533ea9;stroke-width:0.264583"
           id="tspan879">領域</tspan></tspan></text>
    <text
       xml:space="preserve"
       style="font-style:normal;font-variant:normal;font-weight:700;font-size:10.4841px;line-height:125%;font-family:'微軟正黑體';text-align:start;letter-spacing:0px;word-spacing:0px;text-anchor:start;fill:#000000;fill-opacity:1;stroke:none;stroke-width:0.264583"
       x="112.96513"
       y="186.48015"
       id="text889"><tspan
         sodipodi:role="line"
         x="112.96513"
         y="186.48015"
         id="tspan887"
         style="stroke-width:0.264583"><tspan
           dx="0"
           dy="0"
           style="font-style:normal;font-variant:normal;font-weight:700;font-size:10.4841px;font-family:'微軟正黑體';fill:#533ea9;stroke-width:0.264583"
           id="tspan885">西方</tspan></tspan></text>
    <text
       xml:space="preserve"
       style="font-style:normal;font-variant:normal;font-weight:700;font-size:10.4841px;line-height:125%;font-family:'微軟正黑體';text-align:start;letter-spacing:0px;word-spacing:0px;text-anchor:start;fill:#000000;fill-opacity:1;stroke:none;stroke-width:0.264583"
       x="112.96513"
       y="199.14557"
       id="text895"><tspan
         sodipodi:role="line"
         x="112.96513"
         y="199.14557"
         id="tspan893"
         style="stroke-width:0.264583"><tspan
           dx="0"
           dy="0"
           style="font-style:normal;font-variant:normal;font-weight:700;font-size:10.4841px;font-family:'微軟正黑體';fill:#533ea9;stroke-width:0.264583"
           id="tspan891">大陸</tspan></tspan></text>
    <text
       xml:space="preserve"
       style="font-style:normal;font-variant:normal;font-weight:700;font-size:10.4841px;line-height:125%;font-family:'微軟正黑體';text-align:start;letter-spacing:0px;word-spacing:0px;text-anchor:start;fill:#000000;fill-opacity:1;stroke:none;stroke-width:0.264583"
       x="199.12041"
       y="205.73218"
       id="text901"><tspan
         sodipodi:role="line"
         x="199.12041"
         y="205.73218"
         id="tspan899"
         style="stroke-width:0.264583"><tspan
           dx="0"
           dy="0"
           style="font-style:normal;font-variant:normal;font-weight:700;font-size:10.4841px;font-family:'微軟正黑體';fill:#533ea9;stroke-width:0.264583"
           id="tspan897">浮空島</tspan></tspan></text>
    <path
       style="fill:#6585cf;fill-opacity:1;fill-rule:nonzero;stroke:#6585cf;stroke-width:0.0272962px;stroke-linecap:butt;stroke-linejoin:round;stroke-miterlimit:4;stroke-dasharray:none;stroke-opacity:1"
       d="m 242.12264,166.22309 -51.20759,-5.97786 0.13648,-1.31022 51.23488,6.00516 z m -3.16636,-3.90335 4.53117,3.41202 -5.18627,2.26558 c -0.32756,0.16378 -0.7097,0 -0.87348,-0.32756 -0.13648,-0.32755 0.0273,-0.7097 0.35485,-0.87347 l 4.17631,-1.80155 -0.13648,1.11914 -3.65768,-2.72961 c -0.27297,-0.21837 -0.32756,-0.62782 -0.10919,-0.92807 0.21837,-0.30026 0.62781,-0.35485 0.90077,-0.13648 z m -44.7111,0.51862 -4.55846,-3.41202 5.21357,-2.26558 c 0.32755,-0.13648 0.7097,0.0273 0.84618,0.35485 0.16377,0.32756 0,0.7097 -0.32756,0.84618 l -4.17631,1.82885 0.13648,-1.11914 3.63039,2.72961 c 0.30026,0.21837 0.35485,0.62781 0.13648,0.92807 -0.21837,0.27296 -0.62781,0.32755 -0.90077,0.10918 z"
       id="path903" />
    <path
       style="fill:#6585cf;fill-opacity:1;fill-rule:nonzero;stroke:#6585cf;stroke-width:0.0272962px;stroke-linecap:butt;stroke-linejoin:round;stroke-miterlimit:4;stroke-dasharray:none;stroke-opacity:1"
       d="m 241.52212,173.29279 -24.59384,13.10216 -0.62781,-1.17374 24.62114,-13.07486 z m -4.83142,-1.4194 5.6776,0.21837 -2.97528,4.83142 c -0.19107,0.30026 -0.60051,0.40944 -0.90077,0.21837 -0.32755,-0.19107 -0.40944,-0.60051 -0.21837,-0.90077 l 2.40206,-3.87606 0.51863,1.00996 -4.55846,-0.19107 c -0.35485,0 -0.62781,-0.30026 -0.62781,-0.68241 0.0273,-0.35485 0.32755,-0.62781 0.6824,-0.62781 z m -15.55881,14.76722 -5.6776,-0.21837 3.00258,-4.83142 c 0.19107,-0.30025 0.57322,-0.40944 0.90077,-0.21837 0.30026,0.19108 0.38215,0.60052 0.21837,0.90078 l -2.40206,3.87605 -0.54592,-1.00996 4.55846,0.19108 c 0.35484,0 0.6551,0.32755 0.62781,0.6824 -0.0273,0.35485 -0.32756,0.62781 -0.68241,0.62781 z"
       id="path905" />
    <path
       style="fill:#6585cf;fill-opacity:1;fill-rule:nonzero;stroke:#6585cf;stroke-width:0.0272962px;stroke-linecap:butt;stroke-linejoin:round;stroke-miterlimit:4;stroke-dasharray:none;stroke-opacity:1"
       d="m 170.93426,251.41439 -40.72587,-46.89479 1.00996,-0.84618 40.69857,46.89479 z m 0.30026,-5.02249 1.03725,5.59571 -5.35004,-1.82884 c -0.35485,-0.13648 -0.54593,-0.49133 -0.40945,-0.84618 0.10919,-0.32755 0.49133,-0.51863 0.81889,-0.40944 l 4.31279,1.47399 -0.84618,0.737 -0.84618,-4.47657 c -0.0819,-0.35485 0.16378,-0.68241 0.51863,-0.76429 0.35485,-0.0546 0.6824,0.16377 0.76429,0.51862 z m -40.31643,-37.69599 -1.06455,-5.59571 5.37735,1.82884 c 0.35485,0.13648 0.51862,0.49133 0.40944,0.84618 -0.10919,0.32755 -0.49133,0.51863 -0.81889,0.40944 l -4.31279,-1.47399 0.84618,-0.737 0.84618,4.47657 c 0.0819,0.35485 -0.16377,0.68241 -0.51862,0.76429 -0.35485,0.0546 -0.7097,-0.16377 -0.7643,-0.51862 z"
       id="path907" />
    <path
       style="fill:#6585cf;fill-opacity:1;fill-rule:nonzero;stroke:#6585cf;stroke-width:0.0272962px;stroke-linecap:butt;stroke-linejoin:round;stroke-miterlimit:4;stroke-dasharray:none;stroke-opacity:1"
       d="m 194.8184,248.30263 14.24859,-34.63882 1.22833,0.51863 -14.2486,34.61152 z m 4.64034,-1.99262 -4.53116,3.43932 -0.76429,-5.62301 c -0.0546,-0.35485 0.19107,-0.6824 0.54592,-0.737 0.38215,-0.0546 0.7097,0.19108 0.737,0.54593 l 0.62781,4.50386 -1.03725,-0.40944 3.60309,-2.78421 c 0.30026,-0.21837 0.7097,-0.16377 0.92807,0.13648 0.21837,0.30026 0.16378,0.7097 -0.10919,0.92807 z m 6.22353,-30.13495 4.50386,-3.46662 0.7643,5.62301 c 0.0546,0.35485 -0.19108,0.6824 -0.54593,0.737 -0.35485,0.0546 -0.7097,-0.19108 -0.73699,-0.54592 l -0.62781,-4.50387 1.03725,0.40944 -3.60309,2.78421 c -0.30026,0.21837 -0.7097,0.16378 -0.92807,-0.13648 -0.21837,-0.27296 -0.16378,-0.68241 0.13648,-0.90077 z"
       id="path909" />
    <path
       style="fill:#6585cf;fill-opacity:1;fill-rule:nonzero;stroke:#6585cf;stroke-width:0.0272962px;stroke-linecap:butt;stroke-linejoin:round;stroke-miterlimit:4;stroke-dasharray:none;stroke-opacity:1"
       d="m 182.12568,247.23808 -9.03502,-62.39901 1.28292,-0.19108 9.03502,62.39902 z m 2.94799,-4.06712 -2.1291,5.26815 -3.52121,-4.44927 c -0.21836,-0.27296 -0.19107,-0.6824 0.10919,-0.92807 0.27296,-0.21837 0.6824,-0.16378 0.92807,0.10919 l 2.8115,3.57579 -1.11914,0.16378 1.71966,-4.23091 c 0.13648,-0.32755 0.51863,-0.49133 0.84618,-0.35485 0.32755,0.13649 0.49133,0.51863 0.35485,0.84619 z m -13.64808,-54.45584 2.10181,-5.26816 3.54849,4.44928 c 0.21838,0.27296 0.16378,0.6824 -0.10918,0.92807 -0.27296,0.21837 -0.6824,0.16377 -0.92807,-0.10919 l -2.8115,-3.5758 1.11914,-0.16377 -1.71966,4.2309 c -0.13648,0.32756 -0.51862,0.49133 -0.84618,0.35485 -0.32755,-0.13648 -0.49133,-0.51862 -0.35485,-0.84618 z"
       id="path911" />
    <path
       style="fill:#6585cf;fill-opacity:1;fill-rule:nonzero;stroke:#6585cf;stroke-width:0.0272962px;stroke-linecap:butt;stroke-linejoin:round;stroke-miterlimit:4;stroke-dasharray:none;stroke-opacity:1"
       d="m 208.05703,187.37761 -19.38027,-12.69271 0.7097,-1.11915 19.40757,12.72001 z m -1.09184,-4.91331 2.53854,5.07709 -5.6503,-0.30026 c -0.38215,-0.0273 -0.65511,-0.32755 -0.62782,-0.68241 0.0273,-0.35484 0.32756,-0.6551 0.68241,-0.62781 l 4.55846,0.24567 -0.62782,0.92807 -2.01991,-4.06713 c -0.16378,-0.32755 -0.0546,-0.7097 0.27296,-0.87348 0.32755,-0.16377 0.737,-0.0273 0.87348,0.30026 z m -16.48688,-3.98524 -2.53855,-5.07708 5.67761,0.30025 c 0.35485,0.0273 0.62781,0.32756 0.62781,0.68241 -0.0273,0.38214 -0.32756,0.6551 -0.7097,0.62781 l -4.53116,-0.24567 0.62781,-0.92806 2.01991,4.06712 c 0.16378,0.32756 0.0273,0.7097 -0.30025,0.87348 -0.30026,0.16378 -0.70971,0.0273 -0.87348,-0.30026 z"
       id="path913" />
  </g>
</svg>
