<?xml version="1.0" encoding="UTF-8" standalone="no"?>
<!-- Created with Inkscape (http://www.inkscape.org/) -->

<svg
   width="290.89517mm"
   height="258.57651mm"
   viewBox="0 0 290.89517 258.57651"
   version="1.1"
   id="svg5"
   inkscape:version="1.1 (c68e22c387, 2021-05-23)"
   sodipodi:docname="Universe.svg"
   xmlns:inkscape="http://www.inkscape.org/namespaces/inkscape"
   xmlns:sodipodi="http://sodipodi.sourceforge.net/DTD/sodipodi-0.dtd"
   xmlns="http://www.w3.org/2000/svg"
   xmlns:svg="http://www.w3.org/2000/svg">
  <sodipodi:namedview
     id="namedview7"
     pagecolor="#ffffff"
     bordercolor="#666666"
     borderopacity="1.0"
     inkscape:pageshadow="2"
     inkscape:pageopacity="0.0"
     inkscape:pagecheckerboard="0"
     inkscape:document-units="mm"
     showgrid="false"
     fit-margin-top="0"
     fit-margin-left="0"
     fit-margin-right="0"
     fit-margin-bottom="0"
     inkscape:zoom="0.26191078"
     inkscape:cx="479.17082"
     inkscape:cy="177.54138"
     inkscape:window-width="1288"
     inkscape:window-height="745"
     inkscape:window-x="-8"
     inkscape:window-y="-8"
     inkscape:window-maximized="1"
     inkscape:current-layer="layer1" />
  <defs
     id="defs2">
    <pattern
       id="EMFhbasepattern"
       patternUnits="userSpaceOnUse"
       width="6"
       height="6"
       x="0"
       y="0" />
    <pattern
       id="EMFhbasepattern-1"
       patternUnits="userSpaceOnUse"
       width="6"
       height="6"
       x="0"
       y="0" />
    <pattern
       id="EMFhbasepattern-5"
       patternUnits="userSpaceOnUse"
       width="6"
       height="6"
       x="0"
       y="0" />
  </defs>
  <g
     inkscape:label="圖層 1"
     inkscape:groupmode="layer"
     id="layer1"
     transform="translate(-94.504259,-67.864167)">
    <path
       style="fill:#ff0000;fill-opacity:1;fill-rule:nonzero;stroke:#ff0000;stroke-width:0.0272962px;stroke-linecap:butt;stroke-linejoin:round;stroke-miterlimit:4;stroke-dasharray:none;stroke-opacity:1"
       d="m 94.517907,111.85193 0.24567,-4.42198 0.65511,-4.36738 1.064548,-4.203613 1.473993,-4.039832 1.856138,-3.848756 2.183694,-3.63039 2.53854,-3.384722 2.8388,-3.13906 3.11176,-2.8388 3.38473,-2.538543 3.63039,-2.210988 3.84875,-1.856139 4.01254,-1.501289 4.2309,-1.06455 4.34009,-0.682404 4.50387,-0.218369 203.00153,-0.0273 4.44926,0.245665 4.3674,0.655108 4.2036,1.06455 4.03984,1.473993 3.84876,1.856138 3.6031,2.183693 3.41201,2.538543 3.13904,2.8388 2.81152,3.111762 2.53854,3.384725 2.21099,3.60309 1.85614,3.876056 1.47399,4.012539 1.09186,4.230913 0.68238,4.34008 0.21839,4.50387 v 170.68287 l -0.21839,4.44928 -0.65511,4.36738 -1.06455,4.20361 -1.50127,4.03983 -1.80155,3.84876 -2.23829,3.63039 -2.51124,3.38472 -2.81152,3.13906 -3.11176,2.8115 -3.41202,2.53854 -3.57579,2.21098 -3.87606,1.85616 -4.01252,1.47399 -4.23092,1.09183 -4.34007,0.68242 -4.50388,0.21836 H 138.49202 l -4.42198,-0.21836 -4.36738,-0.65511 -4.20361,-1.06455 -4.03983,-1.5013 -3.84876,-1.80155 -3.65768,-2.23827 -3.35743,-2.51125 -3.13906,-2.8115 -2.8388,-3.11177 -2.53854,-3.41201 -2.210991,-3.6031 -1.856139,-3.84875 -1.501289,-4.01254 -1.064554,-4.2309 -0.6824,-4.34009 -0.21837,-4.50387 z m 2.620436,170.57369 0.218369,4.2309 0.627812,4.12172 0.982661,3.95795 1.419405,3.79416 1.71965,3.60309 2.07451,3.41203 2.37477,3.19365 2.67502,2.94798 2.92069,2.64773 3.19365,2.40206 3.38472,2.07451 3.63039,1.71964 3.76687,1.41941 3.98524,1.00997 4.09443,0.65511 4.28549,0.19105 202.89234,0.0273 4.23091,-0.21836 4.12171,-0.62783 3.95796,-1.00994 3.79415,-1.39211 3.6031,-1.69237 3.41201,-2.1018 3.19365,-2.37476 2.94799,-2.64773 2.64774,-2.92069 2.40205,-3.22095 2.07451,-3.35742 1.71966,-3.63039 1.41939,-3.76687 1.00997,-3.98524 0.6551,-4.09442 0.19109,-4.3128 0.0273,-170.54639 -0.21836,-4.2309 -0.6278,-4.12172 -1.00997,-3.957953 -1.3921,-3.79416 -1.69236,-3.603096 -2.10179,-3.439316 -2.37477,-3.166353 -2.64774,-2.947985 -2.92068,-2.675024 -3.22096,-2.402062 -3.35743,-2.047212 -3.63038,-1.77425 -3.76687,-1.392104 -3.98523,-1.009958 -4.09443,-0.655108 -4.31279,-0.218369 H 138.57391 l -4.2309,0.218369 -4.12172,0.627812 -3.95795,0.982661 -3.79416,1.419401 -3.63039,1.746954 -3.41202,2.047212 -3.16636,2.374765 -2.94798,2.675024 -2.67502,2.920688 -2.37477,3.166354 -2.07451,3.412021 -1.77425,3.630388 -1.392102,3.766868 -1.009958,3.985243 -0.655108,4.09443 -0.218369,4.28549 z"
       id="path1414" />
    <text
       xml:space="preserve"
       style="font-style:normal;font-variant:normal;font-weight:700;font-size:18.7854px;line-height:125%;font-family:'微軟正黑體';text-align:start;letter-spacing:0px;word-spacing:0px;text-anchor:start;fill:#000000;fill-opacity:1;stroke:none;stroke-width:0.264583"
       x="123.63499"
       y="115.83141"
       id="text1420"><tspan
         sodipodi:role="line"
         x="123.63499"
         y="115.83141"
         id="tspan1418"
         style="stroke-width:0.264583"><tspan
           dx="0"
           dy="0"
           style="font-style:normal;font-variant:normal;font-weight:700;font-size:18.7854px;font-family:'微軟正黑體';fill:#ff0000;stroke-width:0.264583"
           id="tspan1416">外圍</tspan></tspan></text>
    <text
       xml:space="preserve"
       style="font-style:normal;font-variant:normal;font-weight:700;font-size:13.9733px;line-height:125%;font-family:'微軟正黑體';text-align:start;letter-spacing:0px;word-spacing:0px;text-anchor:start;fill:#000000;fill-opacity:1;stroke:none;stroke-width:0.264583"
       x="187.32242"
       y="98.361771"
       id="text1426"><tspan
         sodipodi:role="line"
         x="187.32242"
         y="98.361771"
         id="tspan1424"
         style="stroke-width:0.264583"><tspan
           dx="0"
           dy="0"
           style="font-style:normal;font-variant:normal;font-weight:700;font-size:13.9733px;font-family:'微軟正黑體';fill:#ffc000;stroke-width:0.264583"
           id="tspan1422">第一</tspan></tspan></text>
    <text
       xml:space="preserve"
       style="font-style:normal;font-variant:normal;font-weight:700;font-size:13.9733px;line-height:125%;font-family:'微軟正黑體';text-align:start;letter-spacing:0px;word-spacing:0px;text-anchor:start;fill:#000000;fill-opacity:1;stroke:none;stroke-width:0.264583"
       x="187.32242"
       y="114.95784"
       id="text1432"><tspan
         sodipodi:role="line"
         x="187.32242"
         y="114.95784"
         id="tspan1430"
         style="stroke-width:0.264583"><tspan
           dx="0"
           dy="0"
           style="font-style:normal;font-variant:normal;font-weight:700;font-size:13.9733px;font-family:'微軟正黑體';fill:#ffc000;stroke-width:0.264583"
           id="tspan1428">內圍</tspan></tspan></text>
    <text
       xml:space="preserve"
       style="font-style:normal;font-variant:normal;font-weight:700;font-size:13.9733px;line-height:125%;font-family:Arial;text-align:start;letter-spacing:0px;word-spacing:0px;text-anchor:start;fill:#000000;fill-opacity:1;stroke:none;stroke-width:0.264583"
       x="238.86444"
       y="221.31831"
       id="text1438"><tspan
         sodipodi:role="line"
         x="238.86444"
         y="221.31831"
         id="tspan1436"
         style="stroke-width:0.264583"><tspan
           dx="0"
           dy="0"
           style="font-style:normal;font-variant:normal;font-weight:700;font-size:13.9733px;font-family:Arial;fill:#92d050;stroke-width:0.264583"
           id="tspan1434">上層</tspan></tspan></text>
    <path
       style="fill:#92d050;fill-opacity:1;fill-rule:nonzero;stroke:#92d050;stroke-width:0.0272962px;stroke-linecap:butt;stroke-linejoin:round;stroke-miterlimit:4;stroke-dasharray:none;stroke-opacity:1"
       d="m 226.41294,210.47295 c 0,-0.0819 0.0273,-0.16378 0.0273,-0.24567 l 0.24567,-1.28292 c 0.0546,-0.16377 0.10918,-0.32755 0.21837,-0.49133 l 0.7097,-1.03725 c 0.0819,-0.13648 0.19107,-0.24567 0.32755,-0.32755 l 1.03726,-0.70971 c 0.16377,-0.10918 0.32755,-0.16377 0.49133,-0.21836 l 1.28292,-0.24567 c 0.0819,0 0.16377,-0.0273 0.24566,-0.0273 h 41.9269 c 0.0819,0 0.19107,0.0273 0.24566,0.0273 l 1.28292,0.24567 c 0.19108,0.0546 0.35486,0.10918 0.51863,0.21836 l 1.03726,0.70971 c 0.10918,0.0819 0.24566,0.19107 0.32755,0.32755 l 0.7097,1.03725 c 0.10918,0.16378 0.16378,0.32756 0.21837,0.49133 l 0.24566,1.28292 c 0,0.0819 0,0.16378 0,0.24567 v 13.10215 c 0,0.0819 0,0.19108 0,0.24567 l -0.24566,1.28292 c -0.0546,0.19107 -0.10919,0.35485 -0.21837,0.51863 l -0.7097,1.03725 c -0.0819,0.10918 -0.21837,0.24566 -0.32755,0.32755 l -1.03726,0.7097 c -0.16377,0.10919 -0.32755,0.16378 -0.51863,0.21837 l -1.28292,0.24567 c -0.0546,0 -0.16377,0 -0.24566,0 h -41.9269 c -0.0819,0 -0.16378,0 -0.24567,0 l -1.28292,-0.24567 c -0.16377,-0.0546 -0.32755,-0.10918 -0.49133,-0.21837 l -1.03725,-0.7097 c -0.13648,-0.0819 -0.24567,-0.21837 -0.32756,-0.32755 l -0.7097,-1.03725 c -0.10918,-0.16378 -0.16377,-0.32756 -0.21836,-0.51863 l -0.24567,-1.28292 c 0,-0.0546 -0.0273,-0.16378 -0.0273,-0.24567 z m 2.62043,13.10215 v -0.24566 l 0.24567,1.28292 -0.21837,-0.49133 0.7097,1.03725 -0.32755,-0.32755 1.03725,0.7097 -0.51862,-0.21837 1.28291,0.24566 -0.24566,-0.0273 h 41.9269 l -0.24567,0.0273 1.28292,-0.24566 -0.49133,0.21837 1.03725,-0.7097 -0.32755,0.32755 0.7097,-1.03725 -0.21837,0.49133 0.24566,-1.28292 -0.0273,0.24566 v -13.10215 l 0.0273,0.24566 -0.24566,-1.28292 0.21837,0.51863 -0.7097,-1.03725 0.32755,0.32755 -1.03725,-0.7097 0.49133,0.21837 -1.28292,-0.24566 h 0.24567 -41.9269 0.24566 l -1.28291,0.24566 0.51862,-0.21837 -1.03725,0.7097 0.32755,-0.32755 -0.7097,1.03725 0.21837,-0.51863 -0.24567,1.28292 v -0.24566 z"
       id="path1440" />
    <path
       style="fill:#92d050;fill-opacity:1;fill-rule:nonzero;stroke:#92d050;stroke-width:0.0272962px;stroke-linecap:butt;stroke-linejoin:round;stroke-miterlimit:4;stroke-dasharray:none;stroke-opacity:1"
       d="m 226.41294,230.12618 c 0,-0.0819 0.0273,-0.16377 0.0273,-0.24566 l 0.24567,-1.28292 c 0.0546,-0.16378 0.10918,-0.32756 0.21837,-0.49133 l 0.7097,-1.03726 c 0.0819,-0.13648 0.19107,-0.24566 0.32755,-0.32755 l 1.03726,-0.7097 c 0.16377,-0.10919 0.32755,-0.16378 0.49133,-0.21837 l 1.28292,-0.24567 c 0.0819,0 0.16377,-0.0273 0.24566,-0.0273 h 41.9269 c 0.0819,0 0.19107,0.0273 0.24566,0.0273 l 1.28292,0.24567 c 0.19108,0.0546 0.35486,0.10918 0.51863,0.21837 l 1.03726,0.7097 c 0.10918,0.0819 0.24566,0.19107 0.32755,0.32755 l 0.7097,1.03726 c 0.10918,0.16377 0.16378,0.32755 0.21837,0.49133 l 0.24566,1.28292 c 0,0.0819 0,0.16377 0,0.24566 v 13.10216 c 0,0.0819 0,0.19107 0,0.24566 l -0.24566,1.28292 c -0.0546,0.19107 -0.10919,0.35485 -0.21837,0.51863 l -0.7097,1.03725 c -0.0819,0.10919 -0.21837,0.24567 -0.32755,0.32756 l -1.03726,0.7097 c -0.16377,0.10918 -0.32755,0.16377 -0.51863,0.21837 l -1.28292,0.24566 c -0.0546,0 -0.16377,0 -0.24566,0 h -41.9269 c -0.0819,0 -0.16378,0 -0.24567,0 l -1.28292,-0.24566 c -0.16377,-0.0546 -0.32755,-0.10919 -0.49133,-0.21837 l -1.03725,-0.7097 c -0.13648,-0.0819 -0.24567,-0.21837 -0.32756,-0.32756 l -0.7097,-1.03725 c -0.10918,-0.16378 -0.16377,-0.32756 -0.21836,-0.51863 l -0.24567,-1.28292 c 0,-0.0546 -0.0273,-0.16377 -0.0273,-0.24566 z m 2.62043,13.10216 v -0.24567 l 0.24567,1.28292 -0.21837,-0.49133 0.7097,1.03725 -0.32755,-0.32755 1.03725,0.7097 -0.51862,-0.21837 1.28291,0.24567 -0.24566,-0.0273 h 41.9269 l -0.24567,0.0273 1.28292,-0.24567 -0.49133,0.21837 1.03725,-0.7097 -0.32755,0.32755 0.7097,-1.03725 -0.21837,0.49133 0.24566,-1.28292 -0.0273,0.24567 v -13.10216 l 0.0273,0.24567 -0.24566,-1.28292 0.21837,0.51862 -0.7097,-1.03725 0.32755,0.32755 -1.03725,-0.7097 0.49133,0.21837 -1.28292,-0.24566 h 0.24567 -41.9269 0.24566 l -1.28291,0.24566 0.51862,-0.21837 -1.03725,0.7097 0.32755,-0.32755 -0.7097,1.03725 0.21837,-0.51862 -0.24567,1.28292 v -0.24567 z"
       id="path1442" />
    <path
       style="fill:#92d050;fill-opacity:1;fill-rule:nonzero;stroke:#92d050;stroke-width:0.0272962px;stroke-linecap:butt;stroke-linejoin:round;stroke-miterlimit:4;stroke-dasharray:none;stroke-opacity:1"
       d="m 226.41294,249.77942 c 0,-0.0819 0.0273,-0.16378 0.0273,-0.24567 l 0.24567,-1.28292 c 0.0546,-0.16378 0.10918,-0.32755 0.21837,-0.49133 l 0.7097,-1.03725 c 0.0819,-0.13648 0.19107,-0.24567 0.32755,-0.32756 l 1.03726,-0.7097 c 0.16377,-0.10918 0.32755,-0.16378 0.49133,-0.21837 l 1.28292,-0.24566 c 0.0819,0 0.16377,-0.0273 0.24566,-0.0273 h 41.9269 c 0.0819,0 0.19107,0.0273 0.24566,0.0273 l 1.28292,0.24566 c 0.19108,0.0546 0.35486,0.10919 0.51863,0.21837 l 1.03726,0.7097 c 0.10918,0.0819 0.24566,0.19108 0.32755,0.32756 l 0.7097,1.03725 c 0.10918,0.16378 0.16378,0.32755 0.21837,0.49133 l 0.24566,1.28292 c 0,0.0819 0,0.16378 0,0.24567 v 13.10215 c 0,0.0819 0,0.19107 0,0.24567 l -0.24566,1.28291 c -0.0546,0.19108 -0.10919,0.35486 -0.21837,0.51863 l -0.7097,1.03726 c -0.0819,0.10918 -0.21837,0.24566 -0.32755,0.32755 l -1.03726,0.7097 c -0.16377,0.10918 -0.32755,0.16378 -0.51863,0.21837 l -1.28292,0.24567 c -0.0546,0 -0.16377,0 -0.24566,0 h -41.9269 c -0.0819,0 -0.16378,0 -0.24567,0 l -1.28292,-0.24567 c -0.16377,-0.0546 -0.32755,-0.10919 -0.49133,-0.21837 l -1.03725,-0.7097 c -0.13648,-0.0819 -0.24567,-0.21837 -0.32756,-0.32755 l -0.7097,-1.03726 c -0.10918,-0.16377 -0.16377,-0.32755 -0.21836,-0.51863 l -0.24567,-1.28291 c 0,-0.0546 -0.0273,-0.16378 -0.0273,-0.24567 z m 2.62043,13.10215 v -0.24567 l 0.24567,1.28292 -0.21837,-0.49132 0.7097,1.03725 -0.32755,-0.32756 1.03725,0.7097 -0.51862,-0.21837 1.28291,0.24567 -0.24566,-0.0273 h 41.9269 l -0.24567,0.0273 1.28292,-0.24567 -0.49133,0.21837 1.03725,-0.7097 -0.32755,0.32756 0.7097,-1.03725 -0.21837,0.49132 0.24566,-1.28292 -0.0273,0.24567 v -13.10215 l 0.0273,0.24566 -0.24566,-1.28292 0.21837,0.51863 -0.7097,-1.03726 0.32755,0.32756 -1.03725,-0.7097 0.49133,0.21837 -1.28292,-0.24567 h 0.24567 -41.9269 0.24566 l -1.28291,0.24567 0.51862,-0.21837 -1.03725,0.7097 0.32755,-0.32756 -0.7097,1.03726 0.21837,-0.51863 -0.24567,1.28292 v -0.24566 z"
       id="path1444" />
    <text
       xml:space="preserve"
       style="font-style:normal;font-variant:normal;font-weight:700;font-size:13.9733px;line-height:125%;font-family:Arial;text-align:start;letter-spacing:0px;word-spacing:0px;text-anchor:start;fill:#000000;fill-opacity:1;stroke:none;stroke-width:0.264583"
       x="238.86444"
       y="242.48651"
       id="text1450"><tspan
         sodipodi:role="line"
         x="238.86444"
         y="242.48651"
         id="tspan1448"
         style="stroke-width:0.264583"><tspan
           dx="0"
           dy="0"
           style="font-style:normal;font-variant:normal;font-weight:700;font-size:13.9733px;font-family:Arial;fill:#92d050;stroke-width:0.264583"
           id="tspan1446">中層</tspan></tspan></text>
    <text
       xml:space="preserve"
       style="font-style:normal;font-variant:normal;font-weight:700;font-size:13.9733px;line-height:125%;font-family:Arial;text-align:start;letter-spacing:0px;word-spacing:0px;text-anchor:start;fill:#000000;fill-opacity:1;stroke:none;stroke-width:0.264583"
       x="238.86449"
       y="262.13986"
       id="text1456"><tspan
         sodipodi:role="line"
         x="238.86449"
         y="262.13986"
         id="tspan1454"
         style="stroke-width:0.264583"><tspan
           dx="0"
           dy="0"
           style="font-style:normal;font-variant:normal;font-weight:700;font-size:13.9733px;font-family:Arial;fill:#92d050;stroke-width:0.264583"
           id="tspan1452">下層</tspan></tspan></text>
    <path
       style="fill:#ffc000;fill-opacity:1;fill-rule:nonzero;stroke:#ffc000;stroke-width:0.0272962px;stroke-linecap:butt;stroke-linejoin:round;stroke-miterlimit:4;stroke-dasharray:none;stroke-opacity:1"
       d="m 101.50573,168.27309 0.19107,-3.13906 0.43674,-3.11176 0.79159,-3.00258 1.03725,-2.89339 1.31022,-2.72962 1.55588,-2.59313 1.82884,-2.42936 2.01992,-2.23829 2.21099,-2.01991 2.42935,-1.82884 2.59314,-1.58318 2.72961,-1.31022 2.8934,-1.06455 2.97528,-0.79158 3.11176,-0.46404 3.22095,-0.16378 214.62969,-0.0273 3.16635,0.19107 3.08446,0.43674 3.02987,0.79159 2.89341,1.03725 2.7296,1.31022 2.59315,1.55588 2.42935,1.82884 2.211,2.01992 2.04721,2.21099 1.80155,2.42935 1.58316,2.59314 1.31021,2.72962 1.06456,2.89339 0.79158,2.97528 0.46405,3.11176 0.16378,3.22095 v 120.29416 l -0.16378,3.16636 -0.43675,3.08446 -0.79158,3.02988 -1.03725,2.89339 -1.31021,2.72961 -1.55588,2.59314 -1.80155,2.40206 -2.04722,2.23829 -2.21099,2.04721 -2.40207,1.80155 -2.59313,1.58317 -2.72962,1.31022 -2.89338,1.06455 -2.97529,0.79158 -3.13905,0.46405 -3.19365,0.16378 H 132.89631 l -3.13906,-0.16378 -3.11176,-0.43674 -3.00258,-0.7916 -2.89339,-1.03725 -2.72962,-1.31022 -2.59313,-1.55588 -2.42936,-1.80154 -2.23828,-2.04721 -2.01992,-2.211 -1.82884,-2.37476 -1.58318,-2.62043 -1.31022,-2.72962 -1.06455,-2.89339 -0.79158,-2.97528 -0.46404,-3.13906 -0.16378,-3.19365 z m 2.62043,120.18498 0.16378,2.94799 0.40944,2.83879 0.73699,2.75692 0.95537,2.67502 1.20103,2.51125 1.4194,2.34747 1.66507,2.21099 1.85613,2.04721 2.01992,1.88343 2.21099,1.63777 2.37477,1.4467 2.51124,1.20103 2.67503,0.98266 2.70232,0.737 2.86609,0.43674 3.00258,0.13648 214.52049,0.0273 2.94799,-0.16377 2.83882,-0.40945 2.7569,-0.73699 2.67502,-0.95537 2.51124,-1.20103 2.37477,-1.4194 2.18371,-1.63777 2.04719,-1.88343 1.88343,-2.01992 1.63777,-2.18369 1.44672,-2.37477 1.20102,-2.51124 0.98267,-2.67503 0.73699,-2.72961 0.43675,-2.8388 0.13647,-3.02988 0.0273,-120.15768 -0.16378,-2.97528 -0.40944,-2.81151 -0.737,-2.75691 -0.95538,-2.67502 -1.20103,-2.51125 -1.41941,-2.37476 -1.63777,-2.211 -1.88343,-2.04721 -2.04719,-1.85614 -2.15641,-1.66506 -2.37477,-1.4467 -2.51124,-1.20103 -2.67501,-0.98266 -2.72963,-0.737 -2.83879,-0.43674 -3.02988,-0.16377 H 132.9782 l -2.97529,0.16377 -2.8115,0.40945 -2.75691,0.73699 -2.67502,0.95537 -2.51125,1.20103 -2.37477,1.4194 -2.21098,1.66507 -2.04722,1.85614 -1.85613,2.01991 -1.66507,2.21099 -1.4467,2.37476 -1.20103,2.51125 -0.98266,2.67502 -0.737,2.70232 -0.43673,2.8661 -0.16378,3.00258 z"
       id="path1458" />
    <text
       xml:space="preserve"
       style="font-style:normal;font-variant:normal;font-weight:700;font-size:13.9733px;line-height:125%;font-family:Arial;text-align:start;letter-spacing:0px;word-spacing:0px;text-anchor:start;fill:#000000;fill-opacity:1;stroke:none;stroke-width:0.264583"
       x="345.61768"
       y="223.02356"
       id="text1464"><tspan
         sodipodi:role="line"
         x="345.61768"
         y="223.02356"
         id="tspan1462"
         style="stroke-width:0.264583"><tspan
           dx="0"
           dy="0"
           style="font-style:normal;font-variant:normal;font-weight:700;font-size:13.9733px;font-family:Arial;fill:#0070c0;stroke-width:0.264583"
           id="tspan1460">特</tspan></tspan></text>
    <text
       xml:space="preserve"
       style="font-style:normal;font-variant:normal;font-weight:700;font-size:13.9733px;line-height:125%;font-family:Arial;text-align:start;letter-spacing:0px;word-spacing:0px;text-anchor:start;fill:#000000;fill-opacity:1;stroke:none;stroke-width:0.264583"
       x="345.61768"
       y="239.61961"
       id="text1470"><tspan
         sodipodi:role="line"
         x="345.61768"
         y="239.61961"
         id="tspan1468"
         style="stroke-width:0.264583"><tspan
           dx="0"
           dy="0"
           style="font-style:normal;font-variant:normal;font-weight:700;font-size:13.9733px;font-family:Arial;fill:#0070c0;stroke-width:0.264583"
           id="tspan1466">殊</tspan></tspan></text>
    <text
       xml:space="preserve"
       style="font-style:normal;font-variant:normal;font-weight:700;font-size:13.9733px;line-height:125%;font-family:Arial;text-align:start;letter-spacing:0px;word-spacing:0px;text-anchor:start;fill:#000000;fill-opacity:1;stroke:none;stroke-width:0.264583"
       x="345.61768"
       y="256.6524"
       id="text1476"><tspan
         sodipodi:role="line"
         x="345.61768"
         y="256.6524"
         id="tspan1474"
         style="stroke-width:0.264583"><tspan
           dx="0"
           dy="0"
           style="font-style:normal;font-variant:normal;font-weight:700;font-size:13.9733px;font-family:Arial;fill:#0070c0;stroke-width:0.264583"
           id="tspan1472">層</tspan></tspan></text>
    <path
       style="fill:#0070c0;fill-opacity:1;fill-rule:nonzero;stroke:#0070c0;stroke-width:0.0272962px;stroke-linecap:butt;stroke-linejoin:round;stroke-miterlimit:4;stroke-dasharray:none;stroke-opacity:1"
       d="m 109.36702,190.2465 0.13648,-2.34747 0.35485,-2.34747 0.57322,-2.23829 0.76429,-2.21099 1.00996,-2.07451 1.17374,-1.93802 1.36481,-1.82885 1.52858,-1.69236 1.66507,-1.52858 1.82884,-1.36481 1.96532,-1.20103 2.01992,-1.00996 2.21098,-0.79159 2.26559,-0.57321 2.32017,-0.38215 2.42936,-0.10919 209.11586,-0.0273 2.37477,0.13648 2.34747,0.35485 2.23827,0.57322 2.21099,0.76429 2.07452,1.00996 1.93802,1.20103 1.80155,1.33751 1.71966,1.52859 1.5013,1.66506 1.3648,1.82884 1.20102,1.96533 1.00997,2.01991 0.79158,2.21099 0.57322,2.26558 0.38216,2.32018 0.10917,2.42935 v 89.44951 l -0.10917,2.37477 -0.35486,2.34747 -0.57322,2.23828 -0.7643,2.21099 -1.00994,2.07451 -1.20105,1.93803 -1.33749,1.80154 -1.5013,1.69236 -1.71966,1.52859 -1.80155,1.36481 -1.91072,1.17373 -2.04721,1.03725 -2.21099,0.79159 -2.2656,0.57322 -2.32016,0.38215 -2.42936,0.10918 H 133.03279 l -2.34747,-0.10918 -2.34747,-0.35485 -2.23829,-0.57322 -2.21098,-0.76429 -2.07451,-1.00996 -1.93803,-1.17374 -1.82884,-1.3648 -1.69236,-1.50129 -1.52859,-1.69236 -1.3648,-1.82885 -1.17374,-1.91073 -1.03726,-2.04721 -0.79158,-2.21099 -0.57322,-2.26558 -0.38215,-2.32017 -0.10918,-2.42936 z m 2.62043,89.34032 0.10919,2.1564 0.32755,2.1018 0.51863,1.99262 0.6824,1.93803 0.87348,1.82884 1.06455,1.74695 1.20103,1.61048 1.36481,1.52858 1.47399,1.33751 1.61047,1.20103 1.77425,1.06455 1.80155,0.90078 1.93803,0.7097 2.01991,0.51862 2.07451,0.35485 2.21099,0.0819 209.00668,0.0273 2.1564,-0.10919 2.1018,-0.32755 1.99263,-0.51863 1.93802,-0.6824 1.82885,-0.87348 1.74694,-1.06455 1.63777,-1.22832 1.47399,-1.28292 1.3648,-1.52859 1.22833,-1.63777 1.03727,-1.71966 0.90078,-1.80154 0.70969,-1.93803 0.51863,-2.01992 0.35484,-2.0745 0.0819,-2.23829 0.0273,-89.31302 -0.10919,-2.1564 -0.32756,-2.10181 -0.51861,-1.99262 -0.68241,-1.93802 -0.90077,-1.85614 -1.03725,-1.74696 -1.20105,-1.61047 -1.33749,-1.50129 -1.5013,-1.36481 -1.63777,-1.22832 -1.71966,-1.03726 -1.80155,-0.90077 -1.93802,-0.7097 -2.01991,-0.51863 -2.07451,-0.35485 -2.23829,-0.10918 H 133.11468 l -2.1564,0.10918 -2.1018,0.32756 -1.99262,0.51862 -1.93803,0.68241 -1.85614,0.90077 -1.74695,1.03726 -1.61048,1.20102 -1.50128,1.36481 -1.36481,1.474 -1.20103,1.61047 -1.06455,1.77425 -0.90078,1.80155 -0.7097,1.93802 -0.51862,2.01992 -0.35485,2.07451 -0.10919,2.21099 z"
       id="path1478" />
    <text
       xml:space="preserve"
       style="font-style:normal;font-variant:normal;font-weight:700;font-size:13.9733px;line-height:125%;font-family:Arial;text-align:start;letter-spacing:0px;word-spacing:0px;text-anchor:start;fill:#000000;fill-opacity:1;stroke:none;stroke-width:0.264583"
       x="151.71312"
       y="157.3219"
       id="text1484"><tspan
         sodipodi:role="line"
         x="151.71312"
         y="157.3219"
         id="tspan1482"
         style="stroke-width:0.264583"><tspan
           dx="0"
           dy="0"
           style="font-style:normal;font-variant:normal;font-weight:700;font-size:13.9733px;font-family:Arial;fill:#ffc000;stroke-width:0.264583"
           id="tspan1480">第二內圍</tspan></tspan></text>
    <text
       xml:space="preserve"
       style="font-style:normal;font-variant:normal;font-weight:700;font-size:13.9733px;line-height:125%;font-family:'微軟正黑體';text-align:start;letter-spacing:0px;word-spacing:0px;text-anchor:start;fill:#000000;fill-opacity:1;stroke:none;stroke-width:0.264583"
       x="295.41876"
       y="226.10869"
       id="text1490"><tspan
         sodipodi:role="line"
         x="295.41876"
         y="226.10869"
         id="tspan1488"
         style="stroke-width:0.264583"><tspan
           dx="0"
           dy="0"
           style="font-style:normal;font-variant:normal;font-weight:700;font-size:13.9733px;font-family:'微軟正黑體';fill:#92d050;stroke-width:0.264583"
           id="tspan1486">終</tspan></tspan></text>
    <text
       xml:space="preserve"
       style="font-style:normal;font-variant:normal;font-weight:700;font-size:13.9733px;line-height:125%;font-family:'微軟正黑體';text-align:start;letter-spacing:0px;word-spacing:0px;text-anchor:start;fill:#000000;fill-opacity:1;stroke:none;stroke-width:0.264583"
       x="295.41876"
       y="242.70476"
       id="text1496"><tspan
         sodipodi:role="line"
         x="295.41876"
         y="242.70476"
         id="tspan1494"
         style="stroke-width:0.264583"><tspan
           dx="0"
           dy="0"
           style="font-style:normal;font-variant:normal;font-weight:700;font-size:13.9733px;font-family:'微軟正黑體';fill:#92d050;stroke-width:0.264583"
           id="tspan1492">界</tspan></tspan></text>
    <text
       xml:space="preserve"
       style="font-style:normal;font-variant:normal;font-weight:700;font-size:13.9733px;line-height:125%;font-family:'微軟正黑體';text-align:start;letter-spacing:0px;word-spacing:0px;text-anchor:start;fill:#000000;fill-opacity:1;stroke:none;stroke-width:0.264583"
       x="295.41876"
       y="259.73755"
       id="text1502"><tspan
         sodipodi:role="line"
         x="295.41876"
         y="259.73755"
         id="tspan1500"
         style="stroke-width:0.264583"><tspan
           dx="0"
           dy="0"
           style="font-style:normal;font-variant:normal;font-weight:700;font-size:13.9733px;font-family:'微軟正黑體';fill:#92d050;stroke-width:0.264583"
           id="tspan1498">層</tspan></tspan></text>
    <path
       style="fill:#92d050;fill-opacity:1;fill-rule:nonzero;stroke:#92d050;stroke-width:0.0272962px;stroke-linecap:butt;stroke-linejoin:round;stroke-miterlimit:4;stroke-dasharray:none;stroke-opacity:1"
       d="m 290.17677,211.20994 0.10918,-0.92806 c 0,-0.10919 0.0273,-0.19108 0.0546,-0.30026 l 0.24567,-0.737 c 0.0273,-0.10918 0.0819,-0.19107 0.13648,-0.30026 l 0.84618,-1.28292 c 0.10918,-0.13648 0.24567,-0.27296 0.38215,-0.38214 l 1.28292,-0.84618 c 0.10918,-0.0546 0.19107,-0.10919 0.30025,-0.13648 l 0.737,-0.24567 c 0.10918,-0.0273 0.19107,-0.0546 0.30026,-0.0546 l 0.81888,-0.0819 16.13204,-0.0273 0.95536,0.10919 c 0.10919,0 0.19107,0.0273 0.30026,0.0546 l 0.737,0.24567 c 0.10918,0.0273 0.21837,0.0819 0.30025,0.16377 l 1.25563,0.84618 c 0.13648,0.0819 0.27296,0.19108 0.35485,0.32756 l 0.87347,1.28292 c 0.0819,0.13648 0.13648,0.24566 0.16378,0.38214 l 0.21837,0.737 c 0.0273,0.0819 0.0546,0.16378 0.0546,0.24567 l 0.0819,0.81888 v 51.07111 l -0.0819,0.95537 c 0,0.0819 -0.0273,0.16377 -0.0546,0.24566 l -0.21837,0.737 c -0.0273,0.13648 -0.0819,0.27296 -0.16378,0.38214 l -0.87347,1.25563 c -0.0819,0.13648 -0.19108,0.24566 -0.32756,0.32755 l -1.25562,0.87348 c -0.10918,0.0819 -0.24566,0.13648 -0.38215,0.16377 l -0.73699,0.21838 c -0.0819,0.0273 -0.16378,0.0546 -0.24567,0.0546 l -0.81888,0.0819 h -16.15933 l -0.92807,-0.0819 c -0.0819,0 -0.16378,-0.0273 -0.24567,-0.0546 l -0.73699,-0.21838 c -0.13648,-0.0273 -0.24567,-0.0819 -0.38215,-0.16377 l -1.28292,-0.87348 c -0.13648,-0.0819 -0.24566,-0.21837 -0.32755,-0.35485 L 290.75,264.46474 c -0.0819,-0.0819 -0.13648,-0.19108 -0.16378,-0.30026 l -0.24567,-0.73699 c -0.0273,-0.10919 -0.0546,-0.19108 -0.0546,-0.30026 l -0.0819,-0.81889 z m 2.62043,50.85275 0.0819,0.81888 -0.0546,-0.30026 0.24566,0.737 -0.16377,-0.30026 0.84618,1.25562 -0.35485,-0.35485 1.28292,0.87348 -0.35485,-0.19107 0.73699,0.21837 -0.24566,-0.0273 0.6824,0.0546 15.91366,0.0273 0.81889,-0.0819 -0.24567,0.0273 0.737,-0.21837 -0.38215,0.19107 1.25563,-0.87348 -0.32756,0.32756 0.87348,-1.25562 -0.19108,0.38214 0.21837,-0.737 -0.0273,0.24567 0.0546,-0.7097 0.0273,-50.82545 -0.0819,-0.81888 0.0273,0.24567 -0.21837,-0.737 0.19108,0.35485 -0.87348,-1.28292 0.35485,0.35485 -1.25562,-0.84618 0.30025,0.16378 -0.73699,-0.24567 0.30026,0.0546 -0.7097,-0.0819 H 295.636 l -0.81889,0.0819 0.30026,-0.0546 -0.737,0.24567 0.30026,-0.13648 -1.28291,0.84618 0.38214,-0.38215 -0.84618,1.28292 0.13648,-0.30026 -0.24566,0.737 0.0546,-0.30026 -0.0819,0.6824 z"
       id="path1504" />
    <path
       style="fill:#92d050;fill-opacity:1;fill-rule:nonzero;stroke:#92d050;stroke-width:0.0272962px;stroke-linecap:butt;stroke-linejoin:round;stroke-miterlimit:4;stroke-dasharray:none;stroke-opacity:1"
       d="m 145.61632,211.20994 0.10918,-0.92806 c 0,-0.10919 0.0273,-0.19108 0.0546,-0.30026 l 0.24567,-0.737 c 0.0273,-0.10918 0.0819,-0.19107 0.13648,-0.30026 l 0.84618,-1.28292 c 0.10918,-0.13648 0.24566,-0.27296 0.38214,-0.38214 l 1.28292,-0.84618 c 0.10919,-0.0546 0.19108,-0.10919 0.30026,-0.13648 l 0.737,-0.24567 c 0.10918,-0.0273 0.19107,-0.0546 0.30026,-0.0546 l 0.81888,-0.0819 16.13203,-0.0273 0.95536,0.10919 c 0.10919,0 0.19108,0.0273 0.30026,0.0546 l 0.737,0.24567 c 0.10918,0.0273 0.21837,0.0819 0.30026,0.16377 l 1.25562,0.84618 c 0.13648,0.0819 0.27296,0.19108 0.35485,0.32756 l 0.87348,1.28292 c 0.0819,0.13648 0.13648,0.24566 0.16377,0.38214 l 0.21837,0.737 c 0.0273,0.0819 0.0546,0.16378 0.0546,0.24567 l 0.0819,0.81888 v 51.07111 l -0.0819,0.95537 c 0,0.0819 -0.0273,0.16377 -0.0546,0.24566 l -0.21837,0.737 c -0.0273,0.13648 -0.0819,0.27296 -0.16377,0.38214 l -0.87348,1.25563 c -0.0819,0.13648 -0.19107,0.24566 -0.32756,0.32755 l -1.25562,0.87348 c -0.10918,0.0819 -0.24566,0.13648 -0.38214,0.16377 l -0.737,0.21838 c -0.0819,0.0273 -0.16378,0.0546 -0.24567,0.0546 l -0.81888,0.0819 h -16.15933 l -0.92806,-0.0819 c -0.0819,0 -0.16378,-0.0273 -0.24567,-0.0546 l -0.737,-0.21838 c -0.13648,-0.0273 -0.24566,-0.0819 -0.38214,-0.16377 l -1.28292,-0.87348 c -0.13648,-0.0819 -0.24567,-0.21837 -0.32756,-0.35485 l -0.84618,-1.25562 c -0.0819,-0.0819 -0.13648,-0.19108 -0.16377,-0.30026 l -0.24567,-0.73699 c -0.0273,-0.10919 -0.0546,-0.19108 -0.0546,-0.30026 l -0.0819,-0.81889 z m 2.62043,50.85275 0.0819,0.81888 -0.0546,-0.30026 0.24566,0.737 -0.16377,-0.30026 0.84618,1.25562 -0.35485,-0.35485 1.28292,0.87348 -0.35485,-0.19107 0.73699,0.21837 -0.24566,-0.0273 0.6824,0.0546 15.91366,0.0273 0.81889,-0.0819 -0.24567,0.0273 0.737,-0.21837 -0.38215,0.19107 1.25562,-0.87348 -0.32755,0.32756 0.87348,-1.25562 -0.19108,0.38214 0.21837,-0.737 -0.0273,0.24567 0.0546,-0.7097 0.0273,-50.82545 -0.0819,-0.81888 0.0273,0.24567 -0.21837,-0.737 0.19108,0.35485 -0.87348,-1.28292 0.35485,0.35485 -1.25562,-0.84618 0.30026,0.16378 -0.737,-0.24567 0.30026,0.0546 -0.7097,-0.0819 h -15.88637 l -0.81888,0.0819 0.30026,-0.0546 -0.737,0.24567 0.30026,-0.13648 -1.28292,0.84618 0.38214,-0.38215 -0.84618,1.28292 0.13648,-0.30026 -0.24566,0.737 0.0546,-0.30026 -0.0819,0.6824 z"
       id="path1506" />
    <text
       xml:space="preserve"
       style="font-style:normal;font-variant:normal;font-weight:700;font-size:13.9733px;line-height:125%;font-family:'微軟正黑體';text-align:start;letter-spacing:0px;word-spacing:0px;text-anchor:start;fill:#000000;fill-opacity:1;stroke:none;stroke-width:0.264583"
       x="150.79974"
       y="222.83313"
       id="text1512"><tspan
         sodipodi:role="line"
         x="150.79974"
         y="222.83313"
         id="tspan1510"
         style="stroke-width:0.264583"><tspan
           dx="0"
           dy="0"
           style="font-style:normal;font-variant:normal;font-weight:700;font-size:13.9733px;font-family:'微軟正黑體';fill:#92d050;stroke-width:0.264583"
           id="tspan1508">異</tspan></tspan></text>
    <text
       xml:space="preserve"
       style="font-style:normal;font-variant:normal;font-weight:700;font-size:13.9733px;line-height:125%;font-family:'微軟正黑體';text-align:start;letter-spacing:0px;word-spacing:0px;text-anchor:start;fill:#000000;fill-opacity:1;stroke:none;stroke-width:0.264583"
       x="150.79974"
       y="239.4292"
       id="text1518"><tspan
         sodipodi:role="line"
         x="150.79974"
         y="239.4292"
         id="tspan1516"
         style="stroke-width:0.264583"><tspan
           dx="0"
           dy="0"
           style="font-style:normal;font-variant:normal;font-weight:700;font-size:13.9733px;font-family:'微軟正黑體';fill:#92d050;stroke-width:0.264583"
           id="tspan1514">界</tspan></tspan></text>
    <text
       xml:space="preserve"
       style="font-style:normal;font-variant:normal;font-weight:700;font-size:13.9733px;line-height:125%;font-family:'微軟正黑體';text-align:start;letter-spacing:0px;word-spacing:0px;text-anchor:start;fill:#000000;fill-opacity:1;stroke:none;stroke-width:0.264583"
       x="150.79974"
       y="256.46198"
       id="text1524"><tspan
         sodipodi:role="line"
         x="150.79974"
         y="256.46198"
         id="tspan1522"
         style="stroke-width:0.264583"><tspan
           dx="0"
           dy="0"
           style="font-style:normal;font-variant:normal;font-weight:700;font-size:13.9733px;font-family:'微軟正黑體';fill:#92d050;stroke-width:0.264583"
           id="tspan1520">層</tspan></tspan></text>
    <text
       xml:space="preserve"
       style="font-style:normal;font-variant:normal;font-weight:700;font-size:13.9733px;line-height:125%;font-family:'微軟正黑體';text-align:start;letter-spacing:0px;word-spacing:0px;text-anchor:start;fill:#000000;fill-opacity:1;stroke:none;stroke-width:0.264583"
       x="179.97273"
       y="232.65982"
       id="text1530"><tspan
         sodipodi:role="line"
         x="179.97273"
         y="232.65982"
         id="tspan1528"
         style="stroke-width:0.264583"><tspan
           dx="0"
           dy="0"
           style="font-style:normal;font-variant:normal;font-weight:700;font-size:13.9733px;font-family:'微軟正黑體';fill:#92d050;stroke-width:0.264583"
           id="tspan1526">虛空層</tspan></tspan></text>
    <path
       style="fill:#92d050;fill-opacity:1;fill-rule:nonzero;stroke:#92d050;stroke-width:0.0272962px;stroke-linecap:butt;stroke-linejoin:round;stroke-miterlimit:4;stroke-dasharray:none;stroke-opacity:1"
       d="m 169.63694,213.74849 0.16377,-1.4467 c 0,-0.0819 0.0273,-0.16378 0.0546,-0.24567 l 0.38215,-1.22832 c 0.0273,-0.0819 0.0546,-0.16378 0.0819,-0.21837 l 0.60052,-1.11914 c 0.0546,-0.0819 0.10918,-0.16378 0.16377,-0.24567 l 0.81889,-0.95537 c 0.0546,-0.0546 0.0819,-0.0819 0.13648,-0.13648 l 0.95536,-0.81888 c 0.0819,-0.0546 0.16378,-0.10918 0.24567,-0.16378 l 1.11914,-0.60051 c 0.0546,-0.0273 0.13648,-0.0546 0.21837,-0.0819 l 1.22833,-0.38215 c 0.0819,-0.0273 0.16377,-0.0546 0.24566,-0.0546 l 1.31022,-0.13648 42.93686,-0.0273 1.44669,0.16378 c 0.0819,0 0.19107,0.0273 0.24567,0.0546 l 1.25562,0.38215 c 0.10919,0.0273 0.19107,0.0546 0.27296,0.0819 l 1.09185,0.60051 c 0.0546,0.0546 0.13648,0.10919 0.19107,0.16378 l 0.98266,0.81888 c 0.0546,0.0273 0.13648,0.10919 0.16378,0.16378 l 0.79159,0.95537 c 0.0546,0.0546 0.10918,0.13648 0.16377,0.21837 l 0.60052,1.11914 c 0.0273,0.0546 0.0546,0.13648 0.0819,0.21837 l 0.38215,1.22832 c 0.0273,0.0819 0.0546,0.16378 0.0546,0.24567 l 0.13648,1.31022 v 26.34079 l -0.13648,1.4467 c 0,0.0819 -0.0273,0.19107 -0.0546,0.24566 l -0.38215,1.25562 c -0.0273,0.10919 -0.0546,0.19108 -0.0819,0.27296 l -0.60052,1.09185 c -0.0546,0.0546 -0.0819,0.10919 -0.13648,0.19107 l -0.79158,0.98267 c -0.0546,0.0546 -0.13649,0.13648 -0.19108,0.19107 l -0.98266,0.79159 c -0.0819,0.0546 -0.13648,0.0819 -0.19107,0.13648 l -1.09185,0.60051 c -0.0819,0.0273 -0.16377,0.0546 -0.27296,0.0819 l -1.25562,0.38215 c -0.0546,0.0273 -0.16378,0.0546 -0.24567,0.0546 l -1.31021,0.13648 h -42.93686 l -1.4467,-0.13648 c -0.0819,0 -0.16377,-0.0273 -0.24566,-0.0546 l -1.22833,-0.38215 c -0.0819,-0.0273 -0.16378,-0.0546 -0.21837,-0.0819 l -1.11914,-0.60051 c -0.0819,-0.0546 -0.16378,-0.10919 -0.21837,-0.16378 l -0.95537,-0.79159 c -0.0546,-0.0273 -0.13648,-0.10918 -0.16377,-0.16377 l -0.81889,-0.98267 c -0.0546,-0.0546 -0.10918,-0.13648 -0.16377,-0.19107 l -0.60052,-1.09185 c -0.0273,-0.0819 -0.0546,-0.16377 -0.0819,-0.27296 l -0.38215,-1.25562 c -0.0273,-0.0546 -0.0546,-0.16378 -0.0546,-0.24566 l -0.13648,-1.31022 z m 2.62043,26.06783 0.13648,1.31021 -0.0546,-0.24566 0.38214,1.25562 -0.0819,-0.24567 0.60052,1.09185 -0.16378,-0.19107 0.81889,0.98266 -0.16378,-0.16378 0.95537,0.79159 -0.21837,-0.16377 1.11914,0.60051 -0.21837,-0.0819 1.22833,0.38215 -0.27296,-0.0546 1.17373,0.10919 42.6639,0.0273 1.31021,-0.13649 -0.24567,0.0546 1.25563,-0.38215 -0.24567,0.0819 1.09185,-0.60051 -0.19107,0.13648 0.98266,-0.79159 -0.19108,0.19107 0.79159,-0.98266 -0.13648,0.19107 0.60052,-1.09185 -0.0819,0.24567 0.38215,-1.25562 -0.0546,0.24566 0.10918,-1.17373 0.0273,-26.06783 -0.13648,-1.31022 0.0546,0.27296 -0.38215,-1.22832 0.0819,0.21837 -0.60051,-1.11915 0.16377,0.21837 -0.79159,-0.95536 0.16378,0.16377 -0.98266,-0.81888 0.19107,0.16378 -1.09184,-0.60052 0.24566,0.0819 -1.25562,-0.38215 0.24566,0.0546 -1.17373,-0.13648 h -42.6639 l -1.31021,0.13648 0.27296,-0.0546 -1.22833,0.38215 0.21837,-0.0819 -1.11914,0.60052 0.24567,-0.16378 -0.95537,0.81888 0.13648,-0.13648 -0.81888,0.95537 0.16377,-0.24567 -0.60051,1.11915 0.0819,-0.21837 -0.38215,1.22832 0.0546,-0.27296 -0.13648,1.17374 z"
       id="path1532" />
    <text
       xml:space="preserve"
       style="font-style:normal;font-variant:normal;font-weight:700;font-size:13.9733px;line-height:125%;font-family:'微軟正黑體';text-align:start;letter-spacing:0px;word-spacing:0px;text-anchor:start;fill:#000000;fill-opacity:1;stroke:none;stroke-width:0.264583"
       x="243.00697"
       y="118.01514"
       id="text1538"><tspan
         sodipodi:role="line"
         x="243.00697"
         y="118.01514"
         id="tspan1536"
         style="stroke-width:0.264583"><tspan
           dx="0"
           dy="0"
           style="font-style:normal;font-variant:normal;font-weight:700;font-size:13.9733px;font-family:'微軟正黑體';fill:#ffc000;stroke-width:0.264583"
           id="tspan1534">第三</tspan></tspan></text>
    <path
       style="fill:#ffc000;fill-opacity:1;fill-rule:nonzero;stroke:#ffc000;stroke-width:0.0272962px;stroke-linecap:butt;stroke-linejoin:round;stroke-miterlimit:4;stroke-dasharray:none;stroke-opacity:1"
       d="m 286.71016,98.831657 c -0.0273,-0.10918 -0.0273,-0.19107 0,-0.30025 l 0.21837,-1.96533 c 0,-0.0819 0.0273,-0.16377 0.0546,-0.24566 l 0.60051,-1.856141 c 0.0273,-0.109185 0.0546,-0.191074 0.10918,-0.272962 l 0.98267,-1.665065 c 0.0546,-0.08189 0.10918,-0.136481 0.16377,-0.191072 l 1.28293,-1.446697 c 0.0273,-0.08189 0.10918,-0.136482 0.16377,-0.163777 l 1.52859,-1.201031 c 0.0546,-0.05459 0.13648,-0.109185 0.19107,-0.13648 l 1.80155,-0.928071 c 0.0819,-0.05459 0.16377,-0.08189 0.24566,-0.109183 l 1.96533,-0.57322 c 0.0819,0 0.16378,-0.0273 0.24566,-0.0273 l 2.10181,-0.191074 c 0.0819,-0.02729 0.16377,-0.02729 0.24566,0 l 2.1291,0.191074 c 0.0819,0 0.16378,0.0273 0.24567,0.0273 l 1.96532,0.57322 c 0.0819,0.02729 0.16378,0.05459 0.24567,0.109183 l 1.77425,0.928071 c 0.0546,0.02729 0.13648,0.08189 0.19107,0.109183 l 1.55588,1.201031 c 0.0546,0.05459 0.10919,0.109186 0.16378,0.191074 l 1.28292,1.446697 c 0.0819,0.05459 0.10918,0.13648 0.16378,0.218369 l 0.95536,1.665065 c 0.0546,0.05459 0.0819,0.163777 0.10919,0.245665 l 0.60051,1.856141 c 0.0273,0.0819 0.0546,0.16378 0.0546,0.24566 l 0.21837,1.96533 c 0.0273,0.10918 0.0273,0.19107 0,0.30025 l -0.21837,1.992623 c 0,0.0819 -0.0273,0.16378 -0.0546,0.24567 l -0.60051,1.82884 c -0.0273,0.10919 -0.0546,0.19108 -0.10919,0.24567 l -0.95536,1.66506 c -0.0273,0.0819 -0.0819,0.16378 -0.13649,0.21837 l -1.28292,1.47399 c -0.0546,0.0546 -0.13648,0.13648 -0.19107,0.16378 l -1.55588,1.20103 c -0.0819,0.0546 -0.13648,0.10919 -0.21837,0.13648 l -1.77425,0.90078 c -0.0546,0.0546 -0.13648,0.0819 -0.21837,0.10918 l -1.96532,0.57322 c -0.0819,0 -0.16378,0.0273 -0.24567,0.0273 l -2.1291,0.19107 c -0.0819,0.0273 -0.16377,0.0273 -0.24566,0 l -2.10181,-0.19107 c -0.0819,0 -0.16377,-0.0273 -0.24566,-0.0273 l -1.96533,-0.57322 c -0.0819,-0.0273 -0.13648,-0.0546 -0.21837,-0.10918 l -1.80154,-0.90078 c -0.0819,-0.0273 -0.16378,-0.0819 -0.21837,-0.13648 l -1.52859,-1.20103 c -0.0819,-0.0546 -0.13648,-0.10918 -0.19107,-0.16378 l -1.28292,-1.47399 c -0.0546,-0.0546 -0.0819,-0.13648 -0.13648,-0.19107 l -0.98266,-1.66507 c -0.0546,-0.0819 -0.0819,-0.16377 -0.10919,-0.27296 l -0.60051,-1.82884 c -0.0273,-0.0819 -0.0546,-0.16378 -0.0546,-0.24567 z m 2.8115,1.692373 -0.0546,-0.27297 0.60052,1.82885 -0.10919,-0.24567 0.98266,1.66507 -0.13648,-0.19108 1.28292,1.474 -0.19107,-0.16378 1.52858,1.20103 -0.21837,-0.13648 1.80155,0.90077 -0.21837,-0.10918 1.96533,0.57322 -0.24567,-0.0273 2.1018,0.19107 h -0.24566 l 2.1291,-0.19107 -0.24567,0.0273 1.96533,-0.57322 -0.21837,0.10918 1.77425,-0.90077 -0.21837,0.10918 1.55588,-1.20103 -0.19107,0.19108 1.28291,-1.474 -0.13648,0.21837 0.95537,-1.66506 -0.10919,0.21837 0.60052,-1.82885 -0.0546,0.27297 0.21837,-1.992623 v 0.30025 l -0.21837,-1.96532 0.0546,0.24567 -0.60052,-1.856142 0.10919,0.245665 -0.95537,-1.665065 0.16378,0.218369 -1.28292,-1.446697 0.16378,0.163777 -1.55588,-1.201031 0.19107,0.13648 -1.77425,-0.928068 0.24567,0.109185 -1.96533,-0.573219 0.24567,0.0273 -2.1291,-0.191075 h 0.24566 l -2.1018,0.191075 0.24567,-0.0273 -1.96533,0.573219 0.21837,-0.109185 -1.80155,0.928068 0.21837,-0.13648 -1.52858,1.201031 0.16378,-0.163777 -1.28292,1.446697 0.16377,-0.191074 -0.98266,1.665067 0.10919,-0.272962 -0.60052,1.856142 0.0546,-0.24567 -0.21837,1.96532 v -0.30025 z"
       id="path1540" />
    <path
       style="fill:#ffc000;fill-opacity:1;fill-rule:nonzero;stroke:#ffc000;stroke-width:0.0272962px;stroke-linecap:butt;stroke-linejoin:round;stroke-miterlimit:4;stroke-dasharray:none;stroke-opacity:1"
       d="m 301.12253,122.19717 c -0.0273,-0.10918 -0.0273,-0.19107 0,-0.30025 l 0.21837,-2.01992 c 0,-0.0819 0.0273,-0.16378 0.0546,-0.24566 l 0.60052,-1.88344 c 0.0273,-0.0819 0.0546,-0.16378 0.10918,-0.24566 l 0.98266,-1.71966 c 0.0273,-0.0819 0.0819,-0.16378 0.13649,-0.21837 l 1.28292,-1.47399 c 0.0546,-0.0546 0.10918,-0.10919 0.16377,-0.16378 l 1.52858,-1.22833 c 0.0819,-0.0546 0.16378,-0.10918 0.21838,-0.13648 l 1.80154,-0.92807 c 0.0819,-0.0546 0.16378,-0.0819 0.21837,-0.0819 l 1.96532,-0.60051 c 0.10919,-0.0273 0.19108,-0.0546 0.27297,-0.0546 l 2.1018,-0.19108 c 0.0819,-0.0273 0.16378,-0.0273 0.24567,0 l 2.1291,0.19108 c 0.0819,0 0.16377,0.0273 0.24566,0.0546 l 1.96532,0.60051 c 0.0819,0 0.16378,0.0546 0.24567,0.0819 l 1.77425,0.92807 c 0.0546,0.0273 0.13648,0.0819 0.19107,0.13648 l 1.55588,1.22833 c 0.0819,0.0546 0.13649,0.10919 0.19108,0.16378 l 1.28292,1.47399 c 0.0546,0.0546 0.10918,0.13648 0.13648,0.21837 l 0.95536,1.71966 c 0.0546,0.0819 0.0819,0.16377 0.10919,0.24566 l 0.60051,1.88344 c 0.0273,0.0819 0.0546,0.16377 0.0546,0.24566 l 0.21837,2.01992 c 0.0273,0.10918 0.0273,0.19107 0,0.30025 l -0.21837,2.01992 c 0,0.0819 -0.0273,0.16378 -0.0546,0.24567 l -0.60051,1.91073 c -0.0273,0.0819 -0.0546,0.16377 -0.10919,0.24566 l -0.95536,1.69237 c -0.0273,0.0819 -0.0819,0.13648 -0.13648,0.21836 l -1.28292,1.50129 c -0.0546,0.0546 -0.13648,0.10919 -0.19108,0.16378 l -1.55588,1.20103 c -0.0546,0.0546 -0.13648,0.10919 -0.19107,0.13648 l -1.77425,0.92807 c -0.0819,0.0273 -0.16378,0.0819 -0.24567,0.0819 l -1.96532,0.60051 c -0.0819,0.0273 -0.16378,0.0546 -0.24566,0.0546 l -2.1291,0.19107 c -0.0819,0.0273 -0.16378,0.0273 -0.24567,0 l -2.1018,-0.19107 c -0.0819,0 -0.16378,-0.0273 -0.27297,-0.0546 l -1.96532,-0.60051 c -0.0546,0 -0.13648,-0.0546 -0.21837,-0.0819 l -1.80154,-0.92807 c -0.0546,-0.0273 -0.13649,-0.0819 -0.19108,-0.13648 l -1.52858,-1.20103 c -0.0819,-0.0546 -0.13648,-0.10918 -0.19107,-0.16378 l -1.28292,-1.50129 c -0.0546,-0.0819 -0.10919,-0.13648 -0.13649,-0.19107 l -0.98266,-1.69236 c -0.0546,-0.0819 -0.0819,-0.19107 -0.10918,-0.27296 l -0.60052,-1.91073 c -0.0273,-0.0819 -0.0546,-0.16378 -0.0546,-0.24567 z m 2.81151,1.71966 -0.0546,-0.24566 0.60052,1.91073 -0.10919,-0.27296 0.98267,1.69236 -0.13648,-0.19107 1.28291,1.50129 -0.19107,-0.16378 1.52859,1.20103 -0.21837,-0.13648 1.80154,0.92807 -0.21837,-0.0819 1.96533,0.60051 -0.24567,-0.0546 2.10181,0.19108 h -0.24567 l 2.1291,-0.19108 -0.27296,0.0546 1.96532,-0.60051 -0.21837,0.0819 1.77425,-0.92807 -0.19107,0.10918 1.55588,-1.20103 -0.19107,0.19108 1.28292,-1.50129 -0.13648,0.21837 0.95536,-1.69237 -0.10918,0.24567 0.60051,-1.91073 -0.0546,0.24566 0.21837,-2.01991 v 0.30025 l -0.21837,-2.01991 0.0546,0.24567 -0.60051,-1.88344 0.10918,0.24567 -0.95536,-1.71966 0.13648,0.21837 -1.28292,-1.474 0.19107,0.16378 -1.55588,-1.22833 0.19107,0.13648 -1.77425,-0.92806 0.21837,0.0819 -1.96532,-0.60052 0.27296,0.0546 -2.1291,-0.19107 h 0.24567 l -2.10181,0.19107 0.24567,-0.0546 -1.96533,0.60052 0.21837,-0.0819 -1.80154,0.92806 0.24566,-0.13648 -1.52858,1.22833 0.16377,-0.16378 -1.28291,1.474 0.13648,-0.21837 -0.98267,1.71966 0.10919,-0.24567 -0.60052,1.88344 0.0546,-0.24567 -0.21838,2.01991 v -0.30025 z"
       id="path1542" />
    <path
       style="fill:#ffc000;fill-opacity:1;fill-rule:nonzero;stroke:#ffc000;stroke-width:0.0272962px;stroke-linecap:butt;stroke-linejoin:round;stroke-miterlimit:4;stroke-dasharray:none;stroke-opacity:1"
       d="m 323.83293,109.09502 c -0.0273,-0.10918 -0.0273,-0.19107 0,-0.30026 l 0.21837,-2.01991 c 0,-0.0819 0.0273,-0.16378 0.0546,-0.27297 l 0.62781,-1.88343 c 0.0273,-0.0819 0.0546,-0.16378 0.10918,-0.21837 l 0.98266,-1.71966 c 0.0273,-0.0819 0.0819,-0.16377 0.16378,-0.21837 l 1.31022,-1.47399 c 0.0546,-0.0819 0.10918,-0.13648 0.16377,-0.16378 l 1.58318,-1.228323 c 0.0546,-0.0546 0.13648,-0.10919 0.21837,-0.13648 l 1.82884,-0.92807 c 0.0546,-0.0546 0.13648,-0.0819 0.21837,-0.0819 l 1.99262,-0.60052 c 0.0819,-0.0273 0.16378,-0.0546 0.24567,-0.0546 l 2.15639,-0.19107 c 0.0819,-0.0273 0.16378,-0.0273 0.24567,0 l 2.15639,0.19107 c 0.0819,0 0.16378,0.0273 0.24567,0.0273 l 2.01991,0.60051 c 0.0819,0.0273 0.16378,0.0546 0.21837,0.10919 l 1.80155,0.92807 c 0.0819,0.0273 0.16378,0.0819 0.21837,0.13648 l 1.58318,1.228323 c 0.0546,0.0273 0.10918,0.0819 0.16377,0.16378 l 1.31022,1.47399 c 0.0819,0.0546 0.10918,0.13648 0.16378,0.21837 l 0.98266,1.71966 c 0.0546,0.0546 0.0819,0.13648 0.10917,0.21837 l 0.62783,1.88343 c 0.0273,0.10919 0.0546,0.19108 0.0546,0.27297 l 0.21836,2.01991 c 0.0273,0.10919 0.0273,0.19108 0,0.30026 l -0.21836,2.01991 c 0,0.0819 -0.0273,0.16378 -0.0546,0.24567 l -0.62783,1.91073 c -0.0273,0.10919 -0.0546,0.19108 -0.10917,0.27296 l -0.98266,1.69237 c -0.0546,0.0546 -0.0819,0.13648 -0.13649,0.19107 l -1.31021,1.50129 c -0.0819,0.0546 -0.13648,0.13648 -0.21837,0.19107 l -1.58318,1.20103 c -0.0546,0.0273 -0.10918,0.0819 -0.19107,0.10919 l -1.80155,0.92806 c -0.0546,0.0546 -0.13648,0.0819 -0.21837,0.0819 l -2.01991,0.60052 c -0.0819,0.0273 -0.16378,0.0546 -0.24567,0.0546 l -2.15639,0.19107 c -0.0819,0.0273 -0.16378,0.0273 -0.24567,0 l -2.15639,-0.19107 c -0.0819,0 -0.16378,-0.0273 -0.24567,-0.0546 l -1.99262,-0.60052 c -0.0819,0 -0.16378,-0.0273 -0.21837,-0.0819 l -1.82884,-0.92806 c -0.0819,-0.0273 -0.13648,-0.0819 -0.21837,-0.10919 l -1.58318,-1.20103 c -0.0546,-0.0546 -0.13648,-0.13648 -0.19107,-0.19107 l -1.31022,-1.50129 c -0.0546,-0.0546 -0.10918,-0.13648 -0.13648,-0.19107 l -0.98266,-1.69237 c -0.0546,-0.0819 -0.0819,-0.16377 -0.10918,-0.27296 l -0.62781,-1.91073 c -0.0273,-0.0819 -0.0546,-0.16378 -0.0546,-0.24567 z m 2.81151,1.71966 -0.0546,-0.27297 0.62781,1.91074 -0.10919,-0.24567 0.98266,1.69236 -0.13648,-0.19107 1.31022,1.50129 -0.21837,-0.19108 1.58318,1.20104 -0.19108,-0.10919 1.82885,0.92807 -0.21837,-0.0819 1.99262,0.60052 -0.24567,-0.0546 2.1564,0.19107 h -0.24567 l 2.1564,-0.19107 -0.24567,0.0273 2.01992,-0.60051 -0.24567,0.10918 1.80155,-0.92807 -0.19107,0.10919 1.58317,-1.20104 -0.19107,0.19108 1.31022,-1.50129 -0.13648,0.19107 0.98266,-1.69236 -0.10919,0.24567 0.62781,-1.91074 -0.0546,0.27297 0.21837,-2.01992 v 0.30026 l -0.21837,-2.01992 0.0546,0.27296 -0.62781,-1.88343 0.10919,0.21837 -0.98266,-1.71966 0.16377,0.21837 -1.31021,-1.47399 0.16377,0.16378 -1.58317,-1.22833 0.19107,0.13648 -1.80155,-0.92807 0.24567,0.0819 -2.01992,-0.60052 0.24567,0.0546 -2.1564,-0.19108 h 0.24567 l -2.1564,0.19108 0.24567,-0.0546 -1.99262,0.60052 0.21837,-0.0819 -1.82885,0.92807 0.21837,-0.13648 -1.58317,1.22833 0.16377,-0.16378 -1.31021,1.47399 0.16377,-0.21837 -0.98266,1.71966 0.10919,-0.21837 -0.62781,1.88343 0.0546,-0.27296 -0.21837,2.01992 v -0.30026 z"
       id="path1544" />
    <path
       style="fill:#0070c0;fill-opacity:1;fill-rule:nonzero;stroke:#0070c0;stroke-width:0.0272962px;stroke-linecap:butt;stroke-linejoin:round;stroke-miterlimit:4;stroke-dasharray:none;stroke-opacity:1"
       d="m 134.26112,204.79535 0.32755,-3.00258 c 0,-0.0819 0.0273,-0.16378 0.0546,-0.24567 l 0.81889,-2.64772 c 0.0273,-0.0819 0.0546,-0.16378 0.0819,-0.21837 l 1.31021,-2.42936 c 0.0546,-0.0819 0.0819,-0.16378 0.13648,-0.21837 l 1.71966,-2.1018 c 0.0546,-0.0546 0.13648,-0.13648 0.19107,-0.19108 l 2.10181,-1.71966 c 0.0546,-0.0546 0.13648,-0.0819 0.21837,-0.13648 l 2.42935,-1.31021 c 0.0546,-0.0273 0.13649,-0.0546 0.21837,-0.0819 l 2.64773,-0.81888 c 0.0819,-0.0273 0.16378,-0.0546 0.24566,-0.0546 l 2.8661,-0.30025 177.88906,-0.0273 3.00258,0.32755 c 0.10919,0 0.19107,0.0273 0.27296,0.0546 l 2.67503,0.81888 c 0.0819,0.0273 0.16378,0.0546 0.21837,0.0819 l 2.40206,1.31021 c 0.0819,0.0546 0.16378,0.0819 0.21837,0.13648 l 2.1018,1.71966 c 0.0546,0.0546 0.13648,0.13648 0.19107,0.19108 l 1.71966,2.1018 c 0.0546,0.0546 0.0819,0.13648 0.13648,0.21837 l 1.31022,2.42936 c 0.0273,0.0546 0.0546,0.13648 0.0819,0.21837 l 0.81888,2.64772 c 0.0273,0.0819 0.0546,0.16378 0.0546,0.24567 l 0.30025,2.8661 v 56.91249 l -0.30025,3.00257 c 0,0.10919 -0.0273,0.19108 -0.0546,0.27296 l -0.81888,2.67503 c -0.0273,0.0819 -0.0546,0.16377 -0.0819,0.21837 l -1.31022,2.40206 c -0.0546,0.0819 -0.0819,0.16377 -0.13648,0.21837 l -1.71966,2.1018 c -0.0546,0.0546 -0.13648,0.13648 -0.19107,0.19108 l -2.1018,1.71965 c -0.0546,0.0546 -0.13648,0.0819 -0.21837,0.13648 l -2.40206,1.31022 c -0.0546,0.0273 -0.13648,0.0546 -0.21837,0.0819 l -2.67503,0.81888 c -0.0819,0.0273 -0.16377,0.0546 -0.27296,0.0546 l -2.8661,0.30026 H 149.76533 l -3.00257,-0.30026 c -0.0819,0 -0.16378,-0.0273 -0.24567,-0.0546 l -2.64772,-0.81888 c -0.0819,-0.0273 -0.16378,-0.0546 -0.21838,-0.0819 l -2.42935,-1.31022 c -0.0819,-0.0546 -0.16378,-0.0819 -0.21837,-0.13648 l -2.10181,-1.71965 c -0.0546,-0.0546 -0.13648,-0.13648 -0.19107,-0.19108 l -1.71966,-2.1018 c -0.0546,-0.0546 -0.0819,-0.13648 -0.13648,-0.21837 l -1.31021,-2.40206 c -0.0273,-0.0546 -0.0546,-0.13648 -0.0819,-0.21837 l -0.81889,-2.67503 c -0.0273,-0.0819 -0.0546,-0.16377 -0.0546,-0.27296 l -0.30026,-2.86609 z m 2.62043,56.63952 0.30025,2.8661 -0.0546,-0.24566 0.81889,2.67502 -0.0819,-0.24567 1.31021,2.40207 -0.13648,-0.19108 1.71966,2.10181 -0.19107,-0.19108 2.1018,1.71966 -0.21837,-0.13648 2.42936,1.31022 -0.21837,-0.0819 2.64773,0.81888 -0.27296,-0.0546 2.72962,0.27296 177.61609,0.0273 2.8661,-0.30026 -0.24567,0.0546 2.67503,-0.81888 -0.24567,0.0819 2.40207,-1.31022 -0.19108,0.13648 2.10181,-1.71966 -0.19108,0.19108 1.71966,-2.10181 -0.13648,0.19108 1.31022,-2.40207 -0.0819,0.24567 0.81888,-2.67502 -0.0546,0.24566 0.27296,-2.72961 0.0273,-56.63953 -0.30026,-2.8661 0.0546,0.27296 -0.81888,-2.64772 0.0819,0.21836 -1.31022,-2.42935 0.13648,0.21837 -1.71966,-2.10181 0.19108,0.19108 -2.10181,-1.71966 0.19108,0.13648 -2.40207,-1.31022 0.24567,0.0819 -2.67503,-0.81888 0.24567,0.0546 -2.72962,-0.30026 h -177.6161 l -2.86609,0.30026 0.27296,-0.0546 -2.64773,0.81888 0.21837,-0.0819 -2.42936,1.31022 0.21837,-0.13648 -2.1018,1.71966 0.19107,-0.19108 -1.71966,2.10181 0.13648,-0.21837 -1.31021,2.42935 0.0819,-0.21836 -0.81889,2.64772 0.0546,-0.27296 -0.30025,2.72962 z"
       id="path1546" />
    <text
       xml:space="preserve"
       style="font-style:normal;font-variant:normal;font-weight:700;font-size:13.9733px;line-height:125%;font-family:'微軟正黑體';text-align:start;letter-spacing:0px;word-spacing:0px;text-anchor:start;fill:#000000;fill-opacity:1;stroke:none;stroke-width:0.264583"
       x="116.61594"
       y="222.83313"
       id="text1552"><tspan
         sodipodi:role="line"
         x="116.61594"
         y="222.83313"
         id="tspan1550"
         style="stroke-width:0.264583"><tspan
           dx="0"
           dy="0"
           style="font-style:normal;font-variant:normal;font-weight:700;font-size:13.9733px;font-family:'微軟正黑體';fill:#0070c0;stroke-width:0.264583"
           id="tspan1548">特</tspan></tspan></text>
    <text
       xml:space="preserve"
       style="font-style:normal;font-variant:normal;font-weight:700;font-size:13.9733px;line-height:125%;font-family:'微軟正黑體';text-align:start;letter-spacing:0px;word-spacing:0px;text-anchor:start;fill:#000000;fill-opacity:1;stroke:none;stroke-width:0.264583"
       x="116.61594"
       y="239.4292"
       id="text1558"><tspan
         sodipodi:role="line"
         x="116.61594"
         y="239.4292"
         id="tspan1556"
         style="stroke-width:0.264583"><tspan
           dx="0"
           dy="0"
           style="font-style:normal;font-variant:normal;font-weight:700;font-size:13.9733px;font-family:'微軟正黑體';fill:#0070c0;stroke-width:0.264583"
           id="tspan1554">殊</tspan></tspan></text>
    <text
       xml:space="preserve"
       style="font-style:normal;font-variant:normal;font-weight:700;font-size:13.9733px;line-height:125%;font-family:'微軟正黑體';text-align:start;letter-spacing:0px;word-spacing:0px;text-anchor:start;fill:#000000;fill-opacity:1;stroke:none;stroke-width:0.264583"
       x="116.61594"
       y="256.46198"
       id="text1564"><tspan
         sodipodi:role="line"
         x="116.61594"
         y="256.46198"
         id="tspan1562"
         style="stroke-width:0.264583"><tspan
           dx="0"
           dy="0"
           style="font-style:normal;font-variant:normal;font-weight:700;font-size:13.9733px;font-family:'微軟正黑體';fill:#0070c0;stroke-width:0.264583"
           id="tspan1560">層</tspan></tspan></text>
    <text
       xml:space="preserve"
       style="font-style:normal;font-variant:normal;font-weight:700;font-size:13.9733px;line-height:125%;font-family:'微軟正黑體';text-align:start;letter-spacing:0px;word-spacing:0px;text-anchor:start;fill:#000000;fill-opacity:1;stroke:none;stroke-width:0.264583"
       x="217.76132"
       y="294.89548"
       id="text1570"><tspan
         sodipodi:role="line"
         x="217.76132"
         y="294.89548"
         id="tspan1568"
         style="stroke-width:0.264583"><tspan
           dx="0"
           dy="0"
           style="font-style:normal;font-variant:normal;font-weight:700;font-size:13.9733px;font-family:'微軟正黑體';fill:#0070c0;stroke-width:0.264583"
           id="tspan1566">特殊層</tspan></tspan></text>
    <text
       xml:space="preserve"
       style="font-style:normal;font-variant:normal;font-weight:700;font-size:13.9733px;line-height:125%;font-family:'微軟正黑體';text-align:start;letter-spacing:0px;word-spacing:0px;text-anchor:start;fill:#000000;fill-opacity:1;stroke:none;stroke-width:0.264583"
       x="217.76132"
       y="183.5264"
       id="text1576"><tspan
         sodipodi:role="line"
         x="217.76132"
         y="183.5264"
         id="tspan1574"
         style="stroke-width:0.264583"><tspan
           dx="0"
           dy="0"
           style="font-style:normal;font-variant:normal;font-weight:700;font-size:13.9733px;font-family:'微軟正黑體';fill:#0070c0;stroke-width:0.264583"
           id="tspan1572">特殊層</tspan></tspan></text>
    <path
       style="fill:#ffc000;fill-opacity:1;fill-rule:nonzero;stroke:#ffc000;stroke-width:0.0272962px;stroke-linecap:butt;stroke-linejoin:round;stroke-miterlimit:4;stroke-dasharray:none;stroke-opacity:1"
       d="m 236.92197,112.0703 0.10918,-2.1564 0.30026,-2.0745 0.54592,-2.01992 0.737,-1.93803 0.92807,-1.82884 1.09184,-1.74695 2.59314,-3.057173 c 0.0546,-0.0546 0.10918,-0.10919 0.19107,-0.16378 l 3.05717,-2.402062 1.82884,-1.091845 1.88344,-0.873477 1.99262,-0.736997 2.15639,-0.491331 2.10181,-0.327555 2.23828,-0.109183 2.23829,0.109183 2.15639,0.30026 2.07451,0.491329 2.04721,0.7097 1.88344,0.873479 1.82884,1.037254 c 0.0546,0.02729 0.0819,0.05459 0.13648,0.109183 l 3.02988,2.402062 c 0.0819,0.0546 0.13648,0.10919 0.19107,0.16378 l 2.51124,2.920693 c 0.0273,0.0546 0.0819,0.10918 0.10919,0.16377 l 1.00996,1.61048 0.92807,1.82884 0.73699,1.91073 0.57322,2.01992 0.32756,2.0745 0.10918,2.1564 -0.10918,2.1564 -0.30026,2.0745 -0.54592,2.01992 -0.737,1.91073 -0.92807,1.85614 -1.06455,1.74696 c -0.0273,0.0546 -0.0819,0.10918 -0.10919,0.16377 l -2.51124,2.89339 c -0.0546,0.0546 -0.10919,0.10919 -0.19107,0.16378 l -3.02988,2.40206 c -0.0546,0.0546 -0.0819,0.0819 -0.13648,0.10919 l -1.69236,0.98266 -1.93803,0.87347 -1.96532,0.737 -2.1291,0.49133 -2.1564,0.32756 -2.21099,0.10918 -2.23828,-0.10918 -2.1564,-0.30026 -2.07451,-0.49133 -2.04721,-0.7097 -1.88343,-0.87348 -1.80155,-1.03725 -3.19365,-2.51125 c -0.0819,-0.0546 -0.13648,-0.10918 -0.19107,-0.16378 l -2.48395,-2.89339 c -0.0273,-0.0546 -0.0819,-0.10918 -0.10919,-0.16377 l -1.03725,-1.63778 -0.92807,-1.82884 -0.737,-1.93803 -0.57322,-1.99262 -0.32755,-2.0745 z m 2.70232,1.74695 0.27296,1.80155 0.46403,1.74696 0.62781,1.69236 0.81889,1.61047 1.03725,1.63777 -0.10918,-0.16378 2.48395,2.8934 -0.19108,-0.16378 2.92069,2.29288 1.58318,0.92806 1.66507,0.7643 1.71965,0.65511 1.91073,0.43673 1.88344,0.30026 1.96532,0.10919 1.99262,-0.10919 1.91073,-0.27296 1.82885,-0.43674 1.80154,-0.62781 1.66507,-0.76429 1.69236,-0.98266 -0.13648,0.10918 3.02987,-2.40206 -0.19107,0.16378 2.51124,-2.8934 -0.10918,0.16378 0.95536,-1.52859 0.81889,-1.61047 0.62781,-1.66506 0.49133,-1.74696 0.30026,-1.80154 0.10919,-1.88344 -0.10919,-1.88343 -0.27296,-1.80155 -0.46403,-1.77425 -0.62782,-1.66507 -0.81888,-1.61047 -1.00996,-1.61047 0.10918,0.16377 -2.51124,-2.920693 0.19107,0.16378 -3.02987,-2.40206 0.13648,0.10918 -1.55588,-0.92806 -1.71966,-0.764298 -1.74695,-0.655105 -1.82885,-0.43674 -1.93802,-0.300257 -1.96533,-0.109186 -1.96532,0.109186 -1.93803,0.27296 -1.82884,0.436739 -1.77425,0.627812 -1.66507,0.764289 -1.55588,0.87348 -3.05717,2.40206 0.19108,-0.16378 -2.37477,2.756923 -0.98266,1.50129 -0.81889,1.58317 -0.62781,1.69236 -0.49133,1.74696 -0.30025,1.80155 -0.10919,1.88343 z"
       id="path1578" />
    <path
       style="fill:#ffc000;fill-opacity:1;fill-rule:nonzero;stroke:#ffc000;stroke-width:0.0272962px;stroke-linecap:butt;stroke-linejoin:round;stroke-miterlimit:4;stroke-dasharray:none;stroke-opacity:1"
       d="m 174.03162,102.02531 0.13648,-2.811503 0.40944,-2.72961 0.7097,-2.647732 0.98266,-2.565839 1.20104,-2.402062 1.41939,-2.265582 1.61048,-2.1291 1.88343,-1.965322 2.01992,-1.774251 2.21099,-1.583177 2.32017,-1.364808 2.51125,-1.173735 2.64772,-0.928069 2.72962,-0.655108 2.8115,-0.436738 2.92069,-0.136481 2.92069,0.136481 2.8661,0.409442 2.72961,0.655108 2.62044,0.900773 2.51124,1.173735 2.34747,1.364808 2.18369,1.555881 2.04722,1.77425 1.85613,1.938026 1.63777,2.129102 1.4467,2.265579 1.22833,2.402062 0.95536,2.56584 0.737,2.620427 0.43674,2.72962 0.13648,2.811503 -0.13648,2.81151 -0.40944,2.75691 -0.7097,2.64773 -0.95537,2.51124 -1.22833,2.42936 -1.4194,2.26558 -1.63777,2.1291 -1.85614,1.96533 -2.01991,1.77425 -2.21099,1.58317 -2.32017,1.36481 -2.48395,1.17374 -2.64773,0.92807 -2.72962,0.6824 -2.86609,0.40944 -2.8934,0.13648 -2.92069,-0.13648 -2.8115,-0.38214 -2.75691,-0.68241 -2.62043,-0.90077 -2.53855,-1.17374 -2.34746,-1.3648 -2.1837,-1.55588 -2.04721,-1.77426 -1.85614,-1.93802 -1.66506,-2.1291 -1.4194,-2.26558 -1.20103,-2.40206 -0.98267,-2.51125 -0.73699,-2.64773 -0.43674,-2.75691 z m 2.72961,2.40207 0.38215,2.48395 0.62781,2.37476 0.87348,2.29288 1.09184,2.18369 1.28292,2.04721 1.474,1.91073 1.69236,1.77425 1.82884,1.61048 2.01992,1.4467 2.1291,1.25562 2.26558,1.06455 2.40206,0.84618 2.48395,0.62781 2.59313,0.38215 2.64773,0.13648 2.67503,-0.13648 2.59313,-0.35485 2.51125,-0.62781 2.37476,-0.81889 2.26559,-1.06455 2.15639,-1.25562 1.99262,-1.4194 1.85614,-1.61048 1.66506,-1.74695 1.50129,-1.91073 1.31022,-2.04721 1.11914,-2.1564 0.84618,-2.29288 0.65511,-2.37476 0.40944,-2.48395 0.13648,-2.53855 -0.13648,-2.538543 -0.38214,-2.45665 -0.65511,-2.402063 -0.81889,-2.292877 -1.11914,-2.183694 -1.31021,-2.04721 -1.4467,-1.910731 -1.69236,-1.774251 -1.82885,-1.610474 -2.01991,-1.446697 -2.1291,-1.255623 -2.23829,-1.06455 -2.40206,-0.846181 -2.51124,-0.600515 -2.59314,-0.409443 -2.64773,-0.13648 -2.64772,0.13648 -2.59314,0.382147 -2.51124,0.600515 -2.37477,0.818885 -2.29288,1.06455 -2.15639,1.255624 -1.99262,1.4194 -1.85614,1.610473 -1.69236,1.746954 -1.474,1.910731 -1.31021,2.047211 -1.09185,2.183693 -0.87348,2.292877 -0.6551,2.374769 -0.40945,2.45665 -0.13648,2.538543 z"
       id="path1580" />
    <path
       style="fill:#ffc000;fill-opacity:1;fill-rule:nonzero;stroke:#ffc000;stroke-width:0.0272962px;stroke-linecap:butt;stroke-linejoin:round;stroke-miterlimit:4;stroke-dasharray:none;stroke-opacity:1"
       d="m 346.98008,95.992857 c -0.0273,-0.10918 -0.0273,-0.191069 0,-0.300252 l 0.21836,-2.019917 c 0,-0.08189 0.0273,-0.163777 0.0546,-0.245666 l 0.60053,-1.883433 c 0.0273,-0.08189 0.0546,-0.163777 0.10919,-0.245666 l 0.98266,-1.719659 c 0.0273,-0.08189 0.0819,-0.163777 0.13648,-0.218369 l 1.28291,-1.473994 c 0.0546,-0.05459 0.10919,-0.109183 0.16378,-0.163777 l 1.5286,-1.228325 c 0.0819,-0.05459 0.16378,-0.109186 0.21836,-0.136483 l 1.80155,-0.928068 c 0.0819,-0.05459 0.16377,-0.08189 0.21836,-0.08189 l 1.96532,-0.600514 c 0.1092,-0.0273 0.19109,-0.05459 0.27297,-0.05459 l 2.1018,-0.191072 c 0.0819,-0.0273 0.16378,-0.0273 0.24567,0 l 2.1291,0.191072 c 0.0819,0 0.16378,0.0273 0.24566,0.05459 l 1.96533,0.600514 c 0.0819,0 0.16378,0.05459 0.24566,0.08189 l 1.77425,0.928068 c 0.0546,0.0273 0.1365,0.08189 0.19108,0.136483 l 1.55588,1.228325 c 0.0819,0.05459 0.13647,0.109186 0.19108,0.163777 l 1.28292,1.473994 c 0.0546,0.05459 0.10916,0.13648 0.13647,0.218369 l 0.95536,1.719659 c 0.0546,0.08189 0.0819,0.163777 0.10919,0.245666 l 0.60052,1.883433 c 0.0273,0.08189 0.0546,0.163778 0.0546,0.245666 l 0.21836,2.019917 c 0.0273,0.109183 0.0273,0.191072 0,0.300252 l -0.21836,2.01992 c 0,0.0819 -0.0273,0.16378 -0.0546,0.24566 l -0.60052,1.910743 c -0.0273,0.0819 -0.0546,0.16377 -0.10919,0.24566 l -0.95536,1.69236 c -0.0273,0.0819 -0.0819,0.13648 -0.13647,0.21837 l -1.28292,1.50129 c -0.0546,0.0546 -0.13649,0.10919 -0.19108,0.16378 l -1.55588,1.20103 c -0.0546,0.0546 -0.13647,0.10918 -0.19108,0.13648 l -1.77425,0.92807 c -0.0819,0.0273 -0.16377,0.0819 -0.24566,0.0819 l -1.96533,0.60051 c -0.0819,0.0273 -0.16377,0.0546 -0.24566,0.0546 l -2.1291,0.19107 c -0.0819,0.0273 -0.16378,0.0273 -0.24567,0 l -2.1018,-0.19107 c -0.0819,0 -0.16377,-0.0273 -0.27297,-0.0546 l -1.96532,-0.60051 c -0.0546,0 -0.13647,-0.0546 -0.21836,-0.0819 l -1.80155,-0.92807 c -0.0546,-0.0273 -0.13647,-0.0819 -0.19108,-0.13648 l -1.52858,-1.20103 c -0.0819,-0.0546 -0.13647,-0.10919 -0.19108,-0.16378 l -1.28291,-1.50129 c -0.0546,-0.0819 -0.1092,-0.13648 -0.13648,-0.19107 l -0.98266,-1.69236 c -0.0546,-0.0819 -0.0819,-0.19108 -0.10919,-0.27296 l -0.60053,-1.910743 c -0.0273,-0.0819 -0.0546,-0.16377 -0.0546,-0.24566 z m 2.81149,1.71966 -0.0546,-0.24566 0.60053,1.91073 -0.10919,-0.27296 0.98266,1.692363 -0.13647,-0.19108 1.28291,1.50129 -0.19108,-0.16377 1.5286,1.20103 -0.21839,-0.13648 1.80155,0.92807 -0.21836,-0.0819 1.96533,0.60051 -0.24567,-0.0546 2.1018,0.19107 h -0.24567 l 2.1291,-0.19107 -0.27297,0.0546 1.96533,-0.60051 -0.21836,0.0819 1.77424,-0.92807 -0.19106,0.10918 1.55589,-1.20103 -0.19109,0.19107 1.28292,-1.50129 -0.13648,0.21837 0.95536,-1.692363 -0.10917,0.24567 0.6005,-1.91073 -0.0546,0.24566 0.21836,-2.019912 v 0.300252 l -0.21836,-2.019912 0.0546,0.245666 -0.6005,-1.883434 0.10917,0.245666 -0.95536,-1.71966 0.13648,0.218369 -1.28292,-1.473991 0.19109,0.163777 -1.55589,-1.228328 0.19106,0.13648 -1.77424,-0.928069 0.21836,0.08189 -1.96533,-0.600514 0.27297,0.05459 -2.1291,-0.191074 h 0.24567 l -2.1018,0.191074 0.24567,-0.05459 -1.96533,0.600514 0.21836,-0.08189 -1.80155,0.928069 0.24567,-0.13648 -1.52858,1.228328 0.16378,-0.163777 -1.28291,1.473991 0.13647,-0.218369 -0.98266,1.71966 0.10919,-0.245666 -0.60053,1.883434 0.0546,-0.245666 -0.21836,2.019912 v -0.300252 z"
       id="path1582" />
  </g>
</svg>
