<?xml version="1.0" encoding="UTF-8" standalone="no"?>
<!-- Created with Inkscape (http://www.inkscape.org/) -->

<svg
   width="261.63367mm"
   height="261.63367mm"
   viewBox="0 0 261.63366 261.63366"
   version="1.1"
   id="svg5"
   inkscape:version="1.1 (c68e22c387, 2021-05-23)"
   sodipodi:docname="Boundary.svg"
   xmlns:inkscape="http://www.inkscape.org/namespaces/inkscape"
   xmlns:sodipodi="http://sodipodi.sourceforge.net/DTD/sodipodi-0.dtd"
   xmlns="http://www.w3.org/2000/svg"
   xmlns:svg="http://www.w3.org/2000/svg">
  <sodipodi:namedview
     id="namedview7"
     pagecolor="#ffffff"
     bordercolor="#666666"
     borderopacity="1.0"
     inkscape:pageshadow="2"
     inkscape:pageopacity="0.0"
     inkscape:pagecheckerboard="0"
     inkscape:document-units="mm"
     showgrid="false"
     fit-margin-top="0"
     fit-margin-left="0"
     fit-margin-right="0"
     fit-margin-bottom="0"
     inkscape:zoom="0.26191077"
     inkscape:cx="437.17178"
     inkscape:cy="414.26322"
     inkscape:window-width="1288"
     inkscape:window-height="745"
     inkscape:window-x="-8"
     inkscape:window-y="-8"
     inkscape:window-maximized="1"
     inkscape:current-layer="layer1" />
  <defs
     id="defs2">
    <pattern
       id="EMFhbasepattern"
       patternUnits="userSpaceOnUse"
       width="6"
       height="6"
       x="0"
       y="0" />
    <pattern
       id="EMFhbasepattern-2"
       patternUnits="userSpaceOnUse"
       width="6"
       height="6"
       x="0"
       y="0" />
  </defs>
  <g
     inkscape:label="圖層 1"
     inkscape:groupmode="layer"
     id="layer1"
     transform="translate(20.246187,-109.61079)">
    <text
       xml:space="preserve"
       style="font-style:normal;font-variant:normal;font-weight:700;font-size:13.9733px;line-height:125%;font-family:'微軟正黑體';text-align:start;letter-spacing:0px;word-spacing:0px;text-anchor:start;fill:#000000;fill-opacity:1;stroke:none;stroke-width:0.264583"
       x="105.62782"
       y="215.22787"
       id="text1100"><tspan
         sodipodi:role="line"
         x="105.62782"
         y="215.22787"
         id="tspan1098"
         style="stroke-width:0.264583"><tspan
           dx="0"
           dy="0"
           style="font-style:normal;font-variant:normal;font-weight:700;font-size:13.9733px;font-family:'微軟正黑體';fill:#92d050;stroke-width:0.264583"
           id="tspan1096">上層</tspan></tspan></text>
    <path
       style="fill:#92d050;fill-opacity:1;fill-rule:nonzero;stroke:#92d050;stroke-width:0.0272962px;stroke-linecap:butt;stroke-linejoin:round;stroke-miterlimit:4;stroke-dasharray:none;stroke-opacity:1"
       d="m 94.629701,201.06657 0.13648,-1.14644 c 0,-0.0819 0.0273,-0.13648 0.0273,-0.21837 l 0.27296,-0.92806 c 0.0273,-0.0819 0.0819,-0.19108 0.10919,-0.27297 l 0.46403,-0.84618 c 0.0546,-0.0819 0.10919,-0.16377 0.19108,-0.21837 l 0.62781,-0.7097 0.81888,-0.73699 c 0.0546,-0.0819 0.13648,-0.13649 0.21837,-0.19108 l 0.84618,-0.46403 c 0.0819,-0.0273 0.19108,-0.0819 0.27297,-0.10919 l 0.92806,-0.27296 c 0.0819,0 0.13648,-0.0273 0.21837,-0.0273 l 1.009959,-0.10919 36.08552,-0.0273 1.14644,0.13648 c 0.0819,0 0.13648,0.0273 0.21837,0.0273 l 0.92807,0.27296 c 0.0819,0.0273 0.19107,0.0819 0.27296,0.10919 l 0.84618,0.46403 c 0.0546,0.0546 0.13648,0.10919 0.21837,0.16378 l 0.737,0.62781 c 0.0546,0.0546 0.0819,0.0819 0.13648,0.13648 l 0.60051,0.7097 c 0.0546,0.0819 0.10919,0.16378 0.16378,0.21837 l 0.46403,0.84618 c 0.0273,0.0819 0.0819,0.19108 0.10919,0.27297 l 0.27296,0.92806 c 0,0.0819 0.0273,0.13649 0.0273,0.21837 l 0.10918,1.00996 v 19.9262 l -0.10918,1.14644 c 0,0.0819 -0.0273,0.13648 -0.0273,0.21836 l -0.27296,0.92807 c -0.0273,0.0819 -0.0819,0.19108 -0.10919,0.27297 l -0.46403,0.84618 c -0.0546,0.0546 -0.0819,0.13648 -0.13648,0.19107 l -0.60052,0.737 c -0.0546,0.0546 -0.13648,0.13648 -0.19107,0.19107 l -0.737,0.60051 c -0.0546,0.0546 -0.13648,0.0819 -0.19107,0.13648 l -0.84618,0.46404 c -0.0819,0.0273 -0.19107,0.0819 -0.27296,0.10918 l -0.92807,0.27297 c -0.0819,0 -0.13648,0.0273 -0.21837,0.0273 l -0.98266,0.10919 h -36.11282 l -1.146439,-0.10919 c -0.0819,0 -0.13648,-0.0273 -0.21837,-0.0273 l -0.92806,-0.27297 c -0.0819,-0.0273 -0.19108,-0.0819 -0.27297,-0.10918 l -0.84618,-0.46404 c -0.0546,-0.0546 -0.13648,-0.10918 -0.21837,-0.16377 l -0.7097,-0.60052 c -0.0546,-0.0546 -0.0819,-0.0819 -0.13648,-0.13648 l -0.62781,-0.73699 c -0.0546,-0.0819 -0.10919,-0.16378 -0.16378,-0.21837 l -0.46403,-0.84618 c -0.0273,-0.0819 -0.0819,-0.19108 -0.10919,-0.27297 l -0.27296,-0.92807 c 0,-0.0819 -0.0273,-0.13648 -0.0273,-0.21836 l -0.10919,-0.98267 z m 2.62043,19.65324 0.10918,0.98266 -0.0273,-0.21837 0.27296,0.92807 -0.10919,-0.27296 0.46404,0.84618 -0.16378,-0.21837 0.62781,0.73699 -0.16378,-0.13648 0.7097,0.60052 -0.19107,-0.16378 0.84618,0.46404 -0.27296,-0.10919 0.928069,0.27296 -0.21837,-0.0273 0.84618,0.0819 35.81256,0.0273 0.98266,-0.10918 -0.21837,0.0273 0.92807,-0.27296 -0.27296,0.10919 0.84618,-0.46404 -0.19107,0.13648 0.73699,-0.60051 -0.19107,0.19107 0.60052,-0.737 -0.13648,0.19108 0.46403,-0.84618 -0.10918,0.27296 0.27296,-0.92807 -0.0273,0.21837 0.0819,-0.84618 0.0273,-19.62594 -0.10919,-1.00996 0.0273,0.21837 -0.27296,-0.92807 0.10918,0.27296 -0.46403,-0.84618 0.16377,0.19107 -0.60051,-0.7097 0.13648,0.16378 -0.737,-0.62781 0.21837,0.16378 -0.84618,-0.46404 0.27296,0.10919 -0.92807,-0.27296 0.21837,0.0273 -0.84618,-0.10918 h -35.78526 l -1.00996,0.10918 0.21837,-0.0273 -0.928069,0.27296 0.27296,-0.10919 -0.84618,0.46404 0.21837,-0.19108 -0.60052,0.51863 -0.62781,0.7097 0.19108,-0.21837 -0.46404,0.84618 0.10919,-0.27296 -0.27296,0.92807 0.0273,-0.21837 -0.10918,0.84618 z"
       id="path1102" />
    <path
       style="fill:#92d050;fill-opacity:1;fill-rule:nonzero;stroke:#92d050;stroke-width:0.0272962px;stroke-linecap:butt;stroke-linejoin:round;stroke-miterlimit:4;stroke-dasharray:none;stroke-opacity:1"
       d="m 94.629701,230.32805 0.13648,-1.14644 c 0,-0.0819 0.0273,-0.13648 0.0273,-0.21836 l 0.27296,-0.92807 c 0.0273,-0.0819 0.0819,-0.19108 0.10919,-0.27296 l 0.46403,-0.84619 c 0.0546,-0.0819 0.10919,-0.16377 0.19108,-0.21837 l 0.62781,-0.7097 0.81888,-0.73699 c 0.0546,-0.0819 0.13648,-0.13648 0.21837,-0.19108 l 0.84618,-0.46403 c 0.0819,-0.0273 0.19108,-0.0819 0.27297,-0.10918 l 0.92806,-0.27297 c 0.0819,0 0.13648,-0.0273 0.21837,-0.0273 l 1.009959,-0.10919 36.08552,-0.0273 1.14644,0.13648 c 0.0819,0 0.13648,0.0273 0.21837,0.0273 l 0.92807,0.27297 c 0.0819,0.0273 0.19107,0.0819 0.27296,0.10918 l 0.84618,0.46403 c 0.0546,0.0546 0.13648,0.10919 0.21837,0.16378 l 0.737,0.62781 c 0.0546,0.0546 0.0819,0.0819 0.13648,0.13648 l 0.60051,0.7097 c 0.0546,0.0819 0.10919,0.16378 0.16378,0.21837 l 0.46403,0.84619 c 0.0273,0.0819 0.0819,0.19107 0.10919,0.27296 l 0.27296,0.92807 c 0,0.0819 0.0273,0.13648 0.0273,0.21836 l 0.10918,1.00996 v 19.9262 l -0.10918,1.14644 c 0,0.0819 -0.0273,0.13648 -0.0273,0.21836 l -0.27296,0.92808 c -0.0273,0.0819 -0.0819,0.19107 -0.10919,0.27296 l -0.46403,0.84618 c -0.0546,0.0546 -0.0819,0.13648 -0.13648,0.19107 l -0.60052,0.737 c -0.0546,0.0546 -0.13648,0.13648 -0.19107,0.19107 l -0.737,0.60051 c -0.0546,0.0546 -0.13648,0.0819 -0.19107,0.13648 l -0.84618,0.46404 c -0.0819,0.0273 -0.19107,0.0819 -0.27296,0.10918 l -0.92807,0.27297 c -0.0819,0 -0.13648,0.0273 -0.21837,0.0273 l -0.98266,0.10919 h -36.11282 l -1.146439,-0.10919 c -0.0819,0 -0.13648,-0.0273 -0.21837,-0.0273 l -0.92806,-0.27297 c -0.0819,-0.0273 -0.19108,-0.0819 -0.27297,-0.10918 l -0.84618,-0.46404 c -0.0546,-0.0546 -0.13648,-0.10918 -0.21837,-0.16377 l -0.7097,-0.60052 c -0.0546,-0.0546 -0.0819,-0.0819 -0.13648,-0.13648 l -0.62781,-0.73699 c -0.0546,-0.0819 -0.10919,-0.16378 -0.16378,-0.21837 l -0.46403,-0.84618 c -0.0273,-0.0819 -0.0819,-0.19108 -0.10919,-0.27296 l -0.27296,-0.92808 c 0,-0.0819 -0.0273,-0.13648 -0.0273,-0.21836 l -0.10919,-0.98267 z m 2.62043,19.65324 0.10918,0.98266 -0.0273,-0.21837 0.27296,0.92807 -0.10919,-0.27296 0.46404,0.84618 -0.16378,-0.21837 0.62781,0.73699 -0.16378,-0.13648 0.7097,0.60052 -0.19107,-0.16378 0.84618,0.46404 -0.27296,-0.10919 0.928069,0.27296 -0.21837,-0.0273 0.84618,0.0819 35.81256,0.0273 0.98266,-0.10918 -0.21837,0.0273 0.92807,-0.27296 -0.27296,0.10919 0.84618,-0.46404 -0.19107,0.13648 0.73699,-0.60051 -0.19107,0.19107 0.60052,-0.737 -0.13648,0.19108 0.46403,-0.84618 -0.10918,0.27296 0.27296,-0.92807 -0.0273,0.21837 0.0819,-0.84618 0.0273,-19.62594 -0.10919,-1.00996 0.0273,0.21837 -0.27296,-0.92807 0.10918,0.27296 -0.46403,-0.84618 0.16377,0.19108 -0.60051,-0.7097 0.13648,0.16377 -0.737,-0.62781 0.21837,0.16378 -0.84618,-0.46404 0.27296,0.10919 -0.92807,-0.27296 0.21837,0.0273 -0.84618,-0.10918 h -35.78526 l -1.00996,0.10918 0.21837,-0.0273 -0.928069,0.27296 0.27296,-0.10919 -0.84618,0.46404 0.21837,-0.19107 -0.60052,0.51862 -0.62781,0.7097 0.19108,-0.21837 -0.46404,0.84618 0.10919,-0.27296 -0.27296,0.92807 0.0273,-0.21837 -0.10918,0.84618 z"
       id="path1104" />
    <path
       style="fill:#92d050;fill-opacity:1;fill-rule:nonzero;stroke:#92d050;stroke-width:0.0272962px;stroke-linecap:butt;stroke-linejoin:round;stroke-miterlimit:4;stroke-dasharray:none;stroke-opacity:1"
       d="m 94.629701,259.58953 0.13648,-1.14644 c 0,-0.0819 0.0273,-0.13648 0.0273,-0.21836 l 0.27296,-0.92807 c 0.0273,-0.0819 0.0819,-0.19108 0.10919,-0.27296 l 0.46403,-0.84618 c 0.0546,-0.0819 0.10919,-0.16378 0.19108,-0.21838 l 0.62781,-0.7097 0.81888,-0.73699 c 0.0546,-0.0819 0.13648,-0.13648 0.21837,-0.19107 l 0.84618,-0.46404 c 0.0819,-0.0273 0.19108,-0.0819 0.27297,-0.10918 l 0.92806,-0.27297 c 0.0819,0 0.13648,-0.0273 0.21837,-0.0273 l 1.009959,-0.10919 36.08552,-0.0273 1.14644,0.13648 c 0.0819,0 0.13648,0.0273 0.21837,0.0273 l 0.92807,0.27297 c 0.0819,0.0273 0.19107,0.0819 0.27296,0.10918 l 0.84618,0.46404 c 0.0546,0.0546 0.13648,0.10918 0.21837,0.16377 l 0.737,0.62781 c 0.0546,0.0546 0.0819,0.0819 0.13648,0.13648 l 0.60051,0.7097 c 0.0546,0.0819 0.10919,0.16378 0.16378,0.21838 l 0.46403,0.84618 c 0.0273,0.0819 0.0819,0.19107 0.10919,0.27296 l 0.27296,0.92807 c 0,0.0819 0.0273,0.13648 0.0273,0.21836 l 0.10918,1.00996 v 19.9262 l -0.10918,1.14644 c 0,0.0819 -0.0273,0.13648 -0.0273,0.21837 l -0.27296,0.92807 c -0.0273,0.0819 -0.0819,0.19107 -0.10919,0.27296 l -0.46403,0.84618 c -0.0546,0.0546 -0.0819,0.13648 -0.13648,0.19107 l -0.60052,0.737 c -0.0546,0.0546 -0.13648,0.13648 -0.19107,0.19107 l -0.737,0.60051 c -0.0546,0.0546 -0.13648,0.0819 -0.19107,0.13649 l -0.84618,0.46403 c -0.0819,0.0273 -0.19107,0.0819 -0.27296,0.10919 l -0.92807,0.27296 c -0.0819,0 -0.13648,0.0273 -0.21837,0.0273 l -0.98266,0.10919 h -36.11282 l -1.146439,-0.10919 c -0.0819,0 -0.13648,-0.0273 -0.21837,-0.0273 l -0.92806,-0.27296 c -0.0819,-0.0273 -0.19108,-0.0819 -0.27297,-0.10919 l -0.84618,-0.46403 c -0.0546,-0.0546 -0.13648,-0.10919 -0.21837,-0.16378 l -0.7097,-0.60052 c -0.0546,-0.0546 -0.0819,-0.0819 -0.13648,-0.13648 l -0.62781,-0.73699 c -0.0546,-0.0819 -0.10919,-0.16378 -0.16378,-0.21837 l -0.46403,-0.84618 c -0.0273,-0.0819 -0.0819,-0.19108 -0.10919,-0.27296 l -0.27296,-0.92807 c 0,-0.0819 -0.0273,-0.13649 -0.0273,-0.21837 l -0.10919,-0.98266 z m 2.62043,19.65324 0.10918,0.98266 -0.0273,-0.21837 0.27296,0.92807 -0.10919,-0.27296 0.46404,0.84618 -0.16378,-0.21837 0.62781,0.737 -0.16378,-0.13649 0.7097,0.60052 -0.19107,-0.16378 0.84618,0.46404 -0.27296,-0.10919 0.928069,0.27296 -0.21837,-0.0273 0.84618,0.0819 35.81256,0.0273 0.98266,-0.10918 -0.21837,0.0273 0.92807,-0.27296 -0.27296,0.10919 0.84618,-0.46404 -0.19107,0.13648 0.73699,-0.60051 -0.19107,0.19107 0.60052,-0.737 -0.13648,0.19108 0.46403,-0.84618 -0.10918,0.27296 0.27296,-0.92807 -0.0273,0.21837 0.0819,-0.84618 0.0273,-19.62594 -0.10919,-1.00996 0.0273,0.21837 -0.27296,-0.92807 0.10918,0.27296 -0.46403,-0.84618 0.16377,0.19108 -0.60051,-0.7097 0.13648,0.16377 -0.737,-0.62781 0.21837,0.16378 -0.84618,-0.46403 0.27296,0.10918 -0.92807,-0.27296 0.21837,0.0273 -0.84618,-0.10918 h -35.78526 l -1.00996,0.10918 0.21837,-0.0273 -0.928069,0.27296 0.27296,-0.10918 -0.84618,0.46403 0.21837,-0.19107 -0.60052,0.51862 -0.62781,0.7097 0.19108,-0.21837 -0.46404,0.84618 0.10919,-0.27296 -0.27296,0.92807 0.0273,-0.21837 -0.10918,0.84618 z"
       id="path1106" />
    <text
       xml:space="preserve"
       style="font-style:normal;font-variant:normal;font-weight:700;font-size:13.9733px;line-height:125%;font-family:'微軟正黑體';text-align:start;letter-spacing:0px;word-spacing:0px;text-anchor:start;fill:#000000;fill-opacity:1;stroke:none;stroke-width:0.264583"
       x="105.62782"
       y="246.89076"
       id="text1112"><tspan
         sodipodi:role="line"
         x="105.62782"
         y="246.89076"
         id="tspan1110"
         style="stroke-width:0.264583"><tspan
           dx="0"
           dy="0"
           style="font-style:normal;font-variant:normal;font-weight:700;font-size:13.9733px;font-family:'微軟正黑體';fill:#92d050;stroke-width:0.264583"
           id="tspan1108">中層</tspan></tspan></text>
    <text
       xml:space="preserve"
       style="font-style:normal;font-variant:normal;font-weight:700;font-size:13.9733px;line-height:125%;font-family:'微軟正黑體';text-align:start;letter-spacing:0px;word-spacing:0px;text-anchor:start;fill:#000000;fill-opacity:1;stroke:none;stroke-width:0.264583"
       x="105.62787"
       y="276.91721"
       id="text1118"><tspan
         sodipodi:role="line"
         x="105.62787"
         y="276.91721"
         id="tspan1116"
         style="stroke-width:0.264583"><tspan
           dx="0"
           dy="0"
           style="font-style:normal;font-variant:normal;font-weight:700;font-size:13.9733px;font-family:'微軟正黑體';fill:#92d050;stroke-width:0.264583"
           id="tspan1114">下層</tspan></tspan></text>
    <text
       xml:space="preserve"
       style="font-style:normal;font-variant:normal;font-weight:700;font-size:13.9733px;line-height:125%;font-family:'微軟正黑體';text-align:start;letter-spacing:0px;word-spacing:0px;text-anchor:start;fill:#000000;fill-opacity:1;stroke:none;stroke-width:0.264583"
       x="170.20319"
       y="225.05457"
       id="text1124"><tspan
         sodipodi:role="line"
         x="170.20319"
         y="225.05457"
         id="tspan1122"
         style="stroke-width:0.264583"><tspan
           dx="0"
           dy="0"
           style="font-style:normal;font-variant:normal;font-weight:700;font-size:13.9733px;font-family:'微軟正黑體';fill:#92d050;stroke-width:0.264583"
           id="tspan1120">終</tspan></tspan></text>
    <text
       xml:space="preserve"
       style="font-style:normal;font-variant:normal;font-weight:700;font-size:13.9733px;line-height:125%;font-family:'微軟正黑體';text-align:start;letter-spacing:0px;word-spacing:0px;text-anchor:start;fill:#000000;fill-opacity:1;stroke:none;stroke-width:0.264583"
       x="170.20319"
       y="241.65063"
       id="text1130"><tspan
         sodipodi:role="line"
         x="170.20319"
         y="241.65063"
         id="tspan1128"
         style="stroke-width:0.264583"><tspan
           dx="0"
           dy="0"
           style="font-style:normal;font-variant:normal;font-weight:700;font-size:13.9733px;font-family:'微軟正黑體';fill:#92d050;stroke-width:0.264583"
           id="tspan1126">界</tspan></tspan></text>
    <text
       xml:space="preserve"
       style="font-style:normal;font-variant:normal;font-weight:700;font-size:13.9733px;line-height:125%;font-family:'微軟正黑體';text-align:start;letter-spacing:0px;word-spacing:0px;text-anchor:start;fill:#000000;fill-opacity:1;stroke:none;stroke-width:0.264583"
       x="170.20319"
       y="258.68344"
       id="text1136"><tspan
         sodipodi:role="line"
         x="170.20319"
         y="258.68344"
         id="tspan1134"
         style="stroke-width:0.264583"><tspan
           dx="0"
           dy="0"
           style="font-style:normal;font-variant:normal;font-weight:700;font-size:13.9733px;font-family:'微軟正黑體';fill:#92d050;stroke-width:0.264583"
           id="tspan1132">層</tspan></tspan></text>
    <path
       style="fill:#92d050;fill-opacity:1;fill-rule:nonzero;stroke:#92d050;stroke-width:0.0272962px;stroke-linecap:butt;stroke-linejoin:round;stroke-miterlimit:4;stroke-dasharray:none;stroke-opacity:1"
       d="m 157.95678,201.94005 0.13648,-1.28292 c 0,-0.10918 0.0273,-0.19107 0.0546,-0.27296 l 0.35485,-1.09185 c 0.0273,-0.0819 0.0546,-0.16378 0.0819,-0.21837 l 0.54592,-1.00995 c 0.0546,-0.0819 0.10919,-0.16378 0.16378,-0.21837 l 0.7097,-0.84619 c 0.0273,-0.0819 0.0819,-0.13648 0.16378,-0.16377 l 0.84618,-0.7097 c 0.0546,-0.0546 0.13648,-0.10919 0.21837,-0.16378 l 1.00996,-0.54592 c 0.0546,-0.0273 0.13648,-0.0546 0.21837,-0.0819 l 1.09184,-0.35485 c 0.0819,-0.0273 0.16378,-0.0546 0.27297,-0.0546 l 1.17373,-0.10919 23.39281,-0.0273 1.31021,0.13648 c 0.0819,0 0.19108,0.0273 0.27296,0.0546 l 1.09185,0.35485 c 0.0819,0.0273 0.16378,0.0546 0.24566,0.10918 l 0.98267,0.54593 c 0.0546,0.0273 0.13648,0.0546 0.19107,0.10918 l 0.87348,0.7097 c 0.0546,0.0546 0.10918,0.10919 0.16377,0.19107 l 0.7097,0.84619 c 0.0819,0.0546 0.13649,0.13648 0.16378,0.24566 l 0.51863,1.00996 c 0.0273,0.0546 0.0546,0.10918 0.0819,0.19107 l 0.35485,1.09185 c 0.0273,0.0819 0.0546,0.16378 0.0546,0.27296 l 0.10918,1.17374 v 78.42186 l -0.10918,1.31021 c 0,0.0819 -0.0273,0.19107 -0.0546,0.27296 l -0.35485,1.09185 c -0.0273,0.0819 -0.0546,0.13648 -0.0819,0.21837 l -0.51863,0.98266 c -0.0546,0.0819 -0.0819,0.13648 -0.13648,0.21837 l -0.7097,0.87348 c -0.0546,0.0546 -0.13648,0.13648 -0.19107,0.19107 l -0.87348,0.7097 c -0.0819,0.0546 -0.13648,0.0819 -0.21837,0.13648 l -0.98266,0.51863 c -0.0819,0.0273 -0.13648,0.0546 -0.21837,0.0819 l -1.09185,0.35485 c -0.0819,0.0273 -0.19107,0.0546 -0.27296,0.0546 l -1.17373,0.10918 h -23.42011 l -1.28291,-0.10918 c -0.10919,0 -0.19108,-0.0273 -0.27297,-0.0546 l -1.09184,-0.35485 c -0.0819,-0.0273 -0.13649,-0.0546 -0.19108,-0.0819 l -1.00995,-0.51863 c -0.10919,-0.0273 -0.19108,-0.0819 -0.24567,-0.16378 l -0.84618,-0.7097 c -0.0819,-0.0546 -0.13648,-0.10918 -0.19107,-0.16377 l -0.7097,-0.87348 c -0.0546,-0.0546 -0.0819,-0.13648 -0.10919,-0.19107 l -0.54592,-0.98267 c -0.0546,-0.0819 -0.0819,-0.16377 -0.10919,-0.24566 l -0.35485,-1.09185 c -0.0273,-0.0819 -0.0546,-0.19107 -0.0546,-0.27296 l -0.10918,-1.17373 z m 2.62043,78.20349 0.10919,1.17373 -0.0546,-0.27296 0.35484,1.09185 -0.10918,-0.24567 0.54592,0.98267 -0.10918,-0.19108 0.7097,0.87348 -0.19108,-0.16378 0.84619,0.7097 -0.24567,-0.16377 1.00996,0.51862 -0.19107,-0.0819 1.09184,0.35486 -0.27296,-0.0546 1.03725,0.0819 23.17444,0.0273 1.17374,-0.10919 -0.27296,0.0546 1.09184,-0.35486 -0.21837,0.0819 0.98266,-0.51862 -0.21837,0.13648 0.87348,-0.7097 -0.19107,0.19107 0.7097,-0.87348 -0.13648,0.21837 0.51862,-0.98266 -0.0819,0.21837 0.35485,-1.09185 -0.0546,0.27296 0.0819,-1.06454 0.0273,-78.1762 -0.10919,-1.17374 0.0546,0.27297 -0.35485,-1.09185 0.0819,0.19107 -0.51862,-1.00995 0.16377,0.24566 -0.7097,-0.84618 0.16378,0.19107 -0.87348,-0.7097 0.19108,0.10919 -0.98266,-0.54593 0.24566,0.10919 -1.09184,-0.35485 0.27296,0.0546 -1.06455,-0.10918 h -23.14714 l -1.17374,0.10918 0.27296,-0.0546 -1.09184,0.35485 0.21836,-0.0819 -1.00995,0.54592 0.21837,-0.16377 -0.84619,0.7097 0.16378,-0.16378 -0.7097,0.84618 0.16378,-0.21837 -0.54592,1.00996 0.0819,-0.21837 -0.35484,1.09185 0.0546,-0.27297 -0.10919,1.03726 z"
       id="path1138" />
    <path
       style="fill:#92d050;fill-opacity:1;fill-rule:nonzero;stroke:#92d050;stroke-width:0.0272962px;stroke-linecap:butt;stroke-linejoin:round;stroke-miterlimit:4;stroke-dasharray:none;stroke-opacity:1"
       d="m 29.118921,199.89284 c 0,-0.0819 0.0273,-0.16378 0.0273,-0.24567 l 0.30026,-1.47399 c 0.0546,-0.16378 0.10919,-0.32755 0.21837,-0.49133 l 0.81889,-1.20103 c 0.0819,-0.13648 0.19107,-0.24567 0.32755,-0.32756 l 1.20103,-0.81888 c 0.16378,-0.10919 0.32755,-0.16378 0.49133,-0.21837 l 1.47399,-0.30026 c 0.0819,0 0.16378,-0.0273 0.24567,-0.0273 h 15.14937 c 0.10918,0 0.19107,0.0273 0.27296,0.0273 l 1.47399,0.30026 c 0.16378,0.0546 0.32755,0.10918 0.49133,0.21837 l 1.20103,0.81888 c 0.13648,0.0819 0.24567,0.21837 0.35485,0.35485 l 0.79159,1.20103 c 0.0819,0.13649 0.13648,0.30026 0.19107,0.46404 l 0.30026,1.47399 c 0,0.0819 0,0.16378 0,0.24567 v 82.4071 c 0,0.10918 0,0.19107 0,0.27296 l -0.30026,1.47399 c -0.0546,0.16378 -0.10918,0.32755 -0.19107,0.46403 l -0.79159,1.20104 c -0.10918,0.13648 -0.24566,0.27296 -0.38214,0.38214 l -1.20104,0.79159 c -0.13648,0.0819 -0.30025,0.13648 -0.46403,0.16378 l -1.47399,0.30026 c -0.0819,0.0273 -0.16378,0.0273 -0.27296,0.0273 h -15.14937 c -0.0819,0 -0.16378,0 -0.24567,-0.0273 l -1.47399,-0.30026 c -0.16378,-0.0273 -0.32755,-0.0819 -0.46403,-0.16378 l -1.20103,-0.79159 c -0.13648,-0.10918 -0.27297,-0.21837 -0.35485,-0.35485 l -0.81889,-1.20103 c -0.10918,-0.16378 -0.16378,-0.32755 -0.21837,-0.49133 l -0.30026,-1.47399 c 0,-0.0819 -0.0273,-0.16378 -0.0273,-0.27296 z m 2.62043,82.4071 v -0.24567 l 0.30026,1.47399 -0.21837,-0.49133 0.81888,1.20103 -0.35485,-0.35485 1.20103,0.79159 -0.46403,-0.19107 1.47399,0.30026 -0.27296,-0.0273 h 15.14937 l -0.24567,0.0273 1.47399,-0.30026 -0.46403,0.19107 1.20103,-0.79159 -0.38215,0.38215 0.79159,-1.20103 -0.19107,0.46403 0.30026,-1.47399 -0.0273,0.24567 v -82.4071 l 0.0273,0.27296 -0.30026,-1.47399 0.19107,0.46403 -0.79159,-1.20103 0.35485,0.35485 -1.20103,-0.81888 0.49133,0.19107 -1.47399,-0.27296 h 0.24567 -15.14937 0.27296 l -1.47399,0.27296 0.49133,-0.19107 -1.20103,0.81888 0.32755,-0.32755 -0.81888,1.20103 0.21837,-0.49133 -0.30026,1.47399 v -0.27296 z"
       id="path1140" />
    <text
       xml:space="preserve"
       style="font-style:normal;font-variant:normal;font-weight:700;font-size:13.9733px;line-height:125%;font-family:'微軟正黑體';text-align:start;letter-spacing:0px;word-spacing:0px;text-anchor:start;fill:#000000;fill-opacity:1;stroke:none;stroke-width:0.264583"
       x="35.905106"
       y="225.05457"
       id="text1146"><tspan
         sodipodi:role="line"
         x="35.905106"
         y="225.05457"
         id="tspan1144"
         style="stroke-width:0.264583"><tspan
           dx="0"
           dy="0"
           style="font-style:normal;font-variant:normal;font-weight:700;font-size:13.9733px;font-family:'微軟正黑體';fill:#92d050;stroke-width:0.264583"
           id="tspan1142">異</tspan></tspan></text>
    <text
       xml:space="preserve"
       style="font-style:normal;font-variant:normal;font-weight:700;font-size:13.9733px;line-height:125%;font-family:'微軟正黑體';text-align:start;letter-spacing:0px;word-spacing:0px;text-anchor:start;fill:#000000;fill-opacity:1;stroke:none;stroke-width:0.264583"
       x="35.905106"
       y="241.65063"
       id="text1152"><tspan
         sodipodi:role="line"
         x="35.905106"
         y="241.65063"
         id="tspan1150"
         style="stroke-width:0.264583"><tspan
           dx="0"
           dy="0"
           style="font-style:normal;font-variant:normal;font-weight:700;font-size:13.9733px;font-family:'微軟正黑體';fill:#92d050;stroke-width:0.264583"
           id="tspan1148">界</tspan></tspan></text>
    <text
       xml:space="preserve"
       style="font-style:normal;font-variant:normal;font-weight:700;font-size:13.9733px;line-height:125%;font-family:'微軟正黑體';text-align:start;letter-spacing:0px;word-spacing:0px;text-anchor:start;fill:#000000;fill-opacity:1;stroke:none;stroke-width:0.264583"
       x="35.905106"
       y="258.68344"
       id="text1158"><tspan
         sodipodi:role="line"
         x="35.905106"
         y="258.68344"
         id="tspan1156"
         style="stroke-width:0.264583"><tspan
           dx="0"
           dy="0"
           style="font-style:normal;font-variant:normal;font-weight:700;font-size:13.9733px;font-family:'微軟正黑體';fill:#92d050;stroke-width:0.264583"
           id="tspan1154">層</tspan></tspan></text>
    <text
       xml:space="preserve"
       style="font-style:normal;font-variant:normal;font-weight:700;font-size:13.9733px;line-height:125%;font-family:'微軟正黑體';text-align:start;letter-spacing:0px;word-spacing:0px;text-anchor:start;fill:#000000;fill-opacity:1;stroke:none;stroke-width:0.264583"
       x="64.341614"
       y="211.95232"
       id="text1164"><tspan
         sodipodi:role="line"
         x="64.341614"
         y="211.95232"
         id="tspan1162"
         style="stroke-width:0.264583"><tspan
           dx="0"
           dy="0"
           style="font-style:normal;font-variant:normal;font-weight:700;font-size:13.9733px;font-family:'微軟正黑體';fill:#92d050;stroke-width:0.264583"
           id="tspan1160">虛</tspan></tspan></text>
    <text
       xml:space="preserve"
       style="font-style:normal;font-variant:normal;font-weight:700;font-size:13.9733px;line-height:125%;font-family:'微軟正黑體';text-align:start;letter-spacing:0px;word-spacing:0px;text-anchor:start;fill:#000000;fill-opacity:1;stroke:none;stroke-width:0.264583"
       x="64.341614"
       y="228.54839"
       id="text1170"><tspan
         sodipodi:role="line"
         x="64.341614"
         y="228.54839"
         id="tspan1168"
         style="stroke-width:0.264583"><tspan
           dx="0"
           dy="0"
           style="font-style:normal;font-variant:normal;font-weight:700;font-size:13.9733px;font-family:'微軟正黑體';fill:#92d050;stroke-width:0.264583"
           id="tspan1166">空</tspan></tspan></text>
    <text
       xml:space="preserve"
       style="font-style:normal;font-variant:normal;font-weight:700;font-size:13.9733px;line-height:125%;font-family:'微軟正黑體';text-align:start;letter-spacing:0px;word-spacing:0px;text-anchor:start;fill:#000000;fill-opacity:1;stroke:none;stroke-width:0.264583"
       x="64.341614"
       y="245.58118"
       id="text1176"><tspan
         sodipodi:role="line"
         x="64.341614"
         y="245.58118"
         id="tspan1174"
         style="stroke-width:0.264583"><tspan
           dx="0"
           dy="0"
           style="font-style:normal;font-variant:normal;font-weight:700;font-size:13.9733px;font-family:'微軟正黑體';fill:#92d050;stroke-width:0.264583"
           id="tspan1172">層</tspan></tspan></text>
    <path
       style="fill:#92d050;fill-opacity:1;fill-rule:nonzero;stroke:#92d050;stroke-width:0.0272962px;stroke-linecap:butt;stroke-linejoin:round;stroke-miterlimit:4;stroke-dasharray:none;stroke-opacity:1"
       d="m 51.829321,203.25027 0.16378,-1.55589 c 0,-0.10918 0.0273,-0.19107 0.0546,-0.27296 l 0.43674,-1.33751 c 0.0273,-0.0819 0.0546,-0.16378 0.0819,-0.21837 l 0.65511,-1.22832 c 0.0546,-0.0819 0.10918,-0.16378 0.16377,-0.21838 l 0.87348,-1.03725 c 0.0546,-0.0819 0.0819,-0.10918 0.16378,-0.16378 l 1.03725,-0.87347 c 0.0546,-0.0546 0.13648,-0.10919 0.21837,-0.16378 l 1.22832,-0.65511 c 0.0546,-0.0273 0.13649,-0.0546 0.21838,-0.0819 l 1.33751,-0.43673 c 0.0819,-0.0273 0.16377,-0.0546 0.27296,-0.0546 l 1.44669,-0.13648 28.63368,-0.0273 1.58317,0.16377 c 0.10918,0 0.19107,0.0273 0.27296,0.0546 l 1.33751,0.43673 c 0.0819,0.0273 0.16378,0.0546 0.21837,0.0819 l 1.20104,0.65511 c 0.0819,0.0546 0.16377,0.0819 0.21836,0.13648 l 1.06455,0.87348 c 0.0546,0.0546 0.13648,0.13648 0.19108,0.19107 l 0.84618,1.03725 c 0.0546,0.0819 0.0819,0.13649 0.13648,0.21838 l 0.65511,1.22832 c 0.0273,0.0546 0.0546,0.13648 0.0819,0.21837 l 0.43673,1.33751 c 0.0273,0.0819 0.0546,0.16378 0.0546,0.27296 l 0.13648,1.4467 v 44.793 l -0.13648,1.58317 c 0,0.10919 -0.0273,0.19108 -0.0546,0.27296 l -0.43673,1.33752 c -0.0273,0.0819 -0.0546,0.16377 -0.0819,0.21836 l -0.65511,1.20104 c -0.0546,0.0819 -0.0819,0.13648 -0.13648,0.19107 l -0.84618,1.06455 c -0.0546,0.0819 -0.13648,0.16377 -0.21837,0.21837 l -1.06455,0.84618 c -0.0546,0.0546 -0.10919,0.0819 -0.19107,0.13648 l -1.20104,0.65511 c -0.0546,0.0273 -0.13648,0.0546 -0.21837,0.0819 l -1.33751,0.43674 c -0.0819,0.0273 -0.16378,0.0546 -0.27296,0.0546 l -1.44669,0.13648 h -28.66097 l -1.55588,-0.13648 c -0.10919,0 -0.19107,-0.0273 -0.27296,-0.0546 l -1.33751,-0.43674 c -0.0819,-0.0273 -0.16378,-0.0546 -0.21838,-0.0819 l -1.22832,-0.65511 c -0.0819,-0.0546 -0.13648,-0.0819 -0.21837,-0.13648 l -1.03725,-0.84618 c -0.0546,-0.0546 -0.13649,-0.13648 -0.19108,-0.19108 l -0.87347,-1.06455 c -0.0546,-0.0546 -0.0819,-0.13648 -0.13648,-0.21836 l -0.65511,-1.20104 c -0.0273,-0.0546 -0.0546,-0.13648 -0.0819,-0.21836 l -0.43674,-1.33752 c -0.0273,-0.0819 -0.0546,-0.16377 -0.0546,-0.27296 l -0.13648,-1.44669 z m 2.62043,44.57462 0.13648,1.4467 -0.0546,-0.27297 0.43674,1.33752 -0.0819,-0.24567 0.65511,1.20103 -0.13648,-0.19107 0.87347,1.06455 -0.19107,-0.19107 1.03726,0.84618 -0.21838,-0.13648 1.22833,0.6551 -0.21837,-0.0819 1.33752,0.43673 -0.27297,-0.0546 1.31022,0.10919 28.4153,0.0273 1.4467,-0.13648 -0.27297,0.0546 1.33751,-0.43673 -0.24566,0.0819 1.20103,-0.6551 -0.16378,0.13648 1.06455,-0.84618 -0.21836,0.21836 0.84618,-1.06454 -0.13648,0.16377 0.6551,-1.20103 -0.0819,0.24567 0.43673,-1.33752 -0.0546,0.27297 0.10919,-1.33751 0.0273,-44.54733 -0.13648,-1.4467 0.0546,0.27296 -0.43673,-1.33751 0.0819,0.21837 -0.6551,-1.22833 0.13648,0.21837 -0.84618,-1.03725 0.19107,0.19107 -1.06455,-0.87348 0.19107,0.13648 -1.20103,-0.6551 0.24566,0.0819 -1.33751,-0.43673 0.27297,0.0546 -1.33751,-0.13648 h -28.38801 l -1.4467,0.13648 0.27297,-0.0546 -1.33752,0.43673 0.21837,-0.0819 -1.22833,0.6551 0.21838,-0.16377 -1.03726,0.87347 0.16378,-0.16377 -0.87348,1.03725 0.16378,-0.21837 -0.65511,1.22833 0.0819,-0.21837 -0.43674,1.33751 0.0546,-0.27296 -0.13648,1.31022 z"
       id="path1178" />
    <path
       style="fill:#0070c0;fill-opacity:1;fill-rule:nonzero;stroke:#0070c0;stroke-width:0.0272962px;stroke-linecap:butt;stroke-linejoin:round;stroke-miterlimit:4;stroke-dasharray:none;stroke-opacity:1"
       d="m -20.232539,240.48222 0.16378,-6.74215 0.51863,-6.63296 0.84618,-6.55108 1.11914,-6.44189 1.47399,-6.33271 1.74696,-6.22353 2.07451,-6.05974 2.3474696,-5.95056 2.62043,-5.78679 2.89339,-5.65031 3.13906,-5.45923 3.38472,-5.29545 3.63039,-5.13168 3.90335,-4.9679 4.0944304,-4.74953 4.34008,-4.53117 4.53116,-4.34008 4.74954,-4.12172 4.9679,-3.87606 5.13167,-3.65768 5.29546,-3.38473 5.48653,-3.13905 5.62301,-2.8934 5.78678,-2.62043 5.95056,-2.34747 6.05975,-2.07451 6.19623,-1.77425 6.36,-1.4467 6.4419,-1.14643 6.52378,-0.84619 6.660259,-0.49133 6.71485,-0.19107 6.74216,0.16378 6.63296,0.51862 6.57838,0.84619 6.41459,1.11914 6.33271,1.47399 6.22352,1.74695 6.08705,2.07451 5.92327,2.34747 5.78678,2.62043 5.65031,2.8934 5.45923,3.13906 5.32275,3.38472 5.13167,3.63039 4.94061,3.90335 4.74953,4.09443 4.55846,4.34008 4.31279,4.53116 4.12172,4.74954 3.87605,4.9679 3.65769,5.13167 3.38472,5.29546 3.16636,5.45923 2.8661,5.65031 2.62043,5.78678 2.34746,5.95056 2.07452,6.05975 1.77424,6.19623 1.41941,6.36 1.17372,6.4419 0.81889,6.52378 0.51863,6.66026 0.16378,6.71485 -0.16378,6.74216 -0.49133,6.63296 -0.84619,6.57838 -1.11913,6.41459 -1.474,6.33271 -1.74696,6.22352 -2.07449,6.08705 -2.34747,5.92327 -2.62044,5.78678 -2.8661,5.65031 -3.16635,5.48652 -3.38472,5.29546 -3.63039,5.13167 -3.90335,4.94061 -4.09443,4.74953 -4.34009,4.55846 -4.53116,4.31279 -4.74953,4.12172 -4.9406,3.87605 -5.13168,3.65769 -5.32275,3.38472 -5.43194,3.16636 -5.6776,2.8661 -5.78678,2.62043 -5.95056,2.34746 -6.05975,2.07452 -6.19623,1.77424 -6.36,1.41941 -6.4419,1.17372 -6.55108,0.81889 -6.63296,0.51863 -6.71486,0.16378 -6.74215,-0.16378 -6.632959,-0.49133 -6.55108,-0.84619 -6.44189,-1.11913 -6.33271,-1.474 -6.22353,-1.74696 -6.05974,-2.07449 -5.95056,-2.34747 -5.78679,-2.62044 -5.62301,-2.8661 -5.51382,-3.16635 -5.26816,-3.38472 -5.13168,-3.63039 -4.9679,-3.90335 -4.74953,-4.09443 -4.53117,-4.34009 -4.34008,-4.53116 -4.1217204,-4.74953 -3.87606,-4.9406 -3.65768,-5.13168 -3.38473,-5.32275 -3.13905,-5.45923 -2.8934,-5.65031 -2.62043,-5.78678 -2.3474696,-5.95056 -2.07451,-6.05975 -1.77425,-6.19623 -1.44669,-6.36 -1.14644,-6.4419 -0.84618,-6.52378 -0.49133,-6.66026 z m 2.78421,6.52378 0.49133,6.49649 0.84618,6.4146 1.09185,6.33271 1.4467,6.19622 1.71966,6.08705 2.0199096,5.95056 2.29288,5.84138 2.56584,5.6776 2.8388,5.54112 3.08446001,5.35004 3.33012999,5.21357 3.5485,5.02249 3.8214704,4.83142 4.01253,4.64035 4.2855,4.47657 4.42198,4.2309 4.64034,4.03984 4.85872,3.79416 5.02249,3.5758 5.18627,3.33013 5.37735,3.11176 5.51382,2.81151 5.6776,2.56584 5.84138,2.29287 5.95056,2.0199 6.05975,1.74697 6.22352,1.41941 6.33271,1.11913 6.3873,0.84619 6.523779,0.46403 6.57837,0.16378 6.60567,-0.13647 6.49649,-0.51864 6.4146,-0.81889 6.33271,-1.11913 6.19622,-1.41941 6.08705,-1.71966 5.95056,-2.01991 5.84138,-2.29288 5.6776,-2.56584 5.51382,-2.8115 5.37734,-3.11176 5.21357,-3.33013 5.02249,-3.54851 4.83142,-3.82146 4.64035,-4.01253 4.47657,-4.2582 4.2309,-4.44928 4.03984,-4.64035 3.79416,-4.83141 3.5758,-5.0225 3.33013,-5.24086 3.11176,-5.32275 2.81151,-5.54112 2.56584,-5.6776 2.29287,-5.81408 2.0199,-5.97786 1.74697,-6.05975 1.41941,-6.22352 1.11913,-6.30541 0.84619,-6.4146 0.46403,-6.52378 0.16378,-6.57838 -0.13647,-6.60567 -0.51864,-6.52378 -0.81889,-6.3873 -1.11913,-6.33271 -1.41941,-6.19622 -1.71966,-6.08705 -2.01991,-5.95056 -2.29288,-5.84138 -2.56584,-5.6776 -2.8115,-5.51382 -3.11176,-5.37735 -3.33013,-5.18627 -3.54851,-5.02249 -3.82146,-4.85872 -4.01253,-4.64034 -4.2582,-4.47657 -4.44928,-4.2309 -4.64035,-4.03984 -4.83141,-3.79416 -5.0225,-3.5758 -5.21356,-3.33013 -5.35005,-3.08447 -5.54112,-2.8388 -5.6776,-2.56584 -5.81408,-2.29288 -5.97786,-2.01991 -6.05975,-1.74696 -6.22352,-1.4194 -6.30541,-1.11914 -6.4146,-0.84618 -6.52378,-0.49133 -6.57838,-0.16378 -6.60567,0.16378 -6.496479,0.49133 -6.4146,0.84618 -6.33271,1.09185 -6.19622,1.44669 -6.08705,1.71966 -5.95056,2.01992 -5.84138,2.29287 -5.6776,2.56585 -5.51382,2.8388 -5.37735,3.08446 -5.18627,3.33013 -5.02249,3.5485 -4.85872,3.82147 -4.64034,4.01253 -4.47657,4.2855 -4.2309,4.42198 -4.03984,4.64034 -3.7941604,4.85872 -3.5758,5.02249 -3.33012999,5.18627 -3.08447001,5.37735 -2.8388,5.51382 -2.56584,5.6776 -2.29287,5.84138 -2.0199196,5.95056 -1.74695,6.05975 -1.4194,6.22352 -1.11915,6.33271 -0.84618,6.3873 -0.49133,6.52378 -0.16377,6.57837 z"
       id="path1180" />
    <path
       style="fill:#0070c0;fill-opacity:1;fill-rule:nonzero;stroke:#0070c0;stroke-width:0.0272962px;stroke-linecap:butt;stroke-linejoin:round;stroke-miterlimit:4;stroke-dasharray:none;stroke-opacity:1"
       d="m 2.9146106,243.75776 0.13648,-5.56841 0.43674,-5.45924 0.6824,-5.43193 0.92807,-5.29545 1.22833,-5.21357 1.44669,-5.13168 1.69236,-4.9952 1.9380304,-4.9133 2.1564,-4.74954 2.37476,-4.66764 2.59314,-4.53116 2.8115,-4.36739 3.00258,-4.2309 3.22095,-4.06713 3.35742,-3.93064 3.5758,-3.73958 3.73957,-3.57579 3.93065,-3.38473 4.06713,-3.19365 4.2309,-3.02987 4.39468,-2.8115 4.47657,-2.59314 4.69494,-2.37477 4.74954,-2.15639 4.9133,-1.93803 4.9952,-1.69236 5.10438,-1.47399 5.24086,-1.20104 5.29546,-0.95536 5.40464,-0.6824 5.486519,-0.40945 5.54112,-0.16377 5.56842,0.13648 5.45923,0.43674 5.43194,0.6824 5.29545,0.92807 5.21357,1.22833 5.13167,1.44669 5.0225,1.69236 4.88601,1.93803 4.77683,2.1564 4.64034,2.37476 4.53117,2.59314 4.36738,2.8115 4.23091,3.00258 4.09442,3.22095 3.90335,3.35742 3.73957,3.5758 3.5758,3.73957 3.41202,3.93065 3.19365,4.06713 3.00258,4.2309 2.8115,4.39468 2.59314,4.47657 2.37476,4.69494 2.1564,4.74953 1.93803,4.91331 1.69236,4.9952 1.47399,5.10438 1.17374,5.24086 0.98266,5.29546 0.6824,5.40464 0.40944,5.48653 0.13648,5.54111 -0.13648,5.56842 -0.40944,5.45923 -0.6824,5.43194 -0.92807,5.29545 -1.22833,5.21357 -1.4194,5.10438 -1.71966,5.04979 -1.93802,4.88601 -2.1564,4.77683 -2.37477,4.64035 -2.59313,4.53116 -2.8115,4.36738 -2.97529,4.23091 -3.22094,4.09442 -3.38473,3.90335 -3.57579,3.73957 -3.76687,3.5758 -3.87606,3.41202 -4.09442,3.19365 -4.2309,3.00258 -4.36739,2.8115 -4.53116,2.59314 -4.64035,2.37476 -4.77683,2.1564 -4.88601,1.93803 -5.02249,1.69236 -5.10438,1.47399 -5.24087,1.17374 -5.29545,0.98266 -5.40464,0.6824 -5.48653,0.40944 -5.54112,0.13648 -5.56841,-0.13648 -5.459229,-0.40944 -5.43194,-0.6824 -5.29545,-0.92807 -5.21357,-1.22833 -5.13168,-1.4194 -4.9952,-1.71966 -4.9133,-1.93802 -4.74954,-2.1564 -4.66764,-2.37477 -4.53116,-2.59313 -4.36739,-2.8115 -4.2309,-2.97529 -4.06713,-3.22094 -3.93064,-3.38473 -3.73958,-3.57579 -3.57579,-3.73958 -3.38473,-3.90335 -3.19365,-4.09442 -3.02987,-4.2309 -2.81151,-4.36739 -2.59313,-4.53116 -2.37477,-4.64035 -2.15639,-4.77683 -1.9380304,-4.88601 -1.69236,-5.02249 -1.47399,-5.10438 -1.20104,-5.24087 -0.95536,-5.29545 -0.6824,-5.40464 -0.40945,-5.48653 z m 2.75691,5.35005 0.40944,5.32275 0.68241,5.29545 0.90077,5.18627 1.20103,5.07709 1.4194004,4.9952 1.63777,4.9133 1.88343,4.77683 2.10181,4.66765 2.32017,4.53116 2.53854,4.39468 2.75692,4.28549 2.92068,4.12173 3.13906,3.98524 3.27554,3.79416 3.52121,3.68498 3.63038,3.46661 3.82147,3.33014 3.95794,3.11176 4.12172,2.92068 4.28549,2.75692 4.39469,2.53854 4.55846,2.32017 4.64034,2.10181 4.80413,1.88343 4.85871,1.66507 4.9952,1.4194 5.10438,1.17373 5.18627,0.92807 5.268159,0.68241 5.35004,0.38214 5.40464,0.13648 5.43194,-0.10918 5.32275,-0.40944 5.29545,-0.68241 5.18627,-0.92807 5.07709,-1.17373 4.9952,-1.4194 4.91331,-1.63777 4.77682,-1.88344 4.66765,-2.1018 4.53116,-2.32017 4.39468,-2.53855 4.2855,-2.75691 4.12172,-2.89339 3.98523,-3.13906 3.79417,-3.30283 3.68498,-3.49391 3.46661,-3.65769 3.33013,-3.79416 3.11177,-3.98524 2.92069,-4.14902 2.75691,-4.2309 2.53854,-4.42198 2.32017,-4.53116 2.10181,-4.66764 1.88343,-4.77683 1.66507,-4.91331 1.4194,-4.9679 1.17373,-5.10438 0.92807,-5.18627 0.68241,-5.26816 0.38214,-5.35005 0.13648,-5.40464 -0.10918,-5.43193 -0.40944,-5.32275 -0.68241,-5.29546 -0.92807,-5.18627 -1.17373,-5.07708 -1.4194,-4.9952 -1.63777,-4.88601 -1.88344,-4.80413 -2.1018,-4.64034 -2.32017,-4.55846 -2.53855,-4.39468 -2.75691,-4.2855 -2.89339,-4.12172 -3.13906,-3.95794 -3.30283,-3.84876 -3.49391,-3.65769 -3.65769,-3.46661 -3.79416,-3.30283 -3.98524,-3.11176 -4.14902,-2.94799 -4.2309,-2.75691 -4.42198,-2.53854 -4.53116,-2.32018 -4.66764,-2.1018 -4.77683,-1.88344 -4.91331,-1.63777 -4.9679,-1.44669 -5.10438,-1.17374 -5.18627,-0.92807 -5.26816,-0.6824 -5.35005,-0.40944 -5.40464,-0.13648 -5.43193,0.13648 -5.32275,0.40944 -5.295459,0.6824 -5.18627,0.90078 -5.07708,1.20103 -4.9952,1.4194 -4.88601,1.63777 -4.80413,1.88343 -4.64034,2.10181 -4.55846,2.32017 -4.39468,2.53854 -4.2855,2.75691 -4.12172,2.92069 -3.95794,3.13906 -3.82146,3.27554 -3.68498,3.5212 -3.46662,3.63039 -3.30283,3.82147 -3.11176,3.95794 -2.94799,4.12172 -2.75691,4.2855 -2.53854,4.39468 -2.32018,4.55846 -2.1018,4.64034 -1.88343,4.80412 -1.63778,4.88602 -1.4466904,4.9679 -1.17374,5.10438 -0.92806,5.18627 -0.68241,5.26816 -0.40944,5.35005 -0.13648,5.40463 z"
       id="path1182" />
    <text
       xml:space="preserve"
       style="font-style:normal;font-variant:normal;font-weight:700;font-size:13.9733px;line-height:125%;font-family:'微軟正黑體';text-align:start;letter-spacing:0px;word-spacing:0px;text-anchor:start;fill:#000000;fill-opacity:1;stroke:none;stroke-width:0.264583"
       x="87.248627"
       y="130.06328"
       id="text1188"><tspan
         sodipodi:role="line"
         x="87.248627"
         y="130.06328"
         id="tspan1186"
         style="stroke-width:0.264583"><tspan
           dx="0"
           dy="0"
           style="font-style:normal;font-variant:normal;font-weight:700;font-size:13.9733px;font-family:'微軟正黑體';fill:#0070c0;stroke-width:0.264583"
           id="tspan1184">特殊層</tspan></tspan></text>
  </g>
</svg>
