<?xml version="1.0" encoding="UTF-8" standalone="no"?>
<!-- Created with Inkscape (http://www.inkscape.org/) -->

<svg
   width="165.98793mm"
   height="188.69838mm"
   viewBox="0 0 165.98792 188.69839"
   version="1.1"
   id="svg5"
   inkscape:version="1.1 (c68e22c387, 2021-05-23)"
   sodipodi:docname="Solomon Star.svg"
   xmlns:inkscape="http://www.inkscape.org/namespaces/inkscape"
   xmlns:sodipodi="http://sodipodi.sourceforge.net/DTD/sodipodi-0.dtd"
   xmlns="http://www.w3.org/2000/svg"
   xmlns:svg="http://www.w3.org/2000/svg">
  <sodipodi:namedview
     id="namedview7"
     pagecolor="#ffffff"
     bordercolor="#666666"
     borderopacity="1.0"
     inkscape:pageshadow="2"
     inkscape:pageopacity="0.0"
     inkscape:pagecheckerboard="0"
     inkscape:document-units="mm"
     showgrid="false"
     fit-margin-top="0"
     fit-margin-left="0"
     fit-margin-right="0"
     fit-margin-bottom="0"
     inkscape:zoom="0.52382155"
     inkscape:cx="365.58252"
     inkscape:cy="495.39772"
     inkscape:window-width="1288"
     inkscape:window-height="745"
     inkscape:window-x="-8"
     inkscape:window-y="-8"
     inkscape:window-maximized="1"
     inkscape:current-layer="layer1" />
  <defs
     id="defs2">
    <pattern
       id="EMFhbasepattern"
       patternUnits="userSpaceOnUse"
       width="6"
       height="6"
       x="0"
       y="0" />
    <pattern
       id="EMFhbasepattern-0"
       patternUnits="userSpaceOnUse"
       width="6"
       height="6"
       x="0"
       y="0" />
    <pattern
       id="EMFhbasepattern-5"
       patternUnits="userSpaceOnUse"
       width="6"
       height="6"
       x="0"
       y="0" />
    <pattern
       id="EMFhbasepattern-6"
       patternUnits="userSpaceOnUse"
       width="6"
       height="6"
       x="0"
       y="0" />
  </defs>
  <g
     inkscape:label="圖層 1"
     inkscape:groupmode="layer"
     id="layer1"
     transform="translate(-22.936217,-98.624683)">
    <path
       style="fill:#ff99ff;fill-opacity:1;fill-rule:nonzero;stroke:#ff99ff;stroke-width:0.0272962px;stroke-linecap:butt;stroke-linejoin:round;stroke-miterlimit:4;stroke-dasharray:none;stroke-opacity:1"
       d="m 163.14293,223.10881 -0.73699,1.33752 -59.39644,-98.26617 h 1.50128 l -59.396431,98.26617 -0.764291,-1.33752 z m -118.792872,1.74696 c -0.300258,0 -0.600515,-0.16378 -0.736997,-0.43674 -0.163777,-0.27296 -0.163777,-0.60052 0,-0.87348 L 103.0095,125.27939 c 0.16377,-0.27296 0.43673,-0.43674 0.73699,-0.43674 0.32756,0 0.60052,0.16378 0.76429,0.43674 l 59.39644,98.26616 c 0.16378,0.27296 0.16378,0.60052 0,0.87348 -0.13648,0.27296 -0.43674,0.43674 -0.76429,0.43674 z"
       id="path1781" />
    <path
       style="fill:#ff99ff;fill-opacity:1;fill-rule:nonzero;stroke:#ff99ff;stroke-width:0.0272962px;stroke-linecap:butt;stroke-linejoin:round;stroke-miterlimit:4;stroke-dasharray:none;stroke-opacity:1"
       d="m 36.052026,192.15497 0.08189,-3.49391 0.300258,-3.43931 0.409442,-3.35743 0.57322,-3.35743 1.665065,-6.46919 2.265581,-6.22352 2.8388,-5.89597 3.357428,-5.59571 3.90335,-5.21357 4.34009,-4.83142 4.776824,-4.36738 5.21357,-3.90335 5.54112,-3.41202 5.92326,-2.8388 6.16893,-2.29288 6.46919,-1.66507 3.35743,-0.60051 3.35743,-0.43674 3.439306,-0.24567 3.46662,-0.10918 3.4939,0.0819 3.41202,0.30025 3.35743,0.40945 3.35743,0.57322 6.4146,1.66506 6.22352,2.26558 5.89597,2.8661 5.54112,3.35743 5.21357,3.90335 4.80412,4.36738 4.36738,4.80413 3.87606,5.21356 3.38472,5.59572 2.8388,5.89597 2.29288,6.22352 1.66507,6.46919 0.60051,3.35743 0.40944,3.41202 0.27297,3.43931 0.0819,3.46661 -0.0819,3.49391 -0.27297,3.43932 -0.40944,3.38472 -0.57322,3.33013 -1.66506,6.46919 -2.23829,6.22353 -2.8661,5.92326 -3.35742,5.56842 -3.87606,5.21356 -4.36738,4.83142 -4.77683,4.36739 -5.21357,3.90335 -5.56841,3.38472 -5.86868,2.8661 -6.19622,2.29288 -6.49649,1.66506 -3.33013,0.60052 -3.38472,0.40944 -3.43932,0.27296 -3.43931,0.0819 -3.49391,-0.0819 -3.412016,-0.27296 -3.35743,-0.40944 -3.33013,-0.57322 -6.46919,-1.66507 -6.16893,-2.29287 -5.89597,-2.81151 -5.59572,-3.41202 -5.18627,-3.87605 -4.804115,-4.36739 -4.34009,-4.80412 -3.90335,-5.21357 -3.384725,-5.56841 -2.8388,-5.92327 -2.292877,-6.19623 -1.665065,-6.52378 -0.600516,-3.33013 -0.409442,-3.41202 -0.272962,-3.43932 z m 2.702319,3.27554 0.272962,3.33013 0.409442,3.24825 0.545923,3.16635 1.610473,6.25082 2.183693,5.97786 2.729616,5.70489 3.220948,5.35005 3.739573,4.9952 4.17631,4.64035 4.585759,4.2036 4.99519,3.73958 5.35005,3.27554 5.6776,2.72961 5.92327,2.21099 6.27811,1.61047 3.16636,0.57322 3.24824,0.40945 3.302826,0.24566 3.33014,0.0819 3.33013,-0.0546 3.33013,-0.27296 3.22095,-0.40945 3.13905,-0.54592 6.25082,-1.61047 5.97786,-2.1837 5.62301,-2.72961 5.37734,-3.24824 4.9952,-3.73958 4.61305,-4.2036 4.20361,-4.61306 3.71228,-4.99519 3.24824,-5.35005 2.75691,-5.7049 2.18369,-5.95056 1.61048,-6.30541 0.57322,-3.16636 0.40944,-3.27553 0.24567,-3.33014 0.0819,-3.33013 -0.0546,-3.35743 -0.27296,-3.33013 -0.40944,-3.24824 -0.54593,-3.16635 -1.61047,-6.22353 -2.18369,-6.00515 -2.72962,-5.6776 -3.22094,-5.37735 -3.71228,-4.99519 -4.20361,-4.64035 -4.58575,-4.20361 -4.9952,-3.76687 -5.35005,-3.22094 -5.6503,-2.75691 -5.97786,-2.211 -6.22353,-1.61047 -3.19365,-0.57322 -3.24824,-0.40944 -3.30283,-0.27296 -3.33013,-0.0819 -3.35743,0.0819 -3.275536,0.24566 -3.24824,0.43674 -3.16636,0.54593 -6.22352,1.58317 -5.95056,2.21099 -5.6776,2.70232 -5.35005,3.27554 -4.9952,3.73958 -4.61305,4.2036 -4.176311,4.61305 -3.739573,4.9952 -3.248245,5.37734 -2.729616,5.6776 -2.210987,5.97786 -1.610473,6.27812 -0.57322,3.19365 -0.409442,3.24824 -0.272962,3.33013 -0.08189,3.33013 z"
       id="path1783" />
    <path
       style="fill:#ff99ff;fill-opacity:1;fill-rule:nonzero;stroke:#ff99ff;stroke-width:0.0272962px;stroke-linecap:butt;stroke-linejoin:round;stroke-miterlimit:4;stroke-dasharray:none;stroke-opacity:1"
       d="m 43.913318,162.40216 0.764294,-1.31021 59.396438,98.26616 h -1.50129 l 59.39644,-98.26616 0.73699,1.31021 z m 118.792872,-1.74695 c 0.32756,0 0.62781,0.19107 0.76429,0.46403 0.16378,0.27296 0.16378,0.60052 0,0.87348 l -59.39643,98.26617 c -0.16378,0.27296 -0.43674,0.40944 -0.7643,0.40944 -0.30025,0 -0.57322,-0.13648 -0.73699,-0.40944 L 43.176324,161.99272 c -0.163778,-0.27296 -0.163778,-0.60052 0,-0.87348 0.13648,-0.27296 0.436737,-0.46403 0.736994,-0.46403 z"
       id="path1785" />
    <path
       style="fill:#ffffff;fill-opacity:1;fill-rule:evenodd;stroke:none;stroke-width:0.264583"
       d="m 86.495324,168.89865 c 0,-1.52859 1.25562,-2.78421 2.78421,-2.78421 0,0 0,0 0,0 v 0 h 11.054936 v 0 c 1.52859,0 2.75691,1.25562 2.75691,2.78421 0,0 0,0 0,0 v 0 29.8347 0 c 0,1.52858 -1.22832,2.75691 -2.75691,2.75691 0,0 0,0 0,0 v 0 H 89.279534 v 0 c -1.52859,0 -2.78421,-1.22833 -2.78421,-2.75691 0,0 0,0 0,0 z"
       id="path1787" />
    <path
       style="fill:#321900;fill-opacity:1;fill-rule:nonzero;stroke:#321900;stroke-width:0.0272962px;stroke-linecap:butt;stroke-linejoin:round;stroke-miterlimit:4;stroke-dasharray:none;stroke-opacity:1"
       d="m 85.840214,168.89865 c 0,-0.0273 0.0273,-0.0819 0.0273,-0.10919 l 0.21837,-1.09184 c 0.0273,-0.0819 0.0546,-0.16378 0.10918,-0.24567 l 0.60052,-0.87348 c 0.0273,-0.0819 0.0819,-0.13648 0.16378,-0.16377 l 0.87347,-0.60052 c 0.0819,-0.0546 0.16378,-0.0819 0.24567,-0.10918 l 1.09184,-0.21837 c 0.0273,0 0.0819,-0.0273 0.10919,-0.0273 h 11.054936 c 0.0546,0 0.10919,0.0273 0.13648,0.0273 l 1.06455,0.21837 c 0.0819,0.0273 0.16378,0.0546 0.24567,0.0819 l 0.90077,0.60051 c 0.0546,0.0546 0.13648,0.13648 0.19108,0.19107 l 0.57321,0.87348 c 0.0273,0.0819 0.0546,0.16378 0.0819,0.24567 l 0.21837,1.09184 c 0,0.0273 0,0.0819 0,0.10919 v 29.8347 c 0,0.0546 0,0.10918 0,0.13648 l -0.21837,1.06455 c -0.0273,0.0819 -0.0546,0.16378 -0.0819,0.21837 l -0.57321,0.90077 c -0.0546,0.0819 -0.13649,0.16378 -0.21838,0.21837 l -0.90077,0.57322 c -0.0546,0.0273 -0.13648,0.0546 -0.21837,0.0819 l -1.06455,0.21837 c -0.0273,0 -0.0819,0 -0.13648,0 H 89.279534 c -0.0273,0 -0.0819,0 -0.10919,0 l -1.09184,-0.21837 c -0.0819,-0.0273 -0.16378,-0.0546 -0.24567,-0.0819 l -0.87347,-0.57322 c -0.0546,-0.0546 -0.13648,-0.13648 -0.19108,-0.19108 l -0.60051,-0.90077 c -0.0273,-0.0819 -0.0546,-0.16377 -0.0819,-0.24566 l -0.21837,-1.06455 c 0,-0.0273 -0.0273,-0.0819 -0.0273,-0.13648 z m 1.31022,29.8347 v -0.10919 l 0.21837,1.06455 -0.10919,-0.24566 0.60052,0.90077 -0.16378,-0.19107 0.87348,0.57322 -0.24567,-0.0819 1.09185,0.21837 -0.13648,-0.0273 h 11.054936 l -0.10918,0.0273 1.06455,-0.21837 -0.21837,0.0819 0.90077,-0.57322 -0.21837,0.21837 0.57322,-0.90078 -0.0819,0.21837 0.21837,-1.06455 -0.0273,0.10919 v -29.8347 l 0.0273,0.13648 -0.21837,-1.09185 0.0819,0.24567 -0.57322,-0.87348 0.19108,0.16377 -0.90078,-0.60051 0.24567,0.10919 -1.06455,-0.21837 h 0.10918 -11.054936 0.13648 l -1.09185,0.21837 0.24567,-0.10919 -0.87348,0.60051 0.16378,-0.16377 -0.60052,0.87348 0.10919,-0.24567 -0.21837,1.09185 v -0.13648 z"
       id="path1789" />
    <text
       xml:space="preserve"
       style="font-style:normal;font-variant:normal;font-weight:700;font-size:10.4841px;line-height:125%;font-family:'微軟正黑體';text-align:start;letter-spacing:0px;word-spacing:0px;text-anchor:start;fill:#000000;fill-opacity:1;stroke:none;stroke-width:0.264583"
       x="88.233612"
       y="175.84428"
       id="text1795"><tspan
         sodipodi:role="line"
         x="88.233612"
         y="175.84428"
         id="tspan1793"
         style="stroke-width:0.264583"><tspan
           dx="0"
           dy="0"
           style="font-style:normal;font-variant:normal;font-weight:700;font-size:10.4841px;font-family:'微軟正黑體';fill:#000000;stroke-width:0.264583"
           id="tspan1791">7</tspan></tspan></text>
    <path
       style="fill:#ffffff;fill-opacity:1;fill-rule:evenodd;stroke:none;stroke-width:0.264583"
       d="m 93.919884,177.63342 c 0,-1.52859 1.25562,-2.78421 2.7842,-2.78421 0,0 0,0 0,0 v 0 h 11.054946 v 0 c 1.52858,0 2.75691,1.25562 2.75691,2.78421 0,0 0,0 0,0 v 0 30.27144 0 c 0,1.52858 -1.22833,2.75691 -2.75691,2.75691 0,0 0,0 0,0 v 0 H 96.704084 v 0 c -1.52858,0 -2.7842,-1.22833 -2.7842,-2.75691 0,0 0,0 0,0 z"
       id="path1797" />
    <path
       style="fill:#321900;fill-opacity:1;fill-rule:nonzero;stroke:#321900;stroke-width:0.0272962px;stroke-linecap:butt;stroke-linejoin:round;stroke-miterlimit:4;stroke-dasharray:none;stroke-opacity:1"
       d="m 93.264774,177.63342 c 0,-0.0273 0.0273,-0.0819 0.0273,-0.10919 l 0.21837,-1.09184 c 0.0273,-0.0819 0.0546,-0.16378 0.10919,-0.24567 l 0.60051,-0.87348 c 0.0273,-0.0819 0.0819,-0.13648 0.16378,-0.16377 l 0.87348,-0.60052 c 0.0819,-0.0546 0.16377,-0.0819 0.24566,-0.10918 l 1.09185,-0.21837 c 0.0273,0 0.0819,-0.0273 0.10918,-0.0273 h 11.054936 c 0.0546,0 0.10918,0.0273 0.13648,0.0273 l 1.06455,0.21837 c 0.0819,0.0273 0.16377,0.0546 0.24566,0.0819 l 0.90078,0.60052 c 0.0546,0.0546 0.13648,0.13648 0.19107,0.19107 l 0.57322,0.87348 c 0.0273,0.0819 0.0546,0.16378 0.0819,0.24567 l 0.21837,1.09184 c 0,0.0273 0,0.0819 0,0.10919 v 30.27144 c 0,0.0546 0,0.10918 0,0.13648 l -0.21837,1.06455 c -0.0273,0.0819 -0.0546,0.16377 -0.0819,0.21837 l -0.57322,0.90077 c -0.0546,0.0819 -0.13648,0.16378 -0.21837,0.21837 l -0.90077,0.57322 c -0.0546,0.0273 -0.13648,0.0546 -0.21837,0.0819 l -1.06455,0.21836 c -0.0273,0 -0.0819,0 -0.13648,0 H 96.704084 c -0.0273,0 -0.0819,0 -0.10918,0 l -1.09185,-0.21836 c -0.0819,-0.0273 -0.16377,-0.0546 -0.24566,-0.0819 l -0.87348,-0.57322 c -0.0546,-0.0546 -0.13648,-0.13648 -0.19107,-0.19108 l -0.60052,-0.90077 c -0.0273,-0.0819 -0.0546,-0.16377 -0.0819,-0.24566 l -0.21837,-1.06455 c 0,-0.0273 -0.0273,-0.0819 -0.0273,-0.13648 z m 1.31021,30.27144 v -0.10919 l 0.21837,1.06455 -0.10918,-0.24566 0.60051,0.90077 -0.16377,-0.19107 0.87347,0.57322 -0.24566,-0.0819 1.09184,0.21837 -0.13648,-0.0273 h 11.054946 l -0.10919,0.0273 1.06455,-0.21837 -0.21837,0.0819 0.90078,-0.57322 -0.21837,0.21836 0.57322,-0.90077 -0.0819,0.21837 0.21837,-1.06455 -0.0273,0.10919 v -30.27144 l 0.0273,0.13648 -0.21837,-1.09185 0.0819,0.24567 -0.57322,-0.87348 0.19107,0.16378 -0.90077,-0.60052 0.24566,0.10919 -1.06455,-0.21837 h 0.10919 -11.054946 0.13648 l -1.09184,0.21837 0.24566,-0.10919 -0.87347,0.60052 0.16377,-0.16378 -0.60051,0.87348 0.10918,-0.24567 -0.21837,1.09185 v -0.13648 z"
       id="path1799" />
    <text
       xml:space="preserve"
       style="font-style:normal;font-variant:normal;font-weight:700;font-size:10.4841px;line-height:125%;font-family:'微軟正黑體';text-align:start;letter-spacing:0px;word-spacing:0px;text-anchor:start;fill:#000000;fill-opacity:1;stroke:none;stroke-width:0.264583"
       x="95.439865"
       y="185.96873"
       id="text1805"><tspan
         sodipodi:role="line"
         x="95.439865"
         y="185.96873"
         id="tspan1803"
         style="stroke-width:0.264583"><tspan
           dx="0"
           dy="0"
           style="font-style:normal;font-variant:normal;font-weight:700;font-size:10.4841px;font-family:'微軟正黑體';fill:#000000;stroke-width:0.264583"
           id="tspan1801">14</tspan></tspan></text>
    <path
       style="fill:#ffffff;fill-opacity:1;fill-rule:evenodd;stroke:none;stroke-width:0.264583"
       d="m 103.09138,186.85952 c 0,-1.55588 1.28292,-2.8388 2.8388,-2.8388 0,0 0,0 0,0 v 0 h 11.35521 v 0 c 1.58317,0 2.8388,1.28292 2.8388,2.8388 0,0 0,0 0,0 v 0 29.69822 0 c 0,1.58318 -1.25563,2.8388 -2.8388,2.8388 0,0 0,0 0,0 v 0 h -11.35521 v 0 c -1.55588,0 -2.8388,-1.25562 -2.8388,-2.8388 0,0 0,0 0,0 z"
       id="path1807" />
    <path
       style="fill:#321900;fill-opacity:1;fill-rule:nonzero;stroke:#321900;stroke-width:0.0272962px;stroke-linecap:butt;stroke-linejoin:round;stroke-miterlimit:4;stroke-dasharray:none;stroke-opacity:1"
       d="m 102.43628,186.85952 c 0,-0.0273 0.0273,-0.0819 0.0273,-0.10919 l 0.21837,-1.09184 c 0.0273,-0.0819 0.0546,-0.19108 0.10919,-0.24567 l 0.62781,-0.90077 c 0.0273,-0.0819 0.0819,-0.13648 0.16378,-0.16378 l 0.90077,-0.62781 c 0.0546,-0.0546 0.16377,-0.0819 0.24566,-0.10919 l 1.09185,-0.21836 c 0.0273,0 0.0819,-0.0273 0.10918,-0.0273 h 11.35521 c 0.0546,0 0.10918,0.0273 0.13648,0.0273 l 1.11914,0.21836 c 0.0819,0.0273 0.16378,0.0546 0.24566,0.10919 l 0.90078,0.62781 c 0.0819,0.0273 0.13648,0.10919 0.16378,0.16378 l 0.60051,0.90077 c 0.0546,0.0819 0.0819,0.16378 0.10919,0.24567 l 0.21836,1.09184 c 0,0.0273 0,0.0819 0,0.10919 v 29.69822 c 0,0.0546 0,0.10918 0,0.13648 l -0.21836,1.11914 c -0.0273,0.0819 -0.0546,0.16378 -0.10919,0.24567 l -0.60051,0.90077 c -0.0273,0.0546 -0.10919,0.13648 -0.16378,0.16378 l -0.90078,0.60051 c -0.0819,0.0546 -0.16377,0.0819 -0.24566,0.10919 l -1.11914,0.21837 c -0.0273,0 -0.0819,0 -0.13648,0 h -11.35521 c -0.0273,0 -0.0819,0 -0.10918,0 l -1.09185,-0.21837 c -0.0819,-0.0273 -0.16377,-0.0546 -0.24566,-0.10919 l -0.90077,-0.60051 c -0.0546,-0.0273 -0.13649,-0.0819 -0.16378,-0.16378 l -0.62781,-0.90077 c -0.0546,-0.0819 -0.0819,-0.16378 -0.10919,-0.24567 l -0.21837,-1.11914 c 0,-0.0273 -0.0273,-0.0819 -0.0273,-0.13648 z m 1.31021,29.69822 v -0.10919 l 0.21837,1.11915 -0.10918,-0.24567 0.62781,0.90077 -0.16378,-0.19107 0.90077,0.60051 -0.24566,-0.0819 1.09185,0.21837 -0.13649,-0.0273 h 11.35521 l -0.10919,0.0273 1.11914,-0.21837 -0.24566,0.0819 0.90077,-0.60051 -0.19107,0.19107 0.60051,-0.90077 -0.0819,0.24567 0.21836,-1.11915 -0.0273,0.10919 v -29.69822 l 0.0273,0.13648 -0.21836,-1.09185 0.0819,0.24567 -0.60051,-0.90077 0.19107,0.16377 -0.90077,-0.62781 0.24566,0.10918 -1.11914,-0.21836 h 0.10919 -11.35521 0.13649 l -1.09185,0.21836 0.24566,-0.10918 -0.90077,0.62781 0.16378,-0.16377 -0.62781,0.90077 0.10918,-0.24567 -0.21837,1.09185 v -0.13648 z"
       id="path1809" />
    <text
       xml:space="preserve"
       style="font-style:normal;font-variant:normal;font-weight:700;font-size:10.4841px;line-height:125%;font-family:'微軟正黑體';text-align:start;letter-spacing:0px;word-spacing:0px;text-anchor:start;fill:#000000;fill-opacity:1;stroke:none;stroke-width:0.264583"
       x="105.04816"
       y="193.56212"
       id="text1815"><tspan
         sodipodi:role="line"
         x="105.04816"
         y="193.56212"
         id="tspan1813"
         style="stroke-width:0.264583"><tspan
           dx="0"
           dy="0"
           style="font-style:normal;font-variant:normal;font-weight:700;font-size:10.4841px;font-family:'微軟正黑體';fill:#000000;stroke-width:0.264583"
           id="tspan1811">21</tspan></tspan></text>
    <path
       style="fill:#ffffff;fill-opacity:1;fill-rule:evenodd;stroke:none;stroke-width:0.264583"
       d="m 148.07545,200.34382 c 0,-1.52858 1.25562,-2.78421 2.78421,-2.78421 0,0 0,0 0,0 v 0 h 11.05494 v 0 c 1.52859,0 2.75692,1.25563 2.75692,2.78421 0,0 0,0 0,0 v 0 29.8347 0 c 0,1.52859 -1.22833,2.75691 -2.75692,2.75691 0,0 0,0 0,0 v 0 h -11.05494 v 0 c -1.52859,0 -2.78421,-1.22832 -2.78421,-2.75691 0,0 0,0 0,0 z"
       id="path1817" />
    <path
       style="fill:#321900;fill-opacity:1;fill-rule:nonzero;stroke:#321900;stroke-width:0.0272962px;stroke-linecap:butt;stroke-linejoin:round;stroke-miterlimit:4;stroke-dasharray:none;stroke-opacity:1"
       d="m 147.42034,200.34382 c 0,-0.0273 0.0273,-0.0819 0.0273,-0.10918 l 0.21837,-1.09185 c 0.0273,-0.0819 0.0546,-0.16378 0.10918,-0.24567 l 0.60052,-0.87347 c 0.0273,-0.0819 0.0819,-0.13649 0.16378,-0.16378 l 0.87347,-0.60052 c 0.0819,-0.0546 0.16378,-0.0819 0.24567,-0.10918 l 1.09185,-0.21837 c 0.0273,0 0.0819,-0.0273 0.10918,-0.0273 h 11.05494 c 0.0546,0 0.10919,0.0273 0.13648,0.0273 l 1.06456,0.21837 c 0.0819,0.0273 0.16377,0.0546 0.24566,0.0819 l 0.90077,0.60051 c 0.0546,0.0546 0.13649,0.13648 0.19108,0.19108 l 0.57322,0.87347 c 0.0273,0.0819 0.0546,0.16378 0.0819,0.24567 l 0.21837,1.09185 c 0,0.0273 0,0.0819 0,0.10918 v 29.8347 c 0,0.0546 0,0.10918 0,0.13648 l -0.21837,1.06455 c -0.0273,0.0819 -0.0546,0.16378 -0.0819,0.21837 l -0.57322,0.90077 c -0.0546,0.0819 -0.13648,0.16378 -0.21837,0.21837 l -0.90078,0.57322 c -0.0546,0.0273 -0.13648,0.0546 -0.21836,0.0819 l -1.06456,0.21837 c -0.0273,0 -0.0819,0 -0.13648,0 h -11.05494 c -0.0273,0 -0.0819,0 -0.10918,0 l -1.09185,-0.21837 c -0.0819,-0.0273 -0.16378,-0.0546 -0.24567,-0.0819 l -0.87347,-0.57322 c -0.0546,-0.0546 -0.13648,-0.13648 -0.19108,-0.19107 l -0.60051,-0.90077 c -0.0273,-0.0819 -0.0546,-0.16378 -0.0819,-0.24567 l -0.21837,-1.06455 c 0,-0.0273 -0.0273,-0.0819 -0.0273,-0.13648 z m 1.31022,29.8347 v -0.10919 l 0.21837,1.06456 -0.10918,-0.24567 0.60051,0.90077 -0.16378,-0.19107 0.87348,0.57322 -0.24567,-0.0819 1.09185,0.21837 -0.13648,-0.0273 h 11.05494 l -0.10918,0.0273 1.06455,-0.21837 -0.21837,0.0819 0.90077,-0.57322 -0.21837,0.21837 0.57322,-0.90077 -0.0819,0.21837 0.21836,-1.06456 -0.0273,0.10919 v -29.8347 l 0.0273,0.13648 -0.21836,-1.09184 0.0819,0.24566 -0.57322,-0.87348 0.19108,0.16378 -0.90078,-0.60052 0.24567,0.10919 -1.06455,-0.21837 h 0.10918 -11.05494 0.13648 l -1.09185,0.21837 0.24567,-0.10919 -0.87348,0.60052 0.16378,-0.16378 -0.60051,0.87348 0.10918,-0.24566 -0.21837,1.09184 v -0.13648 z"
       id="path1819" />
    <text
       xml:space="preserve"
       style="font-style:normal;font-variant:normal;font-weight:700;font-size:10.4841px;line-height:125%;font-family:'微軟正黑體';text-align:start;letter-spacing:0px;word-spacing:0px;text-anchor:start;fill:#000000;fill-opacity:1;stroke:none;stroke-width:0.264583"
       x="149.64804"
       y="207.08098"
       id="text1825"><tspan
         sodipodi:role="line"
         x="149.64804"
         y="207.08098"
         id="tspan1823"
         style="stroke-width:0.264583"><tspan
           dx="0"
           dy="0"
           style="font-style:normal;font-variant:normal;font-weight:700;font-size:10.4841px;font-family:'微軟正黑體';fill:#000000;stroke-width:0.264583"
           id="tspan1821">4</tspan></tspan></text>
    <path
       style="fill:#ffffff;fill-opacity:1;fill-rule:evenodd;stroke:none;stroke-width:0.264583"
       d="m 155.06327,209.13318 c 0,-1.55588 1.28292,-2.8388 2.8388,-2.8388 0,0 0,0 0,0 v 0 h 11.3552 v 0 c 1.58318,0 2.8388,1.28292 2.8388,2.8388 0,0 0,0 0,0 v 0 29.69822 0 c 0,1.58318 -1.25562,2.8388 -2.8388,2.8388 0,0 0,0 0,0 v 0 h -11.3552 v 0 c -1.55588,0 -2.8388,-1.25562 -2.8388,-2.8388 0,0 0,0 0,0 z"
       id="path1827" />
    <path
       style="fill:#321900;fill-opacity:1;fill-rule:nonzero;stroke:#321900;stroke-width:0.0272962px;stroke-linecap:butt;stroke-linejoin:round;stroke-miterlimit:4;stroke-dasharray:none;stroke-opacity:1"
       d="m 154.40816,209.13318 c 0,-0.0273 0.0273,-0.0819 0.0273,-0.10918 l 0.21837,-1.09185 c 0.0273,-0.0819 0.0546,-0.19107 0.10918,-0.24566 l 0.62781,-0.90078 c 0.0273,-0.0819 0.0819,-0.13648 0.16378,-0.16377 l 0.90077,-0.62782 c 0.0546,-0.0546 0.16378,-0.0819 0.24567,-0.10918 l 1.09184,-0.21837 c 0.0273,0 0.0819,-0.0273 0.10919,-0.0273 h 11.3552 c 0.0546,0 0.10918,0.0273 0.13648,0.0273 l 1.11914,0.21837 c 0.0819,0.0273 0.16378,0.0546 0.24567,0.10918 l 0.90077,0.62782 c 0.0819,0.0273 0.13648,0.10918 0.16378,0.16377 l 0.60051,0.90078 c 0.0546,0.0819 0.0819,0.16377 0.10919,0.24566 l 0.21837,1.09185 c 0,0.0273 0,0.0819 0,0.10918 v 29.69822 c 0,0.0546 0,0.10919 0,0.13648 l -0.21837,1.11915 c -0.0273,0.0819 -0.0546,0.16377 -0.10919,0.24566 l -0.60051,0.90077 c -0.0273,0.0546 -0.10919,0.13649 -0.16378,0.16378 l -0.90077,0.60052 c -0.0819,0.0546 -0.16378,0.0819 -0.24567,0.10918 l -1.11914,0.21837 c -0.0273,0 -0.0819,0 -0.13648,0 h -11.3552 c -0.0273,0 -0.0819,0 -0.10919,0 l -1.09184,-0.21837 c -0.0819,-0.0273 -0.16378,-0.0546 -0.24567,-0.10918 l -0.90077,-0.60052 c -0.0546,-0.0273 -0.13648,-0.0819 -0.16378,-0.16378 l -0.62781,-0.90077 c -0.0546,-0.0819 -0.0819,-0.16378 -0.10918,-0.24566 l -0.21837,-1.11915 c 0,-0.0273 -0.0273,-0.0819 -0.0273,-0.13648 z m 1.31021,29.69822 v -0.10918 l 0.21838,1.11914 -0.10919,-0.24567 0.62781,0.90078 -0.16378,-0.19108 0.90078,0.60052 -0.24567,-0.0819 1.09185,0.21837 -0.13648,-0.0273 h 11.3552 l -0.10918,0.0273 1.11914,-0.21837 -0.24567,0.0819 0.90078,-0.60052 -0.19108,0.19108 0.60052,-0.90078 -0.0819,0.24567 0.21837,-1.11914 -0.0273,0.10918 v -29.69822 l 0.0273,0.13648 -0.21837,-1.09184 0.0819,0.24566 -0.60052,-0.90077 0.19108,0.16378 -0.90078,-0.62782 0.24567,0.10919 -1.11914,-0.21837 h 0.10918 -11.3552 0.13648 l -1.09185,0.21837 0.24567,-0.10919 -0.90078,0.62782 0.16378,-0.16378 -0.62781,0.90077 0.10919,-0.24566 -0.21838,1.09184 v -0.13648 z"
       id="path1829" />
    <text
       xml:space="preserve"
       style="font-style:normal;font-variant:normal;font-weight:700;font-size:10.4841px;line-height:125%;font-family:'微軟正黑體';text-align:start;letter-spacing:0px;word-spacing:0px;text-anchor:start;fill:#000000;fill-opacity:1;stroke:none;stroke-width:0.264583"
       x="156.85425"
       y="217.20543"
       id="text1835"><tspan
         sodipodi:role="line"
         x="156.85425"
         y="217.20543"
         id="tspan1833"
         style="stroke-width:0.264583"><tspan
           dx="0"
           dy="0"
           style="font-style:normal;font-variant:normal;font-weight:700;font-size:10.4841px;font-family:'微軟正黑體';fill:#000000;stroke-width:0.264583"
           id="tspan1831">11</tspan></tspan></text>
    <path
       style="fill:#ffffff;fill-opacity:1;fill-rule:evenodd;stroke:none;stroke-width:0.264583"
       d="m 164.67152,217.86795 c 0,-1.55588 1.28291,-2.8388 2.8388,-2.8388 0,0 0,0 0,0 v 0 h 11.3552 v 0 c 1.58317,0 2.8388,1.28292 2.8388,2.8388 0,0 0,0 0,0 v 0 30.13496 0 c 0,1.58318 -1.25563,2.8388 -2.8388,2.8388 0,0 0,0 0,0 v 0 h -11.3552 v 0 c -1.55589,0 -2.8388,-1.25562 -2.8388,-2.8388 0,0 0,0 0,0 z"
       id="path1837" />
    <path
       style="fill:#321900;fill-opacity:1;fill-rule:nonzero;stroke:#321900;stroke-width:0.0272962px;stroke-linecap:butt;stroke-linejoin:round;stroke-miterlimit:4;stroke-dasharray:none;stroke-opacity:1"
       d="m 164.01641,217.86795 c 0,-0.0273 0.0273,-0.0819 0.0273,-0.10918 l 0.21837,-1.09185 c 0.0273,-0.0819 0.0546,-0.19107 0.10919,-0.24566 l 0.62781,-0.90078 c 0.0273,-0.0819 0.0819,-0.13648 0.16378,-0.16378 l 0.90077,-0.62781 c 0.0546,-0.0546 0.16378,-0.0819 0.24567,-0.10918 l 1.09184,-0.21837 c 0.0273,0 0.0819,-0.0273 0.10919,-0.0273 h 11.3552 c 0.0546,0 0.10918,0.0273 0.13648,0.0273 l 1.11914,0.21837 c 0.0819,0.0273 0.16378,0.0546 0.24566,0.10918 l 0.90078,0.62781 c 0.0819,0.0273 0.13648,0.10919 0.16378,0.16378 l 0.60051,0.90078 c 0.0546,0.0819 0.0819,0.16377 0.10919,0.24566 l 0.21837,1.09185 c 0,0.0273 0,0.0819 0,0.10918 v 30.13496 c 0,0.0546 0,0.10919 0,0.13648 l -0.21837,1.11914 c -0.0273,0.0819 -0.0546,0.16378 -0.10919,0.24567 l -0.60051,0.90077 c -0.0273,0.0546 -0.10919,0.13648 -0.16378,0.16378 l -0.90078,0.60052 c -0.0819,0.0546 -0.16377,0.0819 -0.24566,0.10918 l -1.11914,0.21837 c -0.0273,0 -0.0819,0 -0.13648,0 h -11.3552 c -0.0273,0 -0.0819,0 -0.10919,0 l -1.09184,-0.21837 c -0.0819,-0.0273 -0.16378,-0.0546 -0.24567,-0.10918 l -0.90077,-0.60052 c -0.0546,-0.0273 -0.13648,-0.0819 -0.16378,-0.16378 l -0.62781,-0.90077 c -0.0546,-0.0819 -0.0819,-0.16378 -0.10919,-0.24567 l -0.21837,-1.11914 c 0,-0.0273 -0.0273,-0.0819 -0.0273,-0.13648 z m 1.31021,30.13496 v -0.10918 l 0.21837,1.11914 -0.10918,-0.24567 0.62781,0.90078 -0.16378,-0.19108 0.90077,0.60052 -0.24566,-0.0819 1.09185,0.21837 -0.13648,-0.0273 h 11.3552 l -0.10919,0.0273 1.11915,-0.21837 -0.24567,0.0819 0.90077,-0.60052 -0.19107,0.19108 0.60051,-0.90078 -0.0819,0.24567 0.21837,-1.11914 -0.0273,0.10918 v -30.13496 l 0.0273,0.13648 -0.21837,-1.09184 0.0819,0.24566 -0.60051,-0.90077 0.19107,0.16378 -0.90077,-0.62782 0.24567,0.10919 -1.11915,-0.21837 h 0.10919 -11.3552 0.13648 l -1.09185,0.21837 0.24566,-0.10919 -0.90077,0.62782 0.16378,-0.16378 -0.62781,0.90077 0.10918,-0.24566 -0.21837,1.09184 v -0.13648 z"
       id="path1839" />
    <text
       xml:space="preserve"
       style="font-style:normal;font-variant:normal;font-weight:700;font-size:10.4841px;line-height:125%;font-family:'微軟正黑體';text-align:start;letter-spacing:0px;word-spacing:0px;text-anchor:start;fill:#000000;fill-opacity:1;stroke:none;stroke-width:0.264583"
       x="166.46254"
       y="224.79881"
       id="text1845"><tspan
         sodipodi:role="line"
         x="166.46254"
         y="224.79881"
         id="tspan1843"
         style="stroke-width:0.264583"><tspan
           dx="0"
           dy="0"
           style="font-style:normal;font-variant:normal;font-weight:700;font-size:10.4841px;font-family:'微軟正黑體';fill:#000000;stroke-width:0.264583"
           id="tspan1841">18</tspan></tspan></text>
    <path
       style="fill:#ffffff;fill-opacity:1;fill-rule:evenodd;stroke:none;stroke-width:0.264583"
       d="m 92.172924,236.21097 c 0,-1.55588 1.28292,-2.8388 2.8388,-2.8388 0,0 0,0 0,0 v 0 h 11.355196 v 0 c 1.58318,0 2.8388,1.28292 2.8388,2.8388 0,0 0,0 0,0 v 0 29.69822 0 c 0,1.58318 -1.25562,2.8388 -2.8388,2.8388 0,0 0,0 0,0 v 0 H 95.011724 v 0 c -1.55588,0 -2.8388,-1.25562 -2.8388,-2.8388 0,0 0,0 0,0 z"
       id="path1847" />
    <path
       style="fill:#321900;fill-opacity:1;fill-rule:nonzero;stroke:#321900;stroke-width:0.0272962px;stroke-linecap:butt;stroke-linejoin:round;stroke-miterlimit:4;stroke-dasharray:none;stroke-opacity:1"
       d="m 91.517814,236.21097 c 0,-0.0273 0.0273,-0.0819 0.0273,-0.10918 l 0.21837,-1.09185 c 0.0273,-0.0819 0.0546,-0.19107 0.10918,-0.24567 l 0.62782,-0.90077 c 0.0273,-0.0819 0.0819,-0.13648 0.16377,-0.16377 l 0.90077,-0.62782 c 0.0546,-0.0546 0.16378,-0.0819 0.24567,-0.10918 l 1.09185,-0.21837 c 0.0273,0 0.0819,-0.0273 0.10918,-0.0273 h 11.355196 c 0.0546,0 0.10919,0.0273 0.13648,0.0273 l 1.11915,0.21837 c 0.0819,0.0273 0.16377,0.0546 0.24566,0.10918 l 0.90078,0.62782 c 0.0819,0.0273 0.13648,0.10918 0.16377,0.16377 l 0.60052,0.90077 c 0.0546,0.0819 0.0819,0.16378 0.10918,0.24567 l 0.21837,1.09185 c 0,0.0273 0,0.0819 0,0.10918 v 29.69822 c 0,0.0546 0,0.10919 0,0.13648 l -0.21837,1.11914 c -0.0273,0.0819 -0.0546,0.16378 -0.10918,0.24567 l -0.60052,0.90077 c -0.0273,0.0546 -0.10918,0.13648 -0.16377,0.16378 l -0.90078,0.60051 c -0.0819,0.0546 -0.16378,0.0819 -0.24566,0.10919 l -1.11915,0.21837 c -0.0273,0 -0.0819,0 -0.13648,0 H 95.011724 c -0.0273,0 -0.0819,0 -0.10918,0 l -1.09185,-0.21837 c -0.0819,-0.0273 -0.16378,-0.0546 -0.24567,-0.10919 l -0.90077,-0.60051 c -0.0546,-0.0273 -0.13648,-0.0819 -0.16377,-0.16378 l -0.62782,-0.90077 c -0.0546,-0.0819 -0.0819,-0.16378 -0.10918,-0.24567 l -0.21837,-1.11914 c 0,-0.0273 -0.0273,-0.0819 -0.0273,-0.13648 z m 1.31022,29.69822 V 265.8 l 0.21837,1.11915 -0.10919,-0.24567 0.62781,0.90078 -0.16377,-0.19108 0.90077,0.60052 -0.24566,-0.0819 1.09184,0.21837 -0.13648,-0.0273 h 11.355196 l -0.10918,0.0273 1.11914,-0.21837 -0.24567,0.0819 0.90078,-0.60052 -0.19108,0.19108 0.60052,-0.90078 -0.0819,0.24567 0.21837,-1.11915 -0.0273,0.10919 v -29.69822 l 0.0273,0.13648 -0.21837,-1.09185 0.0819,0.24567 -0.60052,-0.90077 0.19108,0.16377 -0.90078,-0.62781 0.24567,0.10919 -1.11914,-0.21837 h 0.10918 -11.355196 0.13648 l -1.09184,0.21837 0.24566,-0.10919 -0.90077,0.62781 0.16377,-0.16377 -0.62781,0.90077 0.10919,-0.24567 -0.21837,1.09185 v -0.13648 z"
       id="path1849" />
    <text
       xml:space="preserve"
       style="font-style:normal;font-variant:normal;font-weight:700;font-size:10.4841px;line-height:125%;font-family:'微軟正黑體';text-align:start;letter-spacing:0px;word-spacing:0px;text-anchor:start;fill:#000000;fill-opacity:1;stroke:none;stroke-width:0.264583"
       x="93.963486"
       y="243.11217"
       id="text1855"><tspan
         sodipodi:role="line"
         x="93.963486"
         y="243.11217"
         id="tspan1853"
         style="stroke-width:0.264583"><tspan
           dx="0"
           dy="0"
           style="font-style:normal;font-variant:normal;font-weight:700;font-size:10.4841px;font-family:'微軟正黑體';fill:#000000;stroke-width:0.264583"
           id="tspan1851">2</tspan></tspan></text>
    <path
       style="fill:#ffffff;fill-opacity:1;fill-rule:evenodd;stroke:none;stroke-width:0.264583"
       d="m 99.597484,244.89115 c 0,-1.52858 1.255616,-2.78421 2.784196,-2.78421 0,0 0,0 0,0 v 0 h 11.05495 v 0 c 1.52858,0 2.75691,1.25563 2.75691,2.78421 0,0 0,0 0,0 v 0 30.27144 0 c 0,1.52858 -1.22833,2.75691 -2.75691,2.75691 0,0 0,0 0,0 v 0 h -11.05495 v 0 c -1.52858,0 -2.784196,-1.22833 -2.784196,-2.75691 0,0 0,0 0,0 z"
       id="path1857" />
    <path
       style="fill:#321900;fill-opacity:1;fill-rule:nonzero;stroke:#321900;stroke-width:0.0272962px;stroke-linecap:butt;stroke-linejoin:round;stroke-miterlimit:4;stroke-dasharray:none;stroke-opacity:1"
       d="m 98.942374,244.89115 c 0,-0.0273 0.0273,-0.0819 0.0273,-0.10919 l 0.21836,-1.09184 c 0.0273,-0.0819 0.0546,-0.16378 0.10919,-0.24567 l 0.60051,-0.87348 c 0.0273,-0.0819 0.0819,-0.13648 0.163776,-0.16377 l 0.87348,-0.60052 c 0.0819,-0.0546 0.16378,-0.0819 0.24566,-0.10918 l 1.09185,-0.21837 c 0.0273,0 0.0819,-0.0273 0.10918,-0.0273 h 11.05495 c 0.0546,0 0.10918,0.0273 0.13648,0.0273 l 1.06455,0.21837 c 0.0819,0.0273 0.16378,0.0546 0.24566,0.0819 l 0.90078,0.60051 c 0.0546,0.0546 0.13648,0.13648 0.19107,0.19107 l 0.57322,0.87348 c 0.0273,0.0819 0.0546,0.16378 0.0819,0.24567 l 0.21837,1.09184 c 0,0.0273 0,0.0819 0,0.10919 v 30.27143 c 0,0.0546 0,0.10918 0,0.13648 l -0.21837,1.06455 c -0.0273,0.0819 -0.0546,0.16378 -0.0819,0.21837 l -0.57322,0.90077 c -0.0546,0.0819 -0.13648,0.16378 -0.21837,0.21837 l -0.90077,0.57322 c -0.0546,0.0273 -0.13648,0.0546 -0.21837,0.0819 l -1.06455,0.21837 c -0.0273,0 -0.0819,0 -0.13648,0 h -11.05495 c -0.0273,0 -0.0819,0 -0.10918,0 l -1.09185,-0.21837 c -0.0819,-0.0273 -0.16377,-0.0546 -0.24566,-0.0819 l -0.87348,-0.57322 c -0.0546,-0.0546 -0.136476,-0.13648 -0.191066,-0.19107 l -0.60052,-0.90078 c -0.0273,-0.0819 -0.0546,-0.16377 -0.0819,-0.24566 l -0.21836,-1.06455 c 0,-0.0273 -0.0273,-0.0819 -0.0273,-0.13648 z m 1.310206,30.27144 v -0.10919 l 0.21837,1.06455 -0.10918,-0.24566 0.60052,0.90077 -0.16378,-0.19107 0.87348,0.57322 -0.24567,-0.0819 1.09184,0.21837 -0.13648,-0.0273 h 11.05495 l -0.10919,0.0273 1.06455,-0.21837 -0.21837,0.0819 0.90078,-0.57322 -0.21837,0.21837 0.57322,-0.90078 -0.0819,0.21837 0.21837,-1.06455 -0.0273,0.10919 v -30.27144 l 0.0273,0.13648 -0.21837,-1.09185 0.0819,0.24567 -0.57322,-0.87348 0.19107,0.16378 -0.90077,-0.60052 0.24566,0.10919 -1.06455,-0.21837 h 0.10919 -11.05495 0.13648 l -1.09184,0.21837 0.24567,-0.10919 -0.87348,0.60052 0.16378,-0.16378 -0.60052,0.87348 0.10918,-0.24567 -0.21837,1.09185 v -0.13648 z"
       id="path1859" />
    <text
       xml:space="preserve"
       style="font-style:normal;font-variant:normal;font-weight:700;font-size:10.4841px;line-height:125%;font-family:'微軟正黑體';text-align:start;letter-spacing:0px;word-spacing:0px;text-anchor:start;fill:#000000;fill-opacity:1;stroke:none;stroke-width:0.264583"
       x="101.16974"
       y="253.23662"
       id="text1865"><tspan
         sodipodi:role="line"
         x="101.16974"
         y="253.23662"
         id="tspan1863"
         style="stroke-width:0.264583"><tspan
           dx="0"
           dy="0"
           style="font-style:normal;font-variant:normal;font-weight:700;font-size:10.4841px;font-family:'微軟正黑體';fill:#000000;stroke-width:0.264583"
           id="tspan1861">9</tspan></tspan></text>
    <path
       style="fill:#ffffff;fill-opacity:1;fill-rule:evenodd;stroke:none;stroke-width:0.264583"
       d="m 109.20572,254.06266 c 0,-1.52859 1.25563,-2.78421 2.78421,-2.78421 0,0 0,0 0,0 v 0 h 11.05495 v 0 c 1.52858,0 2.75691,1.25562 2.75691,2.78421 0,0 0,0 0,0 v 0 29.8347 0 c 0,1.52858 -1.22833,2.75691 -2.75691,2.75691 0,0 0,0 0,0 v 0 h -11.05495 v 0 c -1.52858,0 -2.78421,-1.22833 -2.78421,-2.75691 0,0 0,0 0,0 z"
       id="path1867" />
    <path
       style="fill:#321900;fill-opacity:1;fill-rule:nonzero;stroke:#321900;stroke-width:0.0272962px;stroke-linecap:butt;stroke-linejoin:round;stroke-miterlimit:4;stroke-dasharray:none;stroke-opacity:1"
       d="m 108.55061,254.06266 c 0,-0.0273 0.0273,-0.0819 0.0273,-0.10919 l 0.21837,-1.09184 c 0.0273,-0.0819 0.0546,-0.16378 0.10919,-0.24567 l 0.60051,-0.87347 c 0.0273,-0.0819 0.0819,-0.13649 0.16378,-0.16378 l 0.87347,-0.60052 c 0.0819,-0.0546 0.16378,-0.0819 0.24567,-0.10918 l 1.09185,-0.21837 c 0.0273,0 0.0819,-0.0273 0.10918,-0.0273 h 11.05495 c 0.0546,0 0.10918,0.0273 0.13648,0.0273 l 1.06455,0.21837 c 0.0819,0.0273 0.16377,0.0546 0.24566,0.0819 l 0.90077,0.60052 c 0.0546,0.0546 0.13649,0.13648 0.19108,0.19108 l 0.57322,0.87347 c 0.0273,0.0819 0.0546,0.16378 0.0819,0.24567 l 0.21836,1.09184 c 0,0.0273 0,0.0819 0,0.10919 v 29.8347 c 0,0.0546 0,0.10918 0,0.13648 l -0.21836,1.06455 c -0.0273,0.0819 -0.0546,0.16377 -0.0819,0.21837 l -0.57322,0.90077 c -0.0546,0.0819 -0.13648,0.16378 -0.21837,0.21837 l -0.90077,0.57322 c -0.0546,0.0273 -0.13648,0.0546 -0.21837,0.0819 l -1.06455,0.21837 c -0.0273,0 -0.0819,0 -0.13648,0 h -11.05495 c -0.0273,0 -0.0819,0 -0.10918,0 l -1.09185,-0.21837 c -0.0819,-0.0273 -0.16378,-0.0546 -0.24567,-0.0819 l -0.87347,-0.57322 c -0.0546,-0.0546 -0.13648,-0.13648 -0.19107,-0.19107 l -0.60052,-0.90078 c -0.0273,-0.0819 -0.0546,-0.16377 -0.0819,-0.24566 l -0.21837,-1.06455 c 0,-0.0273 -0.0273,-0.0819 -0.0273,-0.13648 z m 1.31022,29.8347 v -0.10919 l 0.21837,1.06455 -0.10918,-0.24566 0.60051,0.90077 -0.16378,-0.19107 0.87348,0.57322 -0.24566,-0.0819 1.09184,0.21837 -0.13648,-0.0273 h 11.05495 l -0.10919,0.0273 1.06455,-0.21837 -0.21837,0.0819 0.90077,-0.57322 -0.21836,0.21837 0.57322,-0.90078 -0.0819,0.21837 0.21837,-1.06455 -0.0273,0.10919 v -29.8347 l 0.0273,0.13648 -0.21837,-1.09185 0.0819,0.24567 -0.57322,-0.87348 0.19107,0.16378 -0.90077,-0.60052 0.24566,0.10919 -1.06455,-0.21837 h 0.10919 -11.05495 0.13648 l -1.09184,0.21837 0.24566,-0.10919 -0.87348,0.60052 0.16378,-0.16378 -0.60051,0.87348 0.10918,-0.24567 -0.21837,1.09185 v -0.13648 z"
       id="path1869" />
    <text
       xml:space="preserve"
       style="font-style:normal;font-variant:normal;font-weight:700;font-size:10.4841px;line-height:125%;font-family:'微軟正黑體';text-align:start;letter-spacing:0px;word-spacing:0px;text-anchor:start;fill:#000000;fill-opacity:1;stroke:none;stroke-width:0.264583"
       x="110.77803"
       y="260.82996"
       id="text1875"><tspan
         sodipodi:role="line"
         x="110.77803"
         y="260.82996"
         id="tspan1873"
         style="stroke-width:0.264583"><tspan
           dx="0"
           dy="0"
           style="font-style:normal;font-variant:normal;font-weight:700;font-size:10.4841px;font-family:'微軟正黑體';fill:#000000;stroke-width:0.264583"
           id="tspan1871">16</tspan></tspan></text>
    <path
       style="fill:#ffffff;fill-opacity:1;fill-rule:evenodd;stroke:none;stroke-width:0.264583"
       d="m 88.679014,102.13225 c 0,-1.55589 1.28292,-2.838809 2.8388,-2.838809 0,0 0,0 0,0 v 0 h 11.355206 v 0 c 1.58317,0 2.8388,1.282919 2.8388,2.838809 0,0 0,0 0,0 v 0 29.69821 0 c 0,1.58318 -1.25563,2.83881 -2.8388,2.83881 0,0 0,0 0,0 v 0 H 91.517814 v 0 c -1.55588,0 -2.8388,-1.25563 -2.8388,-2.83881 0,0 0,0 0,0 z"
       id="path1877" />
    <path
       style="fill:#321900;fill-opacity:1;fill-rule:nonzero;stroke:#321900;stroke-width:0.0272962px;stroke-linecap:butt;stroke-linejoin:round;stroke-miterlimit:4;stroke-dasharray:none;stroke-opacity:1"
       d="m 88.023914,102.13225 c 0,-0.0273 0.0273,-0.0819 0.0273,-0.10919 l 0.21837,-1.09185 c 0.0273,-0.0819 0.0546,-0.19107 0.10918,-0.24566 l 0.62782,-0.900769 c 0.0273,-0.0819 0.0819,-0.13649 0.16377,-0.16378 l 0.90078,-0.62781 c 0.0546,-0.0546 0.16377,-0.0819 0.24566,-0.10919 l 1.09185,-0.21837 c 0.0273,0 0.0819,-0.0273 0.10918,-0.0273 h 11.355206 c 0.0546,0 0.10918,0.0273 0.13648,0.0273 l 1.11914,0.21837 c 0.0819,0.0273 0.16378,0.0546 0.24566,0.10919 l 0.90078,0.62781 c 0.0819,0.0273 0.13648,0.10918 0.16377,0.16378 l 0.60052,0.900769 c 0.0546,0.0819 0.0819,0.16378 0.10919,0.24566 l 0.21836,1.09185 c 0,0.0273 0,0.0819 0,0.10919 v 29.69821 c 0,0.0546 0,0.10919 0,0.13649 l -0.21836,1.11914 c -0.0273,0.0819 -0.0546,0.16377 -0.10919,0.24566 l -0.60052,0.90078 c -0.0273,0.0546 -0.10918,0.13648 -0.16377,0.16377 l -0.90078,0.60052 c -0.0819,0.0546 -0.16377,0.0819 -0.24566,0.10918 l -1.11914,0.21837 c -0.0273,0 -0.0819,0 -0.13648,0 H 91.517824 c -0.0273,0 -0.0819,0 -0.10918,0 l -1.09185,-0.21837 c -0.0819,-0.0273 -0.16377,-0.0546 -0.24566,-0.10918 l -0.90078,-0.60052 c -0.0546,-0.0273 -0.13648,-0.0819 -0.16377,-0.16377 l -0.62782,-0.90078 c -0.0546,-0.0819 -0.0819,-0.16377 -0.10918,-0.24566 l -0.21837,-1.11914 c 0,-0.0273 -0.0273,-0.0819 -0.0273,-0.13649 z m 1.31021,29.69821 v -0.10918 l 0.21837,1.11914 -0.10918,-0.24566 0.62781,0.90077 -0.16378,-0.19107 0.90077,0.60051 -0.24566,-0.0819 1.09184,0.21837 -0.13648,-0.0273 h 11.355206 l -0.10919,0.0273 1.11914,-0.21837 -0.24566,0.0819 0.90077,-0.60051 -0.19107,0.19107 0.60051,-0.90077 -0.0819,0.24566 0.21836,-1.11914 -0.0273,0.10918 v -29.69821 l 0.0273,0.13648 -0.21836,-1.09185 0.0819,0.24567 -0.60051,-0.90078 0.19107,0.16378 -0.90077,-0.62781 0.24566,0.10918 -1.11914,-0.218369 h 0.10919 -11.355206 0.13648 l -1.09184,0.218369 0.24566,-0.10918 -0.90077,0.62781 0.16378,-0.16378 -0.62781,0.90078 0.10918,-0.24567 -0.21837,1.09185 v -0.13648 z"
       id="path1879" />
    <text
       xml:space="preserve"
       style="font-style:normal;font-variant:normal;font-weight:700;font-size:10.4841px;line-height:125%;font-family:'微軟正黑體';text-align:start;letter-spacing:0px;word-spacing:0px;text-anchor:start;fill:#000000;fill-opacity:1;stroke:none;stroke-width:0.264583"
       x="90.687927"
       y="108.81412"
       id="text1885"><tspan
         sodipodi:role="line"
         x="90.687927"
         y="108.81412"
         id="tspan1883"
         style="stroke-width:0.264583"><tspan
           dx="0"
           dy="0"
           style="font-style:normal;font-variant:normal;font-weight:700;font-size:10.4841px;font-family:'微軟正黑體';fill:#000000;stroke-width:0.264583"
           id="tspan1881">3</tspan></tspan></text>
    <path
       style="fill:#ffffff;fill-opacity:1;fill-rule:evenodd;stroke:none;stroke-width:0.264583"
       d="m 96.103574,110.86702 c 0,-1.55589 1.28292,-2.8388 2.8388,-2.8388 0,0 0,0 0,0 v 0 h 11.355196 v 0 c 1.58318,0 2.8388,1.28291 2.8388,2.8388 0,0 0,0 0,0 v 0 29.69822 0 c 0,1.58317 -1.25562,2.83879 -2.8388,2.83879 0,0 0,0 0,0 v 0 H 98.942374 v 0 c -1.55588,0 -2.8388,-1.25562 -2.8388,-2.83879 0,0 0,0 0,0 z"
       id="path1887" />
    <path
       style="fill:#321900;fill-opacity:1;fill-rule:nonzero;stroke:#321900;stroke-width:0.0272962px;stroke-linecap:butt;stroke-linejoin:round;stroke-miterlimit:4;stroke-dasharray:none;stroke-opacity:1"
       d="m 95.448464,110.86702 c 0,-0.0273 0.0273,-0.0819 0.0273,-0.10919 l 0.21837,-1.09185 c 0.0273,-0.0819 0.0546,-0.19107 0.10918,-0.24566 l 0.62781,-0.90077 c 0.0273,-0.0819 0.0819,-0.13648 0.16378,-0.16378 l 0.90077,-0.62781 c 0.0546,-0.0546 0.16378,-0.0819 0.24567,-0.10919 l 1.09184,-0.21837 c 0.0273,0 0.0819,-0.0273 0.10919,-0.0273 h 11.355196 c 0.0546,0 0.10918,0.0273 0.13648,0.0273 l 1.11914,0.21837 c 0.0819,0.0273 0.16378,0.0546 0.24567,0.10919 l 0.90077,0.62781 c 0.0819,0.0273 0.13648,0.10918 0.16378,0.16378 l 0.60051,0.90077 c 0.0546,0.0819 0.0819,0.16378 0.10919,0.24566 l 0.21837,1.09185 c 0,0.0273 0,0.0819 0,0.10919 v 29.69822 c 0,0.0546 0,0.10918 0,0.13648 l -0.21837,1.11914 c -0.0273,0.0819 -0.0546,0.16378 -0.10919,0.24566 l -0.60051,0.90078 c -0.0273,0.0546 -0.10919,0.13648 -0.16378,0.16377 l -0.90077,0.60052 c -0.0819,0.0546 -0.16378,0.0819 -0.24567,0.10918 l -1.11914,0.21837 c -0.0273,0 -0.0819,0 -0.13648,0 H 98.942374 c -0.0273,0 -0.0819,0 -0.10919,0 l -1.09184,-0.21837 c -0.0819,-0.0273 -0.16378,-0.0546 -0.24567,-0.10918 l -0.90077,-0.60052 c -0.0546,-0.0273 -0.13648,-0.0819 -0.16378,-0.16377 l -0.62781,-0.90078 c -0.0546,-0.0819 -0.0819,-0.16377 -0.10918,-0.24566 l -0.21837,-1.11914 c 0,-0.0273 -0.0273,-0.0819 -0.0273,-0.13648 z m 1.31022,29.69822 v -0.10919 l 0.21836,1.11914 -0.10918,-0.24566 0.62781,0.90077 -0.16378,-0.19107 0.90078,0.60051 -0.24567,-0.0819 1.09185,0.21837 -0.13648,-0.0273 h 11.355196 l -0.10918,0.0273 1.11914,-0.21837 -0.24567,0.0819 0.90078,-0.60051 -0.19108,0.19107 0.60052,-0.90077 -0.0819,0.24566 0.21837,-1.11914 -0.0273,0.10919 v -29.69822 l 0.0273,0.13648 -0.21837,-1.09185 0.0819,0.24567 -0.60052,-0.90078 0.19108,0.16378 -0.90078,-0.62781 0.24567,0.10918 -1.11914,-0.21837 h 0.10918 -11.355196 0.13648 l -1.09185,0.21837 0.24567,-0.10918 -0.90078,0.62781 0.16378,-0.16378 -0.62781,0.90078 0.10918,-0.24567 -0.21836,1.09185 v -0.13648 z"
       id="path1889" />
    <text
       xml:space="preserve"
       style="font-style:normal;font-variant:normal;font-weight:700;font-size:10.4841px;line-height:125%;font-family:'微軟正黑體';text-align:start;letter-spacing:0px;word-spacing:0px;text-anchor:start;fill:#000000;fill-opacity:1;stroke:none;stroke-width:0.264583"
       x="97.89418"
       y="118.93857"
       id="text1895"><tspan
         sodipodi:role="line"
         x="97.89418"
         y="118.93857"
         id="tspan1893"
         style="stroke-width:0.264583"><tspan
           dx="0"
           dy="0"
           style="font-style:normal;font-variant:normal;font-weight:700;font-size:10.4841px;font-family:'微軟正黑體';fill:#000000;stroke-width:0.264583"
           id="tspan1891">10</tspan></tspan></text>
    <path
       style="fill:#ffffff;fill-opacity:1;fill-rule:evenodd;stroke:none;stroke-width:0.264583"
       d="m 105.71182,119.60178 c 0,-1.55587 1.28291,-2.83879 2.83879,-2.83879 0,0 0,0 0,0 v 0 h 11.35521 v 0 c 1.58317,0 2.8388,1.28292 2.8388,2.83879 0,0 0,0 0,0 v 0 30.13496 0 c 0,1.58318 -1.25563,2.8388 -2.8388,2.8388 0,0 0,0 0,0 v 0 h -11.35521 v 0 c -1.55588,0 -2.83879,-1.25562 -2.83879,-2.8388 0,0 0,0 0,0 z"
       id="path1897" />
    <path
       style="fill:#321900;fill-opacity:1;fill-rule:nonzero;stroke:#321900;stroke-width:0.0272962px;stroke-linecap:butt;stroke-linejoin:round;stroke-miterlimit:4;stroke-dasharray:none;stroke-opacity:1"
       d="m 105.05671,119.60178 c 0,-0.0273 0.0273,-0.0819 0.0273,-0.10918 l 0.21837,-1.09184 c 0.0273,-0.0819 0.0546,-0.19108 0.10919,-0.24567 l 0.62781,-0.90077 c 0.0273,-0.0819 0.0819,-0.13648 0.16378,-0.16378 l 0.90077,-0.62781 c 0.0546,-0.0546 0.16378,-0.0819 0.24567,-0.10919 l 1.09184,-0.21837 c 0.0273,0 0.0819,-0.0273 0.10918,-0.0273 h 11.35521 c 0.0546,0 0.10918,0.0273 0.13648,0.0273 l 1.11914,0.21837 c 0.0819,0.0273 0.16378,0.0546 0.24567,0.10919 l 0.90077,0.62781 c 0.0819,0.0273 0.13648,0.10918 0.16378,0.16378 l 0.60051,0.90077 c 0.0546,0.0819 0.0819,0.16378 0.10919,0.24567 l 0.21836,1.09184 c 0,0.0273 0,0.0819 0,0.10918 v 30.13496 c 0,0.0546 0,0.10919 0,0.13648 l -0.21836,1.11915 c -0.0273,0.0819 -0.0546,0.16377 -0.10919,0.24566 l -0.60051,0.90078 c -0.0273,0.0546 -0.10919,0.13648 -0.16378,0.16377 l -0.90077,0.60052 c -0.0819,0.0546 -0.16378,0.0819 -0.24567,0.10918 l -1.11914,0.21837 c -0.0273,0 -0.0819,0 -0.13648,0 h -11.35521 c -0.0273,0 -0.0819,0 -0.10918,0 l -1.09184,-0.21837 c -0.0819,-0.0273 -0.16378,-0.0546 -0.24567,-0.10918 l -0.90077,-0.60052 c -0.0546,-0.0273 -0.13648,-0.0819 -0.16378,-0.16377 l -0.62781,-0.90078 c -0.0546,-0.0819 -0.0819,-0.16377 -0.10919,-0.24566 l -0.21837,-1.11915 c 0,-0.0273 -0.0273,-0.0819 -0.0273,-0.13648 z m 1.31021,30.13496 v -0.10918 l 0.21837,1.11914 -0.10918,-0.24566 0.62781,0.90077 -0.16378,-0.19107 0.90077,0.60051 -0.24566,-0.0819 1.09185,0.21837 -0.13649,-0.0273 h 11.35521 l -0.10919,0.0273 1.11914,-0.21837 -0.24566,0.0819 0.90077,-0.60051 -0.19107,0.19107 0.60051,-0.90077 -0.0819,0.24566 0.21836,-1.11914 -0.0273,0.10918 v -30.13496 l 0.0273,0.13649 -0.21836,-1.09185 0.0819,0.24566 -0.60051,-0.90077 0.19107,0.16378 -0.90077,-0.62781 0.24566,0.10918 -1.11914,-0.21837 h 0.10919 -11.35521 0.13649 l -1.09185,0.21837 0.24566,-0.10918 -0.90077,0.62781 0.16378,-0.16378 -0.62781,0.90077 0.10918,-0.24566 -0.21837,1.09185 v -0.13649 z"
       id="path1899" />
    <text
       xml:space="preserve"
       style="font-style:normal;font-variant:normal;font-weight:700;font-size:10.4841px;line-height:125%;font-family:'微軟正黑體';text-align:start;letter-spacing:0px;word-spacing:0px;text-anchor:start;fill:#000000;fill-opacity:1;stroke:none;stroke-width:0.264583"
       x="107.50243"
       y="126.53191"
       id="text1905"><tspan
         sodipodi:role="line"
         x="107.50243"
         y="126.53191"
         id="tspan1903"
         style="stroke-width:0.264583"><tspan
           dx="0"
           dy="0"
           style="font-style:normal;font-variant:normal;font-weight:700;font-size:10.4841px;font-family:'微軟正黑體';fill:#000000;stroke-width:0.264583"
           id="tspan1901">17</tspan></tspan></text>
    <path
       style="fill:#ffffff;fill-opacity:1;fill-rule:evenodd;stroke:none;stroke-width:0.264583"
       d="m 154.62653,137.89021 c 0,-1.52858 1.25562,-2.78421 2.78421,-2.78421 0,0 0,0 0,0 v 0 h 11.05494 v 0 c 1.52859,0 2.75691,1.25563 2.75691,2.78421 0,0 0,0 0,0 v 0 29.8347 0 c 0,1.52859 -1.22832,2.75691 -2.75691,2.75691 0,0 0,0 0,0 v 0 h -11.05494 v 0 c -1.52859,0 -2.78421,-1.22832 -2.78421,-2.75691 0,0 0,0 0,0 z"
       id="path1907" />
    <path
       style="fill:#321900;fill-opacity:1;fill-rule:nonzero;stroke:#321900;stroke-width:0.0272962px;stroke-linecap:butt;stroke-linejoin:round;stroke-miterlimit:4;stroke-dasharray:none;stroke-opacity:1"
       d="m 153.97142,137.89021 c 0,-0.0273 0.0273,-0.0819 0.0273,-0.10918 l 0.21837,-1.09185 c 0.0273,-0.0819 0.0546,-0.16378 0.10918,-0.24567 l 0.60052,-0.87347 c 0.0273,-0.0819 0.0819,-0.13648 0.16377,-0.16378 l 0.87348,-0.60051 c 0.0819,-0.0546 0.16378,-0.0819 0.24567,-0.10919 l 1.09184,-0.21837 c 0.0273,0 0.0819,-0.0273 0.10919,-0.0273 h 11.05494 c 0.0546,0 0.10919,0.0273 0.13648,0.0273 l 1.06455,0.21837 c 0.0819,0.0273 0.16378,0.0546 0.24567,0.0819 l 0.90077,0.60052 c 0.0546,0.0546 0.13648,0.13648 0.19107,0.19107 l 0.57322,0.87347 c 0.0273,0.0819 0.0546,0.16378 0.0819,0.24567 l 0.21837,1.09185 c 0,0.0273 0,0.0819 0,0.10918 v 29.8347 c 0,0.0546 0,0.10919 0,0.13648 l -0.21837,1.06455 c -0.0273,0.0819 -0.0546,0.16378 -0.0819,0.21837 l -0.57322,0.90077 c -0.0546,0.0819 -0.13648,0.16378 -0.21836,0.21838 l -0.90078,0.57321 c -0.0546,0.0273 -0.13648,0.0546 -0.21837,0.0819 l -1.06455,0.21837 c -0.0273,0 -0.0819,0 -0.13648,0 h -11.05494 c -0.0273,0 -0.0819,0 -0.10919,0 l -1.09184,-0.21837 c -0.0819,-0.0273 -0.16378,-0.0546 -0.24567,-0.0819 l -0.87348,-0.57321 c -0.0546,-0.0546 -0.13648,-0.13649 -0.19107,-0.19108 l -0.60051,-0.90077 c -0.0273,-0.0819 -0.0546,-0.16378 -0.0819,-0.24567 l -0.21837,-1.06455 c 0,-0.0273 -0.0273,-0.0819 -0.0273,-0.13648 z m 1.31022,29.8347 v -0.10918 l 0.21837,1.06455 -0.10919,-0.24567 0.60052,0.90077 -0.16378,-0.19107 0.87348,0.57322 -0.24567,-0.0819 1.09185,0.21837 -0.13648,-0.0273 h 11.05494 l -0.10918,0.0273 1.06455,-0.21837 -0.21837,0.0819 0.90077,-0.57322 -0.21837,0.21837 0.57322,-0.90077 -0.0819,0.21837 0.21837,-1.06455 -0.0273,0.10918 v -29.8347 l 0.0273,0.13648 -0.21837,-1.09184 0.0819,0.24566 -0.57322,-0.87348 0.19107,0.16378 -0.90077,-0.60051 0.24567,0.10918 -1.06455,-0.21837 h 0.10918 -11.05494 0.13648 l -1.09185,0.21837 0.24567,-0.10918 -0.87348,0.60051 0.16378,-0.16378 -0.60052,0.87348 0.10919,-0.24566 -0.21837,1.09184 v -0.13648 z"
       id="path1909" />
    <text
       xml:space="preserve"
       style="font-style:normal;font-variant:normal;font-weight:700;font-size:10.4841px;line-height:125%;font-family:'微軟正黑體';text-align:start;letter-spacing:0px;word-spacing:0px;text-anchor:start;fill:#000000;fill-opacity:1;stroke:none;stroke-width:0.264583"
       x="156.19916"
       y="144.84529"
       id="text1915"><tspan
         sodipodi:role="line"
         x="156.19916"
         y="144.84529"
         id="tspan1913"
         style="stroke-width:0.264583"><tspan
           dx="0"
           dy="0"
           style="font-style:normal;font-variant:normal;font-weight:700;font-size:10.4841px;font-family:'微軟正黑體';fill:#000000;stroke-width:0.264583"
           id="tspan1911">1</tspan></tspan></text>
    <path
       style="fill:#ffffff;fill-opacity:1;fill-rule:evenodd;stroke:none;stroke-width:0.264583"
       d="m 161.61434,146.67957 c 0,-1.55588 1.28292,-2.8388 2.83881,-2.8388 0,0 0,0 0,0 v 0 h 11.3552 v 0 c 1.58318,0 2.8388,1.28292 2.8388,2.8388 0,0 0,0 0,0 v 0 30.13496 0 c 0,1.58318 -1.25562,2.8388 -2.8388,2.8388 0,0 0,0 0,0 v 0 h -11.3552 v 0 c -1.55589,0 -2.83881,-1.25562 -2.83881,-2.8388 0,0 0,0 0,0 z"
       id="path1917" />
    <path
       style="fill:#321900;fill-opacity:1;fill-rule:nonzero;stroke:#321900;stroke-width:0.0272962px;stroke-linecap:butt;stroke-linejoin:round;stroke-miterlimit:4;stroke-dasharray:none;stroke-opacity:1"
       d="m 160.95924,146.67957 c 0,-0.0273 0.0273,-0.0819 0.0273,-0.10918 l 0.21837,-1.09185 c 0.0273,-0.0819 0.0546,-0.19107 0.10919,-0.24566 l 0.62781,-0.90077 c 0.0273,-0.0819 0.0819,-0.13649 0.16378,-0.16378 l 0.90077,-0.62782 c 0.0546,-0.0546 0.16378,-0.0819 0.24567,-0.10918 l 1.09184,-0.21837 c 0.0273,0 0.0819,-0.0273 0.10919,-0.0273 h 11.3552 c 0.0546,0 0.10918,0.0273 0.13648,0.0273 l 1.11914,0.21837 c 0.0819,0.0273 0.16378,0.0546 0.24567,0.10918 l 0.90077,0.62782 c 0.0819,0.0273 0.13648,0.10918 0.16378,0.16378 l 0.60051,0.90077 c 0.0546,0.0819 0.0819,0.16377 0.10919,0.24566 l 0.21837,1.09185 c 0,0.0273 0,0.0819 0,0.10918 v 30.13496 c 0,0.0546 0,0.10919 0,0.13648 l -0.21837,1.11915 c -0.0273,0.0819 -0.0546,0.16377 -0.10919,0.24566 l -0.60051,0.90077 c -0.0273,0.0546 -0.10919,0.13649 -0.16378,0.16378 l -0.90077,0.60052 c -0.0819,0.0546 -0.16378,0.0819 -0.24567,0.10918 l -1.11914,0.21837 c -0.0273,0 -0.0819,0 -0.13648,0 h -11.3552 c -0.0273,0 -0.0819,0 -0.10919,0 l -1.09184,-0.21837 c -0.0819,-0.0273 -0.16378,-0.0546 -0.24567,-0.10918 l -0.90077,-0.60052 c -0.0546,-0.0273 -0.13648,-0.0819 -0.16378,-0.16378 l -0.62781,-0.90077 c -0.0546,-0.0819 -0.0819,-0.16378 -0.10919,-0.24566 l -0.21837,-1.11915 c 0,-0.0273 -0.0273,-0.0819 -0.0273,-0.13648 z m 1.31021,30.13496 v -0.10918 l 0.21837,1.11914 -0.10918,-0.24567 0.62781,0.90078 -0.16378,-0.19108 0.90078,0.60052 -0.24567,-0.0819 1.09185,0.21837 -0.13648,-0.0273 h 11.3552 l -0.10919,0.0273 1.11915,-0.21837 -0.24567,0.0819 0.90077,-0.60052 -0.19107,0.19108 0.60052,-0.90078 -0.0819,0.24567 0.21837,-1.11914 -0.0273,0.10918 v -30.13496 l 0.0273,0.13648 -0.21837,-1.09184 0.0819,0.24566 -0.60052,-0.90077 0.19107,0.16378 -0.90077,-0.62781 0.24567,0.10918 -1.11915,-0.21837 h 0.10919 -11.3552 0.13648 l -1.09185,0.21837 0.24567,-0.10918 -0.90078,0.62781 0.16378,-0.16378 -0.62781,0.90077 0.10918,-0.24566 -0.21837,1.09184 v -0.13648 z"
       id="path1919" />
    <text
       xml:space="preserve"
       style="font-style:normal;font-variant:normal;font-weight:700;font-size:10.4841px;line-height:125%;font-family:'微軟正黑體';text-align:start;letter-spacing:0px;word-spacing:0px;text-anchor:start;fill:#000000;fill-opacity:1;stroke:none;stroke-width:0.264583"
       x="163.40541"
       y="154.96974"
       id="text1925"><tspan
         sodipodi:role="line"
         x="163.40541"
         y="154.96974"
         id="tspan1923"
         style="stroke-width:0.264583"><tspan
           dx="0"
           dy="0"
           style="font-style:normal;font-variant:normal;font-weight:700;font-size:10.4841px;font-family:'微軟正黑體';fill:#000000;stroke-width:0.264583"
           id="tspan1921">8</tspan></tspan></text>
    <path
       style="fill:#ffffff;fill-opacity:1;fill-rule:evenodd;stroke:none;stroke-width:0.264583"
       d="m 171.22259,155.85108 c 0,-1.55588 1.28292,-2.8388 2.8388,-2.8388 0,0 0,0 0,0 v 0 h 11.3552 v 0 c 1.58318,0 2.83881,1.28292 2.83881,2.8388 0,0 0,0 0,0 v 0 29.69822 0 c 0,1.58318 -1.25563,2.8388 -2.83881,2.8388 0,0 0,0 0,0 v 0 h -11.3552 v 0 c -1.55588,0 -2.8388,-1.25562 -2.8388,-2.8388 0,0 0,0 0,0 z"
       id="path1927" />
    <path
       style="fill:#321900;fill-opacity:1;fill-rule:nonzero;stroke:#321900;stroke-width:0.0272962px;stroke-linecap:butt;stroke-linejoin:round;stroke-miterlimit:4;stroke-dasharray:none;stroke-opacity:1"
       d="m 170.56748,155.85108 c 0,-0.0273 0.0273,-0.0819 0.0273,-0.10918 l 0.21837,-1.09185 c 0.0273,-0.0819 0.0546,-0.19107 0.10919,-0.24566 l 0.62781,-0.90078 c 0.0273,-0.0819 0.0819,-0.13648 0.16377,-0.16377 l 0.90078,-0.62781 c 0.0546,-0.0546 0.16378,-0.0819 0.24566,-0.10919 l 1.09185,-0.21837 c 0.0273,0 0.0819,-0.0273 0.10918,-0.0273 h 11.3552 c 0.0546,0 0.10919,0.0273 0.13648,0.0273 l 1.11915,0.21837 c 0.0819,0.0273 0.16377,0.0546 0.24566,0.10919 l 0.90078,0.62781 c 0.0819,0.0273 0.13648,0.10918 0.16377,0.16377 l 0.60052,0.90078 c 0.0546,0.0819 0.0819,0.16377 0.10918,0.24566 l 0.21837,1.09185 c 0,0.0273 0,0.0819 0,0.10918 v 29.69822 c 0,0.0546 0,0.10919 0,0.13648 l -0.21837,1.11914 c -0.0273,0.0819 -0.0546,0.16378 -0.10918,0.24567 l -0.60052,0.90077 c -0.0273,0.0546 -0.10918,0.13648 -0.16377,0.16378 l -0.90078,0.60052 c -0.0819,0.0546 -0.16377,0.0819 -0.24566,0.10918 l -1.11915,0.21837 c -0.0273,0 -0.0819,0 -0.13648,0 h -11.3552 c -0.0273,0 -0.0819,0 -0.10918,0 l -1.09185,-0.21837 c -0.0819,-0.0273 -0.16377,-0.0546 -0.24566,-0.10918 l -0.90078,-0.60052 c -0.0546,-0.0273 -0.13648,-0.0819 -0.16377,-0.16378 l -0.62781,-0.90077 c -0.0546,-0.0819 -0.0819,-0.16378 -0.10919,-0.24567 l -0.21837,-1.11914 c 0,-0.0273 -0.0273,-0.0819 -0.0273,-0.13648 z m 1.31022,29.69822 v -0.10918 l 0.21837,1.11914 -0.10919,-0.24567 0.62782,0.90078 -0.16378,-0.19107 0.90077,0.60051 -0.24566,-0.0819 1.09185,0.21837 -0.13649,-0.0273 h 11.3552 l -0.10918,0.0273 1.11914,-0.21837 -0.24566,0.0819 0.90077,-0.60051 -0.19107,0.19107 0.60051,-0.90078 -0.0819,0.24567 0.21837,-1.11914 -0.0273,0.10918 v -29.69822 l 0.0273,0.13648 -0.21837,-1.09184 0.0819,0.24566 -0.60051,-0.90077 0.19107,0.16378 -0.90077,-0.62782 0.24566,0.10919 -1.11914,-0.21837 h 0.10918 -11.3552 0.13649 l -1.09185,0.21837 0.24566,-0.10919 -0.90077,0.62782 0.16378,-0.16378 -0.62782,0.90077 0.10919,-0.24566 -0.21837,1.09184 v -0.13648 z"
       id="path1929" />
    <text
       xml:space="preserve"
       style="font-style:normal;font-variant:normal;font-weight:700;font-size:10.4841px;line-height:125%;font-family:'微軟正黑體';text-align:start;letter-spacing:0px;word-spacing:0px;text-anchor:start;fill:#000000;fill-opacity:1;stroke:none;stroke-width:0.264583"
       x="173.0137"
       y="162.56313"
       id="text1935"><tspan
         sodipodi:role="line"
         x="173.0137"
         y="162.56313"
         id="tspan1933"
         style="stroke-width:0.264583"><tspan
           dx="0"
           dy="0"
           style="font-style:normal;font-variant:normal;font-weight:700;font-size:10.4841px;font-family:'微軟正黑體';fill:#000000;stroke-width:0.264583"
           id="tspan1931">15</tspan></tspan></text>
    <path
       style="fill:#ffffff;fill-opacity:1;fill-rule:evenodd;stroke:none;stroke-width:0.264583"
       d="m 33.213225,134.83304 c 0,-1.52858 1.255623,-2.78421 2.784208,-2.78421 0,0 0,0 0,0 v 0 h 11.054944 v 0 c 1.528585,0 2.756913,1.25563 2.756913,2.78421 0,0 0,0 0,0 v 0 29.8347 0 c 0,1.52859 -1.228328,2.75691 -2.756913,2.75691 0,0 0,0 0,0 v 0 H 35.997433 v 0 c -1.528585,0 -2.784208,-1.22832 -2.784208,-2.75691 0,0 0,0 0,0 z"
       id="path1937" />
    <path
       style="fill:#321900;fill-opacity:1;fill-rule:nonzero;stroke:#321900;stroke-width:0.0272962px;stroke-linecap:butt;stroke-linejoin:round;stroke-miterlimit:4;stroke-dasharray:none;stroke-opacity:1"
       d="m 32.558118,134.83304 c 0,-0.0273 0.0273,-0.0819 0.0273,-0.10918 l 0.218369,-1.09185 c 0.0273,-0.0819 0.05459,-0.16378 0.109184,-0.24566 l 0.600516,-0.87348 c 0.0273,-0.0819 0.08189,-0.13648 0.163777,-0.16378 l 0.873477,-0.60051 c 0.08189,-0.0546 0.163777,-0.0819 0.245665,-0.10919 l 1.091847,-0.21837 c 0.0273,0 0.08189,-0.0273 0.109184,-0.0273 h 11.054944 c 0.05459,0 0.109185,0.0273 0.13648,0.0273 l 1.064551,0.21837 c 0.08189,0.0273 0.163777,0.0546 0.245665,0.0819 l 0.900774,0.60052 c 0.05459,0.0546 0.13648,0.13648 0.191072,0.19107 l 0.57322,0.87348 c 0.0273,0.0819 0.05459,0.16377 0.08189,0.24566 l 0.218369,1.09185 c 0,0.0273 0,0.0819 0,0.10918 v 29.8347 c 0,0.0546 0,0.10919 0,0.13648 l -0.218369,1.06455 c -0.0273,0.0819 -0.05459,0.16378 -0.08189,0.21837 l -0.57322,0.90078 c -0.05459,0.0819 -0.13648,0.16377 -0.218369,0.21836 l -0.900774,0.57322 c -0.05459,0.0273 -0.13648,0.0546 -0.218368,0.0819 l -1.064551,0.21837 c -0.0273,0 -0.08189,0 -0.13648,0 H 35.997433 c -0.0273,0 -0.08189,0 -0.109184,0 l -1.091847,-0.21837 c -0.08189,-0.0273 -0.163776,-0.0546 -0.245665,-0.0819 l -0.873477,-0.57322 c -0.05459,-0.0546 -0.136481,-0.13648 -0.191073,-0.19107 l -0.600516,-0.90077 c -0.0273,-0.0819 -0.05459,-0.16378 -0.08189,-0.24567 l -0.218369,-1.06455 c 0,-0.0273 -0.0273,-0.0819 -0.0273,-0.13648 z m 1.310215,29.8347 v -0.10918 l 0.218369,1.06455 -0.109184,-0.24567 0.600515,0.90078 -0.163777,-0.19108 0.873477,0.57322 -0.245665,-0.0819 1.091846,0.21837 -0.136481,-0.0273 h 11.054944 l -0.109186,0.0273 1.064551,-0.21837 -0.218368,0.0819 0.900774,-0.57322 -0.218372,0.21837 0.57322,-0.90077 -0.08189,0.21837 0.218368,-1.06455 -0.02729,0.10918 v -29.8347 l 0.02729,0.13648 -0.218368,-1.09184 0.08189,0.24566 -0.57322,-0.87348 0.191075,0.16378 -0.900774,-0.60051 0.245665,0.10918 -1.064551,-0.21837 h 0.109186 -11.054944 0.136481 l -1.091846,0.21837 0.245665,-0.10918 -0.873477,0.60051 0.163777,-0.16378 -0.600515,0.87348 0.109184,-0.24566 -0.218369,1.09184 v -0.13648 z"
       id="path1939" />
    <text
       xml:space="preserve"
       style="font-style:normal;font-variant:normal;font-weight:700;font-size:10.4841px;line-height:125%;font-family:'微軟正黑體';text-align:start;letter-spacing:0px;word-spacing:0px;text-anchor:start;fill:#000000;fill-opacity:1;stroke:none;stroke-width:0.264583"
       x="35.003372"
       y="141.56973"
       id="text1945"><tspan
         sodipodi:role="line"
         x="35.003372"
         y="141.56973"
         id="tspan1943"
         style="stroke-width:0.264583"><tspan
           dx="0"
           dy="0"
           style="font-style:normal;font-variant:normal;font-weight:700;font-size:10.4841px;font-family:'微軟正黑體';fill:#000000;stroke-width:0.264583"
           id="tspan1941">5</tspan></tspan></text>
    <path
       style="fill:#ffffff;fill-opacity:1;fill-rule:evenodd;stroke:none;stroke-width:0.264583"
       d="m 40.63778,143.56781 c 0,-1.52858 1.255623,-2.78421 2.784209,-2.78421 0,0 0,0 0,0 v 0 h 11.054943 v 0 c 1.528585,0 2.756913,1.25563 2.756913,2.78421 0,0 0,0 0,0 v 0 29.8347 0 c 0,1.52859 -1.228328,2.75691 -2.756913,2.75691 0,0 0,0 0,0 v 0 H 43.421989 v 0 c -1.528586,0 -2.784209,-1.22832 -2.784209,-2.75691 0,0 0,0 0,0 z"
       id="path1947" />
    <path
       style="fill:#321900;fill-opacity:1;fill-rule:nonzero;stroke:#321900;stroke-width:0.0272962px;stroke-linecap:butt;stroke-linejoin:round;stroke-miterlimit:4;stroke-dasharray:none;stroke-opacity:1"
       d="m 39.982672,143.56781 c 0,-0.0273 0.0273,-0.0819 0.0273,-0.10918 l 0.218369,-1.09185 c 0.0273,-0.0819 0.05459,-0.16378 0.109184,-0.24566 l 0.600516,-0.87348 c 0.0273,-0.0819 0.08189,-0.13648 0.163777,-0.16378 l 0.873477,-0.60051 c 0.08189,-0.0546 0.163777,-0.0819 0.245665,-0.10919 l 1.091847,-0.21837 c 0.0273,0 0.08189,-0.0273 0.109185,-0.0273 h 11.054943 c 0.05459,0 0.109185,0.0273 0.13648,0.0273 l 1.064551,0.21837 c 0.08189,0.0273 0.163777,0.0546 0.245665,0.0819 l 0.900774,0.60052 c 0.05459,0.0546 0.13648,0.13648 0.191072,0.19107 l 0.57322,0.87348 c 0.0273,0.0819 0.05459,0.16377 0.08189,0.24566 l 0.218369,1.09185 c 0,0.0273 0,0.0819 0,0.10918 v 29.8347 c 0,0.0546 0,0.10919 0,0.13648 l -0.218369,1.06455 c -0.0273,0.0819 -0.05459,0.16378 -0.08189,0.21837 l -0.57322,0.90078 c -0.05459,0.0819 -0.13648,0.16377 -0.218369,0.21836 l -0.900774,0.57322 c -0.05459,0.0273 -0.13648,0.0546 -0.218368,0.0819 l -1.064551,0.21837 c -0.0273,0 -0.08189,0 -0.13648,0 H 43.421989 c -0.0273,0 -0.08189,0 -0.109185,0 l -1.091847,-0.21837 c -0.08189,-0.0273 -0.163777,-0.0546 -0.245665,-0.0819 l -0.873477,-0.57322 c -0.05459,-0.0546 -0.136481,-0.13648 -0.191073,-0.19107 l -0.600516,-0.90077 c -0.0273,-0.0819 -0.05459,-0.16378 -0.08189,-0.24567 L 40.009967,173.539 c 0,-0.0273 -0.0273,-0.0819 -0.0273,-0.13648 z m 1.310216,29.8347 v -0.10918 l 0.218369,1.06455 -0.109185,-0.24567 0.600516,0.90078 -0.163777,-0.19108 0.873478,0.57322 -0.245666,-0.0819 1.091846,0.21837 -0.13648,-0.0273 h 11.054943 l -0.109186,0.0273 1.064551,-0.21837 -0.218368,0.0819 0.900774,-0.57322 -0.218372,0.21837 0.57322,-0.90077 -0.08189,0.21837 0.218368,-1.06455 -0.02729,0.10918 v -29.8347 l 0.02729,0.13648 -0.218368,-1.09184 0.08189,0.24566 -0.57322,-0.87347 0.191074,0.16377 -0.900774,-0.60051 0.245666,0.10918 -1.064551,-0.21837 h 0.109186 -11.054943 0.13648 l -1.091846,0.21837 0.245666,-0.10918 -0.873478,0.60051 0.163777,-0.16377 -0.600516,0.87347 0.109185,-0.24566 -0.218369,1.09184 v -0.13648 z"
       id="path1949" />
    <text
       xml:space="preserve"
       style="font-style:normal;font-variant:normal;font-weight:700;font-size:10.4841px;line-height:125%;font-family:'微軟正黑體';text-align:start;letter-spacing:0px;word-spacing:0px;text-anchor:start;fill:#000000;fill-opacity:1;stroke:none;stroke-width:0.264583"
       x="42.209625"
       y="151.69418"
       id="text1955"><tspan
         sodipodi:role="line"
         x="42.209625"
         y="151.69418"
         id="tspan1953"
         style="stroke-width:0.264583"><tspan
           dx="0"
           dy="0"
           style="font-style:normal;font-variant:normal;font-weight:700;font-size:10.4841px;font-family:'微軟正黑體';fill:#000000;stroke-width:0.264583"
           id="tspan1951">12</tspan></tspan></text>
    <path
       style="fill:#ffffff;fill-opacity:1;fill-rule:evenodd;stroke:none;stroke-width:0.264583"
       d="m 49.80929,152.35717 c 0,-1.55588 1.282917,-2.83879 2.838799,-2.83879 0,0 0,0 0,0 v 0 h 11.355205 v 0 c 1.58317,0 2.8388,1.28291 2.8388,2.83879 0,0 0,0 0,0 v 0 30.13496 0 c 0,1.58318 -1.25563,2.8388 -2.8388,2.8388 0,0 0,0 0,0 v 0 H 52.648089 v 0 c -1.555882,0 -2.838799,-1.25562 -2.838799,-2.8388 0,0 0,0 0,0 z"
       id="path1957" />
    <path
       style="fill:#321900;fill-opacity:1;fill-rule:nonzero;stroke:#321900;stroke-width:0.0272962px;stroke-linecap:butt;stroke-linejoin:round;stroke-miterlimit:4;stroke-dasharray:none;stroke-opacity:1"
       d="m 49.154182,152.35717 c 0,-0.0273 0.02729,-0.0819 0.02729,-0.10918 l 0.218371,-1.09185 c 0.02729,-0.0819 0.05459,-0.19107 0.109183,-0.24566 l 0.627812,-0.90078 c 0.0273,-0.0819 0.08189,-0.13648 0.163777,-0.16377 l 0.900774,-0.62781 c 0.05459,-0.0546 0.163777,-0.0819 0.245665,-0.10919 l 1.091846,-0.21837 c 0.0273,0 0.08189,-0.0273 0.109185,-0.0273 h 11.355209 c 0.0546,0 0.10918,0.0273 0.13648,0.0273 l 1.11914,0.21837 c 0.0819,0.0273 0.16378,0.0546 0.24567,0.10919 l 0.90077,0.62781 c 0.0819,0.0273 0.13648,0.10918 0.16378,0.16377 l 0.60051,0.90078 c 0.0546,0.0819 0.0819,0.16378 0.10919,0.24566 l 0.21837,1.09185 c 0,0.0273 0,0.0819 0,0.10918 v 30.13496 c 0,0.0546 0,0.10919 0,0.13648 l -0.21837,1.11915 c -0.0273,0.0819 -0.0546,0.16377 -0.10919,0.24566 l -0.60051,0.90077 c -0.0273,0.0546 -0.10919,0.13649 -0.16378,0.16378 l -0.90077,0.60052 c -0.0819,0.0546 -0.16378,0.0819 -0.24567,0.10918 l -1.11914,0.21837 c -0.0273,0 -0.0819,0 -0.13648,0 H 52.648089 c -0.0273,0 -0.08189,0 -0.109185,0 l -1.091846,-0.21837 c -0.08189,-0.0273 -0.163777,-0.0546 -0.245665,-0.10918 l -0.900774,-0.60052 c -0.05459,-0.0273 -0.13648,-0.0819 -0.163777,-0.16378 l -0.627812,-0.90077 c -0.05459,-0.0819 -0.08189,-0.16377 -0.109183,-0.24566 l -0.218371,-1.11915 c 0,-0.0273 -0.02729,-0.0819 -0.02729,-0.13648 z m 1.310214,30.13496 v -0.10918 l 0.218371,1.11914 -0.109186,-0.24566 0.627812,0.90077 -0.163777,-0.19107 0.900774,0.60051 -0.245666,-0.0819 1.091845,0.21837 -0.13648,-0.0273 h 11.355205 l -0.10919,0.0273 1.11914,-0.21837 -0.24566,0.0819 0.90077,-0.60051 -0.19107,0.19107 0.60052,-0.90077 -0.0819,0.24566 0.21837,-1.11914 -0.0273,0.10918 v -30.13496 l 0.0273,0.13648 -0.21837,-1.09184 0.0819,0.24567 -0.60052,-0.90078 0.19107,0.16378 -0.90077,-0.62781 0.24566,0.10918 -1.11914,-0.21837 h 0.10919 -11.355205 0.13648 l -1.091845,0.21837 0.245666,-0.10918 -0.900774,0.62781 0.163777,-0.16378 -0.627812,0.90078 0.109186,-0.24567 -0.218371,1.09184 v -0.13648 z"
       id="path1959" />
    <text
       xml:space="preserve"
       style="font-style:normal;font-variant:normal;font-weight:700;font-size:10.4841px;line-height:125%;font-family:'微軟正黑體';text-align:start;letter-spacing:0px;word-spacing:0px;text-anchor:start;fill:#000000;fill-opacity:1;stroke:none;stroke-width:0.264583"
       x="51.817924"
       y="159.28752"
       id="text1965"><tspan
         sodipodi:role="line"
         x="51.817924"
         y="159.28752"
         id="tspan1963"
         style="stroke-width:0.264583"><tspan
           dx="0"
           dy="0"
           style="font-style:normal;font-variant:normal;font-weight:700;font-size:10.4841px;font-family:'微軟正黑體';fill:#000000;stroke-width:0.264583"
           id="tspan1961">19</tspan></tspan></text>
    <path
       style="fill:#ffffff;fill-opacity:1;fill-rule:evenodd;stroke:none;stroke-width:0.264583"
       d="m 26.662147,200.34382 c 0,-1.52858 1.255624,-2.78421 2.784209,-2.78421 0,0 0,0 0,0 v 0 h 11.054943 v 0 c 1.528585,0 2.756913,1.25563 2.756913,2.78421 0,0 0,0 0,0 v 0 29.8347 0 c 0,1.52859 -1.228328,2.75691 -2.756913,2.75691 0,0 0,0 0,0 v 0 H 29.446356 v 0 c -1.528585,0 -2.784209,-1.22832 -2.784209,-2.75691 0,0 0,0 0,0 z"
       id="path1967" />
    <path
       style="fill:#321900;fill-opacity:1;fill-rule:nonzero;stroke:#321900;stroke-width:0.0272962px;stroke-linecap:butt;stroke-linejoin:round;stroke-miterlimit:4;stroke-dasharray:none;stroke-opacity:1"
       d="m 26.00704,200.34382 c 0,-0.0273 0.0273,-0.0819 0.0273,-0.10918 l 0.218369,-1.09185 c 0.0273,-0.0819 0.05459,-0.16378 0.109185,-0.24567 l 0.600515,-0.87347 c 0.0273,-0.0819 0.08189,-0.13649 0.163777,-0.16378 l 0.873477,-0.60052 c 0.08189,-0.0546 0.163777,-0.0819 0.245666,-0.10918 l 1.091846,-0.21837 c 0.0273,0 0.08189,-0.0273 0.109185,-0.0273 h 11.054943 c 0.05459,0 0.109185,0.0273 0.136481,0.0273 l 1.06455,0.21837 c 0.08189,0.0273 0.163777,0.0546 0.245666,0.0819 l 0.900773,0.60051 c 0.05459,0.0546 0.13648,0.13648 0.191072,0.19108 l 0.57322,0.87347 c 0.0273,0.0819 0.05459,0.16378 0.08189,0.24567 l 0.218369,1.09185 c 0,0.0273 0,0.0819 0,0.10918 v 29.8347 c 0,0.0546 0,0.10918 0,0.13648 l -0.218369,1.06455 c -0.02729,0.0819 -0.05459,0.16378 -0.08189,0.21837 l -0.57322,0.90077 c -0.05459,0.0819 -0.13648,0.16378 -0.218369,0.21837 l -0.900773,0.57322 c -0.05459,0.0273 -0.13648,0.0546 -0.218369,0.0819 l -1.06455,0.21837 c -0.0273,0 -0.08189,0 -0.136481,0 H 29.446356 c -0.0273,0 -0.08189,0 -0.109185,0 l -1.091846,-0.21837 c -0.08189,-0.0273 -0.163777,-0.0546 -0.245666,-0.0819 l -0.873477,-0.57322 c -0.05459,-0.0546 -0.136481,-0.13648 -0.191073,-0.19107 l -0.600515,-0.90077 c -0.0273,-0.0819 -0.05459,-0.16378 -0.08189,-0.24567 l -0.218369,-1.06455 c 0,-0.0273 -0.0273,-0.0819 -0.0273,-0.13648 z m 1.310215,29.8347 v -0.10919 l 0.218369,1.06456 -0.109184,-0.24567 0.600515,0.90077 -0.163777,-0.19107 0.873477,0.57322 -0.245665,-0.0819 1.091846,0.21837 -0.13648,-0.0273 h 11.054943 l -0.109184,0.0273 1.06455,-0.21837 -0.218369,0.0819 0.900773,-0.57322 -0.21837,0.21837 0.57322,-0.90077 -0.08189,0.21837 0.218369,-1.06456 -0.0273,0.10919 v -29.8347 l 0.0273,0.13648 -0.218369,-1.09184 0.08189,0.24566 -0.57322,-0.87348 0.191073,0.16378 -0.900773,-0.60052 0.245666,0.10919 -1.06455,-0.21837 h 0.109184 -11.054943 0.13648 l -1.091846,0.21837 0.245665,-0.10919 -0.873477,0.60052 0.163777,-0.16378 -0.600515,0.87348 0.109184,-0.24566 -0.218369,1.09184 v -0.13648 z"
       id="path1969" />
    <text
       xml:space="preserve"
       style="font-style:normal;font-variant:normal;font-weight:700;font-size:10.4841px;line-height:125%;font-family:'微軟正黑體';text-align:start;letter-spacing:0px;word-spacing:0px;text-anchor:start;fill:#000000;fill-opacity:1;stroke:none;stroke-width:0.264583"
       x="28.452291"
       y="207.08098"
       id="text1975"><tspan
         sodipodi:role="line"
         x="28.452291"
         y="207.08098"
         id="tspan1973"
         style="stroke-width:0.264583"><tspan
           dx="0"
           dy="0"
           style="font-style:normal;font-variant:normal;font-weight:700;font-size:10.4841px;font-family:'微軟正黑體';fill:#000000;stroke-width:0.264583"
           id="tspan1971">6</tspan></tspan></text>
    <path
       style="fill:#ffffff;fill-opacity:1;fill-rule:evenodd;stroke:none;stroke-width:0.264583"
       d="m 34.086702,209.07859 c 0,-1.52859 1.255624,-2.78421 2.784208,-2.78421 0,0 0,0 0,0 v 0 h 11.054944 v 0 c 1.528585,0 2.756913,1.25562 2.756913,2.78421 0,0 0,0 0,0 v 0 29.8347 0 c 0,1.52858 -1.228328,2.75691 -2.756913,2.75691 0,0 0,0 0,0 v 0 H 36.87091 v 0 c -1.528584,0 -2.784208,-1.22833 -2.784208,-2.75691 0,0 0,0 0,0 z"
       id="path1977" />
    <path
       style="fill:#321900;fill-opacity:1;fill-rule:nonzero;stroke:#321900;stroke-width:0.0272962px;stroke-linecap:butt;stroke-linejoin:round;stroke-miterlimit:4;stroke-dasharray:none;stroke-opacity:1"
       d="m 33.431594,209.07859 c 0,-0.0273 0.0273,-0.0819 0.0273,-0.10918 l 0.218369,-1.09185 c 0.0273,-0.0819 0.05459,-0.16378 0.109185,-0.24567 l 0.600515,-0.87347 c 0.0273,-0.0819 0.08189,-0.13648 0.163777,-0.16378 l 0.873477,-0.60052 c 0.08189,-0.0546 0.163777,-0.0819 0.245666,-0.10918 l 1.091846,-0.21837 c 0.0273,0 0.08189,-0.0273 0.109184,-0.0273 h 11.054941 c 0.05459,0 0.109185,0.0273 0.13648,0.0273 l 1.064551,0.21837 c 0.08189,0.0273 0.163777,0.0546 0.245665,0.0819 l 0.900774,0.60051 c 0.05459,0.0546 0.13648,0.13648 0.191072,0.19108 l 0.57322,0.87347 c 0.0273,0.0819 0.05459,0.16378 0.08189,0.24567 l 0.218369,1.09185 c 0,0.0273 0,0.0819 0,0.10918 v 29.8347 c 0,0.0546 0,0.10919 0,0.13648 l -0.218369,1.06455 c -0.0273,0.0819 -0.05459,0.16378 -0.08189,0.21837 l -0.57322,0.90077 c -0.05459,0.0819 -0.13648,0.16378 -0.218369,0.21837 l -0.900774,0.57322 c -0.05459,0.0273 -0.13648,0.0546 -0.218368,0.0819 l -1.064551,0.21837 c -0.02729,0 -0.08189,0 -0.13648,0 H 36.87091 c -0.0273,0 -0.08189,0 -0.109184,0 l -1.091846,-0.21837 c -0.08189,-0.0273 -0.163778,-0.0546 -0.245666,-0.0819 l -0.873477,-0.57322 c -0.05459,-0.0546 -0.136481,-0.13648 -0.191073,-0.19107 L 33.759148,240.36 c -0.0273,-0.0819 -0.05459,-0.16378 -0.08189,-0.24567 l -0.218369,-1.06455 c 0,-0.0273 -0.0273,-0.0819 -0.0273,-0.13648 z m 1.310216,29.8347 v -0.10918 l 0.218369,1.06454 -0.109184,-0.24566 0.600515,0.90077 -0.163777,-0.19107 0.873477,0.57322 -0.245665,-0.0819 1.091846,0.21837 -0.136481,-0.0273 h 11.054944 l -0.109183,0.0273 1.064548,-0.21837 -0.218368,0.0819 0.900773,-0.57322 -0.218371,0.21837 0.57322,-0.90077 -0.08189,0.21836 0.218368,-1.06454 -0.02729,0.10918 v -29.8347 l 0.02729,0.13648 -0.218368,-1.09185 0.08189,0.24567 -0.57322,-0.87348 0.191074,0.16378 -0.900774,-0.60052 0.245666,0.10919 -1.064548,-0.21837 h 0.109183 -11.054944 0.136481 l -1.091846,0.21837 0.245665,-0.10919 -0.873477,0.60052 0.163777,-0.16378 -0.600515,0.87348 0.109184,-0.24567 -0.218369,1.09185 v -0.13648 z"
       id="path1979" />
    <text
       xml:space="preserve"
       style="font-style:normal;font-variant:normal;font-weight:700;font-size:10.4841px;line-height:125%;font-family:'微軟正黑體';text-align:start;letter-spacing:0px;word-spacing:0px;text-anchor:start;fill:#000000;fill-opacity:1;stroke:none;stroke-width:0.264583"
       x="35.658554"
       y="217.20543"
       id="text1985"><tspan
         sodipodi:role="line"
         x="35.658554"
         y="217.20543"
         id="tspan1983"
         style="stroke-width:0.264583"><tspan
           dx="0"
           dy="0"
           style="font-style:normal;font-variant:normal;font-weight:700;font-size:10.4841px;font-family:'微軟正黑體';fill:#000000;stroke-width:0.264583"
           id="tspan1981">13</tspan></tspan></text>
    <path
       style="fill:#ffffff;fill-opacity:1;fill-rule:evenodd;stroke:none;stroke-width:0.264583"
       d="m 43.258212,217.86795 c 0,-1.55588 1.28292,-2.8388 2.838799,-2.8388 0,0 0,0 0,0 v 0 h 11.355203 v 0 c 1.58318,0 2.8388,1.28292 2.8388,2.8388 0,0 0,0 0,0 v 0 30.13496 0 c 0,1.58318 -1.25562,2.8388 -2.8388,2.8388 0,0 0,0 0,0 v 0 H 46.097011 v 0 c -1.555879,0 -2.838799,-1.25562 -2.838799,-2.8388 0,0 0,0 0,0 z"
       id="path1987" />
    <path
       style="fill:#321900;fill-opacity:1;fill-rule:nonzero;stroke:#321900;stroke-width:0.0272962px;stroke-linecap:butt;stroke-linejoin:round;stroke-miterlimit:4;stroke-dasharray:none;stroke-opacity:1"
       d="m 42.603103,217.86795 c 0,-0.0273 0.0273,-0.0819 0.0273,-0.10918 l 0.21837,-1.09185 c 0.0273,-0.0819 0.05459,-0.19107 0.109183,-0.24566 l 0.627814,-0.90078 c 0.02729,-0.0819 0.08189,-0.13648 0.163777,-0.16378 l 0.900772,-0.62781 c 0.05459,-0.0546 0.163777,-0.0819 0.245665,-0.10918 l 1.091846,-0.21837 c 0.0273,0 0.08189,-0.0273 0.109185,-0.0273 h 11.355199 c 0.05459,0 0.109183,0.0273 0.13648,0.0273 l 1.119142,0.21837 c 0.08189,0.0273 0.163778,0.0546 0.245668,0.10918 l 0.90077,0.62781 c 0.0819,0.0273 0.13648,0.10919 0.16378,0.16378 l 0.60051,0.90078 c 0.0546,0.0819 0.0819,0.16377 0.10919,0.24566 l 0.21837,1.09185 c 0,0.0273 0,0.0819 0,0.10918 v 30.13496 c 0,0.0546 0,0.10919 0,0.13648 l -0.21837,1.11914 c -0.0273,0.0819 -0.0546,0.16378 -0.10919,0.24567 l -0.60051,0.90077 c -0.0273,0.0546 -0.10919,0.13648 -0.16378,0.16378 l -0.90077,0.60052 c -0.0819,0.0546 -0.16378,0.0819 -0.245668,0.10918 l -1.119142,0.21837 c -0.0273,0 -0.08189,0 -0.13648,0 H 46.097011 c -0.0273,0 -0.08189,0 -0.109185,0 l -1.091846,-0.21837 c -0.08189,-0.0273 -0.163777,-0.0546 -0.245665,-0.10918 l -0.900772,-0.60052 c -0.05459,-0.0273 -0.136482,-0.0819 -0.163777,-0.16378 l -0.627814,-0.90077 c -0.05459,-0.0819 -0.08189,-0.16378 -0.109183,-0.24567 l -0.21837,-1.11914 c 0,-0.0273 -0.0273,-0.0819 -0.0273,-0.13648 z m 1.310215,30.13496 v -0.10918 l 0.218371,1.11914 -0.109186,-0.24567 0.627812,0.90078 -0.163777,-0.19108 0.900774,0.60052 -0.245666,-0.0819 1.091845,0.21837 -0.13648,-0.0273 h 11.355203 l -0.109186,0.0273 1.119143,-0.21837 -0.245666,0.0819 0.900769,-0.60052 -0.19107,0.19108 0.60052,-0.90078 -0.0819,0.24567 0.21837,-1.11914 -0.0273,0.10918 v -30.13496 l 0.0273,0.13648 -0.21837,-1.09184 0.0819,0.24566 -0.60052,-0.90077 0.19107,0.16378 -0.900769,-0.62782 0.245666,0.10919 -1.119143,-0.21837 h 0.109186 -11.355203 0.13648 l -1.091845,0.21837 0.245666,-0.10919 -0.900774,0.62782 0.163777,-0.16378 -0.627812,0.90077 0.109186,-0.24566 -0.218371,1.09184 v -0.13648 z"
       id="path1989" />
    <text
       xml:space="preserve"
       style="font-style:normal;font-variant:normal;font-weight:700;font-size:10.4841px;line-height:125%;font-family:'微軟正黑體';text-align:start;letter-spacing:0px;word-spacing:0px;text-anchor:start;fill:#000000;fill-opacity:1;stroke:none;stroke-width:0.264583"
       x="45.2668"
       y="224.79881"
       id="text1995"><tspan
         sodipodi:role="line"
         x="45.2668"
         y="224.79881"
         id="tspan1993"
         style="stroke-width:0.264583"><tspan
           dx="0"
           dy="0"
           style="font-style:normal;font-variant:normal;font-weight:700;font-size:10.4841px;font-family:'微軟正黑體';fill:#000000;stroke-width:0.264583"
           id="tspan1991">20</tspan></tspan></text>
    <path
       style="fill:#ffffff;fill-opacity:1;fill-rule:evenodd;stroke:none;stroke-width:0.264583"
       d="m 26.389186,280.97667 c -1.528585,0 -2.784208,-1.22833 -2.784208,-2.75691 0,0 0,0 0,0 v 0 -11.05495 0 c 0,-1.52858 1.255623,-2.78421 2.784208,-2.78421 0,0 0,0 0,0 v 0 h 29.834699 v 0 c 1.528586,0 2.756909,1.25563 2.756909,2.78421 0,0 0,0 0,0 v 0 11.05495 0 c 0,1.52858 -1.228323,2.75691 -2.756909,2.75691 0,0 0,0 0,0 z"
       id="path1997" />
    <path
       style="fill:#321900;fill-opacity:1;fill-rule:nonzero;stroke:#321900;stroke-width:0.0272962px;stroke-linecap:butt;stroke-linejoin:round;stroke-miterlimit:4;stroke-dasharray:none;stroke-opacity:1"
       d="m 26.389186,281.63178 c -0.0273,0 -0.08189,0 -0.109185,0 l -1.091846,-0.21837 c -0.08189,-0.0273 -0.163777,-0.0546 -0.245665,-0.0819 l -0.873478,-0.57322 c -0.05459,-0.0546 -0.13648,-0.13648 -0.191073,-0.19107 l -0.600515,-0.90078 c -0.0273,-0.0819 -0.05459,-0.16377 -0.08189,-0.24566 l -0.218369,-1.06455 c 0,-0.0273 -0.0273,-0.0819 -0.0273,-0.13648 V 267.1648 c 0,-0.0273 0.0273,-0.0819 0.0273,-0.10918 l 0.218369,-1.09185 c 0.0273,-0.0819 0.05459,-0.16378 0.109185,-0.24566 l 0.600516,-0.87348 c 0.0273,-0.0819 0.08189,-0.13648 0.163776,-0.16378 l 0.873478,-0.60051 c 0.08189,-0.0546 0.163776,-0.0819 0.245665,-0.10919 L 26.28,263.75278 c 0.0273,0 0.08189,-0.0273 0.109185,-0.0273 h 29.834699 c 0.05459,0 0.109186,0.0273 0.13648,0.0273 l 1.064552,0.21837 c 0.08189,0.0273 0.163777,0.0546 0.245665,0.0819 l 0.900774,0.60052 c 0.05459,0.0546 0.13648,0.13648 0.191069,0.19107 l 0.57322,0.87348 c 0.0273,0.0819 0.0546,0.16377 0.0819,0.24566 l 0.21837,1.09185 c 0,0.0273 0,0.0819 0,0.10918 v 11.05495 c 0,0.0546 0,0.10918 0,0.13648 l -0.21837,1.06455 c -0.0273,0.0819 -0.0546,0.16378 -0.0819,0.21837 l -0.57322,0.90077 c -0.05459,0.0819 -0.136477,0.16378 -0.218366,0.21837 l -0.900774,0.57322 c -0.05459,0.0273 -0.13648,0.0546 -0.218368,0.0819 l -1.064552,0.21837 c -0.02729,0 -0.08188,0 -0.13648,0 z m 29.834699,-1.31022 -0.109182,0.0273 1.064548,-0.21837 -0.218369,0.0819 0.900774,-0.57322 -0.218371,0.21837 0.57322,-0.90078 -0.08189,0.21837 0.218372,-1.06455 -0.0273,0.10919 v -11.05495 l 0.0273,0.13649 -0.218372,-1.09185 0.08189,0.24566 -0.57322,-0.87347 0.191074,0.16377 -0.900774,-0.60051 0.245666,0.10918 -1.064548,-0.21837 h 0.109182 -29.834699 0.136481 l -1.091847,0.21837 0.245666,-0.10918 -0.873477,0.60051 0.163777,-0.16377 -0.600516,0.87347 0.109185,-0.24566 -0.21837,1.09185 v -0.13649 11.05495 -0.10919 l 0.21837,1.06455 -0.109185,-0.24566 0.600516,0.90077 -0.163777,-0.19107 0.873477,0.57322 -0.245666,-0.0819 1.091847,0.21837 -0.136481,-0.0273 z"
       id="path1999" />
    <text
       xml:space="preserve"
       style="font-style:normal;font-variant:normal;font-weight:700;font-size:10.4841px;line-height:125%;font-family:'微軟正黑體';text-align:start;letter-spacing:0px;word-spacing:0px;text-anchor:start;fill:#000000;fill-opacity:1;stroke:none;stroke-width:0.264583"
       x="25.176687"
       y="275.86777"
       id="text2005"><tspan
         sodipodi:role="line"
         x="25.176687"
         y="275.86777"
         id="tspan2003"
         style="stroke-width:0.264583"><tspan
           dx="0"
           dy="0"
           style="font-style:normal;font-variant:normal;font-weight:700;font-size:10.4841px;font-family:'微軟正黑體';fill:#000000;stroke-width:0.264583"
           id="tspan2001">0</tspan></tspan></text>
  </g>
</svg>
