<?xml version="1.0" encoding="UTF-8" standalone="no"?>
<!-- Created with Inkscape (http://www.inkscape.org/) -->

<svg
   width="989.91455"
   height="711.49042"
   viewBox="0 0 261.91489 188.24852"
   version="1.1"
   id="svg5"
   inkscape:version="1.1 (c68e22c387, 2021-05-23)"
   sodipodi:docname="WorldMap1.svg"
   xmlns:inkscape="http://www.inkscape.org/namespaces/inkscape"
   xmlns:sodipodi="http://sodipodi.sourceforge.net/DTD/sodipodi-0.dtd"
   xmlns="http://www.w3.org/2000/svg"
   xmlns:svg="http://www.w3.org/2000/svg">
  <sodipodi:namedview
     id="namedview7"
     pagecolor="#ffffff"
     bordercolor="#666666"
     borderopacity="1.0"
     inkscape:pageshadow="2"
     inkscape:pageopacity="0.0"
     inkscape:pagecheckerboard="0"
     inkscape:document-units="px"
     showgrid="false"
     inkscape:zoom="0.13095539"
     inkscape:cx="-202.35899"
     inkscape:cy="-1355.4235"
     inkscape:window-width="1288"
     inkscape:window-height="745"
     inkscape:window-x="-8"
     inkscape:window-y="-8"
     inkscape:window-maximized="1"
     inkscape:current-layer="layer1"
     units="px"
     fit-margin-top="0"
     fit-margin-left="0"
     fit-margin-right="0"
     fit-margin-bottom="0" />
  <defs
     id="defs2">
    <pattern
       id="EMFhbasepattern"
       patternUnits="userSpaceOnUse"
       width="6"
       height="6"
       x="0"
       y="0" />
    <pattern
       id="EMFhbasepattern-3"
       patternUnits="userSpaceOnUse"
       width="6"
       height="6"
       x="0"
       y="0" />
    <pattern
       id="EMFhbasepattern-2"
       patternUnits="userSpaceOnUse"
       width="6"
       height="6"
       x="0"
       y="0" />
    <pattern
       id="EMFhbasepattern-27"
       patternUnits="userSpaceOnUse"
       width="6"
       height="6"
       x="0"
       y="0" />
    <pattern
       id="EMFhbasepattern-9"
       patternUnits="userSpaceOnUse"
       width="6"
       height="6"
       x="0"
       y="0" />
    <pattern
       id="EMFhbasepattern-4"
       patternUnits="userSpaceOnUse"
       width="6"
       height="6"
       x="0"
       y="0" />
    <pattern
       id="EMFhbasepattern-0"
       patternUnits="userSpaceOnUse"
       width="6"
       height="6"
       x="0"
       y="0" />
    <pattern
       id="EMFhbasepattern-22"
       patternUnits="userSpaceOnUse"
       width="6"
       height="6"
       x="0"
       y="0" />
    <pattern
       id="EMFhbasepattern-30"
       patternUnits="userSpaceOnUse"
       width="6"
       height="6"
       x="0"
       y="0" />
    <pattern
       id="EMFhbasepattern-1"
       patternUnits="userSpaceOnUse"
       width="6"
       height="6"
       x="0"
       y="0" />
    <pattern
       id="EMFhbasepattern-11"
       patternUnits="userSpaceOnUse"
       width="6"
       height="6"
       x="0"
       y="0" />
    <pattern
       id="EMFhbasepattern-48"
       patternUnits="userSpaceOnUse"
       width="6"
       height="6"
       x="0"
       y="0" />
    <pattern
       id="EMFhbasepattern-7"
       patternUnits="userSpaceOnUse"
       width="6"
       height="6"
       x="0"
       y="0" />
    <pattern
       id="EMFhbasepattern-02"
       patternUnits="userSpaceOnUse"
       width="6"
       height="6"
       x="0"
       y="0" />
    <pattern
       id="EMFhbasepattern-26"
       patternUnits="userSpaceOnUse"
       width="6"
       height="6"
       x="0"
       y="0" />
  </defs>
  <g
     inkscape:label="圖層 1"
     inkscape:groupmode="layer"
     id="layer1"
     transform="translate(-706.24088,-615.16116)">
    <text
       xml:space="preserve"
       style="font-style:normal;font-variant:normal;font-weight:700;font-size:16.1727px;line-height:125%;font-family:'微軟正黑體';text-align:start;letter-spacing:0px;word-spacing:0px;text-anchor:start;fill:#000000;fill-opacity:1;stroke:none;stroke-width:0.264583"
       x="757.88812"
       y="650.93872"
       id="text1497"><tspan
         sodipodi:role="line"
         x="757.88812"
         y="650.93872"
         id="tspan1495"
         style="stroke-width:0.264583"><tspan
           dx="0"
           dy="0"
           style="font-style:normal;font-variant:normal;font-weight:700;font-size:16.1727px;font-family:'微軟正黑體';fill:#92d050;stroke-width:0.264583"
           id="tspan1493">上層</tspan></tspan></text>
    <text
       xml:space="preserve"
       style="font-style:normal;font-variant:normal;font-weight:700;font-size:16.1727px;line-height:125%;font-family:'微軟正黑體';text-align:start;letter-spacing:0px;word-spacing:0px;text-anchor:start;fill:#000000;fill-opacity:1;stroke:none;stroke-width:0.264583"
       x="757.88812"
       y="713.24115"
       id="text1503"><tspan
         sodipodi:role="line"
         x="757.88812"
         y="713.24115"
         id="tspan1501"
         style="stroke-width:0.264583"><tspan
           dx="0"
           dy="0"
           style="font-style:normal;font-variant:normal;font-weight:700;font-size:16.1727px;font-family:'微軟正黑體';fill:#92d050;stroke-width:0.264583"
           id="tspan1499">中層</tspan></tspan></text>
    <text
       xml:space="preserve"
       style="font-style:normal;font-variant:normal;font-weight:700;font-size:16.1727px;line-height:125%;font-family:'微軟正黑體';text-align:start;letter-spacing:0px;word-spacing:0px;text-anchor:start;fill:#000000;fill-opacity:1;stroke:none;stroke-width:0.264583"
       x="757.88812"
       y="768.98541"
       id="text1509"><tspan
         sodipodi:role="line"
         x="757.88812"
         y="768.98541"
         id="tspan1507"
         style="stroke-width:0.264583"><tspan
           dx="0"
           dy="0"
           style="font-style:normal;font-variant:normal;font-weight:700;font-size:16.1727px;font-family:'微軟正黑體';fill:#92d050;stroke-width:0.264583"
           id="tspan1505">下層</tspan></tspan></text>
    <text
       xml:space="preserve"
       style="font-style:normal;font-variant:normal;font-weight:400;font-size:10.5007px;line-height:125%;font-family:'新細明體';text-align:start;letter-spacing:0px;word-spacing:0px;text-anchor:start;fill:#000000;fill-opacity:1;stroke:none;stroke-width:0.264583"
       x="715.26013"
       y="801.65613"
       id="text1515"><tspan
         sodipodi:role="line"
         x="715.26013"
         y="801.65613"
         id="tspan1513"
         style="stroke-width:0.264583"><tspan
           dx="0"
           dy="0"
           style="font-style:normal;font-variant:normal;font-weight:400;font-size:10.5007px;font-family:'新細明體';fill:#ffffff;stroke-width:0.264583"
           id="tspan1511">圖</tspan></tspan></text>
    <text
       xml:space="preserve"
       style="font-style:normal;font-variant:normal;font-weight:400;font-size:10.5007px;line-height:125%;font-family:'Book Antiqua';text-align:start;letter-spacing:0px;word-spacing:0px;text-anchor:start;fill:#000000;fill-opacity:1;stroke:none;stroke-width:0.264583"
       x="725.75311"
       y="801.65613"
       id="text1521"><tspan
         sodipodi:role="line"
         x="725.75311"
         y="801.65613"
         id="tspan1519"
         style="stroke-width:0.264583"><tspan
           dx="0"
           dy="0"
           style="font-style:normal;font-variant:normal;font-weight:400;font-size:10.5007px;font-family:'Book Antiqua';fill:#ffffff;stroke-width:0.264583"
           id="tspan1517">3 </tspan></tspan></text>
    <text
       xml:space="preserve"
       style="font-style:normal;font-variant:normal;font-weight:400;font-size:10.5007px;line-height:125%;font-family:'新細明體';text-align:start;letter-spacing:0px;word-spacing:0px;text-anchor:start;fill:#000000;fill-opacity:1;stroke:none;stroke-width:0.264583"
       x="733.18567"
       y="801.65613"
       id="text1527"><tspan
         sodipodi:role="line"
         x="733.18567"
         y="801.65613"
         id="tspan1525"
         style="stroke-width:0.264583"><tspan
           dx="0"
           dy="0"
           style="font-style:normal;font-variant:normal;font-weight:400;font-size:10.5007px;font-family:'新細明體';fill:#ffffff;stroke-width:0.264583"
           id="tspan1523">世界結構圖</tspan></tspan></text>
    <path
       style="fill:#ffffff;fill-opacity:1;fill-rule:evenodd;stroke:none;stroke-width:0.264583"
       d="m 831.95159,702.8349 c 0,-47.54628 26.64231,-86.12981 59.46017,-86.12981 0,0 0,0 0,0 v 0 c 32.84518,0 59.46017,38.58353 59.46017,86.12981 v 0 c 0,47.5736 -26.61499,86.1298 -59.46017,86.1298 0,0 0,0 0,0 v 0 c -32.81786,0 -59.46017,-38.5562 -59.46017,-86.1298 z"
       id="path1529" />
    <path
       style="fill:#000000;fill-opacity:1;fill-rule:nonzero;stroke:#000000;stroke-width:0.0273254px;stroke-linecap:butt;stroke-linejoin:round;stroke-miterlimit:4;stroke-dasharray:none;stroke-opacity:1"
       d="m 831.29578,702.86222 0.30058,-8.82612 0.92906,-8.60751 1.47558,-8.30694 1.99475,-7.9517 2.54127,-7.56915 2.97847,-7.15927 3.44301,-6.69473 3.88021,-6.1209 4.23545,-5.62904 4.64532,-5.00056 2.43197,-2.26801 2.51394,-2.10406 2.59592,-1.94011 2.65057,-1.74883 2.73254,-1.55755 2.81452,-1.36627 2.84185,-1.20232 2.95115,-0.95639 2.95114,-0.79244 3.03313,-0.54651 3.06045,-0.3279 3.1151,-0.13663 3.08777,0.1093 3.08778,0.35523 3.0058,0.54651 2.97847,0.76512 2.92382,0.98371 2.86918,1.175 2.78719,1.36627 2.73255,1.58487 2.67789,1.72151 2.59592,1.9401 2.51394,2.10406 2.45929,2.26801 4.59067,4.97324 4.2901,5.60171 3.85289,6.17555 3.443,6.66741 3.0058,7.15927 2.51394,7.56915 2.02208,7.97903 1.47558,8.27961 0.90174,8.60751 0.30058,8.85345 -0.30058,8.82612 -0.90174,8.60751 -1.47558,8.30694 -1.99475,7.9517 -2.54127,7.59648 -2.97847,7.13194 -3.44301,6.6674 -3.85289,6.17556 -4.26277,5.60171 -4.618,5.02789 -2.45929,2.26801 -2.51394,2.10406 -2.59592,1.91278 -2.65056,1.74883 -2.75987,1.55755 -2.7872,1.36627 -2.84185,1.20232 -2.92382,0.95639 -3.0058,0.79244 -2.97847,0.5465 -3.08778,0.32791 -3.1151,0.1093 -3.08777,-0.1093 -3.06045,-0.32791 -3.03313,-0.5465 -2.97847,-0.76511 -2.92382,-0.98372 -2.86917,-1.175 -2.7872,-1.36627 -2.75987,-1.58487 -2.65057,-1.72151 -2.59592,-1.91278 -2.51394,-2.10406 -2.43196,-2.26801 -4.618,-5.00056 -4.26277,-5.60171 -3.88022,-6.17555 -3.443,-6.69474 -3.0058,-7.13194 -2.51394,-7.56915 -2.02208,-7.97903 -1.47558,-8.27961 -0.90174,-8.60751 z m 1.6122,8.71682 0.90174,8.49821 1.47557,8.22496 1.96744,7.86973 2.51394,7.45985 2.95114,7.04996 3.38836,6.61276 3.82556,6.06625 4.15347,5.49241 4.56335,4.94591 2.37731,2.21336 2.45929,2.04941 2.54127,1.85813 2.56859,1.7215 2.67789,1.53023 2.73255,1.31162 2.75987,1.17499 2.86917,0.92907 2.86917,0.76511 2.92383,0.54651 2.95114,0.30058 3.03313,0.1093 3.0058,-0.082 2.97847,-0.32791 2.8965,-0.54651 2.92382,-0.73779 2.81452,-0.95639 2.7872,-1.14767 2.70521,-1.31162 2.6779,-1.55755 2.59592,-1.69417 2.54126,-1.85814 2.45929,-2.0494 2.40464,-2.21336 4.5087,-4.91858 4.20812,-5.49242 3.79824,-6.09357 3.38835,-6.58544 2.97848,-7.02264 2.48661,-7.48717 1.99476,-7.89705 1.47557,-8.19763 0.87442,-8.49822 0.30058,-8.77147 -0.27326,-8.74414 -0.90174,-8.49821 -1.47557,-8.22496 -1.96743,-7.86973 -2.51394,-7.45985 -2.95115,-7.07729 -3.38836,-6.58543 -3.79823,-6.06625 -4.1808,-5.49241 -4.53602,-4.91858 -2.40464,-2.21337 -2.45929,-2.0494 -2.54127,-1.88546 -2.59592,-1.7215 -2.65056,-1.53023 -2.73255,-1.31162 -2.75987,-1.17499 -2.84184,-0.92907 -2.8965,-0.76511 -2.8965,-0.54651 -2.97847,-0.32791 -3.03313,-0.1093 -3.0058,0.1093 -2.95115,0.32791 -2.92382,0.54651 -2.8965,0.73779 -2.84184,0.95639 -2.78719,1.14767 -2.73255,1.31162 -2.65057,1.55755 -2.59592,1.69418 -2.54126,1.88545 -2.45929,2.04941 -2.37732,2.21336 -4.53602,4.89125 -4.18079,5.51974 -3.82557,6.03893 -3.38835,6.61276 -2.97847,7.04996 -2.48662,7.45985 -1.99476,7.89705 -1.47557,8.19763 -0.90174,8.49822 -0.30058,8.77147 z"
       id="path1531" />
    <path
       style="fill:#c9c2d1;fill-opacity:1;fill-rule:evenodd;stroke:none;stroke-width:0.264583"
       d="m 872.39325,771.47642 c 0,-9.53658 7.7331,-17.26969 17.26968,-17.26969 0,0 0,0 0,0 v 0 c 9.5639,0 17.26968,7.73311 17.26968,17.26969 0,0 0,0 0,0 v 0 c 0,9.5639 -7.70578,17.26968 -17.26968,17.26968 0,0 0,0 0,0 v 0 c -9.53658,0 -17.26968,-7.70578 -17.26968,-17.26968 0,0 0,0 0,0 z"
       id="path1533" />
    <path
       style="fill:#c9c2d1;fill-opacity:1;fill-rule:evenodd;stroke:none;stroke-width:0.264583"
       d="m 875.4537,633.75617 c 0,-9.53658 7.7331,-17.26968 17.26968,-17.26968 0,0 0,0 0,0 v 0 c 9.56391,0 17.26968,7.7331 17.26968,17.26968 0,0 0,0 0,0 v 0 c 0,9.56391 -7.70577,17.26968 -17.26968,17.26968 0,0 0,0 0,0 v 0 c -9.53658,0 -17.26968,-7.70577 -17.26968,-17.26968 0,0 0,0 0,0 z"
       id="path1535" />
    <path
       style="fill:#c9c2d1;fill-opacity:1;fill-rule:evenodd;stroke:none;stroke-width:0.264583"
       d="m 859.71424,690.15589 c 0,-9.53658 7.7331,-17.26968 17.26968,-17.26968 0,0 0,0 0,0 v 0 c 9.56391,0 17.26968,7.7331 17.26968,17.26968 0,0 0,0 0,0 v 0 c 0,9.56391 -7.70577,17.26968 -17.26968,17.26968 0,0 0,0 0,0 v 0 c -9.53658,0 -17.26968,-7.70577 -17.26968,-17.26968 0,0 0,0 0,0 z"
       id="path1537" />
    <path
       style="fill:#c9c2d1;fill-opacity:1;fill-rule:evenodd;stroke:none;stroke-width:0.264583"
       d="m 928.79297,699.33724 c 0,-9.53658 7.7331,-17.26968 17.26968,-17.26968 0,0 0,0 0,0 v 0 c 9.5639,0 17.26966,7.7331 17.26966,17.26968 0,0 0,0 0,0 v 0 c 0,9.56391 -7.70576,17.26968 -17.26966,17.26968 0,0 0,0 0,0 v 0 c -9.53658,0 -17.26968,-7.70577 -17.26968,-17.26968 0,0 0,0 0,0 z"
       id="path1539" />
    <path
       style="fill:#000000;fill-opacity:1;fill-rule:nonzero;stroke:#000000;stroke-width:0.0273254px;stroke-linecap:butt;stroke-linejoin:round;stroke-miterlimit:4;stroke-dasharray:none;stroke-opacity:1"
       d="m 834.38355,705.75872 0.30058,-1.42092 c 0.0273,-0.0547 0.0546,-0.13663 0.082,-0.19128 l 0.84709,-1.3936 c 0.0273,-0.0547 0.0547,-0.082 0.1093,-0.13663 l 0.60116,-0.57383 0.92907,0.92907 -0.62849,0.60115 0.1093,-0.13662 -0.84709,1.39359 0.082,-0.2186 -0.30058,1.42092 z m 3.0058,-4.67265 1.69418,-1.14767 1.74883,-0.92907 0.60116,1.175 -1.6122,0.81976 -1.69418,1.175 z m 4.67265,-2.65057 2.34999,-0.95639 1.36627,-0.43721 0.40988,1.22965 -1.28429,0.4372 -2.34999,0.9564 z m 4.97323,-1.80348 0.68314,-0.2186 3.1151,-0.87442 0.35523,1.25697 -3.06045,0.84709 -0.68313,0.21861 z m 5.10986,-1.42092 3.25173,-0.73779 0.62848,-0.1093 0.21861,1.2843 -0.54651,0.1093 -3.25173,0.73778 z m 5.16451,-1.09302 2.45929,-0.43721 1.44825,-0.2186 0.19128,1.2843 -1.3936,0.2186 -2.45929,0.46453 z m 5.19184,-0.84709 1.96743,-0.30058 1.94011,-0.24593 0.16395,1.31162 -1.91278,0.21861 -1.96744,0.30058 z m 5.21916,-0.71046 1.69417,-0.19128 2.24069,-0.2186 0.1093,1.31162 -2.21336,0.19128 -1.66685,0.2186 z m 5.24648,-0.51918 1.63953,-0.13663 2.29534,-0.16395 0.082,1.31162 -2.24068,0.13662 -1.66686,0.16396 z m 5.24649,-0.38256 1.80348,-0.1093 2.13138,-0.082 0.0546,1.31162 -2.10406,0.0547 -1.80348,0.13663 z m 5.24648,-0.24593 2.18604,-0.082 h 1.77615 v 1.31163 h -1.74883 l -2.15871,0.082 z m 5.27381,-0.1093 2.6779,-0.0547 0.0273,1.31162 -2.70522,0.0547 z m 2.70522,-0.0547 1.22965,0.0273 v 1.31162 l -1.25697,-0.0273 z m 2.54127,0.0547 3.2244,0.0273 0.73779,0.0273 -0.0546,1.31162 -0.71046,-0.0273 -3.19708,-0.0273 z m 5.27381,0.1093 3.55231,0.1093 0.38256,0.0273 -0.082,1.31162 -0.32791,-0.0273 -3.57963,-0.1093 z m 5.24649,0.24593 3.74358,0.24593 h 0.21861 l -0.13663,1.31162 -0.16395,-0.0273 -3.74359,-0.24592 z m 5.24648,0.35523 3.68894,0.35523 0.27325,0.0273 -0.16395,1.28429 -0.24593,-0.0273 -3.66161,-0.32791 z m 5.24649,0.54651 3.38835,0.40988 0.54651,0.082 -0.19128,1.28429 -0.49186,-0.082 -3.41568,-0.40988 z m 5.21916,0.68314 2.84184,0.4372 1.0657,0.19128 -0.21861,1.2843 -1.03837,-0.19128 -2.84184,-0.43721 z m 5.19183,0.84708 2.02209,0.38256 1.85812,0.40988 -0.27325,1.2843 -1.8308,-0.40988 -1.99476,-0.35523 z m 5.16451,1.09302 0.90174,0.19128 2.95115,0.81976 -0.35523,1.25697 -2.8965,-0.79243 -0.87441,-0.19128 z m 5.13718,1.3936 2.70522,0.90174 1.03837,0.40988 -0.49186,1.22965 -0.95639,-0.40989 -2.70522,-0.87441 z m 4.94591,1.80348 0.62849,0.24593 2.40464,1.25697 0.57383,0.38256 -0.73779,1.09301 -0.4372,-0.30058 -2.32267,-1.20232 -0.60116,-0.24593 z m 4.69998,2.62324 0.30058,0.21861 c 0.0273,0 0.0547,0.0273 0.082,0.0546 l 1.3936,1.33894 c 0.0546,0.0547 0.082,0.082 0.1093,0.13663 l 0.84709,1.3936 c 0.0273,0.0547 0.0547,0.13663 0.082,0.2186 v 0 l -1.2843,0.27326 v -0.0273 l 0.082,0.2186 -0.84709,-1.39359 0.1093,0.13662 -1.3936,-1.33894 0.082,0.0547 -0.30058,-0.19128 z m 3.08777,4.64533 0.0273,0.1093 -1.2843,0.27325 -0.0273,-0.1093 z m 0.0273,0.38255 -0.30058,1.42093 c -0.0273,0.082 -0.0547,0.16395 -0.082,0.2186 l -0.84709,1.3936 c -0.0273,0.0547 -0.0547,0.082 -0.1093,0.13663 l -0.51918,0.49186 -0.90174,-0.9564 0.51918,-0.49185 -0.1093,0.13662 0.84709,-1.39359 -0.082,0.19127 0.30058,-1.42092 z m -2.8965,4.618 -1.80348,1.22965 -1.6122,0.84709 -0.62849,-1.14767 1.5029,-0.76511 1.80348,-1.22965 z m -4.67265,2.6779 -2.43196,1.01104 -1.25698,0.40988 -0.4372,-1.22964 1.17499,-0.40988 2.45929,-0.98372 z m -4.94591,1.8308 -0.79243,0.27326 -3.03313,0.81976 -0.3279,-1.25697 2.95115,-0.79244 0.79243,-0.27325 z m -5.10985,1.42093 -3.38836,0.76511 -0.49186,0.082 -0.24593,-1.2843 0.43721,-0.082 3.38836,-0.76511 z m -5.16451,1.09301 -2.59592,0.49186 -1.31162,0.19128 -0.19128,-1.2843 1.25697,-0.19127 2.59592,-0.49186 z m -5.19184,0.87442 -2.07673,0.30058 -1.85813,0.2186 -0.13663,-1.28429 1.80348,-0.21861 2.07673,-0.30058 z m -5.21916,0.68314 -1.8308,0.2186 -2.10406,0.19128 -0.10931,-1.31162 2.07674,-0.16396 1.80348,-0.2186 z m -5.24649,0.5465 -1.74882,0.13663 -2.18604,0.16395 -0.082,-1.31162 2.13138,-0.13662 1.77616,-0.16396 z m -5.24648,0.38256 -1.94011,0.1093 -2.02208,0.082 -0.0273,-1.31162 1.96743,-0.0547 1.94011,-0.13663 z m -5.24649,0.24593 -2.32266,0.0547 -1.63952,0.0273 -0.0273,-1.31163 1.63953,-0.0273 2.29533,-0.0547 z m -5.27381,0.1093 -2.81452,0.0273 -0.0273,-1.31161 2.81452,-0.0273 z m -2.84184,0.0273 h -1.12035 l 0.0273,-1.31161 h 1.12034 z m -2.43197,-0.0273 -3.3337,-0.0546 h -0.60116 l 0.0547,-1.31162 h 0.57383 l 3.33371,0.0547 z m -5.24648,-0.1093 -3.68894,-0.13663 h -0.27325 l 0.1093,-1.31162 h 0.19128 l 3.71626,0.13663 z m -5.27381,-0.2186 -3.82557,-0.27326 h -0.1093 l 0.1093,-1.31162 0.082,0.0273 3.85289,0.24592 z m -5.24649,-0.38256 -3.79824,-0.35523 h -0.13662 l 0.16395,-1.31162 0.1093,0.0273 3.79824,0.32791 z m -5.21916,-0.51918 -3.49766,-0.43721 -0.4372,-0.0547 0.19127,-1.2843 0.38256,0.0547 3.49766,0.40988 z m -5.21916,-0.68314 -2.97847,-0.43721 -0.95639,-0.16395 0.24593,-1.2843 0.90174,0.16396 2.97847,0.4372 z m -5.21916,-0.84709 -2.13139,-0.40988 -1.74882,-0.38256 0.30058,-1.28429 1.69417,0.38255 2.13139,0.40988 z m -5.13718,-1.09302 -1.01105,-0.2186 -2.84184,-0.76511 0.35523,-1.2843 2.78719,0.76511 0.98372,0.21861 z m -5.13719,-1.36627 -2.81452,-0.95639 -0.92906,-0.38256 0.49185,-1.20232 0.84709,0.35524 2.81452,0.92906 z m -4.97323,-1.8308 -0.73778,-0.27326 -2.43197,-1.25697 -0.43721,-0.30058 0.73779,-1.09302 0.30058,0.21861 2.32266,1.20232 0.73779,0.30058 z m -4.69998,-2.5686 -0.40988,-0.30058 c -0.0273,0 -0.0547,-0.0273 -0.082,-0.0547 l -1.3936,-1.33894 c -0.0547,-0.0547 -0.082,-0.082 -0.1093,-0.13663 l -0.79244,-1.2843 1.12034,-0.68313 0.79244,1.28429 -0.1093,-0.13662 1.3936,1.33894 -0.082,-0.0547 0.40988,0.27326 z m -3.16975,-4.59067 -0.0547,-0.27326 1.2843,-0.27325 0.0547,0.27325 z"
       id="path1541" />
    <path
       style="fill:#c9c2d1;fill-opacity:1;fill-rule:evenodd;stroke:none;stroke-width:0.264583"
       d="m 894.2536,718.13715 c 0,-9.53658 7.73311,-17.26968 17.26968,-17.26968 0,0 0,0 0,0 v 0 c 9.56391,0 17.26969,7.7331 17.26969,17.26968 0,0 0,0 0,0 v 0 c 0,9.5639 -7.70578,17.26968 -17.26969,17.26968 0,0 0,0 0,0 v 0 c -9.53657,0 -17.26968,-7.70578 -17.26968,-17.26968 0,0 0,0 0,0 z"
       id="path1543" />
    <path
       style="fill:#c9c2d1;fill-opacity:1;fill-rule:evenodd;stroke:none;stroke-width:0.264583"
       d="m 822.11443,708.9558 c 0,-9.53658 7.7331,-17.26969 17.26968,-17.26969 0,0 0,0 0,0 v 0 c 9.56391,0 17.26968,7.73311 17.26968,17.26969 0,0 0,0 0,0 v 0 c 0,9.5639 -7.70577,17.26968 -17.26968,17.26968 0,0 0,0 0,0 v 0 c -9.53658,0 -17.26968,-7.70578 -17.26968,-17.26968 0,0 0,0 0,0 z"
       id="path1545" />
    <path
       style="fill:#6585cf;fill-opacity:1;fill-rule:nonzero;stroke:#6585cf;stroke-width:0.0273254px;stroke-linecap:butt;stroke-linejoin:round;stroke-miterlimit:4;stroke-dasharray:none;stroke-opacity:1"
       d="m 891.84897,715.34995 -40.30504,-4.69998 0.13663,-1.31162 40.30503,4.72731 z m -3.16976,-3.90754 4.53603,3.41568 -5.21916,2.26802 c -0.32791,0.16395 -0.71047,0 -0.84709,-0.32791 -0.13663,-0.32791 0,-0.71046 0.3279,-0.87441 l 4.1808,-1.80348 -0.13663,1.12034 -3.63429,-2.73254 c -0.30058,-0.21861 -0.35523,-0.62849 -0.13662,-0.92907 0.2186,-0.30058 0.62848,-0.35523 0.92906,-0.13663 z m -33.80157,1.80348 -4.56335,-3.41568 5.21916,-2.26801 c 0.3279,-0.13663 0.71046,0.0273 0.84709,0.35523 0.16395,0.32791 0,0.71046 -0.32791,0.84709 l -4.18079,1.8308 0.13662,-1.12034 3.63429,2.73255 c 0.30058,0.2186 0.35523,0.62848 0.13663,0.92906 -0.21861,0.27326 -0.62849,0.32791 -0.90174,0.1093 z"
       id="path1547" />
    <path
       style="fill:#6585cf;fill-opacity:1;fill-rule:nonzero;stroke:#6585cf;stroke-width:0.0273254px;stroke-linecap:butt;stroke-linejoin:round;stroke-miterlimit:4;stroke-dasharray:none;stroke-opacity:1"
       d="m 861.95493,690.07391 -13.22552,7.37787 -0.65581,-1.12034 13.25284,-7.40519 z m -4.86393,-1.31162 5.68369,0.082 -2.86917,4.89125 c -0.19128,0.32791 -0.60116,0.43721 -0.90174,0.24593 -0.32791,-0.19128 -0.40988,-0.60116 -0.24593,-0.90174 l 2.32266,-3.93486 0.54651,1.01104 -4.53602,-0.082 c -0.38256,-0.0273 -0.65581,-0.3279 -0.65581,-0.68313 0,-0.35523 0.30058,-0.65581 0.65581,-0.62849 z m -4.15347,8.88077 -5.68369,-0.1093 2.89649,-4.89125 c 0.19128,-0.32791 0.57384,-0.40989 0.90174,-0.24593 0.30058,0.19127 0.40989,0.60116 0.21861,0.90174 l -2.29534,3.93486 -0.57383,-0.98371 4.56335,0.082 c 0.35523,0 0.65581,0.30058 0.65581,0.65581 -0.0273,0.35523 -0.32791,0.65581 -0.68314,0.65581 z"
       id="path1549" />
    <text
       xml:space="preserve"
       style="font-style:normal;font-variant:normal;font-weight:700;font-size:10.5007px;line-height:125%;font-family:'微軟正黑體';text-align:start;letter-spacing:0px;word-spacing:0px;text-anchor:start;fill:#000000;fill-opacity:1;stroke:none;stroke-width:0.264583"
       x="882.49304"
       y="635.41779"
       id="text1555"><tspan
         sodipodi:role="line"
         x="882.49304"
         y="635.41779"
         id="tspan1553"
         style="stroke-width:0.264583"><tspan
           dx="0"
           dy="0"
           style="font-style:normal;font-variant:normal;font-weight:700;font-size:10.5007px;font-family:'微軟正黑體';fill:#533ea9;stroke-width:0.264583"
           id="tspan1551">神界</tspan></tspan></text>
    <text
       xml:space="preserve"
       style="font-style:normal;font-variant:normal;font-weight:700;font-size:10.5007px;line-height:125%;font-family:'微軟正黑體';text-align:start;letter-spacing:0px;word-spacing:0px;text-anchor:start;fill:#000000;fill-opacity:1;stroke:none;stroke-width:0.264583"
       x="879.21399"
       y="776.41803"
       id="text1561"><tspan
         sodipodi:role="line"
         x="879.21399"
         y="776.41803"
         id="tspan1559"
         style="stroke-width:0.264583"><tspan
           dx="0"
           dy="0"
           style="font-style:normal;font-variant:normal;font-weight:700;font-size:10.5007px;font-family:'微軟正黑體';fill:#533ea9;stroke-width:0.264583"
           id="tspan1557">下界</tspan></tspan></text>
    <text
       xml:space="preserve"
       style="font-style:normal;font-variant:normal;font-weight:700;font-size:10.5007px;line-height:125%;font-family:'微軟正黑體';text-align:start;letter-spacing:0px;word-spacing:0px;text-anchor:start;fill:#000000;fill-opacity:1;stroke:none;stroke-width:0.264583"
       x="868.12134"
       y="688.62439"
       id="text1567"><tspan
         sodipodi:role="line"
         x="868.12134"
         y="688.62439"
         id="tspan1565"
         style="stroke-width:0.264583"><tspan
           dx="0"
           dy="0"
           style="font-style:normal;font-variant:normal;font-weight:700;font-size:10.5007px;font-family:'微軟正黑體';fill:#533ea9;stroke-width:0.264583"
           id="tspan1563">大陸</tspan></tspan></text>
    <text
       xml:space="preserve"
       style="font-style:normal;font-variant:normal;font-weight:700;font-size:10.5007px;line-height:125%;font-family:'微軟正黑體';text-align:start;letter-spacing:0px;word-spacing:0px;text-anchor:start;fill:#000000;fill-opacity:1;stroke:none;stroke-width:0.264583"
       x="868.12134"
       y="701.30341"
       id="text1573"><tspan
         sodipodi:role="line"
         x="868.12134"
         y="701.30341"
         id="tspan1571"
         style="stroke-width:0.264583"><tspan
           dx="0"
           dy="0"
           style="font-style:normal;font-variant:normal;font-weight:700;font-size:10.5007px;font-family:'微軟正黑體';fill:#533ea9;stroke-width:0.264583"
           id="tspan1569">盡頭</tspan></tspan></text>
    <text
       xml:space="preserve"
       style="font-style:normal;font-variant:normal;font-weight:700;font-size:10.5007px;line-height:125%;font-family:'微軟正黑體';text-align:start;letter-spacing:0px;word-spacing:0px;text-anchor:start;fill:#000000;fill-opacity:1;stroke:none;stroke-width:0.264583"
       x="937.00995"
       y="697.89105"
       id="text1579"><tspan
         sodipodi:role="line"
         x="937.00995"
         y="697.89105"
         id="tspan1577"
         style="stroke-width:0.264583"><tspan
           dx="0"
           dy="0"
           style="font-style:normal;font-variant:normal;font-weight:700;font-size:10.5007px;font-family:'微軟正黑體';fill:#533ea9;stroke-width:0.264583"
           id="tspan1575">未踏</tspan></tspan></text>
    <text
       xml:space="preserve"
       style="font-style:normal;font-variant:normal;font-weight:700;font-size:10.5007px;line-height:125%;font-family:'微軟正黑體';text-align:start;letter-spacing:0px;word-spacing:0px;text-anchor:start;fill:#000000;fill-opacity:1;stroke:none;stroke-width:0.264583"
       x="937.00995"
       y="710.57007"
       id="text1585"><tspan
         sodipodi:role="line"
         x="937.00995"
         y="710.57007"
         id="tspan1583"
         style="stroke-width:0.264583"><tspan
           dx="0"
           dy="0"
           style="font-style:normal;font-variant:normal;font-weight:700;font-size:10.5007px;font-family:'微軟正黑體';fill:#533ea9;stroke-width:0.264583"
           id="tspan1581">領域</tspan></tspan></text>
    <text
       xml:space="preserve"
       style="font-style:normal;font-variant:normal;font-weight:700;font-size:10.5007px;line-height:125%;font-family:'微軟正黑體';text-align:start;letter-spacing:0px;word-spacing:0px;text-anchor:start;fill:#000000;fill-opacity:1;stroke:none;stroke-width:0.264583"
       x="828.11743"
       y="705.27637"
       id="text1591"><tspan
         sodipodi:role="line"
         x="828.11743"
         y="705.27637"
         id="tspan1589"
         style="stroke-width:0.264583"><tspan
           dx="0"
           dy="0"
           style="font-style:normal;font-variant:normal;font-weight:700;font-size:10.5007px;font-family:'微軟正黑體';fill:#533ea9;stroke-width:0.264583"
           id="tspan1587">西方</tspan></tspan></text>
    <text
       xml:space="preserve"
       style="font-style:normal;font-variant:normal;font-weight:700;font-size:10.5007px;line-height:125%;font-family:'微軟正黑體';text-align:start;letter-spacing:0px;word-spacing:0px;text-anchor:start;fill:#000000;fill-opacity:1;stroke:none;stroke-width:0.264583"
       x="828.11743"
       y="717.95538"
       id="text1597"><tspan
         sodipodi:role="line"
         x="828.11743"
         y="717.95538"
         id="tspan1595"
         style="stroke-width:0.264583"><tspan
           dx="0"
           dy="0"
           style="font-style:normal;font-variant:normal;font-weight:700;font-size:10.5007px;font-family:'微軟正黑體';fill:#533ea9;stroke-width:0.264583"
           id="tspan1593">大陸</tspan></tspan></text>
    <text
       xml:space="preserve"
       style="font-style:normal;font-variant:normal;font-weight:700;font-size:10.5007px;line-height:125%;font-family:'微軟正黑體';text-align:start;letter-spacing:0px;word-spacing:0px;text-anchor:start;fill:#000000;fill-opacity:1;stroke:none;stroke-width:0.264583"
       x="895.60938"
       y="720.67377"
       id="text1603"><tspan
         sodipodi:role="line"
         x="895.60938"
         y="720.67377"
         id="tspan1601"
         style="stroke-width:0.264583"><tspan
           dx="0"
           dy="0"
           style="font-style:normal;font-variant:normal;font-weight:700;font-size:10.5007px;font-family:'微軟正黑體';fill:#533ea9;stroke-width:0.264583"
           id="tspan1599">浮空島</tspan></tspan></text>
    <path
       style="fill:#6585cf;fill-opacity:1;fill-rule:nonzero;stroke:#6585cf;stroke-width:0.0273254px;stroke-linecap:butt;stroke-linejoin:round;stroke-miterlimit:4;stroke-dasharray:none;stroke-opacity:1"
       d="m 932.94644,691.30356 -40.30504,-4.69998 0.13663,-1.31162 40.30503,4.7273 z m -3.16976,-3.90754 4.53603,3.41568 -5.21916,2.26801 c -0.32791,0.16396 -0.71046,0 -0.84709,-0.3279 -0.13663,-0.32791 0,-0.71046 0.3279,-0.87442 l 4.1808,-1.80348 -0.13663,1.12035 -3.63429,-2.73255 c -0.30058,-0.2186 -0.35522,-0.62848 -0.13662,-0.92906 0.2186,-0.30058 0.62848,-0.35523 0.92906,-0.13663 z m -33.80157,1.80348 -4.56335,-3.41568 5.21916,-2.26801 c 0.3279,-0.13663 0.71046,0.0273 0.84709,0.35523 0.16395,0.3279 0,0.71046 -0.32791,0.84709 v 0 l -4.18079,1.8308 0.13662,-1.12034 3.63429,2.73254 c 0.30058,0.21861 0.35523,0.62849 0.13663,0.92907 -0.21861,0.27325 -0.62849,0.3279 -0.90174,0.1093 z"
       id="path1605" />
    <path
       style="fill:#6585cf;fill-opacity:1;fill-rule:nonzero;stroke:#6585cf;stroke-width:0.0273254px;stroke-linecap:butt;stroke-linejoin:round;stroke-miterlimit:4;stroke-dasharray:none;stroke-opacity:1"
       d="m 932.56388,697.0419 -19.12781,10.19239 -0.62849,-1.17499 19.15514,-10.16507 z m -4.80928,-1.42092 5.65637,0.2186 -2.97848,4.83661 c -0.19127,0.30058 -0.60116,0.40988 -0.90174,0.2186 -0.30057,-0.19128 -0.40988,-0.60116 -0.2186,-0.90174 l 2.40464,-3.88021 0.51918,1.01104 -4.53602,-0.19128 c -0.38256,0 -0.65581,-0.30058 -0.62849,-0.68313 0,-0.35524 0.30058,-0.62849 0.68314,-0.62849 z m -10.11042,11.85924 -5.68369,-0.2186 3.0058,-4.8366 c 0.19128,-0.30058 0.57384,-0.40989 0.90174,-0.21861 0.30058,0.19128 0.38256,0.60116 0.21861,0.90174 l -2.40464,3.88022 -0.54651,-0.98372 4.56335,0.16395 c 0.35523,0.0273 0.65581,0.32791 0.62848,0.68314 -0.0273,0.35523 -0.3279,0.65581 -0.68314,0.62848 z"
       id="path1607" />
    <path
       style="fill:#6585cf;fill-opacity:1;fill-rule:nonzero;stroke:#6585cf;stroke-width:0.0273254px;stroke-linecap:butt;stroke-linejoin:round;stroke-miterlimit:4;stroke-dasharray:none;stroke-opacity:1"
       d="m 905.83959,707.80813 -15.00167,-9.80984 0.71047,-1.12034 15.02899,9.83716 z m -1.06569,-4.91858 2.51394,5.08253 -5.65637,-0.27325 c -0.35523,-0.0273 -0.65581,-0.32791 -0.62848,-0.71046 0.0273,-0.35524 0.3279,-0.62849 0.68314,-0.60116 l 4.56334,0.2186 -0.62848,0.95639 -2.02208,-4.07149 c -0.16396,-0.32791 -0.0273,-0.71046 0.27325,-0.87442 0.32791,-0.16395 0.73779,-0.0273 0.90174,0.27326 z m -12.1325,-1.09302 -2.54126,-5.08253 5.68369,0.30058 c 0.35523,0.0273 0.62848,0.3279 0.62848,0.68313 -0.0273,0.38256 -0.3279,0.65581 -0.71046,0.62849 l -4.53602,-0.24593 0.62848,-0.92907 2.02209,4.0715 c 0.16395,0.3279 0.0273,0.71046 -0.30058,0.87441 -0.30058,0.16395 -0.71047,0.0273 -0.87442,-0.30058 z"
       id="path1609" />
    <path
       style="fill:#92d050;fill-opacity:1;fill-rule:nonzero;stroke:#92d050;stroke-width:0.0273254px;stroke-linecap:butt;stroke-linejoin:round;stroke-miterlimit:4;stroke-dasharray:none;stroke-opacity:1"
       d="m 706.25454,625.83179 0.2186,-1.99476 c 0,-0.1093 0.0273,-0.19127 0.0547,-0.27325 l 0.54651,-1.74883 c 0.0273,-0.082 0.0547,-0.16395 0.082,-0.2186 l 0.84709,-1.58488 c 0.0547,-0.082 0.082,-0.16395 0.13662,-0.2186 l 1.14767,-1.3936 c 0.0546,-0.0547 0.13663,-0.13663 0.19128,-0.19128 l 1.3936,-1.14767 c 0.0546,-0.0547 0.13663,-0.082 0.2186,-0.13662 l 1.58488,-0.84709 c 0.0547,-0.0273 0.13662,-0.0546 0.2186,-0.082 l 1.74883,-0.54651 c 0.082,-0.0273 0.16395,-0.0547 0.27325,-0.0547 l 1.88546,-0.19128 240.70984,-0.0273 2.02214,0.2186 c 0.1093,0 0.1913,0.0273 0.2732,0.0547 l 1.7489,0.54651 c 0.082,0.0273 0.1366,0.0547 0.2186,0.082 l 1.5849,0.84709 c 0.082,0.0546 0.1639,0.1093 0.2186,0.16395 l 1.3662,1.14767 c 0.082,0.0547 0.1366,0.1093 0.1913,0.16395 l 1.1477,1.3936 c 0.055,0.0547 0.082,0.13663 0.1366,0.2186 l 0.8471,1.58488 c 0.027,0.0547 0.055,0.13662 0.082,0.2186 l 0.5465,1.74883 c 0.027,0.082 0.055,0.16395 0.055,0.27325 l 0.1913,1.88546 v 37.40853 l -0.1913,2.02209 c 0,0.1093 -0.027,0.19128 -0.055,0.27325 l -0.5465,1.74883 c -0.027,0.082 -0.055,0.13663 -0.082,0.2186 l -0.8471,1.58488 c -0.055,0.082 -0.1093,0.16395 -0.1639,0.2186 l -1.1477,1.36628 c -0.055,0.0547 -0.1093,0.1093 -0.164,0.16395 l -1.3662,1.14767 c -0.055,0.0547 -0.1367,0.1093 -0.2186,0.16395 l -1.5849,0.84709 c -0.082,0.0273 -0.1367,0.0547 -0.2186,0.082 l -1.7489,0.54651 c -0.082,0.0273 -0.1639,0.0547 -0.2732,0.0547 l -1.88551,0.19128 H 716.91146 l -1.99476,-0.19128 c -0.1093,0 -0.19127,-0.0273 -0.27325,-0.0547 l -1.74883,-0.54651 c -0.082,-0.0273 -0.16395,-0.0546 -0.2186,-0.082 l -1.58488,-0.84709 c -0.082,-0.0547 -0.16395,-0.082 -0.2186,-0.13663 l -1.3936,-1.14767 c -0.0547,-0.0547 -0.1093,-0.1093 -0.16395,-0.19127 l -1.14767,-1.36628 c -0.0546,-0.0547 -0.1093,-0.13662 -0.16395,-0.2186 l -0.84709,-1.58488 c -0.0273,-0.082 -0.0547,-0.13662 -0.082,-0.2186 l -0.54651,-1.74883 c -0.0273,-0.082 -0.0547,-0.16395 -0.0547,-0.27325 l -0.19128,-1.88546 z m 2.62324,37.18993 0.19128,1.88546 -0.0547,-0.27326 0.54651,1.74883 -0.082,-0.2186 0.84709,1.58487 -0.16395,-0.2186 1.14767,1.36627 -0.16396,-0.19127 1.3936,1.14766 -0.2186,-0.13662 1.58487,0.84709 -0.2186,-0.082 1.74883,0.54651 -0.27326,-0.0547 1.74883,0.16395 240.49125,0.0273 1.88547,-0.19128 -0.2733,0.0547 1.7488,-0.54651 -0.2186,0.082 1.5849,-0.84709 -0.2186,0.16395 1.3663,-1.14767 -0.164,0.16395 1.1477,-1.36627 -0.164,0.2186 0.8471,-1.58487 -0.082,0.2186 0.5466,-1.74883 -0.055,0.27326 0.164,-1.77616 0.027,-37.1626 -0.1913,-1.88546 0.055,0.27326 -0.5466,-1.74883 0.082,0.2186 -0.8471,-1.58487 0.1366,0.2186 -1.1476,-1.3936 0.1913,0.16396 -1.3663,-1.14767 0.2186,0.16395 -1.5849,-0.84709 0.2186,0.082 -1.7488,-0.54651 0.2733,0.0546 -1.77618,-0.19128 H 717.04809 l -1.88546,0.19128 0.27326,-0.0546 -1.74883,0.54651 0.2186,-0.082 -1.58487,0.84709 0.2186,-0.13663 -1.3936,1.14767 0.19128,-0.19128 -1.14767,1.3936 0.13663,-0.2186 -0.84709,1.58487 0.082,-0.2186 -0.54651,1.74883 0.0547,-0.27326 -0.19128,1.74883 z"
       id="path1611" />
    <path
       style="fill:#92d050;fill-opacity:1;fill-rule:nonzero;stroke:#92d050;stroke-width:0.0273254px;stroke-linecap:butt;stroke-linejoin:round;stroke-miterlimit:4;stroke-dasharray:none;stroke-opacity:1"
       d="m 706.25454,743.27656 0.2186,-1.88546 c 0,-0.082 0.0273,-0.16395 0.0273,-0.2186 l 0.49185,-1.63953 c 0.0273,-0.1093 0.082,-0.19128 0.10931,-0.27325 l 0.81976,-1.5029 c 0.0546,-0.0547 0.1093,-0.13663 0.16395,-0.19128 l 1.06569,-1.2843 c 0.0273,-0.0547 0.10931,-0.13662 0.16396,-0.16395 l 1.28429,-1.06569 c 0.0547,-0.0547 0.13663,-0.1093 0.19128,-0.16396 l 1.5029,-0.81976 c 0.082,-0.0273 0.16395,-0.082 0.27326,-0.1093 l 1.63952,-0.49186 c 0.0546,0 0.13663,-0.0273 0.21861,-0.0273 l 1.74882,-0.19128 241.91217,-0.0273 1.9401,0.21861 c 0.082,0 0.1367,0.0273 0.2187,0.0273 l 1.6395,0.49186 c 0.1093,0.0273 0.1912,0.082 0.2732,0.13663 l 1.4756,0.81976 c 0.055,0.0273 0.1366,0.082 0.1913,0.13663 l 1.2843,1.06569 c 0.055,0.0273 0.1366,0.1093 0.1639,0.16395 l 1.0657,1.2843 c 0.055,0.0546 0.1093,0.13663 0.164,0.19128 l 0.8197,1.5029 c 0.027,0.082 0.055,0.16395 0.082,0.24592 l 0.5192,1.63953 c 0.027,0.082 0.055,0.19128 0.055,0.27326 l 0.164,1.74883 v 35.08587 l -0.164,1.91278 c 0,0.082 -0.027,0.19128 -0.055,0.27325 l -0.5192,1.63953 c -0.027,0.082 -0.055,0.16395 -0.1093,0.24593 l -0.8197,1.47557 c -0.027,0.0546 -0.082,0.13663 -0.1367,0.19128 l -1.0657,1.2843 c -0.027,0.0547 -0.1093,0.13662 -0.1639,0.16395 l -1.2843,1.06569 c -0.055,0.0547 -0.1366,0.1093 -0.1913,0.13663 l -1.4756,0.81976 c -0.082,0.0546 -0.1639,0.082 -0.2459,0.10931 l -1.6395,0.51918 c -0.082,0.0273 -0.1913,0.0547 -0.2733,0.0547 l -1.7761,0.16395 H 716.3103 l -1.85813,-0.16395 c -0.082,0 -0.19128,-0.0273 -0.27325,-0.0547 l -1.63953,-0.51918 c -0.082,-0.0273 -0.16395,-0.0547 -0.24593,-0.082 l -1.5029,-0.81976 c -0.0547,-0.0547 -0.13663,-0.10931 -0.19128,-0.16396 l -1.28429,-1.06569 c -0.0547,-0.0273 -0.13663,-0.1093 -0.16396,-0.16395 l -1.06569,-1.2843 c -0.0547,-0.0547 -0.1093,-0.13663 -0.13662,-0.19128 l -0.81977,-1.47557 c -0.0547,-0.082 -0.1093,-0.16395 -0.13663,-0.27325 l -0.49185,-1.63953 c 0,-0.082 -0.0273,-0.13663 -0.0273,-0.21861 l -0.19128,-1.77615 z m 2.62324,34.83994 0.19128,1.77615 -0.0547,-0.2186 0.49186,1.63953 -0.10931,-0.27326 0.81977,1.47558 -0.13663,-0.19128 1.06569,1.28429 -0.16395,-0.16395 1.2843,1.06569 -0.21861,-0.16395 1.5029,0.81977 -0.2186,-0.082 1.63952,0.51918 -0.27325,-0.0546 1.6122,0.13663 241.66616,0.0273 1.7762,-0.16395 -0.2733,0.0546 1.6396,-0.51918 -0.246,0.1093 1.4756,-0.81976 -0.1913,0.13662 1.2843,-1.06569 -0.1639,0.16395 1.0657,-1.28429 -0.1367,0.19128 0.8198,-1.47558 -0.1093,0.24593 0.5192,-1.63952 -0.055,0.27325 0.1367,-1.66685 0.027,-34.83995 -0.164,-1.74882 0.055,0.27325 -0.5192,-1.63953 0.082,0.21861 -0.8198,-1.5029 0.164,0.2186 -1.0657,-1.28429 0.164,0.16395 -1.2844,-1.06569 0.1913,0.13662 -1.4756,-0.81976 0.2733,0.1093 -1.6395,-0.49186 0.2186,0.0546 -1.6396,-0.19127 H 716.47425 l -1.74882,0.19127 0.2186,-0.0546 -1.63953,0.49186 0.24593,-0.082 -1.5029,0.81977 0.21861,-0.16395 -1.2843,1.06569 0.16395,-0.16395 -1.06569,1.28429 0.16395,-0.2186 -0.81976,1.5029 0.082,-0.24593 -0.49186,1.63952 0.0547,-0.2186 -0.19128,1.58488 z"
       id="path1613" />
    <path
       style="fill:#92d050;fill-opacity:1;fill-rule:nonzero;stroke:#92d050;stroke-width:0.0273254px;stroke-linecap:butt;stroke-linejoin:round;stroke-miterlimit:4;stroke-dasharray:none;stroke-opacity:1"
       d="m 706.25454,682.80535 0.24593,-2.21337 c 0,-0.082 0.0273,-0.16395 0.0546,-0.24592 l 0.60116,-1.94011 c 0.0273,-0.082 0.0547,-0.16395 0.082,-0.2186 l 0.95639,-1.77616 c 0.0547,-0.082 0.082,-0.16395 0.13663,-0.2186 l 1.25697,-1.53023 c 0.0547,-0.0547 0.13663,-0.13662 0.19128,-0.19128 l 1.53023,-1.25697 c 0.0547,-0.0547 0.13662,-0.082 0.2186,-0.13662 l 1.77615,-0.95639 c 0.0546,-0.0273 0.13663,-0.0547 0.21861,-0.082 l 1.9401,-0.60116 c 0.082,-0.0273 0.16396,-0.0546 0.24593,-0.0546 l 2.07674,-0.2186 238.71509,-0.0273 2.21336,0.24593 c 0.1093,0 0.1913,0.0273 0.2733,0.0546 l 1.9401,0.60116 c 0.082,0.0273 0.1639,0.0547 0.2186,0.082 l 1.7488,0.95639 c 0.082,0.0547 0.164,0.082 0.2186,0.13662 l 1.5302,1.25697 c 0.055,0.0547 0.1093,0.10931 0.164,0.19128 l 1.2843,1.53023 c 0.055,0.0547 0.1093,0.13663 0.164,0.2186 l 0.929,1.77616 c 0.027,0.082 0.055,0.13662 0.082,0.2186 l 0.6011,1.94011 c 0.027,0.082 0.055,0.16395 0.055,0.24592 l 0.2186,2.07674 v 41.53468 l -0.2186,2.21336 c 0,0.1093 -0.027,0.19128 -0.055,0.27325 l -0.6011,1.94011 c -0.027,0.082 -0.055,0.13662 -0.082,0.2186 l -0.929,1.74883 c -0.055,0.082 -0.1093,0.16395 -0.164,0.2186 l -1.2843,1.53023 c -0.055,0.0546 -0.1093,0.1093 -0.164,0.16395 l -1.5302,1.2843 c -0.055,0.0547 -0.1366,0.1093 -0.2186,0.16395 l -1.7488,0.92906 c -0.082,0.0273 -0.1366,0.0547 -0.2186,0.082 l -1.9401,0.60116 c -0.082,0.0273 -0.164,0.0547 -0.2733,0.0547 l -2.07673,0.21861 h -238.7151 l -2.21336,-0.21861 c -0.082,0 -0.16395,-0.0273 -0.24593,-0.0547 l -1.9401,-0.60116 c -0.082,-0.0273 -0.13663,-0.0546 -0.21861,-0.082 l -1.77615,-0.92906 c -0.082,-0.0546 -0.16395,-0.1093 -0.2186,-0.16395 l -1.53023,-1.2843 c -0.082,-0.0547 -0.13663,-0.1093 -0.19128,-0.16395 l -1.25697,-1.53023 c -0.0546,-0.0546 -0.082,-0.13662 -0.13663,-0.2186 l -0.95639,-1.74883 c -0.0273,-0.0546 -0.0546,-0.13663 -0.082,-0.2186 l -0.60116,-1.94011 c -0.0273,-0.082 -0.0546,-0.16395 -0.0546,-0.27325 l -0.21861,-2.07674 z m 2.62324,41.26142 0.2186,2.07673 -0.0547,-0.24593 0.60116,1.94011 -0.082,-0.24593 0.95639,1.74883 -0.13663,-0.19128 1.25697,1.53023 -0.19128,-0.16396 1.53023,1.2843 -0.21861,-0.16395 1.77616,0.92906 -0.21861,-0.082 1.94011,0.60116 -0.27325,-0.0546 1.9401,0.19127 238.44184,0.0273 2.07675,-0.2186 -0.246,0.0546 1.9402,-0.60116 -0.2187,0.082 1.7489,-0.92906 -0.2186,0.16395 1.5302,-1.2843 -0.164,0.16396 1.2843,-1.53023 -0.1639,0.2186 0.929,-1.74882 -0.082,0.2186 0.6011,-1.94011 -0.055,0.24593 0.1913,-1.9401 0.027,-41.26143 -0.2186,-2.07673 0.055,0.27325 -0.6011,-1.9401 0.082,0.2186 -0.929,-1.77615 0.1639,0.2186 -1.2843,-1.53022 0.164,0.19127 -1.5302,-1.25697 0.1912,0.13663 -1.7488,-0.95639 0.246,0.082 -1.9402,-0.60116 0.246,0.0547 -1.94012,-0.21861 H 718.05913 l -2.07673,0.21861 0.27325,-0.0547 -1.94011,0.60116 0.21861,-0.082 -1.77616,0.95639 0.21861,-0.13663 -1.53023,1.25697 0.19128,-0.19127 -1.25697,1.53022 0.13663,-0.2186 -0.95639,1.77615 0.082,-0.2186 -0.60116,1.9401 0.0547,-0.27325 -0.2186,1.94011 z"
       id="path1615" />
  </g>
</svg>
