<?xml version="1.0" encoding="UTF-8" standalone="no"?>
<!-- Created with Inkscape (http://www.inkscape.org/) -->

<svg
   width="136.72647mm"
   height="242.41718mm"
   viewBox="0 0 136.72647 242.41718"
   version="1.1"
   id="svg5"
   inkscape:version="1.1 (c68e22c387, 2021-05-23)"
   sodipodi:docname="Tarot_Kabbalah.svg"
   xmlns:inkscape="http://www.inkscape.org/namespaces/inkscape"
   xmlns:sodipodi="http://sodipodi.sourceforge.net/DTD/sodipodi-0.dtd"
   xmlns="http://www.w3.org/2000/svg"
   xmlns:svg="http://www.w3.org/2000/svg">
  <sodipodi:namedview
     id="namedview7"
     pagecolor="#ffffff"
     bordercolor="#666666"
     borderopacity="1.0"
     inkscape:pageshadow="2"
     inkscape:pageopacity="0.0"
     inkscape:pagecheckerboard="0"
     inkscape:document-units="mm"
     showgrid="false"
     fit-margin-top="0"
     fit-margin-left="0"
     fit-margin-right="0"
     fit-margin-bottom="0"
     inkscape:zoom="0.52382155"
     inkscape:cx="-42.953559"
     inkscape:cy="600.39531"
     inkscape:window-width="1288"
     inkscape:window-height="745"
     inkscape:window-x="-8"
     inkscape:window-y="-8"
     inkscape:window-maximized="1"
     inkscape:current-layer="layer1" />
  <defs
     id="defs2">
    <pattern
       id="EMFhbasepattern"
       patternUnits="userSpaceOnUse"
       width="6"
       height="6"
       x="0"
       y="0" />
  </defs>
  <g
     inkscape:label="Layer 1"
     inkscape:groupmode="layer"
     id="layer1"
     transform="translate(-115.99901,10.086144)">
    <path
       style="fill:#ff99ff;fill-opacity:1;fill-rule:nonzero;stroke:#ff99ff;stroke-width:0.0272962px;stroke-linecap:butt;stroke-linejoin:round;stroke-miterlimit:4;stroke-dasharray:none;stroke-opacity:1"
       d="m 182.83365,165.05965 c -0.7097,0 -1.31021,-0.57322 -1.31021,-1.31021 v -31.44518 c 0,-0.43674 0.24566,-0.87347 0.6551,-1.11914 0.38215,-0.21837 0.87348,-0.24566 1.28292,-0.0273 l 58.9597,31.44518 c 0.51863,0.27296 0.79159,0.90077 0.65511,1.47399 -0.13648,0.57322 -0.68241,0.98266 -1.28292,0.98266 z m 58.9597,-2.62043 -0.60052,2.48395 -58.95969,-31.44517 1.91073,-1.17374 v 31.44518 l -1.31022,-1.31022 z"
       id="path827" />
    <path
       style="fill:#ff99ff;fill-opacity:1;fill-rule:nonzero;stroke:#ff99ff;stroke-width:0.0272962px;stroke-linecap:butt;stroke-linejoin:round;stroke-miterlimit:4;stroke-dasharray:none;stroke-opacity:1"
       d="m 182.83365,162.43922 -1.31021,1.31022 v -31.44518 l 1.93802,1.17374 -58.9597,31.44517 -0.62781,-2.48395 z m -58.9597,2.62043 c -0.60051,0 -1.11914,-0.40944 -1.25562,-0.98266 -0.13648,-0.57322 0.10918,-1.20103 0.65511,-1.47399 l 58.9597,-31.44518 c 0.40944,-0.21836 0.90077,-0.19107 1.28292,0.0273 0.40944,0.24567 0.62781,0.6824 0.62781,1.11914 v 31.44518 c 0,0.73699 -0.57322,1.31021 -1.31022,1.31021 z"
       id="path829" />
    <path
       style="fill:#ff99ff;fill-opacity:1;fill-rule:nonzero;stroke:#ff99ff;stroke-width:0.0272962px;stroke-linecap:butt;stroke-linejoin:round;stroke-miterlimit:4;stroke-dasharray:none;stroke-opacity:1"
       d="m 182.83365,165.05965 1.31022,-1.31021 v 31.44517 l -1.91073,-1.14644 58.95969,-31.44517 0.60052,2.45665 z m 58.9597,-2.62043 c 0.60051,0 1.14644,0.40944 1.28292,1.00996 0.13648,0.57322 -0.13648,1.17373 -0.65511,1.47399 l -58.9597,31.44518 c -0.40944,0.21836 -0.90077,0.19107 -1.28292,-0.0273 -0.40944,-0.24566 -0.6551,-0.6824 -0.6551,-1.14644 v -31.44517 c 0,-0.7097 0.60051,-1.31022 1.31021,-1.31022 z"
       id="path831" />
    <path
       style="fill:#ff99ff;fill-opacity:1;fill-rule:nonzero;stroke:#ff99ff;stroke-width:0.0272962px;stroke-linecap:butt;stroke-linejoin:round;stroke-miterlimit:4;stroke-dasharray:none;stroke-opacity:1"
       d="m 182.83365,162.43922 c 0.737,0 1.31022,0.60052 1.31022,1.31022 v 31.44517 c 0,0.46404 -0.21837,0.90078 -0.62781,1.14644 -0.38215,0.21837 -0.87348,0.24566 -1.28292,0.0273 l -58.9597,-31.44518 c -0.54593,-0.30026 -0.79159,-0.90077 -0.65511,-1.47399 0.13648,-0.60052 0.65511,-1.00996 1.25562,-1.00996 z m -58.9597,2.62043 0.62781,-2.45665 58.9597,31.44517 -1.93802,1.14644 v -31.44517 l 1.31021,1.31021 z"
       id="path833" />
    <path
       style="fill:#ff99ff;fill-opacity:1;fill-rule:nonzero;stroke:#ff99ff;stroke-width:0.0272962px;stroke-linecap:butt;stroke-linejoin:round;stroke-miterlimit:4;stroke-dasharray:none;stroke-opacity:1"
       d="m 182.83365,102.60604 1.31022,-1.31021 v 31.00843 l -1.91073,-1.14644 58.95969,-31.00843 0.60052,2.45665 z m 58.9597,-2.62043 c 0.62781,0 1.14644,0.43674 1.28292,1.00996 0.13648,0.57322 -0.13648,1.20103 -0.65511,1.47399 l -58.9597,31.00844 c -0.40944,0.21837 -0.90077,0.19107 -1.28292,-0.0273 -0.40944,-0.24566 -0.6551,-0.6824 -0.6551,-1.14644 v -31.00843 c 0,-0.7097 0.60051,-1.31022 1.31021,-1.31022 z"
       id="path835" />
    <path
       style="fill:#ff99ff;fill-opacity:1;fill-rule:nonzero;stroke:#ff99ff;stroke-width:0.0272962px;stroke-linecap:butt;stroke-linejoin:round;stroke-miterlimit:4;stroke-dasharray:none;stroke-opacity:1"
       d="m 182.83365,99.98561 c 0.737,0 1.31022,0.60052 1.31022,1.31022 v 31.00843 c 0,0.46404 -0.21837,0.90078 -0.62781,1.14644 -0.38215,0.21837 -0.87348,0.24567 -1.28292,0.0273 l -58.9597,-31.00844 c -0.51863,-0.27296 -0.79159,-0.90077 -0.65511,-1.47399 0.13648,-0.57322 0.65511,-1.00996 1.25562,-1.00996 z m -58.9597,2.62043 0.62781,-2.45665 58.9597,31.00843 -1.93802,1.14644 v -31.00843 l 1.31021,1.31021 z"
       id="path837" />
    <path
       style="fill:#ff99ff;fill-opacity:1;fill-rule:nonzero;stroke:#ff99ff;stroke-width:0.0272962px;stroke-linecap:butt;stroke-linejoin:round;stroke-miterlimit:4;stroke-dasharray:none;stroke-opacity:1"
       d="m 182.83365,40.152437 c -0.7097,0 -1.31021,-0.573219 -1.31021,-1.310216 V 7.3970484 c 0,-0.436739 0.24566,-0.873477 0.6551,-1.119143 0.38215,-0.218369 0.87348,-0.245665 1.28292,-0.0273 l 58.9597,31.4451746 c 0.51863,0.27296 0.79159,0.900771 0.65511,1.473991 -0.13648,0.57322 -0.68241,0.982662 -1.28292,0.982662 z m 58.9597,-2.62043 -0.60052,2.483948 -58.95969,-31.4451726 1.91073,-1.173734 V 38.842221 l -1.31022,-1.310214 z"
       id="path839" />
    <path
       style="fill:#ff99ff;fill-opacity:1;fill-rule:nonzero;stroke:#ff99ff;stroke-width:0.0272962px;stroke-linecap:butt;stroke-linejoin:round;stroke-miterlimit:4;stroke-dasharray:none;stroke-opacity:1"
       d="m 182.83365,37.532007 -1.31021,1.310214 V 7.3970484 l 1.93802,1.173734 -58.9597,31.4451726 -0.62781,-2.483948 z m -58.9597,2.62043 c -0.60051,0 -1.11914,-0.409442 -1.25562,-0.982662 -0.13648,-0.57322 0.10918,-1.201031 0.65511,-1.473991 l 58.9597,-31.4451746 c 0.40944,-0.218369 0.90077,-0.191073 1.28292,0.0273 0.40944,0.245666 0.62781,0.682404 0.62781,1.119143 V 38.842225 c 0,0.736997 -0.57322,1.310216 -1.31022,1.310216 z"
       id="path841" />
    <path
       style="fill:#ff99ff;fill-opacity:1;fill-rule:nonzero;stroke:#ff99ff;stroke-width:0.0272962px;stroke-linecap:butt;stroke-linejoin:round;stroke-miterlimit:4;stroke-dasharray:none;stroke-opacity:1"
       d="m 125.18417,38.842221 0.0819,125.043699 h -2.62044 l -0.0819,-125.043699 z"
       id="path843" />
    <path
       style="fill:#ff99ff;fill-opacity:1;fill-rule:nonzero;stroke:#ff99ff;stroke-width:0.0272962px;stroke-linecap:butt;stroke-linejoin:round;stroke-miterlimit:4;stroke-dasharray:none;stroke-opacity:1"
       d="m 243.10357,38.842221 0.0819,125.043699 h -2.62043 l -0.0819,-125.043699 z"
       id="path845" />
    <path
       style="fill:#ff99ff;fill-opacity:1;fill-rule:nonzero;stroke:#ff99ff;stroke-width:0.0272962px;stroke-linecap:butt;stroke-linejoin:round;stroke-miterlimit:4;stroke-dasharray:none;stroke-opacity:1"
       d="m 184.14387,195.19461 0.0819,28.66097 h -2.62043 l -0.0819,-28.63367 z"
       id="path847" />
    <path
       style="fill:#ff99ff;fill-opacity:1;fill-rule:nonzero;stroke:#ff99ff;stroke-width:0.0272962px;stroke-linecap:butt;stroke-linejoin:round;stroke-miterlimit:4;stroke-dasharray:none;stroke-opacity:1"
       d="m 242.91249,39.551921 -58.95969,93.762299 -2.211,-1.3921 58.95971,-93.762302 z"
       id="path849" />
    <path
       style="fill:#ff99ff;fill-opacity:1;fill-rule:nonzero;stroke:#ff99ff;stroke-width:0.0272962px;stroke-linecap:butt;stroke-linejoin:round;stroke-miterlimit:4;stroke-dasharray:none;stroke-opacity:1"
       d="m 124.99309,38.159818 58.95971,93.762302 -2.211,1.3921 -58.95969,-93.762299 z"
       id="path851" />
    <path
       style="fill:#ff99ff;fill-opacity:1;fill-rule:nonzero;stroke:#ff99ff;stroke-width:0.0272962px;stroke-linecap:butt;stroke-linejoin:round;stroke-miterlimit:4;stroke-dasharray:none;stroke-opacity:1"
       d="m 184.22576,10.890955 -0.0819,117.946695 -2.62044,-0.0273 0.0819,-117.919405 z"
       id="path853" />
    <path
       style="fill:#ffffff;fill-opacity:1;fill-rule:evenodd;stroke:none;stroke-width:0.264583"
       d="m 116.66777,91.68758 c 0,-1.55588 1.28292,-2.8388 2.8388,-2.8388 0,0 0,0 0,0 v 0 h 11.3552 v 0 c 1.58318,0 2.8388,1.28292 2.8388,2.8388 0,0 0,0 0,0 v 0 29.69822 0 c 0,1.58318 -1.25562,2.8388 -2.8388,2.8388 0,0 0,0 0,0 v 0 h -11.3552 v 0 c -1.55588,0 -2.8388,-1.25562 -2.8388,-2.8388 0,0 0,0 0,0 z"
       id="path855" />
    <path
       style="fill:#321900;fill-opacity:1;fill-rule:nonzero;stroke:#321900;stroke-width:0.0272962px;stroke-linecap:butt;stroke-linejoin:round;stroke-miterlimit:4;stroke-dasharray:none;stroke-opacity:1"
       d="m 116.01266,91.68758 c 0,-0.0273 0.0273,-0.0819 0.0273,-0.10918 l 0.21837,-1.09185 c 0.0273,-0.0819 0.0546,-0.19107 0.10919,-0.24566 l 0.62781,-0.90078 c 0.0273,-0.0819 0.0819,-0.13648 0.16378,-0.16378 l 0.90077,-0.62781 c 0.0546,-0.0546 0.16378,-0.0819 0.24567,-0.10918 l 1.09184,-0.21837 c 0.0273,0 0.0819,-0.0273 0.10919,-0.0273 h 11.3552 c 0.0546,0 0.10918,0.0273 0.13648,0.0273 l 1.11914,0.21837 c 0.0819,0.0273 0.16378,0.0546 0.24567,0.10918 l 0.90077,0.62781 c 0.0819,0.0273 0.13648,0.10919 0.16378,0.16378 l 0.60051,0.90078 c 0.0546,0.0819 0.0819,0.16377 0.10919,0.24566 l 0.21837,1.09185 c 0,0.0273 0,0.0819 0,0.10918 v 29.69822 c 0,0.0546 0,0.10918 0,0.13648 l -0.21837,1.11914 c -0.0273,0.0819 -0.0546,0.16378 -0.10919,0.24567 l -0.60051,0.90077 c -0.0273,0.0546 -0.10919,0.13648 -0.16378,0.16378 l -0.90077,0.60052 c -0.0819,0.0546 -0.16378,0.0819 -0.24567,0.10918 l -1.11914,0.21837 c -0.0273,0 -0.0819,0 -0.13648,0 h -11.3552 c -0.0273,0 -0.0819,0 -0.10919,0 l -1.09184,-0.21837 c -0.0819,-0.0273 -0.16378,-0.0546 -0.24567,-0.10918 l -0.90077,-0.60052 c -0.0546,-0.0273 -0.13648,-0.0819 -0.16378,-0.16378 l -0.62781,-0.90077 c -0.0546,-0.0819 -0.0819,-0.16378 -0.10919,-0.24567 l -0.21837,-1.11914 c 0,-0.0273 -0.0273,-0.0819 -0.0273,-0.13648 z m 1.31021,29.69822 v -0.10918 l 0.21837,1.11914 -0.10918,-0.24567 0.62781,0.90078 -0.16378,-0.19108 0.90078,0.60052 -0.24567,-0.0819 1.09185,0.21837 -0.13648,-0.0273 h 11.3552 l -0.10919,0.0273 1.11915,-0.21837 -0.24567,0.0819 0.90077,-0.60052 -0.19107,0.19108 0.60052,-0.90078 -0.0819,0.24567 0.21837,-1.11914 -0.0273,0.10918 V 91.68758 l 0.0273,0.13648 -0.21837,-1.09184 0.0819,0.24566 -0.60052,-0.90077 0.19107,0.16378 -0.90077,-0.62782 0.24567,0.10919 -1.11915,-0.21837 h 0.10919 -11.3552 0.13648 l -1.09185,0.21837 0.24567,-0.10919 -0.90078,0.62782 0.16378,-0.16378 -0.62781,0.90077 0.10918,-0.24566 -0.21837,1.09184 v -0.13648 z"
       id="path857" />
    <text
       xml:space="preserve"
       style="font-style:normal;font-variant:normal;font-weight:700;font-size:10.4841px;line-height:125%;font-family:'微軟正黑體';text-align:start;letter-spacing:0px;word-spacing:0px;text-anchor:start;fill:#000000;fill-opacity:1;stroke:none;stroke-width:0.264583"
       x="118.67631"
       y="98.46817"
       id="text863"><tspan
         sodipodi:role="line"
         x="118.67631"
         y="98.46817"
         id="tspan861"
         style="stroke-width:0.264583"><tspan
           dx="0"
           dy="0"
           style="font-style:normal;font-variant:normal;font-weight:700;font-size:10.4841px;font-family:'微軟正黑體';fill:#000000;stroke-width:0.264583"
           id="tspan859">5</tspan></tspan></text>
    <path
       style="fill:#ffffff;fill-opacity:1;fill-rule:evenodd;stroke:none;stroke-width:0.264583"
       d="m 235.0239,88.57582 c 0,-1.52859 1.25563,-2.78421 2.78421,-2.78421 0,0 0,0 0,0 v 0 h 11.05494 v 0 c 1.52859,0 2.75692,1.25562 2.75692,2.78421 0,0 0,0 0,0 v 0 29.8347 0 c 0,1.52859 -1.22833,2.75691 -2.75692,2.75691 0,0 0,0 0,0 v 0 h -11.05494 v 0 c -1.52858,0 -2.78421,-1.22832 -2.78421,-2.75691 0,0 0,0 0,0 z"
       id="path865" />
    <path
       style="fill:#321900;fill-opacity:1;fill-rule:nonzero;stroke:#321900;stroke-width:0.0272962px;stroke-linecap:butt;stroke-linejoin:round;stroke-miterlimit:4;stroke-dasharray:none;stroke-opacity:1"
       d="m 234.3688,88.57582 c 0,-0.0273 0.0273,-0.0819 0.0273,-0.10919 l 0.21837,-1.09184 c 0.0273,-0.0819 0.0546,-0.16378 0.10919,-0.24567 l 0.60051,-0.87347 c 0.0273,-0.0819 0.0819,-0.13648 0.16378,-0.16378 l 0.87348,-0.60051 c 0.0819,-0.0546 0.16377,-0.0819 0.24566,-0.10919 l 1.09185,-0.21837 c 0.0273,0 0.0819,-0.0273 0.10918,-0.0273 h 11.05494 c 0.0546,0 0.10919,0.0273 0.13649,0.0273 l 1.06455,0.21837 c 0.0819,0.0273 0.16377,0.0546 0.24566,0.0819 l 0.90078,0.60051 c 0.0546,0.0546 0.13648,0.13649 0.19107,0.19108 l 0.57322,0.87347 c 0.0273,0.0819 0.0546,0.16378 0.0819,0.24567 l 0.21838,1.09184 c 0,0.0273 0,0.0819 0,0.10919 v 29.8347 c 0,0.0546 0,0.10919 0,0.13648 l -0.21838,1.06455 c -0.0273,0.0819 -0.0546,0.16378 -0.0819,0.21837 l -0.57322,0.90077 c -0.0546,0.0819 -0.13648,0.16378 -0.21837,0.21837 l -0.90077,0.57322 c -0.0546,0.0273 -0.13649,0.0546 -0.21837,0.0819 l -1.06455,0.21837 c -0.0273,0 -0.0819,0 -0.13649,0 h -11.05495 c -0.0273,0 -0.0819,0 -0.10918,0 l -1.09185,-0.21837 c -0.0819,-0.0273 -0.16378,-0.0546 -0.24566,-0.0819 l -0.87348,-0.57322 c -0.0546,-0.0546 -0.13648,-0.13648 -0.19108,-0.19107 l -0.60051,-0.90077 c -0.0273,-0.0819 -0.0546,-0.16378 -0.0819,-0.24567 l -0.21837,-1.06455 c 0,-0.0273 -0.0273,-0.0819 -0.0273,-0.13648 z m 1.31021,29.8347 v -0.10919 l 0.21837,1.06456 -0.10918,-0.24567 0.60051,0.90077 -0.16377,-0.19107 0.87347,0.57322 -0.24566,-0.0819 1.09184,0.21837 -0.13648,-0.0273 h 11.05494 l -0.10918,0.0273 1.06455,-0.21837 -0.21837,0.0819 0.90078,-0.57322 -0.21837,0.21837 0.57321,-0.90077 -0.0819,0.21837 0.21837,-1.06456 -0.0273,0.10919 v -29.8347 l 0.0273,0.13648 -0.21837,-1.09185 0.0819,0.24567 -0.57321,-0.87348 0.19107,0.16378 -0.90078,-0.60052 0.24567,0.10919 -1.06455,-0.21837 h 0.10918 -11.05494 0.13648 l -1.09184,0.21837 0.24566,-0.10919 -0.87347,0.60052 0.16377,-0.16378 -0.60051,0.87348 0.10918,-0.24567 -0.21837,1.09185 v -0.13648 z"
       id="path867" />
    <text
       xml:space="preserve"
       style="font-style:normal;font-variant:normal;font-weight:700;font-size:10.4841px;line-height:125%;font-family:'微軟正黑體';text-align:start;letter-spacing:0px;word-spacing:0px;text-anchor:start;fill:#000000;fill-opacity:1;stroke:none;stroke-width:0.264583"
       x="236.59653"
       y="95.192612"
       id="text873"><tspan
         sodipodi:role="line"
         x="236.59653"
         y="95.192612"
         id="tspan871"
         style="stroke-width:0.264583"><tspan
           dx="0"
           dy="0"
           style="font-style:normal;font-variant:normal;font-weight:700;font-size:10.4841px;font-family:'微軟正黑體';fill:#000000;stroke-width:0.264583"
           id="tspan869">4</tspan></tspan></text>
    <path
       style="fill:#ffffff;fill-opacity:1;fill-rule:evenodd;stroke:none;stroke-width:0.264583"
       d="m 235.46064,29.61612 c 0,-1.528585 1.25563,-2.784207 2.78421,-2.784207 0,0 0,0 0,0 v 0 h 11.05494 v 0 c 1.52859,0 2.75691,1.255622 2.75691,2.784207 0,0 0,0 0,0 v 0 29.8347 0 c 0,1.528585 -1.22832,2.756911 -2.75691,2.756911 0,0 0,0 0,0 v 0 h -11.05494 v 0 c -1.52858,0 -2.78421,-1.228326 -2.78421,-2.756911 0,0 0,0 0,0 z"
       id="path875" />
    <path
       style="fill:#321900;fill-opacity:1;fill-rule:nonzero;stroke:#321900;stroke-width:0.0272962px;stroke-linecap:butt;stroke-linejoin:round;stroke-miterlimit:4;stroke-dasharray:none;stroke-opacity:1"
       d="m 234.80553,29.61612 c 0,-0.0273 0.0273,-0.08189 0.0273,-0.109185 l 0.21837,-1.091846 c 0.0273,-0.08189 0.0546,-0.163777 0.10918,-0.245665 l 0.60052,-0.873477 c 0.0273,-0.08189 0.0819,-0.13648 0.16378,-0.163777 l 0.87348,-0.600517 c 0.0819,-0.05459 0.16377,-0.08189 0.24566,-0.109183 l 1.09185,-0.218369 c 0.0273,0 0.0819,-0.0273 0.10918,-0.0273 h 11.05494 c 0.0546,0 0.10919,0.0273 0.13648,0.0273 l 1.06456,0.218369 c 0.0819,0.02729 0.16377,0.05459 0.24566,0.08189 l 0.90077,0.600514 c 0.0546,0.05459 0.13648,0.136482 0.19108,0.191074 l 0.57322,0.873477 c 0.0273,0.08189 0.0546,0.163777 0.0819,0.245665 l 0.21837,1.091846 c 0,0.0273 0,0.08189 0,0.109185 v 29.8347 c 0,0.05459 0,0.109186 0,0.13648 l -0.21837,1.064551 c -0.0273,0.08189 -0.0546,0.163777 -0.0819,0.218369 l -0.57322,0.900774 c -0.0546,0.08189 -0.13648,0.163777 -0.21837,0.218368 l -0.90078,0.57322 c -0.0546,0.0273 -0.13648,0.05459 -0.21836,0.08189 l -1.06456,0.218368 c -0.0273,0 -0.0819,0 -0.13648,0 h -11.05494 c -0.0273,0 -0.0819,0 -0.10918,0 l -1.09185,-0.218368 c -0.0819,-0.0273 -0.16378,-0.05459 -0.24566,-0.08189 l -0.87348,-0.57322 c -0.0546,-0.05459 -0.13648,-0.13648 -0.19108,-0.191071 l -0.60051,-0.900774 c -0.0273,-0.08189 -0.0546,-0.163777 -0.0819,-0.245666 l -0.21837,-1.064551 c 0,-0.02729 -0.0273,-0.08189 -0.0273,-0.13648 z m 1.31022,29.8347 v -0.109185 l 0.21837,1.064551 -0.10918,-0.245666 0.60051,0.900774 -0.16378,-0.191074 0.87348,0.57322 -0.24567,-0.08189 1.09185,0.218369 -0.13648,-0.02729 h 11.05494 l -0.10918,0.02729 1.06455,-0.218369 -0.21837,0.08189 0.90077,-0.57322 -0.21837,0.218368 0.57322,-0.900771 -0.0819,0.218369 0.21836,-1.064551 -0.0273,0.109185 v -29.8347 l 0.0273,0.136481 -0.21836,-1.091846 0.0819,0.245666 -0.57322,-0.873477 0.19108,0.163777 -0.90078,-0.600517 0.24567,0.109186 -1.06455,-0.218372 h 0.10918 -11.05494 0.13648 l -1.09185,0.218372 0.24567,-0.109186 -0.87348,0.600517 0.16378,-0.163777 -0.60051,0.873477 0.10918,-0.245666 -0.21837,1.091846 V 29.61612 Z"
       id="path877" />
    <text
       xml:space="preserve"
       style="font-style:normal;font-variant:normal;font-weight:700;font-size:10.4841px;line-height:125%;font-family:'微軟正黑體';text-align:start;letter-spacing:0px;word-spacing:0px;text-anchor:start;fill:#000000;fill-opacity:1;stroke:none;stroke-width:0.264583"
       x="237.03326"
       y="36.232498"
       id="text883"><tspan
         sodipodi:role="line"
         x="237.03326"
         y="36.232498"
         id="tspan881"
         style="stroke-width:0.264583"><tspan
           dx="0"
           dy="0"
           style="font-style:normal;font-variant:normal;font-weight:700;font-size:10.4841px;font-family:'微軟正黑體';fill:#000000;stroke-width:0.264583"
           id="tspan879">2</tspan></tspan></text>
    <path
       style="fill:#ffffff;fill-opacity:1;fill-rule:evenodd;stroke:none;stroke-width:0.264583"
       d="m 116.66777,29.670712 c 0,-1.55588 1.28292,-2.838799 2.8388,-2.838799 0,0 0,0 0,0 v 0 h 11.3552 v 0 c 1.58318,0 2.8388,1.282919 2.8388,2.838799 0,0 0,0 0,0 v 0 29.69822 0 c 0,1.583176 -1.25562,2.838799 -2.8388,2.838799 0,0 0,0 0,0 v 0 h -11.3552 v 0 c -1.55588,0 -2.8388,-1.255623 -2.8388,-2.838799 0,0 0,0 0,0 z"
       id="path885" />
    <path
       style="fill:#321900;fill-opacity:1;fill-rule:nonzero;stroke:#321900;stroke-width:0.0272962px;stroke-linecap:butt;stroke-linejoin:round;stroke-miterlimit:4;stroke-dasharray:none;stroke-opacity:1"
       d="m 116.01266,29.670712 c 0,-0.0273 0.0273,-0.08189 0.0273,-0.109186 l 0.21837,-1.091845 c 0.0273,-0.08189 0.0546,-0.191072 0.10919,-0.245666 l 0.62781,-0.900771 c 0.0273,-0.08189 0.0819,-0.136483 0.16378,-0.163777 l 0.90077,-0.627814 c 0.0546,-0.05459 0.16378,-0.08189 0.24567,-0.109183 l 1.09184,-0.218369 c 0.0273,0 0.0819,-0.0273 0.10919,-0.0273 h 11.3552 c 0.0546,0 0.10918,0.0273 0.13648,0.0273 l 1.11914,0.218369 c 0.0819,0.02729 0.16378,0.05459 0.24567,0.109183 l 0.90077,0.627814 c 0.0819,0.02729 0.13648,0.109183 0.16378,0.163777 l 0.60051,0.900771 c 0.0546,0.08189 0.0819,0.163777 0.10919,0.245666 l 0.21837,1.091845 c 0,0.0273 0,0.08189 0,0.109186 v 29.69822 c 0,0.05459 0,0.109185 0,0.13648 l -0.21837,1.119142 c -0.0273,0.08189 -0.0546,0.163777 -0.10919,0.245666 l -0.60051,0.900774 c -0.0273,0.05459 -0.10919,0.13648 -0.16378,0.163777 l -0.90077,0.600514 c -0.0819,0.05459 -0.16378,0.08189 -0.24567,0.109186 l -1.11914,0.218368 c -0.0273,0 -0.0819,0 -0.13648,0 h -11.3552 c -0.0273,0 -0.0819,0 -0.10919,0 l -1.09184,-0.218368 c -0.0819,-0.0273 -0.16378,-0.05459 -0.24567,-0.109186 l -0.90077,-0.600514 c -0.0546,-0.0273 -0.13648,-0.08189 -0.16378,-0.163777 l -0.62781,-0.900774 c -0.0546,-0.08189 -0.0819,-0.163777 -0.10919,-0.245666 l -0.21837,-1.119142 c 0,-0.02729 -0.0273,-0.08189 -0.0273,-0.13648 z m 1.31021,29.69822 v -0.109186 l 0.21837,1.119143 -0.10918,-0.245666 0.62781,0.900774 -0.16378,-0.191074 0.90078,0.600517 -0.24567,-0.08189 1.09185,0.218369 -0.13648,-0.02729 h 11.3552 l -0.10919,0.02729 1.11915,-0.218369 -0.24567,0.08189 0.90077,-0.600517 -0.19107,0.191074 0.60052,-0.900774 -0.0819,0.245666 0.21837,-1.119143 -0.0273,0.109186 v -29.69822 l 0.0273,0.13648 -0.21837,-1.091845 0.0819,0.245665 -0.60052,-0.900774 0.19107,0.163777 -0.90077,-0.627811 0.24567,0.109186 -1.11915,-0.218372 h 0.10919 -11.3552 0.13648 l -1.09185,0.218372 0.24567,-0.109186 -0.90078,0.627811 0.16378,-0.163777 -0.62781,0.900774 0.10918,-0.245665 -0.21837,1.091845 v -0.13648 z"
       id="path887" />
    <text
       xml:space="preserve"
       style="font-style:normal;font-variant:normal;font-weight:700;font-size:10.4841px;line-height:125%;font-family:'微軟正黑體';text-align:start;letter-spacing:0px;word-spacing:0px;text-anchor:start;fill:#000000;fill-opacity:1;stroke:none;stroke-width:0.264583"
       x="118.67631"
       y="36.232498"
       id="text893"><tspan
         sodipodi:role="line"
         x="118.67631"
         y="36.232498"
         id="tspan891"
         style="stroke-width:0.264583"><tspan
           dx="0"
           dy="0"
           style="font-style:normal;font-variant:normal;font-weight:700;font-size:10.4841px;font-family:'微軟正黑體';fill:#000000;stroke-width:0.264583"
           id="tspan889">3</tspan></tspan></text>
    <path
       style="fill:#ffffff;fill-opacity:1;fill-rule:evenodd;stroke:none;stroke-width:0.264583"
       d="m 168.85802,231.66228 c -1.55588,0 -2.8388,-1.25562 -2.8388,-2.8388 0,0 0,0 0,0 v 0 -11.3552 0 c 0,-1.55589 1.28292,-2.83881 2.8388,-2.83881 0,0 0,0 0,0 v 0 h 29.69822 v 0 c 1.58318,0 2.8388,1.28292 2.8388,2.83881 0,0 0,0 0,0 v 0 11.3552 0 c 0,1.58318 -1.25562,2.8388 -2.8388,2.8388 0,0 0,0 0,0 z"
       id="path895" />
    <path
       style="fill:#321900;fill-opacity:1;fill-rule:nonzero;stroke:#321900;stroke-width:0.0272962px;stroke-linecap:butt;stroke-linejoin:round;stroke-miterlimit:4;stroke-dasharray:none;stroke-opacity:1"
       d="m 168.85802,232.31739 c -0.0273,0 -0.0819,0 -0.10919,0 l -1.09184,-0.21838 c -0.0819,-0.0273 -0.16378,-0.0546 -0.24567,-0.10918 l -0.90077,-0.60051 c -0.0546,-0.0273 -0.13648,-0.0819 -0.16378,-0.16378 l -0.62781,-0.90077 c -0.0546,-0.0819 -0.0819,-0.16378 -0.10918,-0.24567 l -0.21837,-1.11914 c 0,-0.0273 -0.0273,-0.0819 -0.0273,-0.13648 v -11.3552 c 0,-0.0273 0.0273,-0.0819 0.0273,-0.10919 l 0.21837,-1.09184 c 0.0273,-0.0819 0.0546,-0.19108 0.10918,-0.24567 l 0.62781,-0.90077 c 0.0273,-0.0819 0.0819,-0.13648 0.16378,-0.16378 l 0.90077,-0.62781 c 0.0546,-0.0546 0.16378,-0.0819 0.24567,-0.10919 l 1.09184,-0.21837 c 0.0273,0 0.0819,-0.0273 0.10919,-0.0273 h 29.69822 c 0.0546,0 0.10918,0.0273 0.13648,0.0273 l 1.11914,0.21837 c 0.0819,0.0273 0.16378,0.0546 0.24567,0.10919 l 0.90077,0.62781 c 0.0819,0.0273 0.13648,0.10918 0.16378,0.16378 l 0.60051,0.90077 c 0.0546,0.0819 0.0819,0.16378 0.10919,0.24567 l 0.21837,1.09184 c 0,0.0273 0,0.0819 0,0.10919 v 11.3552 c 0,0.0546 0,0.10918 0,0.13648 l -0.21837,1.11914 c -0.0273,0.0819 -0.0546,0.16378 -0.10919,0.24567 l -0.60051,0.90077 c -0.0273,0.0546 -0.10919,0.13648 -0.16378,0.16378 l -0.90077,0.60051 c -0.0819,0.0546 -0.16378,0.0819 -0.24567,0.10918 l -1.11914,0.21838 c -0.0273,0 -0.0819,0 -0.13648,0 z m 29.69822,-1.31022 -0.10919,0.0273 1.11915,-0.21837 -0.24567,0.0819 0.90077,-0.60051 -0.19107,0.19107 0.60052,-0.90077 -0.0819,0.24567 0.21837,-1.11915 -0.0273,0.10919 v -11.3552 l 0.0273,0.13648 -0.21837,-1.09185 0.0819,0.24567 -0.60052,-0.90078 0.19107,0.16378 -0.90077,-0.62781 0.24567,0.10918 -1.11915,-0.21837 h 0.10919 -29.69822 0.13648 l -1.09185,0.21837 0.24567,-0.10918 -0.90077,0.62781 0.16377,-0.16378 -0.62781,0.90078 0.10919,-0.24567 -0.21837,1.09185 v -0.13648 11.3552 -0.10919 l 0.21837,1.11915 -0.10919,-0.24567 0.62781,0.90077 -0.16377,-0.19107 0.90077,0.60051 -0.24567,-0.0819 1.09185,0.21837 -0.13648,-0.0273 z"
       id="path897" />
    <text
       xml:space="preserve"
       style="font-style:normal;font-variant:normal;font-weight:700;font-size:10.4841px;line-height:125%;font-family:'微軟正黑體';text-align:start;letter-spacing:0px;word-spacing:0px;text-anchor:start;fill:#000000;fill-opacity:1;stroke:none;stroke-width:0.264583"
       x="167.80978"
       y="226.2151"
       id="text903"><tspan
         sodipodi:role="line"
         x="167.80978"
         y="226.2151"
         id="tspan901"
         style="stroke-width:0.264583"><tspan
           dx="0"
           dy="0"
           style="font-style:normal;font-variant:normal;font-weight:700;font-size:10.4841px;font-family:'微軟正黑體';fill:#000000;stroke-width:0.264583"
           id="tspan899">0</tspan></tspan></text>
    <path
       style="fill:#ffffff;fill-opacity:1;fill-rule:evenodd;stroke:none;stroke-width:0.264583"
       d="m 175.62747,-6.5785846 c 0,-1.5558807 1.28292,-2.8388001 2.8388,-2.8388001 0,0 0,0 0,0 v 0 h 11.3552 v 0 c 1.58317,0 2.8388,1.2829194 2.8388,2.8388001 0,0 0,0 0,0 v 0 29.6982186 0 c 0,1.583177 -1.25563,2.838802 -2.8388,2.838802 0,0 0,0 0,0 v 0 h -11.3552 v 0 c -1.55588,0 -2.8388,-1.255625 -2.8388,-2.838802 0,0 0,0 0,0 z"
       id="path905" />
    <path
       style="fill:#321900;fill-opacity:1;fill-rule:nonzero;stroke:#321900;stroke-width:0.0272962px;stroke-linecap:butt;stroke-linejoin:round;stroke-miterlimit:4;stroke-dasharray:none;stroke-opacity:1"
       d="m 174.97236,-6.5785846 c 0,-0.0273 0.0273,-0.08189 0.0273,-0.109184 l 0.21837,-1.0918468 c 0.0273,-0.081888 0.0546,-0.1910731 0.10918,-0.2456654 l 0.62781,-0.9007731 c 0.0273,-0.081889 0.0819,-0.1364809 0.16378,-0.1637769 l 0.90077,-0.6278118 c 0.0546,-0.054592 0.16378,-0.081889 0.24567,-0.1091845 l 1.09184,-0.2183689 c 0.0273,0 0.0819,-0.0273 0.10919,-0.0273 h 11.3552 c 0.0546,0 0.10918,0.0273 0.13648,0.0273 l 1.11914,0.2183689 c 0.0819,0.027296 0.16378,0.054592 0.24567,0.1091845 l 0.90077,0.6278118 c 0.0819,0.027296 0.13648,0.1091846 0.16378,0.1637769 l 0.60051,0.9007731 c 0.0546,0.081889 0.0819,0.1637771 0.10919,0.2456654 l 0.21837,1.0918468 c 0,0.0273 0,0.08189 0,0.109184 V 23.119634 c 0,0.05459 0,0.109186 0,0.136483 l -0.21837,1.119139 c -0.0273,0.08189 -0.0546,0.163778 -0.10919,0.245666 l -0.60051,0.900774 c -0.0273,0.05459 -0.10919,0.13648 -0.16378,0.163777 l -0.90077,0.600517 c -0.0819,0.05459 -0.16378,0.08189 -0.24567,0.109183 l -1.11914,0.218369 c -0.0273,0 -0.0819,0 -0.13648,0 h -11.3552 c -0.0273,0 -0.0819,0 -0.10919,0 l -1.09184,-0.218369 c -0.0819,-0.02729 -0.16378,-0.05459 -0.24567,-0.109183 l -0.90077,-0.600517 c -0.0546,-0.0273 -0.13648,-0.08189 -0.16378,-0.163777 l -0.62781,-0.900774 c -0.0546,-0.08189 -0.0819,-0.163777 -0.10919,-0.245666 l -0.21837,-1.119139 c 0,-0.0273 -0.0273,-0.08189 -0.0273,-0.136483 z m 1.31021,29.6982186 v -0.109183 l 0.21837,1.119142 -0.10918,-0.245665 0.62781,0.900771 -0.16378,-0.191071 0.90078,0.600514 -0.24567,-0.08189 1.09185,0.218372 -0.13648,-0.0273 h 11.3552 l -0.10919,0.0273 1.11915,-0.218372 -0.24567,0.08189 0.90077,-0.600514 -0.19107,0.191071 0.60052,-0.900771 -0.0819,0.245665 0.21837,-1.119142 -0.0273,0.109183 V -6.5785846 l 0.0273,0.136481 -0.21837,-1.0918462 0.0819,0.2456654 -0.60052,-0.9007732 0.19107,0.1637768 -0.90077,-0.6278115 0.24567,0.1091845 -1.11915,-0.2183693 h 0.10919 -11.3552 0.13648 l -1.09185,0.2183693 0.24567,-0.1091845 -0.90078,0.6278115 0.16378,-0.1637768 -0.62781,0.9007732 0.10918,-0.2456654 -0.21837,1.0918462 v -0.136481 z"
       id="path907" />
    <text
       xml:space="preserve"
       style="font-style:normal;font-variant:normal;font-weight:700;font-size:10.4841px;line-height:125%;font-family:'微軟正黑體';text-align:start;letter-spacing:0px;word-spacing:0px;text-anchor:start;fill:#000000;fill-opacity:1;stroke:none;stroke-width:0.264583"
       x="177.63643"
       y="0.20131719"
       id="text913"><tspan
         sodipodi:role="line"
         x="177.63643"
         y="0.20131719"
         id="tspan911"
         style="stroke-width:0.264583"><tspan
           dx="0"
           dy="0"
           style="font-style:normal;font-variant:normal;font-weight:700;font-size:10.4841px;font-family:'微軟正黑體';fill:#000000;stroke-width:0.264583"
           id="tspan909">1</tspan></tspan></text>
    <path
       style="fill:#ffffff;fill-opacity:1;fill-rule:evenodd;stroke:none;stroke-width:0.264583"
       d="m 175.62747,117.89189 c 0,-1.55588 1.28292,-2.8388 2.8388,-2.8388 0,0 0,0 0,0 v 0 h 11.3552 v 0 c 1.58317,0 2.8388,1.28292 2.8388,2.8388 0,0 0,0 0,0 v 0 29.69822 0 c 0,1.58318 -1.25563,2.8388 -2.8388,2.8388 0,0 0,0 0,0 v 0 h -11.3552 v 0 c -1.55588,0 -2.8388,-1.25562 -2.8388,-2.8388 0,0 0,0 0,0 z"
       id="path915" />
    <path
       style="fill:#321900;fill-opacity:1;fill-rule:nonzero;stroke:#321900;stroke-width:0.0272962px;stroke-linecap:butt;stroke-linejoin:round;stroke-miterlimit:4;stroke-dasharray:none;stroke-opacity:1"
       d="m 174.97236,117.89189 c 0,-0.0273 0.0273,-0.0819 0.0273,-0.10918 l 0.21837,-1.09185 c 0.0273,-0.0819 0.0546,-0.19107 0.10918,-0.24566 l 0.62781,-0.90078 c 0.0273,-0.0819 0.0819,-0.13648 0.16378,-0.16377 l 0.90077,-0.62781 c 0.0546,-0.0546 0.16378,-0.0819 0.24567,-0.10919 l 1.09185,-0.21837 c 0.0273,0 0.0819,-0.0273 0.10918,-0.0273 h 11.3552 c 0.0546,0 0.10919,0.0273 0.13648,0.0273 l 1.11914,0.21837 c 0.0819,0.0273 0.16378,0.0546 0.24567,0.10919 l 0.90077,0.62781 c 0.0819,0.0273 0.13648,0.10918 0.16378,0.16377 l 0.60052,0.90078 c 0.0546,0.0819 0.0819,0.16377 0.10918,0.24566 l 0.21837,1.09185 c 0,0.0273 0,0.0819 0,0.10918 v 29.69822 c 0,0.0546 0,0.10919 0,0.13648 l -0.21837,1.11915 c -0.0273,0.0819 -0.0546,0.16377 -0.10918,0.24566 l -0.60052,0.90077 c -0.0273,0.0546 -0.10919,0.13649 -0.16378,0.16378 l -0.90077,0.60052 c -0.0819,0.0546 -0.16378,0.0819 -0.24567,0.10918 l -1.11914,0.21837 c -0.0273,0 -0.0819,0 -0.13648,0 h -11.3552 c -0.0273,0 -0.0819,0 -0.10919,0 l -1.09184,-0.21837 c -0.0819,-0.0273 -0.16378,-0.0546 -0.24567,-0.10918 l -0.90077,-0.60052 c -0.0546,-0.0273 -0.13648,-0.0819 -0.16378,-0.16378 l -0.62781,-0.90077 c -0.0546,-0.0819 -0.0819,-0.16377 -0.10919,-0.24566 l -0.21837,-1.11915 c 0,-0.0273 -0.0273,-0.0819 -0.0273,-0.13648 z m 1.31021,29.69822 v -0.10918 l 0.21837,1.11914 -0.10918,-0.24566 0.62781,0.90077 -0.16378,-0.19107 0.90078,0.60051 -0.24567,-0.0819 1.09185,0.21837 -0.13648,-0.0273 h 11.3552 l -0.10919,0.0273 1.11915,-0.21837 -0.24567,0.0819 0.90077,-0.60051 -0.19107,0.19107 0.60052,-0.90077 -0.0819,0.24566 0.21837,-1.11914 -0.0273,0.10918 v -29.69822 l 0.0273,0.13648 -0.21837,-1.09184 0.0819,0.24566 -0.60052,-0.90077 0.19107,0.16378 -0.90077,-0.62781 0.24567,0.10918 -1.11915,-0.21837 h 0.10919 -11.3552 0.13648 l -1.09185,0.21837 0.24567,-0.10918 -0.90078,0.62781 0.16378,-0.16378 -0.62781,0.90077 0.10918,-0.24566 -0.21837,1.09184 v -0.13648 z"
       id="path917" />
    <text
       xml:space="preserve"
       style="font-style:normal;font-variant:normal;font-weight:700;font-size:10.4841px;line-height:125%;font-family:'微軟正黑體';text-align:start;letter-spacing:0px;word-spacing:0px;text-anchor:start;fill:#000000;fill-opacity:1;stroke:none;stroke-width:0.264583"
       x="177.63643"
       y="124.67266"
       id="text923"><tspan
         sodipodi:role="line"
         x="177.63643"
         y="124.67266"
         id="tspan921"
         style="stroke-width:0.264583"><tspan
           dx="0"
           dy="0"
           style="font-style:normal;font-variant:normal;font-weight:700;font-size:10.4841px;font-family:'微軟正黑體';fill:#000000;stroke-width:0.264583"
           id="tspan919">6</tspan></tspan></text>
    <path
       style="fill:#ffffff;fill-opacity:1;fill-rule:evenodd;stroke:none;stroke-width:0.264583"
       d="m 235.0239,150.59269 c 0,-1.52858 1.25563,-2.78421 2.78421,-2.78421 0,0 0,0 0,0 v 0 h 11.05494 v 0 c 1.52859,0 2.75692,1.25563 2.75692,2.78421 0,0 0,0 0,0 v 0 29.8347 0 c 0,1.52859 -1.22833,2.75691 -2.75692,2.75691 0,0 0,0 0,0 v 0 h -11.05494 v 0 c -1.52858,0 -2.78421,-1.22832 -2.78421,-2.75691 0,0 0,0 0,0 z"
       id="path925" />
    <path
       style="fill:#321900;fill-opacity:1;fill-rule:nonzero;stroke:#321900;stroke-width:0.0272962px;stroke-linecap:butt;stroke-linejoin:round;stroke-miterlimit:4;stroke-dasharray:none;stroke-opacity:1"
       d="m 234.3688,150.59269 c 0,-0.0273 0.0273,-0.0819 0.0273,-0.10919 l 0.21837,-1.09184 c 0.0273,-0.0819 0.0546,-0.16378 0.10919,-0.24567 l 0.60051,-0.87347 c 0.0273,-0.0819 0.0819,-0.13648 0.16378,-0.16378 l 0.87348,-0.60052 c 0.0819,-0.0546 0.16377,-0.0819 0.24566,-0.10918 l 1.09185,-0.21837 c 0.0273,0 0.0819,-0.0273 0.10918,-0.0273 h 11.05494 c 0.0546,0 0.10919,0.0273 0.13649,0.0273 l 1.06455,0.21837 c 0.0819,0.0273 0.16377,0.0546 0.24566,0.0819 l 0.90078,0.60051 c 0.0546,0.0546 0.13648,0.13649 0.19107,0.19108 l 0.57322,0.87347 c 0.0273,0.0819 0.0546,0.16378 0.0819,0.24567 l 0.21838,1.09184 c 0,0.0273 0,0.0819 0,0.10919 v 29.8347 c 0,0.0546 0,0.10919 0,0.13648 l -0.21838,1.06455 c -0.0273,0.0819 -0.0546,0.16378 -0.0819,0.21837 l -0.57322,0.90077 c -0.0546,0.0819 -0.13648,0.16378 -0.21837,0.21837 l -0.90077,0.57322 c -0.0546,0.0273 -0.13649,0.0546 -0.21837,0.0819 l -1.06455,0.21837 c -0.0273,0 -0.0819,0 -0.13649,0 h -11.05495 c -0.0273,0 -0.0819,0 -0.10918,0 l -1.09185,-0.21837 c -0.0819,-0.0273 -0.16378,-0.0546 -0.24566,-0.0819 l -0.87348,-0.57322 c -0.0546,-0.0546 -0.13648,-0.13648 -0.19108,-0.19107 l -0.60051,-0.90077 c -0.0273,-0.0819 -0.0546,-0.16378 -0.0819,-0.24567 l -0.21837,-1.06455 c 0,-0.0273 -0.0273,-0.0819 -0.0273,-0.13648 z m 1.31021,29.8347 v -0.10919 l 0.21837,1.06456 -0.10918,-0.24567 0.60051,0.90077 -0.16377,-0.19107 0.87347,0.57322 -0.24566,-0.0819 1.09184,0.21837 -0.13648,-0.0273 h 11.05494 l -0.10918,0.0273 1.06455,-0.21837 -0.21837,0.0819 0.90078,-0.57322 -0.21837,0.21837 0.57321,-0.90077 -0.0819,0.21837 0.21837,-1.06456 -0.0273,0.10919 v -29.8347 l 0.0273,0.13648 -0.21837,-1.09185 0.0819,0.24567 -0.57321,-0.87348 0.19107,0.16378 -0.90078,-0.60052 0.24567,0.10919 -1.06455,-0.21837 h 0.10918 -11.05494 0.13648 l -1.09184,0.21837 0.24566,-0.10919 -0.87347,0.60052 0.16377,-0.16378 -0.60051,0.87348 0.10918,-0.24567 -0.21837,1.09185 v -0.13648 z"
       id="path927" />
    <text
       xml:space="preserve"
       style="font-style:normal;font-variant:normal;font-weight:700;font-size:10.4841px;line-height:125%;font-family:'微軟正黑體';text-align:start;letter-spacing:0px;word-spacing:0px;text-anchor:start;fill:#000000;fill-opacity:1;stroke:none;stroke-width:0.264583"
       x="236.59653"
       y="157.42828"
       id="text933"><tspan
         sodipodi:role="line"
         x="236.59653"
         y="157.42828"
         id="tspan931"
         style="stroke-width:0.264583"><tspan
           dx="0"
           dy="0"
           style="font-style:normal;font-variant:normal;font-weight:700;font-size:10.4841px;font-family:'微軟正黑體';fill:#000000;stroke-width:0.264583"
           id="tspan929">7</tspan></tspan></text>
    <path
       style="fill:#ffffff;fill-opacity:1;fill-rule:evenodd;stroke:none;stroke-width:0.264583"
       d="m 116.66777,150.64728 c 0,-1.55588 1.28292,-2.8388 2.8388,-2.8388 0,0 0,0 0,0 v 0 h 11.3552 v 0 c 1.58318,0 2.8388,1.28292 2.8388,2.8388 0,0 0,0 0,0 v 0 29.69822 0 c 0,1.58318 -1.25562,2.8388 -2.8388,2.8388 0,0 0,0 0,0 v 0 h -11.3552 v 0 c -1.55588,0 -2.8388,-1.25562 -2.8388,-2.8388 0,0 0,0 0,0 z"
       id="path935" />
    <path
       style="fill:#321900;fill-opacity:1;fill-rule:nonzero;stroke:#321900;stroke-width:0.0272962px;stroke-linecap:butt;stroke-linejoin:round;stroke-miterlimit:4;stroke-dasharray:none;stroke-opacity:1"
       d="m 116.01266,150.64728 c 0,-0.0273 0.0273,-0.0819 0.0273,-0.10918 l 0.21837,-1.09185 c 0.0273,-0.0819 0.0546,-0.19107 0.10919,-0.24566 l 0.62781,-0.90078 c 0.0273,-0.0819 0.0819,-0.13648 0.16378,-0.16377 l 0.90077,-0.62782 c 0.0546,-0.0546 0.16378,-0.0819 0.24567,-0.10918 l 1.09184,-0.21837 c 0.0273,0 0.0819,-0.0273 0.10919,-0.0273 h 11.3552 c 0.0546,0 0.10918,0.0273 0.13648,0.0273 l 1.11914,0.21837 c 0.0819,0.0273 0.16378,0.0546 0.24567,0.10918 l 0.90077,0.62782 c 0.0819,0.0273 0.13648,0.10918 0.16378,0.16377 l 0.60051,0.90078 c 0.0546,0.0819 0.0819,0.16377 0.10919,0.24566 l 0.21837,1.09185 c 0,0.0273 0,0.0819 0,0.10918 v 29.69822 c 0,0.0546 0,0.10919 0,0.13648 l -0.21837,1.11914 c -0.0273,0.0819 -0.0546,0.16378 -0.10919,0.24567 l -0.60051,0.90077 c -0.0273,0.0546 -0.10919,0.13648 -0.16378,0.16378 l -0.90077,0.60052 c -0.0819,0.0546 -0.16378,0.0819 -0.24567,0.10918 l -1.11914,0.21837 c -0.0273,0 -0.0819,0 -0.13648,0 h -11.3552 c -0.0273,0 -0.0819,0 -0.10919,0 l -1.09184,-0.21837 c -0.0819,-0.0273 -0.16378,-0.0546 -0.24567,-0.10918 l -0.90077,-0.60052 c -0.0546,-0.0273 -0.13648,-0.0819 -0.16378,-0.16378 l -0.62781,-0.90077 c -0.0546,-0.0819 -0.0819,-0.16378 -0.10919,-0.24567 l -0.21837,-1.11914 c 0,-0.0273 -0.0273,-0.0819 -0.0273,-0.13648 z m 1.31021,29.69822 v -0.10918 l 0.21837,1.11914 -0.10918,-0.24567 0.62781,0.90078 -0.16378,-0.19108 0.90078,0.60052 -0.24567,-0.0819 1.09185,0.21837 -0.13648,-0.0273 h 11.3552 l -0.10919,0.0273 1.11915,-0.21837 -0.24567,0.0819 0.90077,-0.60052 -0.19107,0.19108 0.60052,-0.90078 -0.0819,0.24567 0.21837,-1.11914 -0.0273,0.10918 v -29.69822 l 0.0273,0.13648 -0.21837,-1.09184 0.0819,0.24566 -0.60052,-0.90077 0.19107,0.16378 -0.90077,-0.62782 0.24567,0.10919 -1.11915,-0.21837 h 0.10919 -11.3552 0.13648 l -1.09185,0.21837 0.24567,-0.10919 -0.90078,0.62782 0.16378,-0.16378 -0.62781,0.90077 0.10918,-0.24566 -0.21837,1.09184 v -0.13648 z"
       id="path937" />
    <text
       xml:space="preserve"
       style="font-style:normal;font-variant:normal;font-weight:700;font-size:10.4841px;line-height:125%;font-family:'微軟正黑體';text-align:start;letter-spacing:0px;word-spacing:0px;text-anchor:start;fill:#000000;fill-opacity:1;stroke:none;stroke-width:0.264583"
       x="118.67631"
       y="157.42828"
       id="text943"><tspan
         sodipodi:role="line"
         x="118.67631"
         y="157.42828"
         id="tspan941"
         style="stroke-width:0.264583"><tspan
           dx="0"
           dy="0"
           style="font-style:normal;font-variant:normal;font-weight:700;font-size:10.4841px;font-family:'微軟正黑體';fill:#000000;stroke-width:0.264583"
           id="tspan939">8</tspan></tspan></text>
    <path
       style="fill:#ffffff;fill-opacity:1;fill-rule:evenodd;stroke:none;stroke-width:0.264583"
       d="m 175.62747,176.85159 c 0,-1.55588 1.28292,-2.8388 2.8388,-2.8388 0,0 0,0 0,0 v 0 h 11.3552 v 0 c 1.58317,0 2.8388,1.28292 2.8388,2.8388 0,0 0,0 0,0 v 0 29.69822 0 c 0,1.58318 -1.25563,2.8388 -2.8388,2.8388 0,0 0,0 0,0 v 0 h -11.3552 v 0 c -1.55588,0 -2.8388,-1.25562 -2.8388,-2.8388 0,0 0,0 0,0 z"
       id="path945" />
    <path
       style="fill:#321900;fill-opacity:1;fill-rule:nonzero;stroke:#321900;stroke-width:0.0272962px;stroke-linecap:butt;stroke-linejoin:round;stroke-miterlimit:4;stroke-dasharray:none;stroke-opacity:1"
       d="m 174.97236,176.85159 c 0,-0.0273 0.0273,-0.0819 0.0273,-0.10918 l 0.21837,-1.09185 c 0.0273,-0.0819 0.0546,-0.19107 0.10918,-0.24566 l 0.62781,-0.90078 c 0.0273,-0.0819 0.0819,-0.13648 0.16378,-0.16377 l 0.90077,-0.62781 c 0.0546,-0.0546 0.16378,-0.0819 0.24567,-0.10919 l 1.09185,-0.21837 c 0.0273,0 0.0819,-0.0273 0.10918,-0.0273 h 11.3552 c 0.0546,0 0.10919,0.0273 0.13648,0.0273 l 1.11914,0.21837 c 0.0819,0.0273 0.16378,0.0546 0.24567,0.10919 l 0.90077,0.62781 c 0.0819,0.0273 0.13648,0.10918 0.16378,0.16377 l 0.60052,0.90078 c 0.0546,0.0819 0.0819,0.16377 0.10918,0.24566 l 0.21837,1.09185 c 0,0.0273 0,0.0819 0,0.10918 v 29.69822 c 0,0.0546 0,0.10919 0,0.13648 l -0.21837,1.11915 c -0.0273,0.0819 -0.0546,0.16377 -0.10918,0.24566 l -0.60052,0.90077 c -0.0273,0.0546 -0.10919,0.13649 -0.16378,0.16378 l -0.90077,0.60052 c -0.0819,0.0546 -0.16378,0.0819 -0.24567,0.10918 l -1.11914,0.21837 c -0.0273,0 -0.0819,0 -0.13648,0 h -11.3552 c -0.0273,0 -0.0819,0 -0.10919,0 l -1.09184,-0.21837 c -0.0819,-0.0273 -0.16378,-0.0546 -0.24567,-0.10918 l -0.90077,-0.60052 c -0.0546,-0.0273 -0.13648,-0.0819 -0.16378,-0.16378 l -0.62781,-0.90077 c -0.0546,-0.0819 -0.0819,-0.16378 -0.10919,-0.24566 l -0.21837,-1.11915 c 0,-0.0273 -0.0273,-0.0819 -0.0273,-0.13648 z m 1.31021,29.69822 v -0.10918 l 0.21837,1.11914 -0.10918,-0.24566 0.62781,0.90077 -0.16378,-0.19108 0.90078,0.60052 -0.24567,-0.0819 1.09185,0.21837 -0.13648,-0.0273 h 11.3552 l -0.10919,0.0273 1.11915,-0.21837 -0.24567,0.0819 0.90077,-0.60052 -0.19107,0.19108 0.60052,-0.90077 -0.0819,0.24566 0.21837,-1.11914 -0.0273,0.10918 v -29.69822 l 0.0273,0.13648 -0.21837,-1.09184 0.0819,0.24566 -0.60052,-0.90077 0.19107,0.16378 -0.90077,-0.62781 0.24567,0.10918 -1.11915,-0.21837 h 0.10919 -11.3552 0.13648 l -1.09185,0.21837 0.24567,-0.10918 -0.90078,0.62781 0.16378,-0.16378 -0.62781,0.90077 0.10918,-0.24566 -0.21837,1.09184 v -0.13648 z"
       id="path947" />
    <text
       xml:space="preserve"
       style="font-style:normal;font-variant:normal;font-weight:700;font-size:10.4841px;line-height:125%;font-family:'微軟正黑體';text-align:start;letter-spacing:0px;word-spacing:0px;text-anchor:start;fill:#000000;fill-opacity:1;stroke:none;stroke-width:0.264583"
       x="177.63643"
       y="183.63278"
       id="text953"><tspan
         sodipodi:role="line"
         x="177.63643"
         y="183.63278"
         id="tspan951"
         style="stroke-width:0.264583"><tspan
           dx="0"
           dy="0"
           style="font-style:normal;font-variant:normal;font-weight:700;font-size:10.4841px;font-family:'微軟正黑體';fill:#000000;stroke-width:0.264583"
           id="tspan949">9</tspan></tspan></text>
  </g>
</svg>
