<?xml version="1.0" encoding="UTF-8" standalone="no"?>
<!-- Created with Inkscape (http://www.inkscape.org/) -->

<svg
   width="278.43445mm"
   height="277.99771mm"
   viewBox="0 0 278.43444 277.9977"
   version="1.1"
   id="svg5"
   inkscape:version="1.1 (c68e22c387, 2021-05-23)"
   sodipodi:docname="Boundary1.svg"
   xmlns:inkscape="http://www.inkscape.org/namespaces/inkscape"
   xmlns:sodipodi="http://sodipodi.sourceforge.net/DTD/sodipodi-0.dtd"
   xmlns="http://www.w3.org/2000/svg"
   xmlns:svg="http://www.w3.org/2000/svg">
  <sodipodi:namedview
     id="namedview7"
     pagecolor="#ffffff"
     bordercolor="#666666"
     borderopacity="1.0"
     inkscape:pageshadow="2"
     inkscape:pageopacity="0.0"
     inkscape:pagecheckerboard="0"
     inkscape:document-units="mm"
     showgrid="false"
     fit-margin-top="0"
     fit-margin-left="0"
     fit-margin-right="0"
     fit-margin-bottom="0"
     inkscape:zoom="0.26191077"
     inkscape:cx="456.26225"
     inkscape:cy="330.26515"
     inkscape:window-width="1288"
     inkscape:window-height="745"
     inkscape:window-x="-8"
     inkscape:window-y="-8"
     inkscape:window-maximized="1"
     inkscape:current-layer="layer1" />
  <defs
     id="defs2">
    <pattern
       id="EMFhbasepattern"
       patternUnits="userSpaceOnUse"
       width="6"
       height="6"
       x="0"
       y="0" />
    <pattern
       id="EMFhbasepattern-2"
       patternUnits="userSpaceOnUse"
       width="6"
       height="6"
       x="0"
       y="0" />
    <pattern
       id="EMFhbasepattern-4"
       patternUnits="userSpaceOnUse"
       width="6"
       height="6"
       x="0"
       y="0" />
    <pattern
       id="EMFhbasepattern-9"
       patternUnits="userSpaceOnUse"
       width="6"
       height="6"
       x="0"
       y="0" />
    <pattern
       id="EMFhbasepattern-23"
       patternUnits="userSpaceOnUse"
       width="6"
       height="6"
       x="0"
       y="0" />
    <pattern
       id="EMFhbasepattern-8"
       patternUnits="userSpaceOnUse"
       width="6"
       height="6"
       x="0"
       y="0" />
    <pattern
       id="EMFhbasepattern-5"
       patternUnits="userSpaceOnUse"
       width="6"
       height="6"
       x="0"
       y="0" />
  </defs>
  <g
     inkscape:label="圖層 1"
     inkscape:groupmode="layer"
     id="layer1"
     transform="translate(24.555021,-132.91227)">
    <path
       style="fill:#0070c0;fill-opacity:1;fill-rule:nonzero;stroke:#0070c0;stroke-width:0.0272962px;stroke-linecap:butt;stroke-linejoin:round;stroke-miterlimit:4;stroke-dasharray:none;stroke-opacity:1"
       d="m -24.336661,272.06808 0.19108,-7.1516 0.54592,-7.04241 0.87348,-6.96052 1.22833,-6.85133 1.55588,-6.68756 1.85613,-6.63297 2.1837,-6.44189 2.51124,-6.30541 2.78421,-6.14164 3.0571697,-5.97786 3.35743,-5.84137 3.60309001,-5.62301 3.87605999,-5.43194 4.14901,-5.26816 4.3673903,-5.04978 4.61305,-4.83142 4.80412,-4.58576 5.04979,-4.36738 5.26816,-4.12172 5.45923,-3.87606 5.65031,-3.60309 5.78678,-3.35743 6.03245,-3.05717 6.14164,-2.78421 6.3327,-2.48395 6.4419,-2.21099 6.63296,-1.85613 6.71486,-1.55588 6.82404,-1.22833 6.960521,-0.87348 7.0697,-0.54592 7.1516,-0.19108 7.17889,0.19108 7.0424,0.54592 6.96053,0.87348 6.85133,1.20103 6.74215,1.58318 6.60567,1.85613 6.46919,2.1837 6.30541,2.48395 6.16893,2.7842 5.97786,3.05718 5.84138,3.35742 5.62301,3.6031 5.45923,3.84875 5.26816,4.14902 5.04979,4.34009 4.85871,4.61305 4.58576,4.80412 4.36738,5.04979 4.12172,5.26816 3.87606,5.43194 3.63038,5.6503 3.35743,5.78678 3.05718,6.00516 2.78421,6.14164 2.51124,6.30541 2.18369,6.44189 1.88343,6.57838 1.52858,6.74215 1.25563,6.82404 0.87347,6.96052 0.51864,7.04241 0.19108,7.15159 -0.19108,7.15159 -0.51864,7.04241 -0.87347,6.96052 -1.22833,6.85134 -1.55588,6.71485 -1.85613,6.60567 -2.18368,6.44189 -2.51127,6.30541 -2.78421,6.14164 -3.05716,6.00516 -3.35743,5.81408 -3.60309,5.62301 -3.87605,5.45923 -4.14902,5.24086 -4.34009,5.04979 -4.64035,4.83142 -4.80412,4.58575 -5.04979,4.36739 -5.26816,4.12172 -5.45923,3.87604 -5.62301,3.6031 -5.84137,3.35743 -5.97786,3.05718 -6.16893,2.78421 -6.30542,2.48393 -6.46919,2.18371 -6.57837,1.88341 -6.76945,1.55589 -6.82404,1.22833 -6.98781,0.87349 -7.04241,0.51861 -7.1516,0.19108 -7.17888,-0.19108 -7.04241,-0.51861 -6.987821,-0.87349 -6.82404,-1.20103 -6.71485,-1.58319 -6.63297,-1.85613 -6.44189,-2.18368 -6.33271,-2.48396 -6.14164,-2.78421 -6.00515,-3.05716 -5.84138,-3.35743 -5.62301,-3.60309 -5.45923,-3.84876 -5.26816,-4.14902 -5.04979,-4.34008 -4.83142,-4.61305 -4.58575,-4.80413 -4.3946803,-5.04979 -4.12172,-5.24086 -3.90334999,-5.45923 -3.60310001,-5.62301 -3.35742,-5.81408 -3.0571697,-6.00516 -2.78421,-6.14163 -2.51125,-6.30541 -2.18369,-6.4419 -1.88343,-6.57837 -1.55588,-6.74215 -1.22833,-6.82404 -0.87348,-6.98782 -0.54592,-7.04241 z m 2.78421,6.93322 0.54593,6.90593 0.87347,6.85133 1.17374,6.71486 1.55588,6.57837 1.82884,6.46919 2.1291,6.33271 2.45666,6.19623 2.7296097,6.03245 3.00258,5.86867 3.30284,5.7322 3.54849,5.51382 3.79417,5.35005 4.06713,5.13167 4.2854903,4.94061 4.53117,4.74953 4.72223,4.50387 4.94061,4.28549 5.15897,4.03983 5.35005,3.79416 5.54112,3.54852 5.70489,3.30282 5.89598,3.00259 6.03244,2.72961 6.22353,2.42935 6.33271,2.1291 6.46919,1.85616 6.60567,1.52857 6.68756,1.20103 6.851331,0.87347 6.93322,0.49133 7.01512,0.19108 7.04241,-0.16378 6.90592,-0.51863 6.85134,-0.87347 6.71485,-1.17372 6.60567,-1.55588 6.46919,-1.82886 6.36001,-2.1291 6.19622,-2.42935 6.05975,-2.72963 5.86868,-3.00257 5.73219,-3.30284 5.51382,-3.54849 5.35005,-3.76687 5.15897,-4.06713 4.94061,-4.2582 4.74953,-4.53116 4.53116,-4.72224 4.2855,-4.9406 4.03983,-5.13168 3.82146,-5.35005 3.54851,-5.54112 3.30282,-5.6776 3.0026,-5.89597 2.7296,-6.03245 2.45665,-6.19623 2.12911,-6.33271 1.85613,-6.44189 1.5013,-6.60567 1.22832,-6.71485 0.87347,-6.82404 0.49133,-6.93323 0.19109,-6.98781 -0.16378,-7.04241 -0.51864,-6.90593 -0.87347,-6.82404 -1.20102,-6.71486 -1.5286,-6.57837 -1.82883,-6.46919 -2.1291,-6.33271 -2.45666,-6.19622 -2.72962,-6.03245 -3.00258,-5.86868 -3.30284,-5.70489 -3.54849,-5.54113 -3.79417,-5.32275 -4.06712,-5.15897 -4.25821,-4.94061 -4.53116,-4.74953 -4.74953,-4.50386 -4.9406,-4.2855 -5.15898,-4.03983 -5.35004,-3.79417 -5.51383,-3.54849 -5.73219,-3.30284 -5.86867,-3.00258 -6.05975,-2.72961 -6.19623,-2.42936 -6.36,-2.1291 -6.4419,-1.85614 -6.63296,-1.52859 -6.71486,-1.20103 -6.82404,-0.87347 -6.93322,-0.51863 -7.01512,-0.19107 -7.0424,0.16377 -6.93323,0.54593 -6.824041,0.87347 -6.71485,1.17374 -6.60567,1.55588 -6.46919,1.80155 -6.33271,2.15639 -6.22352,2.42936 -6.03245,2.72962 -5.89597,3.00257 -5.7049,3.30284 -5.54112,3.5485 -5.35005,3.76687 -5.15897,4.06712 -4.94061,4.25821 -4.74953,4.53116 -4.50386,4.72223 -4.3128003,4.94061 -4.03983,5.15897 -3.82146,5.32275 -3.5485,5.54112 -3.30283,5.7049 -3.00258,5.86867 -2.7296197,6.03245 -2.45665,6.19623 -2.1291,6.33271 -1.85614,6.46919 -1.50129,6.57837 -1.22833,6.74216 -0.87347,6.79674 -0.51863,6.93322 -0.19107,6.98782 z"
       id="path2799" />
    <path
       style="fill:#0070c0;fill-opacity:1;fill-rule:nonzero;stroke:#0070c0;stroke-width:0.0272962px;stroke-linecap:butt;stroke-linejoin:round;stroke-miterlimit:4;stroke-dasharray:none;stroke-opacity:1"
       d="m 0.12069871,275.56198 0.13648,-5.89597 0.46404,-5.81408 0.73698999,-5.73219 0.98267,-5.62301 1.31021,-5.54112 1.52859,-5.43193 1.80154,-5.32276 2.04721,-5.18627 2.2928803,-5.04978 2.53854,-4.94061 2.75692,-4.80412 2.97528,-4.64035 3.19365,-4.47657 3.41202,-4.34009 3.60309,-4.14901 3.79417,-3.98524 3.95794,-3.76687 4.17631,-3.63039 4.34009,-3.38472 4.50387,-3.19365 4.64034,-2.97529 4.80413,-2.75691 4.9406,-2.51124 5.07709,-2.29288 5.18627,-2.04721 5.32275,-1.82885 5.43193,-1.55588 5.56842,-1.25562 5.62301,-1.00996 5.732191,-0.737 5.84138,-0.43673 5.89597,-0.16378 5.92326,0.13648 5.81408,0.46403 5.75949,0.737 5.62301,0.98266 5.54112,1.31022 5.43194,1.50129 5.35004,1.82884 5.21357,2.04721 5.04979,2.29288 4.9406,2.51125 4.80413,2.75691 4.66764,2.97528 4.50387,3.16635 4.31279,3.41202 4.17631,3.60309 3.98524,3.79417 3.79417,3.95794 3.60309,4.14902 3.38472,4.34009 3.19365,4.47657 3.00258,4.64035 2.75691,4.80412 2.53855,4.9406 2.29287,5.04979 2.04721,5.18627 1.80155,5.32275 1.55588,5.43194 1.28293,5.51382 1.00994,5.65031 0.737,5.70489 0.43675,5.84138 0.13647,5.86868 -0.13647,5.89597 -0.43675,5.81408 -0.737,5.73219 -0.98266,5.62301 -1.31021,5.54112 -1.52858,5.43194 -1.80155,5.32275 -2.04721,5.18627 -2.29288,5.07708 -2.53854,4.9406 -2.75691,4.77683 -2.97528,4.64035 -3.19366,4.50387 -3.41201,4.31279 -3.5758,4.14901 -3.82146,3.98524 -3.95795,3.79417 -4.17631,3.60309 -4.31279,3.38473 -4.50387,3.19365 -4.66764,2.97528 -4.80412,2.75691 -4.94061,2.51125 -5.04979,2.29287 -5.21356,2.04721 -5.32275,1.82886 -5.45924,1.52858 -5.54111,1.28291 -5.62301,1.00997 -5.75949,0.70969 -5.81409,0.43675 -5.89597,0.16377 -5.92326,-0.1365 -5.81408,-0.43672 -5.732201,-0.73699 -5.6503,-0.98267 -5.54112,-1.28294 -5.45923,-1.52857 -5.32275,-1.80154 -5.18627,-2.07451 -5.07709,-2.29288 -4.9406,-2.51124 -4.80413,-2.75692 -4.64034,-2.97528 -4.50387,-3.16635 -4.34009,-3.41202 -4.17631,-3.5758 -3.98524,-3.82146 -3.76687,-3.95794 -3.63039,-4.14902 -3.38472,-4.34009 -3.22095,-4.47657 -2.97528,-4.64035 -2.75691,-4.80412 -2.53854,-4.88601 -2.2928803,-5.10438 -2.04721,-5.18627 -1.82884,-5.32275 -1.52859,-5.43194 -1.28292,-5.54112 -1.00996,-5.62301 -0.73698999,-5.73219 -0.43674,-5.81408 z m 2.75690999,5.67761 0.43674,5.6503 0.737,5.62301 0.95536,5.51382 1.28292,5.40464 1.474,5.29546 1.77425,5.21356 1.9926203,5.07709 2.23828,4.9406 2.48395,4.83142 2.70232,4.69494 2.89339,4.53116 3.13906,4.36739 3.33013,4.2309 3.52121,4.03983 3.71228,3.90335 3.87605,3.71228 4.06713,3.52121 4.2309,3.30283 4.39468,3.11176 4.53116,2.92069 4.69494,2.70232 4.83142,2.45666 4.9679,2.23828 5.07709,2.01992 5.21357,1.74695 5.29545,1.52859 5.43193,1.22833 5.54113,0.98264 5.568411,0.737 5.7049,0.40944 5.75949,0.1365 5.78678,-0.1365 5.7049,-0.43672 5.59571,-0.70972 5.51383,-0.95536 5.43193,-1.28291 5.29546,-1.47399 5.21356,-1.77425 5.10438,-1.99262 4.94061,-2.23829 4.83142,-2.45665 4.69494,-2.70232 4.55845,-2.92069 4.39469,-3.08447 4.2036,-3.33013 4.06713,-3.49391 3.90335,-3.73957 3.71228,-3.87606 3.5212,-4.03983 3.30284,-4.2036 3.13906,-4.39468 2.92069,-4.53117 2.70231,-4.72223 2.48396,-4.77683 2.23828,-4.9679 1.99262,-5.07708 1.74695,-5.21357 1.52859,-5.26816 1.25562,-5.43194 0.98266,-5.51382 0.737,-5.56842 0.40944,-5.70489 0.13648,-5.7322 -0.10918,-5.75949 -0.43674,-5.6776 -0.737,-5.59571 -0.95536,-5.51382 -1.28292,-5.37734 -1.50129,-5.32275 -1.74695,-5.21357 -1.99262,-5.07709 -2.23829,-4.9406 -2.48395,-4.83142 -2.70232,-4.69494 -2.92069,-4.53116 -3.11176,-4.36739 -3.33013,-4.2309 -3.49391,-4.03983 -3.73957,-3.90335 -3.87606,-3.68499 -4.06712,-3.54849 -4.20361,-3.30284 -4.39468,-3.11176 -4.55846,-2.92069 -4.69494,-2.70232 -4.83142,-2.45666 -4.9406,-2.23828 -5.10439,-1.99262 -5.18627,-1.77425 -5.32275,-1.50129 -5.43193,-1.25562 -5.51383,-0.98266 -5.59571,-0.737 -5.7049,-0.43674 -5.75949,-0.13648 -5.78678,0.13648 -5.6776,0.43674 -5.623011,0.737 -5.51382,0.95536 -5.40464,1.25563 -5.32275,1.50128 -5.21357,1.77425 -5.07708,1.99262 -4.96791,2.23829 -4.83141,2.45665 -4.69494,2.70232 -4.53117,2.92069 -4.39468,3.08447 -4.2309,3.33013 -4.06713,3.5212 -3.90335,3.71228 -3.68498,3.87605 -3.5485,4.03984 -3.33013,4.2309 -3.11176,4.36739 -2.92069,4.53116 -2.70232,4.69494 -2.48395,4.83142 -2.23829,4.9406 -1.9926203,5.07709 -1.74695,5.21356 -1.52859,5.29546 -1.25562,5.40463 -0.98266,5.51383 -0.737,5.56842 -0.43674,5.70489 -0.13648,5.7322 z"
       id="path2801" />
    <text
       xml:space="preserve"
       style="font-style:normal;font-variant:normal;font-weight:700;font-size:13.9733px;line-height:125%;font-family:'微軟正黑體';text-align:start;letter-spacing:0px;word-spacing:0px;text-anchor:start;fill:#000000;fill-opacity:1;stroke:none;stroke-width:0.264583"
       x="89.571236"
       y="153.77676"
       id="text2807"><tspan
         sodipodi:role="line"
         x="89.571236"
         y="153.77676"
         id="tspan2805"
         style="stroke-width:0.264583"><tspan
           dx="0"
           dy="0"
           style="font-style:normal;font-variant:normal;font-weight:700;font-size:13.9733px;font-family:'微軟正黑體';fill:#0070c0;stroke-width:0.264583"
           id="tspan2803">特殊層</tspan></tspan></text>
    <path
       style="fill:#ceb966;fill-opacity:1;fill-rule:evenodd;stroke:none;stroke-width:0.264583"
       d="m 88.996989,234.67234 -20.08997,21.18182 v -13.70267 0 c -35.45771,3.84876 -60.2699203,17.36035 -60.2699203,32.83727 v 0 -12.7473 0 c 0,-15.47692 24.8122103,-28.98852 60.2699203,-32.86457 v 0 -13.70267 z"
       id="path2809" />
    <path
       style="fill:#a69552;fill-opacity:1;fill-rule:evenodd;stroke:none;stroke-width:0.264583"
       d="m 10.083799,268.62876 c 7.23348,15.99555 40.37102,27.54182 78.91319,27.54182 v 0 12.74731 0 c -44.35625,0 -80.3598903,-15.17667 -80.3598903,-33.92913 0,-2.1291 0.49133,-4.25819 1.4467003,-6.36 z"
       id="path2811" />
    <path
       style="fill:#978749;fill-opacity:1;fill-rule:nonzero;stroke:#978749;stroke-width:0.0272962px;stroke-linecap:butt;stroke-linejoin:round;stroke-miterlimit:4;stroke-dasharray:none;stroke-opacity:1"
       d="m 10.657019,268.3285 1.66507,2.94799 -0.0546,-0.0819 2.21099,2.8388 2.72962,2.62043 3.24824,2.53854 3.73957,2.37477 4.20361,2.23828 4.61305,2.10181 5.02249,1.88343 5.40464,1.74696 5.75949,1.50129 6.03245,1.33751 6.33271,1.11914 6.57838,0.87348 6.76944,0.6551 6.98782,0.38215 7.1243,0.10919 c 0.35485,0.0273 0.62781,0.30025 0.62781,0.6551 v 12.74731 c 0,0.19107 -0.0546,0.35485 -0.19107,0.49133 -0.10919,0.10919 -0.30026,0.19107 -0.46404,0.16378 l -8.21614,-0.16378 -7.99778,-0.51863 -7.72481,-0.84618 -7.42455,-1.14644 -7.04241,-1.4194 -6.66026,-1.69236 -6.22353,-1.99262 -5.73219,-2.18369 -5.24086,-2.42936 -4.66765,-2.64773 -4.06712,-2.8115 -1.85614,-1.50129 -1.63777,-1.52858 -1.4467,-1.55589 -1.31021,-1.61047 -1.11915,-1.66506 -0.9280703,-1.69237 -0.73699,-1.74695 -0.51863,-1.77425 -0.32755,-1.77425 -0.10919,-1.82884 -0.0273,-12.8019 0.32755,-2.92069 c 0,-0.0546 0,-0.0819 0,-0.10918 l 0.84618,-2.8388 c 0.0273,-0.0546 0.0273,-0.0819 0.0546,-0.10919 l 1.3648103,-2.72962 c 0.0273,-0.0273 0.0273,-0.0546 0.0546,-0.0819 l 1.91073,-2.67503 2.45666,-2.67502 2.94798,-2.53854 3.41202,-2.37477 3.79417,-2.26558 4.2309,-2.1291 4.64035,-1.99262 4.9679,-1.80155 5.35005,-1.63777 5.70489,-1.47399 5.97786,-1.25562 6.27812,-1.03726 6.52378,-0.84618 -0.57322,0.62782 v -13.70267 c 0,-0.24567 0.16378,-0.49134 0.40944,-0.60052 0.24567,-0.0819 0.51863,-0.0546 0.7097,0.13648 l 20.08998,18.99812 c 0.13648,0.10919 0.19107,0.27297 0.19107,0.46404 0.0273,0.16378 -0.0546,0.32755 -0.16378,0.46404 l -20.08997,21.18181 c -0.19107,0.19108 -0.46404,0.24567 -0.7097,0.16378 -0.27296,-0.10918 -0.43674,-0.35485 -0.43674,-0.62781 v -13.70267 l 0.76429,0.65511 -6.52378,0.84618 -6.25082,1.03725 -5.92326,1.25562 -5.62301,1.4467 -5.29546,1.58318 -4.88601,1.80154 -4.58575,1.96533 -4.14902,2.0745 -3.71228,2.21099 -3.33013,2.32018 -2.8388,2.45665 -2.34747,2.53854 -1.85614,2.59314 0.0546,-0.0819 -1.36481,2.72962 0.0273,-0.10919 -0.8461803,2.8388 0.0273,-0.10918 -0.30026,2.86609 -1.28292,-0.13648 0.30026,-2.86609 c 0,-0.0546 0,-0.0819 0,-0.10919 l 0.84618,-2.8388 c 0.0273,-0.0546 0.0273,-0.0819 0.0546,-0.10918 l 1.3648103,-2.72962 c 0.0273,-0.0273 0.0273,-0.0546 0.0546,-0.0819 l 1.96533,-2.75691 2.45665,-2.64773 2.94799,-2.51124 3.38472,-2.37477 3.82146,-2.26558 4.20361,-2.1291 4.64034,-1.96532 4.9952,-1.82885 5.35005,-1.61047 5.6776,-1.4467 5.97786,-1.25562 6.25082,-1.03725 6.52378,-0.84618 c 0.19107,-0.0273 0.38215,0.0273 0.51863,0.13648 0.13648,0.13648 0.21837,0.32755 0.21837,0.49133 v 13.70267 l -1.11915,-0.43674 20.08998,-21.18182 0.0273,0.92807 -20.08997,-18.99812 1.09185,-0.49133 v 13.70267 c 0,0.35485 -0.21837,0.62781 -0.54593,0.6551 l -6.52378,0.84618 -6.22352,1.03726 -5.92327,1.25562 -5.59571,1.4194 -5.29545,1.63777 -4.91331,1.80155 -4.58576,1.93802 -4.12172,2.07451 -3.73957,2.21099 -3.30284,2.32017 -2.8388,2.42936 -2.34747,2.51125 -1.91073,2.67502 0.0546,-0.0819 -1.36481,2.72962 0.0273,-0.10918 -0.8461803,2.8388 0.0273,-0.10919 -0.30026,2.78421 v 12.72001 l 0.10918,1.66506 0.27297,1.63777 0.5186203,1.63777 0.65511,1.63777 0.87348,1.58318 1.03725,1.55588 1.25562,1.55588 1.39211,1.50129 1.58318,1.47399 1.74695,1.4467 3.95794,2.75691 4.61306,2.59314 5.13167,2.37476 5.6776,2.1837 6.11434,1.93802 6.60567,1.69236 6.98782,1.4194 7.36996,1.14644 7.67022,0.84618 7.94318,0.49133 8.21615,0.16378 -0.68241,0.65511 v -12.74731 l 0.65511,0.65511 -7.17889,-0.13648 -7.04241,-0.38215 -6.82404,-0.6551 -6.63296,-0.87348 -6.3873,-1.11914 -6.08705,-1.33752 -5.81408,-1.55587 -5.45923,-1.74696 -5.07709,-1.93803 -4.72223,-2.1018 -4.2582,-2.29288 -3.84876,-2.48395 -3.35743,-2.59313 -2.8388,-2.78421 -2.21099,-2.8388 c -0.0273,-0.0273 -0.0546,-0.0546 -0.0546,-0.0819 l -1.6650603,-2.94799 z"
       id="path2813" />
    <path
       style="fill:#ceb966;fill-opacity:1;fill-rule:evenodd;stroke:none;stroke-width:0.264583"
       d="m 140.96888,299.30964 20.08997,-21.15452 v 13.70267 0 c 35.485,-3.84876 60.26991,-17.36035 60.26991,-32.83728 v 0 12.74731 0 c 0,15.47692 -24.78491,28.98852 -60.26991,32.86457 v 0 13.70267 z"
       id="path2815" />
    <path
       style="fill:#a69552;fill-opacity:1;fill-rule:evenodd;stroke:none;stroke-width:0.264583"
       d="M 219.90936,265.38052 C 212.67588,249.38497 179.53834,237.8387 140.96888,237.8387 v 0 -12.77461 0 c 44.38355,0 80.35988,15.20396 80.35988,33.95642 0,2.1291 -0.46403,4.2582 -1.4194,6.36001 z"
       id="path2817" />
    <path
       style="fill:#978749;fill-opacity:1;fill-rule:nonzero;stroke:#978749;stroke-width:0.0272962px;stroke-linecap:butt;stroke-linejoin:round;stroke-miterlimit:4;stroke-dasharray:none;stroke-opacity:1"
       d="m 219.36344,265.70807 -1.66507,-2.94798 0.0546,0.0819 -2.21098,-2.83881 -2.72962,-2.62043 -3.24824,-2.53854 -3.73957,-2.37476 -4.20361,-2.23829 -4.61306,-2.1018 -5.04978,-1.88344 -5.40464,-1.74695 -5.7322,-1.50129 -6.05974,-1.33751 -6.30542,-1.11915 -6.57837,-0.87347 -6.79674,-0.65511 -6.98782,-0.38215 -7.12429,-0.13648 c -0.35486,0 -0.65511,-0.27296 -0.65511,-0.6551 V 225.0641 c 0,-0.16377 0.0819,-0.32755 0.21837,-0.46403 0.10918,-0.10919 0.27296,-0.19108 0.46403,-0.19108 l 8.21614,0.16378 7.99778,0.54592 7.72481,0.84619 7.42456,1.14643 7.0424,1.41941 6.66027,1.69236 6.25082,1.99262 5.73219,2.18369 5.24086,2.45665 4.64035,2.62043 4.09442,2.83881 1.82884,1.50128 1.63778,1.52859 1.44669,1.55588 1.31022,1.61047 1.09184,1.66507 0.92807,1.69236 0.76429,1.74695 0.51863,1.74696 0.32756,1.80155 0.10918,1.82884 v 12.7746 l -0.30026,2.94798 c 0,0.0273 0,0.0819 -0.0273,0.10919 l -0.84618,2.8388 c 0,0.0546 0,0.0819 -0.0273,0.10918 l -1.36481,2.72962 c -0.0273,0.0273 -0.0273,0.0546 -0.0546,0.0819 l -1.91073,2.67502 -2.45666,2.67502 -2.94798,2.53855 -3.38473,2.37476 -3.79416,2.26558 -4.2582,2.12911 -4.61305,1.99261 -4.9952,1.80155 -5.35004,1.63777 -5.67761,1.47399 -6.00515,1.25562 -6.27812,1.03726 -6.52378,0.84618 0.54593,-0.65511 v 13.70267 c 0,0.27297 -0.13649,0.51863 -0.38215,0.62781 -0.24567,0.0819 -0.51863,0.0273 -0.7097,-0.13648 l -20.08996,-19.02544 c -0.13648,-0.10918 -0.19108,-0.30026 -0.21837,-0.46403 0,-0.16378 0.0819,-0.32756 0.19107,-0.46404 l 20.08997,-21.15452 c 0.19107,-0.19107 0.46404,-0.24567 0.7097,-0.16378 0.24567,0.10919 0.40945,0.35485 0.40945,0.60052 v 13.70267 l -0.737,-0.62781 6.52378,-0.84618 6.25082,-1.03726 5.95056,-1.25562 5.56842,-1.4467 5.32275,-1.61047 4.91331,-1.77425 4.55846,-1.96532 4.17631,-2.07451 3.71227,-2.21099 3.30284,-2.32017 2.8388,-2.45666 2.34747,-2.53854 1.85614,-2.59313 -0.0546,0.0819 1.3648,-2.72961 -0.0546,0.10918 0.84618,-2.8388 v 0.10919 l 0.30026,-2.8661 1.28292,0.13648 -0.30026,2.8661 c 0,0.0273 0,0.0819 -0.0273,0.10918 l -0.84618,2.8388 c 0,0.0546 0,0.0819 -0.0273,0.10919 l -1.36481,2.72961 c -0.0273,0.0273 -0.0273,0.0546 -0.0546,0.0819 l -1.96532,2.75691 -2.45666,2.64773 -2.94799,2.51125 -3.35742,2.37476 -3.82146,2.26559 -4.23091,2.12909 -4.61305,1.96533 -5.02249,1.80154 -5.35005,1.63777 -5.6503,1.4467 -6.00516,1.25562 -6.25082,1.03726 -6.52378,0.84618 c -0.19107,0.0273 -0.38215,-0.0273 -0.51863,-0.16378 -0.16377,-0.10918 -0.24566,-0.30026 -0.24566,-0.49133 v -13.70267 l 1.14644,0.46403 -20.08998,21.15453 -0.0273,-0.92807 20.08997,19.02542 -1.11914,0.46403 v -13.70267 c 0,-0.32755 0.24566,-0.60051 0.57322,-0.62781 l 6.52378,-0.84618 6.22352,-1.03726 5.92327,-1.25562 5.59571,-1.4194 5.29546,-1.63777 4.9406,-1.80154 4.55846,-1.93803 4.14901,-2.07451 3.73958,-2.21099 3.27554,-2.32017 2.8388,-2.42936 2.34747,-2.51125 1.91073,-2.67502 -0.0546,0.0819 1.3648,-2.72962 -0.0546,0.10919 0.84618,-2.8388 v 0.10918 l 0.27296,-2.8115 0.0273,-12.69271 -0.10918,-1.66507 -0.27297,-1.66506 -0.51862,-1.61048 -0.68241,-1.63777 -0.87347,-1.58318 -1.00996,-1.55588 -1.25562,-1.55588 -1.39211,-1.50129 -1.58318,-1.47399 -1.71966,-1.4467 -3.98523,-2.7842 -4.58576,-2.56584 -5.13168,-2.40206 -5.6776,-2.1837 -6.14163,-1.93802 -6.60567,-1.69237 -6.98782,-1.4194 -7.36996,-1.14643 -7.67022,-0.84619 -7.94318,-0.51862 -8.21614,-0.16378 0.6551,-0.65511 v 12.77461 l -0.62781,-0.65511 7.17889,0.16377 7.04241,0.38215 6.85133,0.65511 6.63297,0.87347 6.36,1.11915 6.11435,1.33751 5.78678,1.55588 5.45923,1.74695 5.10438,1.93803 4.72224,2.1018 4.2582,2.29288 3.84876,2.48395 3.35742,2.59314 2.8388,2.78421 2.21099,2.8388 c 0.0273,0.0273 0.0546,0.0546 0.0546,0.0819 l 1.66506,2.94799 z"
       id="path2819" />
    <path
       style="fill:#000000;fill-opacity:1;fill-rule:evenodd;stroke:none;stroke-width:0.264583"
       d="m -24.555021,132.91227 m 168.537831,173.69306 -0.0169,-0.59228 -0.0508,-0.62612 -0.10152,-0.62613 -0.1692,-0.6092 -0.16921,-0.54152 -0.23688,-0.52458 -0.28765,-0.40614 -0.3384,-0.33845 -0.59222,-0.42305 -0.65989,-0.42306 -0.69374,-0.40614 -0.76142,-0.38921 -0.77833,-0.37229 -0.84602,-0.35537 -0.87986,-0.35537 -0.9137,-0.33844 -0.96446,-0.3046 -1.01523,-0.28768 -1.03214,-0.28768 -1.09982,-0.25384 -1.09983,-0.23691 -1.15058,-0.23691 -1.16751,-0.20307 -1.21827,-0.18614 v 0 l -0.0846,-1.4384 h -2.40269 l 0.20304,3.70599 -0.10152,0.0169 -0.10152,0.0338 -0.11845,0.0169 -0.10152,0.0338 -0.10152,0.0508 -0.10152,0.0338 -0.13537,0.0169 -0.10152,0.0338 0.20304,-0.10154 -1.0829,-1.8276 -0.28764,-2.41989 0.2538,-0.23691 0.23689,-0.27076 0.23688,-0.28768 0.20305,-0.3046 0.21996,-0.33845 0.1692,-0.37229 0.16921,-0.38921 0.15228,-0.38921 0.18613,2.99524 h 2.40269 l -0.23689,-4.39979 -0.0169,-0.18615 -0.0846,-0.18614 -0.10152,-0.1523 -0.13536,-0.15231 -0.15229,-0.13537 -0.15228,-0.0677 -0.20305,-0.0677 -0.18612,-0.0169 h -0.47377 -0.11844 l -0.13536,0.0169 -0.10153,0.0677 -0.13536,0.0508 v 0 -0.0338 0 0 l -0.0508,-0.52459 -0.10152,-0.52459 -0.15229,-0.49075 -0.18612,-0.47382 -0.23689,-0.45691 -0.28764,-0.42305 -0.33841,-0.42306 -0.35533,-0.38921 -0.42301,-0.33845 -0.43993,-0.3046 -0.43993,-0.27076 -0.45685,-0.21999 -0.50761,-0.16922 -0.49069,-0.11845 -0.50761,-0.0846 -0.52453,-0.0338 -0.4907,0.0338 -0.47377,0.0508 -0.45685,0.13538 -0.45685,0.11845 -0.40609,0.21999 -0.38916,0.20307 -0.37225,0.27076 -0.33841,0.3046 -0.32149,0.3046 -0.27072,0.37229 -0.25381,0.37229 -0.20304,0.40614 -0.18613,0.42305 -0.13536,0.43998 -0.10152,0.47383 -0.0508,0.49075 -0.52454,0.43997 -0.59221,0.55844 -0.64297,0.62612 -0.62606,0.64305 -0.57529,0.65997 -0.43993,0.62613 -0.28765,0.55843 -0.0508,0.50767 0.0508,0.16922 0.0846,0.16923 0.11844,0.11845 0.1692,0.11846 0.21997,0.10153 0.23688,0.10154 0.28765,0.0846 0.28764,0.0677 0.28765,0.0846 0.30457,0.0508 0.32149,0.0677 0.30456,0.0338 0.28765,0.0508 0.30457,0.0338 0.28764,0.0508 0.27073,0.0169 h 0.2538 l 0.23689,0.0338 0.20304,0.0169 h 0.18613 l 0.28764,2.53834 v 0.0677 l -0.18612,-0.0508 -0.15228,-0.0508 h -0.18613 l -0.18612,0.0508 -0.10152,0.0339 -0.0846,0.0169 -0.0677,0.0339 -0.0508,0.0169 -1.50591,-2.08144 -0.0338,-0.0169 -0.10153,-0.0846 -0.13536,-0.0846 -0.11844,-0.0508 -0.18612,-0.0508 h -0.15229 l -0.18612,0.0508 -0.18613,0.0508 -0.1692,0.13538 -0.27073,0.33844 -0.0677,0.33845 0.0508,0.32152 0.10152,0.23692 0.0508,0.0677 0.13536,0.1523 0.1692,0.27076 0.23689,0.3046 0.23688,0.32153 0.25381,0.33844 0.21996,0.28768 0.16921,0.23691 -0.55837,-0.16922 -0.50762,-0.16922 -0.43993,-0.21999 -0.35532,-0.20307 -0.28765,-0.20307 -0.23688,-0.23691 -0.13537,-0.23691 -0.0508,-0.27076 -0.0169,-0.16922 v -0.16922 -0.1523 l 0.0169,-0.15231 0.0338,-0.43997 -0.42301,0.0508 -0.77834,0.0677 -0.77833,0.11846 -0.77834,0.0677 -0.7445,0.13537 -0.76142,0.10154 -0.72757,0.13538 -0.69374,0.13538 -0.72757,0.11845 -0.67682,0.1523 -0.67681,0.16922 -0.67682,0.15231 -0.64297,0.18614 -0.6599,0.1523 -0.59221,0.18615 -0.62606,0.20306 -0.558371,0.18615 -0.57529,0.20307 -0.57529,0.20306 -0.52454,0.21999 -0.50761,0.23692 -0.52453,0.23691 -0.47377,0.21999 -0.45685,0.23691 -0.43993,0.23691 -0.42301,0.27076 -0.40609,0.25383 -0.38917,0.25384 -0.37224,0.27075 -0.33841,0.28768 -0.30457,0.25384 -0.28765,0.28768 -0.28764,0.28768 -0.42301,0.81227 -0.1692,1.03226 v 0.99841 l 0.0169,0.69382 0.0508,0.55843 0.10152,0.57536 0.13536,0.57536 0.15228,0.54151 0.18613,0.52459 0.23688,0.4569 0.25381,0.42306 0.28765,0.32152 0.37225,0.27076 0.38916,0.28768 0.43993,0.27076 0.43993,0.23691 0.49069,0.20307 0.52454,0.20306 0.54145,0.18615 0.57529,0.1523 0.16921,0.47382 0.18612,0.43998 0.23688,0.43998 0.25381,0.4569 0.28765,0.40614 0.28764,0.38921 0.33841,0.38922 0.35533,0.37229 0.28764,0.25383 0.321491,0.27076 0.30457,0.23691 0.32149,0.20307 0.32148,0.20306 0.33841,0.18615 0.33841,0.1523 0.37225,0.16922 0.33841,0.11846 0.35532,0.13538 0.37225,0.0846 0.38917,0.0677 0.35533,0.0846 0.38917,0.0508 0.37225,0.0169 h 0.38916 0.38917 l 0.35533,-0.0169 0.38917,-0.0508 0.37225,-0.0846 0.35532,-0.0677 0.33841,-0.0846 0.37225,-0.13538 0.33841,-0.11846 0.33841,-0.16922 0.30456,-0.1523 0.30457,-0.18615 0.32149,-0.20306 0.28764,-0.20307 0.28765,-0.23691 0.27073,-0.27076 0.27072,-0.25383 0.25381,-0.28768 0.2538,-0.30461 0.21997,-0.33844 0.23688,-0.33845 0.16921,-0.33844 0.1692,-0.33845 0.15229,-0.37229 0.11844,-0.37229 h 0.42301 l 0.42301,-0.0169 h 0.40609 0.42301 l 0.40608,-0.0339 h 0.42301 0.40609 l 0.42301,-0.0169 h 0.40609 0.43993 0.42301 l 0.43993,-0.0338 h 0.42301 0.43993 0.40609 0.43993 0.47377 0.47377 0.45685 l 0.47377,0.0338 h 0.45685 0.47377 l 0.43993,0.0169 h 0.47377 l 0.43993,0.0339 0.45685,0.0169 h 0.45685 l 0.43993,0.0338 0.43993,0.0169 0.43993,0.0338 h 0.43993 l 0.43993,0.0339 0.15229,0.35537 0.18612,0.33844 0.20304,0.33845 0.23689,0.32152 0.23689,0.33845 0.2538,0.28767 0.27073,0.30461 0.27072,0.28768 0.28765,0.25383 0.32149,0.27076 0.30456,0.23691 0.32149,0.20307 0.32149,0.20306 0.33841,0.18615 0.3384,0.1523 0.37225,0.16922 0.33841,0.11846 0.35533,0.13538 0.37224,0.0846 0.38917,0.0677 0.35533,0.0846 0.38917,0.0508 0.37225,0.0169 h 0.38917 0.38917 l 0.35533,-0.0169 0.38916,-0.0508 0.37225,-0.0846 0.35533,-0.0677 0.37225,-0.0846 0.33841,-0.13538 0.3384,-0.11846 0.33841,-0.16922 0.30457,-0.1523 0.33841,-0.18615 0.28764,-0.20306 0.30457,-0.20307 0.28765,-0.23691 0.2538,-0.27076 0.27073,-0.25383 0.30457,-0.33845 0.28764,-0.38921 0.25381,-0.37229 0.23688,-0.40614 0.21997,-0.42306 0.1692,-0.42305 0.1692,-0.43998 0.11845,-0.43998 0.28764,-0.10154 0.25381,-0.13537 0.27073,-0.10154 0.2538,-0.13538 0.25381,-0.11845 0.23688,-0.13538 0.23689,-0.13538 0.20304,-0.1523 0.42301,-0.38921 0.33841,-0.49075 0.28764,-0.6092 0.20305,-0.64305 0.15228,-0.71073 0.10152,-0.72766 0.0508,-0.72766 z"
       id="path2821" />
    <path
       style="fill:#ffffff;fill-opacity:1;fill-rule:evenodd;stroke:none;stroke-width:0.264583"
       d="m 142.5615,303.27164 -0.62606,-0.38921 -0.69373,-0.38921 -0.72758,-0.38922 -0.77834,-0.37229 -0.8291,-0.35537 -0.86294,-0.33844 -0.87986,-0.33845 -0.9137,-0.32152 -0.96446,-0.3046 -0.98138,-0.28768 -1.01522,-0.27076 -1.01523,-0.25383 -1.03214,-0.23692 -1.06598,-0.20306 -1.06599,-0.21999 -1.06598,-0.1523 0.0338,-0.10154 v -0.10153 l 0.0169,-0.10154 v -0.10153 l 1.15059,0.16922 1.11674,0.21999 1.06598,0.20307 1.06599,0.23691 1.03214,0.25384 0.98138,0.27075 0.96447,0.28768 0.9137,0.3046 0.87986,0.32153 0.86293,0.3046 0.79526,0.37229 0.76142,0.33845 0.69373,0.38921 0.67682,0.35537 0.59221,0.38921 0.5753,0.42306 0.10152,0.0846 0.0846,0.10153 0.0677,0.10154 z"
       id="path2823" />
    <path
       style="fill:#ffffff;fill-opacity:1;fill-rule:evenodd;stroke:none;stroke-width:0.264583"
       d="m 125.94568,291.15528 h 0.49069 l 0.10152,0.0169 0.0846,0.0677 0.0677,0.10153 0.0338,0.10154 0.38917,7.20889 v 0 l -0.0846,0.0846 -0.10153,0.0846 -0.10152,0.0677 -0.13536,0.0846 -0.11845,0.0846 -0.13536,0.0677 -0.15228,0.0846 -0.15228,0.0677 -0.43993,-7.83502 0.0169,-0.10154 0.0508,-0.10153 0.0846,-0.0677 z"
       id="path2825" />
    <path
       style="fill:#ffffff;fill-opacity:1;fill-rule:evenodd;stroke:none;stroke-width:0.264583"
       d="m 117.8239,300.27639 -0.0846,-0.10153 -0.0846,-0.13538 -0.0677,-0.1523 -0.10152,-0.1523 -0.13536,-0.18614 -0.13536,-0.18615 -0.11845,-0.1523 -0.1692,-0.18615 v -0.23691 l 6.26054,-0.47382 0.96446,1.57377 -0.2538,0.0508 -0.27073,0.0508 -0.25381,0.0508 -0.28764,0.0338 -0.28765,0.0508 -0.28765,0.0169 -0.27072,0.0338 -0.28765,0.0508 -0.32148,0.0169 -0.30457,0.0338 h -0.32149 l -0.30457,0.0339 h -0.30456 l -0.33841,0.0169 h -0.32149 -0.33841 -0.20304 -0.20304 -0.21997 l -0.1692,-0.0169 h -0.21997 -0.1692 l -0.21997,-0.0339 z"
       id="path2827" />
    <path
       style="fill:#11c126;fill-opacity:1;fill-rule:evenodd;stroke:none;stroke-width:0.264583"
       d="m 119.93895,286.02782 0.47377,0.0169 0.43993,0.0508 0.43993,0.13538 0.42301,0.1523 0.40609,0.18615 0.38916,0.23691 0.37225,0.25383 0.35533,0.32153 0.32149,0.33844 0.28764,0.35537 0.25381,0.37229 0.20304,0.40614 0.18613,0.42305 0.13536,0.42306 0.0677,0.43998 0.0508,0.43998 -0.0169,0.62613 -0.10152,0.67689 -0.18612,0.65997 -0.23689,0.62612 -0.30456,0.59228 -0.33841,0.52459 -0.38917,0.43998 -0.42301,0.3046 -0.15228,0.0846 -0.13537,0.0508 -0.11844,0.0338 -0.13536,0.0169 h -0.15229 l -0.13536,-0.0169 -0.13536,-0.0508 -0.11844,-0.0677 -0.52454,-0.40614 -0.40609,-0.57535 -0.32148,-0.65997 -0.20305,-0.64305 -0.15228,-0.62612 -0.11844,-0.5246 -0.0508,-0.35536 v -0.13538 l -0.0508,-0.25384 -0.0677,-0.27075 -0.13536,-0.23692 -0.18613,-0.20306 -0.10152,-0.0846 -0.11844,-0.0677 -0.11844,-0.0846 -0.11844,-0.0508 -0.10153,-0.0508 -0.13536,-0.0338 -0.13536,-0.0169 h -0.11845 -2.79186 l 0.0846,-0.38921 0.0846,-0.38921 0.11845,-0.37229 0.18612,-0.35537 0.18613,-0.32152 0.23688,-0.3046 0.21997,-0.28768 0.27072,-0.28768 0.30457,-0.23692 0.32149,-0.21999 0.32148,-0.16922 0.33841,-0.16922 0.37225,-0.11846 0.38917,-0.0846 0.38917,-0.0508 z"
       id="path2829" />
    <path
       style="fill:#ffffff;fill-opacity:1;fill-rule:evenodd;stroke:none;stroke-width:0.264583"
       d="m 111.95253,294.52281 0.0169,-0.21999 0.1692,-0.33844 0.30457,-0.43998 0.43993,-0.52459 0.52453,-0.57536 0.62605,-0.62612 0.69374,-0.64305 0.72758,-0.65997 h 3.06259 l 0.13536,0.0338 0.11844,0.0338 0.11844,0.0508 0.10153,0.0677 0.0677,0.10154 0.0846,0.11845 0.0169,0.11846 0.0338,0.13538 0.0338,0.18614 0.0508,0.43998 0.10152,0.57536 0.16921,0.69381 0.27072,0.72766 0.38917,0.74458 0.49069,0.64305 0.64298,0.49075 0.18612,0.0846 0.18613,0.0846 0.15228,0.0508 0.18612,0.0169 h 0.18613 0.1692 l 0.18613,-0.0508 0.18612,-0.0508 0.20304,1.84453 -6.07441,0.47382 -0.33841,-2.84295 h -0.30457 -0.0338 -0.10152 l -0.15228,-0.0169 h -0.21997 l -0.2538,-0.0338 -0.28765,-0.0169 -0.30457,-0.0338 -0.3384,-0.0169 -0.33841,-0.0677 -0.37225,-0.0508 -0.35533,-0.0508 -0.3384,-0.0677 -0.33841,-0.0846 -0.30457,-0.0846 -0.28765,-0.10153 -0.27072,-0.10153 z"
       id="path2831" />
    <path
       style="fill:#ffffff;fill-opacity:1;fill-rule:evenodd;stroke:none;stroke-width:0.264583"
       d="m 115.79345,299.12568 h 0.0846 l 0.10153,0.0338 0.11844,0.0508 0.13536,0.10153 v 0.0508 l 0.0846,0.0338 0.1692,0.16923 0.1692,0.18614 0.16921,0.23691 0.1692,0.23692 -0.32149,-0.0339 -0.30456,-0.0169 -0.32149,-0.0508 -0.30457,-0.0338 -0.28764,-0.0508 -0.28765,-0.0508 -0.28765,-0.0508 -0.28764,-0.0508 0.76141,-0.27076 -0.0846,-0.21999 0.0508,-0.0508 0.10153,-0.0677 0.13536,-0.0677 z"
       id="path2833" />
    <path
       style="fill:#ffffff;fill-opacity:1;fill-rule:evenodd;stroke:none;stroke-width:0.264583"
       d="m 112.93391,297.01039 0.0846,-0.0508 0.0677,-0.0169 h 0.0846 l 0.0846,0.0508 1.45515,1.97991 -0.0338,0.0338 -0.0338,0.0508 -0.0169,0.0169 v 0.0508 l -0.33841,0.13538 -1.42131,-1.92915 -0.0338,-0.0508 v -0.0846 l 0.0338,-0.0677 z"
       id="path2835" />
    <path
       style="fill:#ffffff;fill-opacity:1;fill-rule:evenodd;stroke:none;stroke-width:0.264583"
       d="m 110.51429,298.09342 -1.1675,0.11845 -1.13367,0.16923 -1.09982,0.1523 -1.0829,0.18614 -1.03215,0.16922 -1.01522,0.21999 -0.9983,0.20307 -0.94755,0.23692 -0.9137,0.23691 -0.87986,0.23691 -0.829091,0.28768 -0.8291,0.25383 -0.76142,0.28768 -0.7445,0.3046 -0.71065,0.32153 -0.64298,0.3046 0.64298,-0.35537 0.67681,-0.37229 0.72758,-0.33845 0.77834,-0.3046 0.81218,-0.32152 0.829091,-0.3046 0.87986,-0.27076 0.93062,-0.28768 0.96447,-0.21999 0.98138,-0.27075 1.01522,-0.20307 1.03214,-0.21999 1.09983,-0.16923 1.11674,-0.18614 1.11675,-0.1523 1.1675,-0.13538 v 0.10153 0.10154 0.10153 z"
       id="path2837" />
    <path
       style="fill:#193800;fill-opacity:1;fill-rule:evenodd;stroke:none;stroke-width:0.264583"
       d="m 105.06593,317.41868 h -0.3384 l -0.35533,-0.0169 -0.33841,-0.0508 -0.33841,-0.0508 -0.33841,-0.0846 -0.3384,-0.10153 -0.33841,-0.10154 -0.30457,-0.10153 -0.33841,-0.16923 -0.32148,-0.1523 -0.28765,-0.15229 -0.30457,-0.18615 -0.28764,-0.20307 -0.28765,-0.21999 -0.28765,-0.21999 -0.2538,-0.23691 -0.490691,-0.52459 -0.43993,-0.54152 -0.38917,-0.6092 -0.32149,-0.59228 -0.2538,-0.65997 -0.20305,-0.64304 -0.13536,-0.6769 -0.0846,-0.71073 V 309.719 l 0.0677,-0.69381 0.11844,-0.64305 0.20305,-0.65997 0.23688,-0.59228 0.33841,-0.59228 0.37225,-0.55843 0.43993,-0.52459 0.23688,-0.21999 0.25381,-0.23692 0.253801,-0.21999 0.27073,-0.20306 0.28765,-0.18615 0.27072,-0.1523 0.28765,-0.1523 0.32149,-0.1523 0.30456,-0.11846 0.32149,-0.10153 0.32149,-0.10154 0.32148,-0.0677 0.33841,-0.0677 0.33841,-0.0508 0.35533,-0.0169 h 0.33841 0.3384 l 0.37225,0.0169 0.33841,0.0508 0.3384,0.0677 0.32149,0.0677 0.33841,0.10154 0.33841,0.10153 0.32149,0.11846 0.3384,0.1523 0.30457,0.1523 0.28765,0.1523 0.30456,0.18615 0.28765,0.20306 0.28765,0.21999 0.28764,0.23692 0.25381,0.21999 0.50761,0.52459 0.43993,0.55843 0.35533,0.59228 0.33841,0.59228 0.2538,0.65997 0.21997,0.64305 0.11844,0.69381 0.0846,0.69382 v 0.71073 l -0.0846,0.69382 -0.11844,0.67689 -0.18613,0.62612 -0.28764,0.62613 -0.30457,0.57536 -0.37225,0.54151 -0.40609,0.50767 -0.50761,0.43998 -0.49069,0.42306 -0.55837,0.33844 -0.60914,0.3046 -0.62605,0.23692 -0.64298,0.18614 -0.69373,0.10154 z"
       id="path2839" />
    <path
       style="fill:#193800;fill-opacity:1;fill-rule:evenodd;stroke:none;stroke-width:0.264583"
       d="m 133.33989,317.41868 h -0.33841 l -0.35533,-0.0169 -0.3384,-0.0508 -0.33841,-0.0508 -0.33841,-0.0846 -0.33841,-0.10153 -0.33841,-0.10154 -0.30456,-0.10153 -0.33841,-0.16923 -0.32149,-0.1523 -0.28764,-0.15229 -0.30457,-0.18615 -0.28765,-0.20307 -0.28764,-0.21999 -0.28765,-0.21999 -0.25381,-0.23691 -0.49069,-0.52459 -0.43993,-0.54152 -0.37224,-0.6092 -0.33841,-0.59228 -0.25381,-0.65997 -0.20304,-0.64304 -0.13537,-0.6769 -0.0846,-0.71073 V 309.719 l 0.0677,-0.69381 0.11845,-0.64305 0.20304,-0.65997 0.23689,-0.59228 0.3384,-0.59228 0.37225,-0.55843 0.43993,-0.52459 0.23689,-0.21999 0.2538,-0.23692 0.25381,-0.21999 0.27073,-0.20306 0.28764,-0.18615 0.27073,-0.1523 0.28764,-0.1523 0.32149,-0.1523 0.30457,-0.11846 0.32149,-0.10153 0.32148,-0.10154 0.32149,-0.0677 0.33841,-0.0677 0.3384,-0.0508 0.35533,-0.0169 h 0.33841 0.33841 l 0.37225,0.0169 0.3384,0.0508 0.33841,0.0677 0.33841,0.0677 0.32149,0.10154 0.3384,0.10153 0.32149,0.11846 0.33841,0.1523 0.30457,0.1523 0.28764,0.1523 0.30457,0.18615 0.28764,0.20306 0.28765,0.21999 0.28765,0.23692 0.2538,0.21999 0.50761,0.52459 0.43993,0.55843 0.35533,0.59228 0.33841,0.59228 0.25381,0.65997 0.21996,0.64305 0.11844,0.69381 0.0846,0.69382 v 0.71073 l -0.0846,0.69382 -0.11844,0.67689 -0.18612,0.62612 -0.28765,0.62613 -0.30457,0.57536 -0.37225,0.54151 -0.40608,0.50767 -0.49069,0.43998 -0.50762,0.42306 -0.55837,0.33844 -0.60913,0.3046 -0.62606,0.23692 -0.64297,0.18614 -0.69374,0.10154 z"
       id="path2841" />
    <path
       style="fill:#11c126;fill-opacity:1;fill-rule:evenodd;stroke:none;stroke-width:0.264583"
       d="m 143.32291,306.58841 -0.0338,0.74458 -0.0508,0.74458 -0.10152,0.67689 -0.15229,0.59228 -0.18612,0.57536 -0.23688,0.47382 -0.25381,0.35537 -0.28765,0.28768 -0.15228,0.10154 -0.18613,0.10153 -0.18612,0.11846 -0.15228,0.10153 -0.20305,0.0677 -0.18612,0.11845 -0.18612,0.10154 -0.20305,0.0677 0.0508,-0.35537 0.0169,-0.33845 v -0.37229 l -0.0169,-0.33844 -0.0846,-0.7615 -0.15229,-0.74459 -0.20304,-0.72765 -0.28765,-0.71074 -0.37224,-0.67689 -0.40609,-0.64305 -0.4907,-0.6092 -0.54145,-0.57536 -0.28764,-0.25384 -0.32149,-0.27075 -0.28765,-0.21999 -0.3384,-0.21999 -0.30457,-0.20307 -0.33841,-0.18615 -0.33841,-0.18614 -0.35532,-0.1523 -0.33841,-0.13538 -0.37225,-0.10153 -0.35533,-0.10154 -0.38917,-0.0846 -0.37224,-0.0677 -0.38917,-0.0508 -0.35533,-0.0338 h -0.38917 l -0.77834,0.0508 -0.76141,0.10153 -0.72758,0.18615 -0.69374,0.27075 -0.65989,0.33845 -0.60914,0.38921 -0.55837,0.43998 -0.50761,0.49075 -0.47377,0.55844 -0.42301,0.59228 -0.35533,0.62612 -0.28764,0.67689 -0.20305,0.71074 -0.15228,0.72766 -0.0846,0.77842 v 0.77843 l 0.0508,0.54151 0.10152,0.55844 0.13536,0.54151 0.15229,0.52459 -0.40609,-0.0338 h -0.42301 l -0.43993,-0.0169 -0.42301,-0.0338 -0.43993,-0.0169 h -0.43993 l -0.40609,-0.0339 -0.43993,-0.0169 h -0.43993 l -0.45685,-0.0338 h -0.43993 -0.45685 l -0.43993,-0.0169 h -0.43993 -0.47377 -0.43993 -0.42301 -0.40609 -0.43993 -0.42301 l -0.38917,0.0169 h -0.40609 -0.42301 -0.42301 l -0.38916,0.0338 h -0.40609 -0.38917 l -0.42301,0.0169 h -0.38917 -0.40609 l -0.38917,0.0339 h -0.38917 l 0.0677,-0.49075 0.0846,-0.52459 0.0169,-0.52459 -0.0169,-0.52459 -0.0846,-0.7615 -0.15228,-0.74459 -0.20304,-0.72765 -0.28765,-0.71074 -0.37225,-0.67689 -0.40609,-0.64305 -0.49069,-0.6092 -0.54145,-0.57536 -0.28765,-0.25384 -0.32149,-0.27075 -0.30456,-0.21999 -0.32149,-0.21999 -0.33841,-0.20307 -0.30456,-0.18615 -0.35533,-0.18614 -0.33841,-0.1523 -0.37225,-0.13538 -0.3384,-0.10153 -0.35533,-0.10154 -0.38917,-0.0846 -0.37225,-0.0677 -0.38917,-0.0508 -0.35533,-0.0338 h -0.38916 l -0.77834,0.0508 -0.76142,0.10153 -0.72758,0.18615 -0.69373,0.27075 -0.6599,0.33845 -0.60913,0.38921 -0.558371,0.43998 -0.50761,0.49075 -0.47378,0.55844 -0.423,0.59228 -0.35533,0.62612 -0.28765,0.67689 -0.20304,0.71074 -0.15229,0.72766 -0.0846,0.77842 v 0.77843 l 0.0338,0.33844 0.0508,0.32153 0.0508,0.33844 0.0677,0.33845 -0.45686,-0.16922 -0.47377,-0.1523 -0.40608,-0.18615 -0.40609,-0.16922 -0.38917,-0.21999 -0.35533,-0.23691 -0.30457,-0.22 -0.32148,-0.23691 -0.20305,-0.21999 -0.18612,-0.3046 -0.18613,-0.37229 -0.15228,-0.40613 -0.11844,-0.47383 -0.13537,-0.54151 -0.10152,-0.55844 -0.0508,-0.59228 -0.0508,-0.6092 v -0.54151 l 0.0508,-0.49075 0.0508,-0.47382 v 0 l 0.25381,-0.25384 0.2538,-0.27075 0.32149,-0.23692 0.30457,-0.25383 0.3384,-0.23691 0.37225,-0.23691 0.38917,-0.23692 0.40609,-0.21999 0.42301,-0.23691 0.45685,-0.21999 0.47377,-0.20307 0.49069,-0.20306 0.49069,-0.22 0.52453,-0.20306 0.54146,-0.20307 0.57529,-0.18615 0.592211,-0.18614 0.60914,-0.18615 0.59221,-0.15229 0.64297,-0.18615 0.6599,-0.1523 0.64297,-0.1523 0.67682,-0.1523 0.69374,-0.13538 0.71065,-0.13538 0.72758,-0.11846 0.74449,-0.13537 0.76142,-0.10154 0.7445,-0.10153 0.77833,-0.11846 0.77834,-0.10153 0.81218,-0.0677 0.0677,0.10153 0.11844,0.13538 0.10153,0.10153 0.11844,0.11846 0.13536,0.11846 0.15229,0.10153 0.15228,0.10154 0.18612,0.10153 0.67682,0.32152 0.77834,0.27076 0.87986,0.23691 0.96446,0.18615 1.03214,0.13537 1.06599,0.11846 1.11674,0.0677 1.15059,0.0169 1.11674,-0.0169 1.08291,-0.0677 1.06598,-0.11846 1.01522,-0.13537 0.96446,-0.18615 0.84602,-0.23691 0.76142,-0.27076 0.62606,-0.32152 0.20304,-0.13538 0.20304,-0.1523 0.16921,-0.13538 0.15228,-0.1523 h 0.11844 l 1.15059,0.18615 1.13366,0.20306 1.15059,0.23692 1.11675,0.27075 1.0829,0.25384 1.06598,0.3046 1.04907,0.32152 0.98138,0.33845 0.98138,0.33844 0.9137,0.38922 0.87986,0.37229 0.8291,0.40613 0.81218,0.38922 0.69373,0.42305 0.67682,0.42306 0.59221,0.43998 0.0677,-0.0846 0.11845,0.49074 0.10152,0.57536 0.0846,0.6092 z"
       id="path2843" />
    <path
       style="fill:#000000;fill-opacity:1;fill-rule:evenodd;stroke:none;stroke-width:0.264583"
       d="m 114.91359,291.73063 h -0.0338 -0.0508 l -0.0169,0.0169 h -0.0508 l 0.15228,0.11845 0.15229,0.16923 0.10152,0.21999 0.0338,0.25383 v 0.0339 0.0508 0.0169 0.0508 l -0.0508,-0.1523 -0.0846,-0.10153 -0.13537,-0.0846 -0.10152,-0.0169 -0.15228,0.0508 -0.10152,0.10153 -0.0846,0.15231 v 0.18614 l 0.0508,0.18615 0.0846,0.1523 0.10152,0.10153 0.15228,0.0508 v 0 0 0 0 h 0.0338 0.0169 0.0339 0.0169 l 0.23688,-0.0508 0.18612,-0.18615 0.10153,-0.23691 0.0338,-0.3046 -0.0508,-0.3046 -0.16921,-0.23691 -0.1692,-0.18615 z"
       id="path2845" />
    <path
       style="fill:#000000;fill-opacity:1;fill-rule:evenodd;stroke:none;stroke-width:0.264583"
       d="m 117.58701,293.32133 v 0 0 0 h 0.0169 l 0.0338,0.0169 h 0.0169 v 0 h 0.0338 l 0.23689,-0.0508 0.15229,-0.18615 0.10152,-0.25383 0.0338,-0.28768 -0.0508,-0.3046 -0.13537,-0.23691 -0.18612,-0.18615 -0.23689,-0.0508 h -0.0169 -0.0508 -0.0338 l -0.0508,0.0169 0.15228,0.11845 0.16921,0.16922 0.10152,0.21999 0.0169,0.25384 0.0338,0.0338 v 0.0508 0.0169 l -0.0338,0.0338 -0.0508,-0.13538 -0.0677,-0.10154 -0.11845,-0.0846 -0.11844,-0.0169 -0.13536,0.0169 -0.10152,0.10154 -0.0846,0.16922 -0.0169,0.20307 0.0508,0.18614 0.0846,0.1523 0.10152,0.10154 z"
       id="path2847" />
    <path
       style="fill:#000000;fill-opacity:1;fill-rule:evenodd;stroke:none;stroke-width:0.264583"
       d="m 104.42296,305.82691 -0.47377,0.0338 -0.43993,0.0677 -0.43993,0.10153 -0.40609,0.16923 -0.38917,0.16922 -0.37225,0.23691 -0.33841,0.27076 -0.30456,0.3046 -0.27073,0.32152 -0.2538,0.35537 -0.20305,0.37229 -0.18612,0.40614 -0.13537,0.42305 -0.0677,0.43998 -0.0508,0.43998 v 0.47383 l 0.0508,0.43998 0.10152,0.47382 0.11845,0.42306 0.18612,0.40613 0.21997,0.42306 0.21996,0.38921 0.32149,0.37229 0.30456,0.33845 0.37225,0.3046 0.35533,0.27076 0.38917,0.21999 0.42301,0.18614 0.40609,0.1523 0.43993,0.11846 0.43993,0.0508 0.47377,0.0169 0.47377,-0.0169 0.43993,-0.0508 0.43993,-0.11846 0.38917,-0.1523 0.38917,-0.18614 0.38916,-0.21999 0.33841,-0.27076 0.30457,-0.3046 0.28765,-0.33845 0.2538,-0.37229 0.21997,-0.38921 0.1692,-0.42306 0.13536,-0.40613 0.0846,-0.42306 0.0169,-0.47382 v -0.43998 l -0.0508,-0.43998 -0.0677,-0.47383 -0.13536,-0.40613 -0.18612,-0.42306 -0.20305,-0.42306 -0.23688,-0.38921 -0.30457,-0.35537 -0.32149,-0.33844 -0.35533,-0.32153 -0.37224,-0.25383 -0.38917,-0.23691 -0.40609,-0.18615 -0.43993,-0.1523 -0.43993,-0.10153 -0.45685,-0.0508 z"
       id="path2849" />
    <path
       style="fill:#ffffff;fill-opacity:1;fill-rule:evenodd;stroke:none;stroke-width:0.264583"
       d="m 104.87981,314.3219 -0.38917,-0.0169 -0.38917,-0.0508 -0.35533,-0.11846 -0.37225,-0.11845 -0.32148,-0.16923 -0.33841,-0.16922 -0.32149,-0.23691 -0.30457,-0.27076 -0.28764,-0.28768 -0.23689,-0.3046 -0.20304,-0.32152 -0.18612,-0.35537 -0.15229,-0.33845 -0.13536,-0.38921 -0.0677,-0.37229 -0.0338,-0.38921 v -0.38921 l 0.0338,-0.38922 0.0677,-0.37229 0.10152,-0.35537 0.16921,-0.33844 0.15228,-0.32153 0.23688,-0.3046 0.21997,-0.28768 0.28764,-0.27075 0.28765,-0.21999 0.32149,-0.18615 0.32149,-0.18614 0.37224,-0.10154 0.35533,-0.10153 0.37225,-0.0508 0.38917,-0.0338 0.38917,0.0338 0.38917,0.0508 0.35532,0.10153 0.37225,0.10154 0.33841,0.18614 0.33841,0.18615 0.30456,0.21999 0.32149,0.27075 0.28765,0.28768 0.21996,0.3046 0.21997,0.32153 0.1692,0.33844 0.16921,0.35537 0.10152,0.37229 0.0677,0.38922 0.0508,0.38921 -0.0508,0.77842 -0.1692,0.72766 -0.32149,0.67689 -0.43993,0.57536 -0.57529,0.47383 -0.62606,0.37229 -0.71066,0.23691 z"
       id="path2851" />
    <path
       style="fill:#000000;fill-opacity:1;fill-rule:evenodd;stroke:none;stroke-width:0.264583"
       d="m 104.49064,306.94378 -0.69374,0.0846 -0.62605,0.20307 -0.57529,0.32152 -0.4907,0.40614 -0.38916,0.52459 -0.28765,0.57535 -0.1692,0.65997 -0.0338,0.69382 0.0338,0.33844 0.0677,0.33845 0.10152,0.33845 0.13536,0.32152 0.15229,0.28768 0.18612,0.3046 0.23689,0.25383 0.23688,0.27076 0.25381,0.23691 0.28764,0.18615 0.30457,0.16922 0.32149,0.13538 0.30456,0.13538 0.33841,0.0677 0.33841,0.0338 0.33841,0.0169 0.33841,-0.0169 0.3384,-0.0338 0.30457,-0.0677 0.32149,-0.13538 0.30456,-0.13538 0.25381,-0.16922 0.28765,-0.18615 0.23688,-0.23691 0.20305,-0.27076 0.18612,-0.25383 0.15228,-0.3046 0.13537,-0.28768 0.10152,-0.32152 0.0508,-0.33845 0.0338,-0.33845 v -0.33844 l -0.0338,-0.33845 -0.0677,-0.33844 -0.11844,-0.33845 -0.11845,-0.3046 -0.15228,-0.32152 -0.18613,-0.28768 -0.20304,-0.25384 -0.27073,-0.27075 -0.2538,-0.23692 -0.28765,-0.20307 -0.28764,-0.1523 -0.30457,-0.15229 -0.32149,-0.10154 -0.33841,-0.0846 -0.3384,-0.0508 z"
       id="path2853" />
    <path
       style="fill:#ffffff;fill-opacity:1;fill-rule:evenodd;stroke:none;stroke-width:0.264583"
       d="m 104.82905,313.17118 -0.27073,-0.0169 -0.27072,-0.0339 -0.28765,-0.0677 -0.21997,-0.0846 -0.27072,-0.10153 -0.23689,-0.1523 -0.21996,-0.16922 -0.21997,-0.16923 -0.1692,-0.21999 -0.18612,-0.20306 -0.15229,-0.23691 -0.13536,-0.25384 -0.10153,-0.23691 -0.0846,-0.27076 -0.0508,-0.27076 -0.0169,-0.27075 0.0169,-0.54152 0.13536,-0.52459 0.20305,-0.47382 0.33841,-0.40614 0.18612,-0.18614 0.20305,-0.1523 0.23688,-0.16922 0.23689,-0.10154 0.2538,-0.0677 0.23689,-0.0846 0.28765,-0.0338 0.2538,-0.0169 0.25381,0.0169 0.28764,0.0338 0.27073,0.0846 0.2538,0.0677 0.23689,0.10154 0.25381,0.16922 0.23688,0.1523 0.20305,0.18614 0.18612,0.20307 0.18612,0.20307 0.15229,0.23691 0.13536,0.23691 0.10152,0.25384 0.0677,0.27075 0.0508,0.28768 0.0338,0.25384 -0.0338,0.54151 -0.11844,0.52459 -0.23688,0.47383 -0.32149,0.42305 -0.38917,0.33845 -0.43993,0.25383 -0.50761,0.1523 z"
       id="path2855" />
    <path
       style="fill:#000000;fill-opacity:1;fill-rule:evenodd;stroke:none;stroke-width:0.264583"
       d="m 132.69691,305.82691 -0.47377,0.0338 -0.43993,0.0677 -0.43993,0.10153 -0.40609,0.16923 -0.38916,0.16922 -0.37225,0.23691 -0.33841,0.27076 -0.30457,0.3046 -0.27072,0.32152 -0.25381,0.35537 -0.20304,0.37229 -0.15229,0.40614 -0.13536,0.42305 -0.10152,0.43998 -0.0338,0.43998 v 0.47383 l 0.0508,0.43998 0.0846,0.47382 0.13536,0.42306 0.16921,0.40613 0.21996,0.42306 0.21997,0.38921 0.32148,0.37229 0.30457,0.33845 0.37225,0.3046 0.35533,0.27076 0.38917,0.21999 0.423,0.18614 0.43993,0.1523 0.43994,0.11846 0.43992,0.0508 0.47377,0.0169 0.43993,-0.0169 0.43994,-0.0508 0.43992,-0.11846 0.40609,-0.1523 0.37225,-0.18614 0.38917,-0.21999 0.33841,-0.27076 0.30456,-0.3046 0.28765,-0.33845 0.25381,-0.37229 0.21996,-0.38921 0.18613,-0.42306 0.11844,-0.40613 0.0846,-0.42306 0.0169,-0.47382 v -0.43998 l -0.0508,-0.43998 -0.0677,-0.47383 -0.13536,-0.40613 -0.18613,-0.42306 -0.20304,-0.42306 -0.23689,-0.38921 -0.30457,-0.35537 -0.32148,-0.33844 -0.35533,-0.32153 -0.37225,-0.25383 -0.38917,-0.23691 -0.40609,-0.18615 -0.43993,-0.1523 -0.43993,-0.10153 -0.43993,-0.0508 z"
       id="path2857" />
    <path
       style="fill:#ffffff;fill-opacity:1;fill-rule:evenodd;stroke:none;stroke-width:0.264583"
       d="m 133.17068,314.3219 -0.38917,-0.0169 -0.40608,-0.0508 -0.35533,-0.11846 -0.35533,-0.11845 -0.33841,-0.16923 -0.33841,-0.16922 -0.32148,-0.23691 -0.30457,-0.27076 -0.28765,-0.28768 -0.23688,-0.3046 -0.20305,-0.32152 -0.18612,-0.35537 -0.15228,-0.33845 -0.13537,-0.38921 -0.0677,-0.37229 -0.0338,-0.38921 v -0.38921 l 0.0338,-0.38922 0.0677,-0.37229 0.10153,-0.35537 0.1692,-0.33844 0.15228,-0.32153 0.23689,-0.3046 0.21996,-0.28768 0.28765,-0.27075 0.28765,-0.21999 0.32148,-0.18615 0.33841,-0.18614 0.35533,-0.10154 0.35533,-0.10153 0.37225,-0.0508 0.38916,-0.0338 0.38917,0.0338 0.38917,0.0508 0.35533,0.10153 0.37225,0.10154 0.33841,0.18614 0.3384,0.18615 0.30457,0.21999 0.32149,0.27075 0.28764,0.28768 0.21997,0.3046 0.21996,0.32153 0.16921,0.33844 0.1692,0.35537 0.10152,0.37229 0.0677,0.38922 0.0508,0.38921 -0.0508,0.77842 -0.1692,0.72766 -0.32149,0.67689 -0.43993,0.57536 -0.57529,0.47383 -0.60913,0.37229 -0.72758,0.23691 z"
       id="path2859" />
    <path
       style="fill:#000000;fill-opacity:1;fill-rule:evenodd;stroke:none;stroke-width:0.264583"
       d="m 132.78151,306.94378 -0.71065,0.0846 -0.62606,0.20307 -0.57529,0.32152 -0.49069,0.40614 -0.38917,0.52459 -0.28764,0.57535 -0.16921,0.65997 -0.0338,0.69382 0.0338,0.33844 0.0677,0.33845 0.10153,0.33845 0.13536,0.32152 0.15228,0.28768 0.18613,0.3046 0.23688,0.25383 0.23689,0.27076 0.2538,0.23691 0.28765,0.18615 0.30457,0.16922 0.32148,0.13538 0.30457,0.13538 0.33841,0.0677 0.33841,0.0338 0.3384,0.0169 0.33841,-0.0169 0.33841,-0.0338 0.30457,-0.0677 0.32148,-0.13538 0.30457,-0.13538 0.2538,-0.16922 0.28765,-0.18615 0.23689,-0.23691 0.20304,-0.27076 0.18613,-0.25383 0.15228,-0.3046 0.13536,-0.28768 0.10152,-0.32152 0.0508,-0.33845 0.0339,-0.33845 v -0.33844 l -0.0339,-0.33845 -0.0677,-0.33844 -0.10152,-0.33845 -0.13536,-0.3046 -0.15228,-0.32152 -0.18613,-0.28768 -0.20304,-0.25384 -0.27073,-0.27075 -0.25381,-0.23692 -0.28764,-0.20307 -0.28765,-0.1523 -0.30456,-0.15229 -0.32149,-0.10154 -0.33841,-0.0846 -0.33841,-0.0508 z"
       id="path2861" />
    <path
       style="fill:#ffffff;fill-opacity:1;fill-rule:evenodd;stroke:none;stroke-width:0.264583"
       d="m 133.103,313.17118 -0.27072,-0.0169 -0.27073,-0.0339 -0.28765,-0.0677 -0.21996,-0.0846 -0.27073,-0.10153 -0.23688,-0.1523 -0.21997,-0.16922 -0.21996,-0.16923 -0.16921,-0.21999 -0.18612,-0.20306 -0.15228,-0.23691 -0.13537,-0.25384 -0.10152,-0.23691 -0.0846,-0.27076 -0.0508,-0.27076 -0.0169,-0.27075 0.0169,-0.54152 0.13536,-0.52459 0.20305,-0.47382 0.3384,-0.40614 0.18613,-0.18614 0.20304,-0.1523 0.23689,-0.16922 0.23688,-0.10154 0.25381,-0.0677 0.23688,-0.0846 0.28765,-0.0338 0.25381,-0.0169 0.2538,0.0169 0.28765,0.0338 0.27072,0.0846 0.25381,0.0677 0.25381,0.10154 0.23688,0.16922 0.23689,0.1523 0.20304,0.18614 0.18612,0.20307 0.18613,0.20307 0.15228,0.23691 0.13537,0.23691 0.10152,0.25384 0.0677,0.27075 0.0508,0.28768 0.0338,0.25384 -0.0338,0.54151 -0.11844,0.52459 -0.23689,0.47383 -0.32149,0.42305 -0.38916,0.33845 -0.43993,0.25383 -0.50762,0.1523 z"
       id="path2863" />
    <path
       style="fill:#000000;fill-opacity:1;fill-rule:evenodd;stroke:none;stroke-width:0.264583"
       d="m 118.33151,303.40702 -0.67682,0.0677 -0.60913,0.21999 -0.57529,0.3046 -0.49069,0.42306 -0.38917,0.52459 -0.28765,0.57536 -0.18612,0.64304 -0.0169,0.71074 0.0169,0.33845 0.0846,0.33844 0.10152,0.3046 0.11845,0.32153 0.1692,0.3046 0.1692,0.28768 0.23689,0.25383 0.23688,0.27076 0.25381,0.23691 0.28765,0.20307 0.32148,0.1523 0.30457,0.16922 0.32149,0.10153 0.32148,0.0677 0.32149,0.0508 0.33841,0.0338 0.33841,-0.0338 0.3384,-0.0508 0.33841,-0.0677 0.30457,-0.10153 0.28765,-0.16922 0.28764,-0.1523 0.25381,-0.20307 0.23688,-0.23691 0.20305,-0.27076 0.18612,-0.25383 0.15229,-0.28768 0.13536,-0.3046 0.10152,-0.32153 0.0508,-0.3046 0.0338,-0.33844 v -0.33845 l -0.0338,-0.33845 -0.0677,-0.33844 -0.11844,-0.33845 -0.11844,-0.32152 -0.16921,-0.3046 -0.1692,-0.28768 -0.21997,-0.27076 -0.2538,-0.25383 -0.25381,-0.23692 -0.28765,-0.20306 -0.28764,-0.16923 -0.30457,-0.1523 -0.32149,-0.10153 -0.3384,-0.0846 -0.33841,-0.0508 z"
       id="path2865" />
    <path
       style="fill:#ffffff;fill-opacity:1;fill-rule:evenodd;stroke:none;stroke-width:0.264583"
       d="m 118.66992,309.60058 -0.25381,-0.0169 -0.28764,-0.0338 -0.25381,-0.0677 -0.27073,-0.0846 -0.21996,-0.10153 -0.23689,-0.1523 -0.23688,-0.16923 -0.20305,-0.16922 -0.18612,-0.21999 -0.18612,-0.20307 -0.15229,-0.23691 -0.13536,-0.23691 -0.10152,-0.25384 -0.0677,-0.23691 -0.0508,-0.28768 -0.0338,-0.25383 0.0338,-0.55844 0.11845,-0.50767 0.23688,-0.47382 0.30457,-0.42306 0.18612,-0.18614 0.20305,-0.1523 0.23688,-0.1523 0.23689,-0.10154 0.23688,-0.0846 0.25381,-0.0846 0.27073,-0.0169 0.2538,-0.0338 0.25381,0.0338 0.28764,0.0169 0.25381,0.0846 0.27072,0.0846 0.25381,0.10154 0.23689,0.1523 0.23688,0.1523 0.20305,0.18614 0.18612,0.20307 0.18612,0.21999 0.15229,0.23691 0.11844,0.23691 0.11844,0.25384 0.0677,0.25383 0.0508,0.27076 0.0338,0.28768 -0.0338,0.54151 -0.11844,0.52459 -0.23688,0.47383 -0.32149,0.38921 -0.38917,0.33845 -0.43993,0.25383 -0.50761,0.1523 z"
       id="path2867" />
    <path
       style="fill:#000000;fill-opacity:1;fill-rule:evenodd;stroke:none;stroke-width:0.264583"
       d="m 117.21477,305.40385 -0.15229,0.0846 -0.10152,0.0508 -0.0508,0.0338 v 0 l 0.0508,1.0661 1.03214,-0.10153 0.0846,2.26759 1.47207,0.0508 -0.20305,-4.0952 h -1.55667 l -0.0508,0.0846 -0.15229,0.20307 -0.18612,0.20307 z"
       id="path2869" />
    <path
       style="fill:#000000;fill-opacity:1;fill-rule:evenodd;stroke:none;stroke-width:0.264583"
       d="m 122.07091,290.563 -0.30456,0.0169 -0.25381,0.10153 -0.27073,0.13538 -0.20304,0.18615 -0.18612,0.23691 -0.11845,0.25383 -0.0846,0.28768 v 0.3046 l 0.0508,0.32153 0.10153,0.25383 0.15228,0.27076 0.18612,0.23691 0.13537,0.10153 0.11844,0.0677 0.13536,0.10154 0.13537,0.0677 0.15228,0.0508 0.13536,0.0508 0.15229,0.0169 h 0.15228 0.15228 l 0.13536,-0.0169 0.15229,-0.0508 0.13536,-0.0508 0.11844,-0.0677 0.13537,-0.10154 0.10152,-0.0677 0.10152,-0.10153 0.18613,-0.23691 0.13536,-0.27076 0.0677,-0.25383 v -0.32153 l -0.0508,-0.3046 -0.0677,-0.28768 -0.15228,-0.25383 -0.21997,-0.23691 -0.11844,-0.10154 -0.13537,-0.0846 -0.13536,-0.0846 -0.11844,-0.0677 -0.16921,-0.0508 -0.11844,-0.0338 -0.15228,-0.0169 z"
       id="path2871" />
    <path
       style="fill:#ffffff;fill-opacity:1;fill-rule:evenodd;stroke:none;stroke-width:0.264583"
       d="m 122.24012,293.32133 h -0.11844 l -0.11845,-0.0338 -0.10152,-0.0169 -0.13536,-0.0508 -0.10152,-0.0508 -0.10153,-0.0677 -0.11844,-0.0677 -0.10152,-0.0846 -0.15229,-0.18614 -0.13536,-0.20307 -0.0677,-0.23692 -0.0338,-0.23691 V 291.866 l 0.0508,-0.23691 0.11844,-0.21999 0.15229,-0.16922 0.0677,-0.0846 0.10152,-0.0846 0.0846,-0.0508 0.10153,-0.0508 0.10152,-0.0508 0.13536,-0.0169 0.10152,-0.0338 h 0.13537 0.13536 l 0.11844,0.0338 0.10152,0.0169 0.13537,0.0508 0.10152,0.0508 0.10152,0.0508 0.0846,0.0846 0.10152,0.0846 0.15229,0.16922 0.13536,0.21999 0.0677,0.23691 0.0338,0.21999 v 0.23691 l -0.0508,0.23692 -0.10152,0.20307 -0.13536,0.18614 -0.18613,0.1523 -0.20304,0.11846 -0.23689,0.0677 z"
       id="path2873" />
    <path
       style="fill:#000000;fill-opacity:1;fill-rule:evenodd;stroke:none;stroke-width:0.264583"
       d="m 121.58022,291.44296 -0.0508,0.0169 -0.0508,0.0338 -0.0338,0.0169 v 0 l 0.0338,0.47382 0.43993,-0.0508 0.0508,1.01534 0.6599,0.0338 -0.0846,-1.82761 h -0.69373 l -0.0338,0.0169 -0.0508,0.11846 -0.10152,0.0677 z"
       id="path2875" />
    <path
       style="fill:#000000;fill-opacity:1;fill-rule:evenodd;stroke:none;stroke-width:0.264583"
       d="m 117.48549,296.31658 h 0.0169 l 0.0846,0.0169 0.13537,0.0677 0.15228,0.0169 h 0.1692 0.18613 l 0.18612,-0.0169 0.15229,-0.0846 0.27072,-0.20307 0.16921,-0.16922 0.13536,-0.11846 0.0169,-0.0508 -0.0169,0.20307 -0.0846,0.47382 -0.16921,0.43999 -0.3384,0.18614 -0.21997,-0.0677 -0.1692,-0.0677 -0.18613,-0.13538 -0.15228,-0.13537 -0.16921,-0.11846 -0.10152,-0.13538 -0.0508,-0.0846 z"
       id="path2877" />
    <path
       style="fill:#000000;fill-opacity:1;fill-rule:evenodd;stroke:none;stroke-width:0.264583"
       d="m 88.833209,237.53844 0.0273,-0.57322 0.0546,-0.62781 0.10919,-0.62781 0.16377,-0.57322 0.16378,-0.54593 0.24567,-0.51863 0.27296,-0.40944 0.35485,-0.32755 0.60051,-0.40944 0.65511,-0.40944 0.7097,-0.43674 0.76429,-0.38215 0.7643,-0.35485 0.87347,-0.35485 0.90077,-0.32755 0.90078,-0.35486 0.98266,-0.30025 1.00996,-0.27296 1.06455,-0.30026 1.091841,-0.24567 1.11915,-0.21837 1.14644,-0.24566 1.17373,-0.19107 1.25562,-0.19108 v 0 l 0.0546,-1.4194 h 2.45665 l -0.21837,3.65769 0.10919,0.0273 0.10918,0.0273 0.0819,0.0273 0.10918,0.0273 0.10919,0.0546 0.10918,0.0273 h 0.13648 l 0.10919,0.0273 -0.21837,-0.0819 1.09185,-1.80155 0.30025,-2.40206 -0.27296,-0.21837 -0.21837,-0.27296 -0.24566,-0.27296 -0.21837,-0.32756 -0.19108,-0.32755 -0.19107,-0.35485 -0.16377,-0.38215 -0.16378,-0.38214 -0.16378,2.94798 h -2.45665 l 0.24566,-4.34009 0.0273,-0.19107 0.0819,-0.16378 0.10918,-0.16377 0.13648,-0.16378 0.13648,-0.10919 0.16378,-0.0819 0.21837,-0.0546 0.16378,-0.0273 h 0.49133 0.10918 l 0.13648,0.0273 0.10919,0.0546 0.13648,0.0546 v 0 -0.0273 0 0 l 0.0546,-0.51863 0.10918,-0.51862 0.13648,-0.49133 0.19108,-0.46404 0.24566,-0.46403 0.27297,-0.40944 0.35485,-0.40945 0.35485,-0.38214 0.43673,-0.32756 0.43674,-0.32755 0.43674,-0.24567 0.46403,-0.21836 0.51863,-0.16378 0.49133,-0.13648 0.51863,-0.0819 0.51863,-0.0273 0.49133,0.0273 0.49133,0.0546 0.46403,0.13648 0.43674,0.13648 0.43674,0.19108 0.38215,0.21836 0.35485,0.24567 0.35485,0.32755 0.32755,0.30026 0.27296,0.35485 0.27296,0.35485 0.19108,0.40944 0.19107,0.40945 0.13648,0.43674 0.10919,0.46403 0.0546,0.49133 0.51863,0.43674 0.60051,0.54592 0.65511,0.62781 0.62781,0.62782 0.57322,0.6551 0.43674,0.60052 0.30026,0.57322 0.0546,0.49133 -0.0546,0.19107 -0.0819,0.13648 -0.13648,0.13648 -0.16378,0.10919 -0.21837,0.0819 -0.24566,0.10918 -0.27297,0.0819 -0.30025,0.0819 -0.30026,0.0819 -0.30026,0.0546 -0.32755,0.0546 -0.30026,0.0273 -0.30026,0.0546 -0.30026,0.0273 -0.30026,0.0546 -0.24566,0.0273 h -0.27296 l -0.24567,0.0273 -0.19107,0.0273 h -0.19107 l -0.27297,2.48395 v 0.0819 l 0.16378,-0.0546 0.16378,-0.0546 h 0.19107 l 0.16378,0.0546 0.10918,0.0273 0.0819,0.0273 0.0819,0.0273 0.0546,0.0273 1.52859,-2.04721 0.0273,-0.0273 0.0819,-0.0819 0.13648,-0.0819 0.13648,-0.0546 0.19108,-0.0546 h 0.13648 l 0.19107,0.0546 0.19107,0.0546 0.19108,0.13648 0.24566,0.32756 0.0819,0.32755 -0.0546,0.32756 -0.10919,0.21836 -0.0546,0.0819 -0.10918,0.16378 -0.19108,0.24567 -0.24566,0.30025 -0.21837,0.32756 -0.27296,0.32755 -0.21837,0.27296 -0.16378,0.24567 0.57322,-0.16378 0.49133,-0.19107 0.43674,-0.19108 0.38215,-0.21836 0.27296,-0.19108 0.24566,-0.24566 0.13648,-0.21837 0.0546,-0.27297 0.0273,-0.16377 v -0.16378 -0.16377 l -0.0273,-0.13649 -0.0273,-0.43673 0.40944,0.0546 0.79159,0.0819 0.76429,0.0819 0.79159,0.0819 0.76429,0.13648 0.7643,0.10919 0.73699,0.10918 0.7097,0.13648 0.737,0.13648 0.65511,0.13648 0.6824,0.16378 0.6824,0.16378 0.65511,0.16378 0.65511,0.16377 0.60052,0.19108 0.62781,0.19107 0.57322,0.19107 0.60051,0.19108 0.57322,0.21837 0.51863,0.19107 0.51863,0.24566 0.51862,0.21837 0.46404,0.24567 0.49133,0.21837 0.43674,0.24566 0.40944,0.24567 0.43674,0.27296 0.38214,0.24567 0.38215,0.24566 0.32755,0.30026 0.32756,0.24566 0.27296,0.30026 0.30026,0.27296 0.40944,0.79159 0.19107,1.03726 v 0.98266 l -0.0273,0.6824 -0.0546,0.54592 -0.10919,0.57322 -0.13648,0.54593 -0.16378,0.54592 -0.16377,0.51863 -0.24567,0.46403 -0.24567,0.40944 -0.30025,0.30026 -0.35485,0.30026 -0.40945,0.27296 -0.43673,0.24567 -0.43674,0.24566 -0.51863,0.19108 -0.51863,0.21836 -0.54592,0.16378 -0.57322,0.16378 -0.19107,0.46403 -0.19108,0.43674 -0.21836,0.43674 -0.27297,0.43674 -0.27296,0.40944 -0.30026,0.38215 -0.32755,0.38214 -0.38215,0.38215 -0.27296,0.24567 -0.32755,0.27296 -0.30026,0.21837 -0.32755,0.21837 -0.32756,0.19107 -0.35485,0.19107 -0.32755,0.13648 -0.38215,0.16378 -0.32755,0.13648 -0.38215,0.10918 -0.35485,0.0819 -0.38214,0.0819 -0.38215,0.0819 -0.38215,0.0546 -0.38214,0.0273 h -0.38215 -0.38214 l -0.38215,-0.0273 -0.38215,-0.0546 -0.38214,-0.0819 -0.35485,-0.0819 -0.35485,-0.0819 -0.35485,-0.10918 -0.32756,-0.13648 -0.35485,-0.16378 -0.30026,-0.13648 -0.32755,-0.19107 -0.30026,-0.19107 -0.30025,-0.21837 -0.30026,-0.21837 -0.27296,-0.27296 -0.27297,-0.24567 -0.24566,-0.30026 -0.27296,-0.30025 -0.21837,-0.32756 -0.21837,-0.32755 -0.19107,-0.35485 -0.16378,-0.32756 -0.13648,-0.35485 -0.13648,-0.35485 h -0.43674 l -0.40944,-0.0273 h -0.40945 -0.43673 l -0.40945,-0.0273 h -0.40944 -0.43674 l -0.40944,-0.0273 h -0.40944 -0.46404 -0.40944 l -0.43674,-0.0273 h -0.43674 -0.43673 -0.40945 -0.46403 -0.46403 -0.46404 -0.46404 l -0.49133,0.0273 h -0.46403 -0.46404 l -0.46403,0.0273 h -0.46403 l -0.43674,0.0273 -0.46404,0.0273 h -0.46403 l -0.43674,0.0273 -0.43674,0.0273 h -0.46404 -0.43673 l -0.43674,0.0273 -0.16378,0.38215 -0.19107,0.32755 -0.19108,0.32755 -0.24566,0.30026 -0.24567,0.35485 -0.24566,0.27297 -0.27296,0.30025 -0.27297,0.30026 -0.30025,0.24567 -0.30026,0.27296 -0.32755,0.21837 -0.30026,0.21837 -0.35485,0.19107 -0.32756,0.19107 -0.35484,0.13648 -0.35486,0.16378 -0.35484,0.13648 -0.35486,0.10918 -0.38214,0.0819 -0.38215,0.0819 -0.35485,0.0819 -0.40944,0.0546 -0.354851,0.0273 h -0.40944 -0.38215 l -0.35485,-0.0273 -0.40944,-0.0546 -0.35485,-0.0819 -0.38215,-0.0819 -0.35485,-0.0819 -0.35485,-0.10918 -0.32755,-0.13648 -0.32756,-0.16378 -0.32755,-0.13648 -0.32755,-0.19107 -0.30026,-0.19107 -0.32755,-0.21837 -0.27297,-0.21837 -0.27296,-0.27296 -0.24566,-0.24567 -0.32756,-0.35485 -0.27296,-0.38215 -0.27296,-0.35485 -0.24566,-0.40944 -0.19108,-0.40944 -0.19107,-0.40944 -0.16378,-0.43674 -0.10918,-0.43674 -0.30026,-0.10919 -0.27296,-0.13648 -0.24567,-0.0819 -0.27296,-0.13648 -0.24567,-0.13648 -0.24566,-0.13648 -0.24567,-0.10918 -0.19107,-0.16378 -0.43674,-0.38214 -0.32755,-0.49133 -0.30026,-0.60052 -0.19107,-0.62781 -0.16378,-0.7097 -0.10918,-0.7097 -0.0546,-0.7097 z"
       id="path2879" />
    <path
       style="fill:#ffffff;fill-opacity:1;fill-rule:evenodd;stroke:none;stroke-width:0.264583"
       d="m 90.279909,234.2629 0.62781,-0.38215 0.7097,-0.40944 0.737,-0.38215 0.76429,-0.35485 0.84618,-0.35485 0.87348,-0.32755 0.87348,-0.35485 0.92806,-0.30026 0.95537,-0.30026 1.00996,-0.30025 1.00996,-0.24567 1.037251,-0.24567 1.03725,-0.24566 1.06455,-0.19107 1.09185,-0.21837 1.06455,-0.16378 -0.0273,-0.0819 v -0.10918 l -0.0273,-0.10919 v -0.10918 l -1.14644,0.19107 -1.11914,0.19107 -1.09185,0.21837 -1.06455,0.21837 -1.037251,0.27296 -1.00996,0.24567 -0.95537,0.30026 -0.92807,0.30025 -0.87347,0.30026 -0.87348,0.32756 -0.81888,0.35485 -0.7643,0.32755 -0.7097,0.38215 -0.6824,0.35485 -0.60052,0.38214 -0.57322,0.43674 -0.10918,0.0546 -0.0546,0.10919 -0.0819,0.10918 z"
       id="path2881" />
    <path
       style="fill:#ffffff;fill-opacity:1;fill-rule:evenodd;stroke:none;stroke-width:0.264583"
       d="m 107.03975,222.30718 h -0.49133 -0.10919 l -0.0819,0.0546 -0.0819,0.10919 -0.0273,0.10918 -0.38215,7.1243 v 0 l 0.0546,0.0819 0.10918,0.0819 0.10919,0.0546 0.13648,0.0819 0.13648,0.0819 0.13648,0.0819 0.13648,0.0819 0.16378,0.0546 0.43674,-7.72481 -0.0273,-0.10918 -0.0546,-0.10919 -0.0546,-0.0546 z"
       id="path2883" />
    <path
       style="fill:#ffffff;fill-opacity:1;fill-rule:evenodd;stroke:none;stroke-width:0.264583"
       d="m 115.2286,231.28762 0.0819,-0.0819 0.0819,-0.13648 0.0819,-0.16378 0.0819,-0.13648 0.13648,-0.19107 0.13648,-0.19108 0.13648,-0.13648 0.16378,-0.19107 v -0.21837 l -6.33271,-0.46403 -0.95536,1.52858 0.27296,0.0546 0.24566,0.0546 0.27297,0.0546 0.27296,0.0273 0.30025,0.0546 0.27297,0.0273 0.30025,0.0273 0.27296,0.0273 0.32756,0.0273 0.30026,0.0273 h 0.32755 l 0.30026,0.0273 h 0.32755 l 0.32756,0.0273 h 0.32755 0.32755 0.21838 0.21836 0.19108 l 0.19107,-0.0273 h 0.21837 0.19107 l 0.19107,-0.0273 z"
       id="path2885" />
    <path
       style="fill:#11c126;fill-opacity:1;fill-rule:evenodd;stroke:none;stroke-width:0.264583"
       d="m 113.0722,217.2301 -0.46403,0.0273 -0.43674,0.0546 -0.46404,0.10919 -0.40944,0.16378 -0.40944,0.19107 -0.40944,0.21837 -0.35485,0.27296 -0.38215,0.30026 -0.30026,0.32755 -0.30026,0.35485 -0.24566,0.38215 -0.21837,0.40944 -0.19107,0.40944 -0.10919,0.40945 -0.0819,0.43673 -0.0546,0.43674 0.0273,0.60052 0.10918,0.6824 0.16378,0.62781 0.24567,0.62781 0.32755,0.60052 0.32755,0.51863 0.38215,0.43673 0.43674,0.30026 0.13648,0.0819 0.13648,0.0546 0.13648,0.0273 0.13648,0.0273 h 0.16378 l 0.10918,-0.0273 0.13648,-0.0546 0.13648,-0.0546 0.51863,-0.40945 0.43674,-0.57322 0.30026,-0.65511 0.21837,-0.62781 0.13648,-0.62781 0.10918,-0.51862 0.0546,-0.35485 v -0.10919 l 0.0546,-0.27296 0.0819,-0.24567 0.13648,-0.24566 0.19107,-0.19107 0.0819,-0.0819 0.13648,-0.0819 0.10918,-0.0819 0.13648,-0.0546 0.10919,-0.0546 h 0.10918 l 0.13648,-0.0273 h 0.13648 2.81151 l -0.0819,-0.40944 -0.0819,-0.38215 -0.13648,-0.35485 -0.19107,-0.35485 -0.16378,-0.30026 -0.24566,-0.32755 -0.24567,-0.27296 -0.24567,-0.27296 -0.32755,-0.24567 -0.30026,-0.19107 -0.35485,-0.19107 -0.32755,-0.16378 -0.38215,-0.10919 -0.38214,-0.0819 -0.38215,-0.0546 z"
       id="path2887" />
    <path
       style="fill:#ffffff;fill-opacity:1;fill-rule:evenodd;stroke:none;stroke-width:0.264583"
       d="m 121.15186,225.61002 -0.0273,-0.19108 -0.16378,-0.35485 -0.30026,-0.43674 -0.46403,-0.51862 -0.51863,-0.54593 -0.62781,-0.62781 -0.7097,-0.62781 -0.737,-0.65511 h -3.08446 l -0.13648,0.0273 -0.13648,0.0273 -0.0819,0.0546 -0.10919,0.0819 -0.0819,0.0819 -0.0819,0.10919 -0.0273,0.13648 -0.0273,0.13648 -0.0273,0.16378 -0.0546,0.43674 -0.10919,0.57322 -0.16378,0.6824 -0.27296,0.737 -0.38214,0.7097 -0.51863,0.6551 -0.62781,0.49134 -0.19108,0.0546 -0.19107,0.0819 -0.16378,0.0546 -0.16377,0.0273 h -0.19108 -0.19107 l -0.19107,-0.0546 -0.16378,-0.0546 -0.21837,1.82884 6.14164,0.46404 0.32755,-2.81151 h 0.32755 v 0 h 0.10919 l 0.16378,-0.0273 h 0.21837 0.24566 l 0.30026,-0.0273 0.30026,-0.0273 0.35485,-0.0273 0.32755,-0.0546 0.38215,-0.0546 0.35485,-0.0546 0.35485,-0.0819 0.32755,-0.0819 0.32755,-0.0546 0.27297,-0.10918 0.27296,-0.10919 0.0273,-0.0273 v 0 z"
       id="path2889" />
    <path
       style="fill:#ffffff;fill-opacity:1;fill-rule:evenodd;stroke:none;stroke-width:0.264583"
       d="m 117.27581,230.16847 h -0.0819 l -0.10918,0.0273 -0.13648,0.0546 -0.13649,0.0819 v 0.0546 l -0.0546,0.0273 -0.19107,0.19107 -0.16378,0.16378 -0.19107,0.24566 -0.13648,0.21838 0.30026,-0.0273 h 0.32755 l 0.30026,-0.0546 0.32755,-0.0273 0.27296,-0.0546 0.30026,-0.0546 0.27296,-0.0546 0.30026,-0.0546 -0.76429,-0.24566 0.0819,-0.24567 -0.0546,-0.0546 -0.10919,-0.0546 -0.13648,-0.0546 z"
       id="path2891" />
    <path
       style="fill:#ffffff;fill-opacity:1;fill-rule:evenodd;stroke:none;stroke-width:0.264583"
       d="m 120.14191,228.09397 -0.0819,-0.0546 -0.0546,-0.0273 h -0.0819 l -0.0819,0.0546 -1.47399,1.93803 0.0273,0.0273 0.0273,0.0546 0.0273,0.0273 v 0.0546 l 0.32755,0.13648 1.44669,-1.91073 0.0273,-0.0546 v -0.0819 l -0.0273,-0.0819 z"
       id="path2893" />
    <path
       style="fill:#ffffff;fill-opacity:1;fill-rule:evenodd;stroke:none;stroke-width:0.264583"
       d="m 122.57126,229.13122 1.20104,0.13648 1.14643,0.16378 1.09185,0.13648 1.09185,0.19107 1.06455,0.16378 1.00995,0.21837 1.00996,0.19107 0.95537,0.24567 0.92807,0.21837 0.87347,0.24566 0.84618,0.27296 0.84619,0.27296 0.76429,0.27297 0.73699,0.30025 0.7097,0.32756 0.65511,0.30026 -0.65511,-0.35485 -0.6824,-0.35485 -0.737,-0.35485 -0.76429,-0.30026 -0.81888,-0.30026 -0.84618,-0.32755 -0.87348,-0.24567 -0.95537,-0.27296 -0.95536,-0.24567 -1.00996,-0.24566 -1.00996,-0.21837 -1.06455,-0.19107 -1.09184,-0.19108 -1.11915,-0.19107 -1.11914,-0.13648 -1.20103,-0.13648 v 0.10918 0.10919 0.0819 z"
       id="path2895" />
    <path
       style="fill:#193800;fill-opacity:1;fill-rule:evenodd;stroke:none;stroke-width:0.264583"
       d="m 128.08509,248.21123 h 0.32755 l 0.38215,-0.0273 0.32755,-0.0546 0.35485,-0.0546 0.32755,-0.0546 0.35486,-0.10918 0.32755,-0.10919 0.32755,-0.10918 0.32756,-0.13648 0.32755,-0.16378 0.27296,-0.16378 0.32756,-0.16377 0.27296,-0.21837 0.30026,-0.19108 0.27296,-0.24566 0.27296,-0.21837 0.49133,-0.51863 0.43674,-0.54592 0.40944,-0.60052 0.30026,-0.57322 0.27296,-0.65511 0.21837,-0.62781 0.10918,-0.6824 0.0819,-0.6824 v -0.7097 l -0.0546,-0.65511 -0.10918,-0.65511 -0.21837,-0.62781 -0.24567,-0.60052 -0.32755,-0.60051 -0.38215,-0.51863 -0.43674,-0.51862 -0.24566,-0.24567 -0.24567,-0.21837 -0.27296,-0.21837 -0.24566,-0.19107 -0.30026,-0.19108 -0.27296,-0.16377 -0.30026,-0.13648 -0.30026,-0.16378 -0.32755,-0.10919 -0.30026,-0.0819 -0.35485,-0.10919 -0.30026,-0.0819 -0.35485,-0.0546 -0.32755,-0.0546 -0.38215,-0.0273 h -0.32755 -0.35485 l -0.35485,0.0273 -0.35485,0.0546 -0.32756,0.0546 -0.35485,0.0819 -0.32755,0.10919 -0.35485,0.0819 -0.30026,0.10919 -0.35485,0.16378 -0.30026,0.13648 -0.30026,0.16377 -0.30025,0.19108 -0.30026,0.19107 -0.27296,0.21837 -0.30026,0.21837 -0.24566,0.24567 -0.51863,0.51862 -0.43674,0.51863 -0.35485,0.60051 -0.35485,0.60052 -0.24567,0.62781 -0.21836,0.65511 -0.13649,0.65511 -0.0819,0.7097 v 0.6824 l 0.0819,0.7097 0.13649,0.65511 0.19107,0.62781 0.27296,0.60051 0.32755,0.57322 0.35485,0.54593 0.43674,0.49133 0.49133,0.43674 0.49133,0.40944 0.57322,0.32756 0.60052,0.30025 0.62781,0.24567 0.65511,0.16377 0.7097,0.10919 z"
       id="path2897" />
    <path
       style="fill:#193800;fill-opacity:1;fill-rule:evenodd;stroke:none;stroke-width:0.264583"
       d="m 99.560599,248.21123 h 0.35485 l 0.354851,-0.0273 0.35485,-0.0546 0.32756,-0.0546 0.35485,-0.0546 0.32755,-0.10918 0.35485,-0.10919 0.30026,-0.10918 0.35485,-0.13648 0.30026,-0.16378 0.30025,-0.16378 0.30026,-0.16377 0.30026,-0.21837 0.27296,-0.19108 0.30026,-0.24566 0.24566,-0.21837 0.51863,-0.51863 0.43674,-0.54592 0.35485,-0.60052 0.35485,-0.57322 0.24567,-0.65511 0.21837,-0.62781 0.13648,-0.6824 0.0819,-0.6824 v -0.7097 l -0.0546,-0.65511 -0.13648,-0.65511 -0.21837,-0.62781 -0.21837,-0.60052 -0.35485,-0.60051 -0.35485,-0.51863 -0.43674,-0.51862 -0.24566,-0.24567 -0.27296,-0.21837 -0.24567,-0.21837 -0.27296,-0.19107 -0.27296,-0.19108 -0.30026,-0.16377 -0.30026,-0.13648 -0.30025,-0.16378 -0.32756,-0.10919 -0.30026,-0.0819 -0.35485,-0.10919 -0.30025,-0.0819 -0.32756,-0.0546 -0.35485,-0.0546 -0.35485,-0.0273 h -0.35485 -0.32755 l -0.382151,0.0273 -0.32755,0.0546 -0.35485,0.0546 -0.32756,0.0819 -0.35484,0.10919 -0.32756,0.0819 -0.32755,0.10919 -0.32756,0.16378 -0.32755,0.13648 -0.27296,0.16377 -0.32756,0.19108 -0.27296,0.19107 -0.30026,0.21837 -0.27296,0.21837 -0.27296,0.24567 -0.49133,0.51862 -0.43674,0.51863 -0.38214,0.60051 -0.32756,0.60052 -0.27296,0.62781 -0.21837,0.65511 -0.10918,0.65511 -0.0819,0.7097 v 0.6824 l 0.0819,0.7097 0.10918,0.65511 0.19107,0.62781 0.30026,0.60051 0.30026,0.57322 0.38214,0.54593 0.40945,0.49133 0.49133,0.43674 0.49133,0.40944 0.60051,0.32756 0.60052,0.30025 0.62781,0.24567 0.65511,0.16377 0.6824,0.10919 z"
       id="path2899" />
    <path
       style="fill:#11c126;fill-opacity:1;fill-rule:evenodd;stroke:none;stroke-width:0.264583"
       d="m 89.515619,237.51114 0.0273,0.76429 0.0546,0.7097 0.10918,0.65511 0.16378,0.60052 0.16378,0.57322 0.24566,0.46403 0.24567,0.35485 0.30025,0.27296 0.16378,0.10919 0.16378,0.10918 0.19107,0.10919 0.16378,0.0819 0.21837,0.0819 0.16377,0.10919 0.19108,0.10918 0.21836,0.0819 -0.0546,-0.38214 -0.0273,-0.32756 v -0.35485 l 0.0273,-0.32755 0.0819,-0.7643 0.13648,-0.73699 0.21837,-0.7097 0.30026,-0.7097 0.35485,-0.65511 0.40944,-0.65511 0.51863,-0.57322 0.54592,-0.57322 0.27296,-0.27296 0.32756,-0.24566 0.27296,-0.21837 0.35485,-0.21837 0.30026,-0.21837 0.35485,-0.16378 0.32755,-0.19107 0.38215,-0.13648 0.32755,-0.13648 0.38215,-0.10919 0.35485,-0.10918 0.38214,-0.0546 0.38215,-0.0819 0.38215,-0.0546 0.38214,-0.0273 h 0.382151 l 0.79159,0.0546 0.76429,0.10919 0.73699,0.16377 0.68241,0.27296 0.65511,0.32756 0.62781,0.38214 0.57322,0.43674 0.51862,0.49133 0.46404,0.54593 0.40944,0.57322 0.38215,0.62781 0.27296,0.65511 0.21837,0.7097 0.16378,0.7097 0.0819,0.79158 v 0.7643 l -0.0546,0.54592 -0.10918,0.51863 -0.13648,0.54592 -0.16378,0.51863 0.43674,-0.0273 h 0.40944 l 0.43674,-0.0273 0.43674,-0.0273 0.43674,-0.0273 h 0.43673 l 0.43674,-0.0273 0.43674,-0.0273 h 0.43674 l 0.46403,-0.0273 h 0.43674 0.46404 l 0.43674,-0.0273 h 0.46403 0.46404 0.43673 0.43674 0.40945 0.43673 0.43674 l 0.38215,0.0273 h 0.40944 0.43674 0.40944 l 0.40944,0.0273 h 0.40945 0.38214 l 0.43674,0.0273 h 0.38215 0.40944 l 0.40944,0.0273 h 0.38215 l -0.0819,-0.49133 -0.0819,-0.51862 -0.0273,-0.49134 0.0273,-0.51862 0.0819,-0.7643 0.16378,-0.73699 0.21837,-0.7097 0.27296,-0.7097 0.38214,-0.65511 0.40945,-0.65511 0.49133,-0.57322 0.54592,-0.57322 0.30026,-0.27296 0.30026,-0.24566 0.32755,-0.21837 0.30026,-0.21837 0.35485,-0.21837 0.30025,-0.16378 0.38215,-0.19107 0.32755,-0.13648 0.38215,-0.13648 0.32755,-0.10919 0.38215,-0.10918 0.38215,-0.0546 0.35485,-0.0819 0.40944,-0.0546 0.35485,-0.0273 h 0.40944 l 0.76429,0.0546 0.7643,0.10919 0.73699,0.16377 0.7097,0.27296 0.65511,0.32756 0.62781,0.38214 0.54593,0.43674 0.51862,0.49133 0.49133,0.54593 0.40945,0.57322 0.35485,0.62781 0.30026,0.65511 0.21836,0.7097 0.13648,0.7097 0.0819,0.79158 v 0.7643 l -0.0273,0.32755 -0.0546,0.30026 -0.0546,0.35485 -0.0546,0.32755 0.46404,-0.16377 0.46403,-0.13648 0.40944,-0.19108 0.40945,-0.19107 0.38214,-0.19107 0.38215,-0.24567 0.30025,-0.21837 0.32756,-0.24566 0.19107,-0.19108 0.19107,-0.30026 0.19108,-0.38214 0.16377,-0.40944 0.10919,-0.46404 0.13648,-0.51863 0.10918,-0.54592 0.0546,-0.60051 0.0546,-0.60052 v -0.51863 l -0.0546,-0.49133 -0.0546,-0.46403 v 0 l -0.27296,-0.27296 -0.24566,-0.24567 -0.32756,-0.24567 -0.30025,-0.24566 -0.35486,-0.21837 -0.35484,-0.24567 -0.40945,-0.21836 -0.40944,-0.24567 -0.40944,-0.21837 -0.49133,-0.21837 -0.46404,-0.19107 -0.49133,-0.21837 -0.49133,-0.21837 -0.51863,-0.19107 -0.57322,-0.21837 -0.57321,-0.16378 -0.60052,-0.19107 -0.60052,-0.16378 -0.60051,-0.16378 -0.65511,-0.19107 -0.65511,-0.13648 -0.65511,-0.16378 -0.6824,-0.16377 -0.7097,-0.10919 -0.7097,-0.13648 -0.7097,-0.13648 -0.76429,-0.10919 -0.76429,-0.10918 -0.7643,-0.10918 -0.79158,-0.10919 -0.7643,-0.10918 -0.81888,-0.0546 -0.0819,0.0819 -0.10918,0.13648 -0.10919,0.10919 -0.10918,0.13648 -0.13648,0.0819 -0.16378,0.10918 -0.16378,0.10919 -0.16378,0.10918 -0.6824,0.30026 -0.79159,0.27296 -0.90077,0.24567 -0.95537,0.16377 -1.06455,0.13649 -1.06455,0.13648 -1.11914,0.0546 -1.14644,0.0273 -1.14644,-0.0273 -1.09184,-0.0546 -1.06455,-0.13648 -1.03726,-0.13649 -0.95536,-0.16377 -0.87348,-0.24567 -0.76429,-0.27296 -0.62781,-0.30026 -0.19108,-0.13648 -0.21837,-0.16378 -0.16377,-0.10918 -0.16378,-0.16378 h -0.10919 l -1.17373,0.19107 -1.14644,0.19108 -1.14644,0.24566 -1.11914,0.24567 -1.091851,0.24567 -1.09184,0.32755 -1.03726,0.30026 -1.00995,0.32755 -0.98267,0.35485 -0.92806,0.38215 -0.87348,0.35485 -0.84618,0.40944 -0.81889,0.38214 -0.7097,0.40945 -0.6824,0.40944 -0.60051,0.43674 -0.0273,-0.0819 -0.13648,0.49133 -0.10919,0.57322 -0.0819,0.60052 z"
       id="path2901" />
    <path
       style="fill:#000000;fill-opacity:1;fill-rule:evenodd;stroke:none;stroke-width:0.264583"
       d="m 118.14929,222.85311 h 0.0273 0.0546 l 0.0273,0.0273 h 0.0546 l -0.16377,0.10919 -0.13648,0.19107 -0.10919,0.19107 -0.0273,0.27296 v 0 0.0546 0.0273 0.0546 l 0.0546,-0.13648 0.0819,-0.10918 0.10918,-0.0819 0.10918,-0.0273 0.16378,0.0546 0.10919,0.10918 0.0819,0.13648 v 0.19107 l -0.0546,0.19108 -0.0819,0.13648 -0.10919,0.10918 -0.16378,0.0546 v 0 0 0 0 h -0.0273 -0.0273 -0.0273 v 0 l -0.24566,-0.0546 -0.19107,-0.19107 -0.10919,-0.21837 -0.0273,-0.30026 0.0546,-0.32755 0.16378,-0.21837 0.19107,-0.19107 z"
       id="path2903" />
    <path
       style="fill:#000000;fill-opacity:1;fill-rule:evenodd;stroke:none;stroke-width:0.264583"
       d="m 115.47426,224.43628 v 0 0 0 h -0.0273 l -0.0273,0.0273 h -0.0273 v 0 h -0.0273 l -0.24567,-0.0546 -0.16377,-0.19107 -0.0819,-0.24566 -0.0273,-0.30026 0.0273,-0.30026 0.13648,-0.21837 0.19107,-0.19107 0.24567,-0.0546 h 0.0273 0.0546 v 0 l 0.0546,0.0273 -0.13648,0.10919 -0.16378,0.16377 -0.10918,0.21837 -0.0273,0.24567 -0.0273,0.0273 v 0.0546 0.0273 l 0.0273,0.0273 0.0546,-0.13648 0.0819,-0.0819 0.10918,-0.0819 0.13648,-0.0273 0.10919,0.0273 0.10919,0.10919 0.0819,0.13648 0.0273,0.21837 -0.0546,0.16377 -0.0819,0.16378 -0.10919,0.10918 z"
       id="path2905" />
    <path
       style="fill:#000000;fill-opacity:1;fill-rule:evenodd;stroke:none;stroke-width:0.264583"
       d="m 128.7402,236.77414 0.46403,0.0273 0.43674,0.0819 0.46403,0.0819 0.40945,0.16378 0.40944,0.19107 0.35485,0.21837 0.32755,0.27296 0.32756,0.30026 0.27296,0.30025 0.24566,0.35485 0.21837,0.38215 0.16378,0.40944 0.13648,0.40944 0.0819,0.43674 0.0546,0.43674 v 0.46404 l -0.0546,0.43674 -0.10919,0.46403 -0.10918,0.40944 -0.19107,0.40944 -0.21837,0.40945 -0.21837,0.38214 -0.32756,0.35485 -0.32755,0.35485 -0.35485,0.30026 -0.35485,0.24567 -0.40944,0.24566 -0.40944,0.16378 -0.40945,0.16378 -0.46403,0.10918 -0.43674,0.0546 -0.46403,0.0273 -0.49134,-0.0273 -0.43673,-0.0546 -0.43674,-0.10918 -0.40945,-0.16378 -0.38214,-0.16378 -0.38215,-0.24566 -0.35485,-0.24567 -0.30026,-0.30026 -0.30025,-0.35485 -0.24567,-0.35485 -0.21837,-0.38214 -0.19107,-0.40945 -0.13648,-0.40944 -0.0819,-0.40944 -0.0273,-0.46403 v -0.43674 l 0.0546,-0.43674 0.0819,-0.46404 0.13649,-0.40944 0.19107,-0.40944 0.19107,-0.40944 0.24567,-0.40945 0.32755,-0.35485 0.30026,-0.32755 0.38214,-0.30026 0.35486,-0.27296 0.38214,-0.21837 0.43674,-0.19107 0.43674,-0.13648 0.43674,-0.10919 0.46403,-0.0546 z"
       id="path2907" />
    <path
       style="fill:#ffffff;fill-opacity:1;fill-rule:evenodd;stroke:none;stroke-width:0.264583"
       d="m 128.27616,245.15406 0.38215,-0.0273 0.38214,-0.0546 0.38215,-0.10919 0.35485,-0.10918 0.35485,-0.16378 0.32755,-0.16378 0.32756,-0.24566 0.30025,-0.24567 0.30026,-0.30026 0.21837,-0.30025 0.21837,-0.30026 0.19108,-0.38215 0.16377,-0.32755 0.10919,-0.38215 0.0819,-0.35485 0.0273,-0.38214 v -0.38215 l -0.0273,-0.38215 -0.0819,-0.38214 -0.0819,-0.35485 -0.16378,-0.32756 -0.16378,-0.30025 -0.24566,-0.32756 -0.21837,-0.27296 -0.30026,-0.27296 -0.27296,-0.21837 -0.32755,-0.19107 -0.32756,-0.16378 -0.38215,-0.10918 -0.35484,-0.10919 -0.38215,-0.0546 -0.38215,-0.0273 -0.38214,0.0273 -0.40945,0.0546 -0.35484,0.10919 -0.38215,0.10918 -0.32755,0.16378 -0.35486,0.19107 -0.30025,0.21837 -0.32756,0.27296 -0.27296,0.27296 -0.24566,0.32756 -0.19108,0.30025 -0.19107,0.32756 -0.16378,0.35485 -0.10918,0.38214 -0.0819,0.38215 -0.0546,0.38215 0.0546,0.76429 0.19107,0.7097 0.32756,0.6824 0.43674,0.57322 0.57322,0.46404 0.62781,0.35485 0.73699,0.21837 z"
       id="path2909" />
    <path
       style="fill:#000000;fill-opacity:1;fill-rule:evenodd;stroke:none;stroke-width:0.264583"
       d="m 128.65831,237.86599 0.7097,0.0819 0.62781,0.21837 0.57322,0.30026 0.49133,0.40944 0.40944,0.51862 0.27296,0.57322 0.19108,0.62782 0.0273,0.7097 -0.0273,0.32755 -0.0819,0.32755 -0.10919,0.35486 -0.13648,0.30025 -0.13648,0.27296 -0.19107,0.30026 -0.24567,0.27296 -0.21837,0.24567 -0.27296,0.24566 -0.27296,0.16378 -0.32755,0.19107 -0.30026,0.13648 -0.32755,0.10919 -0.32756,0.0819 -0.35485,0.0273 -0.32755,0.0273 -0.35485,-0.0273 -0.32756,-0.0273 -0.32755,-0.0819 -0.30026,-0.10919 -0.32755,-0.13648 -0.24567,-0.19107 -0.30025,-0.16378 -0.24567,-0.24566 -0.19107,-0.24567 -0.19108,-0.27296 -0.16377,-0.30026 -0.13649,-0.27296 -0.0819,-0.30025 -0.0546,-0.35486 -0.0273,-0.32755 v -0.32755 l 0.0273,-0.32756 0.0819,-0.35485 0.0819,-0.32755 0.13648,-0.30026 0.16378,-0.32755 0.19107,-0.27297 0.19107,-0.24566 0.27297,-0.27296 0.24566,-0.21837 0.30026,-0.21837 0.30026,-0.13648 0.30026,-0.16378 0.32755,-0.10918 0.32755,-0.0819 0.35485,-0.0546 z"
       id="path2911" />
    <path
       style="fill:#ffffff;fill-opacity:1;fill-rule:evenodd;stroke:none;stroke-width:0.264583"
       d="m 128.33075,244.03492 0.27296,-0.0273 0.27297,-0.0273 0.27296,-0.0819 0.24566,-0.0819 0.24567,-0.10918 0.24566,-0.13648 0.24567,-0.16378 0.19107,-0.19107 0.19108,-0.19108 0.19107,-0.21836 0.16378,-0.21837 0.10918,-0.27296 0.10918,-0.21837 0.0819,-0.24567 0.0546,-0.30026 0.0273,-0.24566 -0.0273,-0.54593 -0.13649,-0.51862 -0.19107,-0.46404 -0.35485,-0.40944 -0.19107,-0.16378 -0.19107,-0.16377 -0.24567,-0.16378 -0.24567,-0.10919 -0.24566,-0.0546 -0.24567,-0.0819 -0.27296,-0.0273 -0.27296,-0.0273 -0.27296,0.0273 -0.27296,0.0273 -0.27296,0.0819 -0.24567,0.0546 -0.24566,0.10919 -0.24567,0.16378 -0.24566,0.16377 -0.21838,0.16378 -0.19107,0.21837 -0.16377,0.19107 -0.16378,0.24567 -0.13648,0.21837 -0.10919,0.27296 -0.0546,0.24566 -0.0546,0.27297 -0.0273,0.27296 0.0273,0.54592 0.10918,0.49133 0.24567,0.46404 0.32755,0.40944 0.38215,0.35485 0.43674,0.24566 0.51862,0.16378 z"
       id="path2913" />
    <path
       style="fill:#000000;fill-opacity:1;fill-rule:evenodd;stroke:none;stroke-width:0.264583"
       d="m 100.21571,236.77414 0.49133,0.0273 0.43674,0.0819 0.43674,0.0819 0.43674,0.16378 0.38214,0.19107 0.35485,0.21837 0.35485,0.27296 0.30026,0.30026 0.27296,0.30025 0.27296,0.35485 0.19108,0.38215 0.16378,0.40944 0.13648,0.40944 0.10918,0.43674 0.0273,0.43674 v 0.46404 l -0.0546,0.43674 -0.0819,0.46403 -0.13648,0.40944 -0.19108,0.40944 -0.19107,0.40945 -0.24567,0.38214 -0.32755,0.35485 -0.30026,0.35485 -0.35485,0.30026 -0.38214,0.24567 -0.38215,0.24566 -0.43674,0.16378 -0.43674,0.16378 -0.43674,0.10918 -0.46403,0.0546 -0.464031,0.0273 -0.43674,-0.0273 -0.43674,-0.0546 -0.46404,-0.10918 -0.40944,-0.16378 -0.38215,-0.16378 -0.38214,-0.24566 -0.32756,-0.24567 -0.32755,-0.30026 -0.27296,-0.35485 -0.27296,-0.35485 -0.21837,-0.38214 -0.16378,-0.40945 -0.13648,-0.40944 -0.0819,-0.40944 -0.0273,-0.46403 v -0.43674 l 0.0546,-0.43674 0.0819,-0.46404 0.13649,-0.40944 0.16377,-0.40944 0.21837,-0.40944 0.24567,-0.40945 0.30026,-0.35485 0.32755,-0.32755 0.35485,-0.30026 0.35485,-0.27296 0.40944,-0.21837 0.40945,-0.19107 0.43673,-0.13648 0.46404,-0.10919 0.43674,-0.0546 z"
       id="path2915" />
    <path
       style="fill:#ffffff;fill-opacity:1;fill-rule:evenodd;stroke:none;stroke-width:0.264583"
       d="m 99.751679,245.15406 0.382141,-0.0273 0.40944,-0.0546 0.35486,-0.10919 0.38214,-0.10918 0.32756,-0.16378 0.35484,-0.16378 0.30026,-0.24566 0.32756,-0.24567 0.27296,-0.30026 0.24566,-0.30025 0.21837,-0.30026 0.16378,-0.38215 0.16378,-0.32755 0.13648,-0.38215 0.0819,-0.35485 0.0273,-0.38214 v -0.38215 l -0.0273,-0.38215 -0.0819,-0.38214 -0.10919,-0.35485 -0.16377,-0.32756 -0.16378,-0.30025 -0.21837,-0.32756 -0.24566,-0.27296 -0.27297,-0.27296 -0.30025,-0.21837 -0.30026,-0.19107 -0.35485,-0.16378 -0.35485,-0.10918 -0.38215,-0.10919 -0.35485,-0.0546 -0.40944,-0.0273 -0.382151,0.0273 -0.38214,0.0546 -0.38215,0.10919 -0.35485,0.10918 -0.35485,0.16378 -0.32755,0.19107 -0.32756,0.21837 -0.30026,0.27296 -0.30025,0.27296 -0.21837,0.32756 -0.21837,0.30025 -0.19107,0.32756 -0.13649,0.35485 -0.10918,0.38214 -0.0819,0.38215 -0.0546,0.38215 0.0546,0.76429 0.19107,0.7097 0.30026,0.6824 0.43674,0.57322 0.57322,0.46404 0.62781,0.35485 0.737,0.21837 z"
       id="path2917" />
    <path
       style="fill:#000000;fill-opacity:1;fill-rule:evenodd;stroke:none;stroke-width:0.264583"
       d="m 100.13382,237.86599 0.7097,0.0819 0.62781,0.21837 0.57322,0.30026 0.51863,0.40944 0.38215,0.51862 0.30025,0.57322 0.16378,0.62782 0.0273,0.7097 -0.0273,0.32755 -0.0819,0.32755 -0.0819,0.35486 -0.13648,0.30025 -0.16377,0.27296 -0.19108,0.30026 -0.21837,0.27296 -0.24566,0.24567 -0.24567,0.24566 -0.30025,0.16378 -0.32756,0.19107 -0.30026,0.13648 -0.32755,0.10919 -0.32755,0.0819 -0.32756,0.0273 -0.354851,0.0273 -0.32755,-0.0273 -0.35485,-0.0273 -0.30026,-0.0819 -0.32755,-0.10919 -0.30026,-0.13648 -0.27296,-0.19107 -0.30026,-0.16378 -0.21837,-0.24566 -0.21837,-0.24567 -0.19107,-0.27296 -0.13648,-0.30026 -0.13648,-0.27296 -0.10919,-0.30025 -0.0546,-0.35486 -0.0273,-0.32755 v -0.32755 l 0.0273,-0.32756 0.0819,-0.35485 0.10918,-0.32755 0.13648,-0.30026 0.13649,-0.32755 0.19107,-0.27297 0.21837,-0.24566 0.24566,-0.27296 0.27296,-0.21837 0.27297,-0.21837 0.30025,-0.13648 0.32756,-0.16378 0.30026,-0.10918 0.35484,-0.0819 0.32756,-0.0546 z"
       id="path2919" />
    <path
       style="fill:#ffffff;fill-opacity:1;fill-rule:evenodd;stroke:none;stroke-width:0.264583"
       d="m 99.806269,244.03492 0.300261,-0.0273 0.24566,-0.0273 0.30026,-0.0819 0.21837,-0.0819 0.27296,-0.10918 0.24567,-0.13648 0.21837,-0.16378 0.21836,-0.19107 0.19108,-0.19108 0.16378,-0.21836 0.16377,-0.21837 0.13648,-0.27296 0.10919,-0.21837 0.0819,-0.24567 0.0273,-0.30026 0.0273,-0.24566 -0.0273,-0.54593 -0.10918,-0.51862 -0.21837,-0.46404 -0.32756,-0.40944 -0.19107,-0.16378 -0.21837,-0.16377 -0.21837,-0.16378 -0.24566,-0.10919 -0.27296,-0.0546 -0.21838,-0.0819 -0.30025,-0.0273 -0.24567,-0.0273 -0.272961,0.0273 -0.30026,0.0273 -0.24566,0.0819 -0.27296,0.0546 -0.24567,0.10919 -0.24566,0.16378 -0.24567,0.16377 -0.19107,0.16378 -0.19108,0.21837 -0.19107,0.19107 -0.16378,0.24567 -0.10918,0.21837 -0.10919,0.27296 -0.0819,0.24566 -0.0546,0.27297 -0.0273,0.27296 0.0273,0.54592 0.13648,0.49133 0.21837,0.46404 0.32756,0.40944 0.38215,0.35485 0.46403,0.24566 0.51863,0.16378 z"
       id="path2921" />
    <path
       style="fill:#000000;fill-opacity:1;fill-rule:evenodd;stroke:none;stroke-width:0.264583"
       d="m 114.70997,234.37208 0.6824,0.0819 0.62782,0.21837 0.57322,0.30026 0.49133,0.40944 0.38214,0.51863 0.30026,0.57322 0.19107,0.62781 0.0273,0.7097 -0.0273,0.32755 -0.0819,0.32756 -0.10919,0.30025 -0.13648,0.32756 -0.16378,0.30025 -0.16377,0.27297 -0.24567,0.27296 -0.24567,0.24566 -0.24566,0.24567 -0.30026,0.19107 -0.30026,0.16378 -0.32755,0.16378 -0.30026,0.0819 -0.35485,0.0819 -0.30026,0.0546 -0.35485,0.0273 -0.32755,-0.0273 -0.35485,-0.0546 -0.32755,-0.0819 -0.32756,-0.0819 -0.27296,-0.16378 -0.30026,-0.16378 -0.24566,-0.19107 -0.24567,-0.24567 -0.21837,-0.24566 -0.16377,-0.27296 -0.16378,-0.27297 -0.13648,-0.30025 -0.10919,-0.32756 -0.0546,-0.30025 -0.0273,-0.32756 v -0.32755 l 0.0273,-0.35485 0.0819,-0.32755 0.10919,-0.32756 0.13648,-0.30026 0.16377,-0.32755 0.16378,-0.27296 0.21837,-0.24567 0.27296,-0.27296 0.24567,-0.21837 0.30025,-0.21837 0.27296,-0.16378 0.32756,-0.13648 0.30026,-0.10918 0.35485,-0.0819 0.32755,-0.0546 z"
       id="path2923" />
    <path
       style="fill:#ffffff;fill-opacity:1;fill-rule:evenodd;stroke:none;stroke-width:0.264583"
       d="m 114.35512,240.51372 0.27296,-0.0273 0.27296,-0.0273 0.27297,-0.0819 0.27296,-0.0819 0.21837,-0.10919 0.24566,-0.13648 0.24567,-0.16377 0.19107,-0.19108 0.19107,-0.19107 0.19108,-0.21837 0.13648,-0.21837 0.13648,-0.24566 0.10918,-0.24567 0.0819,-0.24566 0.0546,-0.27297 0.0273,-0.24566 -0.0273,-0.54592 -0.13648,-0.51863 -0.24566,-0.46404 -0.30026,-0.40944 -0.19107,-0.19107 -0.21837,-0.13648 -0.21837,-0.16378 -0.24567,-0.10918 -0.21837,-0.0819 -0.27296,-0.0546 -0.27296,-0.0273 -0.24567,-0.0273 -0.27296,0.0273 -0.27296,0.0273 -0.27296,0.0546 -0.27296,0.0819 -0.24567,0.10918 -0.24566,0.16378 -0.21837,0.13648 -0.21837,0.19107 -0.19107,0.21837 -0.16378,0.19107 -0.16378,0.24567 -0.13648,0.21837 -0.10918,0.24567 -0.0819,0.27296 -0.0546,0.24566 -0.0273,0.30026 0.0273,0.51863 0.13648,0.51862 0.24566,0.46404 0.30026,0.38214 0.40944,0.35485 0.43674,0.24567 0.51863,0.16378 z"
       id="path2925" />
    <path
       style="fill:#000000;fill-opacity:1;fill-rule:evenodd;stroke:none;stroke-width:0.264583"
       d="m 115.82911,236.3647 0.16378,0.0819 0.10918,0.0546 0.0546,0.0273 v 0 l -0.0546,1.03725 -1.06455,-0.10918 -0.0819,2.23828 -1.474,0.0546 0.19108,-4.03983 h 1.58317 l 0.0546,0.0819 0.16377,0.21837 0.16378,0.19107 z"
       id="path2927" />
    <path
       style="fill:#000000;fill-opacity:1;fill-rule:evenodd;stroke:none;stroke-width:0.264583"
       d="m 110.9431,221.70667 0.30026,0.0273 0.27296,0.10919 0.24567,0.10918 0.21837,0.19108 0.19107,0.21836 0.13648,0.27296 0.0546,0.27297 v 0.30025 l -0.0546,0.32756 -0.0819,0.24566 -0.16378,0.27297 -0.19107,0.21836 -0.13648,0.10919 -0.10919,0.0819 -0.13648,0.0819 -0.13648,0.0546 -0.16377,0.0546 -0.13649,0.0546 -0.13648,0.0273 h -0.16377 -0.16378 l -0.13648,-0.0273 -0.13648,-0.0546 -0.13648,-0.0546 -0.13648,-0.0546 -0.13648,-0.0819 -0.10919,-0.0819 -0.0819,-0.10919 -0.19107,-0.21836 -0.13648,-0.27297 -0.0819,-0.24566 v -0.32756 l 0.0546,-0.30025 0.0819,-0.27297 0.16378,-0.27296 0.19107,-0.21836 0.13648,-0.10919 0.13648,-0.0819 0.13648,-0.0819 0.13648,-0.0546 0.13649,-0.0546 0.13648,-0.0273 0.16377,-0.0273 z"
       id="path2929" />
    <path
       style="fill:#ffffff;fill-opacity:1;fill-rule:evenodd;stroke:none;stroke-width:0.264583"
       d="m 110.77932,224.43628 h 0.10919 l 0.13648,-0.0273 0.0819,-0.0273 0.13648,-0.0546 0.10918,-0.0546 0.10919,-0.0546 0.10918,-0.0819 0.10919,-0.0546 0.13648,-0.19107 0.13648,-0.21837 0.0819,-0.21837 0.0273,-0.24567 v -0.21836 l -0.0546,-0.21837 -0.10918,-0.21837 -0.16378,-0.19108 -0.0546,-0.0546 -0.10919,-0.0819 -0.0819,-0.0546 -0.10918,-0.0546 -0.10918,-0.0546 -0.13649,-0.0273 -0.10918,-0.0273 h -0.10919 -0.13648 l -0.13648,0.0273 -0.10918,0.0273 -0.13648,0.0546 -0.0819,0.0546 -0.10919,0.0546 -0.0819,0.0819 -0.10919,0.0546 -0.16378,0.19108 -0.10918,0.21837 -0.0819,0.21837 -0.0273,0.21836 v 0.24567 l 0.0546,0.21837 0.0819,0.21837 0.13648,0.19107 0.19107,0.13648 0.21837,0.10919 0.21837,0.0819 z"
       id="path2931" />
    <path
       style="fill:#000000;fill-opacity:1;fill-rule:evenodd;stroke:none;stroke-width:0.264583"
       d="m 111.43443,222.58014 0.0546,0.0273 0.0546,0.0273 0.0273,0.0273 v 0 l -0.0273,0.46404 -0.46404,-0.0546 -0.0546,1.00996 -0.62781,0.0273 0.0546,-1.80155 h 0.7097 0.0273 l 0.0546,0.10919 0.10918,0.0819 z"
       id="path2933" />
    <path
       style="fill:#000000;fill-opacity:1;fill-rule:evenodd;stroke:none;stroke-width:0.264583"
       d="m 115.55615,227.38427 h -0.0273 l -0.0546,0.0273 -0.13648,0.0546 -0.16377,0.0273 h -0.19108 -0.16378 l -0.19107,-0.0273 -0.16377,-0.0819 -0.24567,-0.19108 -0.19107,-0.16377 -0.13648,-0.13648 -0.0273,-0.0546 0.0273,0.21837 0.0819,0.46404 0.19107,0.43674 0.32755,0.16377 0.21837,-0.0273 0.16378,-0.0819 0.19107,-0.13648 0.16378,-0.13648 0.16377,-0.10919 0.10919,-0.13648 0.0273,-0.0819 z"
       id="path2935" />
  </g>
</svg>
