<?xml version="1.0" encoding="UTF-8" standalone="no"?>
<!-- Created with Inkscape (http://www.inkscape.org/) -->

<svg
   width="688.23993"
   height="646.51605"
   viewBox="0 0 182.09681 171.05738"
   version="1.1"
   id="svg5"
   inkscape:version="1.1 (c68e22c387, 2021-05-23)"
   sodipodi:docname="Divination1.svg"
   xmlns:inkscape="http://www.inkscape.org/namespaces/inkscape"
   xmlns:sodipodi="http://sodipodi.sourceforge.net/DTD/sodipodi-0.dtd"
   xmlns="http://www.w3.org/2000/svg"
   xmlns:svg="http://www.w3.org/2000/svg">
  <sodipodi:namedview
     id="namedview7"
     pagecolor="#ffffff"
     bordercolor="#666666"
     borderopacity="1.0"
     inkscape:pageshadow="2"
     inkscape:pageopacity="0.0"
     inkscape:pagecheckerboard="0"
     inkscape:document-units="px"
     showgrid="false"
     inkscape:zoom="0.26191077"
     inkscape:cx="-282.53897"
     inkscape:cy="-204.26804"
     inkscape:window-width="1288"
     inkscape:window-height="745"
     inkscape:window-x="-8"
     inkscape:window-y="-8"
     inkscape:window-maximized="1"
     inkscape:current-layer="layer1"
     units="px"
     fit-margin-top="0"
     fit-margin-left="0"
     fit-margin-right="0"
     fit-margin-bottom="0" />
  <defs
     id="defs2">
    <pattern
       id="EMFhbasepattern"
       patternUnits="userSpaceOnUse"
       width="6"
       height="6"
       x="0"
       y="0" />
    <pattern
       id="EMFhbasepattern-3"
       patternUnits="userSpaceOnUse"
       width="6"
       height="6"
       x="0"
       y="0" />
    <pattern
       id="EMFhbasepattern-2"
       patternUnits="userSpaceOnUse"
       width="6"
       height="6"
       x="0"
       y="0" />
    <pattern
       id="EMFhbasepattern-27"
       patternUnits="userSpaceOnUse"
       width="6"
       height="6"
       x="0"
       y="0" />
    <pattern
       id="EMFhbasepattern-9"
       patternUnits="userSpaceOnUse"
       width="6"
       height="6"
       x="0"
       y="0" />
    <pattern
       id="EMFhbasepattern-4"
       patternUnits="userSpaceOnUse"
       width="6"
       height="6"
       x="0"
       y="0" />
    <pattern
       id="EMFhbasepattern-0"
       patternUnits="userSpaceOnUse"
       width="6"
       height="6"
       x="0"
       y="0" />
    <pattern
       id="EMFhbasepattern-22"
       patternUnits="userSpaceOnUse"
       width="6"
       height="6"
       x="0"
       y="0" />
    <pattern
       id="EMFhbasepattern-30"
       patternUnits="userSpaceOnUse"
       width="6"
       height="6"
       x="0"
       y="0" />
    <pattern
       id="EMFhbasepattern-1"
       patternUnits="userSpaceOnUse"
       width="6"
       height="6"
       x="0"
       y="0" />
  </defs>
  <g
     inkscape:label="圖層 1"
     inkscape:groupmode="layer"
     id="layer1"
     transform="translate(-688.73262,-459.29405)">
    <path
       style="fill:#ffffff;fill-opacity:1;fill-rule:evenodd;stroke:none;stroke-width:0.264583"
       d="m 805.80849,563.60896 c -1.53023,-0.16396 -2.6779,-1.53023 -2.51395,-3.06045 0,0 0,0 0,0 v 0 l 1.0657,-11.17611 v 0 c 0.16395,-1.53022 1.53022,-2.67789 3.06045,-2.51394 0,0 0,0 0,0 v 0 l 29.73008,2.84184 v 0 c 1.55755,0.16396 2.6779,1.53023 2.51394,3.06046 0,0 0,0 0,0 v 0 l -1.06569,11.1761 v 0 c -0.13663,1.55755 -1.53023,2.6779 -3.06045,2.54127 0,0 0,0 0,0 z"
       id="path4321" />
    <path
       style="fill:#321900;fill-opacity:1;fill-rule:nonzero;stroke:#321900;stroke-width:0.0273254px;stroke-linecap:butt;stroke-linejoin:round;stroke-miterlimit:4;stroke-dasharray:none;stroke-opacity:1"
       d="m 805.75384,564.21012 c -0.0273,0 -0.0547,-0.0273 -0.10931,-0.0273 l -1.06569,-0.3279 c -0.082,-0.0273 -0.13663,-0.0547 -0.19128,-0.10931 l -0.81976,-0.68313 c -0.0546,-0.0547 -0.1093,-0.1093 -0.13663,-0.16395 l -0.51918,-0.9564 c -0.0547,-0.082 -0.0547,-0.16395 -0.082,-0.2186 l -0.1093,-1.09302 c 0,-0.0546 0,-0.082 0,-0.13662 l 1.06569,-11.17611 c 0,-0.0273 0.0273,-0.0546 0.0273,-0.1093 l 0.3279,-1.0657 c 0.0273,-0.082 0.0546,-0.13662 0.10931,-0.19127 l 0.68313,-0.81977 c 0.0547,-0.0546 0.1093,-0.1093 0.16395,-0.13662 l 0.9564,-0.51919 c 0.082,-0.0546 0.16395,-0.0546 0.2186,-0.082 l 1.09302,-0.10931 c 0.0547,0 0.082,0 0.1093,0 l 29.73008,2.84185 c 0.0547,0 0.082,0.0273 0.13663,0.0273 l 1.06569,0.3279 c 0.0546,0.0273 0.13663,0.0546 0.19128,0.1093 l 0.84709,0.68314 c 0.0546,0.0546 0.1093,0.1093 0.13663,0.19128 l 0.49185,0.95639 c 0.0547,0.0546 0.0547,0.13663 0.082,0.19128 l 0.1093,1.09301 c 0,0.0547 0,0.082 0,0.10931 l -1.06569,11.1761 c 0,0.0546 -0.0273,0.082 -0.0273,0.13663 l -0.3279,1.06569 c -0.0273,0.0546 -0.0547,0.13663 -0.1093,0.19128 l -0.68314,0.84709 c -0.0547,0.0547 -0.1093,0.1093 -0.16395,0.13663 l -0.95639,0.51918 c -0.082,0.0546 -0.16395,0.0546 -0.2186,0.082 l -1.09302,0.1093 c -0.0547,0 -0.082,0 -0.13663,0 z m 29.86671,1.69418 h -0.13663 l 1.09302,-0.10931 -0.21861,0.082 0.9564,-0.51918 -0.16396,0.13662 0.68314,-0.84709 -0.1093,0.19128 0.3279,-1.06569 -0.0273,0.1093 1.06569,-11.17611 v 0.13663 l -0.1093,-1.09302 0.0547,0.19128 -0.49186,-0.95639 0.16395,0.19128 -0.84709,-0.68314 0.19128,0.1093 -1.06569,-0.3279 0.1093,0.0273 -29.73008,-2.84184 h 0.13662 l -1.09301,0.1093 0.2186,-0.082 -0.95639,0.51919 0.16395,-0.13663 -0.68313,0.81976 0.1093,-0.19128 -0.32791,1.0657 0.0273,-0.13663 -1.0657,11.17611 v -0.1093 l 0.10931,1.09301 -0.082,-0.2186 0.51918,0.95639 -0.13662,-0.16395 0.81976,0.68313 -0.19128,-0.1093 1.06569,0.32791 -0.1093,-0.0273 z"
       id="path4323" />
    <path
       style="fill:#ffffff;fill-opacity:1;fill-rule:evenodd;stroke:none;stroke-width:0.264583"
       d="m 777.08944,574.10193 c -1.53022,0 -2.78719,-1.22965 -2.78719,-2.75987 0,0 0,0 0,0 v 0 -11.06681 0 c 0,-1.53022 1.25697,-2.78719 2.78719,-2.78719 0,0 0,0 0,0 v 0 h 29.86672 v 0 c 1.53022,0 2.75986,1.25697 2.75986,2.78719 0,0 0,0 0,0 v 0 11.06681 0 c 0,1.53022 -1.22964,2.75987 -2.75986,2.75987 0,0 0,0 0,0 z"
       id="path4325" />
    <path
       style="fill:#321900;fill-opacity:1;fill-rule:nonzero;stroke:#321900;stroke-width:0.0273254px;stroke-linecap:butt;stroke-linejoin:round;stroke-miterlimit:4;stroke-dasharray:none;stroke-opacity:1"
       d="m 777.08944,574.75774 c -0.0273,0 -0.082,0 -0.1093,0 l -1.09302,-0.21861 c -0.082,-0.0273 -0.16395,-0.0546 -0.24593,-0.082 l -0.87441,-0.57384 c -0.0547,-0.0546 -0.13663,-0.13662 -0.19128,-0.19127 l -0.60116,-0.90174 c -0.0273,-0.082 -0.0547,-0.16395 -0.082,-0.24593 l -0.21861,-1.06569 c 0,-0.0273 -0.0273,-0.082 -0.0273,-0.13663 v -11.06681 c 0,-0.0273 0.0273,-0.082 0.0273,-0.1093 l 0.21861,-1.09302 c 0.0273,-0.082 0.0547,-0.16395 0.1093,-0.24593 l 0.60116,-0.87441 c 0.0273,-0.082 0.082,-0.13663 0.16395,-0.16395 l 0.87441,-0.60116 c 0.082,-0.0546 0.16396,-0.082 0.24593,-0.1093 l 1.09302,-0.21861 c 0.0273,0 0.082,-0.0273 0.1093,-0.0273 h 29.86672 c 0.0546,0 0.1093,0.0273 0.13662,0.0273 l 1.06569,0.21861 c 0.082,0.0273 0.16396,0.0547 0.24593,0.082 l 0.90174,0.60116 c 0.0547,0.0547 0.13663,0.13663 0.19128,0.19128 l 0.57384,0.87441 c 0.0273,0.082 0.0547,0.16396 0.082,0.24593 l 0.21861,1.09302 c 0,0.0273 0,0.082 0,0.1093 v 11.06681 c 0,0.0546 0,0.1093 0,0.13663 l -0.21861,1.06569 c -0.0273,0.082 -0.0546,0.16395 -0.082,0.2186 l -0.57384,0.90174 c -0.0546,0.082 -0.13663,0.16395 -0.2186,0.2186 l -0.90174,0.57384 c -0.0547,0.0273 -0.13663,0.0546 -0.21861,0.082 l -1.06569,0.21861 c -0.0273,0 -0.082,0 -0.13662,0 z m 29.86672,-1.31162 -0.10931,0.0273 1.06569,-0.2186 -0.2186,0.082 0.90174,-0.57383 -0.2186,0.2186 0.57383,-0.90173 -0.082,0.2186 0.2186,-1.06569 -0.0273,0.1093 v -11.06681 l 0.0273,0.13663 -0.2186,-1.09302 0.082,0.24593 -0.57383,-0.87441 0.19128,0.16395 -0.90174,-0.60116 0.24592,0.1093 -1.06569,-0.2186 h 0.10931 -29.86672 0.13663 l -1.09302,0.2186 0.24593,-0.1093 -0.87441,0.60116 0.16395,-0.16395 -0.60116,0.87441 0.1093,-0.24593 -0.2186,1.09302 v -0.13663 11.06681 -0.1093 l 0.2186,1.06569 -0.1093,-0.24593 0.60116,0.90174 -0.16395,-0.19128 0.87441,0.57383 -0.24593,-0.082 1.09302,0.2186 -0.13663,-0.0273 z"
       id="path4327" />
    <path
       style="fill:#ffffff;fill-opacity:1;fill-rule:evenodd;stroke:none;stroke-width:0.264583"
       d="m 758.50814,559.72874 c 0.49186,-1.47557 2.10406,-2.24068 3.57963,-1.7215 0,0 0,0 0,0 v 0 l 10.57495,3.71626 v 0 c 1.44825,0.51918 2.24069,2.13139 1.7215,3.57964 0,0 0,0 0,0 v 0 l -9.91913,28.17253 v 0 c -0.51919,1.47557 -2.10406,2.24069 -3.57964,1.7215 0,0 0,0 0,0 v 0 l -10.57494,-3.71626 v 0 c -1.47558,-0.51918 -2.24069,-2.13138 -1.72151,-3.57963 0,0 0,0 0,0 z"
       id="path4329" />
    <path
       style="fill:#321900;fill-opacity:1;fill-rule:nonzero;stroke:#321900;stroke-width:0.0273254px;stroke-linecap:butt;stroke-linejoin:round;stroke-miterlimit:4;stroke-dasharray:none;stroke-opacity:1"
       d="m 757.96163,559.53747 c 0.0273,-0.0273 0.0273,-0.0546 0.0547,-0.082 l 0.54651,-0.95639 c 0.0273,-0.082 0.082,-0.13663 0.16395,-0.19128 l 0.87442,-0.65581 c 0.0547,-0.0273 0.1093,-0.0547 0.19128,-0.082 l 1.03836,-0.27325 c 0.082,-0.0273 0.16396,-0.0273 0.24593,-0.0273 l 1.12035,0.16396 c 0.0273,0.0273 0.0547,0.0273 0.1093,0.0273 l 10.57494,3.71626 c 0.0273,0.0273 0.0546,0.0273 0.082,0.0546 l 0.95639,0.57384 c 0.082,0.0546 0.13663,0.082 0.19128,0.16395 l 0.65581,0.87441 c 0.0273,0.0547 0.0547,0.10931 0.082,0.19128 l 0.27325,1.03837 c 0.0273,0.082 0.0273,0.16395 0.0273,0.24593 l -0.16396,1.09302 c -0.0273,0.0273 -0.0273,0.0546 -0.0273,0.1093 l -9.91914,28.17253 c -0.0273,0.0273 -0.0547,0.0546 -0.0547,0.082 l -0.57384,0.95639 c -0.0546,0.082 -0.082,0.13663 -0.13662,0.16395 l -0.84709,0.65581 c -0.082,0.0547 -0.13663,0.082 -0.2186,0.10931 l -1.03837,0.27325 c -0.082,0.0273 -0.16395,0.0273 -0.24593,0.0273 l -1.12034,-0.16396 c -0.0273,-0.0273 -0.0547,-0.0273 -0.1093,-0.0273 l -10.57495,-3.71626 c -0.0273,-0.0273 -0.0546,-0.0547 -0.1093,-0.0547 l -0.95639,-0.57383 c -0.0547,-0.0547 -0.10931,-0.1093 -0.16396,-0.16395 l -0.65581,-0.87442 c -0.0273,-0.0546 -0.0547,-0.1093 -0.082,-0.19128 l -0.27326,-1.03836 c -0.0273,-0.082 -0.0273,-0.16395 -0.0273,-0.24593 l 0.16395,-1.09302 c 0.0273,-0.0273 0.0273,-0.0546 0.0273,-0.1093 z m -8.79879,28.58241 0.0273,-0.1093 -0.16395,1.09302 -0.0273,-0.24593 0.27326,1.03837 -0.082,-0.19128 0.65581,0.87441 -0.19127,-0.16395 0.95639,0.57383 -0.082,-0.0547 10.57495,3.71626 -0.1093,-0.0273 1.12034,0.16395 -0.24593,0.0273 1.03837,-0.27326 -0.21861,0.1093 0.84709,-0.65581 -0.13662,0.13663 0.57383,-0.95639 -0.0547,0.1093 9.91913,-28.17253 -0.0273,0.1093 0.16395,-1.09302 0.0273,0.24593 -0.27326,-1.03837 0.082,0.19128 -0.65581,-0.87441 0.16395,0.16395 -0.95639,-0.57384 0.1093,0.0547 -10.57494,-3.71626 0.1093,0.0273 -1.12035,-0.16395 0.24593,-0.0273 -1.03836,0.27326 0.19127,-0.082 -0.87441,0.65581 0.16395,-0.19128 -0.54651,0.95639 0.0547,-0.082 z"
       id="path4331" />
    <path
       style="fill:#ffffff;fill-opacity:1;fill-rule:evenodd;stroke:none;stroke-width:0.264583"
       d="m 775.44992,591.78149 c -1.44825,-0.51918 -2.21337,-2.13138 -1.72151,-3.57963 0,0 0,0 0,0 v 0 l 3.74359,-10.57495 v 0 c 0.49186,-1.47557 2.10406,-2.24069 3.57963,-1.7215 0,0 0,0 0,0 v 0 l 28.14521,9.91913 v 0 c 1.47558,0.49186 2.24069,2.10406 1.7215,3.55231 0,0 0,0 0,0 v 0 l -3.71626,10.60228 v 0 c -0.51918,1.44824 -2.13138,2.21335 -3.57963,1.7215 0,0 0,0 0,0 z"
       id="path4333" />
    <path
       style="fill:#321900;fill-opacity:1;fill-rule:nonzero;stroke:#321900;stroke-width:0.0273254px;stroke-linecap:butt;stroke-linejoin:round;stroke-miterlimit:4;stroke-dasharray:none;stroke-opacity:1"
       d="m 775.25864,592.35533 c -0.0273,-0.0273 -0.0546,-0.0547 -0.1093,-0.0547 l -0.95639,-0.57383 c -0.0547,-0.0546 -0.10931,-0.1093 -0.16396,-0.16395 l -0.62848,-0.87442 c -0.0273,-0.0546 -0.082,-0.13662 -0.082,-0.19128 l -0.27325,-1.03836 c -0.0273,-0.082 -0.0273,-0.13663 -0.0273,-0.2186 l 0.13663,-1.09302 c 0,-0.0546 0.0273,-0.082 0.0273,-0.13663 l 3.74359,-10.57495 c 0.0273,-0.0273 0.0273,-0.0547 0.0546,-0.082 l 0.54651,-0.95639 c 0.0273,-0.082 0.082,-0.13663 0.16395,-0.19128 l 0.87442,-0.65581 c 0.0547,-0.0273 0.1093,-0.0547 0.19127,-0.082 l 1.03837,-0.27325 c 0.082,-0.0273 0.16395,-0.0273 0.24593,-0.0273 l 1.12034,0.16395 c 0.0273,0.0273 0.0547,0.0273 0.10931,0.0273 l 28.1452,9.91913 c 0.0273,0.0273 0.0547,0.0273 0.082,0.0547 l 0.95639,0.5465 c 0.082,0.0273 0.13663,0.082 0.19128,0.16396 l 0.65581,0.87441 c 0.0273,0.0547 0.0547,0.1093 0.082,0.19128 l 0.27325,1.03837 c 0.0273,0.082 0.0273,0.16395 0.0273,0.24593 l -0.16396,1.09301 c -0.0273,0.0273 -0.0273,0.0547 -0.0273,0.10931 l -3.71626,10.60227 c -0.0273,0.0273 -0.0273,0.0547 -0.0547,0.082 l -0.57384,0.95639 c -0.0547,0.082 -0.1093,0.13662 -0.16395,0.19127 l -0.87441,0.62849 c -0.0547,0.0273 -0.13663,0.0546 -0.19128,0.082 l -1.03837,0.27325 c -0.082,0.0273 -0.13663,0.0273 -0.2186,0.0273 l -1.09302,-0.13663 c -0.0546,-0.0273 -0.082,-0.0273 -0.13663,-0.0273 z m 28.58241,8.79879 -0.13662,-0.0273 1.09301,0.13663 -0.2186,0.0273 1.03837,-0.27326 -0.19128,0.082 0.87441,-0.62849 -0.16395,0.16396 0.57383,-0.95639 -0.0546,0.1093 3.71626,-10.60228 -0.0273,0.10931 0.16395,-1.09302 0.0273,0.24593 -0.27326,-1.03837 0.082,0.19128 -0.65581,-0.87442 0.19128,0.16396 -0.95639,-0.54651 0.082,0.0546 -28.14521,-9.91914 0.10931,0.0273 -1.12035,-0.16396 0.24593,-0.0273 -1.03837,0.27325 0.19128,-0.082 -0.87441,0.65581 0.16395,-0.19128 -0.54651,0.95639 0.0546,-0.082 -3.74358,10.57495 0.0273,-0.13663 -0.13662,1.09302 -0.0273,-0.2186 0.27325,1.03836 -0.082,-0.19127 0.62848,0.87441 -0.19127,-0.16395 0.95639,0.57383 -0.082,-0.0546 z"
       id="path4335" />
    <path
       style="fill:#ffffff;fill-opacity:1;fill-rule:evenodd;stroke:none;stroke-width:0.264583"
       d="m 726.61935,582.8734 c -1.14767,-1.03837 -1.25698,-2.7872 -0.21861,-3.96219 0,0 0,0 0,0 v 0 l 7.45985,-8.38891 v 0 c 1.01104,-1.14767 2.78719,-1.25698 3.96219,-0.21861 0,0 0,0 0,0 v 0 l 22.29756,19.83828 v 0 c 1.175,1.03836 1.2843,2.78719 0.24593,3.96218 0,0 0,0 0,0 v 0 l -7.45985,8.38891 v 0 c -1.03836,1.14767 -2.81452,1.25698 -3.96219,0.21861 0,0 0,0 0,0 z"
       id="path4337" />
    <path
       style="fill:#321900;fill-opacity:1;fill-rule:nonzero;stroke:#321900;stroke-width:0.0273254px;stroke-linecap:butt;stroke-linejoin:round;stroke-miterlimit:4;stroke-dasharray:none;stroke-opacity:1"
       d="m 726.23679,583.3106 c -0.0273,-0.0273 -0.0547,-0.0546 -0.082,-0.082 l -0.65581,-0.90174 c -0.0273,-0.0546 -0.0546,-0.13663 -0.082,-0.19128 l -0.27326,-1.03837 c -0.0273,-0.082 -0.0273,-0.16395 -0.0273,-0.2186 l 0.13662,-1.06569 c 0.0273,-0.082 0.0546,-0.16396 0.082,-0.24593 l 0.57383,-0.95639 c 0.0273,-0.0273 0.0547,-0.0547 0.082,-0.082 l 7.45984,-8.38891 c 0,-0.0273 0.0547,-0.0547 0.082,-0.082 l 0.87442,-0.65581 c 0.0547,-0.0273 0.1093,-0.0546 0.19127,-0.082 l 1.03837,-0.27326 c 0.082,-0.0273 0.13663,-0.0273 0.2186,-0.0273 l 1.0657,0.13662 c 0.082,0.0273 0.16395,0.0546 0.2186,0.082 l 0.98372,0.57383 c 0.0273,0.0273 0.082,0.0546 0.1093,0.082 l 22.29756,19.83827 c 0.0273,0 0.0546,0.0273 0.0546,0.082 l 0.68314,0.90174 c 0.0547,0.0546 0.082,0.1093 0.1093,0.19128 l 0.27326,1.03836 c 0.0273,0.082 0.0273,0.13663 0.0273,0.21861 l -0.13663,1.06569 c -0.0273,0.082 -0.0547,0.16395 -0.082,0.2186 l -0.57384,0.95639 c -0.0273,0.0547 -0.0547,0.082 -0.082,0.10931 l -7.45985,8.38891 c -0.0273,0.0273 -0.0547,0.0547 -0.082,0.082 l -0.90173,0.6558 c -0.0547,0.0273 -0.13663,0.0546 -0.19128,0.082 l -1.03837,0.27325 c -0.082,0.0273 -0.16395,0.0273 -0.2186,0.0273 l -1.0657,-0.13663 c -0.082,-0.0273 -0.16395,-0.0547 -0.24593,-0.082 l -0.95639,-0.57384 c -0.0273,-0.0273 -0.0547,-0.0546 -0.082,-0.082 z m 23.11733,18.99119 -0.10931,-0.082 0.95639,0.57383 -0.2186,-0.082 1.06569,0.13663 -0.2186,0.0273 1.03837,-0.27325 -0.19128,0.082 0.90174,-0.65582 -0.082,0.082 7.45985,-8.38891 -0.082,0.082 0.57384,-0.95639 -0.082,0.24593 0.13663,-1.06569 0.0273,0.2186 -0.27325,-1.03836 0.082,0.19127 -0.68313,-0.90174 0.082,0.082 -22.29756,-19.83827 0.1093,0.082 -0.98371,-0.57384 0.2186,0.082 -1.06569,-0.13663 0.2186,-0.0273 -1.03837,0.27326 0.19128,-0.082 -0.87441,0.65581 0.082,-0.082 -7.45984,8.38891 0.082,-0.1093 -0.57384,0.95639 0.082,-0.21861 -0.13663,1.0657 -0.0273,-0.21861 0.27326,1.03837 -0.082,-0.19128 0.65581,0.90174 -0.082,-0.082 z"
       id="path4339" />
    <path
       style="fill:#ffffff;fill-opacity:1;fill-rule:evenodd;stroke:none;stroke-width:0.264583"
       d="m 765.20288,525.32601 c -1.01105,1.17499 -2.7872,1.25697 -3.9622,0.24593 0,0 0,0 0,0 v 0 l -8.38891,-7.45985 v 0 c -1.14767,-1.03837 -1.25697,-2.81452 -0.2186,-3.96219 0,0 0,0 0,0 v 0 l 19.83827,-22.32489 v 0 c 1.03837,-1.14767 2.81452,-1.25697 3.96219,-0.2186 0,0 0,0 0,0 v 0 l 8.38891,7.45985 v 0 c 1.14767,1.01104 1.25697,2.78719 0.21861,3.96218 0,0 0,0 0,0 z"
       id="path4341" />
    <path
       style="fill:#321900;fill-opacity:1;fill-rule:nonzero;stroke:#321900;stroke-width:0.0273254px;stroke-linecap:butt;stroke-linejoin:round;stroke-miterlimit:4;stroke-dasharray:none;stroke-opacity:1"
       d="m 765.64008,525.73589 c 0,0.0273 -0.0273,0.0273 -0.0546,0.0546 l -0.87442,0.68314 c -0.082,0.0546 -0.13662,0.082 -0.2186,0.1093 l -1.03836,0.27325 c -0.082,0.0273 -0.16396,0.0273 -0.24593,0.0273 l -1.0657,-0.16395 c -0.0546,-0.0273 -0.13662,-0.0547 -0.19127,-0.082 l -0.98372,-0.54651 c -0.0273,-0.0273 -0.082,-0.0546 -0.1093,-0.082 l -8.38891,-7.45984 c -0.0273,-0.0273 -0.0547,-0.0547 -0.082,-0.082 l -0.65581,-0.90174 c -0.0273,-0.0547 -0.0547,-0.13663 -0.082,-0.19128 l -0.27325,-1.03836 c -0.0273,-0.082 -0.0273,-0.16396 -0.0273,-0.21861 l 0.13663,-1.06569 c 0.0273,-0.082 0.0547,-0.16395 0.082,-0.24593 l 0.57383,-0.95639 c 0.0273,-0.0273 0.0546,-0.0546 0.082,-0.082 l 19.83827,-22.32488 c 0.0273,-0.0273 0.0546,-0.0547 0.082,-0.082 l 0.90174,-0.65581 c 0.0547,-0.0273 0.1093,-0.0546 0.19127,-0.082 l 1.03837,-0.27325 c 0.082,-0.0273 0.13663,-0.0273 0.21861,-0.0273 l 1.06569,0.13663 c 0.082,0.0273 0.16395,0.0547 0.2186,0.082 l 0.95639,0.57383 c 0.0546,0.0273 0.082,0.0546 0.1093,0.082 l 8.38892,7.45984 c 0.0273,0 0.0547,0.0547 0.082,0.082 l 0.65581,0.87441 c 0.0273,0.0547 0.0547,0.1093 0.082,0.19128 l 0.27325,1.03837 c 0.0273,0.082 0.0273,0.13663 0.0273,0.2186 l -0.13663,1.06569 c -0.0273,0.082 -0.0547,0.16396 -0.082,0.21861 l -0.57384,0.98371 c -0.0273,0.0273 -0.0546,0.082 -0.082,0.10931 z m 18.99119,-23.09 -0.082,0.1093 0.57383,-0.98372 -0.082,0.21861 0.13662,-1.0657 0.0273,0.21861 -0.27325,-1.03837 0.082,0.19128 -0.65581,-0.87442 0.082,0.082 -8.38891,-7.45984 0.082,0.082 -0.95639,-0.57383 0.24593,0.082 -1.06569,-0.13662 0.2186,-0.0273 -1.03837,0.27326 0.19128,-0.082 -0.90174,0.65581 0.082,-0.082 -19.83827,22.32489 0.082,-0.1093 -0.57383,0.95639 0.082,-0.2186 -0.13663,1.06569 -0.0273,-0.2186 0.27326,1.03836 -0.082,-0.19127 0.65581,0.90173 -0.082,-0.082 8.38892,7.45984 -0.10931,-0.082 0.98372,0.54651 -0.19128,-0.082 1.0657,0.16395 -0.24593,0.0273 1.03836,-0.27326 -0.2186,0.10931 0.87441,-0.68314 -0.0547,0.0546 z"
       id="path4343" />
    <path
       style="fill:#ffffff;fill-opacity:1;fill-rule:evenodd;stroke:none;stroke-width:0.264583"
       d="m 763.67265,586.91756 c -0.76511,-1.36627 -0.27325,-3.06045 1.09302,-3.82556 0,0 0,0 0,0 v 0 l 9.80983,-5.43777 v 0 c 1.36627,-0.73778 3.06045,-0.24592 3.82556,1.09302 0,0 0,0 0,0 v 0 l 14.45517,26.12313 v 0 c 0.76511,1.36627 0.27325,3.06045 -1.09302,3.82556 0,0 0,0 0,0 v 0 l -9.80984,5.43777 v 0 c -1.36627,0.73778 -3.06045,0.24593 -3.82556,-1.09302 0,0 0,0 0,0 z"
       id="path4345" />
    <path
       style="fill:#321900;fill-opacity:1;fill-rule:nonzero;stroke:#321900;stroke-width:0.0273254px;stroke-linecap:butt;stroke-linejoin:round;stroke-miterlimit:4;stroke-dasharray:none;stroke-opacity:1"
       d="m 763.18079,587.21814 c -0.0273,-0.0273 -0.0273,-0.082 -0.0546,-0.1093 l -0.35523,-1.06569 c -0.0273,-0.082 -0.0273,-0.16396 -0.0273,-0.24593 l 0.10931,-1.06569 c 0.0273,-0.0547 0.0273,-0.13663 0.0547,-0.19128 l 0.49186,-0.95639 c 0.0547,-0.082 0.082,-0.13663 0.13662,-0.19128 l 0.84709,-0.73779 c 0.0546,-0.0273 0.082,-0.0273 0.1093,-0.0546 l 9.80984,-5.43776 c 0.0273,-0.0273 0.082,-0.0273 0.1093,-0.0546 l 1.06569,-0.32791 c 0.082,-0.0273 0.16395,-0.0273 0.24593,-0.0273 l 1.06569,0.1093 c 0.0547,0 0.13663,0.0273 0.19128,0.0546 l 0.95639,0.46453 c 0.0547,0.0547 0.13663,0.082 0.19128,0.13663 l 0.73779,0.84709 c 0.0273,0.0547 0.0273,0.082 0.0546,0.1093 l 14.45516,26.12312 c 0.0273,0.0273 0.0273,0.0547 0.0546,0.10931 l 0.35523,1.06569 c 0.0273,0.082 0.0273,0.16395 0.0273,0.24593 l -0.10931,1.06569 c -0.0273,0.0547 -0.0273,0.13663 -0.082,0.19128 l -0.49186,0.95639 c -0.0273,0.082 -0.0547,0.13663 -0.13663,0.19128 l -0.84709,0.73778 c -0.0273,0.0273 -0.0547,0.0273 -0.082,0.0547 l -9.80984,5.43777 c -0.0273,0.0273 -0.082,0.0273 -0.1093,0.0546 l -1.06569,0.3279 c -0.082,0.0273 -0.16395,0.0273 -0.21861,0.0273 l -1.06569,-0.082 c -0.082,0 -0.16395,-0.0273 -0.2186,-0.082 l -0.95639,-0.49186 c -0.082,-0.0273 -0.13663,-0.0546 -0.19128,-0.13663 l -0.73779,-0.84709 c -0.0273,-0.0273 -0.0273,-0.0546 -0.0546,-0.082 z m 15.4662,25.54929 -0.0547,-0.1093 0.73779,0.84709 -0.19128,-0.13663 0.95639,0.49186 -0.2186,-0.0547 1.06569,0.082 -0.2186,0.0273 1.06569,-0.3279 -0.1093,0.0546 9.80983,-5.43777 -0.1093,0.0547 0.84709,-0.73779 -0.13663,0.19128 0.49186,-0.95639 -0.0547,0.19127 0.1093,-1.06569 0.0273,0.24593 -0.35523,-1.06569 0.0546,0.1093 -14.45516,-26.12313 0.0547,0.082 -0.73779,-0.84709 0.19128,0.16395 -0.95639,-0.46453 0.19127,0.0546 -1.06569,-0.1093 0.24593,-0.0273 -1.06569,0.3279 0.1093,-0.0547 -9.80983,5.43776 0.082,-0.0546 -0.84708,0.73779 0.13662,-0.19128 -0.49186,0.95639 0.082,-0.19128 -0.1093,1.0657 -0.0273,-0.24593 0.35523,1.06569 -0.0546,-0.1093 z"
       id="path4347" />
    <path
       style="fill:#ffffff;fill-opacity:1;fill-rule:evenodd;stroke:none;stroke-width:0.264583"
       d="m 705.5241,569.40195 c -1.36627,0.76511 -3.06045,0.27326 -3.82556,-1.09302 0,0 0,0 0,0 v 0 l -5.43777,-9.80983 v 0 c -0.73778,-1.36627 -0.24592,-3.06045 1.09302,-3.82556 0,0 0,0 0,0 v 0 l 26.12313,-14.45516 v 0 c 1.36627,-0.76512 3.08777,-0.27326 3.82556,1.09301 0,0 0,0 0,0 v 0 l 5.43777,9.80984 v 0 c 0.73778,1.36627 0.27325,3.06045 -1.09302,3.82556 0,0 0,0 0,0 z"
       id="path4349" />
    <path
       style="fill:#321900;fill-opacity:1;fill-rule:nonzero;stroke:#321900;stroke-width:0.0273254px;stroke-linecap:butt;stroke-linejoin:round;stroke-miterlimit:4;stroke-dasharray:none;stroke-opacity:1"
       d="m 705.82468,569.92114 c -0.0273,0.0273 -0.082,0.0273 -0.1093,0.0547 l -1.06569,0.35523 c -0.082,0.0273 -0.16396,0.0273 -0.24593,0.0273 l -1.0657,-0.1093 c -0.0547,-0.0273 -0.13662,-0.0273 -0.19127,-0.082 l -0.95639,-0.49185 c -0.082,-0.0273 -0.13663,-0.0546 -0.19128,-0.13663 l -0.73779,-0.84709 c -0.0273,-0.0273 -0.0273,-0.0546 -0.0547,-0.082 l -5.43776,-9.80983 c -0.0273,-0.0273 -0.0273,-0.082 -0.0547,-0.1093 l -0.32791,-1.0657 c -0.0273,-0.082 -0.0273,-0.16395 -0.0273,-0.24592 l 0.10931,-1.0657 c 0.0273,-0.0547 0.0273,-0.13662 0.0547,-0.19128 l 0.46453,-0.95639 c 0.0547,-0.0547 0.082,-0.13662 0.13663,-0.19127 l 0.84709,-0.73779 c 0.0546,-0.0273 0.082,-0.0273 0.1093,-0.0547 l 26.12312,-14.45516 c 0.0273,-0.0273 0.0547,-0.0273 0.10931,-0.0546 l 1.06569,-0.35523 c 0.082,-0.0273 0.16395,-0.0273 0.24593,-0.0273 l 1.09302,0.1093 c 0.0547,0.0273 0.13662,0.0273 0.19127,0.0546 l 0.95639,0.49186 c 0.082,0.0547 0.13663,0.1093 0.19128,0.16395 l 0.71046,0.84709 c 0.0273,0.0273 0.0273,0.0546 0.0547,0.082 l 5.43776,9.80983 c 0.0273,0.0273 0.0273,0.082 0.0547,0.10931 l 0.32791,1.06569 c 0.0273,0.082 0.0273,0.13663 0.0273,0.2186 l -0.082,1.06569 c 0,0.082 -0.0273,0.16396 -0.082,0.21861 l -0.49186,0.95639 c -0.0273,0.082 -0.0546,0.13662 -0.13663,0.19128 l -0.84709,0.73778 c -0.0273,0.0273 -0.0547,0.0273 -0.082,0.0546 z m 25.54929,-15.46621 -0.1093,0.0546 0.84709,-0.73778 -0.13663,0.19128 0.49186,-0.9564 -0.0546,0.21861 0.082,-1.06569 0.0273,0.2186 -0.3279,-1.06569 0.0547,0.1093 -5.43777,-9.80984 0.0546,0.082 -0.71046,-0.84709 0.19128,0.13663 -0.95639,-0.49186 0.19128,0.082 -1.09302,-0.10931 0.24593,-0.0273 -1.06569,0.35523 0.1093,-0.0547 -26.12313,14.45516 0.082,-0.0547 -0.84709,0.73779 0.16395,-0.19128 -0.46453,0.95639 0.0547,-0.19128 -0.1093,1.06569 -0.0273,-0.24593 0.32791,1.0657 -0.0546,-0.10931 5.43776,9.80984 -0.0547,-0.1093 0.73779,0.84709 -0.19128,-0.13663 0.95639,0.49186 -0.19128,-0.0546 1.06569,0.1093 -0.24592,0.0273 1.06569,-0.35523 -0.1093,0.0546 z"
       id="path4351" />
    <path
       style="fill:#ffffff;fill-opacity:1;fill-rule:evenodd;stroke:none;stroke-width:0.264583"
       d="m 785.61498,529.86203 c 1.5029,-0.4372 3.03313,0.43721 3.47033,1.91278 0,0 0,0 0,0 v 0 l 3.08778,10.79355 v 0 c 0.40988,1.5029 -0.43721,3.03313 -1.94011,3.47034 0,0 0,0 0,0 v 0 l -28.71904,8.19763 v 0 c -1.47558,0.43721 -3.03312,-0.43721 -3.47033,-1.91278 0,0 0,0 0,0 v 0 L 754.98316,541.53 v 0 c -0.43721,-1.5029 0.4372,-3.06045 1.91278,-3.47034 0,0 0,0 0,0 z"
       id="path4353" />
    <path
       style="fill:#321900;fill-opacity:1;fill-rule:nonzero;stroke:#321900;stroke-width:0.0273254px;stroke-linecap:butt;stroke-linejoin:round;stroke-miterlimit:4;stroke-dasharray:none;stroke-opacity:1"
       d="m 785.47835,529.31552 c 0.0273,0 0.0547,-0.0273 0.10931,-0.0273 l 1.12034,-0.082 c 0.082,0 0.13663,0 0.2186,0.0273 l 1.01105,0.3279 c 0.082,0.0273 0.13662,0.0547 0.19127,0.1093 l 0.81977,0.68314 c 0.0547,0.0547 0.1093,0.1093 0.13662,0.19128 l 0.51919,0.98371 c 0.0273,0.0273 0.0547,0.0546 0.0547,0.10931 l 3.08777,10.79355 c 0,0.0273 0.0273,0.0546 0.0273,0.1093 l 0.082,1.12034 c 0,0.082 0,0.13663 -0.0273,0.2186 l -0.32791,1.01105 c -0.0273,0.082 -0.082,0.13662 -0.1093,0.19127 l -0.71046,0.81977 c -0.0546,0.0547 -0.1093,0.1093 -0.19128,0.13663 l -0.98371,0.51918 c -0.0273,0.0273 -0.0547,0.0546 -0.10931,0.0546 l -28.71904,8.19763 c -0.0273,0 -0.0547,0.0273 -0.1093,0.0273 l -1.09302,0.082 c -0.082,0 -0.13663,0 -0.2186,-0.0273 l -1.03837,-0.32791 c -0.082,-0.0273 -0.13662,-0.0547 -0.19128,-0.1093 l -0.81976,-0.68313 c -0.0547,-0.0547 -0.1093,-0.1093 -0.13663,-0.19128 l -0.51918,-0.98372 c -0.0273,-0.0273 -0.0547,-0.0546 -0.0547,-0.1093 l -3.06045,-10.79355 c 0,-0.0273 -0.0273,-0.082 -0.0273,-0.1093 l -0.082,-1.12035 c 0,-0.082 0,-0.13662 0.0273,-0.2186 l 0.32791,-1.01104 c 0.0273,-0.082 0.0547,-0.13663 0.1093,-0.19128 l 0.68314,-0.84709 c 0.0546,-0.0546 0.1093,-0.1093 0.19127,-0.16395 l 0.98372,-0.49186 c 0.0273,0 0.0547,-0.0273 0.1093,-0.0273 z m -28.41846,9.31798 0.1093,-0.0273 -0.98371,0.49186 0.19128,-0.16395 -0.68314,0.84709 0.1093,-0.19128 -0.3279,1.01104 0.0273,-0.2186 0.082,1.12034 -0.0273,-0.1093 3.06045,10.79355 -0.0547,-0.1093 0.51919,0.98372 -0.13663,-0.19128 0.81976,0.68313 -0.19128,-0.1093 1.03837,0.32791 -0.2186,-0.0273 1.09301,-0.082 -0.1093,0.0273 28.71904,-8.19763 -0.1093,0.0546 0.98372,-0.51919 -0.19128,0.10931 0.71046,-0.81977 -0.1093,0.21861 0.32791,-1.01105 -0.0273,0.21861 -0.082,-1.12035 0.0273,0.10931 -3.08777,-10.79355 0.0547,0.1093 -0.51919,-0.98372 0.13663,0.19128 -0.81976,-0.68314 0.19127,0.1093 -1.01104,-0.3279 0.21861,0.0273 -1.12035,0.082 0.1093,-0.0273 z"
       id="path4355" />
    <path
       style="fill:#ffffff;fill-opacity:1;fill-rule:evenodd;stroke:none;stroke-width:0.264583"
       d="m 689.40209,500.32322 c -0.43721,-1.47557 0.4372,-3.03312 1.91278,-3.47033 0,0 0,0 0,0 v 0 l 10.79355,-3.06045 v 0 c 1.5029,-0.4372 3.03312,0.43721 3.47033,1.91278 0,0 0,0 0,0 v 0 l 8.19764,28.71905 v 0 c 0.4372,1.5029 -0.43721,3.03312 -1.91279,3.47033 0,0 0,0 0,0 v 0 l -10.79355,3.08777 v 0 c -1.5029,0.40989 -3.06045,-0.4372 -3.47033,-1.9401 0,0 0,0 0,0 z"
       id="path4357" />
    <path
       style="fill:#321900;fill-opacity:1;fill-rule:nonzero;stroke:#321900;stroke-width:0.0273254px;stroke-linecap:butt;stroke-linejoin:round;stroke-miterlimit:4;stroke-dasharray:none;stroke-opacity:1"
       d="m 688.85558,500.48718 c 0,-0.0273 -0.0273,-0.0546 -0.0273,-0.1093 l -0.082,-1.09302 c 0,-0.082 0,-0.13663 0.0273,-0.2186 l 0.32791,-1.03837 c 0.0273,-0.082 0.0546,-0.13663 0.1093,-0.19128 l 0.68314,-0.81976 c 0.0547,-0.0546 0.1093,-0.10931 0.19127,-0.13663 l 0.98372,-0.51918 c 0.0273,-0.0273 0.0547,-0.0547 0.1093,-0.0547 l 10.79355,-3.06044 c 0.0273,0 0.0547,-0.0273 0.1093,-0.0273 l 1.12035,-0.082 c 0.082,0 0.13662,0 0.2186,0.0273 l 1.01104,0.3279 c 0.082,0.0273 0.13663,0.0547 0.19128,0.1093 l 0.81976,0.68314 c 0.0547,0.0547 0.10931,0.1093 0.13663,0.19128 l 0.51919,0.98372 c 0.0273,0.0273 0.0546,0.0546 0.0546,0.1093 l 8.19763,28.71904 c 0,0.0273 0.0273,0.0546 0.0273,0.1093 l 0.082,1.12035 c 0,0.082 0,0.13662 -0.0273,0.2186 l -0.32791,1.01104 c -0.0273,0.082 -0.0547,0.13663 -0.1093,0.19128 l -0.68314,0.81976 c -0.0547,0.0546 -0.1093,0.1093 -0.19128,0.13663 l -0.98371,0.51918 c -0.0273,0.0273 -0.0547,0.0547 -0.1093,0.0547 l -10.79355,3.08778 c -0.0273,0 -0.082,0.0273 -0.10931,0.0273 l -1.12034,0.082 c -0.082,0 -0.13663,0 -0.2186,-0.0273 l -1.01104,-0.32791 c -0.082,-0.0273 -0.13663,-0.0546 -0.19128,-0.1093 l -0.84709,-0.71046 c -0.0546,-0.0547 -0.1093,-0.10931 -0.16395,-0.19128 l -0.49186,-0.98372 c 0,-0.0273 -0.0273,-0.0546 -0.0273,-0.1093 z m 9.31798,28.41846 -0.0273,-0.1093 0.49186,0.98371 -0.16395,-0.19127 0.84708,0.71046 -0.19127,-0.1093 1.01104,0.3279 -0.21861,-0.0273 1.12035,-0.082 -0.1093,0.0273 10.79355,-3.08778 -0.10931,0.0546 0.98372,-0.51918 -0.19128,0.13663 0.68314,-0.81977 -0.1093,0.19128 0.3279,-1.01104 -0.0273,0.2186 -0.082,-1.12034 0.0273,0.1093 -8.19764,-28.71904 0.0547,0.1093 -0.51918,-0.98372 0.13663,0.19128 -0.81977,-0.68314 0.19128,0.10931 -1.01104,-0.32791 0.2186,0.0273 -1.12034,0.082 0.1093,-0.0273 -10.79355,3.06045 0.1093,-0.0547 -0.98371,0.51918 0.19128,-0.13663 -0.68314,0.81977 0.1093,-0.19128 -0.3279,1.03836 0.0273,-0.2186 0.082,1.09302 -0.0273,-0.1093 z"
       id="path4359" />
    <path
       style="fill:#ffffff;fill-opacity:1;fill-rule:evenodd;stroke:none;stroke-width:0.264583"
       d="m 735.19953,524.47892 c 1.55755,0.1093 2.73255,1.42092 2.62325,2.97847 0,0 0,0 0,0 v 0 l -0.65581,11.20343 v 0 c -0.10931,1.55756 -1.42093,2.73255 -2.97848,2.62325 0,0 0,0 0,0 v 0 l -29.81206,-1.77616 v 0 c -1.55755,-0.1093 -2.73254,-1.42092 -2.62324,-2.97847 0,0 0,0 0,0 v 0 l 0.65581,-11.20343 v 0 c 0.1093,-1.55755 1.44825,-2.73255 2.97847,-2.62324 0,0 0,0 0,0 z"
       id="path4361" />
    <path
       style="fill:#321900;fill-opacity:1;fill-rule:nonzero;stroke:#321900;stroke-width:0.0273254px;stroke-linecap:butt;stroke-linejoin:round;stroke-miterlimit:4;stroke-dasharray:none;stroke-opacity:1"
       d="m 735.25418,523.90509 c 0.0273,0 0.082,0.0273 0.10931,0.0273 l 1.09301,0.30058 c 0.082,0.0273 0.13663,0.0547 0.21861,0.1093 l 0.84709,0.65581 c 0.0547,0.0273 0.082,0.082 0.13662,0.13663 l 0.54651,0.90174 c 0.0273,0.082 0.0547,0.16395 0.082,0.24593 l 0.13663,1.12034 c 0,0.0273 0,0.0546 0,0.1093 l -0.65581,11.20344 c 0,0.0273 -0.0273,0.082 -0.0273,0.1093 l -0.30058,1.09302 c -0.0273,0.082 -0.0547,0.13662 -0.1093,0.2186 l -0.65581,0.84709 c -0.0273,0.0546 -0.082,0.082 -0.13663,0.13663 l -0.90174,0.5465 c -0.082,0.0273 -0.16395,0.0547 -0.24593,0.082 l -1.12034,0.13663 c -0.0273,0 -0.082,0 -0.1093,0 l -29.81206,-1.77616 c -0.0273,0 -0.082,-0.0273 -0.10931,-0.0273 l -1.09301,-0.30058 c -0.082,-0.0273 -0.13663,-0.0546 -0.21861,-0.1093 l -0.84709,-0.65581 c -0.0546,-0.0273 -0.082,-0.082 -0.13662,-0.13663 l -0.54651,-0.90174 c -0.0273,-0.082 -0.0546,-0.16395 -0.082,-0.24593 l -0.13663,-1.12034 c 0,-0.0273 0,-0.082 0,-0.10931 l 0.65582,-11.20343 c 0,-0.0273 0.0273,-0.082 0.0273,-0.1093 l 0.30058,-1.09302 c 0.0273,-0.082 0.0547,-0.13663 0.1093,-0.2186 l 0.65581,-0.84709 c 0.0273,-0.0546 0.082,-0.1093 0.16396,-0.13663 l 0.92906,-0.54651 c 0.0547,-0.0273 0.13663,-0.0547 0.2186,-0.082 l 1.09302,-0.13663 c 0.0273,0 0.0546,0 0.1093,0 z m -29.89403,-0.60116 h 0.1093 l -1.09302,0.13662 0.21861,-0.082 -0.92907,0.54652 0.16395,-0.13663 -0.65581,0.84709 0.1093,-0.21861 -0.30058,1.09302 0.0273,-0.1093 -0.65581,11.20343 v -0.1093 l 0.13663,1.12034 -0.082,-0.24593 0.54651,0.90174 -0.13663,-0.13662 0.84709,0.65581 -0.2186,-0.10931 1.09301,0.30058 -0.1093,-0.0273 29.81207,1.77615 h -0.10931 l 1.12034,-0.13662 -0.24592,0.082 0.90174,-0.54651 -0.13663,0.13663 0.65581,-0.84709 -0.1093,0.21861 0.30058,-1.09302 -0.0273,0.1093 0.65581,-11.20343 v 0.1093 l -0.13662,-1.12034 0.082,0.24592 -0.54651,-0.90174 0.13663,0.13663 -0.84709,-0.65581 0.2186,0.1093 -1.09301,-0.30058 0.1093,0.0273 z"
       id="path4363" />
    <path
       style="fill:#ffffff;fill-opacity:1;fill-rule:evenodd;stroke:none;stroke-width:0.264583"
       d="m 751.40352,462.53213 c 0.10931,-1.55755 1.42093,-2.73254 2.97848,-2.65056 0,0 0,0 0,0 v 0 l 11.20343,0.68313 v 0 c 1.55755,0.082 2.73254,1.42092 2.62324,2.97847 0,0 0,0 0,0 v 0 l -1.77615,29.81207 v 0 c -0.1093,1.53022 -1.42093,2.70522 -2.97847,2.62324 0,0 0,0 0,0 v 0 l -11.20344,-0.68314 v 0 c -1.55755,-0.082 -2.73254,-1.42092 -2.62324,-2.97847 0,0 0,0 0,0 z"
       id="path4365" />
    <path
       style="fill:#321900;fill-opacity:1;fill-rule:nonzero;stroke:#321900;stroke-width:0.0273254px;stroke-linecap:butt;stroke-linejoin:round;stroke-miterlimit:4;stroke-dasharray:none;stroke-opacity:1"
       d="m 750.82969,462.50481 c 0,-0.0273 0.0273,-0.082 0.0273,-0.1093 l 0.30058,-1.09302 c 0.0273,-0.082 0.0547,-0.13663 0.1093,-0.21861 l 0.65581,-0.84708 c 0.0273,-0.0547 0.082,-0.082 0.13663,-0.13663 l 0.90174,-0.54651 c 0.082,-0.0273 0.16395,-0.0546 0.2186,-0.082 l 1.12034,-0.16395 c 0.0547,0 0.082,0 0.13663,0 l 11.20343,0.68314 c 0.0273,0 0.0547,0 0.1093,0.0273 l 1.09302,0.27326 c 0.082,0 0.13663,0.0546 0.2186,0.1093 l 0.84709,0.65581 c 0.0547,0.0273 0.082,0.082 0.13663,0.16395 l 0.54651,0.92907 c 0.0273,0.0546 0.0546,0.13662 0.082,0.2186 l 0.13662,1.12034 c 0,0.0273 0,0.0546 0,0.10931 l -1.77615,29.81206 c 0,0.0273 -0.0273,0.082 -0.0273,0.1093 l -0.30058,1.06569 c -0.0273,0.082 -0.0546,0.13663 -0.1093,0.2186 l -0.65581,0.84709 c -0.0273,0.0546 -0.082,0.082 -0.13663,0.13663 l -0.90173,0.54651 c -0.082,0.0273 -0.16396,0.0546 -0.21861,0.082 l -1.12034,0.16395 c -0.0546,0 -0.082,0 -0.13663,0 l -11.20343,-0.68314 c -0.0273,0 -0.0546,-0.0273 -0.1093,-0.0273 l -1.09302,-0.27326 c -0.082,-0.0273 -0.13663,-0.0546 -0.21861,-0.1093 l -0.84708,-0.65581 c -0.0547,-0.0273 -0.10931,-0.082 -0.13663,-0.16395 l -0.54651,-0.92907 c -0.0273,-0.0547 -0.0547,-0.13663 -0.082,-0.2186 l -0.13662,-1.12034 c 0,-0.0273 0,-0.082 0,-0.10931 z m -0.60116,29.86671 v -0.1093 l 0.13663,1.12034 -0.082,-0.2186 0.54651,0.92906 -0.13663,-0.16395 0.84709,0.65581 -0.2186,-0.1093 1.09301,0.27325 -0.1093,-0.0273 11.20344,0.68313 h -0.13663 l 1.12034,-0.16395 -0.2186,0.082 0.90174,-0.54651 -0.13663,0.13663 0.65581,-0.84709 -0.1093,0.2186 0.30058,-1.06569 -0.0273,0.1093 1.77616,-29.81206 v 0.1093 l -0.13663,-1.12034 0.082,0.2186 -0.54651,-0.92906 0.13663,0.16395 -0.84709,-0.65581 0.2186,0.1093 -1.09302,-0.27325 0.1093,0.0273 -11.20343,-0.68314 h 0.13663 l -1.12034,0.16396 0.2186,-0.082 -0.90174,0.54651 0.13663,-0.13663 -0.65581,0.84709 0.1093,-0.2186 -0.30058,1.09302 0.0273,-0.10931 z"
       id="path4367" />
    <path
       style="fill:#ffffff;fill-opacity:1;fill-rule:evenodd;stroke:none;stroke-width:0.264583"
       d="m 725.58098,567.68045 c 0.68313,-1.3936 2.34999,-1.99476 3.74358,-1.31162 0,0 0,0 0,0 v 0 l 10.11042,4.86393 v 0 c 1.3936,0.68313 1.99476,2.34998 1.31162,3.74358 0,0 0,0 0,0 v 0 l -12.95226,26.91556 v 0 c -0.65581,1.39361 -2.34999,1.96744 -3.74359,1.31163 0,0 0,0 0,0 v 0 l -10.11041,-4.86393 v 0 c -1.3936,-0.68314 -1.96743,-2.34999 -1.31162,-3.74359 0,0 0,0 0,0 z"
       id="path4369" />
    <path
       style="fill:#321900;fill-opacity:1;fill-rule:nonzero;stroke:#321900;stroke-width:0.0273254px;stroke-linecap:butt;stroke-linejoin:round;stroke-miterlimit:4;stroke-dasharray:none;stroke-opacity:1"
       d="m 725.06179,567.43452 c 0.0273,-0.0273 0.0547,-0.0547 0.0547,-0.082 l 0.68313,-0.90174 c 0.0546,-0.082 0.1093,-0.13662 0.19128,-0.16395 l 0.92907,-0.51918 c 0.0547,-0.0273 0.13662,-0.0547 0.19127,-0.082 l 1.06569,-0.16395 c 0.082,0 0.16396,0 0.24594,0.0273 l 1.06569,0.27326 c 0.0273,0 0.0546,0.0273 0.1093,0.0273 l 10.11041,4.86393 c 0.0273,0.0273 0.0547,0.0546 0.082,0.0546 l 0.90174,0.68314 c 0.082,0.0547 0.1093,0.1093 0.16395,0.19128 l 0.54651,0.92906 c 0.0273,0.0547 0.0547,0.13663 0.082,0.21861 l 0.13662,1.06569 c 0,0.0546 0,0.13663 -0.0273,0.2186 l -0.27326,1.06569 c 0,0.0273 -0.0273,0.0547 -0.0273,0.10931 l -12.95226,26.91556 c -0.0273,0.0273 -0.0547,0.0546 -0.0547,0.082 l -0.65581,0.87441 c -0.0546,0.082 -0.1093,0.1093 -0.19128,0.16396 l -0.92907,0.5465 c -0.0546,0.0273 -0.13662,0.0547 -0.19127,0.082 l -1.0657,0.16395 c -0.082,0 -0.16395,0 -0.24593,-0.0273 l -1.09301,-0.27326 c -0.0273,0 -0.0547,-0.0273 -0.10931,-0.0273 l -10.11041,-4.86393 c -0.0273,-0.0273 -0.0547,-0.0546 -0.1093,-0.082 l -0.87442,-0.68314 c -0.0546,-0.0273 -0.1093,-0.082 -0.13662,-0.16395 l -0.54651,-0.92906 c -0.0273,-0.0547 -0.0547,-0.13663 -0.082,-0.19128 l -0.16395,-1.06569 c 0,-0.082 0,-0.16396 0.0273,-0.24593 l 0.27326,-1.06569 c 0,-0.0273 0.0273,-0.082 0.0273,-0.10931 z m -11.88656,27.43475 0.0273,-0.1093 -0.27325,1.06569 0.0273,-0.24593 0.16395,1.06569 -0.082,-0.19128 0.54651,0.92907 -0.13663,-0.16396 0.87441,0.68314 -0.1093,-0.082 10.11042,4.86394 -0.1093,-0.0273 1.09301,0.27325 -0.24593,-0.0273 1.0657,-0.16396 -0.19128,0.082 0.92906,-0.54651 -0.19127,0.16396 0.65581,-0.87442 -0.0547,0.082 12.95226,-26.91557 -0.0273,0.1093 0.27325,-1.06569 -0.0273,0.21861 -0.13663,-1.06569 0.082,0.2186 -0.54651,-0.92907 0.16395,0.16395 -0.90174,-0.68313 0.082,0.082 -10.11042,-4.86393 0.10931,0.0273 -1.06569,-0.27325 0.24592,0.0273 -1.06569,0.16395 0.19128,-0.082 -0.92907,0.51918 0.16396,-0.16395 -0.68314,0.90174 0.082,-0.082 z"
       id="path4371" />
    <path
       style="fill:#ffffff;fill-opacity:1;fill-rule:evenodd;stroke:none;stroke-width:0.264583"
       d="m 746.73087,601.20877 c -1.39359,-0.65581 -1.96743,-2.34999 -1.31162,-3.74359 0,0 0,0 0,0 v 0 l 4.86393,-10.11041 v 0 c 0.68314,-1.3936 2.34999,-1.99476 3.74359,-1.31162 0,0 0,0 0,0 v 0 l 26.91556,12.95226 v 0 c 1.3936,0.68314 1.99476,2.34999 1.31162,3.74358 0,0 0,0 0,0 v 0 l -4.86393,10.11042 v 0 c -0.68313,1.3936 -2.34999,1.99476 -3.74358,1.31162 0,0 0,0 0,0 z"
       id="path4373" />
    <path
       style="fill:#321900;fill-opacity:1;fill-rule:nonzero;stroke:#321900;stroke-width:0.0273254px;stroke-linecap:butt;stroke-linejoin:round;stroke-miterlimit:4;stroke-dasharray:none;stroke-opacity:1"
       d="m 746.48494,601.75528 c -0.0273,-0.0273 -0.0547,-0.0546 -0.082,-0.0546 l -0.87442,-0.65581 c -0.082,-0.0547 -0.1093,-0.1093 -0.16395,-0.19128 l -0.54651,-0.92907 c -0.0273,-0.0546 -0.0547,-0.13662 -0.082,-0.19127 l -0.16396,-1.0657 c 0,-0.082 0,-0.16395 0.0273,-0.24593 l 0.27325,-1.09301 c 0,-0.0273 0.0273,-0.0546 0.0273,-0.10931 l 4.86393,-10.11041 c 0.0273,-0.0273 0.0547,-0.0546 0.0547,-0.082 l 0.68313,-0.90174 c 0.0547,-0.082 0.10931,-0.13662 0.19128,-0.16395 l 0.92907,-0.51918 c 0.0546,-0.0273 0.13663,-0.0546 0.19128,-0.082 l 1.06569,-0.16395 c 0.082,0 0.16395,0 0.24593,0.0273 l 1.06569,0.27326 c 0.0273,0 0.0547,0.0273 0.1093,0.0273 l 26.91557,12.95227 c 0.0273,0.0273 0.0547,0.0546 0.082,0.0546 l 0.90174,0.68313 c 0.082,0.0547 0.1093,0.1093 0.16395,0.19128 l 0.54651,0.92907 c 0.0273,0.0546 0.0547,0.13662 0.082,0.2186 l 0.13663,1.06569 c 0,0.0546 0,0.13663 -0.0273,0.21861 l -0.27325,1.06569 c 0,0.0273 -0.0273,0.0547 -0.0273,0.1093 l -4.86393,10.11041 c -0.0273,0.0273 -0.0547,0.0547 -0.082,0.082 l -0.68313,0.90174 c -0.0273,0.082 -0.082,0.1093 -0.16395,0.16395 l -0.92907,0.54651 c -0.0547,0.0273 -0.13663,0.0546 -0.2186,0.082 l -1.06569,0.13662 c -0.0547,0 -0.13663,0 -0.21861,-0.0273 l -1.06569,-0.27326 c -0.0273,0 -0.082,-0.0273 -0.1093,-0.0273 z m 27.43475,11.88657 -0.1093,-0.0273 1.06569,0.27326 -0.2186,-0.0273 1.06569,-0.13663 -0.2186,0.082 0.92906,-0.54651 -0.19128,0.16395 0.68314,-0.90174 -0.0547,0.082 4.86393,-10.11042 -0.0273,0.10931 0.27326,-1.06569 -0.0273,0.2186 -0.13662,-1.06569 0.082,0.2186 -0.54651,-0.92906 0.16396,0.16395 -0.90174,-0.68314 0.082,0.082 -26.91556,-12.95226 0.1093,0.0273 -1.06569,-0.27325 0.24593,0.0273 -1.0657,0.16396 0.19128,-0.082 -0.92906,0.51918 0.16395,-0.16395 -0.68314,0.90174 0.082,-0.082 -4.86393,10.11042 0.0273,-0.1093 -0.27325,1.09301 0.0273,-0.24592 0.16395,1.06569 -0.082,-0.19128 0.54651,0.92907 -0.16395,-0.19128 0.87441,0.65581 -0.082,-0.0546 z"
       id="path4375" />
    <path
       style="fill:#ffffff;fill-opacity:1;fill-rule:evenodd;stroke:none;stroke-width:0.264583"
       d="m 737.49487,503.57495 c 1.09302,-1.09301 2.86917,-1.09301 3.98952,0 0,0 0,0 0,0 v 0 l 7.89705,7.95171 v 0 c 1.09302,1.09301 1.09302,2.86917 0,3.96219 0,0 0,0 0,0 v 0 l -21.14989,21.06791 v 0 c -1.09302,1.12035 -2.86918,1.09302 -3.96219,0 0,0 0,0 0,0 v 0 l -7.92438,-7.9517 v 0 c -1.09302,-1.09302 -1.09302,-2.86917 0,-3.96219 0,0 0,0 0,0 z"
       id="path4377" />
    <path
       style="fill:#321900;fill-opacity:1;fill-rule:nonzero;stroke:#321900;stroke-width:0.0273254px;stroke-linecap:butt;stroke-linejoin:round;stroke-miterlimit:4;stroke-dasharray:none;stroke-opacity:1"
       d="m 737.08499,503.16507 c 0.0273,-0.0273 0.082,-0.0547 0.1093,-0.0547 l 0.92907,-0.60116 c 0.0547,-0.0546 0.13662,-0.082 0.19128,-0.082 l 1.06569,-0.2186 c 0.082,-0.0273 0.16395,-0.0273 0.24593,0 l 1.06569,0.2186 c 0.0547,0 0.13663,0.0273 0.19128,0.082 l 0.92906,0.60116 c 0.0273,0 0.082,0.0273 0.1093,0.0547 l 7.89706,7.9517 c 0.0273,0.0273 0.0273,0.0547 0.0547,0.10931 l 0.62848,0.92906 c 0.0547,0.0546 0.082,0.13663 0.082,0.21861 l 0.19128,1.06569 c 0.0273,0.0546 0.0273,0.13663 0,0.19128 l -0.19128,1.03836 c 0,0.082 -0.0273,0.16396 -0.082,0.21861 l -0.62848,0.92906 c -0.0273,0.0546 -0.0547,0.082 -0.0547,0.1093 l -21.1499,21.06792 c -0.0273,0.0273 -0.0547,0.0273 -0.1093,0.0546 l -0.92906,0.62849 c -0.0546,0.0547 -0.13663,0.082 -0.21861,0.082 l -1.03836,0.19128 c -0.0546,0.0273 -0.13663,0.0273 -0.19128,0 l -1.06569,-0.19128 c -0.082,0 -0.16396,-0.0273 -0.21861,-0.082 l -0.92906,-0.62849 c -0.0547,-0.0273 -0.082,-0.0546 -0.10931,-0.0546 l -7.92438,-7.9517 c -0.0273,-0.0546 -0.0546,-0.082 -0.0546,-0.1093 l -0.60116,-0.92907 c -0.0547,-0.0546 -0.082,-0.13663 -0.082,-0.19128 l -0.2186,-1.03836 c -0.0273,-0.082 -0.0273,-0.16396 0,-0.24593 l 0.2186,-1.0657 c 0,-0.0546 0.0273,-0.13662 0.082,-0.19127 l 0.60116,-0.92907 c 0,-0.0273 0.0273,-0.082 0.0546,-0.1093 z m -20.30281,21.91501 0.0547,-0.1093 -0.60116,0.92906 0.082,-0.19128 -0.2186,1.0657 v -0.24593 l 0.2186,1.03836 -0.082,-0.19127 0.60116,0.92906 -0.0547,-0.1093 7.92438,7.95171 -0.1093,-0.0547 0.92907,0.62849 -0.21861,-0.1093 1.0657,0.19127 h -0.19128 l 1.03837,-0.19127 -0.21861,0.1093 0.92907,-0.62849 -0.1093,0.0547 21.14989,-21.06792 -0.0547,0.1093 0.62848,-0.92907 -0.1093,0.21861 0.19128,-1.03837 v 0.19128 l -0.19128,-1.0657 0.1093,0.21861 -0.62848,-0.92907 0.0547,0.082 -7.89706,-7.9517 0.10931,0.082 -0.92907,-0.60116 0.19128,0.082 -1.06569,-0.21861 h 0.24593 l -1.0657,0.21861 0.19128,-0.082 -0.92906,0.60116 0.1093,-0.0546 z"
       id="path4379" />
    <path
       style="fill:#ffffff;fill-opacity:1;fill-rule:evenodd;stroke:none;stroke-width:0.264583"
       d="m 726.51004,490.48606 c -1.09301,-1.09301 -1.09301,-2.86917 0,-3.96218 0,0 0,0 0,0 v 0 l 7.95171,-7.92438 v 0 c 1.09301,-1.09302 2.86917,-1.09302 3.96219,0 0,0 0,0 0,0 v 0 l 21.09524,21.14989 v 0 c 1.09302,1.09302 1.09302,2.86917 0,3.96219 0,0 0,0 0,0 v 0 l -7.9517,7.92438 v 0 c -1.09302,1.09302 -2.86918,1.09302 -3.96219,0 0,0 0,0 0,0 z"
       id="path4381" />
    <path
       style="fill:#321900;fill-opacity:1;fill-rule:nonzero;stroke:#321900;stroke-width:0.0273254px;stroke-linecap:butt;stroke-linejoin:round;stroke-miterlimit:4;stroke-dasharray:none;stroke-opacity:1"
       d="m 726.10016,490.92327 c -0.0273,-0.0547 -0.0547,-0.082 -0.0547,-0.1093 l -0.60116,-0.92907 c -0.0547,-0.0547 -0.082,-0.13662 -0.082,-0.19127 l -0.2186,-1.03837 c -0.0273,-0.082 -0.0273,-0.16395 0,-0.24593 l 0.2186,-1.06569 c 0,-0.0546 0.0273,-0.13663 0.082,-0.19128 l 0.60116,-0.92906 c 0,-0.0273 0.0273,-0.082 0.0547,-0.10931 l 7.9517,-7.92438 c 0.0273,-0.0273 0.082,-0.0547 0.10931,-0.0547 l 0.92906,-0.60116 c 0.0547,-0.0546 0.13663,-0.082 0.19128,-0.082 l 1.06569,-0.21861 c 0.082,-0.0273 0.16396,-0.0273 0.24593,0 l 1.03837,0.21861 c 0.0546,0 0.13663,0.0273 0.19128,0.082 l 0.92906,0.60116 c 0.0273,0 0.082,0.0273 0.1093,0.0547 l 21.09525,21.1499 c 0.0273,0.0273 0.0273,0.0546 0.0547,0.1093 l 0.62848,0.92907 c 0.0547,0.0546 0.082,0.13662 0.082,0.2186 l 0.19128,1.06569 c 0.0273,0.0546 0.0273,0.13663 0,0.19128 l -0.19128,1.03837 c 0,0.082 -0.0273,0.16395 -0.082,0.2186 l -0.62848,0.92907 c -0.0273,0.0546 -0.0547,0.082 -0.0547,0.1093 l -7.95171,7.92438 c -0.0273,0.0273 -0.0546,0.0273 -0.1093,0.0546 l -0.92906,0.62848 c -0.0547,0.0546 -0.13663,0.082 -0.21861,0.082 l -1.03836,0.19128 c -0.0547,0.0273 -0.13663,0.0273 -0.19128,0 l -1.06569,-0.19128 c -0.082,0 -0.16396,-0.0273 -0.21861,-0.082 l -0.92906,-0.62848 c -0.0546,-0.0273 -0.082,-0.0546 -0.10931,-0.0546 z m 21.94233,20.30281 -0.1093,-0.0546 0.92907,0.62848 -0.21861,-0.1093 1.0657,0.19128 h -0.19128 l 1.03837,-0.19128 -0.21861,0.1093 0.92907,-0.62848 -0.1093,0.0546 7.9517,-7.92438 -0.0547,0.1093 0.62848,-0.92906 -0.1093,0.2186 0.19128,-1.03837 v 0.19128 l -0.19128,-1.06569 0.1093,0.2186 -0.62848,-0.92906 0.0547,0.1093 -21.09524,-21.1499 0.1093,0.0546 -0.92907,-0.60116 0.19128,0.082 -1.03837,-0.2186 h 0.24593 l -1.06569,0.2186 0.19128,-0.082 -0.92907,0.60116 0.1093,-0.0546 -7.9517,7.92438 0.0547,-0.1093 -0.60116,0.92906 0.082,-0.19127 -0.21861,1.06569 v -0.24593 l 0.21861,1.03837 -0.082,-0.19128 0.60116,0.92906 -0.0547,-0.1093 z"
       id="path4383" />
    <path
       style="fill:#ffffff;fill-opacity:1;fill-rule:evenodd;stroke:none;stroke-width:0.264583"
       d="m 749.62737,552.4875 c 1.53023,0.16395 2.65057,1.55755 2.45929,3.08778 0,0 0,0 0,0 v 0 l -1.25697,11.14878 v 0 c -0.16395,1.55755 -1.55755,2.65057 -3.08778,2.48661 0,0 0,0 0,0 v 0 l -29.67543,-3.3337 v 0 c -1.55755,-0.19128 -2.65057,-1.58488 -2.48661,-3.1151 0,0 0,0 0,0 v 0 l 1.25696,-11.14878 v 0 c 0.16396,-1.53023 1.55756,-2.65057 3.11511,-2.45929 0,0 0,0 0,0 z"
       id="path4385" />
    <path
       style="fill:#321900;fill-opacity:1;fill-rule:nonzero;stroke:#321900;stroke-width:0.0273254px;stroke-linecap:butt;stroke-linejoin:round;stroke-miterlimit:4;stroke-dasharray:none;stroke-opacity:1"
       d="m 749.70935,551.91367 c 0.0273,0 0.0546,0.0273 0.1093,0.0273 l 1.06569,0.32791 c 0.082,0.0273 0.13663,0.0547 0.19128,0.1093 l 0.81976,0.71046 c 0.0547,0.0546 0.1093,0.1093 0.13663,0.19128 l 0.49186,0.95639 c 0.0546,0.0546 0.082,0.13663 0.082,0.2186 l 0.082,1.09302 c 0,0.0273 0,0.082 0,0.1093 l -1.25697,11.14879 c 0,0.0273 -0.0273,0.0546 -0.0273,0.1093 l -0.3279,1.06569 c -0.0273,0.082 -0.0547,0.13663 -0.1093,0.19128 l -0.71046,0.81976 c -0.0547,0.0546 -0.10931,0.1093 -0.19128,0.13663 l -0.95639,0.49186 c -0.0547,0.0546 -0.13663,0.0546 -0.19128,0.082 l -1.09302,0.1093 c -0.0546,0 -0.082,0 -0.13663,0 l -29.67551,-3.33371 c -0.0273,-0.0273 -0.082,-0.0273 -0.1093,-0.0273 l -1.0657,-0.35523 c -0.082,-0.0273 -0.13662,-0.082 -0.2186,-0.1093 l -0.81976,-0.71046 c -0.0547,-0.0546 -0.082,-0.1093 -0.13663,-0.19128 l -0.49186,-0.95639 c -0.0273,-0.0546 -0.0273,-0.13663 -0.0546,-0.19128 l -0.1093,-1.09302 c 0,-0.0546 0,-0.082 0,-0.13662 l 1.25697,-11.14878 c 0,-0.0273 0.0273,-0.082 0.0273,-0.10931 l 0.3279,-1.06569 c 0.0273,-0.082 0.0547,-0.13663 0.1093,-0.2186 l 0.71046,-0.81977 c 0.0547,-0.0546 0.10931,-0.082 0.19128,-0.13662 l 0.95639,-0.49186 c 0.0546,-0.0273 0.13663,-0.0546 0.21861,-0.0546 l 1.12034,-0.082 c 0.0273,0 0.082,0 0.1093,0 z m -29.81206,-2.15871 h 0.1093 l -1.12035,0.082 0.21861,-0.082 -0.95639,0.49185 0.19127,-0.13662 -0.71046,0.81976 0.1093,-0.19128 -0.3279,1.06569 0.0273,-0.1093 -1.25696,11.14878 v -0.13662 l 0.1093,1.09302 -0.082,-0.19128 0.49186,0.95639 -0.13663,-0.19128 0.81976,0.71046 -0.19127,-0.1093 1.06569,0.35523 -0.1093,-0.0273 29.67543,3.3337 h -0.13663 l 1.09302,-0.1093 -0.19128,0.0546 0.95639,-0.49186 -0.19127,0.13663 0.71046,-0.81977 -0.1093,0.21861 0.3279,-1.0657 -0.0273,0.10931 1.25697,-11.14879 v 0.10931 l -0.082,-1.09302 0.0546,0.2186 -0.49186,-0.95639 0.13663,0.19128 -0.81976,-0.71046 0.2186,0.1093 -1.06569,-0.3279 0.1093,0.0273 z"
       id="path4387" />
    <path
       style="fill:#ffffff;fill-opacity:1;fill-rule:evenodd;stroke:none;stroke-width:0.264583"
       d="m 820.15434,577.79086 c 0.19128,-1.55755 1.55756,-2.65057 3.11511,-2.48661 0,0 0,0 0,0 v 0 l 11.14878,1.25697 v 0 c 1.53022,0.16395 2.65056,1.55755 2.45929,3.08777 0,0 0,0 0,0 v 0 l -3.33371,29.67544 v 0 c -0.16395,1.55755 -1.55755,2.65057 -3.08777,2.48661 0,0 0,0 0,0 v 0 l -11.14878,-1.25697 v 0 c -1.55755,-0.16395 -2.65057,-1.55755 -2.48662,-3.08777 0,0 0,0 0,0 z"
       id="path4389" />
    <path
       style="fill:#321900;fill-opacity:1;fill-rule:nonzero;stroke:#321900;stroke-width:0.0273254px;stroke-linecap:butt;stroke-linejoin:round;stroke-miterlimit:4;stroke-dasharray:none;stroke-opacity:1"
       d="m 819.58051,577.73621 c 0,-0.0273 0.0273,-0.082 0.0273,-0.1093 l 0.35523,-1.06569 c 0.0273,-0.082 0.0547,-0.13663 0.1093,-0.19128 l 0.68313,-0.81976 c 0.0547,-0.0547 0.10931,-0.10931 0.19128,-0.16396 l 0.95639,-0.49185 c 0.0547,-0.0273 0.13663,-0.0547 0.19128,-0.0547 l 1.12035,-0.1093 c 0.0546,0 0.082,0 0.13662,0 l 11.14878,1.25697 c 0.0273,0 0.0547,0.0273 0.10931,0.0273 l 1.06569,0.3279 c 0.082,0.0273 0.13663,0.0547 0.19128,0.10931 l 0.81976,0.71046 c 0.0547,0.0546 0.1093,0.1093 0.13663,0.19128 l 0.49186,0.95639 c 0.0546,0.0546 0.082,0.13662 0.082,0.2186 l 0.082,1.09302 c 0,0.0273 0,0.082 0,0.1093 l -3.33371,29.67543 c 0,0.0273 -0.0273,0.0546 -0.0273,0.1093 l -0.32791,1.0657 c -0.0273,0.082 -0.0547,0.13662 -0.1093,0.19128 l -0.71046,0.81976 c -0.0547,0.0546 -0.1093,0.1093 -0.19128,0.13663 l -0.95639,0.49185 c -0.0546,0.0547 -0.13663,0.0547 -0.19128,0.082 l -1.09301,0.1093 c -0.0547,0 -0.082,0 -0.13663,0 l -11.14883,-1.25692 c -0.0273,0 -0.082,-0.0273 -0.1093,-0.0273 l -1.06569,-0.32791 c -0.082,-0.0273 -0.13663,-0.0547 -0.2186,-0.1093 l -0.81977,-0.71046 c -0.0547,-0.0546 -0.082,-0.1093 -0.13662,-0.19128 l -0.49186,-0.95639 c -0.0273,-0.0546 -0.0273,-0.13663 -0.0547,-0.19128 l -0.1093,-1.09302 c 0,-0.0547 0,-0.082 0,-0.13662 z m -2.15871,29.81206 v -0.13662 l 0.1093,1.09301 -0.082,-0.19128 0.49185,0.9564 -0.13662,-0.19128 0.81976,0.71046 -0.19128,-0.1093 1.0657,0.3279 -0.10931,-0.0273 11.14879,1.25697 h -0.13663 l 1.09302,-0.1093 -0.19128,0.0546 0.95639,-0.49186 -0.19128,0.13663 0.71046,-0.81977 -0.1093,0.21861 0.3279,-1.0657 -0.0273,0.10931 3.3337,-29.67544 v 0.1093 l -0.082,-1.09301 0.0547,0.2186 -0.49186,-0.95639 0.13663,0.19128 -0.81977,-0.71046 0.21861,0.1093 -1.0657,-0.32791 0.10931,0.0273 -11.14878,-1.25697 h 0.13662 l -1.12034,0.1093 0.19128,-0.082 -0.95639,0.49186 0.19127,-0.13663 -0.68313,0.81977 0.1093,-0.19128 -0.35523,1.06569 0.0273,-0.1093 z"
       id="path4391" />
    <path
       style="fill:#ffffff;fill-opacity:1;fill-rule:evenodd;stroke:none;stroke-width:0.264583"
       d="m 735.19953,503.95751 c 1.3936,0.68314 1.96744,2.34999 1.31163,3.74358 0,0 0,0 0,0 v 0 l -4.89126,10.11042 v 0 c -0.68313,1.3936 -2.34999,1.96743 -3.74358,1.31162 0,0 0,0 0,0 v 0 l -26.88824,-13.00691 v 0 c -1.3936,-0.68314 -1.99476,-2.34999 -1.31162,-3.74359 0,0 0,0 0,0 v 0 l 4.89125,-10.11041 v 0 c 0.68314,-1.3936 2.34999,-1.99476 3.74359,-1.31162 0,0 0,0 0,0 z"
       id="path4393" />
    <path
       style="fill:#321900;fill-opacity:1;fill-rule:nonzero;stroke:#321900;stroke-width:0.0273254px;stroke-linecap:butt;stroke-linejoin:round;stroke-miterlimit:4;stroke-dasharray:none;stroke-opacity:1"
       d="m 735.47279,503.43833 c 0.0273,0.0273 0.0547,0.0546 0.1093,0.082 l 0.87441,0.68314 c 0.0547,0.0273 0.082,0.082 0.13663,0.16395 l 0.54651,0.92906 c 0.0273,0.0547 0.0546,0.13663 0.082,0.19129 l 0.16395,1.06569 c 0,0.082 0,0.16395 -0.0273,0.24592 l -0.27325,1.0657 c 0,0.0273 -0.0273,0.0546 -0.0273,0.1093 l -4.89125,10.11041 c -0.0273,0.0273 -0.0547,0.0546 -0.082,0.10931 l -0.68313,0.87441 c -0.0273,0.0547 -0.082,0.082 -0.16395,0.13663 l -0.92907,0.54651 c -0.0547,0.0273 -0.13663,0.0546 -0.19128,0.082 l -1.06569,0.16396 c -0.082,0 -0.16395,0 -0.24593,-0.0273 l -1.06569,-0.27325 c -0.0273,0 -0.082,-0.0273 -0.1093,-0.0273 l -26.8883,-13.00703 c -0.0273,-0.0273 -0.0547,-0.0547 -0.082,-0.082 l -0.90174,-0.68314 c -0.082,-0.0273 -0.13663,-0.10929 -0.16395,-0.16395 l -0.51918,-0.92906 c -0.0273,-0.0546 -0.0547,-0.13663 -0.082,-0.19128 l -0.16395,-1.06569 c 0,-0.082 0,-0.16395 0.0273,-0.24593 l 0.27326,-1.06569 c 0,-0.0273 0.0273,-0.082 0.0273,-0.10931 l 4.89126,-10.11041 c 0.0273,-0.0273 0.0547,-0.0546 0.0547,-0.082 l 0.68313,-0.90174 c 0.0547,-0.082 0.10931,-0.13662 0.19128,-0.16395 l 0.92907,-0.51918 c 0.0546,-0.0273 0.13662,-0.0547 0.19128,-0.082 l 1.06569,-0.16395 c 0.082,0 0.16395,0 0.24593,0.0273 l 1.06569,0.27326 c 0.0273,0 0.0546,0.0273 0.1093,0.0273 z m -27.40742,-11.94122 0.1093,0.0273 -1.06569,-0.27325 0.24593,0.0273 -1.0657,0.16396 0.19128,-0.082 -0.92906,0.51918 0.16395,-0.16395 -0.68314,0.90174 0.082,-0.082 -4.89126,10.11042 0.0273,-0.1093 -0.27325,1.06569 0.0273,-0.24593 0.16395,1.06569 -0.082,-0.19128 0.51918,0.92907 -0.16395,-0.19128 0.90174,0.68314 -0.082,-0.0547 26.88824,13.00692 -0.1093,-0.0273 1.06569,0.27326 -0.24593,-0.0273 1.06569,-0.16395 -0.19127,0.082 0.92906,-0.5465 -0.16395,0.13662 0.68313,-0.87441 -0.082,0.1093 4.89125,-10.11041 -0.0273,0.1093 0.27325,-1.0657 -0.0273,0.24593 -0.16396,-1.06569 0.082,0.19128 -0.54651,-0.92906 0.13663,0.16395 -0.87441,-0.68314 0.10929,0.082 z"
       id="path4395" />
    <path
       style="fill:#ffffff;fill-opacity:1;fill-rule:evenodd;stroke:none;stroke-width:0.264583"
       d="m 820.89213,475.86695 c 0.68314,-1.3936 2.34999,-1.99476 3.74359,-1.31162 0,0 0,0 0,0 v 0 l 10.11041,4.89125 v 0 c 1.3936,0.68314 1.96744,2.34999 1.2843,3.74359 0,0 0,0 0,0 v 0 l -12.97959,26.88824 v 0 c -0.68313,1.3936 -2.34999,1.96743 -3.74358,1.31162 0,0 0,0 0,0 v 0 l -10.11042,-4.89126 v 0 c -1.3936,-0.68313 -1.99476,-2.34998 -1.31162,-3.74358 0,0 0,0 0,0 z"
       id="path4397" />
    <path
       style="fill:#321900;fill-opacity:1;fill-rule:nonzero;stroke:#321900;stroke-width:0.0273254px;stroke-linecap:butt;stroke-linejoin:round;stroke-miterlimit:4;stroke-dasharray:none;stroke-opacity:1"
       d="m 820.37295,475.62102 c 0.0273,-0.0273 0.0547,-0.0546 0.0547,-0.082 l 0.68314,-0.90174 c 0.0546,-0.082 0.1093,-0.13663 0.19127,-0.16396 l 0.92907,-0.51918 c 0.0547,-0.0273 0.13663,-0.0546 0.19128,-0.082 l 1.06569,-0.16395 c 0.082,0 0.16395,0 0.24593,0.0273 l 1.06569,0.27325 c 0.0273,0 0.0546,0.0273 0.1093,0.0273 l 10.11042,4.89125 c 0.0273,0.0273 0.0547,0.0547 0.1093,0.082 l 0.87441,0.68313 c 0.0547,0.0273 0.082,0.082 0.13663,0.16396 l 0.54651,0.92906 c 0.0273,0.0546 0.0547,0.13663 0.082,0.21861 l 0.13662,1.06569 c 0,0.0547 0,0.13662 -0.0273,0.2186 l -0.27326,1.06569 c 0,0.0273 -0.0273,0.0547 -0.0273,0.1093 l -12.97959,26.88824 c -0.0273,0.0273 -0.0546,0.0547 -0.082,0.10931 l -0.68314,0.87441 c -0.0273,0.0546 -0.082,0.082 -0.16395,0.13663 l -0.92907,0.5465 c -0.0547,0.0273 -0.13663,0.0547 -0.19128,0.082 l -1.06569,0.16395 c -0.082,0 -0.16395,0 -0.24593,-0.0273 l -1.06569,-0.27326 c -0.0273,0 -0.082,-0.0273 -0.1093,-0.0273 l -10.11042,-4.89126 c -0.0273,-0.0273 -0.0546,-0.0546 -0.082,-0.082 l -0.90174,-0.68314 c -0.082,-0.0273 -0.13663,-0.1093 -0.16396,-0.16395 l -0.51918,-0.92906 c -0.0273,-0.0547 -0.0547,-0.13663 -0.082,-0.19129 l -0.16395,-1.06569 c 0,-0.082 0,-0.16395 0.0273,-0.24592 l 0.27325,-1.0657 c 0,-0.0273 0.0273,-0.082 0.0273,-0.1093 z m -11.94122,27.40742 0.0273,-0.1093 -0.27325,1.0657 0.0273,-0.24593 0.16396,1.06569 -0.082,-0.19128 0.51918,0.92906 -0.16395,-0.19127 0.90174,0.68313 -0.082,-0.0547 10.11041,4.89126 -0.1093,-0.0273 1.06569,0.27325 -0.24593,-0.0273 1.06569,-0.16395 -0.19127,0.082 0.92906,-0.5465 -0.16395,0.13662 0.68314,-0.87441 -0.082,0.1093 12.97959,-26.88824 -0.0273,0.1093 0.27325,-1.06569 -0.0273,0.2186 -0.13663,-1.06569 0.082,0.2186 -0.54651,-0.92906 0.13663,0.16395 -0.87442,-0.68313 0.1093,0.082 -10.11041,-4.89125 0.1093,0.0273 -1.06569,-0.27325 0.24593,0.0273 -1.06569,0.16396 0.19127,-0.082 -0.92906,0.51918 0.16395,-0.16395 -0.68314,0.90174 0.082,-0.082 z"
       id="path4399" />
    <path
       style="fill:#ffffff;fill-opacity:1;fill-rule:evenodd;stroke:none;stroke-width:0.264583"
       d="m 814.57995,596.53612 c 1.14767,-1.03837 2.92383,-0.92907 3.96219,0.2186 0,0 0,0 0,0 v 0 l 7.48718,8.33426 v 0 c 1.03836,1.175 0.95639,2.92382 -0.21861,3.96219 0,0 0,0 0,0 v 0 l -22.18826,19.9749 v 0 c -1.17499,1.03837 -2.95115,0.92907 -3.96219,-0.2186 0,0 0,0 0,0 v 0 l -7.5145,-8.33426 v 0 c -1.03836,-1.17499 -0.92906,-2.95115 0.21861,-3.96219 0,0 0,0 0,0 z"
       id="path4401" />
    <path
       style="fill:#321900;fill-opacity:1;fill-rule:nonzero;stroke:#321900;stroke-width:0.0273254px;stroke-linecap:butt;stroke-linejoin:round;stroke-miterlimit:4;stroke-dasharray:none;stroke-opacity:1"
       d="m 814.1974,596.12624 c 0.0273,-0.0273 0.0547,-0.0546 0.082,-0.082 l 0.95639,-0.57383 c 0.082,-0.0273 0.16396,-0.0546 0.24593,-0.082 l 1.0657,-0.13663 c 0.0547,0 0.13662,0 0.2186,0.0273 l 1.03837,0.27325 c 0.0546,0.0273 0.13662,0.0547 0.19128,0.082 l 0.90174,0.65581 c 0.0273,0.0273 0.0547,0.0546 0.082,0.082 l 7.48717,8.33426 c 0.0273,0.0273 0.0547,0.0546 0.082,0.082 l 0.57383,0.95639 c 0.0273,0.082 0.0547,0.16396 0.082,0.24593 l 0.13663,1.0657 c 0,0.0546 0,0.13662 -0.0273,0.19127 l -0.24593,1.03837 c 0,0.082 -0.0547,0.16395 -0.1093,0.2186 l -0.68314,0.90174 c 0,0.0273 -0.0273,0.0546 -0.0546,0.082 l -22.18827,19.9749 c -0.0273,0.0273 -0.082,0.0547 -0.1093,0.082 l -0.98372,0.57383 c -0.0547,0.0273 -0.13662,0.0546 -0.2186,0.082 l -1.06569,0.13663 c -0.082,0 -0.13663,0 -0.21861,-0.0273 l -1.03836,-0.27325 c -0.082,-0.0273 -0.13663,-0.0547 -0.19128,-0.082 l -0.87441,-0.65581 c -0.0273,-0.0273 -0.0547,-0.0546 -0.082,-0.082 l -7.5145,-8.33426 c -0.0273,-0.0273 -0.0547,-0.082 -0.082,-0.1093 l -0.57384,-0.98372 c -0.0273,-0.0547 -0.0547,-0.13662 -0.082,-0.2186 l -0.13662,-1.06569 c 0,-0.082 0,-0.13663 0.0273,-0.21861 l 0.27326,-1.03836 c 0.0273,-0.082 0.0547,-0.13663 0.082,-0.19128 l 0.65581,-0.87442 c 0.0273,-0.0273 0.0547,-0.0546 0.082,-0.082 z m -21.42315,20.82199 0.082,-0.082 -0.65582,0.87441 0.082,-0.19127 -0.27325,1.03836 0.0273,-0.2186 0.13663,1.06569 -0.082,-0.2186 0.57384,0.98372 -0.082,-0.10931 7.5145,8.33426 -0.082,-0.082 0.87441,0.65581 -0.19127,-0.082 1.03836,0.27326 -0.2186,-0.0273 1.06569,-0.13663 -0.2186,0.082 0.98372,-0.57383 -0.10931,0.082 22.18827,-19.9749 -0.082,0.082 0.68314,-0.90174 -0.082,0.2186 0.24593,-1.03837 -0.0273,0.19128 -0.13662,-1.06569 0.082,0.2186 -0.57383,-0.95639 0.082,0.1093 -7.48718,-8.33425 0.082,0.082 -0.90174,-0.65581 0.19128,0.082 -1.03837,-0.27326 0.2186,0.0273 -1.06569,0.13663 0.2186,-0.082 -0.95639,0.57383 0.10931,-0.082 z"
       id="path4403" />
    <path
       style="fill:#ffffff;fill-opacity:1;fill-rule:evenodd;stroke:none;stroke-width:0.264583"
       d="m 821.49329,512.92025 c -1.03837,-1.17499 -0.92906,-2.95114 0.21861,-3.96218 0,0 0,0 0,0 v 0 l 8.33426,-7.5145 v 0 c 1.17499,-1.03837 2.95114,-0.92907 3.96219,0.2186 0,0 0,0 0,0 v 0 l 19.9749,22.21559 v 0 c 1.03836,1.14767 0.92906,2.92382 -0.21861,3.96219 0,0 0,0 0,0 v 0 l -8.33426,7.48717 v 0 c -1.17499,1.03837 -2.92382,0.95639 -3.96219,-0.2186 0,0 0,0 0,0 z"
       id="path4405" />
    <path
       style="fill:#321900;fill-opacity:1;fill-rule:nonzero;stroke:#321900;stroke-width:0.0273254px;stroke-linecap:butt;stroke-linejoin:round;stroke-miterlimit:4;stroke-dasharray:none;stroke-opacity:1"
       d="m 821.08341,513.33014 c -0.0273,-0.0273 -0.0547,-0.082 -0.082,-0.10931 l -0.57383,-0.98371 c -0.0273,-0.0547 -0.0547,-0.13663 -0.082,-0.21861 l -0.13662,-1.06569 c 0,-0.082 0,-0.13663 0.0273,-0.2186 l 0.27326,-1.03837 c 0.0273,-0.082 0.0547,-0.13662 0.082,-0.19128 l 0.65581,-0.87441 c 0.0273,-0.0273 0.0547,-0.0546 0.082,-0.082 l 8.33426,-7.51449 c 0.0273,-0.0273 0.0546,-0.0546 0.1093,-0.082 l 0.98372,-0.57383 c 0.0547,-0.0273 0.13663,-0.0547 0.2186,-0.082 l 1.0657,-0.13663 c 0.0546,0 0.13662,0 0.2186,0.0273 l 1.03836,0.27325 c 0.082,0.0273 0.13663,0.0546 0.19128,0.082 l 0.87442,0.65581 c 0.0273,0.0273 0.0547,0.0547 0.082,0.082 l 19.9749,22.21558 c 0.0273,0.0273 0.0547,0.0546 0.082,0.082 l 0.57384,0.95639 c 0.0273,0.082 0.0547,0.16395 0.082,0.24593 l 0.13663,1.06569 c 0,0.0546 0,0.13663 -0.0273,0.2186 l -0.27325,1.03837 c -0.0273,0.0547 -0.0547,0.13663 -0.082,0.19128 l -0.65581,0.90174 c -0.0273,0.0273 -0.0547,0.0546 -0.082,0.082 l -8.33427,7.48717 c -0.0273,0.0273 -0.0547,0.0547 -0.1093,0.082 l -0.95639,0.57383 c -0.0547,0.0273 -0.13663,0.0546 -0.2186,0.082 l -1.0657,0.13663 c -0.0546,0 -0.13662,0 -0.19127,-0.0273 l -1.03837,-0.24593 c -0.082,0 -0.16395,-0.0546 -0.2186,-0.10931 l -0.90174,-0.68313 c -0.0273,0 -0.0547,-0.0273 -0.082,-0.0546 z m 20.82199,21.39582 -0.082,-0.082 0.90174,0.68313 -0.2186,-0.082 1.03837,0.24592 -0.19128,-0.0273 1.06569,-0.13663 -0.24593,0.082 0.95639,-0.57384 -0.082,0.082 8.33426,-7.48717 -0.082,0.082 0.65581,-0.90174 -0.082,0.19128 0.27325,-1.03837 -0.0273,0.21861 -0.13662,-1.06569 0.082,0.2186 -0.57383,-0.95639 0.082,0.1093 -19.97491,-22.21559 0.082,0.082 -0.87441,-0.65581 0.19127,0.082 -1.03836,-0.27326 0.2186,0.0273 -1.06569,0.13662 0.2186,-0.082 -0.98371,0.57383 0.1093,-0.082 -8.33426,7.51449 0.082,-0.082 -0.65581,0.87441 0.082,-0.19128 -0.27326,1.03837 0.0273,-0.21861 0.13663,1.0657 -0.082,-0.21861 0.57384,0.98372 -0.082,-0.1093 z"
       id="path4407" />
    <path
       style="fill:#ffffff;fill-opacity:1;fill-rule:evenodd;stroke:none;stroke-width:0.264583"
       d="m 830.12813,566.2322 c 1.42092,-0.60116 3.06045,0.082 3.66161,1.5029 0,0 0,0 0,0 v 0 l 4.2901,10.38367 v 0 c 0.60116,1.42092 -0.082,3.06045 -1.5029,3.66161 0,0 0,0 0,0 v 0 l -27.57138,11.44936 v 0 c -1.44825,0.60116 -3.08777,-0.082 -3.66161,-1.5029 0,0 0,0 0,0 v 0 l -4.31742,-10.38367 v 0 c -0.60116,-1.42092 0.082,-3.06045 1.5029,-3.66161 0,0 0,0 0,0 z"
       id="path4409" />
    <path
       style="fill:#321900;fill-opacity:1;fill-rule:nonzero;stroke:#321900;stroke-width:0.0273254px;stroke-linecap:butt;stroke-linejoin:round;stroke-miterlimit:4;stroke-dasharray:none;stroke-opacity:1"
       d="m 829.90953,565.71302 c 0.0547,-0.0273 0.082,-0.0273 0.1093,-0.0273 l 1.09302,-0.2186 c 0.082,-0.0273 0.16395,-0.0273 0.24593,0 l 1.03836,0.2186 c 0.0547,0 0.13663,0.0273 0.19128,0.0547 l 0.90174,0.57384 c 0.0546,0.0547 0.1093,0.1093 0.16395,0.19128 l 0.62849,0.92906 c 0.0273,0.0273 0.0547,0.0546 0.0547,0.082 l 4.2901,10.38367 c 0.0273,0.0546 0.0273,0.082 0.0273,0.1093 l 0.2186,1.09301 c 0.0273,0.082 0.0273,0.16396 0,0.24593 l -0.2186,1.03837 c 0,0.0546 -0.0273,0.13663 -0.082,0.19128 l -0.57383,0.90174 c -0.0273,0.0546 -0.082,0.1093 -0.16395,0.16395 l -0.92907,0.62849 c -0.0273,0.0273 -0.0547,0.0546 -0.082,0.0546 l -27.57138,11.44936 c -0.0547,0.0273 -0.082,0.0273 -0.1093,0.0273 l -1.09302,0.21861 c -0.082,0.0273 -0.16395,0.0273 -0.24593,0 l -1.06569,-0.21861 c -0.0547,0 -0.13663,-0.0273 -0.19128,-0.082 l -0.90174,-0.57384 c -0.082,-0.0273 -0.13662,-0.082 -0.16395,-0.16395 l -0.60116,-0.92906 c -0.0273,-0.0273 -0.0547,-0.0547 -0.0547,-0.082 l -4.31742,-10.38367 c -0.0273,-0.0546 -0.0273,-0.082 -0.0273,-0.1093 l -0.21861,-1.09302 c -0.0273,-0.082 -0.0273,-0.16395 0,-0.24593 l 0.21861,-1.03837 c 0,-0.0547 0.0273,-0.13662 0.0547,-0.19127 l 0.57383,-0.90174 c 0.0547,-0.0547 0.1093,-0.13663 0.19128,-0.16396 l 0.92906,-0.62848 c 0.0273,-0.0273 0.0546,-0.0546 0.082,-0.0546 z m -27.13417,12.51505 0.082,-0.0547 -0.92907,0.62848 0.16395,-0.16395 -0.57383,0.90174 0.082,-0.19128 -0.2186,1.03837 v -0.24593 l 0.2186,1.09302 -0.0273,-0.1093 4.31742,10.38367 -0.0547,-0.082 0.60116,0.92907 -0.16395,-0.19128 0.90174,0.57383 -0.19128,-0.0547 1.06569,0.2186 h -0.24593 l 1.09302,-0.2186 -0.1093,0.0273 27.57137,-11.44937 -0.082,0.0547 0.92906,-0.62849 -0.19127,0.16395 0.57383,-0.90174 -0.0546,0.19128 0.2186,-1.03837 v 0.24593 l -0.2186,-1.09302 0.0273,0.10931 -4.29009,-10.38367 0.0547,0.082 -0.62849,-0.92906 0.16396,0.16395 -0.90174,-0.57383 0.19127,0.082 -1.03836,-0.21861 h 0.24593 l -1.09302,0.21861 0.1093,-0.0273 z"
       id="path4411" />
    <path
       style="fill:#ffffff;fill-opacity:1;fill-rule:evenodd;stroke:none;stroke-width:0.264583"
       d="m 781.57082,479.20066 c -0.60116,-1.44825 0.082,-3.08778 1.53022,-3.66161 0,0 0,0 0,0 v 0 l 10.35635,-4.31742 v 0 c 1.42092,-0.60116 3.06044,0.082 3.6616,1.50289 0,0 0,0 0,0 v 0 l 11.44937,27.5987 v 0 c 0.60116,1.42093 -0.082,3.06046 -1.5029,3.66162 0,0 0,0 0,0 v 0 l -10.38367,4.29009 v 0 c -1.42092,0.60116 -3.06045,-0.082 -3.66161,-1.5029 0,0 0,0 0,0 z"
       id="path4413" />
    <path
       style="fill:#321900;fill-opacity:1;fill-rule:nonzero;stroke:#321900;stroke-width:0.0273254px;stroke-linecap:butt;stroke-linejoin:round;stroke-miterlimit:4;stroke-dasharray:none;stroke-opacity:1"
       d="m 781.05163,479.44658 c -0.0273,-0.0546 -0.0273,-0.082 -0.0273,-0.1093 l -0.21861,-1.09302 c -0.0273,-0.082 -0.0273,-0.16395 0,-0.24592 l 0.21861,-1.0657 c 0,-0.082 0.0273,-0.13662 0.082,-0.19127 l 0.60116,-0.90174 c 0.0273,-0.082 0.082,-0.13663 0.16396,-0.16396 l 0.92906,-0.60116 c 0.0273,-0.0273 0.0547,-0.0546 0.082,-0.0546 l 10.35634,-4.31742 c 0.0547,-0.0273 0.082,-0.0273 0.1093,-0.0273 l 1.09302,-0.21861 c 0.082,-0.0273 0.16395,-0.0273 0.24593,0 l 1.03837,0.21861 c 0.0547,0 0.13663,0.0273 0.19127,0.0546 l 0.90174,0.57383 c 0.0547,0.0546 0.10931,0.1093 0.16396,0.19128 l 0.62848,0.92906 c 0.0273,0.0273 0.0547,0.0547 0.0547,0.082 l 11.44936,27.5987 c 0.0273,0.0546 0.0273,0.082 0.0273,0.1093 l 0.2186,1.09302 c 0.0273,0.082 0.0273,0.16395 0,0.24593 l -0.2186,1.03837 c 0,0.0547 -0.0273,0.13662 -0.082,0.19128 l -0.57383,0.90174 c -0.0273,0.0546 -0.082,0.1093 -0.16395,0.16395 l -0.92907,0.62848 c -0.0273,0.0273 -0.0546,0.0546 -0.082,0.0546 l -10.38366,4.2901 c -0.0546,0.0273 -0.082,0.0273 -0.10931,0.0273 l -1.09301,0.21861 c -0.082,0.0273 -0.16395,0.0273 -0.24593,0 l -1.03837,-0.21861 c -0.0546,0 -0.13663,-0.0273 -0.19128,-0.082 l -0.90174,-0.57384 c -0.0547,-0.0273 -0.13662,-0.082 -0.16395,-0.16395 l -0.62848,-0.92907 c -0.0273,-0.0273 -0.0547,-0.0546 -0.0547,-0.082 z m 12.51506,27.10685 -0.0547,-0.082 0.62848,0.92906 -0.16395,-0.19127 0.90174,0.57383 -0.19128,-0.0547 1.03837,0.2186 h -0.24593 l 1.09302,-0.2186 -0.10931,0.0273 10.38367,-4.2901 -0.082,0.0547 0.92906,-0.62848 -0.19128,0.16395 0.57384,-0.90174 -0.0546,0.19128 0.2186,-1.03837 v 0.24593 l -0.2186,-1.09302 0.0273,0.1093 -11.44936,-27.5987 0.0547,0.082 -0.62848,-0.92907 0.16395,0.16396 -0.90174,-0.57384 0.19128,0.082 -1.03837,-0.2186 h 0.24593 l -1.09302,0.2186 0.1093,-0.0273 -10.35634,4.31742 0.082,-0.0547 -0.92907,0.60116 0.16395,-0.16395 -0.60116,0.90174 0.082,-0.19128 -0.2186,1.06569 v -0.24592 l 0.2186,1.09301 -0.0273,-0.1093 z"
       id="path4415" />
    <path
       style="fill:#ffffff;fill-opacity:1;fill-rule:evenodd;stroke:none;stroke-width:0.264583"
       d="m 733.42338,541.6393 c 0.24593,1.5029 -0.79244,2.95115 -2.29534,3.2244 0,0 0,0 0,0 v 0 l -11.09413,1.85813 v 0 c -1.5029,0.24593 -2.95115,-0.79244 -3.2244,-2.32266 0,0 0,0 0,0 v 0 l -4.91858,-29.42951 v 0 c -0.27326,-1.53022 0.76511,-2.97847 2.29534,-3.25173 0,0 0,0 0,0 v 0 l 11.0668,-1.85812 v 0 c 1.53023,-0.24593 2.97848,0.79243 3.2244,2.32266 0,0 0,0 0,0 z"
       id="path4417" />
    <path
       style="fill:#321900;fill-opacity:1;fill-rule:nonzero;stroke:#321900;stroke-width:0.0273254px;stroke-linecap:butt;stroke-linejoin:round;stroke-miterlimit:4;stroke-dasharray:none;stroke-opacity:1"
       d="m 734.02454,541.55732 c 0,0.0273 0,0.082 0,0.13663 l -0.0546,1.09302 c 0,0.0546 -0.0273,0.13662 -0.0547,0.19127 l -0.43721,0.98372 c -0.0273,0.082 -0.082,0.13663 -0.13662,0.19128 l -0.76512,0.73779 c -0.0547,0.0546 -0.1093,0.082 -0.19128,0.1093 l -1.03836,0.40988 c -0.0273,0.0273 -0.082,0.0273 -0.1093,0.0546 l -11.09414,1.85813 c -0.0547,0 -0.082,0 -0.13662,0 l -1.09302,-0.0547 c -0.0547,0 -0.13663,-0.0273 -0.19128,-0.0546 l -0.98372,-0.43721 c -0.082,-0.0273 -0.13662,-0.082 -0.19127,-0.13662 l -0.73779,-0.79244 c -0.0547,-0.0546 -0.082,-0.1093 -0.1093,-0.19128 l -0.40988,-1.03837 c -0.0273,-0.0273 -0.0273,-0.082 -0.0547,-0.1093 l -4.91858,-29.4295 c 0,-0.0273 0,-0.082 0,-0.10931 l 0.0273,-1.12034 c 0,-0.082 0.0273,-0.16395 0.0547,-0.2186 l 0.43721,-0.98372 c 0.0273,-0.082 0.082,-0.13663 0.13663,-0.19128 l 0.79243,-0.73779 c 0.0547,-0.0546 0.10931,-0.082 0.19128,-0.1093 l 1.03837,-0.40988 c 0.0273,-0.0273 0.0547,-0.0273 0.1093,-0.0547 l 11.06681,-1.85813 c 0.0273,0 0.082,0 0.13662,0 l 1.12035,0.0546 c 0.0547,0 0.13662,0.0273 0.19128,0.0546 l 0.98371,0.43721 c 0.082,0.0273 0.13663,0.082 0.19128,0.13663 l 0.73779,0.79244 c 0.0547,0.0546 0.1093,0.1093 0.1093,0.19127 l 0.38255,1.03837 c 0.0273,0.0273 0.0273,0.082 0.0547,0.1093 z m -6.1209,-29.26555 0.0273,0.1093 -0.38256,-1.03836 0.13663,0.19127 -0.73779,-0.79243 0.19128,0.13662 -0.98372,-0.4372 0.19128,0.0547 -1.12034,-0.0547 h 0.13662 l -11.0668,1.85812 0.1093,-0.0547 -1.03837,0.40989 0.19128,-0.10931 -0.79244,0.73779 0.13663,-0.19128 -0.43721,0.98372 0.0547,-0.2186 -0.0273,1.12034 v -0.1093 l 4.91858,29.4295 -0.0547,-0.1093 0.40988,1.03837 -0.1093,-0.19128 0.73779,0.79244 -0.19128,-0.13663 0.98371,0.43721 -0.19127,-0.0546 1.09301,0.0546 h -0.13662 l 11.09413,-1.85813 -0.1093,0.0546 1.03836,-0.40988 -0.19128,0.1093 0.76512,-0.73779 -0.13663,0.19128 0.43721,-0.98372 -0.0546,0.19128 0.0546,-1.09302 v 0.13663 z"
       id="path4419" />
    <path
       style="fill:#ffffff;fill-opacity:1;fill-rule:evenodd;stroke:none;stroke-width:0.264583"
       d="m 865.13203,555.76655 c 1.5029,-0.24593 2.95115,0.79244 3.2244,2.32267 0,0 0,0 0,0 v 0 l 1.85813,11.0668 v 0 c 0.24593,1.53023 -0.79244,2.97847 -2.32266,3.2244 0,0 0,0 0,0 v 0 l -29.42951,4.94591 v 0 c -1.53022,0.24593 -2.97847,-0.79244 -3.25172,-2.32266 0,0 0,0 0,0 v 0 l -1.85814,-11.06681 v 0 c -0.24592,-1.53022 0.79244,-2.95115 2.32267,-3.2244 0,0 0,0 0,0 z"
       id="path4421" />
    <path
       style="fill:#321900;fill-opacity:1;fill-rule:nonzero;stroke:#321900;stroke-width:0.0273254px;stroke-linecap:butt;stroke-linejoin:round;stroke-miterlimit:4;stroke-dasharray:none;stroke-opacity:1"
       d="m 865.05005,555.19272 c 0.0273,0 0.082,0 0.13663,0 l 1.09302,0.0546 c 0.0547,0 0.13663,0.0273 0.19128,0.0546 l 0.98371,0.43721 c 0.082,0.0273 0.13663,0.082 0.19128,0.13663 l 0.73779,0.79243 c 0.0547,0.0546 0.082,0.10931 0.1093,0.19128 l 0.40988,1.03837 c 0.0273,0.0273 0.0273,0.0546 0.0547,0.1093 l 1.85813,11.06681 c 0,0.0273 0,0.082 0,0.13662 l -0.0547,1.12035 c 0,0.0547 -0.0273,0.13662 -0.0546,0.19128 l -0.43721,0.98371 c -0.0273,0.082 -0.082,0.13663 -0.13663,0.19128 l -0.79243,0.73778 c -0.0547,0.0547 -0.13663,0.10931 -0.19128,0.10931 l -1.03837,0.38256 c -0.0273,0.0273 -0.082,0.0273 -0.1093,0.0546 l -29.42951,4.94591 c -0.0547,0 -0.082,0 -0.13662,0 l -1.12034,-0.0546 c -0.0547,0 -0.13663,-0.0273 -0.19128,-0.0546 l -0.98372,-0.43721 c -0.082,-0.0273 -0.13663,-0.082 -0.19128,-0.13663 l -0.73778,-0.79243 c -0.0547,-0.0546 -0.082,-0.10931 -0.10931,-0.19128 l -0.40988,-1.03837 c -0.0273,-0.0273 -0.0273,-0.082 -0.0547,-0.1093 l -1.85813,-11.06681 c 0,-0.0546 0,-0.082 0,-0.13662 l 0.0547,-1.12035 c 0,-0.0547 0.0273,-0.13662 0.0546,-0.19127 l 0.43721,-0.9564 c 0.0273,-0.082 0.082,-0.13662 0.13663,-0.19127 l 0.79243,-0.73779 c 0.0547,-0.0546 0.10931,-0.082 0.19128,-0.1093 l 1.03837,-0.40988 c 0.0273,-0.0273 0.0547,-0.0273 0.1093,-0.0547 z m -29.26555,6.1209 0.1093,-0.0547 -1.03837,0.40988 0.19128,-0.1093 -0.79244,0.73779 0.13663,-0.19128 -0.43721,0.95639 0.0547,-0.19128 -0.0547,1.12034 v -0.13662 l 1.85814,11.0668 -0.0547,-0.1093 0.40989,1.03837 -0.10931,-0.19128 0.73779,0.79244 -0.19128,-0.13663 0.98372,0.43721 -0.19128,-0.0546 1.12034,0.0546 h -0.13662 l 29.4295,-4.94591 -0.1093,0.0273 1.03837,-0.38255 -0.19128,0.13663 0.79244,-0.73779 -0.13663,0.19128 0.43721,-0.98372 -0.0547,0.19128 0.0547,-1.12034 v 0.13662 l -1.85813,-11.0668 0.0547,0.1093 -0.40989,-1.03837 0.10931,0.19128 -0.73779,-0.79244 0.19128,0.13663 -0.98372,-0.43721 0.19128,0.0546 -1.09302,-0.0546 h 0.13663 z"
       id="path4423" />
    <path
       style="fill:#ffffff;fill-opacity:1;fill-rule:evenodd;stroke:none;stroke-width:0.264583"
       d="m 839.96529,560.87641 c -0.27325,1.53023 -1.7215,2.54127 -3.25172,2.26801 0,0 0,0 0,0 v 0 l -11.03949,-1.91278 v 0 c -1.53022,-0.27325 -2.54126,-1.7215 -2.29533,-3.25172 0,0 0,0 0,0 v 0 l 5.13718,-29.40218 v 0 c 0.24593,-1.53023 1.69418,-2.5686 3.22441,-2.29534 0,0 0,0 0,0 v 0 l 11.0668,1.91278 v 0 c 1.53022,0.27325 2.54127,1.7215 2.26801,3.25173 0,0 0,0 0,0 z"
       id="path4425" />
    <path
       style="fill:#321900;fill-opacity:1;fill-rule:nonzero;stroke:#321900;stroke-width:0.0273254px;stroke-linecap:butt;stroke-linejoin:round;stroke-miterlimit:4;stroke-dasharray:none;stroke-opacity:1"
       d="m 840.53913,560.98571 c 0,0.0546 0,0.082 -0.0273,0.10931 l -0.40988,1.03836 c -0.0273,0.082 -0.0547,0.13663 -0.1093,0.19128 l -0.73779,0.76511 c -0.0547,0.0546 -0.1093,0.10931 -0.19128,0.13663 l -0.98371,0.43721 c -0.0547,0.0273 -0.13663,0.0546 -0.21861,0.0546 l -1.12034,0.0273 c -0.0273,0 -0.082,0 -0.1093,-0.0273 l -11.03948,-1.91278 c -0.0547,0 -0.082,0 -0.1093,-0.0273 l -1.03837,-0.40988 c -0.082,-0.0273 -0.13663,-0.0546 -0.19128,-0.1093 l -0.76511,-0.73779 c -0.0547,-0.0547 -0.1093,-0.1093 -0.13663,-0.16395 l -0.46453,-0.98372 c -0.0273,-0.082 -0.0547,-0.16395 -0.0547,-0.24593 l -0.0273,-1.12034 c 0,-0.0273 0,-0.082 0,-0.1093 l 5.13719,-29.40218 c 0.0273,-0.0273 0.0273,-0.082 0.0273,-0.1093 l 0.38256,-1.03837 c 0.0273,-0.082 0.082,-0.13663 0.13663,-0.19128 l 0.73778,-0.79244 c 0.0547,-0.0547 0.10931,-0.1093 0.19128,-0.13662 l 0.98372,-0.43721 c 0.0546,-0.0273 0.13663,-0.0546 0.2186,-0.0546 l 1.12035,-0.0273 c 0.0273,0 0.082,0 0.10929,0 l 11.06681,1.91279 c 0.0546,0.0273 0.082,0.0273 0.1093,0.0546 l 1.03837,0.40988 c 0.082,0.0273 0.13663,0.0547 0.19128,0.1093 l 0.76511,0.73779 c 0.0546,0.0546 0.1093,0.1093 0.13663,0.19128 l 0.4372,0.98371 c 0.0273,0.0546 0.0547,0.13663 0.0547,0.2186 l 0.0273,1.12035 c 0,0.0273 0,0.082 -0.0273,0.1093 z m 3.96219,-29.62078 v 0.1093 l -0.0273,-1.12034 0.0547,0.2186 -0.43721,-0.98371 0.13663,0.19127 -0.76511,-0.73778 0.19128,0.1093 -1.03837,-0.40988 0.1093,0.0273 -11.0668,-1.91278 0.1093,0.0273 -1.12034,0.0273 0.2186,-0.0547 -0.98372,0.43721 0.19128,-0.13663 -0.73778,0.79244 0.1093,-0.19128 -0.38256,1.03837 0.0273,-0.1093 -5.13719,29.40218 0.0273,-0.1093 0.0273,1.12034 -0.0547,-0.24593 0.46454,0.98371 -0.13663,-0.16395 0.76511,0.73779 -0.19128,-0.1093 1.03837,0.40988 -0.1093,-0.0546 11.03948,1.91278 h -0.1093 l 1.12034,-0.0273 -0.2186,0.0547 0.98371,-0.43721 -0.19128,0.13663 0.73779,-0.76512 -0.1093,0.19128 0.40988,-1.03837 -0.0547,0.10931 z"
       id="path4427" />
    <path
       style="fill:#ffffff;fill-opacity:1;fill-rule:evenodd;stroke:none;stroke-width:0.264583"
       d="m 831.74034,570.7409 c 1.53022,0.27325 2.54126,1.7215 2.29533,3.25173 0,0 0,0 0,0 v 0 l -1.94011,11.0668 v 0 c -0.27325,1.53023 -1.7215,2.54127 -3.25172,2.26801 0,0 0,0 0,0 v 0 l -29.40218,-5.10985 v 0 c -1.53023,-0.27326 -2.56859,-1.72151 -2.29534,-3.25173 0,0 0,0 0,0 v 0 l 1.94011,-11.03948 v 0 c 0.24593,-1.53023 1.69418,-2.56859 3.2244,-2.29534 0,0 0,0 0,0 z"
       id="path4429" />
    <path
       style="fill:#321900;fill-opacity:1;fill-rule:nonzero;stroke:#321900;stroke-width:0.0273254px;stroke-linecap:butt;stroke-linejoin:round;stroke-miterlimit:4;stroke-dasharray:none;stroke-opacity:1"
       d="m 831.84963,570.16706 c 0.0547,0.0273 0.082,0.0273 0.10931,0.0547 l 1.03836,0.40988 c 0.082,0.0273 0.13663,0.0546 0.19128,0.1093 l 0.76511,0.73779 c 0.0547,0.0546 0.10931,0.1093 0.13663,0.16395 l 0.46453,0.98372 c 0.0273,0.082 0.0547,0.16395 0.0547,0.24592 l 0.0273,1.12035 c 0,0.0273 0,0.082 -0.0273,0.1093 l -1.94011,11.0668 c 0,0.0547 0,0.082 -0.0273,0.1093 l -0.40988,1.03837 c -0.0273,0.082 -0.0547,0.13663 -0.1093,0.19128 l -0.73779,0.76511 c -0.0547,0.0546 -0.1093,0.1093 -0.19127,0.13663 l -0.98372,0.43721 c -0.0547,0.0273 -0.13663,0.0546 -0.2186,0.0546 l -1.12035,0.0273 c -0.0273,0 -0.082,0 -0.1093,-0.0273 l -29.40218,-5.10986 c -0.0546,0 -0.082,0 -0.1093,-0.0273 l -1.03837,-0.40988 c -0.082,-0.0273 -0.13662,-0.0546 -0.19128,-0.1093 l -0.79243,-0.73779 c -0.0547,-0.0546 -0.10931,-0.1093 -0.13663,-0.19127 l -0.43721,-0.98372 c -0.0273,-0.0547 -0.0547,-0.13663 -0.0547,-0.2186 l -0.0273,-1.12035 c 0,-0.0273 0,-0.082 0,-0.1093 l 1.9401,-11.03948 c 0.0273,-0.0273 0.0273,-0.082 0.0273,-0.1093 l 0.38255,-1.03837 c 0.0273,-0.082 0.082,-0.13663 0.13663,-0.19127 l 0.73779,-0.79244 c 0.0546,-0.0546 0.1093,-0.1093 0.19128,-0.13663 l 0.98371,-0.43721 c 0.0547,-0.0273 0.13663,-0.0547 0.2186,-0.0547 l 1.12035,-0.0273 c 0.0273,0 0.082,0 0.1093,0 z m -29.62078,-3.96218 0.1093,0.0273 -1.12034,0.0273 0.2186,-0.0546 -0.98371,0.4372 0.19128,-0.13662 -0.73779,0.79243 0.1093,-0.19128 -0.38255,1.03837 0.0273,-0.1093 -1.94011,11.03948 0.0273,-0.1093 0.0273,1.12034 -0.0547,-0.2186 0.43721,0.98371 -0.13663,-0.19128 0.79244,0.73779 -0.19128,-0.1093 1.03837,0.40988 -0.1093,-0.0546 29.40218,5.10986 h -0.1093 l 1.12034,-0.0273 -0.2186,0.0547 0.98371,-0.4372 -0.19127,0.13662 0.73778,-0.76511 -0.1093,0.19128 0.40988,-1.03837 -0.0547,0.1093 1.94011,-11.0668 v 0.1093 l -0.0273,-1.12034 0.0547,0.24593 -0.46453,-0.98372 0.13663,0.16396 -0.76512,-0.73779 0.19128,0.1093 -1.03837,-0.40988 0.10931,0.0273 z"
       id="path4431" />
    <path
       style="fill:#ffffff;fill-opacity:1;fill-rule:evenodd;stroke:none;stroke-width:0.264583"
       d="m 826.73978,526.77426 c 1.31162,0.81976 1.69418,2.56859 0.87441,3.88021 0,0 0,0 0,0 v 0 l -5.95695,9.50925 v 0 c -0.81976,1.31162 -2.56859,1.69418 -3.88021,0.87442 0,0 0,0 0,0 v 0 l -25.27604,-15.87609 v 0 c -1.31162,-0.81976 -1.7215,-2.56859 -0.90174,-3.88021 0,0 0,0 0,0 v 0 l 5.98428,-9.50925 v 0 c 0.81976,-1.31162 2.54126,-1.69418 3.85288,-0.87442 0,0 0,0 0,0 z"
       id="path4433" />
    <path
       style="fill:#321900;fill-opacity:1;fill-rule:nonzero;stroke:#321900;stroke-width:0.0273254px;stroke-linecap:butt;stroke-linejoin:round;stroke-miterlimit:4;stroke-dasharray:none;stroke-opacity:1"
       d="m 827.06768,526.2824 c 0.0273,0.0273 0.0546,0.0546 0.082,0.082 l 0.79244,0.76512 c 0.0546,0.0547 0.1093,0.1093 0.13662,0.19128 l 0.43721,0.98371 c 0.0273,0.0546 0.0547,0.13663 0.0547,0.21861 l 0.0273,1.09301 c 0,0.082 -0.0273,0.13663 -0.0547,0.21861 l -0.38256,1.03836 c 0,0.0273 -0.0273,0.082 -0.0273,0.1093 l -5.95695,9.50926 c -0.0273,0.0273 -0.0547,0.0546 -0.082,0.082 l -0.76511,0.79243 c -0.0546,0.0547 -0.1093,0.1093 -0.19128,0.13663 l -0.98372,0.43721 c -0.0547,0.0273 -0.13662,0.0546 -0.2186,0.0546 l -1.09302,0.0273 c -0.082,0 -0.13662,-0.0273 -0.2186,-0.0546 l -1.03837,-0.38255 c -0.0273,0 -0.082,-0.0273 -0.1093,-0.0273 L 792.2004,525.6813 c -0.0273,-0.0273 -0.0546,-0.0547 -0.082,-0.082 l -0.81977,-0.76511 c -0.0546,-0.0546 -0.1093,-0.1093 -0.13662,-0.19128 l -0.43721,-0.98372 c -0.0273,-0.0546 -0.0547,-0.13662 -0.0547,-0.2186 l -0.0273,-1.09302 c 0,-0.082 0.0273,-0.13662 0.0273,-0.2186 l 0.38256,-1.03837 c 0.0273,-0.0273 0.0547,-0.082 0.0547,-0.1093 l 5.98427,-9.50925 c 0.0273,-0.0273 0.0547,-0.0547 0.082,-0.082 l 0.76511,-0.79244 c 0.0547,-0.0546 0.1093,-0.1093 0.19128,-0.13662 l 0.98371,-0.43721 c 0.0546,-0.0273 0.13663,-0.0546 0.21861,-0.0546 l 1.06569,-0.0273 c 0.082,0 0.13663,0.0273 0.2186,0.0273 l 1.03837,0.38255 c 0.0273,0.0273 0.082,0.0547 0.1093,0.0547 z m -25.93184,-14.86505 0.1093,0.0273 -1.03837,-0.38255 0.2186,0.0546 -1.06569,0.0273 0.21861,-0.0546 -0.98372,0.43721 0.19128,-0.13663 -0.76512,0.79244 0.082,-0.082 -5.98427,9.50926 0.0273,-0.1093 -0.38255,1.03836 0.0547,-0.2186 0.0273,1.09302 -0.0546,-0.21861 0.43721,0.98372 -0.13663,-0.19128 0.81977,0.76511 -0.082,-0.082 25.27604,15.87608 -0.1093,-0.0546 1.03836,0.38256 -0.2186,-0.0273 1.09302,-0.0273 -0.21861,0.0546 0.98372,-0.43721 -0.19128,0.13663 0.76511,-0.79244 -0.082,0.082 5.95694,-9.50925 -0.0546,0.1093 0.38256,-1.03836 -0.0273,0.2186 -0.0273,-1.09302 0.0546,0.2186 -0.43721,-0.98371 0.13663,0.19128 -0.79244,-0.76512 0.082,0.082 z"
       id="path4435" />
    <path
       style="fill:#ffffff;fill-opacity:1;fill-rule:evenodd;stroke:none;stroke-width:0.264583"
       d="m 791.08007,488.81921 c 0.81976,-1.31162 2.56859,-1.69417 3.88022,-0.87441 0,0 0,0 0,0 v 0 l 9.50925,5.95694 v 0 c 1.31162,0.84709 1.69418,2.5686 0.87441,3.88022 0,0 0,0 0,0 v 0 l -15.87608,25.30336 v 0 c -0.81976,1.31162 -2.56859,1.69418 -3.88021,0.87441 0,0 0,0 0,0 v 0 l -9.48193,-5.95694 v 0 c -1.31162,-0.84709 -1.72151,-2.56859 -0.90174,-3.88022 0,0 0,0 0,0 z"
       id="path4437" />
    <path
       style="fill:#321900;fill-opacity:1;fill-rule:nonzero;stroke:#321900;stroke-width:0.0273254px;stroke-linecap:butt;stroke-linejoin:round;stroke-miterlimit:4;stroke-dasharray:none;stroke-opacity:1"
       d="m 790.58821,488.51863 c 0.0273,-0.0273 0.0547,-0.0546 0.082,-0.082 l 0.76511,-0.79244 c 0.0546,-0.0547 0.1093,-0.1093 0.19128,-0.13663 l 0.98372,-0.43721 c 0.0547,-0.0273 0.13662,-0.0546 0.2186,-0.0546 l 1.09302,-0.0273 c 0.082,0 0.13663,0.0273 0.2186,0.0273 l 1.03837,0.38256 c 0.0273,0.0273 0.082,0.0547 0.1093,0.0547 l 9.50925,5.95695 c 0.0273,0.0273 0.0547,0.0546 0.10931,0.082 l 0.79243,0.79244 c 0.0273,0.0547 0.082,0.1093 0.10931,0.19128 l 0.4372,0.98372 c 0.0273,0.0546 0.0546,0.13662 0.0546,0.2186 l 0.0273,1.06569 c 0,0.082 -0.0273,0.13663 -0.0546,0.21861 l -0.38256,1.03836 c 0,0.0273 -0.0273,0.082 -0.0273,0.1093 l -15.8761,25.30327 c -0.0273,0.0273 -0.0547,0.0546 -0.082,0.082 l -0.76511,0.79244 c -0.0547,0.0546 -0.10931,0.1093 -0.19128,0.13663 l -0.98372,0.4372 c -0.0547,0.0273 -0.13663,0.0547 -0.2186,0.0547 l -1.09302,0.0273 c -0.082,0 -0.13663,-0.0273 -0.2186,-0.0546 l -1.03837,-0.38256 c -0.0273,0 -0.082,-0.0273 -0.1093,-0.0273 l -9.48193,-5.95695 c -0.0273,-0.0273 -0.0546,-0.0547 -0.082,-0.082 l -0.81976,-0.79243 c -0.0546,-0.0546 -0.1093,-0.10931 -0.13663,-0.19128 l -0.43721,-0.98372 c -0.0273,-0.0546 -0.0547,-0.13662 -0.0547,-0.2186 l -0.0273,-1.06569 c 0,-0.082 0.0273,-0.13663 0.0273,-0.21861 l 0.38256,-1.03836 c 0.0273,-0.0273 0.0546,-0.082 0.0546,-0.10931 z m -14.86504,25.93185 0.0273,-0.1093 -0.38256,1.03837 0.0546,-0.21861 0.0273,1.06569 -0.0546,-0.2186 0.4372,0.98372 -0.13662,-0.19128 0.81976,0.79244 -0.082,-0.082 9.48193,5.95695 -0.1093,-0.0546 1.03837,0.38255 -0.21861,-0.0273 1.09302,-0.0273 -0.2186,0.0546 0.98371,-0.43721 -0.19127,0.13663 0.76511,-0.79243 -0.082,0.082 15.87609,-25.30336 -0.0547,0.1093 0.38256,-1.03837 -0.0273,0.21861 -0.0273,-1.0657 0.0547,0.21861 -0.43721,-0.98372 0.10931,0.19128 -0.79244,-0.79244 0.1093,0.082 -9.50925,-5.95695 0.1093,0.0273 -1.03837,-0.38256 0.2186,0.0546 -1.09301,0.0273 0.2186,-0.0546 -0.98372,0.4372 0.19128,-0.13662 -0.76511,0.79243 0.082,-0.082 z"
       id="path4439" />
    <path
       style="fill:#ffffff;fill-opacity:1;fill-rule:evenodd;stroke:none;stroke-width:0.264583"
       d="m 728.69608,571.04148 c 0.95639,1.22964 0.76511,2.97847 -0.46453,3.93486 0,0 0,0 0,0 v 0 l -8.77147,6.99532 v 0 c -1.22965,0.95639 -2.97848,0.76511 -3.93487,-0.43721 0,0 0,0 0,0 v 0 l -18.60862,-23.39058 v 0 c -0.9564,-1.20232 -0.76512,-2.97848 0.46453,-3.93487 0,0 0,0 0,0 v 0 l 8.77147,-6.99531 v 0 c 1.22964,-0.95639 2.97847,-0.76511 3.93486,0.46453 0,0 0,0 0,0 z"
       id="path4441" />
    <path
       style="fill:#321900;fill-opacity:1;fill-rule:nonzero;stroke:#321900;stroke-width:0.0273254px;stroke-linecap:butt;stroke-linejoin:round;stroke-miterlimit:4;stroke-dasharray:none;stroke-opacity:1"
       d="m 729.16061,570.68625 c 0.0273,0.0273 0.0547,0.082 0.082,0.1093 l 0.49186,1.01104 c 0.0273,0.0547 0.0273,0.13663 0.0547,0.19128 l 0.1093,1.06569 c 0,0.082 0,0.16395 -0.0273,0.24593 l -0.3279,1.01104 c -0.0273,0.082 -0.082,0.13663 -0.1093,0.19128 l -0.73779,0.84709 c -0.0273,0.0273 -0.0547,0.0546 -0.082,0.082 l -8.77147,6.99532 c -0.0273,0.0273 -0.082,0.0546 -0.1093,0.082 l -1.01104,0.49185 c -0.0547,0.0273 -0.13663,0.0273 -0.19128,0.0546 l -1.06569,0.10931 c -0.082,0 -0.16395,0 -0.24593,-0.0273 l -1.01104,-0.3279 c -0.082,-0.0273 -0.13663,-0.0547 -0.19128,-0.10931 l -0.84709,-0.71046 c -0.0273,-0.0273 -0.0546,-0.0547 -0.082,-0.082 l -18.60863,-23.39059 c -0.0273,-0.0273 -0.0547,-0.082 -0.082,-0.1093 l -0.49186,-0.98371 c -0.0273,-0.0546 -0.0547,-0.13663 -0.0547,-0.21861 l -0.082,-1.06569 c 0,-0.0547 0,-0.13663 0.0273,-0.19128 l 0.30058,-1.03837 c 0.0273,-0.082 0.0546,-0.16395 0.1093,-0.24592 l 0.73779,-0.84709 c 0.0273,-0.0273 0.0546,-0.0273 0.082,-0.0546 l 8.77147,-6.99532 c 0.0273,-0.0273 0.082,-0.0546 0.1093,-0.082 l 1.01104,-0.49186 c 0.082,-0.0273 0.13663,-0.0547 0.2186,-0.0547 l 1.06569,-0.082 c 0.0547,0 0.13663,0 0.21861,0.0273 l 1.01104,0.30058 c 0.0547,0.0273 0.13663,0.0546 0.19128,0.1093 l 0.84709,0.73779 c 0.0273,0.0273 0.0547,0.0546 0.082,0.082 z m -19.51037,-22.62547 0.0547,0.082 -0.84708,-0.73778 0.2186,0.1093 -1.01104,-0.30058 0.2186,0.0273 -1.06569,0.082 0.2186,-0.0547 -1.01104,0.49186 0.1093,-0.082 -8.77147,6.99532 0.082,-0.082 -0.73779,0.84709 0.10931,-0.21861 -0.30058,1.03837 0.0273,-0.19128 0.082,1.0657 -0.0546,-0.21861 0.49185,0.98372 -0.082,-0.1093 18.60863,23.39058 -0.082,-0.082 0.84709,0.71046 -0.19128,-0.1093 1.01104,0.32791 -0.24593,-0.0273 1.0657,-0.1093 -0.19128,0.0546 1.01104,-0.49186 -0.1093,0.082 8.77147,-6.99532 -0.082,0.0547 0.73779,-0.84709 -0.1093,0.2186 0.3279,-1.01104 -0.0273,0.24593 -0.10931,-1.0657 0.0547,0.19129 -0.49186,-1.01105 0.082,0.10931 z"
       id="path4443" />
    <path
       style="fill:#ffffff;fill-opacity:1;fill-rule:evenodd;stroke:none;stroke-width:0.264583"
       d="m 760.09302,527.53937 c 1.22964,-0.95639 2.97847,-0.76511 3.93486,0.46453 0,0 0,0 0,0 v 0 l 6.99531,8.77147 v 0 c 0.95639,1.22964 0.76512,2.97847 -0.4372,3.96219 0,0 0,0 0,0 v 0 l -23.39059,18.5813 v 0 c -1.20232,0.95639 -2.97847,0.76512 -3.93486,-0.46453 0,0 0,0 0,0 v 0 l -6.99531,-8.77147 v 0 c -0.95639,-1.22964 -0.76512,-2.97847 0.46453,-3.93486 0,0 0,0 0,0 z"
       id="path4445" />
    <path
       style="fill:#321900;fill-opacity:1;fill-rule:nonzero;stroke:#321900;stroke-width:0.0273254px;stroke-linecap:butt;stroke-linejoin:round;stroke-miterlimit:4;stroke-dasharray:none;stroke-opacity:1"
       d="m 759.73778,527.10216 c 0.0273,-0.0273 0.082,-0.0546 0.10931,-0.082 l 1.01104,-0.49186 c 0.082,-0.0273 0.13663,-0.0546 0.2186,-0.0546 l 1.06569,-0.082 c 0.0547,0 0.13663,0 0.21861,0.0273 l 1.01104,0.30058 c 0.0547,0.0273 0.13663,0.0546 0.19128,0.1093 l 0.84708,0.73778 c 0.0273,0.0273 0.0547,0.0547 0.082,0.082 l 6.99532,8.77147 c 0.0273,0.0273 0.0547,0.082 0.082,0.1093 l 0.49186,1.01104 c 0.0273,0.0546 0.0273,0.13663 0.0546,0.19128 l 0.1093,1.06569 c 0,0.082 0,0.16395 -0.0273,0.24593 l -0.32791,1.01104 c -0.0273,0.082 -0.0547,0.13663 -0.1093,0.19128 l -0.71046,0.87442 c -0.0273,0.0273 -0.0546,0.0546 -0.082,0.082 l -23.39058,18.58131 c -0.0273,0.0273 -0.082,0.0546 -0.1093,0.082 l -0.98372,0.49186 c -0.0547,0.0273 -0.13662,0.0273 -0.19128,0.0546 l -1.06569,0.1093 c -0.082,0 -0.16395,0 -0.24593,-0.0273 l -1.03836,-0.32791 c -0.082,-0.0273 -0.13663,-0.082 -0.21861,-0.1093 l -0.84709,-0.73779 c -0.0273,-0.0273 -0.0273,-0.0546 -0.0547,-0.082 l -6.99531,-8.77147 c -0.0273,-0.0273 -0.0547,-0.082 -0.082,-0.1093 l -0.49186,-1.01105 c -0.0273,-0.082 -0.0546,-0.13662 -0.0546,-0.2186 l -0.082,-1.06569 c 0,-0.082 0,-0.13663 0.0273,-0.2186 l 0.30057,-1.01105 c 0.0273,-0.082 0.0547,-0.13662 0.1093,-0.2186 l 0.73779,-0.84709 c 0.0273,-0.0273 0.0547,-0.0273 0.082,-0.0547 z m -22.62546,19.51037 0.082,-0.082 -0.73779,0.84709 0.10931,-0.19128 -0.30058,1.01104 0.0273,-0.2186 0.082,1.06569 -0.0547,-0.2186 0.49186,1.01104 -0.082,-0.1093 6.99531,8.77147 -0.082,-0.082 0.84709,0.73779 -0.19128,-0.1093 1.03837,0.3279 -0.24593,-0.0273 1.06569,-0.1093 -0.19128,0.0546 0.98372,-0.49186 -0.10931,0.082 23.39058,-18.58131 -0.082,0.082 0.71046,-0.87442 -0.1093,0.19128 0.3279,-1.01104 -0.0273,0.24593 -0.1093,-1.06569 0.0547,0.19127 -0.49186,-1.01104 0.082,0.1093 -6.99532,-8.77146 0.0547,0.082 -0.84708,-0.73778 0.2186,0.1093 -1.01104,-0.30058 0.2186,0.0273 -1.06569,0.082 0.2186,-0.0546 -1.01104,0.49186 0.1093,-0.082 z"
       id="path4447" />
    <path
       style="fill:#ff0000;fill-opacity:1;fill-rule:evenodd;stroke:none;stroke-width:0.264583"
       d="m 826.71245,556.69562 c -14.29121,37.16261 -53.53055,51.72707 -87.6327,32.51728 -10.9575,-6.14823 -20.49409,-15.38423 -27.62603,-26.69696 v 0 l -4.618,2.8965 2.40464,-8.41624 8.30694,1.66685 -4.618,2.92382 v 0 c 21.72372,34.48472 62.65724,44.70443 91.37629,22.81675 9.236,-7.04996 16.42259,-16.91445 20.87664,-28.58242 z"
       id="path4449" />
    <path
       style="fill:#ff0000;fill-opacity:1;fill-rule:evenodd;stroke:none;stroke-width:0.264583"
       d="m 766.54182,575.33157 c -14.50981,-13.77202 -15.11097,-36.67075 -1.33894,-51.18056 13.74469,-14.50981 36.67074,-15.11097 51.15323,-1.33894 9.20867,8.74414 13.17086,21.66907 10.43832,34.07483 v 0 0 l -1.74883,2.70522 -0.16395,-3.30638 v 0 0 c 3.98951,-18.472 -7.7331,-36.67075 -26.2051,-40.66027 -18.47201,-3.98951 -36.67075,7.76043 -40.66027,26.20511 -2.51394,11.69529 1.22965,23.82779 9.89181,32.05274 z"
       id="path4451" />
    <path
       style="fill:#ff0000;fill-opacity:1;fill-rule:evenodd;stroke:none;stroke-width:0.264583"
       d="m 837.01415,506.28017 c 19.31908,19.10049 19.45571,50.2515 0.35522,69.54326 -19.12781,19.31909 -50.25149,19.45572 -69.57058,0.35523 -0.38256,-0.40988 -0.79244,-0.79244 -1.17499,-1.20232 v 0 0 l -2.04941,-3.79823 3.52498,2.62324 v 0 0 c 17.98014,18.96386 47.95616,19.72897 66.89269,1.74883 18.96386,-18.00747 19.72897,-47.95616 1.74883,-66.92002 -0.35523,-0.35523 -0.68314,-0.68314 -1.03837,-1.03837 z"
       id="path4453" />
  </g>
</svg>
