<?xml version="1.0" encoding="UTF-8" standalone="no"?>
<!-- Created with Inkscape (http://www.inkscape.org/) -->

<svg
   width="330.59048"
   height="233.09676"
   viewBox="0 0 87.46873 61.673519"
   version="1.1"
   id="svg5"
   inkscape:version="1.1 (c68e22c387, 2021-05-23)"
   sodipodi:docname="Divination3.svg"
   xmlns:inkscape="http://www.inkscape.org/namespaces/inkscape"
   xmlns:sodipodi="http://sodipodi.sourceforge.net/DTD/sodipodi-0.dtd"
   xmlns="http://www.w3.org/2000/svg"
   xmlns:svg="http://www.w3.org/2000/svg">
  <sodipodi:namedview
     id="namedview7"
     pagecolor="#ffffff"
     bordercolor="#666666"
     borderopacity="1.0"
     inkscape:pageshadow="2"
     inkscape:pageopacity="0.0"
     inkscape:pagecheckerboard="0"
     inkscape:document-units="px"
     showgrid="false"
     inkscape:zoom="0.26191077"
     inkscape:cx="-278.72087"
     inkscape:cy="-616.62221"
     inkscape:window-width="1288"
     inkscape:window-height="745"
     inkscape:window-x="-8"
     inkscape:window-y="-8"
     inkscape:window-maximized="1"
     inkscape:current-layer="layer1"
     units="px"
     fit-margin-top="0"
     fit-margin-left="0"
     fit-margin-right="0"
     fit-margin-bottom="0" />
  <defs
     id="defs2">
    <pattern
       id="EMFhbasepattern"
       patternUnits="userSpaceOnUse"
       width="6"
       height="6"
       x="0"
       y="0" />
    <pattern
       id="EMFhbasepattern-3"
       patternUnits="userSpaceOnUse"
       width="6"
       height="6"
       x="0"
       y="0" />
    <pattern
       id="EMFhbasepattern-2"
       patternUnits="userSpaceOnUse"
       width="6"
       height="6"
       x="0"
       y="0" />
    <pattern
       id="EMFhbasepattern-27"
       patternUnits="userSpaceOnUse"
       width="6"
       height="6"
       x="0"
       y="0" />
    <pattern
       id="EMFhbasepattern-9"
       patternUnits="userSpaceOnUse"
       width="6"
       height="6"
       x="0"
       y="0" />
    <pattern
       id="EMFhbasepattern-4"
       patternUnits="userSpaceOnUse"
       width="6"
       height="6"
       x="0"
       y="0" />
    <pattern
       id="EMFhbasepattern-0"
       patternUnits="userSpaceOnUse"
       width="6"
       height="6"
       x="0"
       y="0" />
    <pattern
       id="EMFhbasepattern-22"
       patternUnits="userSpaceOnUse"
       width="6"
       height="6"
       x="0"
       y="0" />
    <pattern
       id="EMFhbasepattern-30"
       patternUnits="userSpaceOnUse"
       width="6"
       height="6"
       x="0"
       y="0" />
    <pattern
       id="EMFhbasepattern-1"
       patternUnits="userSpaceOnUse"
       width="6"
       height="6"
       x="0"
       y="0" />
    <pattern
       id="EMFhbasepattern-11"
       patternUnits="userSpaceOnUse"
       width="6"
       height="6"
       x="0"
       y="0" />
    <pattern
       id="EMFhbasepattern-48"
       patternUnits="userSpaceOnUse"
       width="6"
       height="6"
       x="0"
       y="0" />
  </defs>
  <g
     inkscape:label="圖層 1"
     inkscape:groupmode="layer"
     id="layer1"
     transform="translate(-776.85793,-579.31949)">
    <path
       style="fill:#ffffff;fill-opacity:1;fill-rule:evenodd;stroke:none;stroke-width:0.264583"
       d="m 777.5274,607.7516 c 0,-1.55755 1.2843,-2.84184 2.84185,-2.84184 0,0 0,0 0,0 v 0 h 11.36738 v 0 c 1.58488,0 2.84185,1.28429 2.84185,2.84184 0,0 0,0 0,0 v 0 29.73009 0 c 0,1.58487 -1.25697,2.84185 -2.84185,2.84185 0,0 0,0 0,0 v 0 h -11.36738 v 0 c -1.55755,0 -2.84185,-1.25698 -2.84185,-2.84185 0,0 0,0 0,0 z"
       id="path5418" />
    <path
       style="fill:#321900;fill-opacity:1;fill-rule:nonzero;stroke:#321900;stroke-width:0.0273254px;stroke-linecap:butt;stroke-linejoin:round;stroke-miterlimit:4;stroke-dasharray:none;stroke-opacity:1"
       d="m 776.87159,607.7516 c 0,-0.0273 0.0273,-0.082 0.0273,-0.1093 l 0.2186,-1.09302 c 0.0273,-0.082 0.0547,-0.19127 0.1093,-0.24593 l 0.62849,-0.90174 c 0.0273,-0.082 0.082,-0.13662 0.16395,-0.16395 l 0.90174,-0.62848 c 0.0547,-0.0547 0.16395,-0.082 0.24593,-0.10931 l 1.09302,-0.2186 c 0.0273,0 0.082,-0.0273 0.1093,-0.0273 h 11.36738 c 0.0546,0 0.1093,0.0273 0.13663,0.0273 l 1.12034,0.2186 c 0.082,0.0273 0.16396,0.0547 0.24593,0.10931 l 0.90174,0.62848 c 0.082,0.0273 0.13663,0.1093 0.16395,0.16395 l 0.60116,0.90174 c 0.0547,0.082 0.082,0.16396 0.10931,0.24593 l 0.2186,1.09302 c 0,0.0273 0,0.082 0,0.1093 v 29.73009 c 0,0.0547 0,0.1093 0,0.13663 l -0.2186,1.12034 c -0.0273,0.082 -0.0547,0.16395 -0.10931,0.24593 l -0.60116,0.90174 c -0.0273,0.0546 -0.1093,0.13663 -0.16395,0.16395 l -0.90174,0.60116 c -0.082,0.0547 -0.16395,0.082 -0.24593,0.1093 l -1.12034,0.2186 c -0.0273,0 -0.082,0 -0.13663,0 h -11.36735 c -0.0273,0 -0.082,0 -0.1093,0 l -1.09302,-0.2186 c -0.082,-0.0273 -0.16395,-0.0546 -0.24593,-0.1093 l -0.90174,-0.60116 c -0.0546,-0.0273 -0.13663,-0.082 -0.16395,-0.16395 l -0.62849,-0.90174 c -0.0547,-0.082 -0.082,-0.16395 -0.1093,-0.24593 l -0.2186,-1.12034 c 0,-0.0273 -0.0273,-0.082 -0.0273,-0.13663 z m 1.31162,29.73009 v -0.1093 l 0.21861,1.12034 -0.10931,-0.24593 0.62849,0.90174 -0.16395,-0.19128 0.90174,0.60116 -0.24593,-0.082 1.09301,0.2186 -0.13662,-0.0273 h 11.36738 l -0.1093,0.0273 1.12034,-0.2186 -0.24592,0.082 0.90173,-0.60116 -0.19127,0.19128 0.60116,-0.90174 -0.082,0.24593 0.2186,-1.12034 -0.0273,0.1093 V 607.7516 l 0.0273,0.13663 -0.2186,-1.09302 0.082,0.24593 -0.60116,-0.90174 0.19127,0.16395 -0.90173,-0.62848 0.24592,0.1093 -1.12034,-0.2186 h 0.1093 -11.36738 0.13662 l -1.09301,0.2186 0.24593,-0.1093 -0.90174,0.62848 0.16395,-0.16395 -0.62849,0.90174 0.10931,-0.24593 -0.21861,1.09302 v -0.13663 z"
       id="path5420" />
    <text
       xml:space="preserve"
       style="font-style:normal;font-variant:normal;font-weight:700;font-size:10.5007px;line-height:125%;font-family:Arial;text-align:start;letter-spacing:0px;word-spacing:0px;text-anchor:start;fill:#000000;fill-opacity:1;stroke:none;stroke-width:0.264583"
       x="779.53827"
       y="614.44183"
       id="text5426"><tspan
         sodipodi:role="line"
         x="779.53827"
         y="614.44183"
         id="tspan5424"
         style="stroke-width:0.264583"><tspan
           dx="0"
           dy="0"
           style="font-style:normal;font-variant:normal;font-weight:700;font-size:10.5007px;font-family:Arial;fill:#000000;stroke-width:0.264583"
           id="tspan5422">1</tspan></tspan></text>
    <path
       style="fill:#ffffff;fill-opacity:1;fill-rule:evenodd;stroke:none;stroke-width:0.264583"
       d="m 803.48657,596.60282 c -1.53022,0 -2.78719,-1.22964 -2.78719,-2.75987 0,0 0,0 0,0 v 0 -11.0668 0 c 0,-1.53023 1.25697,-2.7872 2.78719,-2.7872 0,0 0,0 0,0 v 0 h 29.86672 v 0 c 1.53022,0 2.75987,1.25697 2.75987,2.7872 0,0 0,0 0,0 v 0 11.0668 0 c 0,1.53023 -1.22965,2.75987 -2.75987,2.75987 0,0 0,0 0,0 z"
       id="path5428" />
    <path
       style="fill:#321900;fill-opacity:1;fill-rule:nonzero;stroke:#321900;stroke-width:0.0273254px;stroke-linecap:butt;stroke-linejoin:round;stroke-miterlimit:4;stroke-dasharray:none;stroke-opacity:1"
       d="m 803.48657,597.25863 c -0.0273,0 -0.082,0 -0.1093,0 l -1.09301,-0.2186 c -0.082,-0.0273 -0.16396,-0.0547 -0.24594,-0.082 l -0.87441,-0.57383 c -0.0547,-0.0547 -0.13663,-0.13663 -0.19128,-0.19128 l -0.60116,-0.90174 c -0.0273,-0.082 -0.0546,-0.16395 -0.082,-0.24593 l -0.21861,-1.06569 c 0,-0.0273 -0.0273,-0.082 -0.0273,-0.13663 v -11.0668 c 0,-0.0273 0.0273,-0.082 0.0273,-0.10931 l 0.21861,-1.09301 c 0.0273,-0.082 0.0546,-0.16396 0.1093,-0.24593 l 0.60116,-0.87442 c 0.0273,-0.082 0.082,-0.13662 0.16395,-0.16395 l 0.87441,-0.60116 c 0.082,-0.0546 0.16396,-0.082 0.24594,-0.1093 l 1.09301,-0.2186 c 0.0273,0 0.082,-0.0273 0.1093,-0.0273 h 29.86672 c 0.0547,0 0.1093,0.0273 0.13662,0.0273 l 1.0657,0.2186 c 0.082,0.0273 0.16395,0.0547 0.24592,0.082 l 0.90174,0.60116 c 0.0547,0.0547 0.13663,0.13662 0.19128,0.19127 l 0.57384,0.87442 c 0.0273,0.082 0.0546,0.16395 0.082,0.24593 l 0.21861,1.09301 c 0,0.0273 0,0.082 0,0.10931 v 11.0668 c 0,0.0547 0,0.1093 0,0.13663 l -0.21861,1.06569 c -0.0273,0.082 -0.0547,0.16395 -0.082,0.21861 l -0.57384,0.90173 c -0.0547,0.082 -0.13662,0.16396 -0.2186,0.21861 l -0.90174,0.57383 c -0.0546,0.0273 -0.13663,0.0547 -0.2186,0.082 l -1.0657,0.2186 c -0.0273,0 -0.082,0 -0.13662,0 z m 29.86672,-1.31162 -0.10931,0.0273 1.0657,-0.21861 -0.21861,0.082 0.90174,-0.57383 -0.2186,0.2186 0.57383,-0.90174 -0.082,0.2186 0.2186,-1.06569 -0.0273,0.1093 v -11.0668 l 0.0273,0.13662 -0.2186,-1.09301 0.082,0.24592 -0.57383,-0.87441 0.19128,0.16395 -0.90174,-0.60116 0.24593,0.10931 -1.0657,-0.21861 h 0.10931 -29.86672 0.13663 l -1.09302,0.21861 0.24593,-0.10931 -0.87441,0.60116 0.16395,-0.16395 -0.60116,0.87441 0.1093,-0.24592 -0.2186,1.09301 v -0.13662 11.0668 -0.1093 l 0.2186,1.06569 -0.1093,-0.24593 0.60116,0.90174 -0.16395,-0.19127 0.87441,0.57383 -0.24593,-0.082 1.09302,0.21861 -0.13663,-0.0273 z"
       id="path5430" />
    <text
       xml:space="preserve"
       style="font-style:normal;font-variant:normal;font-weight:700;font-size:10.5007px;line-height:125%;font-family:Arial;text-align:start;letter-spacing:0px;word-spacing:0px;text-anchor:start;fill:#000000;fill-opacity:1;stroke:none;stroke-width:0.264583"
       x="802.49182"
       y="591.48828"
       id="text5436"><tspan
         sodipodi:role="line"
         x="802.49182"
         y="591.48828"
         id="tspan5434"
         style="stroke-width:0.264583"><tspan
           dx="0"
           dy="0"
           style="font-style:normal;font-variant:normal;font-weight:700;font-size:10.5007px;font-family:Arial;fill:#000000;stroke-width:0.264583"
           id="tspan5432">0</tspan></tspan></text>
    <path
       style="fill:#ffffff;fill-opacity:1;fill-rule:evenodd;stroke:none;stroke-width:0.264583"
       d="m 810.31794,607.7516 c 0,-1.55755 1.28429,-2.84184 2.84184,-2.84184 0,0 0,0 0,0 v 0 h 11.36739 v 0 c 1.58487,0 2.84184,1.28429 2.84184,2.84184 0,0 0,0 0,0 v 0 29.73009 0 c 0,1.58487 -1.25697,2.84185 -2.84184,2.84185 0,0 0,0 0,0 v 0 h -11.36739 v 0 c -1.55755,0 -2.84184,-1.25698 -2.84184,-2.84185 0,0 0,0 0,0 z"
       id="path5438" />
    <path
       style="fill:#321900;fill-opacity:1;fill-rule:nonzero;stroke:#321900;stroke-width:0.0273254px;stroke-linecap:butt;stroke-linejoin:round;stroke-miterlimit:4;stroke-dasharray:none;stroke-opacity:1"
       d="m 809.66212,607.7516 c 0,-0.0273 0.0273,-0.082 0.0273,-0.1093 l 0.2186,-1.09302 c 0.0273,-0.082 0.0546,-0.19127 0.10931,-0.24593 l 0.62848,-0.90174 c 0.0273,-0.082 0.082,-0.13662 0.16395,-0.16395 l 0.90174,-0.62848 c 0.0547,-0.0547 0.16396,-0.082 0.24593,-0.10931 l 1.09302,-0.2186 c 0.0273,0 0.082,-0.0273 0.1093,-0.0273 h 11.36739 c 0.0547,0 0.1093,0.0273 0.13662,0.0273 l 1.12035,0.2186 c 0.082,0.0273 0.16395,0.0547 0.24593,0.10931 l 0.90174,0.62848 c 0.082,0.0273 0.13662,0.1093 0.16395,0.16395 l 0.60116,0.90174 c 0.0546,0.082 0.082,0.16396 0.1093,0.24593 l 0.2186,1.09302 c 0,0.0273 0,0.082 0,0.1093 v 29.73009 c 0,0.0547 0,0.1093 0,0.13663 l -0.2186,1.12034 c -0.0273,0.082 -0.0547,0.16395 -0.1093,0.24593 l -0.60116,0.90174 c -0.0273,0.0546 -0.1093,0.13663 -0.16395,0.16395 l -0.90174,0.60116 c -0.082,0.0547 -0.16396,0.082 -0.24593,0.1093 l -1.12035,0.2186 c -0.0273,0 -0.082,0 -0.13662,0 h -11.36739 c -0.0273,0 -0.082,0 -0.1093,0 l -1.09302,-0.2186 c -0.082,-0.0273 -0.16395,-0.0546 -0.24593,-0.1093 l -0.90174,-0.60116 c -0.0546,-0.0273 -0.13662,-0.082 -0.16395,-0.16395 l -0.62848,-0.90174 c -0.0547,-0.082 -0.082,-0.16395 -0.10931,-0.24593 l -0.2186,-1.12034 c 0,-0.0273 -0.0273,-0.082 -0.0273,-0.13663 z m 1.31163,29.73009 v -0.1093 l 0.2186,1.12034 -0.1093,-0.24593 0.62848,0.90174 -0.16395,-0.19128 0.90174,0.60116 -0.24593,-0.082 1.09302,0.2186 -0.13663,-0.0273 h 11.36739 l -0.1093,0.0273 1.12034,-0.2186 -0.24593,0.082 0.90174,-0.60116 -0.19128,0.19128 0.60116,-0.90174 -0.082,0.24593 0.21861,-1.12034 -0.0273,0.1093 V 607.7516 l 0.0273,0.13663 -0.21861,-1.09302 0.082,0.24593 -0.60116,-0.90174 0.19128,0.16395 -0.90174,-0.62848 0.24593,0.1093 -1.12034,-0.2186 h 0.1093 -11.36739 0.13663 l -1.09302,0.2186 0.24593,-0.1093 -0.90174,0.62848 0.16395,-0.16395 -0.62848,0.90174 0.1093,-0.24593 -0.2186,1.09302 v -0.13663 z"
       id="path5440" />
    <text
       xml:space="preserve"
       style="font-style:normal;font-variant:normal;font-weight:700;font-size:10.5007px;line-height:125%;font-family:Arial;text-align:start;letter-spacing:0px;word-spacing:0px;text-anchor:start;fill:#000000;fill-opacity:1;stroke:none;stroke-width:0.264583"
       x="812.32904"
       y="614.44183"
       id="text5446"><tspan
         sodipodi:role="line"
         x="812.32904"
         y="614.44183"
         id="tspan5444"
         style="stroke-width:0.264583"><tspan
           dx="0"
           dy="0"
           style="font-style:normal;font-variant:normal;font-weight:700;font-size:10.5007px;font-family:Arial;fill:#000000;stroke-width:0.264583"
           id="tspan5442">2</tspan></tspan></text>
    <path
       style="fill:#ffffff;fill-opacity:1;fill-rule:evenodd;stroke:none;stroke-width:0.264583"
       d="m 846.60613,607.7516 c 0,-1.55755 1.28429,-2.84184 2.84184,-2.84184 0,0 0,0 0,0 v 0 h 11.36739 v 0 c 1.58487,0 2.84184,1.28429 2.84184,2.84184 0,0 0,0 0,0 v 0 29.73009 0 c 0,1.58487 -1.25697,2.84185 -2.84184,2.84185 0,0 0,0 0,0 v 0 h -11.36739 v 0 c -1.55755,0 -2.84184,-1.25698 -2.84184,-2.84185 0,0 0,0 0,0 z"
       id="path5448" />
    <path
       style="fill:#321900;fill-opacity:1;fill-rule:nonzero;stroke:#321900;stroke-width:0.0273254px;stroke-linecap:butt;stroke-linejoin:round;stroke-miterlimit:4;stroke-dasharray:none;stroke-opacity:1"
       d="m 845.95032,607.7516 c 0,-0.0273 0.0273,-0.082 0.0273,-0.1093 l 0.21861,-1.09302 c 0.0273,-0.082 0.0547,-0.19127 0.1093,-0.24593 l 0.62848,-0.90174 c 0.0273,-0.082 0.082,-0.13662 0.16396,-0.16395 l 0.90174,-0.62848 c 0.0546,-0.0547 0.16395,-0.082 0.24592,-0.10931 l 1.09302,-0.2186 c 0.0273,0 0.082,-0.0273 0.1093,-0.0273 h 11.36739 c 0.0547,0 0.1093,0.0273 0.13662,0.0273 l 1.12035,0.2186 c 0.082,0.0273 0.16395,0.0547 0.24593,0.10931 l 0.90174,0.62848 c 0.082,0.0273 0.13662,0.1093 0.16395,0.16395 l 0.60116,0.90174 c 0.0547,0.082 0.082,0.16396 0.1093,0.24593 l 0.21861,1.09302 c 0,0.0273 0,0.082 0,0.1093 v 29.73009 c 0,0.0547 0,0.1093 0,0.13663 l -0.21861,1.12034 c -0.0273,0.082 -0.0546,0.16395 -0.1093,0.24593 l -0.60116,0.90174 c -0.0273,0.0546 -0.1093,0.13663 -0.16395,0.16395 l -0.90174,0.60116 c -0.082,0.0547 -0.16396,0.082 -0.24593,0.1093 l -1.12035,0.2186 c -0.0273,0 -0.082,0 -0.13662,0 h -11.36739 c -0.0273,0 -0.082,0 -0.1093,0 l -1.09302,-0.2186 c -0.082,-0.0273 -0.16395,-0.0546 -0.24592,-0.1093 l -0.90174,-0.60116 c -0.0547,-0.0273 -0.13663,-0.082 -0.16396,-0.16395 l -0.62848,-0.90174 c -0.0546,-0.082 -0.082,-0.16395 -0.1093,-0.24593 l -0.21861,-1.12034 c 0,-0.0273 -0.0273,-0.082 -0.0273,-0.13663 z m 1.31162,29.73009 v -0.1093 l 0.2186,1.12034 -0.1093,-0.24593 0.62849,0.90174 -0.16396,-0.19128 0.90174,0.60116 -0.24593,-0.082 1.09302,0.2186 -0.13663,-0.0273 h 11.36739 l -0.1093,0.0273 1.12034,-0.2186 -0.24593,0.082 0.90174,-0.60116 -0.19128,0.19128 0.60116,-0.90174 -0.082,0.24593 0.2186,-1.12034 -0.0273,0.1093 V 607.7516 l 0.0273,0.13663 -0.2186,-1.09302 0.082,0.24593 -0.60116,-0.90174 0.19128,0.16395 -0.90174,-0.62848 0.24593,0.1093 -1.12034,-0.2186 h 0.1093 -11.36739 0.13663 l -1.09302,0.2186 0.24593,-0.1093 -0.90174,0.62848 0.16396,-0.16395 -0.62849,0.90174 0.1093,-0.24593 -0.2186,1.09302 v -0.13663 z"
       id="path5450" />
    <text
       xml:space="preserve"
       style="font-style:normal;font-variant:normal;font-weight:700;font-size:10.5007px;line-height:125%;font-family:Arial;text-align:start;letter-spacing:0px;word-spacing:0px;text-anchor:start;fill:#000000;fill-opacity:1;stroke:none;stroke-width:0.264583"
       x="848.39886"
       y="614.44183"
       id="text5456"><tspan
         sodipodi:role="line"
         x="848.39886"
         y="614.44183"
         id="tspan5454"
         style="stroke-width:0.264583"><tspan
           dx="0"
           dy="0"
           style="font-style:normal;font-variant:normal;font-weight:700;font-size:10.5007px;font-family:Arial;fill:#000000;stroke-width:0.264583"
           id="tspan5452">3</tspan></tspan></text>
  </g>
</svg>
