<?xml version="1.0" encoding="UTF-8" standalone="no"?>
<!-- Created with Inkscape (http://www.inkscape.org/) -->

<svg
   width="330.59052"
   height="142.2128"
   viewBox="0 0 87.468739 37.627138"
   version="1.1"
   id="svg5"
   inkscape:version="1.1 (c68e22c387, 2021-05-23)"
   sodipodi:docname="Entropy19.svg"
   xmlns:inkscape="http://www.inkscape.org/namespaces/inkscape"
   xmlns:sodipodi="http://sodipodi.sourceforge.net/DTD/sodipodi-0.dtd"
   xmlns="http://www.w3.org/2000/svg"
   xmlns:svg="http://www.w3.org/2000/svg">
  <sodipodi:namedview
     id="namedview7"
     pagecolor="#ffffff"
     bordercolor="#666666"
     borderopacity="1.0"
     inkscape:pageshadow="2"
     inkscape:pageopacity="0.0"
     inkscape:pagecheckerboard="0"
     inkscape:document-units="px"
     showgrid="false"
     inkscape:zoom="0.26191077"
     inkscape:cx="-391.35466"
     inkscape:cy="-742.61933"
     inkscape:window-width="1299"
     inkscape:window-height="745"
     inkscape:window-x="-8"
     inkscape:window-y="-8"
     inkscape:window-maximized="1"
     inkscape:current-layer="layer1"
     units="px"
     fit-margin-top="0"
     fit-margin-left="0"
     fit-margin-right="0"
     fit-margin-bottom="0" />
  <defs
     id="defs2">
    <pattern
       id="EMFhbasepattern"
       patternUnits="userSpaceOnUse"
       width="6"
       height="6"
       x="0"
       y="0" />
    <pattern
       id="EMFhbasepattern-3"
       patternUnits="userSpaceOnUse"
       width="6"
       height="6"
       x="0"
       y="0" />
    <pattern
       id="EMFhbasepattern-2"
       patternUnits="userSpaceOnUse"
       width="6"
       height="6"
       x="0"
       y="0" />
    <pattern
       id="EMFhbasepattern-27"
       patternUnits="userSpaceOnUse"
       width="6"
       height="6"
       x="0"
       y="0" />
    <pattern
       id="EMFhbasepattern-9"
       patternUnits="userSpaceOnUse"
       width="6"
       height="6"
       x="0"
       y="0" />
    <pattern
       id="EMFhbasepattern-4"
       patternUnits="userSpaceOnUse"
       width="6"
       height="6"
       x="0"
       y="0" />
    <pattern
       id="EMFhbasepattern-0"
       patternUnits="userSpaceOnUse"
       width="6"
       height="6"
       x="0"
       y="0" />
    <pattern
       id="EMFhbasepattern-22"
       patternUnits="userSpaceOnUse"
       width="6"
       height="6"
       x="0"
       y="0" />
    <pattern
       id="EMFhbasepattern-30"
       patternUnits="userSpaceOnUse"
       width="6"
       height="6"
       x="0"
       y="0" />
  </defs>
  <g
     inkscape:label="圖層 1"
     inkscape:groupmode="layer"
     id="layer1"
     transform="translate(-507.02592,-345.81253)">
    <path
       style="fill:#ffffff;fill-opacity:1;fill-rule:evenodd;stroke:none;stroke-width:0.264583"
       d="m 507.91399,346.7006 v 35.85099 h 85.6926 V 346.7006 Z"
       id="path3935" />
    <path
       style="fill:#0070c0;fill-opacity:1;fill-rule:nonzero;stroke:#0070c0;stroke-width:0.0273254px;stroke-linecap:butt;stroke-linejoin:round;stroke-miterlimit:4;stroke-dasharray:none;stroke-opacity:1"
       d="m 507.03958,346.7006 c 0,-0.46453 0.40988,-0.87441 0.87441,-0.87441 h 85.6926 c 0.49186,0 0.87441,0.40988 0.87441,0.87441 v 35.85099 c 0,0.49185 -0.38255,0.87441 -0.87441,0.87441 h -85.6926 c -0.46453,0 -0.87441,-0.38256 -0.87441,-0.87441 z m 1.74882,35.85099 -0.87441,-0.87442 h 85.6926 l -0.87442,0.87442 V 346.7006 l 0.87442,0.87441 h -85.6926 l 0.87441,-0.87441 z"
       id="path3937" />
    <path
       style="fill:#ff0000;fill-opacity:1;fill-rule:nonzero;stroke:#ff0000;stroke-width:0.0273254px;stroke-linecap:butt;stroke-linejoin:round;stroke-miterlimit:4;stroke-dasharray:none;stroke-opacity:1"
       d="m 551.1975,346.7006 0.0273,2.62324 h -0.87441 l -0.0273,-2.62324 z m 0.0273,3.49766 v 2.62324 h -0.87441 v -2.62324 z m 0,3.49765 v 2.62325 h -0.87441 v -2.62325 z m 0,3.49766 v 2.62324 h -0.87441 v -2.62324 z m 0,3.49766 0.0273,2.62324 h -0.87442 l -0.0273,-2.62324 z m 0.0273,3.49765 v 2.62325 h -0.87442 v -2.62325 z m 0,3.49766 v 2.62324 h -0.87442 v -2.62324 z m 0,3.49766 v 2.62324 h -0.87442 v -2.62324 z m 0.0273,3.49766 v 2.62324 h -0.87441 v -2.62324 z m 0,3.49765 v 2.62325 h -0.87441 v -2.62325 z m 0,3.49766 v 1.09302 l -0.87441,0.0273 v -1.12035 z"
       id="path3939" />
    <path
       style="fill:#9cb084;fill-opacity:1;fill-rule:evenodd;stroke:none;stroke-width:0.264583"
       d="m 511.41165,359.59821 c 0,-1.80348 1.47557,-3.27905 3.27905,-3.27905 0,0 0,0 0,0 v 0 c 1.83081,0 3.27905,1.47557 3.27905,3.27905 0,0 0,0 0,0 v 0 c 0,1.83081 -1.44824,3.27905 -3.27905,3.27905 0,0 0,0 0,0 v 0 c -1.80348,0 -3.27905,-1.44824 -3.27905,-3.27905 0,0 0,0 0,0 z"
       id="path3941" />
    <path
       style="fill:#9cb084;fill-opacity:1;fill-rule:evenodd;stroke:none;stroke-width:0.264583"
       d="m 531.08597,372.71442 c 0,-1.80348 1.47557,-3.27905 3.27905,-3.27905 0,0 0,0 0,0 v 0 c 1.83081,0 3.27905,1.47557 3.27905,3.27905 0,0 0,0 0,0 v 0 c 0,1.83081 -1.44824,3.27906 -3.27905,3.27906 0,0 0,0 0,0 v 0 c -1.80348,0 -3.27905,-1.44825 -3.27905,-3.27906 0,0 0,0 0,0 z"
       id="path3943" />
    <path
       style="fill:#9cb084;fill-opacity:1;fill-rule:evenodd;stroke:none;stroke-width:0.264583"
       d="m 540.70453,353.0401 c 0,-1.80348 1.47557,-3.27905 3.27905,-3.27905 0,0 0,0 0,0 v 0 c 1.8308,0 3.27905,1.47557 3.27905,3.27905 0,0 0,0 0,0 v 0 c 0,1.83081 -1.44825,3.27906 -3.27905,3.27906 0,0 0,0 0,0 v 0 c -1.80348,0 -3.27905,-1.44825 -3.27905,-3.27906 0,0 0,0 0,0 z"
       id="path3945" />
    <path
       style="fill:#9cb084;fill-opacity:1;fill-rule:evenodd;stroke:none;stroke-width:0.264583"
       d="m 576.99272,359.59821 c 0,-1.80348 1.47557,-3.27905 3.27905,-3.27905 0,0 0,0 0,0 v 0 c 1.8308,0 3.27905,1.47557 3.27905,3.27905 0,0 0,0 0,0 v 0 c 0,1.83081 -1.44825,3.27905 -3.27905,3.27905 0,0 0,0 0,0 v 0 c -1.80348,0 -3.27905,-1.44824 -3.27905,-3.27905 0,0 0,0 0,0 z"
       id="path3947" />
    <path
       style="fill:#9cb084;fill-opacity:1;fill-rule:evenodd;stroke:none;stroke-width:0.264583"
       d="m 557.3184,366.15632 c 0,-1.80348 1.47557,-3.27906 3.27905,-3.27906 0,0 0,0 0,0 v 0 c 1.83081,0 3.27905,1.47558 3.27905,3.27906 0,0 0,0 0,0 v 0 c 0,1.8308 -1.44824,3.27905 -3.27905,3.27905 0,0 0,0 0,0 v 0 c -1.80348,0 -3.27905,-1.44825 -3.27905,-3.27905 0,0 0,0 0,0 z"
       id="path3949" />
    <path
       style="fill:#9cb084;fill-opacity:1;fill-rule:evenodd;stroke:none;stroke-width:0.264583"
       d="m 576.99272,372.71442 c 0,-1.80348 1.47557,-3.27905 3.27905,-3.27905 0,0 0,0 0,0 v 0 c 1.8308,0 3.27905,1.47557 3.27905,3.27905 0,0 0,0 0,0 v 0 c 0,1.83081 -1.44825,3.27906 -3.27905,3.27906 0,0 0,0 0,0 v 0 c -1.80348,0 -3.27905,-1.44825 -3.27905,-3.27906 0,0 0,0 0,0 z"
       id="path3951" />
    <path
       style="fill:#9cb084;fill-opacity:1;fill-rule:evenodd;stroke:none;stroke-width:0.264583"
       d="m 566.93695,369.65398 c 0,-1.80348 1.47558,-3.27906 3.27906,-3.27906 0,0 0,0 0,0 v 0 c 1.8308,0 3.27905,1.47558 3.27905,3.27906 0,0 0,0 0,0 v 0 c 0,1.8308 -1.44825,3.27905 -3.27905,3.27905 0,0 0,0 0,0 v 0 c -1.80348,0 -3.27906,-1.44825 -3.27906,-3.27905 0,0 0,0 0,0 z"
       id="path3953" />
    <path
       style="fill:#9cb084;fill-opacity:1;fill-rule:evenodd;stroke:none;stroke-width:0.264583"
       d="m 560.37885,356.53776 c 0,-1.80348 1.47557,-3.27905 3.27905,-3.27905 0,0 0,0 0,0 v 0 c 1.8308,0 3.27905,1.47557 3.27905,3.27905 0,0 0,0 0,0 v 0 c 0,1.83081 -1.44825,3.27905 -3.27905,3.27905 0,0 0,0 0,0 v 0 c -1.80348,0 -3.27905,-1.44824 -3.27905,-3.27905 0,0 0,0 0,0 z"
       id="path3955" />
    <path
       style="fill:#9cb084;fill-opacity:1;fill-rule:evenodd;stroke:none;stroke-width:0.264583"
       d="m 527.58831,359.59821 c 0,-1.80348 1.47558,-3.27905 3.27906,-3.27905 0,0 0,0 0,0 v 0 c 1.8308,0 3.27905,1.47557 3.27905,3.27905 0,0 0,0 0,0 v 0 c 0,1.83081 -1.44825,3.27905 -3.27905,3.27905 0,0 0,0 0,0 v 0 c -1.80348,0 -3.27906,-1.44824 -3.27906,-3.27905 0,0 0,0 0,0 z"
       id="path3957" />
    <path
       style="fill:#9cb084;fill-opacity:1;fill-rule:evenodd;stroke:none;stroke-width:0.264583"
       d="m 537.64407,359.59821 c 0,-1.80348 1.47558,-3.27905 3.27906,-3.27905 0,0 0,0 0,0 v 0 c 1.8308,0 3.27905,1.47557 3.27905,3.27905 0,0 0,0 0,0 v 0 c 0,1.83081 -1.44825,3.27905 -3.27905,3.27905 0,0 0,0 0,0 v 0 c -1.80348,0 -3.27906,-1.44824 -3.27906,-3.27905 0,0 0,0 0,0 z"
       id="path3959" />
  </g>
</svg>
