<?xml version="1.0" encoding="UTF-8" standalone="no"?>
<!-- Created with Inkscape (http://www.inkscape.org/) -->

<svg
   width="121.11308mm"
   height="125.01643mm"
   viewBox="0 0 121.11308 125.01644"
   version="1.1"
   id="svg5"
   inkscape:version="1.1 (c68e22c387, 2021-05-23)"
   sodipodi:docname="Celtic Cross.svg"
   xmlns:inkscape="http://www.inkscape.org/namespaces/inkscape"
   xmlns:sodipodi="http://sodipodi.sourceforge.net/DTD/sodipodi-0.dtd"
   xmlns="http://www.w3.org/2000/svg"
   xmlns:svg="http://www.w3.org/2000/svg">
  <sodipodi:namedview
     id="namedview7"
     pagecolor="#ffffff"
     bordercolor="#666666"
     borderopacity="1.0"
     inkscape:pageshadow="2"
     inkscape:pageopacity="0.0"
     inkscape:pagecheckerboard="0"
     inkscape:document-units="mm"
     showgrid="false"
     fit-margin-top="0"
     fit-margin-left="0"
     fit-margin-right="0"
     fit-margin-bottom="0"
     inkscape:zoom="0.52382155"
     inkscape:cx="315.94729"
     inkscape:cy="75.40736"
     inkscape:window-width="1288"
     inkscape:window-height="745"
     inkscape:window-x="-8"
     inkscape:window-y="-8"
     inkscape:window-maximized="1"
     inkscape:current-layer="layer1" />
  <defs
     id="defs2">
    <pattern
       id="EMFhbasepattern"
       patternUnits="userSpaceOnUse"
       width="6"
       height="6"
       x="0"
       y="0" />
    <pattern
       id="EMFhbasepattern-0"
       patternUnits="userSpaceOnUse"
       width="6"
       height="6"
       x="0"
       y="0" />
  </defs>
  <g
     inkscape:label="圖層 1"
     inkscape:groupmode="layer"
     id="layer1"
     transform="translate(46.083047,-128.94135)">
    <path
       style="fill:#ffffff;fill-opacity:1;fill-rule:evenodd;stroke:none;stroke-width:0.264583"
       d="m 41.3602,141.59312 c -1.00996,-1.14644 -0.90077,-2.92069 0.24566,-3.95794 0,0 0,0 0,0 v 0 l 8.40722,-7.42456 v 0 c 1.14644,-1.00995 2.92069,-0.90077 3.95794,0.24567 0,0 0,0 0,0 v 0 l 19.73512,22.35555 v 0 c 1.03726,1.17374 0.92808,2.94799 -0.21836,3.95794 0,0 0,0 0,0 v 0 l -8.40722,7.42456 v 0 c -1.17374,1.03725 -2.94799,0.92807 -3.95794,-0.24566 0,0 0,0 0,0 z"
       id="path1176" />
    <path
       style="fill:#321900;fill-opacity:1;fill-rule:nonzero;stroke:#321900;stroke-width:0.0272962px;stroke-linecap:butt;stroke-linejoin:round;stroke-miterlimit:4;stroke-dasharray:none;stroke-opacity:1"
       d="m 40.92346,142.00256 c 0,-0.0273 -0.0273,-0.0819 -0.0546,-0.10918 l -0.54592,-0.95537 c -0.0273,-0.0546 -0.0546,-0.13648 -0.0819,-0.21836 l -0.13649,-1.06455 c 0,-0.0819 0,-0.13649 0.0273,-0.21837 l 0.27296,-1.03726 c 0.0273,-0.0819 0.0546,-0.13648 0.0819,-0.19107 l 0.65511,-0.90077 c 0.0273,-0.0273 0.0546,-0.0546 0.0819,-0.10919 l 8.40721,-7.42455 c 0.0273,0 0.0819,-0.0273 0.10919,-0.0546 l 0.95537,-0.54593 c 0.0546,-0.0273 0.13648,-0.0546 0.21836,-0.0819 L 51.9784,128.955 c 0.0546,0 0.13649,0 0.21837,0.0273 l 1.03726,0.27296 c 0.0546,0.0273 0.13648,0.0546 0.19107,0.0819 l 0.90077,0.65511 c 0.0273,0.0273 0.0546,0.0546 0.0819,0.0819 l 19.73512,22.35556 c 0.0273,0.0273 0.0546,0.0819 0.0819,0.10918 l 0.57322,0.98266 c 0.0273,0.0546 0.0546,0.13648 0.0819,0.21837 l 0.13648,1.06455 c 0,0.0546 0,0.13648 -0.0273,0.21837 l -0.27296,1.03725 c -0.0273,0.0819 -0.0546,0.13649 -0.0819,0.19108 l -0.65511,0.87347 c -0.0273,0.0273 -0.0546,0.0546 -0.0819,0.0819 L 65.49,164.63109 c -0.0273,0.0273 -0.0819,0.0546 -0.10918,0.0819 l -0.98266,0.57322 c -0.0546,0.0273 -0.13648,0.0546 -0.21837,0.0819 l -1.06455,0.13648 c -0.0819,0 -0.13648,0 -0.21837,-0.0273 l -1.03726,-0.27296 c -0.0819,-0.0273 -0.13648,-0.0546 -0.21837,-0.10919 l -0.87347,-0.6824 c -0.0273,-0.0273 -0.0546,-0.0273 -0.0819,-0.0546 z m 20.63589,21.56397 -0.0546,-0.0546 0.87348,0.6824 -0.21837,-0.10918 1.03725,0.27296 -0.21836,-0.0273 1.06454,-0.13648 -0.21836,0.0819 0.98266,-0.57322 -0.10919,0.0546 8.40722,-7.42456 -0.0819,0.10919 0.65511,-0.87348 -0.0819,0.19107 0.27296,-1.03725 -0.0273,0.21837 -0.13648,-1.06455 0.0819,0.21837 -0.57322,-0.98267 0.0546,0.10919 -19.73513,-22.35555 0.10919,0.0819 -0.90077,-0.65511 0.19107,0.0819 -1.03726,-0.27296 0.21838,0.0273 -1.06456,0.13648 0.21837,-0.0819 -0.95536,0.54592 0.10918,-0.0819 -8.40721,7.42456 0.0819,-0.0819 -0.6551,0.90077 0.0819,-0.19107 -0.27296,1.03725 0.0273,-0.21837 0.13648,1.06455 -0.0819,-0.21837 0.54593,0.95537 -0.0819,-0.10919 z"
       id="path1178" />
    <text
       xml:space="preserve"
       style="font-style:normal;font-variant:normal;font-weight:700;font-size:10.4841px;line-height:125%;font-family:'微軟正黑體';text-align:start;letter-spacing:0px;word-spacing:0px;text-anchor:start;fill:#000000;fill-opacity:1;stroke:none;stroke-width:0.264583"
       x="43.907291"
       y="143.98975"
       id="text1184"><tspan
         sodipodi:role="line"
         x="43.907291"
         y="143.98975"
         id="tspan1182"
         style="stroke-width:0.264583"><tspan
           dx="0"
           dy="0"
           style="font-style:normal;font-variant:normal;font-weight:700;font-size:10.4841px;font-family:'微軟正黑體';fill:#000000;stroke-width:0.264583"
           id="tspan1180">9</tspan></tspan></text>
    <path
       style="fill:#ffffff;fill-opacity:1;fill-rule:evenodd;stroke:none;stroke-width:0.264583"
       d="m 41.3602,171.07297 c -1.00996,-1.14644 -0.90077,-2.92069 0.24566,-3.95794 0,0 0,0 0,0 v 0 l 8.40722,-7.42455 v 0 c 1.14644,-1.00996 2.92069,-0.90078 3.95794,0.24566 0,0 0,0 0,0 v 0 l 19.73512,22.35556 v 0 c 1.03726,1.17373 0.92808,2.94798 -0.21836,3.95794 0,0 0,0 0,0 v 0 l -8.40722,7.42455 v 0 c -1.17374,1.03726 -2.94799,0.92807 -3.95794,-0.24566 0,0 0,0 0,0 z"
       id="path1186" />
    <path
       style="fill:#321900;fill-opacity:1;fill-rule:nonzero;stroke:#321900;stroke-width:0.0272962px;stroke-linecap:butt;stroke-linejoin:round;stroke-miterlimit:4;stroke-dasharray:none;stroke-opacity:1"
       d="m 40.92346,171.48242 c 0,-0.0273 -0.0273,-0.0819 -0.0546,-0.10919 l -0.54592,-0.95537 c -0.0273,-0.0546 -0.0546,-0.13648 -0.0819,-0.21837 l -0.13649,-1.06454 c 0,-0.0819 0,-0.13649 0.0273,-0.21837 l 0.27296,-1.03726 c 0.0273,-0.0819 0.0546,-0.13648 0.0819,-0.19107 l 0.65511,-0.90077 c 0.0273,-0.0273 0.0546,-0.0546 0.0819,-0.10919 l 8.40721,-7.42455 c 0.0273,0 0.0819,-0.0273 0.10919,-0.0546 l 0.95537,-0.54593 c 0.0546,-0.0273 0.13648,-0.0546 0.21836,-0.0819 l 1.06455,-0.13648 c 0.0546,0 0.13649,0 0.21837,0.0273 l 1.03726,0.27297 c 0.0546,0.0273 0.13648,0.0546 0.19107,0.0819 l 0.90077,0.6551 c 0.0273,0.0273 0.0546,0.0546 0.0819,0.0819 l 19.73512,22.35556 c 0.0273,0.0273 0.0546,0.0819 0.0819,0.10918 l 0.57322,0.98267 c 0.0273,0.0546 0.0546,0.13648 0.0819,0.21836 l 0.13648,1.06456 c 0,0.0546 0,0.13648 -0.0273,0.21836 l -0.27296,1.03726 c -0.0273,0.0819 -0.0546,0.13648 -0.0819,0.19107 l -0.65511,0.87348 c -0.0273,0.0273 -0.0546,0.0546 -0.0819,0.0819 L 65.49,194.11094 c -0.0273,0.0273 -0.0819,0.0546 -0.10918,0.0819 l -0.98266,0.57322 c -0.0546,0.0273 -0.13648,0.0546 -0.21837,0.0819 l -1.06455,0.13648 c -0.0819,0 -0.13648,0 -0.21837,-0.0273 l -1.03726,-0.27296 c -0.0819,-0.0273 -0.13648,-0.0546 -0.21837,-0.10918 l -0.87347,-0.68241 c -0.0273,-0.0273 -0.0546,-0.0273 -0.0819,-0.0546 z m 20.63589,21.56396 -0.0546,-0.0546 0.87348,0.6824 -0.21837,-0.10918 1.03725,0.27296 -0.21836,-0.0273 1.06454,-0.13648 -0.21836,0.0819 0.98266,-0.57322 -0.10919,0.0546 8.40722,-7.42455 -0.0819,0.10918 0.65511,-0.87347 -0.0819,0.19107 0.27296,-1.03725 -0.0273,0.21837 -0.13648,-1.06456 0.0819,0.21838 -0.57322,-0.98267 0.0546,0.10919 -19.73513,-22.35556 0.10919,0.0819 -0.90077,-0.6551 0.19107,0.0819 -1.03726,-0.27297 0.21838,0.0273 -1.06456,0.13648 0.21837,-0.0819 -0.95536,0.54593 0.10918,-0.0819 -8.40721,7.42455 0.0819,-0.0819 -0.6551,0.90077 0.0819,-0.19107 -0.27296,1.03726 0.0273,-0.21837 0.13648,1.06455 -0.0819,-0.21837 0.54593,0.95536 -0.0819,-0.10918 z"
       id="path1188" />
    <text
       xml:space="preserve"
       style="font-style:normal;font-variant:normal;font-weight:700;font-size:10.4841px;line-height:125%;font-family:'微軟正黑體';text-align:start;letter-spacing:0px;word-spacing:0px;text-anchor:start;fill:#000000;fill-opacity:1;stroke:none;stroke-width:0.264583"
       x="47.182865"
       y="172.91307"
       id="text1194"><tspan
         sodipodi:role="line"
         x="47.182865"
         y="172.91307"
         id="tspan1192"
         style="stroke-width:0.264583"><tspan
           dx="0"
           dy="0"
           style="font-style:normal;font-variant:normal;font-weight:700;font-size:10.4841px;font-family:'微軟正黑體';fill:#000000;stroke-width:0.264583"
           id="tspan1190">8</tspan></tspan></text>
    <path
       style="fill:#ffffff;fill-opacity:1;fill-rule:evenodd;stroke:none;stroke-width:0.264583"
       d="m 41.3602,200.55283 c -1.00996,-1.14644 -0.90077,-2.9207 0.24566,-3.95795 0,0 0,0 0,0 v 0 l 8.40722,-7.42455 v 0 c 1.14644,-1.00996 2.92069,-0.90078 3.95794,0.24566 0,0 0,0 0,0 v 0 l 19.73512,22.35556 v 0 c 1.03726,1.17373 0.92808,2.94798 -0.21836,3.95794 0,0 0,0 0,0 v 0 l -8.40722,7.42455 v 0 c -1.17374,1.03726 -2.94799,0.92807 -3.95794,-0.24566 0,0 0,0 0,0 z"
       id="path1196" />
    <path
       style="fill:#321900;fill-opacity:1;fill-rule:nonzero;stroke:#321900;stroke-width:0.0272962px;stroke-linecap:butt;stroke-linejoin:round;stroke-miterlimit:4;stroke-dasharray:none;stroke-opacity:1"
       d="m 40.92346,200.96227 c 0,-0.0273 -0.0273,-0.0819 -0.0546,-0.10919 l -0.54592,-0.95536 c -0.0273,-0.0546 -0.0546,-0.13648 -0.0819,-0.21837 l -0.13649,-1.06455 c 0,-0.0819 0,-0.13648 0.0273,-0.21837 l 0.27296,-1.03726 c 0.0273,-0.0819 0.0546,-0.13648 0.0819,-0.19107 l 0.65511,-0.90077 c 0.0273,-0.0273 0.0546,-0.0546 0.0819,-0.10919 l 8.40721,-7.42455 c 0.0273,0 0.0819,-0.0273 0.10919,-0.0546 l 0.95537,-0.54593 c 0.0546,-0.0273 0.13648,-0.0546 0.21836,-0.0819 l 1.06455,-0.13648 c 0.0546,0 0.13649,0 0.21837,0.0273 l 1.03726,0.27296 c 0.0546,0.0273 0.13648,0.0546 0.19107,0.0819 l 0.90077,0.65511 c 0.0273,0.0273 0.0546,0.0546 0.0819,0.0819 l 19.73512,22.35555 c 0.0273,0.0273 0.0546,0.0819 0.0819,0.10918 l 0.57322,0.98266 c 0.0273,0.0546 0.0546,0.13649 0.0819,0.21838 l 0.13648,1.06454 c 0,0.0546 0,0.13649 -0.0273,0.21838 l -0.27296,1.03725 c -0.0273,0.0819 -0.0546,0.13648 -0.0819,0.19107 l -0.65511,0.87348 c -0.0273,0.0273 -0.0546,0.0546 -0.0819,0.0819 L 65.49,223.59079 c -0.0273,0.0273 -0.0819,0.0546 -0.10918,0.0819 l -0.98266,0.57322 c -0.0546,0.0273 -0.13648,0.0546 -0.21837,0.0819 l -1.06455,0.13648 c -0.0819,0 -0.13648,0 -0.21837,-0.0273 l -1.03726,-0.27296 c -0.0819,-0.0273 -0.13648,-0.0546 -0.21837,-0.10918 l -0.87347,-0.68241 c -0.0273,-0.0273 -0.0546,-0.0273 -0.0819,-0.0546 z m 20.63589,21.56396 -0.0546,-0.0546 0.87348,0.6824 -0.21837,-0.10918 1.03725,0.27296 -0.21836,-0.0273 1.06454,-0.13648 -0.21836,0.0819 0.98266,-0.57322 -0.10919,0.0546 8.40722,-7.42455 -0.0819,0.10919 0.65511,-0.87348 -0.0819,0.19107 0.27296,-1.03725 -0.0273,0.21837 -0.13648,-1.06455 0.0819,0.21836 -0.57322,-0.98266 0.0546,0.10919 -19.73513,-22.35556 0.10919,0.0819 -0.90077,-0.65511 0.19107,0.0819 -1.03726,-0.27296 0.21838,0.0273 -1.06456,0.13648 0.21837,-0.0819 -0.95536,0.54592 0.10918,-0.0819 -8.40721,7.42455 0.0819,-0.0819 -0.6551,0.90078 0.0819,-0.19108 -0.27296,1.03726 0.0273,-0.21837 0.13648,1.06455 -0.0819,-0.21837 0.54593,0.95536 -0.0819,-0.10918 z"
       id="path1198" />
    <text
       xml:space="preserve"
       style="font-style:normal;font-variant:normal;font-weight:700;font-size:10.4841px;line-height:125%;font-family:'微軟正黑體';text-align:start;letter-spacing:0px;word-spacing:0px;text-anchor:start;fill:#000000;fill-opacity:1;stroke:none;stroke-width:0.264583"
       x="47.182865"
       y="202.39313"
       id="text1204"><tspan
         sodipodi:role="line"
         x="47.182865"
         y="202.39313"
         id="tspan1202"
         style="stroke-width:0.264583"><tspan
           dx="0"
           dy="0"
           style="font-style:normal;font-variant:normal;font-weight:700;font-size:10.4841px;font-family:'微軟正黑體';fill:#000000;stroke-width:0.264583"
           id="tspan1200">7</tspan></tspan></text>
    <path
       style="fill:#ffffff;fill-opacity:1;fill-rule:evenodd;stroke:none;stroke-width:0.264583"
       d="m 41.3602,230.03267 c -1.00996,-1.14643 -0.90077,-2.92068 0.24566,-3.95794 0,0 0,0 0,0 v 0 l 8.40722,-7.42455 v 0 c 1.14644,-1.00996 2.92069,-0.90078 3.95794,0.24566 0,0 0,0 0,0 v 0 l 19.73512,22.35556 v 0 c 1.03726,1.17373 0.92808,2.94798 -0.21836,3.95794 0,0 0,0 0,0 v 0 l -8.40722,7.42455 v 0 c -1.17374,1.03726 -2.94799,0.92807 -3.95794,-0.24566 0,0 0,0 0,0 z"
       id="path1206" />
    <path
       style="fill:#321900;fill-opacity:1;fill-rule:nonzero;stroke:#321900;stroke-width:0.0272962px;stroke-linecap:butt;stroke-linejoin:round;stroke-miterlimit:4;stroke-dasharray:none;stroke-opacity:1"
       d="m 40.92346,230.44212 c 0,-0.0273 -0.0273,-0.0819 -0.0546,-0.10919 l -0.54592,-0.95536 c -0.0273,-0.0546 -0.0546,-0.13648 -0.0819,-0.21837 l -0.13649,-1.06455 c 0,-0.0819 0,-0.13648 0.0273,-0.21837 l 0.27296,-1.03726 c 0.0273,-0.0819 0.0546,-0.13648 0.0819,-0.19107 l 0.65511,-0.90077 c 0.0273,-0.0273 0.0546,-0.0546 0.0819,-0.10919 l 8.40721,-7.42455 c 0.0273,0 0.0819,-0.0273 0.10919,-0.0546 l 0.95537,-0.54593 c 0.0546,-0.0273 0.13648,-0.0546 0.21836,-0.0819 l 1.06455,-0.13648 c 0.0546,0 0.13649,0 0.21837,0.0273 l 1.03726,0.27296 c 0.0546,0.0273 0.13648,0.0546 0.19107,0.0819 l 0.90077,0.65511 c 0.0273,0.0273 0.0546,0.0546 0.0819,0.0819 l 19.73512,22.35555 c 0.0273,0.0273 0.0546,0.0819 0.0819,0.10918 l 0.57322,0.98267 c 0.0273,0.0546 0.0546,0.13648 0.0819,0.21836 l 0.13648,1.06456 c 0,0.0546 0,0.13648 -0.0273,0.21836 l -0.27296,1.03726 c -0.0273,0.0819 -0.0546,0.13648 -0.0819,0.19107 l -0.65511,0.87348 c -0.0273,0.0273 -0.0546,0.0546 -0.0819,0.0819 L 65.49,253.07064 c -0.0273,0.0273 -0.0819,0.0546 -0.10918,0.0819 l -0.98266,0.57322 c -0.0546,0.0273 -0.13648,0.0546 -0.21837,0.0819 l -1.06455,0.13648 c -0.0819,0 -0.13648,0 -0.21837,-0.0273 l -1.03726,-0.27299 c -0.0819,-0.0273 -0.13648,-0.0546 -0.21837,-0.10918 l -0.87347,-0.68241 c -0.0273,-0.0273 -0.0546,-0.0273 -0.0819,-0.0546 z m 20.63589,21.56396 -0.0546,-0.0546 0.87348,0.6824 -0.21837,-0.10918 1.03725,0.27296 -0.21836,-0.0273 1.06454,-0.13648 -0.21836,0.0819 0.98266,-0.57322 -0.10919,0.0546 8.40722,-7.42456 -0.0819,0.10918 0.65511,-0.87347 -0.0819,0.19107 0.27296,-1.03725 -0.0273,0.21837 -0.13648,-1.06456 0.0819,0.21838 -0.57322,-0.98267 0.0546,0.10919 -19.73513,-22.35555 0.10919,0.0819 -0.90077,-0.6551 0.19107,0.0819 -1.03726,-0.27296 0.21838,0.0273 -1.06456,0.13648 0.21837,-0.0819 -0.95536,0.54593 0.10918,-0.0819 -8.40721,7.42455 0.0819,-0.0819 -0.6551,0.90077 0.0819,-0.19107 -0.27296,1.03726 0.0273,-0.21837 0.13648,1.06455 -0.0819,-0.21837 0.54593,0.95536 -0.0819,-0.10918 z"
       id="path1208" />
    <text
       xml:space="preserve"
       style="font-style:normal;font-variant:normal;font-weight:700;font-size:10.4841px;line-height:125%;font-family:'微軟正黑體';text-align:start;letter-spacing:0px;word-spacing:0px;text-anchor:start;fill:#000000;fill-opacity:1;stroke:none;stroke-width:0.264583"
       x="47.619602"
       y="231.87318"
       id="text1214"><tspan
         sodipodi:role="line"
         x="47.619602"
         y="231.87318"
         id="tspan1212"
         style="stroke-width:0.264583"><tspan
           dx="0"
           dy="0"
           style="font-style:normal;font-variant:normal;font-weight:700;font-size:10.4841px;font-family:'微軟正黑體';fill:#000000;stroke-width:0.264583"
           id="tspan1210">6</tspan></tspan></text>
    <path
       style="fill:#ffffff;fill-opacity:1;fill-rule:evenodd;stroke:none;stroke-width:0.264583"
       d="m 12.67194,178.08809 c 0,-1.52859 1.25562,-2.78421 2.7842,-2.78421 0,0 0,0 0,0 v 0 h 11.05495 v 0 c 1.52858,0 2.75691,1.25562 2.75691,2.78421 0,0 0,0 0,0 v 0 29.8347 0 c 0,1.52858 -1.22833,2.75691 -2.75691,2.75691 0,0 0,0 0,0 v 0 H 15.45614 v 0 c -1.52858,0 -2.7842,-1.22833 -2.7842,-2.75691 0,0 0,0 0,0 z"
       id="path1216" />
    <path
       style="fill:#321900;fill-opacity:1;fill-rule:nonzero;stroke:#321900;stroke-width:0.0272962px;stroke-linecap:butt;stroke-linejoin:round;stroke-miterlimit:4;stroke-dasharray:none;stroke-opacity:1"
       d="m 12.01683,178.08809 c 0,-0.0273 0.0273,-0.0819 0.0273,-0.10919 l 0.21836,-1.09184 c 0.0273,-0.0819 0.0546,-0.16378 0.10919,-0.24567 l 0.60051,-0.87348 c 0.0273,-0.0819 0.0819,-0.13648 0.16378,-0.16377 l 0.87348,-0.60052 c 0.0819,-0.0546 0.16377,-0.0819 0.24566,-0.10918 l 1.09185,-0.21837 c 0.0273,0 0.0819,-0.0273 0.10918,-0.0273 h 11.05495 c 0.0546,0 0.10918,0.0273 0.13648,0.0273 l 1.06455,0.21837 c 0.0819,0.0273 0.16378,0.0546 0.24566,0.0819 l 0.90078,0.60052 c 0.0546,0.0546 0.13648,0.13648 0.19107,0.19107 l 0.57322,0.87348 c 0.0273,0.0819 0.0546,0.16378 0.0819,0.24567 l 0.21837,1.09184 c 0,0.0273 0,0.0819 0,0.10919 v 29.8347 c 0,0.0546 0,0.10918 0,0.13648 l -0.21837,1.06455 c -0.0273,0.0819 -0.0546,0.16377 -0.0819,0.21837 l -0.57322,0.90077 c -0.0546,0.0819 -0.13648,0.16378 -0.21837,0.21837 l -0.90077,0.57322 c -0.0546,0.0273 -0.13648,0.0546 -0.21837,0.0819 l -1.06455,0.21837 c -0.0273,0 -0.0819,0 -0.13648,0 H 15.45614 c -0.0273,0 -0.0819,0 -0.10918,0 l -1.09185,-0.21837 c -0.0819,-0.0273 -0.16377,-0.0546 -0.24566,-0.0819 l -0.87348,-0.57322 c -0.0546,-0.0546 -0.13648,-0.13648 -0.19107,-0.19107 l -0.60052,-0.90078 c -0.0273,-0.0819 -0.0546,-0.16377 -0.0819,-0.24566 l -0.21836,-1.06455 c 0,-0.0273 -0.0273,-0.0819 -0.0273,-0.13648 z m 1.31022,29.8347 v -0.10919 l 0.21836,1.06455 -0.10918,-0.24566 0.60051,0.90077 -0.16377,-0.19107 0.87347,0.57322 -0.24566,-0.0819 1.09184,0.21837 -0.13648,-0.0273 h 11.05495 l -0.10919,0.0273 1.06456,-0.21837 -0.21838,0.0819 0.90078,-0.57322 -0.21837,0.21837 0.57322,-0.90078 -0.0819,0.21837 0.21837,-1.06455 -0.0273,0.10919 v -29.8347 l 0.0273,0.13648 -0.21837,-1.09185 0.0819,0.24567 -0.57322,-0.87348 0.19107,0.16378 -0.90077,-0.60052 0.24567,0.10919 -1.06456,-0.21837 h 0.10919 -11.05495 0.13648 l -1.09184,0.21837 0.24566,-0.10919 -0.87347,0.60052 0.16377,-0.16378 -0.60051,0.87348 0.10918,-0.24567 -0.21836,1.09185 v -0.13648 z"
       id="path1218" />
    <text
       xml:space="preserve"
       style="font-style:normal;font-variant:normal;font-weight:700;font-size:10.4841px;line-height:125%;font-family:'微軟正黑體';text-align:start;letter-spacing:0px;word-spacing:0px;text-anchor:start;fill:#000000;fill-opacity:1;stroke:none;stroke-width:0.264583"
       x="14.427234"
       y="184.91676"
       id="text1224"><tspan
         sodipodi:role="line"
         x="14.427234"
         y="184.91676"
         id="tspan1222"
         style="stroke-width:0.264583"><tspan
           dx="0"
           dy="0"
           style="font-style:normal;font-variant:normal;font-weight:700;font-size:10.4841px;font-family:'微軟正黑體';fill:#000000;stroke-width:0.264583"
           id="tspan1220">5</tspan></tspan></text>
    <path
       style="fill:#ffffff;fill-opacity:1;fill-rule:evenodd;stroke:none;stroke-width:0.264583"
       d="m -45.414286,178.08809 c 0,-1.52859 1.255623,-2.78421 2.784208,-2.78421 0,0 0,0 0,0 v 0 h 11.054944 v 0 c 1.528585,0 2.756914,1.25562 2.756914,2.78421 0,0 0,0 0,0 v 0 29.8347 0 c 0,1.52858 -1.228329,2.75691 -2.756914,2.75691 0,0 0,0 0,0 v 0 h -11.054944 v 0 c -1.528585,0 -2.784208,-1.22833 -2.784208,-2.75691 0,0 0,0 0,0 z"
       id="path1226" />
    <path
       style="fill:#321900;fill-opacity:1;fill-rule:nonzero;stroke:#321900;stroke-width:0.0272962px;stroke-linecap:butt;stroke-linejoin:round;stroke-miterlimit:4;stroke-dasharray:none;stroke-opacity:1"
       d="m -46.069394,178.08809 c 0,-0.0273 0.0273,-0.0819 0.0273,-0.10919 l 0.218369,-1.09184 c 0.0273,-0.0819 0.05459,-0.16378 0.109185,-0.24567 l 0.600516,-0.87348 c 0.0273,-0.0819 0.08189,-0.13648 0.163776,-0.16377 l 0.873478,-0.60052 c 0.08189,-0.0546 0.163776,-0.0819 0.245665,-0.10918 l 1.091846,-0.21837 c 0.0273,0 0.08189,-0.0273 0.109185,-0.0273 h 11.054944 c 0.05459,0 0.109184,0.0273 0.13648,0.0273 l 1.064551,0.21837 c 0.08189,0.0273 0.163776,0.0546 0.245665,0.0819 l 0.900774,0.60052 c 0.0546,0.0546 0.13648,0.13648 0.19107,0.19107 l 0.57322,0.87348 c 0.0273,0.0819 0.0546,0.16378 0.0819,0.24567 l 0.21837,1.09184 c 0,0.0273 0,0.0819 0,0.10919 v 29.8347 c 0,0.0546 0,0.10918 0,0.13648 l -0.21837,1.06455 c -0.0273,0.0819 -0.0546,0.16377 -0.0819,0.21837 l -0.57322,0.90077 c -0.0546,0.0819 -0.13648,0.16378 -0.21837,0.21837 l -0.90077,0.57322 c -0.05459,0.0273 -0.136481,0.0546 -0.218369,0.0819 l -1.064551,0.21837 c -0.0273,0 -0.08189,0 -0.13648,0 h -11.054948 c -0.0273,0 -0.08189,0 -0.109185,0 l -1.091846,-0.21837 c -0.08189,-0.0273 -0.163777,-0.0546 -0.245665,-0.0819 l -0.873478,-0.57322 c -0.05459,-0.0546 -0.13648,-0.13648 -0.191073,-0.19107 l -0.600515,-0.90078 c -0.0273,-0.0819 -0.05459,-0.16377 -0.08189,-0.24566 l -0.218369,-1.06455 c 0,-0.0273 -0.0273,-0.0819 -0.0273,-0.13648 z m 1.310215,29.8347 v -0.10919 l 0.21837,1.06455 -0.109185,-0.24566 0.600516,0.90077 -0.163777,-0.19107 0.873477,0.57322 -0.245666,-0.0819 1.091847,0.21837 -0.136481,-0.0273 h 11.054944 l -0.109185,0.0273 1.06455,-0.21837 -0.218369,0.0819 0.900778,-0.57322 -0.218374,0.21837 0.573224,-0.90078 -0.0819,0.21837 0.21837,-1.06455 -0.0273,0.10919 v -29.8347 l 0.0273,0.13648 -0.21837,-1.09185 0.0819,0.24567 -0.573224,-0.87348 0.191073,0.16378 -0.900773,-0.60052 0.245665,0.10919 -1.06455,-0.21837 h 0.109185 -11.054944 0.136481 l -1.091847,0.21837 0.245666,-0.10919 -0.873477,0.60052 0.163777,-0.16378 -0.600516,0.87348 0.109185,-0.24567 -0.21837,1.09185 v -0.13648 z"
       id="path1228" />
    <text
       xml:space="preserve"
       style="font-style:normal;font-variant:normal;font-weight:700;font-size:10.4841px;line-height:125%;font-family:'微軟正黑體';text-align:start;letter-spacing:0px;word-spacing:0px;text-anchor:start;fill:#000000;fill-opacity:1;stroke:none;stroke-width:0.264583"
       x="-43.659397"
       y="184.91676"
       id="text1234"><tspan
         sodipodi:role="line"
         x="-43.659397"
         y="184.91676"
         id="tspan1232"
         style="stroke-width:0.264583"><tspan
           dx="0"
           dy="0"
           style="font-style:normal;font-variant:normal;font-weight:700;font-size:10.4841px;font-family:'微軟正黑體';fill:#000000;stroke-width:0.264583"
           id="tspan1230">4</tspan></tspan></text>
    <path
       style="fill:#ffffff;fill-opacity:1;fill-rule:evenodd;stroke:none;stroke-width:0.264583"
       d="m -17.02628,135.77904 c 0,-1.55588 1.28292,-2.8388 2.8388,-2.8388 0,0 0,0 0,0 v 0 h 11.3552004 v 0 c 1.58318,0 2.83880003,1.28292 2.83880003,2.8388 0,0 0,0 0,0 v 0 29.69822 0 c 0,1.58318 -1.25562003,2.8388 -2.83880003,2.8388 0,0 0,0 0,0 v 0 H -14.18748 v 0 c -1.55588,0 -2.8388,-1.25562 -2.8388,-2.8388 0,0 0,0 0,0 z"
       id="path1236" />
    <path
       style="fill:#321900;fill-opacity:1;fill-rule:nonzero;stroke:#321900;stroke-width:0.0272962px;stroke-linecap:butt;stroke-linejoin:round;stroke-miterlimit:4;stroke-dasharray:none;stroke-opacity:1"
       d="m -17.68139,135.77904 c 0,-0.0273 0.0273,-0.0819 0.0273,-0.10918 l 0.21836,-1.09185 c 0.0273,-0.0819 0.0546,-0.19107 0.10919,-0.24567 l 0.62781,-0.90077 c 0.0273,-0.0819 0.0819,-0.13648 0.16378,-0.16378 l 0.90077,-0.62781 c 0.0546,-0.0546 0.16378,-0.0819 0.24567,-0.10918 l 1.09184,-0.21837 c 0.0273,0 0.0819,-0.0273 0.10919,-0.0273 h 11.3552004 c 0.0546,0 0.10918,0.0273 0.13648,0.0273 l 1.11914,0.21837 c 0.0819,0.0273 0.16378,0.0546 0.24567,0.10918 l 0.90077003,0.62781 c 0.0819,0.0273 0.13648,0.10919 0.16378,0.16378 l 0.60051,0.90077 c 0.0546,0.0819 0.0819,0.16378 0.10919,0.24567 l 0.21837,1.09185 c 0,0.0273 0,0.0819 0,0.10918 v 29.69822 c 0,0.0546 0,0.10918 0,0.13648 l -0.21837,1.11914 c -0.0273,0.0819 -0.0546,0.16378 -0.10919,0.24567 l -0.60051,0.90077 c -0.0273,0.0546 -0.10919,0.13648 -0.16378,0.16378 l -0.90077003,0.60052 c -0.0819,0.0546 -0.16378,0.0819 -0.24567,0.10918 l -1.11914,0.21837 c -0.0273,0 -0.0819,0 -0.13648,0 H -14.18748 c -0.0273,0 -0.0819,0 -0.10919,0 l -1.09184,-0.21837 c -0.0819,-0.0273 -0.16378,-0.0546 -0.24567,-0.10918 l -0.90077,-0.60052 c -0.0546,-0.0273 -0.13648,-0.0819 -0.16378,-0.16378 l -0.62781,-0.90077 c -0.0546,-0.0819 -0.0819,-0.16378 -0.10919,-0.24567 l -0.21836,-1.11914 c 0,-0.0273 -0.0273,-0.0819 -0.0273,-0.13648 z m 1.31022,29.69822 v -0.10918 l 0.21836,1.11914 -0.10918,-0.24567 0.62781,0.90078 -0.16377,-0.19108 0.90077,0.60052 -0.24567,-0.0819 1.09185,0.21837 -0.13648,-0.0273 h 11.3552004 l -0.10918,0.0273 1.11914,-0.21837 -0.24567,0.0819 0.90077,-0.60052 -0.19107,0.19108 0.60052003,-0.90078 -0.0819,0.24567 0.21837,-1.11914 -0.0273,0.10918 v -29.69822 l 0.0273,0.13648 -0.21837,-1.09184 0.0819,0.24566 -0.60052003,-0.90077 0.19107,0.16377 -0.90077,-0.62781 0.24567,0.10919 -1.11914,-0.21837 h 0.10918 -11.3552004 0.13648 l -1.09185,0.21837 0.24567,-0.10919 -0.90077,0.62781 0.16377,-0.16377 -0.62781,0.90077 0.10918,-0.24566 -0.21836,1.09184 v -0.13648 z"
       id="path1238" />
    <text
       xml:space="preserve"
       style="font-style:normal;font-variant:normal;font-weight:700;font-size:10.4841px;line-height:125%;font-family:'微軟正黑體';text-align:start;letter-spacing:0px;word-spacing:0px;text-anchor:start;fill:#000000;fill-opacity:1;stroke:none;stroke-width:0.264583"
       x="-15.052815"
       y="142.33446"
       id="text1244"><tspan
         sodipodi:role="line"
         x="-15.052815"
         y="142.33446"
         id="tspan1242"
         style="stroke-width:0.264583"><tspan
           dx="0"
           dy="0"
           style="font-style:normal;font-variant:normal;font-weight:700;font-size:10.4841px;font-family:'微軟正黑體';fill:#000000;stroke-width:0.264583"
           id="tspan1240">2</tspan></tspan></text>
    <path
       style="fill:#ffffff;fill-opacity:1;fill-rule:evenodd;stroke:none;stroke-width:0.264583"
       d="m -17.02628,217.44915 c 0,-1.55588 1.28292,-2.8388 2.8388,-2.8388 0,0 0,0 0,0 v 0 h 11.3552004 v 0 c 1.58318,0 2.83880003,1.28292 2.83880003,2.8388 0,0 0,0 0,0 v 0 29.69822 0 c 0,1.58317 -1.25562003,2.8388 -2.83880003,2.8388 0,0 0,0 0,0 v 0 H -14.18748 v 0 c -1.55588,0 -2.8388,-1.25563 -2.8388,-2.8388 0,0 0,0 0,0 z"
       id="path1246" />
    <path
       style="fill:#321900;fill-opacity:1;fill-rule:nonzero;stroke:#321900;stroke-width:0.0272962px;stroke-linecap:butt;stroke-linejoin:round;stroke-miterlimit:4;stroke-dasharray:none;stroke-opacity:1"
       d="m -17.68139,217.44915 c 0,-0.0273 0.0273,-0.0819 0.0273,-0.10919 l 0.21836,-1.09184 c 0.0273,-0.0819 0.0546,-0.19108 0.10919,-0.24567 l 0.62781,-0.90077 c 0.0273,-0.0819 0.0819,-0.13648 0.16378,-0.16378 l 0.90077,-0.62781 c 0.0546,-0.0546 0.16378,-0.0819 0.24567,-0.10919 l 1.09184,-0.21836 c 0.0273,0 0.0819,-0.0273 0.10919,-0.0273 h 11.3552004 c 0.0546,0 0.10918,0.0273 0.13648,0.0273 l 1.11914,0.21836 c 0.0819,0.0273 0.16378,0.0546 0.24567,0.10919 l 0.90077003,0.62781 c 0.0819,0.0273 0.13648,0.10918 0.16378,0.16378 l 0.60051,0.90077 c 0.0546,0.0819 0.0819,0.16378 0.10919,0.24567 l 0.21837,1.09184 c 0,0.0273 0,0.0819 0,0.10919 v 29.69822 c 0,0.0546 0,0.10918 0,0.13648 l -0.21837,1.11914 c -0.0273,0.0819 -0.0546,0.16378 -0.10919,0.24566 l -0.60051,0.90078 c -0.0273,0.0546 -0.10919,0.13648 -0.16378,0.16378 l -0.90077003,0.60051 c -0.0819,0.0546 -0.16378,0.0819 -0.24567,0.10918 l -1.11914,0.21837 c -0.0273,0 -0.0819,0 -0.13648,0 H -14.18748 c -0.0273,0 -0.0819,0 -0.10919,0 l -1.09184,-0.21837 c -0.0819,-0.0273 -0.16378,-0.0546 -0.24567,-0.10918 l -0.90077,-0.60051 c -0.0546,-0.0273 -0.13648,-0.0819 -0.16378,-0.16378 l -0.62781,-0.90078 c -0.0546,-0.0819 -0.0819,-0.16377 -0.10919,-0.24566 l -0.21836,-1.11914 c 0,-0.0273 -0.0273,-0.0819 -0.0273,-0.13648 z m 1.31022,29.69822 v -0.10919 l 0.21836,1.11914 -0.10918,-0.24566 0.62781,0.90077 -0.16377,-0.19107 0.90077,0.60051 -0.24567,-0.0819 1.09185,0.21836 -0.13648,-0.0273 h 11.3552004 l -0.10918,0.0273 1.11914,-0.21836 -0.24567,0.0819 0.90077,-0.60051 -0.19107,0.19107 0.60052003,-0.90077 -0.0819,0.24566 0.21837,-1.11914 -0.0273,0.10919 v -29.69822 l 0.0273,0.13648 -0.21837,-1.09185 0.0819,0.24567 -0.60052003,-0.90078 0.19107,0.16378 -0.90077,-0.62781 0.24567,0.10918 -1.11914,-0.21837 h 0.10918 -11.3552004 0.13648 l -1.09185,0.21837 0.24567,-0.10918 -0.90077,0.62781 0.16377,-0.16378 -0.62781,0.90078 0.10918,-0.24567 -0.21836,1.09185 v -0.13648 z"
       id="path1248" />
    <text
       xml:space="preserve"
       style="font-style:normal;font-variant:normal;font-weight:700;font-size:10.4841px;line-height:125%;font-family:'微軟正黑體';text-align:start;letter-spacing:0px;word-spacing:0px;text-anchor:start;fill:#000000;fill-opacity:1;stroke:none;stroke-width:0.264583"
       x="-15.052815"
       y="224.2235"
       id="text1254"><tspan
         sodipodi:role="line"
         x="-15.052815"
         y="224.2235"
         id="tspan1252"
         style="stroke-width:0.264583"><tspan
           dx="0"
           dy="0"
           style="font-style:normal;font-variant:normal;font-weight:700;font-size:10.4841px;font-family:'微軟正黑體';fill:#000000;stroke-width:0.264583"
           id="tspan1250">3</tspan></tspan></text>
    <path
       style="fill:#ffffff;fill-opacity:1;fill-rule:evenodd;stroke:none;stroke-width:0.264583"
       d="m -23.35899,203.25514 c -1.55588,0 -2.8388,-1.25562 -2.8388,-2.83879 0,0 0,0 0,0 v 0 -11.35521 0 c 0,-1.55588 1.28292,-2.8388 2.8388,-2.8388 0,0 0,0 0,0 v 0 H 6.3392304 v 0 c 1.58318,0 2.8388,1.28292 2.8388,2.8388 0,0 0,0 0,0 v 0 11.35521 0 c 0,1.58317 -1.25562,2.83879 -2.8388,2.83879 0,0 0,0 0,0 z"
       id="path1256" />
    <path
       style="fill:#321900;fill-opacity:1;fill-rule:nonzero;stroke:#321900;stroke-width:0.0272962px;stroke-linecap:butt;stroke-linejoin:round;stroke-miterlimit:4;stroke-dasharray:none;stroke-opacity:1"
       d="m -23.35899,203.91025 c -0.0273,0 -0.0819,0 -0.10919,0 l -1.09184,-0.21837 c -0.0819,-0.0273 -0.16378,-0.0546 -0.24567,-0.10918 l -0.90077,-0.60052 c -0.0546,-0.0273 -0.13648,-0.0819 -0.16378,-0.16378 l -0.62781,-0.90077 c -0.0546,-0.0819 -0.0819,-0.16377 -0.10918,-0.24566 l -0.21837,-1.11914 c 0,-0.0273 -0.0273,-0.0819 -0.0273,-0.13648 v -11.35521 c 0,-0.0273 0.0273,-0.0819 0.0273,-0.10918 l 0.21837,-1.09185 c 0.0273,-0.0819 0.0546,-0.19107 0.10918,-0.24566 l 0.62781,-0.90078 c 0.0273,-0.0819 0.0819,-0.13648 0.16378,-0.16377 l 0.90077,-0.62782 c 0.0546,-0.0546 0.16378,-0.0819 0.24567,-0.10918 l 1.09184,-0.21837 c 0.0273,0 0.0819,-0.0273 0.10919,-0.0273 H 6.3392304 c 0.0546,0 0.10918,0.0273 0.13648,0.0273 l 1.11914,0.21837 c 0.0819,0.0273 0.16378,0.0546 0.24567,0.10918 l 0.90077,0.62782 c 0.0819,0.0273 0.13648,0.10918 0.16378,0.16377 l 0.60051,0.90078 c 0.0546,0.0819 0.0819,0.16377 0.10919,0.24566 l 0.21837,1.09185 c 0,0.0273 0,0.0819 0,0.10918 v 11.35521 c 0,0.0546 0,0.10918 0,0.13648 l -0.21837,1.11914 c -0.0273,0.0819 -0.0546,0.16378 -0.10919,0.24566 l -0.60051,0.90077 c -0.0273,0.0546 -0.10919,0.13649 -0.16378,0.16378 l -0.90077,0.60052 c -0.0819,0.0546 -0.16378,0.0819 -0.24567,0.10918 l -1.11914,0.21837 c -0.0273,0 -0.0819,0 -0.13648,0 z m 29.6982204,-1.31021 -0.10919,0.0273 1.11915,-0.21837 -0.24567,0.0819 0.90078,-0.60051 -0.19108,0.19107 0.60052,-0.90077 -0.0819,0.24566 0.21837,-1.11914 -0.0273,0.10919 v -11.35521 l 0.0273,0.13648 -0.21837,-1.09184 0.0819,0.24566 -0.60052,-0.90077 0.19108,0.16378 -0.90078,-0.62781 0.24567,0.10918 -1.11915,-0.21837 h 0.10919 -29.6982204 0.13648 l -1.09185,0.21837 0.24567,-0.10918 -0.90077,0.62781 0.16377,-0.16378 -0.62781,0.90077 0.10919,-0.24566 -0.21837,1.09184 v -0.13648 11.35521 -0.10919 l 0.21837,1.11914 -0.10919,-0.24566 0.62781,0.90077 -0.16377,-0.19107 0.90077,0.60051 -0.24567,-0.0819 1.09185,0.21837 -0.13648,-0.0273 z"
       id="path1258" />
    <text
       xml:space="preserve"
       style="font-style:normal;font-variant:normal;font-weight:700;font-size:10.4841px;line-height:125%;font-family:'微軟正黑體';text-align:start;letter-spacing:0px;word-spacing:0px;text-anchor:start;fill:#000000;fill-opacity:1;stroke:none;stroke-width:0.264583"
       x="-24.44277"
       y="198.019"
       id="text1264"><tspan
         sodipodi:role="line"
         x="-24.44277"
         y="198.019"
         id="tspan1262"
         style="stroke-width:0.264583"><tspan
           dx="0"
           dy="0"
           style="font-style:normal;font-variant:normal;font-weight:700;font-size:10.4841px;font-family:'微軟正黑體';fill:#000000;stroke-width:0.264583"
           id="tspan1260">0</tspan></tspan></text>
    <path
       style="fill:#ffffff;fill-opacity:1;fill-rule:evenodd;stroke:none;stroke-width:0.264583"
       d="m -17.02628,178.14268 c 0,-1.55588 1.28292,-2.8388 2.8388,-2.8388 0,0 0,0 0,0 v 0 h 11.3552004 v 0 c 1.58318,0 2.83880003,1.28292 2.83880003,2.8388 0,0 0,0 0,0 v 0 29.69822 0 c 0,1.58318 -1.25562003,2.8388 -2.83880003,2.8388 0,0 0,0 0,0 v 0 H -14.18748 v 0 c -1.55588,0 -2.8388,-1.25562 -2.8388,-2.8388 0,0 0,0 0,0 z"
       id="path1266" />
    <path
       style="fill:#321900;fill-opacity:1;fill-rule:nonzero;stroke:#321900;stroke-width:0.0272962px;stroke-linecap:butt;stroke-linejoin:round;stroke-miterlimit:4;stroke-dasharray:none;stroke-opacity:1"
       d="m -17.68139,178.14268 c 0,-0.0273 0.0273,-0.0819 0.0273,-0.10919 l 0.21836,-1.09184 c 0.0273,-0.0819 0.0546,-0.19107 0.10919,-0.24567 l 0.62781,-0.90077 c 0.0273,-0.0819 0.0819,-0.13648 0.16378,-0.16378 l 0.90077,-0.62781 c 0.0546,-0.0546 0.16378,-0.0819 0.24567,-0.10918 l 1.09184,-0.21837 c 0.0273,0 0.0819,-0.0273 0.10919,-0.0273 h 11.3552004 c 0.0546,0 0.10918,0.0273 0.13648,0.0273 l 1.11914,0.21837 c 0.0819,0.0273 0.16378,0.0546 0.24567,0.10918 l 0.90077003,0.62781 c 0.0819,0.0273 0.13648,0.10919 0.16378,0.16378 l 0.60051,0.90077 c 0.0546,0.0819 0.0819,0.16378 0.10919,0.24567 l 0.21837,1.09184 c 0,0.0273 0,0.0819 0,0.10919 v 29.69822 c 0,0.0546 0,0.10918 0,0.13648 l -0.21837,1.11914 c -0.0273,0.0819 -0.0546,0.16378 -0.10919,0.24567 l -0.60051,0.90077 c -0.0273,0.0546 -0.10919,0.13648 -0.16378,0.16378 l -0.90077003,0.60051 c -0.0819,0.0546 -0.16378,0.0819 -0.24567,0.10919 l -1.11914,0.21837 c -0.0273,0 -0.0819,0 -0.13648,0 H -14.18748 c -0.0273,0 -0.0819,0 -0.10919,0 l -1.09184,-0.21837 c -0.0819,-0.0273 -0.16378,-0.0546 -0.24567,-0.10919 l -0.90077,-0.60051 c -0.0546,-0.0273 -0.13648,-0.0819 -0.16378,-0.16378 l -0.62781,-0.90077 c -0.0546,-0.0819 -0.0819,-0.16378 -0.10919,-0.24567 l -0.21836,-1.11914 c 0,-0.0273 -0.0273,-0.0819 -0.0273,-0.13648 z m 1.31022,29.69822 v -0.10919 l 0.21836,1.11915 -0.10918,-0.24567 0.62781,0.90078 -0.16377,-0.19108 0.90077,0.60052 -0.24567,-0.0819 1.09185,0.21837 -0.13648,-0.0273 h 11.3552004 l -0.10918,0.0273 1.11914,-0.21837 -0.24567,0.0819 0.90077,-0.60052 -0.19107,0.19108 0.60052003,-0.90078 -0.0819,0.24567 0.21837,-1.11915 -0.0273,0.10919 v -29.69822 l 0.0273,0.13648 -0.21837,-1.09184 0.0819,0.24566 -0.60052003,-0.90077 0.19107,0.16377 -0.90077,-0.62781 0.24567,0.10919 -1.11914,-0.21837 h 0.10918 -11.3552004 0.13648 l -1.09185,0.21837 0.24567,-0.10919 -0.90077,0.62781 0.16377,-0.16377 -0.62781,0.90077 0.10918,-0.24566 -0.21836,1.09184 v -0.13648 z"
       id="path1268" />
    <text
       xml:space="preserve"
       style="font-style:normal;font-variant:normal;font-weight:700;font-size:10.4841px;line-height:125%;font-family:'微軟正黑體';text-align:start;letter-spacing:0px;word-spacing:0px;text-anchor:start;fill:#000000;fill-opacity:1;stroke:none;stroke-width:0.264583"
       x="-15.052815"
       y="184.91676"
       id="text1274"><tspan
         sodipodi:role="line"
         x="-15.052815"
         y="184.91676"
         id="tspan1272"
         style="stroke-width:0.264583"><tspan
           dx="0"
           dy="0"
           style="font-style:normal;font-variant:normal;font-weight:700;font-size:10.4841px;font-family:'微軟正黑體';fill:#000000;stroke-width:0.264583"
           id="tspan1270">1</tspan></tspan></text>
  </g>
</svg>
