<?xml version="1.0" encoding="UTF-8" standalone="no"?>
<!-- Created with Inkscape (http://www.inkscape.org/) -->

<svg
   width="151.57558mm"
   height="172.97577mm"
   viewBox="0 0 151.57557 172.97578"
   version="1.1"
   id="svg5"
   inkscape:version="1.1 (c68e22c387, 2021-05-23)"
   sodipodi:docname="Octagram.svg"
   xmlns:inkscape="http://www.inkscape.org/namespaces/inkscape"
   xmlns:sodipodi="http://sodipodi.sourceforge.net/DTD/sodipodi-0.dtd"
   xmlns="http://www.w3.org/2000/svg"
   xmlns:svg="http://www.w3.org/2000/svg">
  <sodipodi:namedview
     id="namedview7"
     pagecolor="#ffffff"
     bordercolor="#666666"
     borderopacity="1.0"
     inkscape:pageshadow="2"
     inkscape:pageopacity="0.0"
     inkscape:pagecheckerboard="0"
     inkscape:document-units="mm"
     showgrid="false"
     fit-margin-top="0"
     fit-margin-left="0"
     fit-margin-right="0"
     fit-margin-bottom="0"
     inkscape:zoom="0.52382155"
     inkscape:cx="235.76731"
     inkscape:cy="392.30918"
     inkscape:window-width="1288"
     inkscape:window-height="745"
     inkscape:window-x="-8"
     inkscape:window-y="-8"
     inkscape:window-maximized="1"
     inkscape:current-layer="layer1" />
  <defs
     id="defs2">
    <pattern
       id="EMFhbasepattern"
       patternUnits="userSpaceOnUse"
       width="6"
       height="6"
       x="0"
       y="0" />
    <pattern
       id="EMFhbasepattern-0"
       patternUnits="userSpaceOnUse"
       width="6"
       height="6"
       x="0"
       y="0" />
    <pattern
       id="EMFhbasepattern-5"
       patternUnits="userSpaceOnUse"
       width="6"
       height="6"
       x="0"
       y="0" />
  </defs>
  <g
     inkscape:label="圖層 1"
     inkscape:groupmode="layer"
     id="layer1"
     transform="translate(-57.440389,-125.7953)">
    <path
       style="fill:#ff99ff;fill-opacity:1;fill-rule:nonzero;stroke:#ff99ff;stroke-width:0.0272962px;stroke-linecap:butt;stroke-linejoin:round;stroke-miterlimit:4;stroke-dasharray:none;stroke-opacity:1"
       d="m 66.953101,211.02756 114.425489,44.7384 -0.95536,2.42936 -114.425495,-44.7384 z"
       id="path1470" />
    <path
       style="fill:#ff99ff;fill-opacity:1;fill-rule:nonzero;stroke:#ff99ff;stroke-width:0.0272962px;stroke-linecap:butt;stroke-linejoin:round;stroke-miterlimit:4;stroke-dasharray:none;stroke-opacity:1"
       d="m 66.079624,211.32782 113.306346,-49.59712 1.03726,2.40206 -113.279056,49.59712 z"
       id="path1472" />
    <path
       style="fill:#ff99ff;fill-opacity:1;fill-rule:nonzero;stroke:#ff99ff;stroke-width:0.0272962px;stroke-linecap:butt;stroke-linejoin:round;stroke-miterlimit:4;stroke-dasharray:none;stroke-opacity:1"
       d="m 180.17756,164.46032 -44.65651,114.50738 -2.45666,-0.95537 44.65652,-114.50738 z"
       id="path1474" />
    <path
       style="fill:#ff99ff;fill-opacity:1;fill-rule:nonzero;stroke:#ff99ff;stroke-width:0.0272962px;stroke-linecap:butt;stroke-linejoin:round;stroke-miterlimit:4;stroke-dasharray:none;stroke-opacity:1"
       d="m 180.17756,256.99429 -49.37875,-112.54206 2.40206,-1.06455 49.37875,112.54206 z"
       id="path1476" />
    <path
       style="fill:#ff99ff;fill-opacity:1;fill-rule:nonzero;stroke:#ff99ff;stroke-width:0.0272962px;stroke-linecap:butt;stroke-linejoin:round;stroke-miterlimit:4;stroke-dasharray:none;stroke-opacity:1"
       d="M 200.5405,211.05486 87.288737,260.76116 86.251483,258.3591 199.50324,208.65279 Z"
       id="path1478" />
    <path
       style="fill:#ff99ff;fill-opacity:1;fill-rule:nonzero;stroke:#ff99ff;stroke-width:0.0272962px;stroke-linecap:butt;stroke-linejoin:round;stroke-miterlimit:4;stroke-dasharray:none;stroke-opacity:1"
       d="M 199.28487,211.54619 84.067792,166.58942 84.995861,164.16006 200.24024,209.08953 Z"
       id="path1480" />
    <path
       style="fill:#ff99ff;fill-opacity:1;fill-rule:nonzero;stroke:#ff99ff;stroke-width:0.0272962px;stroke-linecap:butt;stroke-linejoin:round;stroke-miterlimit:4;stroke-dasharray:none;stroke-opacity:1"
       d="m 85.323415,164.84246 49.269565,112.59665 -2.40206,1.03726 -49.269567,-112.56936 z"
       id="path1482" />
    <path
       style="fill:#ff99ff;fill-opacity:1;fill-rule:nonzero;stroke:#ff99ff;stroke-width:0.0272962px;stroke-linecap:butt;stroke-linejoin:round;stroke-miterlimit:4;stroke-dasharray:none;stroke-opacity:1"
       d="m 85.432601,258.95961 45.065959,-115.24437 2.42935,0.95536 -45.065953,115.24438 z"
       id="path1484" />
    <path
       style="fill:#ff99ff;fill-opacity:1;fill-rule:nonzero;stroke:#ff99ff;stroke-width:0.0272962px;stroke-linecap:butt;stroke-linejoin:round;stroke-miterlimit:4;stroke-dasharray:none;stroke-opacity:1"
       d="m 66.188808,209.93571 0.08189,-3.4939 0.300258,-3.41202 0.409442,-3.35743 0.573219,-3.33013 1.665066,-6.46919 2.265581,-6.16893 2.8388,-5.89597 3.357429,-5.56842 3.90335,-5.21356 4.340087,-4.80413 4.77683,-4.34009 5.213564,-3.90335 5.568416,-3.38472 5.89597,-2.8388 6.16893,-2.29288 6.46919,-1.66507 3.35743,-0.60051 3.38472,-0.40944 3.41202,-0.27296 3.46661,-0.10919 3.49391,0.0819 3.41202,0.30026 3.35743,0.40944 3.35743,0.57322 6.41459,1.66506 6.22353,2.26559 5.89597,2.8388 5.54112,3.35742 5.21356,3.90335 4.80413,4.34009 4.36738,4.77683 3.87606,5.21357 3.38472,5.56841 2.8388,5.89597 2.26558,6.16893 1.69237,6.46919 0.60051,3.35743 0.40944,3.38472 0.27297,3.41202 0.0819,3.46662 -0.0819,3.4939 -0.27297,3.41202 -0.40944,3.35743 -0.57322,3.35743 -1.66506,6.4146 -2.23829,6.22352 -2.8661,5.89597 -3.38472,5.54112 -3.84876,5.21356 -4.36738,4.80413 -4.77683,4.36738 -5.21357,3.87606 -5.56842,3.38472 -5.86867,2.8388 -6.19622,2.29288 -6.49649,1.66507 -3.33013,0.60051 -3.38473,0.40944 -3.43931,0.27296 -3.43932,0.0819 -3.49391,-0.0819 -3.41202,-0.27296 -3.35742,-0.40944 -3.33013,-0.57322 -6.46919,-1.66506 -6.16894,-2.23829 -5.92326,-2.86609 -5.54112,-3.35743 -5.213567,-3.87606 -4.804124,-4.36738 -4.340088,-4.77683 -3.90335,-5.21357 -3.384724,-5.56841 -2.838801,-5.86867 -2.292877,-6.19623 -1.665065,-6.49649 -0.600516,-3.33013 -0.409442,-3.38472 -0.272962,-3.43932 z m 2.70232,3.24825 0.272962,3.33013 0.409442,3.22094 0.545923,3.13906 1.610473,6.25082 2.183693,5.97786 2.729616,5.65031 3.220945,5.35004 3.739574,4.9952 4.176313,4.61305 4.585755,4.20361 4.995196,3.71228 5.35005,3.24824 5.6776,2.75691 5.92326,2.18369 6.27812,1.61048 3.16635,0.57322 3.24825,0.40944 3.30283,0.24566 3.33013,0.0819 3.33013,-0.0546 3.33014,-0.27296 3.22094,-0.40944 3.13906,-0.54593 6.25082,-1.61047 5.97786,-2.18369 5.6503,-2.72962 5.35005,-3.22095 4.9952,-3.71227 4.61305,-4.20361 4.20361,-4.58575 3.71227,-4.9952 3.24825,-5.35005 2.75691,-5.6503 2.18369,-5.97786 1.61048,-6.22353 0.57322,-3.19365 0.40944,-3.24824 0.24566,-3.30283 0.0819,-3.33014 -0.0546,-3.35742 -0.27296,-3.30284 -0.40944,-3.22094 -0.54593,-3.16636 -1.61047,-6.22352 -2.1837,-5.95057 -2.72961,-5.6776 -3.22095,-5.35004 -3.71228,-4.9952 -4.2036,-4.61305 -4.58576,-4.17631 -4.99519,-3.76687 -5.32275,-3.22095 -5.67761,-2.72961 -5.97785,-2.21099 -6.22353,-1.61048 -3.19365,-0.57322 -3.24824,-0.40944 -3.30284,-0.27296 -3.33013,-0.0819 -3.35742,0.0819 -3.30284,0.27296 -3.22095,0.40944 -3.16635,0.54593 -6.22353,1.58317 -5.95056,2.21099 -5.6776,2.72962 -5.350044,3.22095 -4.995199,3.73957 -4.61305,4.17631 -4.176313,4.58576 -3.739573,4.99519 -3.248242,5.35005 -2.756912,5.6776 -2.183693,5.92327 -1.610473,6.27811 -0.573219,3.16636 -0.409442,3.24824 -0.272962,3.30284 -0.08189,3.33013 z"
       id="path1486" />
    <path
       style="fill:#ffffff;fill-opacity:1;fill-rule:evenodd;stroke:none;stroke-width:0.264583"
       d="m 124.93014,129.24827 c 0,-1.52858 1.25562,-2.78421 2.78421,-2.78421 0,0 0,0 0,0 v 0 h 11.05494 v 0 c 1.52859,0 2.75691,1.25563 2.75691,2.78421 0,0 0,0 0,0 v 0 29.8347 0 c 0,1.52859 -1.22832,2.75692 -2.75691,2.75692 0,0 0,0 0,0 v 0 h -11.05494 v 0 c -1.52859,0 -2.78421,-1.22833 -2.78421,-2.75692 0,0 0,0 0,0 z"
       id="path1488" />
    <path
       style="fill:#321900;fill-opacity:1;fill-rule:nonzero;stroke:#321900;stroke-width:0.0272962px;stroke-linecap:butt;stroke-linejoin:round;stroke-miterlimit:4;stroke-dasharray:none;stroke-opacity:1"
       d="m 124.27503,129.24827 c 0,-0.0273 0.0273,-0.0819 0.0273,-0.10918 l 0.21837,-1.09185 c 0.0273,-0.0819 0.0546,-0.16377 0.10919,-0.24566 l 0.60051,-0.87348 c 0.0273,-0.0819 0.0819,-0.13648 0.16378,-0.16378 l 0.87348,-0.60051 c 0.0819,-0.0546 0.16377,-0.0819 0.24566,-0.10919 l 1.09185,-0.21837 c 0.0273,0 0.0819,-0.0273 0.10918,-0.0273 h 11.05495 c 0.0546,0 0.10918,0.0273 0.13648,0.0273 l 1.06455,0.21837 c 0.0819,0.0273 0.16377,0.0546 0.24566,0.0819 l 0.90078,0.60052 c 0.0546,0.0546 0.13648,0.13648 0.19107,0.19107 l 0.57322,0.87348 c 0.0273,0.0819 0.0546,0.16377 0.0819,0.24566 l 0.21837,1.09185 c 0,0.0273 0,0.0819 0,0.10918 v 29.8347 c 0,0.0546 0,0.10919 0,0.13648 l -0.21837,1.06455 c -0.0273,0.0819 -0.0546,0.16378 -0.0819,0.21837 l -0.57322,0.90078 c -0.0546,0.0819 -0.13648,0.16377 -0.21837,0.21836 l -0.90077,0.57322 c -0.0546,0.0273 -0.13648,0.0546 -0.21837,0.0819 l -1.06455,0.21837 c -0.0273,0 -0.0819,0 -0.13648,0 h -11.05494 c -0.0273,0 -0.0819,0 -0.10919,0 l -1.09184,-0.21837 c -0.0819,-0.0273 -0.16378,-0.0546 -0.24567,-0.0819 l -0.87348,-0.57322 c -0.0546,-0.0546 -0.13648,-0.13648 -0.19107,-0.19107 l -0.60051,-0.90077 c -0.0273,-0.0819 -0.0546,-0.16378 -0.0819,-0.24567 l -0.21838,-1.06455 c 0,-0.0273 -0.0273,-0.0819 -0.0273,-0.13648 z m 1.31022,29.8347 v -0.10918 l 0.21837,1.06455 -0.10919,-0.24567 0.60052,0.90078 -0.16378,-0.19108 0.87348,0.57322 -0.24567,-0.0819 1.09185,0.21837 -0.13648,-0.0273 h 11.05494 l -0.10918,0.0273 1.06455,-0.21837 -0.21837,0.0819 0.90077,-0.57322 -0.21837,0.21837 0.57322,-0.90077 -0.0819,0.21837 0.21837,-1.06455 -0.0273,0.10918 v -29.8347 l 0.0273,0.13648 -0.21837,-1.09184 0.0819,0.24566 -0.57322,-0.87347 0.19107,0.16377 -0.90077,-0.60051 0.24567,0.10918 -1.06455,-0.21837 h 0.10918 -11.05494 0.13648 l -1.09185,0.21837 0.24567,-0.10918 -0.87348,0.60051 0.16378,-0.16377 -0.60052,0.87347 0.10919,-0.24566 -0.21837,1.09184 v -0.13648 z"
       id="path1490" />
    <text
       xml:space="preserve"
       style="font-style:normal;font-variant:normal;font-weight:700;font-size:10.4841px;line-height:125%;font-family:'微軟正黑體';text-align:start;letter-spacing:0px;word-spacing:0px;text-anchor:start;fill:#000000;fill-opacity:1;stroke:none;stroke-width:0.264583"
       x="126.67741"
       y="136.03265"
       id="text1496"><tspan
         sodipodi:role="line"
         x="126.67741"
         y="136.03265"
         id="tspan1494"
         style="stroke-width:0.264583"><tspan
           dx="0"
           dy="0"
           style="font-style:normal;font-variant:normal;font-weight:700;font-size:10.4841px;font-family:'微軟正黑體';fill:#000000;stroke-width:0.264583"
           id="tspan1492">6</tspan></tspan></text>
    <path
       style="fill:#ffffff;fill-opacity:1;fill-rule:evenodd;stroke:none;stroke-width:0.264583"
       d="m 80.382811,242.85488 c 0,-1.55588 1.282919,-2.8388 2.838799,-2.8388 0,0 0,0 0,0 v 0 h 11.355202 v 0 c 1.583177,0 2.8388,1.28292 2.8388,2.8388 0,0 0,0 0,0 v 0 29.69822 0 c 0,1.58318 -1.255623,2.8388 -2.8388,2.8388 0,0 0,0 0,0 v 0 H 83.22161 v 0 c -1.55588,0 -2.838799,-1.25562 -2.838799,-2.8388 0,0 0,0 0,0 z"
       id="path1498" />
    <path
       style="fill:#321900;fill-opacity:1;fill-rule:nonzero;stroke:#321900;stroke-width:0.0272962px;stroke-linecap:butt;stroke-linejoin:round;stroke-miterlimit:4;stroke-dasharray:none;stroke-opacity:1"
       d="m 79.727702,242.85488 c 0,-0.0273 0.0273,-0.0819 0.0273,-0.10918 l 0.218369,-1.09185 c 0.0273,-0.0819 0.05459,-0.19107 0.109186,-0.24566 l 0.627811,-0.90078 c 0.02729,-0.0819 0.08189,-0.13648 0.163777,-0.16378 l 0.900771,-0.62781 c 0.05459,-0.0546 0.163777,-0.0819 0.245666,-0.10918 l 1.091848,-0.21837 c 0.02729,0 0.08189,-0.0273 0.109183,-0.0273 h 11.355202 c 0.05459,0 0.109186,0.0273 0.13648,0.0273 l 1.119143,0.21837 c 0.08189,0.0273 0.163777,0.0546 0.245665,0.10918 l 0.900774,0.62781 c 0.08189,0.0273 0.13648,0.10919 0.163777,0.16378 l 0.600515,0.90078 c 0.05459,0.0819 0.08189,0.16377 0.109185,0.24566 l 0.218369,1.09185 c 0,0.0273 0,0.0819 0,0.10918 v 29.69822 c 0,0.0546 0,0.10918 0,0.13648 l -0.218369,1.11914 c -0.0273,0.0819 -0.05459,0.16378 -0.109185,0.24567 l -0.600518,0.90077 c -0.0273,0.0546 -0.109185,0.13648 -0.163777,0.16378 l -0.900774,0.60051 c -0.08189,0.0546 -0.163777,0.0819 -0.245665,0.10919 l -1.119143,0.21837 c -0.02729,0 -0.08189,0 -0.13648,0 H 83.22161 c -0.02729,0 -0.08189,0 -0.109183,0 l -1.091848,-0.21837 c -0.08189,-0.0273 -0.163777,-0.0546 -0.245666,-0.10919 l -0.900771,-0.60051 c -0.05459,-0.0273 -0.136483,-0.0819 -0.163777,-0.16378 l -0.627811,-0.90077 c -0.05459,-0.0819 -0.08189,-0.16378 -0.109186,-0.24567 l -0.218369,-1.11914 c 0,-0.0273 -0.0273,-0.0819 -0.0273,-0.13648 z m 1.310217,29.69822 v -0.10918 l 0.218369,1.11914 -0.109186,-0.24567 0.627811,0.90077 -0.163777,-0.19107 0.900774,0.60052 -0.245665,-0.0819 1.091848,0.21837 -0.136483,-0.0273 h 11.355202 l -0.109185,0.0273 1.119142,-0.21837 -0.245665,0.0819 0.900774,-0.60052 -0.191075,0.19107 0.600517,-0.90077 -0.08189,0.24567 0.218368,-1.11914 -0.02729,0.10918 v -29.69822 l 0.02729,0.13648 -0.218368,-1.09185 0.08189,0.24567 -0.600517,-0.90077 0.191075,0.16378 -0.900774,-0.62782 0.245665,0.10919 -1.119142,-0.21837 h 0.109185 -11.355202 0.136483 l -1.091848,0.21837 0.245665,-0.10919 -0.900774,0.62782 0.163777,-0.16378 -0.627811,0.90077 0.109186,-0.24567 -0.218369,1.09185 v -0.13648 z"
       id="path1500" />
    <text
       xml:space="preserve"
       style="font-style:normal;font-variant:normal;font-weight:700;font-size:10.4841px;line-height:125%;font-family:'微軟正黑體';text-align:start;letter-spacing:0px;word-spacing:0px;text-anchor:start;fill:#000000;fill-opacity:1;stroke:none;stroke-width:0.264583"
       x="82.240822"
       y="249.51122"
       id="text1506"><tspan
         sodipodi:role="line"
         x="82.240822"
         y="249.51122"
         id="tspan1504"
         style="stroke-width:0.264583"><tspan
           dx="0"
           dy="0"
           style="font-style:normal;font-variant:normal;font-weight:700;font-size:10.4841px;font-family:'微軟正黑體';fill:#000000;stroke-width:0.264583"
           id="tspan1502">5</tspan></tspan></text>
    <path
       style="fill:#ffffff;fill-opacity:1;fill-rule:evenodd;stroke:none;stroke-width:0.264583"
       d="m 77.32564,148.08262 c 0,-1.55588 1.28292,-2.8388 2.838802,-2.8388 0,0 0,0 0,0 v 0 h 11.3552 v 0 c 1.583176,0 2.838802,1.28292 2.838802,2.8388 0,0 0,0 0,0 v 0 29.69822 0 c 0,1.58318 -1.255626,2.8388 -2.838802,2.8388 0,0 0,0 0,0 v 0 h -11.3552 v 0 c -1.555882,0 -2.838802,-1.25562 -2.838802,-2.8388 0,0 0,0 0,0 z"
       id="path1508" />
    <path
       style="fill:#321900;fill-opacity:1;fill-rule:nonzero;stroke:#321900;stroke-width:0.0272962px;stroke-linecap:butt;stroke-linejoin:round;stroke-miterlimit:4;stroke-dasharray:none;stroke-opacity:1"
       d="m 76.670533,148.08262 c 0,-0.0273 0.0273,-0.0819 0.0273,-0.10918 l 0.218369,-1.09185 c 0.0273,-0.0819 0.05459,-0.19107 0.109185,-0.24567 l 0.627811,-0.90077 c 0.0273,-0.0819 0.08189,-0.13648 0.163778,-0.16377 l 0.900773,-0.62782 c 0.05459,-0.0546 0.163778,-0.0819 0.245666,-0.10918 l 1.091846,-0.21837 c 0.0273,0 0.08189,-0.0273 0.109185,-0.0273 h 11.3552 c 0.05459,0 0.109185,0.0273 0.136482,0.0273 l 1.119143,0.21837 c 0.08189,0.0273 0.163774,0.0546 0.245663,0.10918 l 0.900774,0.62782 c 0.08189,0.0273 0.13648,0.10918 0.163777,0.16377 l 0.600517,0.90077 c 0.05459,0.0819 0.08189,0.16378 0.109183,0.24567 l 0.218368,1.09185 c 0,0.0273 0,0.0819 0,0.10918 v 29.69822 c 0,0.0546 0,0.10919 0,0.13648 l -0.218368,1.11914 c -0.0273,0.0819 -0.05459,0.16378 -0.109183,0.24567 l -0.600517,0.90077 c -0.0273,0.0546 -0.109186,0.13648 -0.163777,0.16378 l -0.900774,0.60051 c -0.08189,0.0546 -0.163774,0.0819 -0.245663,0.10919 l -1.119143,0.21837 c -0.0273,0 -0.08189,0 -0.136482,0 H 80.164442 c -0.0273,0 -0.08189,0 -0.109185,0 l -1.091846,-0.21837 c -0.08189,-0.0273 -0.163777,-0.0546 -0.245666,-0.10919 l -0.900773,-0.60051 c -0.05459,-0.0273 -0.13648,-0.0819 -0.163778,-0.16378 l -0.627811,-0.90077 c -0.05459,-0.0819 -0.08189,-0.16378 -0.109185,-0.24567 l -0.218369,-1.11914 c 0,-0.0273 -0.0273,-0.0819 -0.0273,-0.13648 z m 1.310216,29.69822 v -0.10918 l 0.218368,1.11914 -0.109183,-0.24567 0.627811,0.90078 -0.163777,-0.19108 0.900772,0.60052 -0.245663,-0.0819 1.091845,0.21837 -0.13648,-0.0273 h 11.3552 l -0.109183,0.0273 1.119142,-0.21837 -0.245665,0.0819 0.900771,-0.60052 -0.191071,0.19108 0.600514,-0.90078 -0.08189,0.24567 0.218371,-1.11914 -0.0273,0.10918 v -29.69822 l 0.0273,0.13648 -0.218371,-1.09184 0.08189,0.24566 -0.600514,-0.90077 0.191071,0.16377 -0.900771,-0.62781 0.245665,0.10919 -1.119142,-0.21837 h 0.109183 -11.3552 0.13648 l -1.091845,0.21837 0.245663,-0.10919 -0.900772,0.62781 0.163777,-0.16377 -0.627811,0.90077 0.109183,-0.24566 -0.218368,1.09184 v -0.13648 z"
       id="path1510" />
    <text
       xml:space="preserve"
       style="font-style:normal;font-variant:normal;font-weight:700;font-size:10.4841px;line-height:125%;font-family:'微軟正黑體';text-align:start;letter-spacing:0px;word-spacing:0px;text-anchor:start;fill:#000000;fill-opacity:1;stroke:none;stroke-width:0.264583"
       x="79.149353"
       y="154.88335"
       id="text1516"><tspan
         sodipodi:role="line"
         x="79.149353"
         y="154.88335"
         id="tspan1514"
         style="stroke-width:0.264583"><tspan
           dx="0"
           dy="0"
           style="font-style:normal;font-variant:normal;font-weight:700;font-size:10.4841px;font-family:'微軟正黑體';fill:#000000;stroke-width:0.264583"
           id="tspan1512">3</tspan></tspan></text>
    <path
       style="fill:#ffffff;fill-opacity:1;fill-rule:evenodd;stroke:none;stroke-width:0.264583"
       d="m 191.75113,196.06927 c 0,-1.52859 1.25562,-2.78421 2.78421,-2.78421 0,0 0,0 0,0 v 0 h 11.05495 v 0 c 1.52858,0 2.75691,1.25562 2.75691,2.78421 0,0 0,0 0,0 v 0 29.8347 0 c 0,1.52858 -1.22833,2.75691 -2.75691,2.75691 0,0 0,0 0,0 v 0 h -11.05495 v 0 c -1.52859,0 -2.78421,-1.22833 -2.78421,-2.75691 0,0 0,0 0,0 z"
       id="path1518" />
    <path
       style="fill:#321900;fill-opacity:1;fill-rule:nonzero;stroke:#321900;stroke-width:0.0272962px;stroke-linecap:butt;stroke-linejoin:round;stroke-miterlimit:4;stroke-dasharray:none;stroke-opacity:1"
       d="m 191.09602,196.06927 c 0,-0.0273 0.0273,-0.0819 0.0273,-0.10919 l 0.21837,-1.09184 c 0.0273,-0.0819 0.0546,-0.16378 0.10919,-0.24567 l 0.60051,-0.87348 c 0.0273,-0.0819 0.0819,-0.13648 0.16378,-0.16377 l 0.87348,-0.60052 c 0.0819,-0.0546 0.16377,-0.0819 0.24566,-0.10918 l 1.09185,-0.21837 c 0.0273,0 0.0819,-0.0273 0.10918,-0.0273 h 11.05495 c 0.0546,0 0.10918,0.0273 0.13648,0.0273 l 1.06455,0.21837 c 0.0819,0.0273 0.16378,0.0546 0.24566,0.0819 l 0.90078,0.60051 c 0.0546,0.0546 0.13648,0.13648 0.19107,0.19107 l 0.57322,0.87348 c 0.0273,0.0819 0.0546,0.16378 0.0819,0.24567 l 0.21837,1.09184 c 0,0.0273 0,0.0819 0,0.10919 v 29.8347 c 0,0.0546 0,0.10918 0,0.13648 l -0.21837,1.06455 c -0.0273,0.0819 -0.0546,0.16378 -0.0819,0.21837 l -0.57322,0.90077 c -0.0546,0.0819 -0.13648,0.16378 -0.21837,0.21837 l -0.90077,0.57322 c -0.0546,0.0273 -0.13648,0.0546 -0.21837,0.0819 l -1.06455,0.21837 c -0.0273,0 -0.0819,0 -0.13648,0 h -11.05495 c -0.0273,0 -0.0819,0 -0.10918,0 l -1.09185,-0.21837 c -0.0819,-0.0273 -0.16378,-0.0546 -0.24567,-0.0819 l -0.87347,-0.57322 c -0.0546,-0.0546 -0.13648,-0.13648 -0.19108,-0.19108 l -0.60051,-0.90078 c -0.0273,-0.0819 -0.0546,-0.16377 -0.0819,-0.24566 l -0.21837,-1.06455 c 0,-0.0273 -0.0273,-0.0819 -0.0273,-0.13648 z m 1.31022,29.8347 v -0.10919 l 0.21837,1.06455 -0.10918,-0.24566 0.60051,0.90077 -0.16378,-0.19107 0.87348,0.57322 -0.24567,-0.0819 1.09185,0.21837 -0.13648,-0.0273 h 11.05495 l -0.10919,0.0273 1.06455,-0.21837 -0.21837,0.0819 0.90078,-0.57322 -0.21837,0.21837 0.57322,-0.90078 -0.0819,0.21837 0.21837,-1.06455 -0.0273,0.10919 v -29.8347 l 0.0273,0.13648 -0.21837,-1.09185 0.0819,0.24567 -0.57322,-0.87348 0.19107,0.16377 -0.90077,-0.60051 0.24566,0.10919 -1.06455,-0.21837 h 0.10919 -11.05495 0.13648 l -1.09185,0.21837 0.24567,-0.10919 -0.87348,0.60051 0.16378,-0.16377 -0.60051,0.87348 0.10918,-0.24567 -0.21837,1.09185 v -0.13648 z"
       id="path1520" />
    <text
       xml:space="preserve"
       style="font-style:normal;font-variant:normal;font-weight:700;font-size:10.4841px;line-height:125%;font-family:'微軟正黑體';text-align:start;letter-spacing:0px;word-spacing:0px;text-anchor:start;fill:#000000;fill-opacity:1;stroke:none;stroke-width:0.264583"
       x="193.32381"
       y="202.679"
       id="text1526"><tspan
         sodipodi:role="line"
         x="193.32381"
         y="202.679"
         id="tspan1524"
         style="stroke-width:0.264583"><tspan
           dx="0"
           dy="0"
           style="font-style:normal;font-variant:normal;font-weight:700;font-size:10.4841px;font-family:'微軟正黑體';fill:#000000;stroke-width:0.264583"
           id="tspan1522">4</tspan></tspan></text>
    <path
       style="fill:#ffffff;fill-opacity:1;fill-rule:evenodd;stroke:none;stroke-width:0.264583"
       d="m 170.78768,146.71781 c 0,-1.52858 1.25563,-2.7842 2.78421,-2.7842 0,0 0,0 0,0 v 0 h 11.05494 v 0 c 1.52859,0 2.75692,1.25562 2.75692,2.7842 0,0 0,0 0,0 v 0 29.8347 0 c 0,1.52859 -1.22833,2.75692 -2.75692,2.75692 0,0 0,0 0,0 v 0 h -11.05494 v 0 c -1.52858,0 -2.78421,-1.22833 -2.78421,-2.75692 0,0 0,0 0,0 z"
       id="path1528" />
    <path
       style="fill:#321900;fill-opacity:1;fill-rule:nonzero;stroke:#321900;stroke-width:0.0272962px;stroke-linecap:butt;stroke-linejoin:round;stroke-miterlimit:4;stroke-dasharray:none;stroke-opacity:1"
       d="m 170.13258,146.71781 c 0,-0.0273 0.0273,-0.0819 0.0273,-0.10918 l 0.21836,-1.09185 c 0.0273,-0.0819 0.0546,-0.16377 0.10919,-0.24566 l 0.60051,-0.87348 c 0.0273,-0.0819 0.0819,-0.13648 0.16378,-0.16378 l 0.87348,-0.60051 c 0.0819,-0.0546 0.16377,-0.0819 0.24566,-0.10919 l 1.09185,-0.21837 c 0.0273,0 0.0819,-0.0273 0.10918,-0.0273 h 11.05495 c 0.0546,0 0.10918,0.0273 0.13648,0.0273 l 1.06455,0.21837 c 0.0819,0.0273 0.16377,0.0546 0.24566,0.0819 l 0.90078,0.60052 c 0.0546,0.0546 0.13648,0.13648 0.19107,0.19107 l 0.57322,0.87348 c 0.0273,0.0819 0.0546,0.16377 0.0819,0.24566 l 0.21837,1.09185 c 0,0.0273 0,0.0819 0,0.10918 v 29.8347 c 0,0.0546 0,0.10919 0,0.13649 l -0.21837,1.06454 c -0.0273,0.0819 -0.0546,0.16378 -0.0819,0.21837 l -0.57322,0.90078 c -0.0546,0.0819 -0.13648,0.16377 -0.21837,0.21837 l -0.90077,0.57321 c -0.0546,0.0273 -0.13648,0.0546 -0.21837,0.0819 l -1.06455,0.21837 c -0.0273,0 -0.0819,0 -0.13648,0 h -11.05495 c -0.0273,0 -0.0819,0 -0.10918,0 l -1.09185,-0.21839 c -0.0819,-0.0273 -0.16378,-0.0546 -0.24567,-0.0819 l -0.87347,-0.5732 c -0.0546,-0.0546 -0.13648,-0.13648 -0.19108,-0.19108 l -0.60051,-0.90077 c -0.0273,-0.0819 -0.0546,-0.16378 -0.0819,-0.24567 l -0.21837,-1.06454 c 0,-0.0273 -0.0273,-0.0819 -0.0273,-0.13649 z m 1.31021,29.8347 v -0.10918 l 0.21837,1.06455 -0.10919,-0.24567 0.60052,0.90078 -0.16378,-0.19108 0.87348,0.57322 -0.24566,-0.0819 1.09184,0.21838 -0.13648,-0.0273 h 11.05494 l -0.10918,0.0273 1.06455,-0.21838 -0.21837,0.0819 0.90077,-0.57322 -0.21836,0.21837 0.57322,-0.90077 -0.0819,0.21837 0.21836,-1.06455 -0.0273,0.10918 v -29.8347 l 0.0273,0.13648 -0.21836,-1.09184 0.0819,0.24566 -0.57322,-0.87347 0.19107,0.16377 -0.90077,-0.60051 0.24566,0.10918 -1.06455,-0.21837 h 0.10918 -11.05494 0.13648 l -1.09184,0.21837 0.24566,-0.10918 -0.87348,0.60051 0.16378,-0.16377 -0.60052,0.87347 0.10919,-0.24566 -0.21837,1.09184 v -0.13648 z"
       id="path1530" />
    <text
       xml:space="preserve"
       style="font-style:normal;font-variant:normal;font-weight:700;font-size:10.4841px;line-height:125%;font-family:'微軟正黑體';text-align:start;letter-spacing:0px;word-spacing:0px;text-anchor:start;fill:#000000;fill-opacity:1;stroke:none;stroke-width:0.264583"
       x="172.43394"
       y="153.70229"
       id="text1536"><tspan
         sodipodi:role="line"
         x="172.43394"
         y="153.70229"
         id="tspan1534"
         style="stroke-width:0.264583"><tspan
           dx="0"
           dy="0"
           style="font-style:normal;font-variant:normal;font-weight:700;font-size:10.4841px;font-family:'微軟正黑體';fill:#000000;stroke-width:0.264583"
           id="tspan1532">1</tspan></tspan></text>
    <path
       style="fill:#ffffff;fill-opacity:1;fill-rule:evenodd;stroke:none;stroke-width:0.264583"
       d="m 124.4934,265.51069 c 0,-1.52858 1.25562,-2.78421 2.78421,-2.78421 0,0 0,0 0,0 v 0 h 11.05494 v 0 c 1.52859,0 2.75691,1.25563 2.75691,2.78421 0,0 0,0 0,0 v 0 29.8347 0 c 0,1.52858 -1.22832,2.75691 -2.75691,2.75691 0,0 0,0 0,0 v 0 h -11.05494 v 0 c -1.52859,0 -2.78421,-1.22833 -2.78421,-2.75691 0,0 0,0 0,0 z"
       id="path1538" />
    <path
       style="fill:#321900;fill-opacity:1;fill-rule:nonzero;stroke:#321900;stroke-width:0.0272962px;stroke-linecap:butt;stroke-linejoin:round;stroke-miterlimit:4;stroke-dasharray:none;stroke-opacity:1"
       d="m 123.83829,265.51069 c 0,-0.0273 0.0273,-0.0819 0.0273,-0.10918 l 0.21837,-1.09185 c 0.0273,-0.0819 0.0546,-0.16378 0.10919,-0.24566 l 0.60051,-0.87348 c 0.0273,-0.0819 0.0819,-0.13648 0.16378,-0.16378 l 0.87347,-0.60052 c 0.0819,-0.0546 0.16378,-0.0819 0.24567,-0.10918 l 1.09185,-0.21837 c 0.0273,0 0.0819,-0.0273 0.10918,-0.0273 h 11.05495 c 0.0546,0 0.10918,0.0273 0.13648,0.0273 l 1.06455,0.21837 c 0.0819,0.0273 0.16377,0.0546 0.24566,0.0819 l 0.90077,0.60051 c 0.0546,0.0546 0.13648,0.13648 0.19108,0.19108 l 0.57322,0.87348 c 0.0273,0.0819 0.0546,0.16377 0.0819,0.24566 l 0.21837,1.09185 c 0,0.0273 0,0.0819 0,0.10918 v 29.8347 c 0,0.0546 0,0.10918 0,0.13648 l -0.21837,1.06455 c -0.0273,0.0819 -0.0546,0.16378 -0.0819,0.21837 l -0.57322,0.90078 c -0.0546,0.0819 -0.13648,0.16377 -0.21837,0.21836 l -0.90077,0.57322 c -0.0546,0.0273 -0.13648,0.0546 -0.21837,0.0819 l -1.06455,0.21837 c -0.0273,0 -0.0819,0 -0.13648,0 h -11.05495 c -0.0273,0 -0.0819,0 -0.10919,0 l -1.09184,-0.21837 c -0.0819,-0.0273 -0.16378,-0.0546 -0.24567,-0.0819 l -0.87348,-0.57322 c -0.0546,-0.0546 -0.13648,-0.13648 -0.19107,-0.19107 l -0.60051,-0.90077 c -0.0273,-0.0819 -0.0546,-0.16378 -0.0819,-0.24567 l -0.21837,-1.06455 c 0,-0.0273 -0.0273,-0.0819 -0.0273,-0.13648 z m 1.31022,29.8347 v -0.10918 l 0.21837,1.06455 -0.10919,-0.24567 0.60052,0.90077 -0.16378,-0.19107 0.87348,0.57322 -0.24567,-0.0819 1.09185,0.21837 -0.13648,-0.0273 h 11.05494 l -0.10918,0.0273 1.06455,-0.21837 -0.21837,0.0819 0.90077,-0.57322 -0.21837,0.21837 0.57322,-0.90077 -0.0819,0.21837 0.21837,-1.06455 -0.0273,0.10918 v -29.8347 l 0.0273,0.13648 -0.21837,-1.09185 0.0819,0.24567 -0.57322,-0.87348 0.19107,0.16378 -0.90077,-0.60051 0.24567,0.10918 -1.06455,-0.21837 h 0.10918 -11.05494 0.13648 l -1.09185,0.21837 0.24567,-0.10918 -0.87348,0.60051 0.16378,-0.16378 -0.60052,0.87348 0.10919,-0.24567 -0.21837,1.09185 v -0.13648 z"
       id="path1540" />
    <text
       xml:space="preserve"
       style="font-style:normal;font-variant:normal;font-weight:700;font-size:10.4841px;line-height:125%;font-family:'微軟正黑體';text-align:start;letter-spacing:0px;word-spacing:0px;text-anchor:start;fill:#000000;fill-opacity:1;stroke:none;stroke-width:0.264583"
       x="126.08689"
       y="272.27795"
       id="text1546"><tspan
         sodipodi:role="line"
         x="126.08689"
         y="272.27795"
         id="tspan1544"
         style="stroke-width:0.264583"><tspan
           dx="0"
           dy="0"
           style="font-style:normal;font-variant:normal;font-weight:700;font-size:10.4841px;font-family:'微軟正黑體';fill:#000000;stroke-width:0.264583"
           id="tspan1542">2</tspan></tspan></text>
    <path
       style="fill:#ffffff;fill-opacity:1;fill-rule:evenodd;stroke:none;stroke-width:0.264583"
       d="m 172.53464,243.29162 c 0,-1.55588 1.28292,-2.8388 2.8388,-2.8388 0,0 0,0 0,0 v 0 h 11.3552 v 0 c 1.58318,0 2.8388,1.28292 2.8388,2.8388 0,0 0,0 0,0 v 0 29.69822 0 c 0,1.58318 -1.25562,2.8388 -2.8388,2.8388 0,0 0,0 0,0 v 0 h -11.3552 v 0 c -1.55588,0 -2.8388,-1.25562 -2.8388,-2.8388 0,0 0,0 0,0 z"
       id="path1548" />
    <path
       style="fill:#321900;fill-opacity:1;fill-rule:nonzero;stroke:#321900;stroke-width:0.0272962px;stroke-linecap:butt;stroke-linejoin:round;stroke-miterlimit:4;stroke-dasharray:none;stroke-opacity:1"
       d="m 171.87953,243.29162 c 0,-0.0273 0.0273,-0.0819 0.0273,-0.10919 l 0.21837,-1.09184 c 0.0273,-0.0819 0.0546,-0.19108 0.10918,-0.24567 l 0.62781,-0.90077 c 0.0273,-0.0819 0.0819,-0.13648 0.16378,-0.16378 l 0.90077,-0.62781 c 0.0546,-0.0546 0.16378,-0.0819 0.24567,-0.10918 l 1.09185,-0.21837 c 0.0273,0 0.0819,-0.0273 0.10918,-0.0273 h 11.3552 c 0.0546,0 0.10919,0.0273 0.13648,0.0273 l 1.11914,0.21837 c 0.0819,0.0273 0.16378,0.0546 0.24567,0.10918 l 0.90077,0.62781 c 0.0819,0.0273 0.13648,0.10919 0.16378,0.16378 l 0.60051,0.90077 c 0.0546,0.0819 0.0819,0.16378 0.10919,0.24567 l 0.21837,1.09184 c 0,0.0273 0,0.0819 0,0.10919 v 29.69822 c 0,0.0546 0,0.10918 0,0.13648 l -0.21837,1.11914 c -0.0273,0.0819 -0.0546,0.16378 -0.10919,0.24567 l -0.60051,0.90077 c -0.0273,0.0546 -0.10919,0.13648 -0.16378,0.16378 l -0.90077,0.60051 c -0.0819,0.0546 -0.16378,0.0819 -0.24567,0.10919 l -1.11914,0.21837 c -0.0273,0 -0.0819,0 -0.13648,0 h -11.3552 c -0.0273,0 -0.0819,0 -0.10919,0 l -1.09184,-0.21837 c -0.0819,-0.0273 -0.16378,-0.0546 -0.24567,-0.10919 l -0.90077,-0.60051 c -0.0546,-0.0273 -0.13648,-0.0819 -0.16378,-0.16378 l -0.62781,-0.90077 c -0.0546,-0.0819 -0.0819,-0.16378 -0.10919,-0.24567 l -0.21836,-1.11914 c 0,-0.0273 -0.0273,-0.0819 -0.0273,-0.13648 z m 1.31022,29.69822 v -0.10919 l 0.21836,1.11915 -0.10918,-0.24567 0.62781,0.90077 -0.16377,-0.19107 0.90077,0.60052 -0.24567,-0.0819 1.09185,0.21837 -0.13648,-0.0273 h 11.3552 l -0.10918,0.0273 1.11914,-0.21837 -0.24567,0.0819 0.90077,-0.60052 -0.19107,0.19107 0.60052,-0.90077 -0.0819,0.24567 0.21836,-1.11915 -0.0273,0.10919 v -29.69822 l 0.0273,0.13648 -0.21836,-1.09185 0.0819,0.24567 -0.60052,-0.90077 0.19107,0.16377 -0.90077,-0.62781 0.24567,0.10919 -1.11914,-0.21837 h 0.10918 -11.3552 0.13648 l -1.09185,0.21837 0.24567,-0.10919 -0.90077,0.62781 0.16377,-0.16377 -0.62781,0.90077 0.10918,-0.24567 -0.21836,1.09185 v -0.13648 z"
       id="path1550" />
    <text
       xml:space="preserve"
       style="font-style:normal;font-variant:normal;font-weight:700;font-size:10.4841px;line-height:125%;font-family:'微軟正黑體';text-align:start;letter-spacing:0px;word-spacing:0px;text-anchor:start;fill:#000000;fill-opacity:1;stroke:none;stroke-width:0.264583"
       x="174.47307"
       y="250.20708"
       id="text1556"><tspan
         sodipodi:role="line"
         x="174.47307"
         y="250.20708"
         id="tspan1554"
         style="stroke-width:0.264583"><tspan
           dx="0"
           dy="0"
           style="font-style:normal;font-variant:normal;font-weight:700;font-size:10.4841px;font-family:'微軟正黑體';fill:#000000;stroke-width:0.264583"
           id="tspan1552">7</tspan></tspan></text>
    <path
       style="fill:#ffffff;fill-opacity:1;fill-rule:evenodd;stroke:none;stroke-width:0.264583"
       d="m 58.109146,197.37948 c 0,-1.52858 1.255623,-2.78421 2.784208,-2.78421 0,0 0,0 0,0 v 0 h 11.054944 v 0 c 1.528585,0 2.756912,1.25563 2.756912,2.78421 0,0 0,0 0,0 v 0 29.8347 0 c 0,1.52859 -1.228327,2.75691 -2.756912,2.75691 0,0 0,0 0,0 v 0 H 60.893354 v 0 c -1.528585,0 -2.784208,-1.22832 -2.784208,-2.75691 0,0 0,0 0,0 z"
       id="path1558" />
    <path
       style="fill:#321900;fill-opacity:1;fill-rule:nonzero;stroke:#321900;stroke-width:0.0272962px;stroke-linecap:butt;stroke-linejoin:round;stroke-miterlimit:4;stroke-dasharray:none;stroke-opacity:1"
       d="m 57.454038,197.37948 c 0,-0.0273 0.0273,-0.0819 0.0273,-0.10918 l 0.218369,-1.09185 c 0.0273,-0.0819 0.05459,-0.16378 0.109185,-0.24567 l 0.600516,-0.87347 c 0.0273,-0.0819 0.08189,-0.13648 0.163776,-0.16378 l 0.873478,-0.60051 c 0.08189,-0.0546 0.163776,-0.0819 0.245665,-0.10919 l 1.091846,-0.21837 c 0.0273,0 0.08189,-0.0273 0.109185,-0.0273 h 11.054944 c 0.05459,0 0.109184,0.0273 0.13648,0.0273 l 1.064551,0.21837 c 0.08189,0.0273 0.163776,0.0546 0.245665,0.0819 l 0.900773,0.60052 c 0.05459,0.0546 0.136481,0.13648 0.191073,0.19107 l 0.57322,0.87347 c 0.0273,0.0819 0.05459,0.16378 0.08189,0.24567 l 0.218369,1.09185 c 0,0.0273 0,0.0819 0,0.10918 v 29.8347 c 0,0.0546 0,0.10919 0,0.13648 l -0.218369,1.06455 c -0.0273,0.0819 -0.05459,0.16378 -0.08189,0.21837 l -0.57322,0.90077 c -0.05459,0.0819 -0.136481,0.16378 -0.218369,0.21838 l -0.900773,0.57321 c -0.05459,0.0273 -0.136481,0.0546 -0.218369,0.0819 l -1.064551,0.21837 c -0.0273,0 -0.08189,0 -0.13648,0 H 60.893358 c -0.0273,0 -0.08189,0 -0.109185,0 l -1.091846,-0.21837 c -0.08189,-0.0273 -0.163777,-0.0546 -0.245665,-0.0819 l -0.873478,-0.57321 c -0.05459,-0.0546 -0.13648,-0.13649 -0.191073,-0.19108 l -0.600515,-0.90077 c -0.0273,-0.0819 -0.05459,-0.16378 -0.08189,-0.24567 l -0.218369,-1.06455 c 0,-0.0273 -0.0273,-0.0819 -0.0273,-0.13648 z m 1.310215,29.8347 V 227.105 l 0.21837,1.06455 -0.109185,-0.24567 0.600516,0.90077 -0.163777,-0.19107 0.873477,0.57322 -0.245666,-0.0819 1.091847,0.21837 -0.136481,-0.0273 h 11.054944 l -0.109185,0.0273 1.06455,-0.21837 -0.218369,0.0819 0.900773,-0.57322 -0.218369,0.21837 0.573219,-0.90077 -0.08189,0.21837 0.218369,-1.06455 -0.0273,0.10918 v -29.8347 l 0.0273,0.13648 -0.218369,-1.09184 0.08189,0.24566 -0.573219,-0.87348 0.191073,0.16378 -0.900773,-0.60051 0.245665,0.10918 -1.06455,-0.21837 h 0.109185 -11.054944 0.136481 l -1.091847,0.21837 0.245666,-0.10918 -0.873477,0.60051 0.163777,-0.16378 -0.600516,0.87348 0.109185,-0.24566 -0.21837,1.09184 v -0.13648 z"
       id="path1560" />
    <text
       xml:space="preserve"
       style="font-style:normal;font-variant:normal;font-weight:700;font-size:10.4841px;line-height:125%;font-family:'微軟正黑體';text-align:start;letter-spacing:0px;word-spacing:0px;text-anchor:start;fill:#000000;fill-opacity:1;stroke:none;stroke-width:0.264583"
       x="59.763527"
       y="204.23837"
       id="text1566"><tspan
         sodipodi:role="line"
         x="59.763527"
         y="204.23837"
         id="tspan1564"
         style="stroke-width:0.264583"><tspan
           dx="0"
           dy="0"
           style="font-style:normal;font-variant:normal;font-weight:700;font-size:10.4841px;font-family:'微軟正黑體';fill:#000000;stroke-width:0.264583"
           id="tspan1562">8</tspan></tspan></text>
    <path
       style="fill:#ffffff;fill-opacity:1;fill-rule:evenodd;stroke:none;stroke-width:0.264583"
       d="m 118.1061,219.48937 c -1.52859,0 -2.78421,-1.22833 -2.78421,-2.75691 0,0 0,0 0,0 v 0 -11.05495 0 c 0,-1.52858 1.25562,-2.7842 2.78421,-2.7842 0,0 0,0 0,0 v 0 h 29.8347 v 0 c 1.52858,0 2.75691,1.25562 2.75691,2.7842 0,0 0,0 0,0 v 0 11.05495 0 c 0,1.52858 -1.22833,2.75691 -2.75691,2.75691 0,0 0,0 0,0 z"
       id="path1568" />
    <path
       style="fill:#321900;fill-opacity:1;fill-rule:nonzero;stroke:#321900;stroke-width:0.0272962px;stroke-linecap:butt;stroke-linejoin:round;stroke-miterlimit:4;stroke-dasharray:none;stroke-opacity:1"
       d="m 118.1061,220.14448 c -0.0273,0 -0.0819,0 -0.10919,0 l -1.09184,-0.21837 c -0.0819,-0.0273 -0.16378,-0.0546 -0.24567,-0.0819 l -0.87347,-0.57322 c -0.0546,-0.0546 -0.13648,-0.13648 -0.19108,-0.19107 l -0.60051,-0.90077 c -0.0273,-0.0819 -0.0546,-0.16377 -0.0819,-0.24566 l -0.21837,-1.06455 c 0,-0.0273 -0.0273,-0.0819 -0.0273,-0.13648 v -11.05495 c 0,-0.0273 0.0273,-0.0819 0.0273,-0.10918 l 0.21837,-1.09185 c 0.0273,-0.0819 0.0546,-0.16378 0.10918,-0.24566 l 0.60052,-0.87348 c 0.0273,-0.0819 0.0819,-0.13648 0.16377,-0.16378 l 0.87348,-0.60051 c 0.0819,-0.0546 0.16378,-0.0819 0.24567,-0.10919 l 1.09184,-0.21837 c 0.0273,0 0.0819,-0.0273 0.10919,-0.0273 h 29.8347 c 0.0546,0 0.10918,0.0273 0.13648,0.0273 l 1.06455,0.21837 c 0.0819,0.0273 0.16378,0.0546 0.24566,0.0819 l 0.90078,0.60052 c 0.0546,0.0546 0.13648,0.13648 0.19107,0.19107 l 0.57322,0.87348 c 0.0273,0.0819 0.0546,0.16377 0.0819,0.24566 l 0.21837,1.09185 c 0,0.0273 0,0.0819 0,0.10918 v 11.05495 c 0,0.0546 0,0.10918 0,0.13648 l -0.21837,1.06455 c -0.0273,0.0819 -0.0546,0.16378 -0.0819,0.21837 l -0.57322,0.90077 c -0.0546,0.0819 -0.13648,0.16378 -0.21837,0.21837 l -0.90077,0.57322 c -0.0546,0.0273 -0.13648,0.0546 -0.21837,0.0819 l -1.06455,0.21837 c -0.0273,0 -0.0819,0 -0.13648,0 z m 29.8347,-1.31022 -0.10918,0.0273 1.06454,-0.21837 -0.21836,0.0819 0.90077,-0.57322 -0.21837,0.21837 0.57322,-0.90077 -0.0819,0.21836 0.21837,-1.06455 -0.0273,0.10919 v -11.05495 l 0.0273,0.13649 -0.21837,-1.09185 0.0819,0.24566 -0.57322,-0.87347 0.19107,0.16377 -0.90077,-0.60051 0.24566,0.10918 -1.06454,-0.21837 h 0.10918 -29.8347 0.13648 l -1.09185,0.21837 0.24567,-0.10918 -0.87348,0.60051 0.16378,-0.16377 -0.60052,0.87347 0.10919,-0.24566 -0.21837,1.09185 v -0.13649 11.05495 -0.10919 l 0.21837,1.06455 -0.10919,-0.24566 0.60052,0.90077 -0.16378,-0.19107 0.87348,0.57322 -0.24567,-0.0819 1.09185,0.21837 -0.13648,-0.0273 z"
       id="path1570" />
    <text
       xml:space="preserve"
       style="font-style:normal;font-variant:normal;font-weight:700;font-size:10.4841px;line-height:125%;font-family:'微軟正黑體';text-align:start;letter-spacing:0px;word-spacing:0px;text-anchor:start;fill:#000000;fill-opacity:1;stroke:none;stroke-width:0.264583"
       x="116.97068"
       y="214.45842"
       id="text1576"><tspan
         sodipodi:role="line"
         x="116.97068"
         y="214.45842"
         id="tspan1574"
         style="stroke-width:0.264583"><tspan
           dx="0"
           dy="0"
           style="font-style:normal;font-variant:normal;font-weight:700;font-size:10.4841px;font-family:'微軟正黑體';fill:#000000;stroke-width:0.264583"
           id="tspan1572">0</tspan></tspan></text>
  </g>
</svg>
